<svg width="1440" height="900" viewBox="0 0 1440 900" fill="none" xmlns="http://www.w3.org/2000/svg">
<g clip-path="url(#clip0)">
<g clip-path="url(#clip1)">
<path d="M0.0946813 906.199C0.0946813 906.199 108.417 818.221 279.161 843.358C449.906 868.494 527.016 950.187 657.37 950.187C737.491 950.187 815.832 922.663 880.476 883.482C920.206 859.398 953.474 830.302 982.996 797.295C1061.28 709.71 1215.25 542.208 1362.56 633.374L1364.22 634.411C1512.93 728.673 1259.57 1123 1259.57 1123H415.022L91.8928 1086.87L-66 1002.03L0.0946813 906.199Z" fill="#3C009B"/>
<path d="M-64.0466 -107.264C-64.0466 -107.264 47.9142 73.7655 276.44 83.4817C504.966 93.198 616.536 -127.186 913.941 12.87C1211.34 152.926 1172.18 -112.021 936.938 -207.482C701.695 -302.942 -16.676 -633.195 -64.0466 -107.264Z" fill="#4400FA"/>
<path d="M672.363 138.457C678.101 138.457 682.753 133.805 682.753 128.067C682.753 122.329 678.101 117.678 672.363 117.678C666.625 117.678 661.973 122.329 661.973 128.067C661.973 133.805 666.625 138.457 672.363 138.457Z" fill="#C70091"/>
<path d="M627.023 155.672C627.023 155.163 627.174 154.666 627.457 154.243C627.74 153.82 628.142 153.49 628.612 153.295C629.082 153.101 629.599 153.05 630.098 153.149C630.597 153.248 631.056 153.493 631.416 153.853C631.775 154.213 632.02 154.671 632.12 155.17C632.219 155.669 632.168 156.187 631.973 156.657C631.779 157.127 631.449 157.529 631.026 157.811C630.603 158.094 630.105 158.245 629.596 158.245C628.916 158.24 628.264 157.967 627.783 157.486C627.301 157.004 627.029 156.353 627.023 155.672V155.672Z" fill="#4E00FF"/>
<path d="M657.265 215.654C658.836 205.944 652.237 196.799 642.526 195.228C632.816 193.657 623.67 200.255 622.099 209.965C620.528 219.675 627.126 228.82 636.837 230.391C646.548 231.962 655.694 225.364 657.265 215.654Z" fill="#4E00FF"/>
<path d="M1193.5 352.836C1193.5 349.313 1194.54 345.87 1196.5 342.941C1198.46 340.012 1201.24 337.729 1204.49 336.381C1207.75 335.033 1211.33 334.68 1214.78 335.368C1218.24 336.055 1221.41 337.751 1223.9 340.242C1226.39 342.733 1228.09 345.906 1228.78 349.361C1229.46 352.816 1229.11 356.397 1227.76 359.652C1226.42 362.906 1224.13 365.688 1221.2 367.645C1218.27 369.602 1214.83 370.646 1211.31 370.646C1206.58 370.646 1202.05 368.77 1198.71 365.43C1195.37 362.09 1193.5 357.559 1193.5 352.836Z" fill="#AD0089"/>
<path d="M304.192 516.967L246.422 549.303L244.918 526.822L304.192 516.967Z" fill="#AD0089"/>
<path d="M301.426 515.584L243.656 547.94L242.152 525.459L301.426 515.584Z" fill="#4E00FF"/>
<path d="M1163.5 465.158L1238.94 478.279L1231.97 453.166L1163.5 465.158Z" fill="#AD0089"/>
<path d="M1165.98 462.608L1241.43 475.728L1234.46 450.615L1165.98 462.608Z" fill="#4E00FF"/>
<path d="M1116.24 626.324L1188.71 660.421L1167.66 677.717L1116.24 626.324Z" fill="#AD0089"/>
<path d="M1116.82 630.004L1189.3 664.101L1168.24 681.397L1116.82 630.004Z" fill="#4E00FF"/>
<path d="M894.656 201.544L923.769 126.918L942.451 146.747L894.656 201.544Z" fill="#AD0089"/>
<path d="M898.297 200.694L927.389 126.068L946.092 145.917L898.297 200.694Z" fill="#4E00FF"/>
<g style="mix-blend-mode:lighten">
<g style="mix-blend-mode:lighten">
<path d="M316.941 702.673C316.941 700.558 317.569 698.491 318.744 696.734C319.919 694.976 321.589 693.606 323.543 692.798C325.497 691.99 327.647 691.779 329.721 692.193C331.794 692.607 333.699 693.627 335.192 695.123C336.686 696.62 337.703 698.526 338.113 700.6C338.523 702.674 338.308 704.824 337.496 706.776C336.684 708.728 335.312 710.396 333.552 711.568C331.791 712.739 329.723 713.363 327.609 713.359C326.206 713.359 324.817 713.082 323.522 712.545C322.226 712.008 321.05 711.22 320.059 710.228C319.068 709.235 318.283 708.057 317.748 706.761C317.213 705.464 316.939 704.075 316.941 702.673V702.673Z" fill="#AD0089"/>
</g>
<g style="mix-blend-mode:lighten">
<path d="M314.148 702.673C314.148 700.559 314.775 698.493 315.95 696.736C317.124 694.978 318.793 693.609 320.746 692.8C322.699 691.991 324.847 691.779 326.92 692.192C328.994 692.604 330.898 693.622 332.392 695.116C333.887 696.611 334.905 698.515 335.317 700.588C335.73 702.661 335.518 704.809 334.709 706.762C333.9 708.715 332.53 710.384 330.773 711.558C329.015 712.732 326.949 713.359 324.836 713.359C322.001 713.359 319.283 712.233 317.279 710.229C315.274 708.225 314.148 705.507 314.148 702.673V702.673Z" fill="#4E00FF"/>
</g>
</g>
<path d="M232.905 634.834C235.637 634.834 237.852 632.619 237.852 629.887C237.852 627.154 235.637 624.939 232.905 624.939C230.172 624.939 227.957 627.154 227.957 629.887C227.957 632.619 230.172 634.834 232.905 634.834Z" fill="#C70091"/>
<path d="M290.3 609.109C296.858 609.109 302.175 603.793 302.175 597.235C302.175 590.677 296.858 585.361 290.3 585.361C283.742 585.361 278.426 590.677 278.426 597.235C278.426 603.793 283.742 609.109 290.3 609.109Z" fill="#4E00FF"/>
<path d="M425.016 774.822C425.016 773.972 425.267 773.142 425.739 772.436C426.211 771.73 426.882 771.179 427.667 770.854C428.451 770.529 429.315 770.444 430.148 770.61C430.981 770.776 431.746 771.185 432.347 771.785C432.948 772.386 433.357 773.151 433.522 773.984C433.688 774.817 433.603 775.68 433.278 776.465C432.953 777.25 432.402 777.92 431.696 778.392C430.99 778.864 430.16 779.116 429.31 779.116C428.171 779.116 427.079 778.664 426.273 777.858C425.468 777.053 425.016 775.961 425.016 774.822V774.822Z" fill="#4E00FF"/>
<g style="mix-blend-mode:lighten">
<path d="M820.518 708.596C821.276 706.651 820.314 704.46 818.369 703.702C816.423 702.944 814.232 703.906 813.474 705.851C812.716 707.796 813.678 709.987 815.624 710.745C817.569 711.503 819.76 710.541 820.518 708.596Z" fill="#4E00FF"/>
</g>
<path d="M412.409 207.499C417.6 207.499 421.809 203.291 421.809 198.099C421.809 192.908 417.6 188.699 412.409 188.699C407.217 188.699 403.008 192.908 403.008 198.099C403.008 203.291 407.217 207.499 412.409 207.499Z" fill="#4E00FF"/>
<g style="mix-blend-mode:lighten">
<path d="M306.25 349.213C306.25 348.497 306.462 347.797 306.86 347.201C307.258 346.606 307.824 346.142 308.486 345.867C309.148 345.593 309.876 345.522 310.578 345.661C311.281 345.801 311.926 346.146 312.433 346.652C312.939 347.159 313.284 347.804 313.424 348.507C313.564 349.209 313.492 349.937 313.218 350.599C312.944 351.261 312.479 351.826 311.884 352.224C311.288 352.622 310.588 352.835 309.872 352.835C308.911 352.835 307.99 352.453 307.311 351.774C306.632 351.095 306.25 350.174 306.25 349.213V349.213Z" fill="#4E00FF"/>
</g>
<path d="M1107.74 254.327C1109.56 246.614 1104.78 238.89 1097.06 237.075C1089.35 235.26 1081.62 240.042 1079.81 247.755C1077.99 255.468 1082.78 263.192 1090.49 265.007C1098.2 266.821 1105.93 262.04 1107.74 254.327Z" fill="#4E00FF"/>
<path d="M1036.24 242.351C1036.23 241.75 1036.39 241.158 1036.72 240.653C1037.05 240.147 1037.51 239.75 1038.07 239.512C1038.62 239.273 1039.23 239.205 1039.82 239.315C1040.41 239.425 1040.96 239.708 1041.39 240.129C1041.82 240.55 1042.11 241.09 1042.23 241.679C1042.35 242.267 1042.3 242.879 1042.07 243.436C1041.84 243.993 1041.45 244.469 1040.96 244.805C1040.46 245.14 1039.87 245.319 1039.27 245.319C1038.47 245.325 1037.71 245.015 1037.14 244.459C1036.57 243.903 1036.25 243.145 1036.24 242.351V242.351Z" fill="#4E00FF"/>
<g style="mix-blend-mode:lighten">
<path d="M847.091 745.857C847.875 743.922 846.943 741.718 845.009 740.933C843.074 740.148 840.87 741.081 840.085 743.015C839.3 744.949 840.232 747.154 842.167 747.938C844.101 748.723 846.306 747.791 847.091 745.857Z" fill="#AD0089"/>
</g>
<path d="M331.031 289.31C331.031 288.281 331.337 287.274 331.908 286.419C332.48 285.563 333.293 284.896 334.244 284.502C335.195 284.108 336.242 284.005 337.252 284.205C338.261 284.406 339.189 284.902 339.917 285.63C340.645 286.358 341.14 287.285 341.341 288.295C341.542 289.304 341.439 290.351 341.045 291.302C340.651 292.253 339.984 293.066 339.128 293.638C338.272 294.209 337.266 294.515 336.236 294.515C334.856 294.515 333.532 293.966 332.556 292.99C331.58 292.014 331.031 290.69 331.031 289.31V289.31Z" fill="#AD0089"/>
<g style="mix-blend-mode:lighten">
<g style="mix-blend-mode:lighten">
<path d="M1319.27 682.348C1326.06 682.348 1331.56 676.846 1331.56 670.059C1331.56 663.272 1326.06 657.77 1319.27 657.77C1312.48 657.77 1306.98 663.272 1306.98 670.059C1306.98 676.846 1312.48 682.348 1319.27 682.348Z" fill="#AD0089"/>
</g>
<g style="mix-blend-mode:lighten">
<path d="M1299.95 670.079C1299.95 667.646 1300.67 665.268 1302.02 663.244C1303.37 661.22 1305.28 659.641 1307.53 658.709C1309.78 657.776 1312.25 657.531 1314.64 658.005C1317.02 658.478 1319.21 659.649 1320.93 661.369C1322.65 663.089 1323.82 665.28 1324.3 667.666C1324.77 670.052 1324.53 672.524 1323.59 674.771C1322.66 677.017 1321.08 678.936 1319.06 680.285C1317.03 681.634 1314.66 682.352 1312.22 682.348C1310.61 682.348 1309.02 682.031 1307.53 681.414C1306.04 680.797 1304.69 679.894 1303.55 678.754C1302.41 677.615 1301.5 676.262 1300.89 674.774C1300.27 673.285 1299.95 671.69 1299.95 670.079V670.079Z" fill="#4E00FF"/>
</g>
</g>
<path d="M755.008 172.632C755.004 170.521 755.626 168.457 756.796 166.7C757.966 164.944 759.63 163.573 761.579 162.763C763.528 161.953 765.674 161.739 767.744 162.148C769.815 162.557 771.717 163.572 773.211 165.062C774.705 166.553 775.723 168.454 776.136 170.524C776.549 172.593 776.339 174.739 775.532 176.689C774.725 178.639 773.358 180.306 771.604 181.479C769.849 182.652 767.786 183.278 765.675 183.278C762.849 183.278 760.139 182.157 758.139 180.161C756.139 178.165 755.013 175.457 755.008 172.632V172.632Z" fill="#AD0089"/>
<path d="M1003.17 789.645C1003.16 789.342 1003.25 789.045 1003.42 788.791C1003.58 788.537 1003.82 788.339 1004.1 788.221C1004.38 788.104 1004.69 788.072 1004.98 788.13C1005.28 788.188 1005.56 788.334 1005.77 788.548C1005.98 788.762 1006.13 789.035 1006.19 789.333C1006.25 789.63 1006.21 789.938 1006.1 790.218C1005.98 790.497 1005.78 790.735 1005.53 790.9C1005.27 791.066 1004.98 791.153 1004.67 791.149C1004.27 791.149 1003.89 790.991 1003.61 790.708C1003.33 790.426 1003.17 790.044 1003.17 789.645Z" fill="#4E00FF"/>
<path d="M1222.75 564.679C1224.52 564.679 1225.96 563.244 1225.96 561.474C1225.96 559.703 1224.52 558.268 1222.75 558.268C1220.98 558.268 1219.54 559.703 1219.54 561.474C1219.54 563.244 1220.98 564.679 1222.75 564.679Z" fill="#C70091"/>
<path d="M406.847 494.468C408.617 494.468 410.053 493.033 410.053 491.263C410.053 489.492 408.617 488.057 406.847 488.057C405.076 488.057 403.641 489.492 403.641 491.263C403.641 493.033 405.076 494.468 406.847 494.468Z" fill="#C70091"/>
<path d="M274.073 458.491C275.986 458.491 277.536 456.94 277.536 455.028C277.536 453.115 275.986 451.564 274.073 451.564C272.16 451.564 270.609 453.115 270.609 455.028C270.609 456.94 272.16 458.491 274.073 458.491Z" fill="#4E00FF"/>
<path d="M478.491 616.034C480.404 616.034 481.954 614.483 481.954 612.571C481.954 610.658 480.404 609.107 478.491 609.107C476.578 609.107 475.027 610.658 475.027 612.571C475.027 614.483 476.578 616.034 478.491 616.034Z" fill="#4E00FF"/>
<path d="M332.594 111.958C332.594 111.175 332.826 110.41 333.261 109.759C333.696 109.108 334.314 108.601 335.037 108.301C335.76 108.002 336.556 107.923 337.324 108.076C338.092 108.229 338.797 108.606 339.351 109.159C339.904 109.713 340.281 110.418 340.434 111.186C340.587 111.953 340.508 112.749 340.209 113.472C339.909 114.196 339.402 114.814 338.751 115.249C338.1 115.684 337.335 115.916 336.552 115.916C335.502 115.916 334.495 115.499 333.753 114.757C333.011 114.014 332.594 113.008 332.594 111.958Z" fill="#4E00FF"/>
<g style="mix-blend-mode:lighten">
<g style="mix-blend-mode:lighten">
<path d="M954.918 680.645L955.433 723.746L917.375 698.791L954.918 680.645Z" fill="#AD0089"/>
</g>
<g style="mix-blend-mode:lighten">
<path d="M950.328 679.775L950.843 722.897L912.785 697.942L950.328 679.775Z" fill="#4E00FF"/>
</g>
</g>
<g style="mix-blend-mode:lighten">
<g style="mix-blend-mode:lighten">
<path d="M411.145 696.419L420.13 654.248L451.755 686.96L411.145 696.419Z" fill="#4E00FF"/>
</g>
<g style="mix-blend-mode:lighten">
<path d="M406.848 694.577L415.833 652.406L447.459 685.098L406.848 694.577Z" fill="#AD0089"/>
</g>
</g>
<g style="mix-blend-mode:lighten">
<g style="mix-blend-mode:lighten">
<path d="M775.834 723.591L761.822 737.265L758.102 716.941L775.834 723.591Z" fill="#AD0089"/>
</g>
<g style="mix-blend-mode:lighten">
<path d="M774.666 721.809L760.654 735.484L756.934 715.16L774.666 721.809Z" fill="#4E00FF"/>
</g>
</g>
<g style="mix-blend-mode:lighten">
<path d="M283.729 340.446L264.156 339.675L276.367 322.992L283.729 340.446Z" fill="#AD0089"/>
</g>
<path d="M284.222 336.407L264.648 335.636L276.859 318.953L284.222 336.407Z" fill="#4E00FF"/>
<g style="mix-blend-mode:lighten">
<g style="mix-blend-mode:lighten">
<path d="M1180.12 246.388L1183.37 255.333L1210.4 222.146L1212.95 232.16L1245.98 194.006L1209.07 253.473L1205.35 242.47L1179.19 278.922L1175.43 266.791L1140.06 303.144L1180.12 246.388Z" fill="#AD0089"/>
</g>
<g style="mix-blend-mode:lighten">
<path d="M1179.56 238.474L1182.83 247.419L1209.84 214.213L1212.42 224.246L1245.45 186.092L1208.54 245.559L1204.82 234.556L1178.65 271.008L1174.89 258.877L1139.53 295.23L1179.56 238.474Z" fill="#4E00FF"/>
</g>
</g>
<g style="mix-blend-mode:lighten">
<g style="mix-blend-mode:lighten">
<path d="M1297.47 619.199C1297.47 618.515 1297.68 617.845 1298.06 617.275C1298.44 616.706 1298.98 616.262 1299.61 616C1300.24 615.738 1300.94 615.669 1301.61 615.803C1302.28 615.937 1302.9 616.266 1303.39 616.751C1303.87 617.235 1304.2 617.852 1304.33 618.524C1304.47 619.196 1304.4 619.892 1304.14 620.525C1303.87 621.158 1303.43 621.698 1302.86 622.079C1302.29 622.46 1301.62 622.663 1300.94 622.663C1300.48 622.665 1300.03 622.577 1299.61 622.404C1299.19 622.231 1298.8 621.976 1298.48 621.654C1298.16 621.332 1297.9 620.949 1297.73 620.528C1297.56 620.106 1297.47 619.655 1297.47 619.199V619.199Z" fill="#AD0089"/>
</g>
<g style="mix-blend-mode:lighten">
<path d="M1295.5 619.199C1295.5 618.515 1295.7 617.845 1296.08 617.275C1296.46 616.706 1297 616.262 1297.63 616C1298.27 615.738 1298.96 615.669 1299.64 615.803C1300.31 615.937 1300.92 616.266 1301.41 616.751C1301.89 617.235 1302.22 617.852 1302.36 618.524C1302.49 619.196 1302.42 619.892 1302.16 620.525C1301.9 621.158 1301.45 621.698 1300.88 622.079C1300.31 622.46 1299.64 622.663 1298.96 622.663C1298.5 622.665 1298.05 622.577 1297.63 622.404C1297.21 622.231 1296.83 621.976 1296.5 621.654C1296.18 621.332 1295.93 620.949 1295.75 620.528C1295.58 620.106 1295.49 619.655 1295.5 619.199V619.199Z" fill="#4E00FF"/>
</g>
</g>
<g style="mix-blend-mode:lighten">
<g style="mix-blend-mode:lighten">
<path d="M629.574 661.27L601.887 733.442L605.489 746.384L629.574 661.27Z" fill="#AD0089"/>
</g>
<g style="mix-blend-mode:lighten">
<path d="M634.523 653.869L606.855 726.041L610.457 738.964L634.523 653.869Z" fill="#4E00FF"/>
</g>
</g>
<path d="M1059.39 193.944L1080.19 159.115L1079.48 152.09L1059.39 193.944Z" fill="#AD0089"/>
<path d="M1056.17 197.329L1076.97 162.5L1076.26 155.475L1056.17 197.329Z" fill="#4E00FF"/>
<path d="M1081.11 727.229C1081.11 728.274 1080.8 729.296 1080.22 730.165C1079.64 731.033 1078.81 731.711 1077.85 732.111C1076.88 732.511 1075.82 732.615 1074.79 732.411C1073.77 732.207 1072.83 731.704 1072.09 730.965C1071.35 730.226 1070.84 729.285 1070.64 728.26C1070.44 727.235 1070.54 726.173 1070.94 725.207C1071.34 724.242 1072.02 723.416 1072.89 722.836C1073.76 722.255 1074.78 721.945 1075.82 721.945C1077.22 721.945 1078.57 722.502 1079.56 723.493C1080.55 724.484 1081.11 725.828 1081.11 727.229V727.229Z" fill="#4E00FF"/>
<path d="M1131.87 699.486C1131.87 700.195 1131.66 700.887 1131.26 701.476C1130.87 702.065 1130.31 702.524 1129.66 702.795C1129 703.066 1128.28 703.137 1127.59 702.999C1126.89 702.861 1126.25 702.52 1125.75 702.019C1125.25 701.518 1124.91 700.88 1124.77 700.185C1124.63 699.49 1124.7 698.77 1124.98 698.115C1125.25 697.461 1125.71 696.902 1126.3 696.508C1126.88 696.114 1127.58 695.904 1128.29 695.904C1129.24 695.904 1130.15 696.282 1130.82 696.953C1131.49 697.625 1131.87 698.536 1131.87 699.486Z" fill="#4E00FF"/>
<path d="M1211.33 636.476C1211.33 637.185 1211.12 637.877 1210.73 638.466C1210.33 639.055 1209.78 639.515 1209.12 639.786C1208.47 640.057 1207.75 640.128 1207.05 639.989C1206.36 639.851 1205.72 639.51 1205.22 639.009C1204.72 638.508 1204.38 637.87 1204.24 637.175C1204.1 636.48 1204.17 635.76 1204.44 635.106C1204.71 634.451 1205.17 633.892 1205.76 633.498C1206.35 633.105 1207.04 632.895 1207.75 632.895C1208.7 632.895 1209.61 633.272 1210.28 633.944C1210.95 634.615 1211.33 635.526 1211.33 636.476V636.476Z" fill="#4E00FF"/>
<g style="mix-blend-mode:lighten">
<path d="M689.25 757.866C692.529 757.866 695.187 755.208 695.187 751.929C695.187 748.65 692.529 745.992 689.25 745.992C685.971 745.992 683.312 748.65 683.312 751.929C683.312 755.208 685.971 757.866 689.25 757.866Z" fill="#C70091"/>
</g>
<path d="M526.21 151.716C526.21 152.773 525.897 153.806 525.31 154.685C524.723 155.563 523.888 156.248 522.912 156.653C521.935 157.057 520.861 157.163 519.824 156.957C518.788 156.751 517.836 156.242 517.089 155.494C516.341 154.747 515.832 153.795 515.626 152.759C515.42 151.722 515.526 150.648 515.93 149.671C516.335 148.695 517.02 147.861 517.898 147.274C518.777 146.686 519.81 146.373 520.867 146.373C521.569 146.37 522.265 146.507 522.915 146.774C523.564 147.042 524.155 147.436 524.651 147.932C525.148 148.429 525.541 149.019 525.809 149.668C526.077 150.318 526.213 151.014 526.21 151.716Z" fill="#4E00FF"/>
<path d="M1290.89 428.847C1290.89 429.629 1290.66 430.395 1290.22 431.045C1289.79 431.696 1289.17 432.204 1288.45 432.503C1287.72 432.803 1286.93 432.881 1286.16 432.728C1285.39 432.576 1284.69 432.199 1284.13 431.645C1283.58 431.092 1283.2 430.386 1283.05 429.619C1282.9 428.851 1282.97 428.055 1283.27 427.332C1283.57 426.609 1284.08 425.991 1284.73 425.556C1285.38 425.121 1286.15 424.889 1286.93 424.889C1287.98 424.889 1288.99 425.306 1289.73 426.048C1290.47 426.79 1290.89 427.797 1290.89 428.847Z" fill="#4E00FF"/>
<path d="M212.444 399.814C215.001 399.814 217.075 397.741 217.075 395.184C217.075 392.626 215.001 390.553 212.444 390.553C209.886 390.553 207.812 392.626 207.812 395.184C207.812 397.741 209.886 399.814 212.444 399.814Z" fill="#4E00FF"/>
<path d="M194.631 251.394C197.189 251.394 199.262 249.321 199.262 246.764C199.262 244.206 197.189 242.133 194.631 242.133C192.073 242.133 190 244.206 190 246.764C190 249.321 192.073 251.394 194.631 251.394Z" fill="#4E00FF"/>
<path d="M748.891 172.632C748.887 170.521 749.509 168.457 750.679 166.7C751.849 164.944 753.513 163.573 755.462 162.763C757.411 161.953 759.556 161.739 761.627 162.148C763.697 162.557 765.6 163.572 767.094 165.062C768.588 166.553 769.606 168.454 770.019 170.524C770.432 172.593 770.222 174.739 769.415 176.689C768.608 178.639 767.241 180.306 765.486 181.479C763.732 182.652 761.669 183.278 759.558 183.278C756.734 183.273 754.027 182.15 752.028 180.155C750.029 178.16 748.901 175.455 748.891 172.632Z" fill="#4E00FF"/>
<path d="M332.652 211.478L326.18 223.411L291.684 166.457L273.16 198.14L329.802 248.959L336.61 233.662L368.157 270.906L332.652 211.478Z" fill="#AD0089"/>
<path d="M343.479 212.429L337.008 224.362L302.512 167.408L284.008 199.071L340.63 249.91L347.438 234.613L378.984 271.857L343.479 212.429Z" fill="#4E00FF"/>
<path d="M327.586 289.311C327.582 288.276 327.885 287.264 328.457 286.403C329.029 285.541 329.843 284.868 330.798 284.47C331.752 284.071 332.803 283.965 333.818 284.164C334.833 284.364 335.766 284.86 336.498 285.59C337.231 286.319 337.73 287.25 337.934 288.264C338.137 289.278 338.035 290.33 337.64 291.286C337.245 292.241 336.575 293.058 335.716 293.633C334.856 294.208 333.845 294.515 332.811 294.515C331.428 294.515 330.103 293.968 329.123 292.992C328.144 292.017 327.591 290.693 327.586 289.311Z" fill="#4E00FF"/>
</g>
</g>
<defs>
<clipPath id="clip0">
<rect width="1440" height="900" fill="white"/>
</clipPath>
<clipPath id="clip1">
<rect width="2063" height="1416" fill="white" transform="translate(-271 -258)"/>
</clipPath>
</defs>
</svg>
