<svg width="1440" height="900" viewBox="0 0 1440 900" fill="none" xmlns="http://www.w3.org/2000/svg">
<g clip-path="url(#clip0)">
<g clip-path="url(#clip1)">
<path d="M51.1863 792.436C89.346 734.694 158.611 743.718 317.533 768.319C476.455 792.919 548.226 872.871 669.553 872.871C744.127 872.871 817.043 845.934 877.211 807.588C914.19 784.017 945.154 755.542 972.632 723.238C1045.5 637.521 1188.8 473.589 1325.92 562.812L1327.45 563.827C1465.87 656.079 1230.05 1042 1230.05 1042H443.987L143.232 1006.64C143.232 1006.64 31.6393 1043.31 26.5215 960.28C21.4037 877.253 13.0267 850.178 51.1863 792.436Z" fill="#3C009B"/>
<path d="M54.9534 -37.2641C54.9534 -37.2641 166.914 143.765 395.44 153.482C623.966 163.198 735.536 -57.1859 1032.94 82.87C1330.34 222.926 1291.18 -42.021 1055.94 -137.482C820.695 -232.942 102.324 -563.195 54.9534 -37.2641Z" fill="#4400FA"/>
</g>
</g>
<defs>
<clipPath id="clip0">
<rect width="1440" height="900" fill="white"/>
</clipPath>
<clipPath id="clip1">
<rect width="2063" height="1416" fill="white" transform="translate(-271 -258)"/>
</clipPath>
</defs>
</svg>
