<svg width="948" height="739" viewBox="0 0 948 739" fill="none" xmlns="http://www.w3.org/2000/svg">
<path d="M264.492 608.507C269.198 611.415 282.005 613.592 285.571 612.78C309.351 607.398 354.506 600.202 369.542 579.274C372.114 575.689 359.44 560.159 359.844 555.295C354.171 543.426 351.467 539.659 351.616 525.725C352.056 484.584 435.481 474.395 396.173 415.095C367.379 371.661 323.972 358.485 376.786 301.911C429.599 245.338 470.746 97.5162 373.514 87.9493C317.714 82.4612 313.206 163.373 263.994 185.801C217.229 207.118 208.495 248.824 229.045 301.08C249.595 353.337 215.933 353.361 177.348 378.351C130.988 408.383 187.855 466.539 216.401 491.15C239.383 510.977 284.542 576.951 264.492 608.507Z" fill="url(#paint0_linear)" style="mix-blend-mode:multiply"/>
<path d="M259.114 553.172C263.9 554.017 275.048 551.634 277.7 549.811C295.341 537.701 329.843 517.179 335.316 495.23C336.25 491.482 320.873 482.92 319.625 478.82C311.145 470.981 307.719 468.779 303.317 457.374C290.325 423.68 355.063 388.294 303.759 352.687C266.179 326.606 226.504 329.947 251.218 266.672C275.931 203.397 261.509 69.4791 179.101 93.2374C131.808 106.871 154.385 174.323 121.529 208.586C90.3048 241.148 96.716 278 130.431 313.947C164.147 349.895 136.691 360.837 113.342 393.748C85.2774 433.287 150.531 462.262 181.8 473.068C206.976 481.778 265.217 520.926 259.114 553.172Z" fill="#FF6051"/>
<path d="M945.483 553.471L894.688 306.377C884.605 257.324 837.666 227.155 791.168 240.632L770.158 246.731C762.613 248.919 754.798 250.039 746.942 250.058L700.026 250.16L506.983 250.573L456.149 250.659C447.444 250.678 438.775 249.533 430.373 247.255L406.68 240.842C352.981 226.306 296.921 259.359 284.621 313.71L221.288 593.702C210.697 640.526 237.327 685.284 283.051 698.135C333.918 712.427 388.874 680.635 402.888 629.655L424.634 550.472C429.144 534.042 443.977 522.14 460.801 521.361L742.726 508.391C757.983 507.69 771.27 517.682 775.293 532.789L794.519 604.997C806.764 650.986 853.811 673.235 895.976 653.678C932.789 636.586 953.777 593.888 945.483 553.471Z" fill="url(#paint1_linear)"/>
<path style="mix-blend-mode:multiply" opacity="0.3" d="M698.407 380.372L541.368 384.752C527.387 385.143 516 372.237 516 355.919V250.602L722.064 250.092V351.325C722.064 367.003 711.501 380.006 698.407 380.372Z" fill="url(#paint2_linear)"/>
<path style="mix-blend-mode:multiply" opacity="0.3" d="M827.153 591.341C826.659 572.907 835.444 563.411 833.569 535.237C832.692 522.065 830.198 484.624 805.501 465.508C781.839 447.193 749.148 454.479 706.864 463.905C652.377 476.048 654.488 489.09 616.242 494.36C560.485 502.046 540.606 476.448 499.962 489.553C479.698 496.085 464.23 509.038 452.609 522.659C455.281 521.927 458.025 521.489 460.793 521.353L742.718 508.383C757.975 507.682 771.262 517.674 775.284 532.781L794.511 604.989C804.447 642.309 837.3 663.992 871.864 660.391C836.487 632.431 827.624 608.904 827.153 591.341Z" fill="url(#paint3_linear)"/>
<path d="M488.013 355.267C488.013 401.043 450.531 439.372 403.664 440.894C356.082 442.441 316.977 405.576 316.977 358.533C316.977 311.49 356.09 273.142 403.664 272.865C450.531 272.596 488.013 309.497 488.013 355.267Z" fill="url(#paint4_linear)"/>
<path d="M583.669 464.213C583.669 501.211 553.887 532.648 516.743 534.441C479.147 536.26 448.328 507.088 448.328 469.264C448.328 431.44 479.147 399.953 516.743 398.977C553.887 397.998 583.669 427.212 583.669 464.213Z" fill="url(#paint5_linear)"/>
<path d="M570.774 464.692C570.774 494.562 546.701 519.888 516.745 521.272C486.494 522.658 461.75 499.164 461.75 468.762C461.75 438.359 486.494 413.008 516.745 412.145C546.701 411.294 570.774 434.824 570.774 464.692Z" fill="#1B2056"/>
<path d="M552.825 465.566C552.825 482.365 539.288 496.618 522.444 497.383C505.434 498.17 491.52 484.951 491.52 467.856C491.52 450.762 505.434 436.503 522.447 436.02C539.288 435.541 552.825 448.771 552.825 465.566Z" fill="url(#paint6_linear)"/>
<path d="M782.992 455.946C782.992 491.6 755.346 521.836 720.882 523.502C686.01 525.188 657.438 497.05 657.438 460.631C657.438 424.213 686.01 393.943 720.882 393.025C755.346 392.116 782.992 420.295 782.992 455.946Z" fill="url(#paint7_linear)"/>
<path d="M771.02 456.392C771.02 485.17 748.681 509.535 720.886 510.818C692.827 512.113 669.883 489.443 669.883 460.169C669.883 430.894 692.827 406.511 720.886 405.701C748.681 404.922 771.02 427.603 771.02 456.392Z" fill="url(#paint8_linear)"/>
<path d="M766.694 456.869C766.694 477.677 749.944 495.351 729.059 496.363C707.918 497.383 690.586 480.979 690.586 459.711C690.586 438.444 707.918 420.742 729.059 420.187C749.944 419.638 766.694 436.062 766.694 456.869Z" fill="url(#paint9_linear)"/>
<path d="M759.438 457.141C759.438 473.936 745.904 488.192 729.057 488.954C712.047 489.742 698.133 476.526 698.133 459.428C698.133 442.33 712.047 428.077 729.057 427.603C745.904 427.112 759.438 440.356 759.438 457.141Z" fill="url(#paint10_linear)"/>
<path d="M488.028 305.202C486.662 305.222 485.307 304.97 484.04 304.462C482.772 303.953 481.619 303.198 480.647 302.24C479.674 301.281 478.902 300.14 478.375 298.88C477.849 297.621 477.578 296.27 477.578 294.905V276.607C477.585 273.838 478.688 271.184 480.646 269.224C482.603 267.265 485.257 266.158 488.028 266.147V266.147C489.391 266.137 490.743 266.397 492.006 266.911C493.268 267.426 494.416 268.185 495.384 269.145C496.352 270.105 497.12 271.247 497.644 272.504C498.168 273.762 498.438 275.111 498.439 276.474V294.711C498.427 297.475 497.329 300.124 495.382 302.087C493.434 304.049 490.793 305.168 488.028 305.202V305.202Z" fill="url(#paint11_linear)"/>
<path d="M741.426 302.138C736.172 302.196 731.902 297.791 731.902 292.301V274.84C731.902 269.348 736.172 264.879 741.426 264.859C746.671 264.835 750.918 269.251 750.918 274.724V292.138C750.918 297.596 746.671 302.08 741.426 302.138Z" fill="url(#paint12_linear)"/>
<path d="M412.631 296.012L394.667 296.181C389.374 296.231 385.074 300.483 385.074 305.682V326.112C385.073 327.961 385.632 329.768 386.678 331.294L394.8 343.165C395.688 344.448 396.882 345.491 398.273 346.199C399.664 346.907 401.209 347.26 402.77 347.224L404.553 347.202C406.129 347.174 407.674 346.766 409.057 346.013C410.44 345.259 411.621 344.182 412.498 342.874L420.543 330.795C421.581 329.252 422.136 327.436 422.138 325.577V305.28C422.131 304.045 421.879 302.824 421.396 301.687C420.913 300.55 420.208 299.521 419.324 298.659C418.439 297.796 417.392 297.118 416.243 296.664C415.094 296.209 413.867 295.988 412.631 296.012Z" fill="url(#paint13_linear)"/>
<path d="M412.631 417.4L394.667 417.919C389.374 418.071 385.074 413.979 385.074 408.77V388.353C385.079 386.486 385.637 384.662 386.678 383.111L394.8 370.929C395.68 369.616 396.864 368.534 398.251 367.774C399.639 367.014 401.188 366.6 402.77 366.565L404.553 366.529C406.108 366.487 407.648 366.833 409.035 367.535C410.422 368.237 411.613 369.274 412.498 370.552L420.543 382.323C421.577 383.837 422.13 385.628 422.127 387.461V407.772C422.138 412.937 417.885 417.251 412.631 417.4Z" fill="url(#paint14_linear)"/>
<path d="M341.188 349.156V366.983C341.188 372.217 345.545 376.365 350.916 376.246L371.926 375.785C373.827 375.74 375.676 375.154 377.255 374.094L389.522 365.86C390.831 364.993 391.906 363.817 392.654 362.436C393.401 361.055 393.797 359.512 393.808 357.942V356.187C393.809 354.636 393.416 353.111 392.667 351.753C391.917 350.395 390.835 349.25 389.522 348.424L377.255 340.661C375.661 339.658 373.809 339.142 371.926 339.175L350.916 339.516C345.545 339.608 341.188 343.922 341.188 349.156Z" fill="url(#paint15_linear)"/>
<path d="M464.912 346.969V364.435C464.891 366.927 463.9 369.312 462.149 371.085C460.398 372.858 458.025 373.88 455.533 373.934L435.08 374.383C433.231 374.428 431.41 373.926 429.845 372.941L417.737 365.273C416.433 364.45 415.36 363.311 414.616 361.961C413.872 360.611 413.483 359.095 413.484 357.554V355.805C413.493 354.243 413.885 352.708 414.627 351.334C415.368 349.959 416.436 348.788 417.737 347.923L429.845 339.794C431.395 338.753 433.213 338.182 435.08 338.15L455.533 337.817C456.754 337.787 457.969 338.002 459.106 338.448C460.242 338.895 461.278 339.564 462.152 340.417C463.027 341.27 463.721 342.289 464.195 343.414C464.669 344.54 464.912 345.748 464.912 346.969V346.969Z" fill="url(#paint16_linear)"/>
<path d="M416.636 296.902L398.675 297.068C393.379 297.118 389.082 301.374 389.082 306.572V327.002C389.079 328.85 389.636 330.656 390.68 332.181L398.802 344.053C399.69 345.336 400.883 346.379 402.273 347.087C403.664 347.796 405.209 348.149 406.769 348.114L408.55 348.084C410.125 348.056 411.67 347.647 413.053 346.894C414.437 346.14 415.617 345.064 416.495 343.756L424.539 331.677C425.571 330.139 426.123 328.33 426.126 326.478V306.17C426.119 304.937 425.868 303.717 425.386 302.581C424.904 301.446 424.201 300.417 423.318 299.555C422.435 298.693 421.39 298.014 420.243 297.559C419.096 297.104 417.87 296.88 416.636 296.902V296.902Z" fill="url(#paint17_linear)"/>
<path d="M416.636 418.291L398.675 418.807C393.379 418.959 389.082 414.87 389.082 409.672V389.242C389.085 387.375 389.641 385.551 390.68 383.999L398.802 371.819C399.68 370.504 400.863 369.419 402.25 368.657C403.637 367.895 405.187 367.478 406.769 367.442L408.55 367.406C410.105 367.364 411.645 367.71 413.033 368.413C414.42 369.116 415.61 370.153 416.495 371.431L424.539 383.203C425.575 384.716 426.129 386.507 426.126 388.34V408.649C426.145 413.828 421.89 418.139 416.636 418.291Z" fill="url(#paint18_linear)"/>
<path d="M345.188 350.047V367.871C345.188 373.108 349.545 377.253 354.913 377.136L375.923 376.673C377.825 376.629 379.675 376.044 381.255 374.985L393.522 366.751C394.83 365.885 395.906 364.712 396.654 363.334C397.402 361.955 397.8 360.414 397.813 358.846V357.092C397.816 355.541 397.424 354.015 396.675 352.657C395.926 351.299 394.844 350.154 393.53 349.329L381.263 341.566C379.669 340.561 377.816 340.045 375.932 340.08L354.921 340.418C349.554 340.498 345.188 344.812 345.188 350.047Z" fill="url(#paint19_linear)"/>
<path d="M468.922 347.858V365.325C468.9 367.816 467.909 370.2 466.158 371.973C464.407 373.746 462.035 374.768 459.543 374.823L439.087 375.272C437.239 375.318 435.419 374.815 433.856 373.828L421.75 366.17C420.446 365.348 419.373 364.208 418.629 362.859C417.886 361.509 417.498 359.992 417.5 358.452V356.702C417.508 355.141 417.9 353.607 418.641 352.233C419.382 350.859 420.45 349.688 421.75 348.823L433.861 340.691C435.41 339.65 437.227 339.079 439.093 339.047L459.548 338.717C460.768 338.688 461.981 338.903 463.117 339.349C464.252 339.795 465.287 340.464 466.161 341.316C467.034 342.167 467.728 343.185 468.202 344.308C468.676 345.432 468.921 346.639 468.922 347.858V347.858Z" fill="url(#paint20_linear)"/>
<path d="M749.172 349.82C749.172 393.48 782.871 427.778 823.912 426.444C864.382 425.13 896.777 389.571 896.777 347.003C896.777 304.435 864.382 270.129 823.912 270.345C782.871 270.575 749.172 306.17 749.172 349.82Z" fill="url(#paint21_linear)"/>
<path d="M842.652 299.17C842.652 310.116 834.278 319.107 823.914 319.251C813.55 319.395 805.051 310.587 805.051 299.566C805.051 288.546 813.509 279.558 823.914 279.483C834.319 279.408 842.652 288.222 842.652 299.17Z" fill="url(#paint22_linear)"/>
<path d="M842.652 396.903C842.652 407.849 834.278 416.981 823.914 417.303C813.55 417.624 805.051 408.955 805.051 397.937C805.051 386.919 813.509 377.787 823.914 377.535C834.319 377.282 842.652 385.957 842.652 396.903Z" fill="url(#paint23_linear)"/>
<path d="M777.189 329.242C787.73 329.079 796.227 337.89 796.227 348.927C796.227 359.964 787.719 369.099 777.189 369.335C766.659 369.57 758.023 360.762 758.023 349.65C758.023 338.538 766.62 329.409 777.189 329.242Z" fill="url(#paint24_linear)"/>
<path d="M869.893 327.795C880.096 327.634 888.337 336.309 888.337 347.169C888.337 358.029 880.096 367.02 869.893 367.247C859.69 367.474 851.332 358.805 851.332 347.876C851.332 336.947 859.657 327.95 869.893 327.795Z" fill="url(#paint25_linear)"/>
<path d="M846.66 300.07C846.66 311.016 838.286 320.007 827.922 320.154C817.558 320.301 809.059 311.487 809.059 300.47C809.059 289.452 817.517 280.458 827.922 280.383C838.327 280.308 846.66 289.111 846.66 300.07Z" fill="url(#paint26_linear)"/>
<path d="M846.66 397.793C846.66 408.739 838.286 417.871 827.922 418.193C817.558 418.515 809.059 409.845 809.059 398.828C809.059 387.81 817.517 378.675 827.922 378.425C838.327 378.176 846.66 386.848 846.66 397.793Z" fill="url(#paint27_linear)"/>
<path d="M781.198 330.131C791.739 329.965 800.239 338.776 800.239 349.816C800.239 360.855 791.728 369.985 781.198 370.224C770.668 370.462 762.035 361.651 762.035 350.539C762.035 339.427 770.629 330.289 781.198 330.131Z" fill="url(#paint28_linear)"/>
<path d="M873.916 328.68C884.116 328.519 892.358 337.194 892.358 348.054C892.358 358.913 884.116 367.902 873.916 368.132C863.716 368.362 855.355 359.69 855.355 348.761C855.355 337.832 863.672 328.841 873.916 328.68Z" fill="url(#paint29_linear)"/>
<path style="mix-blend-mode:multiply" opacity="0.3" d="M307.496 666.683C309.099 646.4 336.429 643.394 341.979 617.791C349.586 582.717 303.332 564.92 307.496 527.223C311.565 490.35 359.37 475.101 352.404 452.683C348.939 441.558 336.495 443.232 319.524 427.839C295.667 406.201 290.241 375.665 289.051 366.926C281.645 312.531 325.269 271.715 333.158 264.346C345.164 253.144 359.034 244.124 374.144 237.691C332.068 240.602 294.425 270.37 284.621 313.712L221.288 593.704C210.697 640.527 237.327 685.286 283.051 698.136C297.213 702.085 312.109 702.632 326.523 699.73C310.53 685.912 306.838 674.981 307.496 666.683Z" fill="url(#paint30_linear)"/>
<path style="mix-blend-mode:soft-light" opacity="0.3" d="M665.162 344.482C642.415 331.928 628.911 346.891 612.403 335.51C593.152 322.236 605.113 297.483 585.773 282.767C569.478 270.372 553.9 282.534 530.354 273.294C525.205 271.257 520.373 268.496 516.004 265.096V355.924C516.004 372.237 527.377 385.143 541.372 384.757L698.411 380.377C701.665 380.276 704.85 379.407 707.704 377.843C703.839 376.461 700.113 374.715 696.578 372.631C679.959 362.805 680.483 352.935 665.162 344.482Z" fill="url(#paint31_linear)"/>
<path d="M560.077 465.309C560.077 486.102 543.331 503.791 522.445 504.8C501.302 505.823 483.973 489.418 483.973 468.148C483.973 446.878 501.302 429.17 522.448 428.613C543.331 428.064 560.077 444.491 560.077 465.309Z" fill="url(#paint32_linear)"/>
<path d="M273.779 436.941C273.779 436.941 230.419 361.823 171.775 489.57C126.114 589.048 155.623 699.715 261.268 730.079C366.913 760.444 531.901 699.12 480.112 655.899C370.253 564.216 286.866 482.952 273.779 436.941Z" fill="url(#paint33_linear)"/>
<g style="mix-blend-mode:multiply" opacity="0.3">
<path style="mix-blend-mode:multiply" opacity="0.3" d="M219.37 504.448C216.289 513.547 215.586 539.467 216.886 569.277C218.048 595.866 215.636 609.77 257.92 629.109C272.4 635.74 282.438 656.777 304.629 669.291C314.691 674.966 352.591 695.492 401.537 687.197C433.926 681.71 458.039 665.818 474.276 651.007C367.321 561.334 286.652 482.132 273.78 436.941C273.78 436.941 257.939 409.507 232.457 416.008C238.64 422.904 240.738 441.469 219.37 504.448Z" fill="url(#paint34_linear)"/>
</g>
<g style="mix-blend-mode:multiply" opacity="0.3">
<path style="mix-blend-mode:multiply" opacity="0.3" d="M430.349 699.863C380.39 727.465 296.949 744.311 234.786 698.115C177.227 655.344 172.097 583.712 170.178 561.852C166.826 523.645 174.285 490.38 185.043 463.545C180.73 471.103 176.297 479.731 171.795 489.57C126.116 589.048 155.624 699.715 261.269 730.079C365.251 759.979 526.739 701.019 482.391 657.951C469.787 672.17 452.781 687.484 430.349 699.863Z" fill="url(#paint35_linear)"/>
</g>
<path style="mix-blend-mode:multiply" opacity="0.3" d="M351.64 708.058C350.161 708.058 348.671 708.041 347.169 708.008C308.585 707.148 254.414 694.326 215.463 638.137C182.566 590.668 186.969 537.118 196.454 500.545C206.723 460.964 224.998 432.199 225.183 431.912C225.285 431.765 225.439 431.664 225.614 431.629C225.789 431.594 225.97 431.628 226.12 431.724C226.27 431.821 226.377 431.972 226.418 432.146C226.459 432.319 226.43 432.502 226.339 432.655C226.172 432.939 207.995 461.543 197.776 500.927C188.37 537.213 184.002 590.335 216.594 637.354C255.212 693.065 308.936 705.783 347.2 706.634C388.721 707.558 421.448 695.149 421.784 695.025C421.953 694.968 422.137 694.977 422.298 695.052C422.459 695.128 422.585 695.263 422.649 695.429C422.713 695.595 422.71 695.779 422.64 695.943C422.571 696.107 422.441 696.238 422.277 696.308C421.96 696.422 391.265 708.058 351.64 708.058Z" fill="url(#paint36_linear)"/>
<path d="M558.845 700.954C556.09 697.989 551.143 685.234 560.154 682.601C569.203 679.963 574.234 676.622 586.692 666.629C599.151 656.635 602.352 665.217 584.755 681.449C567.157 697.681 562.761 705.171 558.845 700.954Z" fill="url(#paint37_linear)"/>
<path d="M547.055 682.311L554.467 688.784C555.221 689.445 556.169 689.844 557.169 689.921C558.168 689.998 559.166 689.749 560.013 689.212C560.412 688.96 560.747 688.617 560.99 688.212C561.233 687.807 561.378 687.35 561.412 686.878C561.446 686.407 561.369 685.934 561.187 685.498C561.005 685.061 560.723 684.674 560.364 684.367L549.529 675.092L547.055 682.311Z" fill="url(#paint38_linear)" style="mix-blend-mode:multiply"/>
<path d="M325.068 619.981C311.975 631.459 339.311 669.102 382.988 656.902C435.908 642.106 503.212 648.761 548.577 685.719C551.211 683.376 557.73 679.699 554.739 676.684C513.764 635.22 475.795 611.415 444.352 605.028C396.806 595.355 362.346 587.283 325.068 619.981Z" fill="url(#paint39_linear)"/>
<g style="mix-blend-mode:multiply" opacity="0.24">
<g style="mix-blend-mode:multiply" opacity="0.24">
<path d="M478.58 635.73C486.257 640.197 487.893 631.107 491.855 625.148C474.855 614.705 458.89 607.967 444.336 605.011C396.802 595.354 362.342 587.281 325.064 619.979C311.971 631.458 339.307 669.1 382.984 656.9C398.78 652.486 415.863 650.032 433.254 649.672C447.22 640.856 458.665 620.663 478.58 635.73Z" fill="#552D63"/>
</g>
</g>
<path d="M317.325 659.175L314.638 660.205C314.638 660.205 297.25 643.779 294.151 639.593C290.37 634.485 332.948 621.462 346.775 604.426C361.304 586.523 349.825 625.694 349.825 625.694L317.325 659.175Z" fill="url(#paint40_linear)"/>
<path d="M301.559 498.025C301.559 498.025 316.997 500.143 333.923 530.172C346.65 552.75 374.282 571.457 374.282 571.457L377.119 589.221L354.182 593.253L345.981 587.849L323.602 540.214L301.559 498.025Z" fill="url(#paint41_linear)" style="mix-blend-mode:multiply"/>
<path d="M271.63 496.11C271.63 496.11 233.569 500.804 232.762 544.611C232.007 585.037 246.586 600.711 282.364 634.407C285.959 637.798 291.794 637.798 292.222 638.285C294.545 640.907 296.898 643.645 299.281 646.499C331.297 615.759 367.395 605.35 367.395 605.35C367.395 605.35 334.005 536.248 319.337 513.343C304.21 489.726 281.399 493.761 271.63 496.11Z" fill="url(#paint42_linear)"/>
<g style="mix-blend-mode:multiply" opacity="0.3">
<path style="mix-blend-mode:multiply" opacity="0.3" d="M334.806 598.159C318.742 606.756 295.987 605.785 287.607 595.145C281.301 587.131 280.281 584.144 272.607 571.561C266.445 561.436 263.426 559.814 249.935 551.288C244.842 548.074 239.066 543.416 233.4 536.438C233.021 539.147 232.808 541.877 232.762 544.612C232.007 585.038 246.586 600.712 282.364 634.408C285.959 637.799 291.794 637.799 292.222 638.286C294.545 640.908 296.898 643.646 299.281 646.5C331.297 615.76 367.395 605.351 367.395 605.351C367.395 605.351 361.85 594.482 354.514 579.2C349.19 588.123 345.111 592.642 334.806 598.159Z" fill="url(#paint43_linear)"/>
</g>
<path d="M308.57 599.446C308.57 599.446 315.783 599.778 320.894 597.716C326.005 595.654 325.595 595.176 331.489 594.427C337.219 593.7 348.507 590.297 342.118 584.484C335.004 578.011 322.813 579.826 319.319 584.12C315.93 588.263 310.077 590.901 310.077 590.901L308.57 599.446Z" fill="white"/>
<path d="M244.249 517.952C244.249 517.952 223.117 520.418 235.45 588.502C241.846 623.814 273.458 618.842 311.636 604.253C314.221 598.843 310.894 587.38 310.894 587.38C310.894 587.38 263.449 606.944 262.238 578.401C260.861 546.39 256.582 514.561 244.249 517.952Z" fill="url(#paint44_linear)" style="mix-blend-mode:multiply"/>
<path d="M280.482 510.594C271.437 510.594 262.246 503.893 261.806 503.569C261.741 503.512 261.699 503.433 261.69 503.347C261.68 503.261 261.703 503.175 261.754 503.105C261.805 503.035 261.881 502.987 261.966 502.97C262.051 502.954 262.139 502.969 262.213 503.015C262.336 503.104 274.413 511.916 284.191 509.472C286.899 508.794 288.754 507.469 289.703 505.53C291.508 501.831 289.463 497.112 289.441 497.062C289.414 497.021 289.396 496.974 289.389 496.925C289.382 496.877 289.385 496.827 289.399 496.779C289.413 496.732 289.437 496.688 289.469 496.651C289.502 496.613 289.542 496.584 289.587 496.563C289.632 496.543 289.681 496.533 289.73 496.533C289.78 496.534 289.828 496.545 289.873 496.566C289.918 496.587 289.957 496.617 289.989 496.655C290.021 496.693 290.044 496.737 290.057 496.785C290.15 496.992 292.251 501.859 290.307 505.832C289.265 507.962 287.26 509.407 284.345 510.147C283.081 510.453 281.783 510.603 280.482 510.594V510.594Z" fill="url(#paint45_linear)" style="mix-blend-mode:multiply"/>
<path d="M293.93 636.885C293.882 636.886 293.834 636.876 293.79 636.856C293.746 636.837 293.706 636.808 293.674 636.771C293.644 636.738 293.621 636.699 293.606 636.656C293.591 636.614 293.584 636.569 293.586 636.524C293.589 636.479 293.6 636.435 293.619 636.394C293.638 636.354 293.666 636.317 293.699 636.287C294.041 635.979 328.103 605.463 358.856 597.949C358.901 597.934 358.949 597.929 358.996 597.933C359.043 597.938 359.089 597.952 359.13 597.975C359.172 597.998 359.208 598.03 359.237 598.068C359.266 598.105 359.286 598.149 359.298 598.195C359.309 598.241 359.311 598.289 359.302 598.336C359.294 598.383 359.277 598.427 359.25 598.467C359.224 598.507 359.19 598.54 359.15 598.566C359.111 598.592 359.066 598.61 359.019 598.617C328.436 606.108 294.5 636.491 294.158 636.799C294.095 636.855 294.014 636.886 293.93 636.885V636.885Z" fill="url(#paint46_linear)" style="mix-blend-mode:multiply"/>
<path d="M274.878 479.422C274.878 479.422 271.973 494.297 269.764 496.526C267.555 498.755 270.746 503.995 278.871 508.455C286.995 512.915 285.066 494.788 285.066 494.788L274.878 479.422Z" fill="white"/>
<path d="M296.657 474.199L297.541 474.291C301.186 474.683 303.703 478.986 303.189 483.905L303.158 484.179C302.634 489.111 299.254 492.77 295.61 492.382L294.726 492.286C292.877 492.089 291.833 487.881 292.366 482.888C292.899 477.894 294.821 474.001 296.657 474.199Z" fill="url(#paint47_linear)" style="mix-blend-mode:multiply"/>
<path d="M290.289 482.666C289.704 488.132 291.361 492.792 294.076 493.082C296.79 493.372 299.535 489.183 300.12 483.718C300.706 478.252 298.903 473.573 296.189 473.284C293.475 472.994 290.872 477.198 290.289 482.666Z" fill="url(#paint48_linear)" style="mix-blend-mode:multiply"/>
<path d="M296.336 473.292L295.301 473.182L293.186 492.981L294.221 493.092L296.336 473.292Z" fill="url(#paint49_linear)" style="mix-blend-mode:multiply"/>
<path d="M299.154 483.61C299.738 478.143 298.012 473.475 295.298 473.185C292.584 472.895 289.911 477.092 289.327 482.559C288.743 488.027 290.469 492.694 293.183 492.984C295.897 493.275 298.57 489.077 299.154 483.61Z" fill="url(#paint50_linear)" style="mix-blend-mode:multiply"/>
<path style="mix-blend-mode:multiply" opacity="0.6" d="M291.567 482.813C291.259 485.784 292.183 488.324 293.665 488.482C295.147 488.639 296.595 486.358 296.912 483.383C297.23 480.409 296.296 477.872 294.814 477.715C293.332 477.558 291.884 479.826 291.567 482.813Z" fill="url(#paint51_linear)"/>
<path d="M294.688 481.908C298.114 479.683 300.085 474.362 298.49 469.985C297.119 466.222 293.542 464.489 291.404 463.451C285.217 460.448 276.246 460.193 271.498 464.949C268.689 467.763 269.893 476.116 270.026 477.586C270.18 479.254 271.169 480.16 271.874 481.631C272.848 483.671 274.36 486.901 276.803 492.277C277.654 490.96 278.621 489.722 279.693 488.578C281.084 487.076 282.668 485.766 284.404 484.682C289.108 481.905 291.444 484.013 294.688 481.908Z" fill="url(#paint52_linear)"/>
<path d="M272.524 486.959C272.524 486.959 274.453 495.204 283.018 497.704C290.72 499.948 297.402 483.892 293.764 478.67C292.55 476.929 289.494 475.298 286.638 475.079C284.952 474.95 284.219 475.388 281.471 475.122C278.939 474.879 278.366 474.392 277.466 474.719C276.341 475.126 275.1 476.667 274.946 481.99C273.994 480.064 272.463 478.908 271.058 479.031C270.571 479.099 270.114 479.304 269.739 479.623C268.076 481.118 269 484.138 272.524 486.959Z" fill="white"/>
<path d="M277.459 473.616C277.73 474.007 276.18 474.929 275.469 476.763C274.085 480.323 276.368 486.01 280.075 487.758C282.268 488.794 283.343 487.684 287.228 488.649C289.13 489.126 290.945 489.895 292.611 490.93C292.444 495.331 289.989 498.891 286.634 499.742C283.029 500.667 279.689 498.105 278.294 497.036C277.37 496.324 274.372 494.046 273.636 490.421C272.868 486.645 275.293 485.406 273.916 482.542C273.22 481.1 271.99 480.141 271.34 477.595C271.201 477.05 271.105 476.494 271.051 475.934C273.657 474.627 277.062 473.046 277.459 473.616Z" fill="url(#paint53_linear)"/>
<path d="M289.374 491.416C289.374 491.416 287.467 491.659 284.709 490.491C284.577 490.433 284.401 490.417 284.37 490.491C284.22 490.726 285.627 492.538 287.451 492.683C288.739 492.785 290.027 492.026 289.962 491.693C289.925 491.545 289.642 491.465 289.374 491.416Z" fill="white"/>
<path d="M273.953 474.826L272.828 474.693L273.226 471.216C273.91 465.221 278.599 460.755 283.895 461.045L289.566 461.353C292.533 461.519 295.204 463.014 297.09 465.563C299.001 468.21 299.846 471.479 299.456 474.721L299.148 477.495L298.02 477.375L298.328 474.601C298.676 471.699 297.92 468.773 296.209 466.405C294.52 464.124 292.13 462.786 289.477 462.638L283.805 462.33C279.11 462.068 274.954 466.029 274.347 471.343L273.953 474.826Z" fill="url(#paint54_linear)" style="mix-blend-mode:multiply"/>
<path d="M296.872 468.526C296.631 468.498 296.399 468.416 296.194 468.285C295.99 468.154 295.818 467.978 295.692 467.771C294.219 465.474 291.924 464.072 289.398 463.936L283.726 463.628C282.72 463.584 281.715 463.749 280.775 464.112C279.835 464.474 278.98 465.027 278.264 465.736C278.103 465.9 277.908 466.026 277.693 466.106C277.478 466.185 277.248 466.216 277.02 466.196C276.791 466.177 276.57 466.107 276.372 465.991C276.174 465.876 276.003 465.718 275.873 465.53C275.588 465.12 275.456 464.623 275.501 464.125C275.546 463.628 275.765 463.163 276.119 462.811C278.341 460.693 281.132 459.618 283.985 459.775L289.657 460.083C293.193 460.277 296.401 462.241 298.459 465.443C298.721 465.868 298.826 466.372 298.754 466.867C298.681 467.361 298.437 467.814 298.064 468.147C297.902 468.288 297.713 468.395 297.507 468.46C297.302 468.525 297.086 468.548 296.872 468.526V468.526Z" fill="url(#paint55_linear)" style="mix-blend-mode:multiply"/>
<path style="mix-blend-mode:multiply" opacity="0.3" d="M294.909 464.368C290.904 462.553 291.018 461.286 288.862 460.959C284.826 460.343 282.725 464.507 278.837 463.514C278.018 463.295 277.256 462.904 276.6 462.368C276.437 462.51 276.277 462.651 276.119 462.802C275.765 463.154 275.546 463.619 275.501 464.117C275.456 464.614 275.588 465.111 275.873 465.521C276.003 465.71 276.174 465.868 276.372 465.983C276.57 466.098 276.791 466.168 277.02 466.188C277.248 466.208 277.478 466.177 277.693 466.097C277.908 466.017 278.103 465.891 278.264 465.728C278.98 465.019 279.835 464.466 280.775 464.103C281.715 463.74 282.72 463.575 283.726 463.619L289.398 463.927C291.924 464.066 294.219 465.469 295.692 467.762C295.818 467.97 295.99 468.146 296.194 468.277C296.399 468.407 296.631 468.49 296.872 468.517C297.086 468.539 297.302 468.517 297.507 468.451C297.713 468.386 297.902 468.279 298.064 468.138C298.404 467.837 298.638 467.435 298.733 466.992C298.829 466.548 298.78 466.086 298.594 465.672C297.333 465.338 296.1 464.902 294.909 464.368V464.368Z" fill="url(#paint56_linear)"/>
<path d="M277.968 481.183C277.376 486.71 274.675 490.954 271.93 490.658C269.184 490.362 267.438 485.646 268.029 480.12C268.621 474.593 271.323 470.348 274.068 470.641C276.813 470.934 278.547 475.653 277.968 481.183Z" fill="url(#paint57_linear)" style="mix-blend-mode:multiply"/>
<path d="M276.995 481.078C277.586 475.549 275.84 470.83 273.096 470.536C270.351 470.243 267.648 474.487 267.058 480.015C266.467 485.544 268.213 490.263 270.957 490.557C273.701 490.85 276.405 486.606 276.995 481.078Z" fill="url(#paint58_linear)" style="mix-blend-mode:multiply"/>
<path d="M271.863 471.278L270.967 471.183C267.285 470.791 263.881 474.502 263.339 479.474L263.308 479.755C262.778 484.727 265.332 489.079 269.014 489.47L269.91 489.566C271.759 489.766 273.712 485.833 274.251 480.784C274.79 475.735 273.721 471.479 271.863 471.278Z" fill="url(#paint59_linear)" style="mix-blend-mode:multiply"/>
<path d="M269.922 480.177C269.531 483.824 267.744 486.619 265.917 486.425C264.09 486.231 262.947 483.121 263.338 479.474C263.73 475.828 265.513 473.032 267.328 473.226C269.143 473.421 270.295 476.531 269.922 480.177Z" fill="url(#paint60_linear)" style="mix-blend-mode:multiply"/>
<path d="M313.638 608.597C313.467 608.619 313.306 608.689 313.172 608.798C313.039 608.907 312.939 609.051 312.883 609.214C312.883 609.26 313.006 610.986 313.003 611.038C312.986 611.233 313.036 611.428 313.144 611.59C313.252 611.753 313.412 611.875 313.598 611.935L345.946 622.452L406.42 598.773L377.691 600.971L313.638 608.597Z" fill="#26264F"/>
<path d="M313.621 608.362C313.428 608.39 313.251 608.483 313.117 608.626C312.984 608.768 312.902 608.951 312.886 609.146C312.869 609.34 312.919 609.534 313.027 609.697C313.135 609.859 313.294 609.981 313.479 610.042L345.828 620.559L406.305 596.861L377.573 599.059L313.621 608.362Z" fill="#444B8C"/>
<path d="M344.402 620.087L349.221 556.978C349.258 556.486 349.461 556.021 349.797 555.659C350.133 555.296 350.581 555.059 351.069 554.984L423.469 543.644C423.789 543.593 424.117 543.615 424.427 543.706C424.738 543.798 425.025 543.958 425.266 544.174C425.508 544.391 425.698 544.658 425.823 544.957C425.948 545.256 426.005 545.58 425.989 545.903L423.272 604.728C423.249 605.22 423.061 605.691 422.737 606.063C422.413 606.434 421.973 606.685 421.488 606.775L346.266 620.71L344.402 620.087Z" fill="url(#paint61_linear)"/>
<path d="M345.953 622.468L350.926 557.966C350.963 557.474 351.167 557.009 351.502 556.647C351.838 556.285 352.286 556.048 352.774 555.974L425.189 544.634C425.509 544.584 425.837 544.605 426.148 544.697C426.458 544.788 426.745 544.948 426.986 545.164C427.228 545.381 427.418 545.648 427.543 545.947C427.668 546.247 427.725 546.57 427.709 546.894L424.983 605.724C424.96 606.216 424.773 606.685 424.451 607.057C424.129 607.429 423.691 607.682 423.208 607.774L345.953 622.468Z" fill="#26264F"/>
<path d="M345.953 622.465L423.208 607.774C423.691 607.682 424.129 607.43 424.451 607.058C424.773 606.686 424.96 606.216 424.983 605.725L425.815 587.982C402.788 601.058 373.949 602.719 347.071 607.959L345.953 622.465Z" fill="#1F1F44"/>
<path d="M476.797 609.244C475.744 605.576 473.409 601.538 481.727 598.563C487.778 596.406 498.283 595.725 507.831 595.234C521.214 594.55 524.292 602.558 504.75 607.657C491.94 610.992 478.301 614.462 476.797 609.244Z" fill="url(#paint62_linear)"/>
<path d="M487.229 603.642C487.355 605.695 486.046 607.307 484.342 607.551C480.383 608.118 481.125 606.077 480.999 604.025C480.873 601.972 479.271 600.545 483.886 600.116C485.602 599.943 487.102 601.574 487.229 603.642Z" fill="url(#paint63_linear)" style="mix-blend-mode:multiply"/>
<path d="M446.598 591.818L450.504 591.201C450.504 591.201 458.12 591.929 479.113 597.702C483.605 598.448 489.729 611.573 476.568 612.078C463.407 612.584 447.38 622.401 447.38 622.401L446.598 591.818Z" fill="url(#paint64_linear)"/>
<path d="M309.942 652.846C309.942 652.846 311.858 669.867 351.417 668.317C390.975 666.766 461.643 625.684 461.196 604.123C460.749 582.562 434.454 591.177 407.229 603.639C384.249 614.156 348.748 620.25 341.475 621.378C332.155 622.824 307.693 644.669 309.942 652.846Z" fill="url(#paint65_linear)"/>
<g style="mix-blend-mode:multiply" opacity="0.2">
<path style="mix-blend-mode:multiply" opacity="0.2" d="M361.707 631.516C380.016 629.648 384.126 616.501 406.912 612.713C421.678 610.247 426.891 614.612 434.418 609.569C440.361 605.587 443.392 598.645 444.852 591.105C434.756 591.962 421.13 597.292 407.232 603.651C384.912 613.866 350.782 619.907 342.174 621.279C341.918 621.322 336.148 619.257 336.148 619.257C336.148 619.257 331.835 621.723 328.754 623.652C340.785 630.076 355.018 632.197 361.707 631.516Z" fill="url(#paint66_linear)"/>
</g>
<path d="M823.403 508.744C807.768 501.125 777.275 528.721 762.434 555.155C756.522 565.688 749.578 578.057 751.281 592.758C754.302 618.825 783.282 641.687 823.161 649.32L826.53 637.318C822.168 632.785 815.647 626.242 807.313 618.746C794.51 607.228 791.874 606.461 791.265 602.825C789.255 590.917 819.944 580.948 830.858 560.01C840.245 542.007 835.414 514.598 823.403 508.744Z" fill="#E28DDE"/>
<path d="M802.859 718.241C802.859 718.241 805.425 724.56 804.147 727.034C802.808 729.633 798.935 728.86 788.029 729.275C776.86 729.692 774.334 730.588 773.887 729.468C772.995 727.227 781.674 720.126 791.824 718.247C795.472 717.584 799.21 717.582 802.859 718.241V718.241Z" fill="url(#paint67_linear)"/>
<path d="M800.56 708.797L794.488 718.242C794.488 718.242 797.295 720.998 802.042 719.973L808.723 711.01L800.56 708.797Z" fill="url(#paint68_linear)"/>
<g style="mix-blend-mode:multiply" opacity="0.4">
<g style="mix-blend-mode:multiply" opacity="0.4">
<path d="M830.855 560.009C840.242 542.006 835.411 514.597 823.4 508.749C820.25 507.214 816.492 507.129 812.385 508.155C814.549 514.384 814.12 518.891 813.053 522.082C808.295 536.311 787.722 534.687 781.294 550.891C777.23 561.129 783.691 566.211 777.926 574.421C771.95 582.919 762.178 581.493 759.175 589.779C756.929 595.942 761.359 599.463 759.655 604.664C759.18 606.115 758.251 607.569 756.668 608.95C767.239 627.919 791.835 643.322 823.172 649.32L826.541 637.317C822.179 632.785 815.658 626.241 807.324 618.745C794.521 607.227 791.885 606.46 791.276 602.824C789.252 590.916 819.942 580.947 830.855 560.009Z" fill="#E28DDE"/>
</g>
</g>
<path d="M812.732 514.383C813.408 541.666 813.03 571.164 811.048 602.57C808.721 639.457 804.363 676.189 797.992 712.598L805.709 715.046C832.162 689.329 840.075 666.705 842.242 650.43C843.775 638.926 841.456 637.937 843.525 623.539C847.455 596.122 857.732 586.733 864.946 561.075C867.652 551.442 870.667 536.887 870.473 517.915L812.732 514.383Z" fill="#E28DDE"/>
<path d="M793.783 465.522C794.263 465.634 796.349 466.326 797.174 475.018C799.161 495.979 788.225 504.466 790.917 515.833C793.502 526.757 806.687 532.037 820.256 537.485C829.323 541.127 857.371 552.39 873.68 539.726C880.546 534.404 881.295 527.962 886.194 504.309C898.634 444.214 903.457 439.043 898.222 426.04C889.239 403.701 865.174 394.449 861.169 392.909C818.485 376.497 768.076 406.662 748.154 441.318C745.533 445.883 729.869 473.135 740.876 486.063C747.534 493.883 762.824 495.147 772.929 489.813C786.423 482.687 789.289 464.494 793.783 465.522Z" fill="url(#paint69_linear)"/>
<path d="M747.129 481.422C746.992 481.422 746.856 481.392 746.731 481.335C746.499 481.229 746.319 481.035 746.229 480.797C746.14 480.559 746.149 480.295 746.253 480.063C746.618 479.262 755.43 460.391 775.792 452.945C775.91 452.902 776.036 452.882 776.162 452.888C776.289 452.893 776.412 452.923 776.527 452.976C776.642 453.028 776.745 453.103 776.83 453.196C776.916 453.289 776.982 453.397 777.026 453.515C777.069 453.634 777.089 453.759 777.084 453.885C777.078 454.011 777.048 454.135 776.995 454.249C776.942 454.363 776.867 454.466 776.774 454.552C776.682 454.637 776.573 454.703 776.454 454.747C756.87 461.912 748.103 480.671 748.005 480.859C747.928 481.026 747.805 481.168 747.65 481.268C747.494 481.368 747.314 481.421 747.129 481.422V481.422Z" fill="url(#paint70_linear)"/>
<path d="M827.072 459.867C826.957 458.999 826.079 453.013 821.068 451.094C818.575 450.139 814.196 449.862 812.49 452.593C811.42 454.307 811.513 457.033 812.919 458.369C814.696 460.049 817.015 458.049 820.217 459.439C824.057 461.119 824.681 465.739 826.008 465.43C827.041 465.187 827.37 462.159 827.072 459.867Z" fill="url(#paint71_linear)"/>
<path style="mix-blend-mode:multiply" d="M870.316 418.357C867.621 425.677 875.706 432.019 872.242 439.965C867.273 451.355 847.54 445.509 840.483 456.772C832.121 470.128 851.27 492.016 843.368 499.509C839.77 502.923 835.61 498.548 825.083 500.948C810.094 504.366 805.591 516.186 798.619 514.394C796.426 513.833 793.768 511.842 791.531 505.727C790.557 509.122 790.094 512.343 790.919 515.833C793.504 526.758 806.689 532.038 820.258 537.486C829.325 541.128 857.373 552.391 873.682 539.727C880.548 534.405 881.297 527.962 886.195 504.31C898.636 444.215 903.459 439.044 898.224 426.041C895.372 418.949 890.995 413.178 886.229 408.551C875.95 410.817 871.739 414.528 870.316 418.357Z" fill="url(#paint72_linear)"/>
<path d="M827.388 454.225C828.539 455.27 841.454 469.11 855.501 465.606C867.736 462.553 875.248 450.684 876.553 440.696C879.683 416.942 848.671 396.998 852.494 392.2C854.74 389.371 866.718 394.617 875.111 399.88C881.993 404.197 910.833 422.289 910.061 452.603C909.982 455.684 909.5 475.18 896.554 484.914C879.091 498.057 852.09 497.707 823.262 465.925L827.388 454.225Z" fill="url(#paint73_linear)"/>
<path d="M764.333 425.121L778.236 469.443C778.458 470.153 778.895 470.778 779.487 471.229C780.08 471.681 780.798 471.938 781.543 471.964L799.724 474.608C800.273 474.629 800.819 474.524 801.32 474.302C801.821 474.08 802.265 473.746 802.618 473.326C802.97 472.906 803.221 472.411 803.352 471.879C803.483 471.348 803.49 470.793 803.374 470.258L791.115 424.88C790.944 424.098 790.516 423.395 789.9 422.883C789.283 422.371 788.512 422.079 787.71 422.054L767.876 420.463C767.302 420.444 766.733 420.564 766.215 420.81C765.697 421.056 765.246 421.423 764.899 421.879C764.552 422.335 764.32 422.867 764.221 423.431C764.123 423.995 764.161 424.575 764.333 425.121V425.121Z" fill="url(#paint74_linear)"/>
<path d="M764.999 426.58L778.496 469.597C778.711 470.285 779.136 470.889 779.711 471.326C780.285 471.763 780.982 472.011 781.704 472.037L797.682 474.608C798.213 474.626 798.742 474.524 799.227 474.307C799.713 474.091 800.142 473.767 800.483 473.36C800.824 472.952 801.067 472.473 801.194 471.958C801.321 471.443 801.328 470.905 801.216 470.387L789.241 426.32C789.076 425.56 788.662 424.877 788.063 424.38C787.464 423.883 786.716 423.6 785.937 423.577L768.438 422.056C767.881 422.039 767.329 422.156 766.826 422.395C766.324 422.635 765.886 422.991 765.55 423.433C765.213 423.876 764.988 424.393 764.892 424.94C764.796 425.488 764.833 426.05 764.999 426.58V426.58Z" fill="url(#paint75_linear)"/>
<path style="mix-blend-mode:multiply" opacity="0.3" d="M801.214 470.377L789.77 428.287C788.612 428.833 787.527 429.522 786.542 430.338C782.05 434.195 779.457 441.175 780.944 446.758C782.839 453.878 790.121 454.099 791.128 460.024C791.917 464.662 788.147 469.57 785.034 472.573L797.666 474.598C798.199 474.619 798.729 474.517 799.216 474.302C799.703 474.087 800.135 473.763 800.477 473.355C800.82 472.948 801.064 472.468 801.192 471.951C801.32 471.435 801.327 470.896 801.214 470.377Z" fill="url(#paint76_linear)"/>
<path d="M821.38 386.284C821.614 387.099 821.68 387.952 821.575 388.793C821.47 389.634 821.196 390.445 820.769 391.177C820.342 391.909 819.772 392.548 819.091 393.055C818.411 393.562 817.635 393.927 816.81 394.127C812.6 395.141 807.463 396.545 805.245 397.811C801.175 400.133 817.641 397.45 832.785 397.094C842.239 396.873 849.305 395.814 853.277 395.049C853.505 395.004 853.712 394.884 853.864 394.709C854.017 394.534 854.107 394.313 854.12 394.081C854.133 393.849 854.069 393.619 853.937 393.428C853.805 393.237 853.613 393.095 853.392 393.024C849.608 391.794 843.455 389.985 838.256 389.335C831.817 388.525 824.914 374.352 824.914 374.352L819.401 379.352L821.38 386.284Z" fill="url(#paint77_linear)"/>
<path d="M772.725 456.704L773.567 455.317C773.93 453.926 774.787 452.714 775.979 451.906C777.171 451.098 778.616 450.75 780.045 450.925L784.509 451.485C784.838 451.526 785.156 451.635 785.441 451.805C785.726 451.975 785.973 452.202 786.166 452.471C786.359 452.741 786.494 453.048 786.562 453.373C786.63 453.697 786.629 454.032 786.561 454.357C786.145 456.345 785.078 458.721 782.336 458.536C777.679 458.225 774.704 464.995 774.704 464.995L772.916 462.474C772.321 461.637 771.986 460.643 771.952 459.618C771.918 458.592 772.187 457.579 772.725 456.704V456.704Z" fill="url(#paint78_linear)"/>
<path d="M809.081 379.018C804.309 378.315 798.995 374.323 799.099 371.026C799.24 366.494 809.626 364.023 814.866 362.757C820.107 361.491 822.355 361.956 823.863 363.099C825.37 364.242 826.412 366.359 826.74 368.166C826.923 369.149 826.931 370.5 826.763 373.208C826.611 375.6 826.656 375.494 826.594 376.2C826.445 377.897 825.979 380.883 824.323 385.02C823.479 384.093 822.556 383.24 821.564 382.471C820.272 381.472 818.857 380.642 817.353 380.001C813.934 378.609 811.969 379.446 809.081 379.018Z" fill="url(#paint79_linear)"/>
<path d="M826.857 380.395C826.857 380.395 826.549 387.009 820.303 389.919C814.711 392.521 807.289 380.869 809.33 376.421C810.012 374.936 812.12 373.322 814.282 372.821C815.559 372.527 816.185 372.782 818.262 372.261C820.177 371.779 820.55 371.334 821.288 371.482C822.215 371.667 823.393 372.717 824.275 376.829C824.732 375.224 825.751 374.149 826.852 374.084C827.238 374.079 827.618 374.181 827.949 374.379C829.468 375.345 829.173 377.799 826.857 380.395Z" fill="url(#paint80_linear)"/>
<defs>
<linearGradient id="paint0_linear" x1="-60955.7" y1="260712" x2="123238" y2="328434" gradientUnits="userSpaceOnUse">
<stop stop-color="#4E00FF"/>
<stop offset="1" stop-color="#9566FF"/>
</linearGradient>
<linearGradient id="paint1_linear" x1="428.833" y1="229.733" x2="714.864" y2="761.228" gradientUnits="userSpaceOnUse">
<stop stop-color="#444B8C"/>
<stop offset="1" stop-color="#26264F"/>
</linearGradient>
<linearGradient id="paint2_linear" x1="516" y1="317.426" x2="722.064" y2="317.426" gradientUnits="userSpaceOnUse">
<stop stop-color="#40447E"/>
<stop offset="1" stop-color="#3C3B6B"/>
</linearGradient>
<linearGradient id="paint3_linear" x1="805250" y1="195817" x2="887197" y2="24779" gradientUnits="userSpaceOnUse">
<stop stop-color="#444B8C"/>
<stop offset="1" stop-color="#26264F"/>
</linearGradient>
<linearGradient id="paint4_linear" x1="143109" y1="120134" x2="72411.8" y2="3066.51" gradientUnits="userSpaceOnUse">
<stop stop-color="#444B8C"/>
<stop offset="1" stop-color="#26264F"/>
</linearGradient>
<linearGradient id="paint5_linear" x1="112350" y1="112536" x2="178381" y2="112536" gradientUnits="userSpaceOnUse">
<stop stop-color="#444B8C"/>
<stop offset="1" stop-color="#26264F"/>
</linearGradient>
<linearGradient id="paint6_linear" x1="67608.8" y1="41644.8" x2="67352.9" y2="63875.3" gradientUnits="userSpaceOnUse">
<stop stop-color="#444B8C"/>
<stop offset="1" stop-color="#26264F"/>
</linearGradient>
<linearGradient id="paint7_linear" x1="199112" y1="104416" x2="255939" y2="104416" gradientUnits="userSpaceOnUse">
<stop stop-color="#444B8C"/>
<stop offset="1" stop-color="#26264F"/>
</linearGradient>
<linearGradient id="paint8_linear" x1="178539" y1="36256.4" x2="181488" y2="62586.9" gradientUnits="userSpaceOnUse">
<stop stop-color="#1B2056"/>
<stop offset="1" stop-color="#26264F"/>
</linearGradient>
<linearGradient id="paint9_linear" x1="141388" y1="53156.6" x2="137893" y2="85352.1" gradientUnits="userSpaceOnUse">
<stop stop-color="#444B8C"/>
<stop offset="1" stop-color="#26264F"/>
</linearGradient>
<linearGradient id="paint10_linear" x1="113477" y1="39762.9" x2="113221" y2="61989.6" gradientUnits="userSpaceOnUse">
<stop stop-color="#444B8C"/>
<stop offset="1" stop-color="#26264F"/>
</linearGradient>
<linearGradient id="paint11_linear" x1="473.531" y1="243.637" x2="499.167" y2="318.183" gradientUnits="userSpaceOnUse">
<stop stop-color="#AA80F9"/>
<stop offset="1" stop-color="#6165D7"/>
</linearGradient>
<linearGradient id="paint12_linear" x1="33759.9" y1="-9406.42" x2="38956.6" y2="-1702.39" gradientUnits="userSpaceOnUse">
<stop stop-color="#AA80F9"/>
<stop offset="1" stop-color="#6165D7"/>
</linearGradient>
<linearGradient id="paint13_linear" x1="36530.4" y1="30373.6" x2="32964.9" y2="27893.8" gradientUnits="userSpaceOnUse">
<stop stop-color="#AA80F9"/>
<stop offset="1" stop-color="#6165D7"/>
</linearGradient>
<linearGradient id="paint14_linear" x1="31286.7" y1="38104.2" x2="27713.4" y2="35628.5" gradientUnits="userSpaceOnUse">
<stop stop-color="#AA80F9"/>
<stop offset="1" stop-color="#6165D7"/>
</linearGradient>
<linearGradient id="paint15_linear" x1="44210" y1="27571.8" x2="41584.5" y2="23990.5" gradientUnits="userSpaceOnUse">
<stop stop-color="#AA80F9"/>
<stop offset="1" stop-color="#6165D7"/>
</linearGradient>
<linearGradient id="paint16_linear" x1="50534" y1="21839.2" x2="47937" y2="18329.4" gradientUnits="userSpaceOnUse">
<stop stop-color="#AA80F9"/>
<stop offset="1" stop-color="#6165D7"/>
</linearGradient>
<linearGradient id="paint17_linear" x1="26856.3" y1="18666.7" x2="36341.2" y2="33234" gradientUnits="userSpaceOnUse">
<stop stop-color="#AA80F9"/>
<stop offset="1" stop-color="#6165D7"/>
</linearGradient>
<linearGradient id="paint18_linear" x1="22610.7" y1="21580.7" x2="32145.6" y2="36170.1" gradientUnits="userSpaceOnUse">
<stop stop-color="#AA80F9"/>
<stop offset="1" stop-color="#6165D7"/>
</linearGradient>
<linearGradient id="paint19_linear" x1="28979.8" y1="16605.6" x2="33464.5" y2="30128.1" gradientUnits="userSpaceOnUse">
<stop stop-color="#AA80F9"/>
<stop offset="1" stop-color="#6165D7"/>
</linearGradient>
<linearGradient id="paint20_linear" x1="39942.8" y1="12519.1" x2="44400.9" y2="25833.5" gradientUnits="userSpaceOnUse">
<stop stop-color="#AA80F9"/>
<stop offset="1" stop-color="#6165D7"/>
</linearGradient>
<linearGradient id="paint21_linear" x1="346106" y1="104191" x2="273960" y2="-7148.19" gradientUnits="userSpaceOnUse">
<stop stop-color="#444B8C"/>
<stop offset="1" stop-color="#26264F"/>
</linearGradient>
<linearGradient id="paint22_linear" x1="96569.2" y1="23734.3" x2="92551.6" y2="19935.8" gradientUnits="userSpaceOnUse">
<stop stop-color="#AA80F9"/>
<stop offset="1" stop-color="#6165D7"/>
</linearGradient>
<linearGradient id="paint23_linear" x1="89920.1" y1="30874" x2="85901.4" y2="27075.5" gradientUnits="userSpaceOnUse">
<stop stop-color="#AA80F9"/>
<stop offset="1" stop-color="#6165D7"/>
</linearGradient>
<linearGradient id="paint24_linear" x1="91398.8" y1="30965" x2="87346.3" y2="27104.1" gradientUnits="userSpaceOnUse">
<stop stop-color="#AA80F9"/>
<stop offset="1" stop-color="#6165D7"/>
</linearGradient>
<linearGradient id="paint25_linear" x1="94950.5" y1="23754.7" x2="90966.3" y2="20018.2" gradientUnits="userSpaceOnUse">
<stop stop-color="#AA80F9"/>
<stop offset="1" stop-color="#6165D7"/>
</linearGradient>
<linearGradient id="paint26_linear" x1="84324.4" y1="12850.6" x2="91915.8" y2="37457.3" gradientUnits="userSpaceOnUse">
<stop stop-color="#AA80F9"/>
<stop offset="1" stop-color="#6165D7"/>
</linearGradient>
<linearGradient id="paint27_linear" x1="80749.6" y1="14054.6" x2="88344.1" y2="38665.8" gradientUnits="userSpaceOnUse">
<stop stop-color="#AA80F9"/>
<stop offset="1" stop-color="#6165D7"/>
</linearGradient>
<linearGradient id="paint28_linear" x1="77834.6" y1="15385" x2="85439.7" y2="40226.6" gradientUnits="userSpaceOnUse">
<stop stop-color="#AA80F9"/>
<stop offset="1" stop-color="#6165D7"/>
</linearGradient>
<linearGradient id="paint29_linear" x1="86964.9" y1="11578.7" x2="94547" y2="35956" gradientUnits="userSpaceOnUse">
<stop stop-color="#AA80F9"/>
<stop offset="1" stop-color="#6165D7"/>
</linearGradient>
<linearGradient id="paint30_linear" x1="11818" y1="157681" x2="525877" y2="477033" gradientUnits="userSpaceOnUse">
<stop stop-color="#444B8C"/>
<stop offset="1" stop-color="#26264F"/>
</linearGradient>
<linearGradient id="paint31_linear" x1="205781" y1="38040.1" x2="348184" y2="38040.1" gradientUnits="userSpaceOnUse">
<stop stop-color="#AA80F9"/>
<stop offset="1" stop-color="#6165D7"/>
</linearGradient>
<linearGradient id="paint32_linear" x1="84491.5" y1="55490.8" x2="80995.5" y2="87690.9" gradientUnits="userSpaceOnUse">
<stop stop-color="#444B8C"/>
<stop offset="1" stop-color="#26264F"/>
</linearGradient>
<linearGradient id="paint33_linear" x1="233.851" y1="459.245" x2="491.428" y2="1009.2" gradientUnits="userSpaceOnUse">
<stop stop-color="#AA80F9"/>
<stop offset="1" stop-color="#6165D7"/>
</linearGradient>
<linearGradient id="paint34_linear" x1="187673" y1="112579" x2="165272" y2="236562" gradientUnits="userSpaceOnUse">
<stop stop-color="#AA80F9"/>
<stop offset="1" stop-color="#6165D7"/>
</linearGradient>
<linearGradient id="paint35_linear" x1="116339" y1="39890" x2="314521" y2="562275" gradientUnits="userSpaceOnUse">
<stop stop-color="#AA80F9"/>
<stop offset="1" stop-color="#6165D7"/>
</linearGradient>
<linearGradient id="paint36_linear" x1="29376.7" y1="139289" x2="205796" y2="139289" gradientUnits="userSpaceOnUse">
<stop stop-color="#4E00FF"/>
<stop offset="1" stop-color="#9566FF"/>
</linearGradient>
<linearGradient id="paint37_linear" x1="554.328" y1="697.595" x2="589.627" y2="657.503" gradientUnits="userSpaceOnUse">
<stop stop-color="#40447E"/>
<stop offset="1" stop-color="#3C3B6B"/>
</linearGradient>
<linearGradient id="paint38_linear" x1="2345.54" y1="8130.61" x2="13216.3" y2="8130.61" gradientUnits="userSpaceOnUse">
<stop stop-color="#4E00FF"/>
<stop offset="1" stop-color="#9566FF"/>
</linearGradient>
<linearGradient id="paint39_linear" x1="311.515" y1="590.556" x2="583.939" y2="714.5" gradientUnits="userSpaceOnUse">
<stop stop-color="#311944"/>
<stop offset="1" stop-color="#6B3976"/>
</linearGradient>
<linearGradient id="paint40_linear" x1="215.461" y1="659.468" x2="451.969" y2="600.419" gradientUnits="userSpaceOnUse">
<stop stop-color="#311944"/>
<stop offset="1" stop-color="#893976"/>
</linearGradient>
<linearGradient id="paint41_linear" x1="9761.77" y1="48330.8" x2="66943.1" y2="48330.8" gradientUnits="userSpaceOnUse">
<stop stop-color="#4E00FF"/>
<stop offset="1" stop-color="#9566FF"/>
</linearGradient>
<linearGradient id="paint42_linear" x1="53041.7" y1="84614.3" x2="6202.99" y2="275721" gradientUnits="userSpaceOnUse">
<stop stop-color="#4E00FF"/>
<stop offset="1" stop-color="#1A0054"/>
</linearGradient>
<linearGradient id="paint43_linear" x1="17092.3" y1="55821.1" x2="118998" y2="55821.1" gradientUnits="userSpaceOnUse">
<stop stop-color="#4E00FF"/>
<stop offset="1" stop-color="#9566FF"/>
</linearGradient>
<linearGradient id="paint44_linear" x1="10377" y1="49547.4" x2="71700.2" y2="49547.4" gradientUnits="userSpaceOnUse">
<stop stop-color="#4E00FF"/>
<stop offset="1" stop-color="#9566FF"/>
</linearGradient>
<linearGradient id="paint45_linear" x1="3947.76" y1="7559.51" x2="26227.9" y2="7559.51" gradientUnits="userSpaceOnUse">
<stop stop-color="#4E00FF"/>
<stop offset="1" stop-color="#9566FF"/>
</linearGradient>
<linearGradient id="paint46_linear" x1="8521.93" y1="20164.4" x2="58257.4" y2="20164.4" gradientUnits="userSpaceOnUse">
<stop stop-color="#4E00FF"/>
<stop offset="1" stop-color="#9566FF"/>
</linearGradient>
<linearGradient id="paint47_linear" x1="1673.03" y1="9625.33" x2="10019.1" y2="9625.33" gradientUnits="userSpaceOnUse">
<stop stop-color="#4E00FF"/>
<stop offset="1" stop-color="#9566FF"/>
</linearGradient>
<linearGradient id="paint48_linear" x1="1549.54" y1="10432.1" x2="9161.66" y2="10432.1" gradientUnits="userSpaceOnUse">
<stop stop-color="#4E00FF"/>
<stop offset="1" stop-color="#9566FF"/>
</linearGradient>
<linearGradient id="paint49_linear" x1="-637.385" y1="10432.3" x2="146.197" y2="10516" gradientUnits="userSpaceOnUse">
<stop stop-color="#4E00FF"/>
<stop offset="1" stop-color="#9566FF"/>
</linearGradient>
<linearGradient id="paint50_linear" x1="5489.35" y1="-1458.64" x2="7091.41" y2="-16441.9" gradientUnits="userSpaceOnUse">
<stop stop-color="#4E00FF"/>
<stop offset="1" stop-color="#9566FF"/>
</linearGradient>
<linearGradient id="paint51_linear" x1="975.891" y1="5893.58" x2="5112.58" y2="5893.58" gradientUnits="userSpaceOnUse">
<stop stop-color="#4E00FF"/>
<stop offset="1" stop-color="#9566FF"/>
</linearGradient>
<linearGradient id="paint52_linear" x1="4038.56" y1="1710.38" x2="4038.21" y2="1710.27" gradientUnits="userSpaceOnUse">
<stop stop-color="#311944"/>
<stop offset="1" stop-color="#A03976"/>
</linearGradient>
<linearGradient id="paint53_linear" x1="-150622" y1="31440.7" x2="-150597" y2="31440.7" gradientUnits="userSpaceOnUse">
<stop stop-color="#311944"/>
<stop offset="1" stop-color="#A03976"/>
</linearGradient>
<linearGradient id="paint54_linear" x1="3618.27" y1="8730.92" x2="23839.5" y2="8730.92" gradientUnits="userSpaceOnUse">
<stop stop-color="#4E00FF"/>
<stop offset="1" stop-color="#9566FF"/>
</linearGradient>
<linearGradient id="paint55_linear" x1="3190.6" y1="4867" x2="20810.7" y2="4867" gradientUnits="userSpaceOnUse">
<stop stop-color="#4E00FF"/>
<stop offset="1" stop-color="#9566FF"/>
</linearGradient>
<linearGradient id="paint56_linear" x1="3191.23" y1="4292.82" x2="20815.1" y2="4292.82" gradientUnits="userSpaceOnUse">
<stop stop-color="#4E00FF"/>
<stop offset="1" stop-color="#9566FF"/>
</linearGradient>
<linearGradient id="paint57_linear" x1="1540.62" y1="10539.7" x2="9233.34" y2="10539.7" gradientUnits="userSpaceOnUse">
<stop stop-color="#4E00FF"/>
<stop offset="1" stop-color="#9566FF"/>
</linearGradient>
<linearGradient id="paint58_linear" x1="5525.4" y1="-1482.78" x2="7145.32" y2="-16633.1" gradientUnits="userSpaceOnUse">
<stop stop-color="#4E00FF"/>
<stop offset="1" stop-color="#9566FF"/>
</linearGradient>
<linearGradient id="paint59_linear" x1="1659.52" y1="9723.04" x2="10099.2" y2="9723.04" gradientUnits="userSpaceOnUse">
<stop stop-color="#4E00FF"/>
<stop offset="1" stop-color="#9566FF"/>
</linearGradient>
<linearGradient id="paint60_linear" x1="1105.91" y1="7112.56" x2="6199.25" y2="7112.56" gradientUnits="userSpaceOnUse">
<stop stop-color="#4E00FF"/>
<stop offset="1" stop-color="#9566FF"/>
</linearGradient>
<linearGradient id="paint61_linear" x1="43764.8" y1="42532.5" x2="66494.9" y2="41142.9" gradientUnits="userSpaceOnUse">
<stop stop-color="#40447E"/>
<stop offset="1" stop-color="#3C3B6B"/>
</linearGradient>
<linearGradient id="paint62_linear" x1="-2604.33" y1="15368.2" x2="2913.45" y2="13125.4" gradientUnits="userSpaceOnUse">
<stop stop-color="#40447E"/>
<stop offset="1" stop-color="#3C3B6B"/>
</linearGradient>
<linearGradient id="paint63_linear" x1="1307.97" y1="4389.17" x2="6308.73" y2="4389.17" gradientUnits="userSpaceOnUse">
<stop stop-color="#4E00FF"/>
<stop offset="1" stop-color="#9566FF"/>
</linearGradient>
<linearGradient id="paint64_linear" x1="12932.2" y1="23069.8" x2="37079.1" y2="20208.3" gradientUnits="userSpaceOnUse">
<stop stop-color="#311944"/>
<stop offset="1" stop-color="#6B3976"/>
</linearGradient>
<linearGradient id="paint65_linear" x1="12921.5" y1="66112.4" x2="120572" y2="27025.5" gradientUnits="userSpaceOnUse">
<stop stop-color="#311944"/>
<stop offset="1" stop-color="#893976"/>
</linearGradient>
<linearGradient id="paint66_linear" x1="42213.6" y1="30761.3" x2="83774.3" y2="5319.66" gradientUnits="userSpaceOnUse">
<stop stop-color="#311944"/>
<stop offset="1" stop-color="#6B3976"/>
</linearGradient>
<linearGradient id="paint67_linear" x1="801.211" y1="656.317" x2="788.413" y2="732.104" gradientUnits="userSpaceOnUse">
<stop stop-color="#444B8C"/>
<stop offset="1" stop-color="#26264F"/>
</linearGradient>
<linearGradient id="paint68_linear" x1="808.869" y1="669.265" x2="797.846" y2="738.417" gradientUnits="userSpaceOnUse">
<stop stop-color="#311944"/>
<stop offset="1" stop-color="#A03976"/>
</linearGradient>
<linearGradient id="paint69_linear" x1="844.731" y1="371.427" x2="792.327" y2="558.434" gradientUnits="userSpaceOnUse">
<stop stop-color="#FF9085"/>
<stop offset="1" stop-color="#FB6FBB"/>
</linearGradient>
<linearGradient id="paint70_linear" x1="-72084.3" y1="10737.4" x2="-71215.3" y2="13793.1" gradientUnits="userSpaceOnUse">
<stop stop-color="#FF9085"/>
<stop offset="1" stop-color="#FB6FBB"/>
</linearGradient>
<linearGradient id="paint71_linear" x1="821.217" y1="501.335" x2="830.628" y2="734.272" gradientUnits="userSpaceOnUse">
<stop stop-color="#FFC444"/>
<stop offset="1" stop-color="#F36F56"/>
</linearGradient>
<linearGradient id="paint72_linear" x1="-213133" y1="9140.45" x2="-243927" y2="97021.1" gradientUnits="userSpaceOnUse">
<stop stop-color="#FF9085"/>
<stop offset="1" stop-color="#FB6FBB"/>
</linearGradient>
<linearGradient id="paint73_linear" x1="-128575" y1="39476.3" x2="-84163.8" y2="8307.29" gradientUnits="userSpaceOnUse">
<stop stop-color="#FF9085"/>
<stop offset="1" stop-color="#FB6FBB"/>
</linearGradient>
<linearGradient id="paint74_linear" x1="70801.9" y1="21045.1" x2="63013.8" y2="16787.3" gradientUnits="userSpaceOnUse">
<stop stop-color="#444B8C"/>
<stop offset="1" stop-color="#26264F"/>
</linearGradient>
<linearGradient id="paint75_linear" x1="-82328.4" y1="14049.2" x2="-77608.9" y2="19952.2" gradientUnits="userSpaceOnUse">
<stop stop-color="#444B8C"/>
<stop offset="1" stop-color="#26264F"/>
</linearGradient>
<linearGradient id="paint76_linear" x1="34185.6" y1="10498.2" x2="42137.8" y2="19133.7" gradientUnits="userSpaceOnUse">
<stop stop-color="#444B8C"/>
<stop offset="1" stop-color="#26264F"/>
</linearGradient>
<linearGradient id="paint77_linear" x1="-102519" y1="-1941.06" x2="-102924" y2="18371" gradientUnits="userSpaceOnUse">
<stop stop-color="#FFC444"/>
<stop offset="1" stop-color="#F36F56"/>
</linearGradient>
<linearGradient id="paint78_linear" x1="-31980.4" y1="2479.53" x2="-32437.9" y2="14218.1" gradientUnits="userSpaceOnUse">
<stop stop-color="#FFC444"/>
<stop offset="1" stop-color="#F36F56"/>
</linearGradient>
<linearGradient id="paint79_linear" x1="45596.3" y1="-1295.93" x2="44891.2" y2="1234.53" gradientUnits="userSpaceOnUse">
<stop stop-color="#444B8C"/>
<stop offset="1" stop-color="#26264F"/>
</linearGradient>
<linearGradient id="paint80_linear" x1="-41315.8" y1="3178.31" x2="-41916.4" y2="18848.2" gradientUnits="userSpaceOnUse">
<stop stop-color="#FFC444"/>
<stop offset="1" stop-color="#F36F56"/>
</linearGradient>
</defs>
</svg>
