<svg width="1135" height="684" viewBox="0 0 1135 684" fill="none" xmlns="http://www.w3.org/2000/svg">
<path d="M437.023 47.6722C437.023 47.1634 437.174 46.666 437.457 46.243C437.74 45.8199 438.142 45.4902 438.612 45.2954C439.082 45.1007 439.599 45.0498 440.098 45.149C440.597 45.2483 441.056 45.4933 441.416 45.8531C441.775 46.2129 442.02 46.6713 442.12 47.1703C442.219 47.6694 442.168 48.1867 441.973 48.6567C441.779 49.1268 441.449 49.5286 441.026 49.8113C440.603 50.094 440.105 50.2449 439.596 50.2449C438.916 50.2397 438.264 49.967 437.783 49.4856C437.301 49.0043 437.029 48.3529 437.023 47.6722V47.6722Z" fill="#4E00FF"/>
<path d="M467.265 107.654C468.836 97.9438 462.237 88.7987 452.526 87.2277C442.816 85.6567 433.67 92.2548 432.099 101.965C430.528 111.675 437.126 120.82 446.837 122.391C456.548 123.962 465.694 117.364 467.265 107.654Z" fill="#4E00FF"/>
<path d="M1003.5 244.836C1003.5 241.313 1004.54 237.87 1006.5 234.941C1008.46 232.012 1011.24 229.729 1014.49 228.381C1017.75 227.033 1021.33 226.68 1024.78 227.368C1028.24 228.055 1031.41 229.751 1033.9 232.242C1036.39 234.733 1038.09 237.906 1038.78 241.361C1039.46 244.816 1039.11 248.397 1037.76 251.652C1036.42 254.906 1034.13 257.688 1031.2 259.645C1028.27 261.602 1024.83 262.646 1021.31 262.646C1016.58 262.646 1012.05 260.77 1008.71 257.43C1005.37 254.09 1003.5 249.559 1003.5 244.836Z" fill="#4E00FF"/>
<path d="M111.426 407.584L53.6565 439.94L52.1523 417.459L111.426 407.584Z" fill="#4E00FF"/>
<path d="M975.984 354.608L1051.43 367.728L1044.46 342.615L975.984 354.608Z" fill="#4E00FF"/>
<path d="M926.824 522.004L999.298 556.101L978.241 573.397L926.824 522.004Z" fill="#4E00FF"/>
<path d="M708.297 92.6942L737.389 18.0684L756.092 37.9171L708.297 92.6942Z" fill="#4E00FF"/>
<g style="mix-blend-mode:lighten">
<path d="M124.148 594.673C124.148 592.559 124.775 590.493 125.95 588.736C127.124 586.978 128.793 585.609 130.746 584.8C132.699 583.991 134.847 583.779 136.92 584.192C138.994 584.604 140.898 585.622 142.392 587.116C143.887 588.611 144.905 590.515 145.317 592.588C145.73 594.661 145.518 596.809 144.709 598.762C143.9 600.715 142.53 602.384 140.773 603.558C139.015 604.732 136.949 605.359 134.836 605.359C132.001 605.359 129.283 604.233 127.279 602.229C125.274 600.225 124.148 597.507 124.148 594.673V594.673Z" fill="#4E00FF"/>
</g>
<path d="M42.9048 526.834C45.6373 526.834 47.8525 524.619 47.8525 521.887C47.8525 519.154 45.6373 516.939 42.9048 516.939C40.1722 516.939 37.957 519.154 37.957 521.887C37.957 524.619 40.1722 526.834 42.9048 526.834Z" fill="#C70091"/>
<path d="M100.3 501.109C106.858 501.109 112.175 495.793 112.175 489.235C112.175 482.677 106.858 477.361 100.3 477.361C93.7422 477.361 88.4258 482.677 88.4258 489.235C88.4258 495.793 93.7422 501.109 100.3 501.109Z" fill="#4E00FF"/>
<path d="M235.016 666.822C235.016 665.972 235.267 665.142 235.739 664.436C236.211 663.73 236.882 663.179 237.667 662.854C238.451 662.529 239.315 662.444 240.148 662.61C240.981 662.776 241.746 663.185 242.347 663.785C242.948 664.386 243.357 665.151 243.522 665.984C243.688 666.817 243.603 667.68 243.278 668.465C242.953 669.25 242.402 669.92 241.696 670.392C240.99 670.864 240.16 671.116 239.31 671.116C238.171 671.116 237.079 670.664 236.273 669.858C235.468 669.053 235.016 667.961 235.016 666.822V666.822Z" fill="#4E00FF"/>
<g style="mix-blend-mode:lighten">
<path d="M630.518 600.596C631.276 598.651 630.314 596.46 628.369 595.702C626.423 594.944 624.232 595.906 623.474 597.851C622.716 599.796 623.678 601.987 625.624 602.745C627.569 603.503 629.76 602.541 630.518 600.596Z" fill="#4E00FF"/>
</g>
<path d="M222.409 99.4992C227.6 99.4992 231.809 95.2907 231.809 90.0992C231.809 84.9077 227.6 80.6992 222.409 80.6992C217.217 80.6992 213.008 84.9077 213.008 90.0992C213.008 95.2907 217.217 99.4992 222.409 99.4992Z" fill="#4E00FF"/>
<g style="mix-blend-mode:lighten">
<path d="M116.25 241.213C116.25 240.497 116.462 239.797 116.86 239.201C117.258 238.606 117.824 238.142 118.486 237.867C119.148 237.593 119.876 237.522 120.578 237.661C121.281 237.801 121.926 238.146 122.433 238.652C122.939 239.159 123.284 239.804 123.424 240.507C123.564 241.209 123.492 241.937 123.218 242.599C122.944 243.261 122.479 243.826 121.884 244.224C121.288 244.622 120.588 244.835 119.872 244.835C118.911 244.835 117.99 244.453 117.311 243.774C116.632 243.095 116.25 242.174 116.25 241.213V241.213Z" fill="#4E00FF"/>
</g>
<path d="M917.744 146.327C919.559 138.614 914.777 130.89 907.063 129.075C899.349 127.26 891.625 132.042 889.81 139.755C887.995 147.468 892.777 155.192 900.49 157.007C908.204 158.821 915.929 154.04 917.744 146.327Z" fill="#4E00FF"/>
<path d="M846.239 134.351C846.227 133.75 846.395 133.158 846.72 132.653C847.046 132.147 847.514 131.75 848.066 131.512C848.619 131.273 849.229 131.205 849.82 131.315C850.412 131.425 850.957 131.708 851.386 132.129C851.816 132.55 852.11 133.09 852.232 133.679C852.353 134.267 852.297 134.879 852.07 135.436C851.842 135.993 851.454 136.469 850.955 136.805C850.456 137.14 849.868 137.319 849.267 137.319C848.472 137.325 847.708 137.015 847.141 136.459C846.574 135.903 846.249 135.145 846.239 134.351V134.351Z" fill="#4E00FF"/>
<g style="mix-blend-mode:lighten">
<path d="M657.091 637.857C657.875 635.922 656.943 633.718 655.009 632.933C653.074 632.148 650.87 633.081 650.085 635.015C649.3 636.949 650.232 639.154 652.167 639.938C654.101 640.723 656.306 639.791 657.091 637.857Z" fill="#AD0089"/>
</g>
<g style="mix-blend-mode:lighten">
<g style="mix-blend-mode:lighten">
<path d="M1109.95 562.079C1109.95 559.646 1110.67 557.268 1112.02 555.244C1113.37 553.22 1115.28 551.641 1117.53 550.709C1119.78 549.776 1122.25 549.531 1124.64 550.005C1127.02 550.478 1129.21 551.649 1130.93 553.369C1132.65 555.089 1133.82 557.28 1134.3 559.666C1134.77 562.052 1134.53 564.524 1133.59 566.771C1132.66 569.017 1131.08 570.936 1129.06 572.285C1127.03 573.634 1124.66 574.352 1122.22 574.348C1120.61 574.348 1119.02 574.031 1117.53 573.414C1116.04 572.797 1114.69 571.894 1113.55 570.754C1112.41 569.615 1111.5 568.262 1110.89 566.774C1110.27 565.285 1109.95 563.69 1109.95 562.079V562.079Z" fill="#4E00FF"/>
</g>
</g>
<path d="M813.168 681.645C813.164 681.342 813.251 681.045 813.417 680.791C813.583 680.537 813.82 680.339 814.1 680.221C814.379 680.104 814.687 680.072 814.984 680.13C815.282 680.188 815.555 680.334 815.769 680.548C815.984 680.762 816.129 681.035 816.187 681.333C816.246 681.63 816.214 681.938 816.096 682.218C815.978 682.497 815.78 682.735 815.526 682.9C815.273 683.066 814.975 683.153 814.672 683.149C814.273 683.149 813.891 682.991 813.609 682.708C813.327 682.426 813.168 682.044 813.168 681.645Z" fill="#4E00FF"/>
<path d="M1032.75 456.679C1034.52 456.679 1035.96 455.244 1035.96 453.474C1035.96 451.703 1034.52 450.268 1032.75 450.268C1030.98 450.268 1029.54 451.703 1029.54 453.474C1029.54 455.244 1030.98 456.679 1032.75 456.679Z" fill="#C70091"/>
<path d="M216.847 386.468C218.617 386.468 220.053 385.033 220.053 383.263C220.053 381.492 218.617 380.057 216.847 380.057C215.076 380.057 213.641 381.492 213.641 383.263C213.641 385.033 215.076 386.468 216.847 386.468Z" fill="#C70091"/>
<path d="M84.0728 350.491C85.9856 350.491 87.5362 348.94 87.5362 347.028C87.5362 345.115 85.9856 343.564 84.0728 343.564C82.16 343.564 80.6094 345.115 80.6094 347.028C80.6094 348.94 82.16 350.491 84.0728 350.491Z" fill="#4E00FF"/>
<path d="M288.491 508.034C290.404 508.034 291.954 506.483 291.954 504.571C291.954 502.658 290.404 501.107 288.491 501.107C286.578 501.107 285.027 502.658 285.027 504.571C285.027 506.483 286.578 508.034 288.491 508.034Z" fill="#4E00FF"/>
<path d="M142.594 3.95788C142.594 3.17509 142.826 2.40987 143.261 1.759C143.696 1.10813 144.314 0.60084 145.037 0.301277C145.76 0.00171487 146.556 -0.0766643 147.324 0.0760513C148.092 0.228767 148.797 0.605718 149.351 1.15924C149.904 1.71276 150.281 2.41798 150.434 3.18574C150.587 3.95349 150.508 4.74929 150.209 5.4725C149.909 6.1957 149.402 6.81384 148.751 7.24874C148.1 7.68363 147.335 7.91576 146.552 7.91576C145.502 7.91576 144.495 7.49877 143.753 6.75652C143.011 6.01428 142.594 5.00758 142.594 3.95788Z" fill="#4E00FF"/>
<g style="mix-blend-mode:lighten">
<path d="M760.328 571.775L760.843 614.897L722.785 589.942L760.328 571.775Z" fill="#4E00FF"/>
</g>
<g style="mix-blend-mode:lighten">
<path d="M221.145 588.419L230.13 546.248L261.755 578.96L221.145 588.419Z" fill="#4E00FF"/>
</g>
<g style="mix-blend-mode:darken">
<g style="mix-blend-mode:lighten">
<path d="M584.666 613.809L570.654 627.484L566.934 607.16L584.666 613.809Z" fill="#4E00FF"/>
</g>
</g>
<path d="M94.2216 228.407L74.6484 227.636L86.8594 210.953L94.2216 228.407Z" fill="#4E00FF"/>
<g style="mix-blend-mode:darken">
<path d="M989.564 130.474L992.83 139.419L1019.84 106.213L1022.42 116.246L1055.45 78.0918L1018.54 137.559L1014.82 126.556L988.654 163.008L984.894 150.877L949.527 187.23L989.564 130.474Z" fill="#4E00FF"/>
</g>
<g style="mix-blend-mode:lighten">
<g style="mix-blend-mode:lighten">
<path d="M1107.47 511.199C1107.47 510.515 1107.68 509.845 1108.06 509.275C1108.44 508.706 1108.98 508.262 1109.61 508C1110.24 507.738 1110.94 507.669 1111.61 507.803C1112.28 507.937 1112.9 508.266 1113.39 508.751C1113.87 509.235 1114.2 509.852 1114.33 510.524C1114.47 511.196 1114.4 511.892 1114.14 512.525C1113.87 513.158 1113.43 513.698 1112.86 514.079C1112.29 514.46 1111.62 514.663 1110.94 514.663C1110.48 514.665 1110.03 514.577 1109.61 514.404C1109.19 514.231 1108.8 513.976 1108.48 513.654C1108.16 513.332 1107.9 512.949 1107.73 512.528C1107.56 512.106 1107.47 511.655 1107.47 511.199V511.199Z" fill="#AD0089"/>
</g>
<g style="mix-blend-mode:lighten">
<path d="M1105.5 511.199C1105.5 510.515 1105.7 509.845 1106.08 509.275C1106.46 508.706 1107 508.262 1107.63 508C1108.27 507.738 1108.96 507.669 1109.64 507.803C1110.31 507.937 1110.92 508.266 1111.41 508.751C1111.89 509.235 1112.22 509.852 1112.36 510.524C1112.49 511.196 1112.42 511.892 1112.16 512.525C1111.9 513.158 1111.45 513.698 1110.88 514.079C1110.31 514.46 1109.64 514.663 1108.96 514.663C1108.5 514.665 1108.05 514.577 1107.63 514.404C1107.21 514.231 1106.83 513.976 1106.5 513.654C1106.18 513.332 1105.93 512.949 1105.75 512.528C1105.58 512.106 1105.49 511.655 1105.5 511.199V511.199Z" fill="#4E00FF"/>
</g>
</g>
<g style="mix-blend-mode:lighten">
<path d="M444.523 545.869L416.855 618.041L420.457 630.964L444.523 545.869Z" fill="#4E00FF"/>
</g>
<path d="M866.168 89.3292L886.968 54.4998L886.256 47.4746L866.168 89.3292Z" fill="#4E00FF"/>
<path d="M891.107 619.229C891.107 620.274 890.797 621.296 890.217 622.165C889.636 623.033 888.811 623.711 887.845 624.111C886.88 624.511 885.817 624.615 884.792 624.411C883.767 624.207 882.826 623.704 882.087 622.965C881.348 622.226 880.844 621.285 880.641 620.26C880.437 619.235 880.541 618.173 880.941 617.207C881.341 616.242 882.019 615.416 882.887 614.836C883.756 614.255 884.778 613.945 885.823 613.945C887.225 613.945 888.569 614.502 889.56 615.493C890.551 616.484 891.107 617.828 891.107 619.229V619.229Z" fill="#4E00FF"/>
<path d="M941.867 591.486C941.867 592.195 941.657 592.887 941.264 593.476C940.87 594.065 940.311 594.524 939.656 594.795C939.001 595.066 938.281 595.137 937.586 594.999C936.892 594.861 936.253 594.52 935.752 594.019C935.251 593.518 934.91 592.88 934.772 592.185C934.634 591.49 934.705 590.77 934.976 590.115C935.247 589.461 935.706 588.902 936.295 588.508C936.884 588.114 937.577 587.904 938.285 587.904C939.235 587.904 940.146 588.282 940.818 588.953C941.49 589.625 941.867 590.536 941.867 591.486Z" fill="#4E00FF"/>
<path d="M1021.33 528.476C1021.33 529.185 1021.12 529.877 1020.73 530.466C1020.33 531.055 1019.78 531.515 1019.12 531.786C1018.47 532.057 1017.75 532.128 1017.05 531.989C1016.36 531.851 1015.72 531.51 1015.22 531.009C1014.72 530.508 1014.38 529.87 1014.24 529.175C1014.1 528.48 1014.17 527.76 1014.44 527.106C1014.71 526.451 1015.17 525.892 1015.76 525.498C1016.35 525.105 1017.04 524.895 1017.75 524.895C1018.7 524.895 1019.61 525.272 1020.28 525.944C1020.95 526.615 1021.33 527.526 1021.33 528.476V528.476Z" fill="#4E00FF"/>
<g style="mix-blend-mode:lighten">
<path d="M499.25 649.866C502.529 649.866 505.187 647.208 505.187 643.929C505.187 640.65 502.529 637.992 499.25 637.992C495.971 637.992 493.312 640.65 493.312 643.929C493.312 647.208 495.971 649.866 499.25 649.866Z" fill="#C70091"/>
</g>
<path d="M336.21 43.7162C336.21 44.773 335.897 45.806 335.31 46.6847C334.723 47.5634 333.888 48.2482 332.912 48.6526C331.935 49.0571 330.861 49.1629 329.824 48.9567C328.788 48.7505 327.836 48.2416 327.089 47.4944C326.341 46.7471 325.832 45.7951 325.626 44.7586C325.42 43.7222 325.526 42.6478 325.93 41.6715C326.335 40.6952 327.02 39.8607 327.898 39.2736C328.777 38.6865 329.81 38.3731 330.867 38.3731C331.569 38.3705 332.265 38.5069 332.915 38.7745C333.564 39.0421 334.155 39.4355 334.651 39.9322C335.148 40.4289 335.541 41.019 335.809 41.6684C336.077 42.3178 336.213 43.0138 336.21 43.7162Z" fill="#4E00FF"/>
<path d="M1100.89 320.847C1100.89 321.629 1100.66 322.395 1100.22 323.045C1099.79 323.696 1099.17 324.204 1098.45 324.503C1097.72 324.803 1096.93 324.881 1096.16 324.728C1095.39 324.576 1094.69 324.199 1094.13 323.645C1093.58 323.092 1093.2 322.386 1093.05 321.619C1092.9 320.851 1092.97 320.055 1093.27 319.332C1093.57 318.609 1094.08 317.991 1094.73 317.556C1095.38 317.121 1096.15 316.889 1096.93 316.889C1097.98 316.889 1098.99 317.306 1099.73 318.048C1100.47 318.79 1100.89 319.797 1100.89 320.847Z" fill="#4E00FF"/>
<path d="M22.4436 291.814C25.0012 291.814 27.0746 289.741 27.0746 287.184C27.0746 284.626 25.0012 282.553 22.4436 282.553C19.8859 282.553 17.8125 284.626 17.8125 287.184C17.8125 289.741 19.8859 291.814 22.4436 291.814Z" fill="#4E00FF"/>
<path d="M4.63107 143.394C7.18873 143.394 9.26212 141.321 9.26212 138.764C9.26212 136.206 7.18873 134.133 4.63107 134.133C2.0734 134.133 0 136.206 0 138.764C0 141.321 2.0734 143.394 4.63107 143.394Z" fill="#4E00FF"/>
<path d="M558.891 64.6316C558.887 62.5211 559.509 60.4569 560.679 58.7002C561.849 56.9435 563.513 55.5733 565.462 54.7629C567.411 53.9526 569.556 53.7385 571.627 54.1479C573.697 54.5572 575.6 55.5715 577.094 57.0625C578.588 58.5534 579.606 60.454 580.019 62.5236C580.432 64.5932 580.222 66.7389 579.415 68.6891C578.608 70.6393 577.241 72.3064 575.486 73.4793C573.732 74.6522 571.669 75.2783 569.558 75.2783C566.734 75.2731 564.027 74.1503 562.028 72.1554C560.029 70.1604 558.901 67.4555 558.891 64.6316Z" fill="#4E00FF"/>
<path d="M153.479 104.429L147.008 116.362L112.512 59.4082L94.0078 91.0712L150.63 141.91L157.438 126.613L188.984 163.857L153.479 104.429Z" fill="#4E00FF"/>
<path d="M137.586 181.311C137.582 180.276 137.885 179.264 138.457 178.403C139.029 177.541 139.843 176.868 140.798 176.47C141.752 176.071 142.803 175.965 143.818 176.164C144.833 176.364 145.766 176.86 146.498 177.59C147.231 178.319 147.73 179.25 147.934 180.264C148.137 181.278 148.035 182.33 147.64 183.286C147.245 184.241 146.575 185.058 145.716 185.633C144.856 186.208 143.845 186.515 142.811 186.515C141.428 186.515 140.103 185.968 139.123 184.992C138.144 184.017 137.591 182.693 137.586 181.311Z" fill="#4E00FF"/>
</svg>
