<svg xmlns="http://www.w3.org/2000/svg" xmlns:xlink="http://www.w3.org/1999/xlink" viewBox="0 0 2746.24 2730.93"><defs><style>.cls-1{fill:none;}.cls-2{fill:url(#linear-gradient);}.cls-3{fill:url(#linear-gradient-2);}.cls-4{isolation:isolate;}.cls-5{fill:#f4f7fa;}.cls-6{clip-path:url(#clip-path);}.cls-112,.cls-43,.cls-7{mix-blend-mode:soft-light;}.cls-8{clip-path:url(#clip-path-2);}.cls-9{fill:#fcfdfe;}.cls-10{clip-path:url(#clip-path-3);}.cls-11{fill:url(#linear-gradient-5);}.cls-12,.cls-13,.cls-42,.cls-43,.cls-55,.cls-67,.cls-75,.cls-97{opacity:0.3;}.cls-12,.cls-13,.cls-42,.cls-47,.cls-51,.cls-55,.cls-63,.cls-67,.cls-75,.cls-79,.cls-92,.cls-97{mix-blend-mode:multiply;}.cls-12{fill:url(#linear-gradient-6);}.cls-13{fill:url(#linear-gradient-7);}.cls-14{fill:url(#linear-gradient-8);}.cls-15{fill:url(#linear-gradient-9);}.cls-16{fill:url(#linear-gradient-10);}.cls-17{fill:url(#linear-gradient-11);}.cls-18{fill:url(#linear-gradient-12);}.cls-19{fill:url(#linear-gradient-13);}.cls-20{fill:url(#linear-gradient-14);}.cls-21{fill:url(#linear-gradient-15);}.cls-22{fill:url(#linear-gradient-16);}.cls-23{fill:url(#linear-gradient-17);}.cls-24{fill:url(#linear-gradient-18);}.cls-25{fill:url(#linear-gradient-19);}.cls-26{fill:url(#linear-gradient-20);}.cls-27{fill:url(#linear-gradient-21);}.cls-28{fill:url(#linear-gradient-22);}.cls-29{fill:url(#linear-gradient-23);}.cls-30{fill:url(#linear-gradient-24);}.cls-31{fill:url(#linear-gradient-25);}.cls-32{fill:url(#linear-gradient-26);}.cls-33{fill:url(#linear-gradient-27);}.cls-34{fill:url(#linear-gradient-28);}.cls-35{fill:url(#linear-gradient-29);}.cls-36{fill:url(#linear-gradient-30);}.cls-37{fill:url(#linear-gradient-31);}.cls-38{fill:url(#linear-gradient-32);}.cls-39{fill:url(#linear-gradient-33);}.cls-40{fill:url(#linear-gradient-34);}.cls-41{fill:url(#linear-gradient-35);}.cls-42{fill:url(#linear-gradient-36);}.cls-43{fill:url(#linear-gradient-37);}.cls-44{fill:#e28dde;}.cls-45{fill:url(#linear-gradient-38);}.cls-46{fill:url(#linear-gradient-39);}.cls-47{opacity:0.4;}.cls-48{fill:url(#linear-gradient-40);}.cls-49{fill:url(#linear-gradient-41);}.cls-50{fill:url(#linear-gradient-42);}.cls-51{fill:url(#linear-gradient-43);}.cls-52{fill:url(#linear-gradient-44);}.cls-53{fill:url(#linear-gradient-45);}.cls-54{fill:url(#linear-gradient-46);}.cls-55{fill:url(#linear-gradient-47);}.cls-56{fill:url(#linear-gradient-48);}.cls-57{fill:url(#linear-gradient-49);}.cls-58{fill:url(#linear-gradient-50);}.cls-59{fill:url(#linear-gradient-51);}.cls-60{fill:url(#linear-gradient-52);}.cls-61{fill:url(#linear-gradient-53);}.cls-112,.cls-62{fill:#fff;}.cls-63{opacity:0.2;}.cls-64{fill:url(#linear-gradient-54);}.cls-65{fill:url(#linear-gradient-55);}.cls-66{fill:url(#linear-gradient-56);}.cls-68{fill:url(#linear-gradient-58);}.cls-69{fill:url(#linear-gradient-59);}.cls-70{fill:url(#linear-gradient-60);}.cls-71{fill:url(#linear-gradient-61);}.cls-72{fill:url(#linear-gradient-62);}.cls-73{fill:url(#linear-gradient-63);}.cls-74{fill:url(#linear-gradient-64);}.cls-75{fill:url(#linear-gradient-65);}.cls-76{fill:url(#linear-gradient-66);}.cls-77{fill:url(#linear-gradient-67);}.cls-78{fill:url(#linear-gradient-68);}.cls-79{opacity:0.24;}.cls-80{fill:#552d63;}.cls-81{fill:url(#linear-gradient-69);}.cls-82{fill:url(#linear-gradient-70);}.cls-83{fill:url(#linear-gradient-71);}.cls-84{fill:url(#linear-gradient-72);}.cls-85{fill:url(#linear-gradient-73);}.cls-86{fill:url(#linear-gradient-74);}.cls-87{fill:url(#linear-gradient-75);}.cls-88{fill:url(#linear-gradient-76);}.cls-89{fill:url(#linear-gradient-77);}.cls-90{fill:url(#linear-gradient-78);}.cls-91{fill:url(#linear-gradient-79);}.cls-92{opacity:0.6;fill:url(#linear-gradient-80);}.cls-93{fill:url(#linear-gradient-81);}.cls-94{fill:url(#linear-gradient-82);}.cls-95{fill:url(#linear-gradient-83);}.cls-96{fill:url(#linear-gradient-84);}.cls-97{fill:url(#linear-gradient-85);}.cls-98{fill:url(#linear-gradient-86);}.cls-99{fill:url(#linear-gradient-87);}.cls-100{fill:url(#linear-gradient-88);}.cls-101{fill:url(#linear-gradient-89);}.cls-102{fill:#26264f;}.cls-103{fill:#444b8c;}.cls-104{fill:url(#linear-gradient-90);}.cls-105{fill:#1f1f44;}.cls-106{fill:url(#linear-gradient-91);}.cls-107{fill:url(#linear-gradient-92);}.cls-108{fill:url(#linear-gradient-93);}.cls-109{fill:url(#linear-gradient-94);}.cls-110{fill:url(#linear-gradient-95);}.cls-111{fill:url(#linear-gradient-96);}.cls-113{fill:url(#linear-gradient-97);}.cls-114{fill:url(#linear-gradient-98);}.cls-115{fill:url(#linear-gradient-99);}.cls-116{fill:url(#linear-gradient-100);}.cls-117{fill:url(#linear-gradient-101);}.cls-118{fill:url(#linear-gradient-102);}.cls-119{fill:url(#linear-gradient-103);}.cls-120{fill:url(#linear-gradient-104);}.cls-121{fill:url(#linear-gradient-105);}.cls-122{fill:url(#linear-gradient-106);}.cls-123{fill:url(#linear-gradient-107);}.cls-124{fill:url(#linear-gradient-108);}.cls-125{fill:url(#linear-gradient-109);}.cls-126{fill:url(#linear-gradient-110);}.cls-127{fill:url(#linear-gradient-111);}.cls-128{fill:url(#linear-gradient-112);}.cls-129{fill:url(#linear-gradient-113);}</style><linearGradient id="linear-gradient" x1="16903.06" y1="17729.62" x2="14946.56" y2="15670.95" gradientUnits="userSpaceOnUse"><stop offset="0" stop-color="#f36f56"/><stop offset="1" stop-color="#ffc444"/></linearGradient><linearGradient id="linear-gradient-2" x1="176.87" y1="1136.5" x2="1330.48" y2="1136.5" gradientUnits="userSpaceOnUse"><stop offset="0" stop-color="#e38ddd"/><stop offset="1" stop-color="#9571f6"/></linearGradient><clipPath id="clip-path"><rect class="cls-1" y="80.78" width="1298.13" height="1502.52"/></clipPath><clipPath id="clip-path-2"><path class="cls-2" d="M1226.85,2107.9c20.4,4.16,68.46-4.78,80-12.28,77-49.88,227.14-133.92,253.07-227.35,4.43-16-60.5-54.38-65.39-72.09-35.45-34.55-49.89-44.34-67.46-93.74-51.87-145.86,229.55-290.16,13.71-448.54-158.1-116-328.52-106.16-215.45-374.53S1291.77,35.56,935.93,128C731.72,181.09,820.87,472.68,676.18,615.78,538.69,751.76,562,910.4,702.44,1068.26s21.58,201.65-82.25,340c-124.74,166.25,151.63,297.79,284.41,347.64C1011.52,1796.08,1256.69,1970.43,1226.85,2107.9Z"/></clipPath><clipPath id="clip-path-3"><path class="cls-3" d="M1136,1919.47c18-3.23,54.28-26.12,61.28-36,46.58-65.67,141.79-182.94,132.62-267.56-1.57-14.45-67-24.72-76.73-37.57-40.13-16.68-55.09-20-85.45-54.56-89.64-102.13,93.06-311.15-134.38-370.28C866.7,1110.21,730.91,1173.55,736,918S516.35,208.22,256.14,399.12c-149.33,109.55,18,318.44-53.55,482.11-68,155.52,2.5,277.34,168.26,360.51s83,157.46,43.27,304C366.34,1721.84,634.44,1739.44,758.91,1737,859.14,1735,1115.68,1797.67,1136,1919.47Z"/></clipPath><linearGradient id="linear-gradient-5" x1="818.31" y1="639.89" x2="1850.32" y2="2556.47" gradientUnits="userSpaceOnUse"><stop offset="0" stop-color="#444b8c"/><stop offset="1" stop-color="#26264f"/></linearGradient><linearGradient id="linear-gradient-6" x1="1132.53" y1="956.19" x2="1875.38" y2="956.19" gradientUnits="userSpaceOnUse"><stop offset="0" stop-color="#40447e"/><stop offset="1" stop-color="#3c3b6b"/></linearGradient><linearGradient id="linear-gradient-7" x1="1981.36" y1="1613.28" x2="2490.16" y2="1090.02" xlink:href="#linear-gradient-5"/><linearGradient id="linear-gradient-8" x1="896.64" y1="1380.72" x2="472.63" y2="690.76" xlink:href="#linear-gradient-5"/><linearGradient id="linear-gradient-9" x1="888.58" y1="1494.75" x2="1376.48" y2="1494.75" xlink:href="#linear-gradient-5"/><linearGradient id="linear-gradient-10" x1="1089.58" y1="1087.12" x2="1116.56" y2="1337.67" xlink:href="#linear-gradient-5"/><linearGradient id="linear-gradient-11" x1="1165.62" y1="1389.76" x2="1119.85" y2="1812.1" xlink:href="#linear-gradient-5"/><linearGradient id="linear-gradient-12" x1="1156.58" y1="1338.65" x2="1152.41" y2="1700.66" xlink:href="#linear-gradient-5"/><linearGradient id="linear-gradient-13" x1="1642.4" y1="1464.28" x2="2095.02" y2="1464.28" xlink:href="#linear-gradient-5"/><linearGradient id="linear-gradient-14" x1="1820.46" y1="1008.41" x2="1847.44" y2="1258.96" xlink:href="#linear-gradient-5"/><linearGradient id="linear-gradient-15" x1="1910.44" y1="1359.36" x2="1864.67" y2="1781.71" xlink:href="#linear-gradient-5"/><linearGradient id="linear-gradient-16" x1="1901.4" y1="1308.25" x2="1897.24" y2="1670.26" xlink:href="#linear-gradient-5"/><linearGradient id="linear-gradient-17" x1="979.45" y1="690.04" x2="1071.96" y2="958.9" gradientUnits="userSpaceOnUse"><stop offset="0" stop-color="#aa80f9"/><stop offset="1" stop-color="#6165d7"/></linearGradient><linearGradient id="linear-gradient-18" x1="1798.65" y1="408.16" x2="1891.16" y2="677.02" xlink:href="#linear-gradient-17"/><linearGradient id="linear-gradient-19" x1="1037.01" y1="1254.86" x2="962.81" y2="1183.55" xlink:href="#linear-gradient-17"/><linearGradient id="linear-gradient-20" x1="895.77" y1="1401.82" x2="821.57" y2="1330.51" xlink:href="#linear-gradient-17"/><linearGradient id="linear-gradient-21" x1="895.47" y1="1402.13" x2="821.27" y2="1330.82" xlink:href="#linear-gradient-17"/><linearGradient id="linear-gradient-22" x1="1036.37" y1="1255.52" x2="962.17" y2="1184.21" xlink:href="#linear-gradient-17"/><linearGradient id="linear-gradient-23" x1="776.25" y1="1026.26" x2="932.36" y2="1357.75" xlink:href="#linear-gradient-17"/><linearGradient id="linear-gradient-24" x1="661.65" y1="1080.23" x2="817.76" y2="1411.72" xlink:href="#linear-gradient-17"/><linearGradient id="linear-gradient-25" x1="605.9" y1="1106.48" x2="762.01" y2="1437.98" xlink:href="#linear-gradient-17"/><linearGradient id="linear-gradient-26" x1="830.42" y1="1000.75" x2="986.53" y2="1332.24" xlink:href="#linear-gradient-17"/><linearGradient id="linear-gradient-27" x1="2401.51" y1="1333.16" x2="1950.53" y2="596.94" xlink:href="#linear-gradient-5"/><linearGradient id="linear-gradient-28" x1="2608.59" y1="1257.35" x2="2507.41" y2="1156.17" xlink:href="#linear-gradient-17"/><linearGradient id="linear-gradient-29" x1="2431.75" y1="1434.19" x2="2330.57" y2="1333" xlink:href="#linear-gradient-17"/><linearGradient id="linear-gradient-30" x1="2434.34" y1="1431.6" x2="2333.16" y2="1330.41" xlink:href="#linear-gradient-17"/><linearGradient id="linear-gradient-31" x1="2604.64" y1="1261.3" x2="2503.46" y2="1160.12" xlink:href="#linear-gradient-17"/><linearGradient id="linear-gradient-32" x1="2282.82" y1="983.64" x2="2464.95" y2="1608.08" xlink:href="#linear-gradient-17"/><linearGradient id="linear-gradient-33" x1="2187.76" y1="1011.37" x2="2369.89" y2="1635.81" xlink:href="#linear-gradient-17"/><linearGradient id="linear-gradient-34" x1="2079.2" y1="1043.03" x2="2261.32" y2="1667.47" xlink:href="#linear-gradient-17"/><linearGradient id="linear-gradient-35" x1="2388.92" y1="952.7" x2="2571.04" y2="1577.14" xlink:href="#linear-gradient-17"/><linearGradient id="linear-gradient-36" x1="136.52" y1="1007" x2="1168.53" y2="2923.59" xlink:href="#linear-gradient-5"/><linearGradient id="linear-gradient-37" x1="1132.53" y1="983.25" x2="1875.38" y2="983.25" xlink:href="#linear-gradient-17"/><linearGradient id="linear-gradient-38" x1="3464.37" y1="2268.01" x2="3510.15" y2="2538.53" gradientTransform="matrix(-1, 0, 0, 1, 5537.1, 0)" xlink:href="#linear-gradient-5"/><linearGradient id="linear-gradient-39" x1="-338.85" y1="2314.23" x2="-378.28" y2="2561.08" gradientTransform="translate(2438.85)" gradientUnits="userSpaceOnUse"><stop offset="0" stop-color="#311944"/><stop offset="1" stop-color="#a03976"/></linearGradient><linearGradient id="linear-gradient-40" x1="-211.09" y1="1250.95" x2="-398.51" y2="1918.36" gradientTransform="translate(2438.85)" gradientUnits="userSpaceOnUse"><stop offset="0" stop-color="#ff9085"/><stop offset="1" stop-color="#fb6fbb"/></linearGradient><linearGradient id="linear-gradient-41" x1="-511.75" y1="1577.73" x2="-479.18" y2="1683.44" xlink:href="#linear-gradient-40"/><linearGradient id="linear-gradient-42" x1="3393.11" y1="1714.72" x2="3359.45" y2="2546.3" gradientTransform="matrix(-1, 0, 0, 1, 5537.1, 0)" gradientUnits="userSpaceOnUse"><stop offset="0" stop-color="#ffc444"/><stop offset="1" stop-color="#f36f56"/></linearGradient><linearGradient id="linear-gradient-43" x1="-103.97" y1="1281.03" x2="-291.39" y2="1948.44" xlink:href="#linear-gradient-40"/><linearGradient id="linear-gradient-44" x1="3338.47" y1="1601.76" x2="2882.76" y2="1227.21" gradientTransform="matrix(-1, 0, 0, 1, 5537.1, 0)" xlink:href="#linear-gradient-40"/><linearGradient id="linear-gradient-45" x1="3626.64" y1="1598.19" x2="3462.41" y2="1474.44" gradientTransform="matrix(-1, 0, 0, 1, 5537.1, 0)" xlink:href="#linear-gradient-5"/><linearGradient id="linear-gradient-46" x1="-454.13" y1="1476.6" x2="-376.04" y2="1617.41" gradientTransform="translate(2438.85)" xlink:href="#linear-gradient-5"/><linearGradient id="linear-gradient-47" x1="3452.29" y1="1434.74" x2="3573.86" y2="1729.11" gradientTransform="matrix(-1, 0, 0, 1, 5537.1, 0)" xlink:href="#linear-gradient-5"/><linearGradient id="linear-gradient-48" x1="-257.02" y1="1122.4" x2="-290.69" y2="1953.97" gradientTransform="translate(2438.85)" xlink:href="#linear-gradient-42"/><linearGradient id="linear-gradient-49" x1="-436.38" y1="1361.04" x2="-470.05" y2="2192.62" gradientTransform="translate(2438.85)" xlink:href="#linear-gradient-42"/><linearGradient id="linear-gradient-50" x1="3456.22" y1="1145.29" x2="3420.43" y2="1251.71" gradientTransform="matrix(-1, 0, 0, 1, 5537.1, 0)" xlink:href="#linear-gradient-5"/><linearGradient id="linear-gradient-51" x1="-306.82" y1="1366.29" x2="-340.49" y2="2197.86" gradientTransform="translate(2438.85)" xlink:href="#linear-gradient-42"/><linearGradient id="linear-gradient-52" x1="2035.27" y1="453.33" x2="2293.08" y2="970.69" gradientTransform="matrix(1, 0, 0, 1, 0, 0)" xlink:href="#linear-gradient-42"/><linearGradient id="linear-gradient-53" x1="2186.88" y1="793.14" x2="2437.29" y2="1257.58" gradientTransform="matrix(1, 0, 0, 1, 0, 0)" xlink:href="#linear-gradient-42"/><linearGradient id="linear-gradient-54" x1="2118.11" y1="824.01" x2="2361.38" y2="1312.19" gradientTransform="matrix(1, 0, 0, 1, 0, 0)" xlink:href="#linear-gradient-42"/><linearGradient id="linear-gradient-55" x1="2159.45" y1="-46.78" x2="1622.88" y2="1294.65" gradientUnits="userSpaceOnUse"><stop offset="0" stop-color="#311944"/><stop offset="1" stop-color="#893976"/></linearGradient><linearGradient id="linear-gradient-56" x1="1822.39" y1="472.58" x2="2069.28" y2="930.48" gradientTransform="matrix(1, 0, 0, 1, 0, 0)" xlink:href="#linear-gradient-40"/><linearGradient id="linear-gradient-58" x1="-3209.78" y1="498.73" x2="-2967.78" y2="984.35" gradientTransform="matrix(-1, 0, 0, 1, -1188.04, 0)" xlink:href="#linear-gradient-40"/><linearGradient id="linear-gradient-59" x1="2175.32" y1="368.89" x2="2411.97" y2="424.8" xlink:href="#linear-gradient-55"/><linearGradient id="linear-gradient-60" x1="-3560.59" y1="304.64" x2="-3357.71" y2="680.93" gradientTransform="matrix(-1, 0, 0, 1, -1188.04, 0)" xlink:href="#linear-gradient-2"/><linearGradient id="linear-gradient-61" x1="-3620.06" y1="329.5" x2="-3421.24" y2="728.48" gradientTransform="matrix(-1, 0, 0, 1, -1188.04, 0)" xlink:href="#linear-gradient-40"/><linearGradient id="linear-gradient-62" x1="561.41" y1="1730.1" x2="1396.77" y2="3514.63" gradientTransform="translate(-73.9)" xlink:href="#linear-gradient-17"/><linearGradient id="linear-gradient-63" x1="945.13" y1="1995.72" x2="867.95" y2="2449.63" gradientTransform="translate(-73.9)" xlink:href="#linear-gradient-17"/><linearGradient id="linear-gradient-64" x1="561.41" y1="1730.1" x2="1396.77" y2="3514.63" gradientTransform="translate(-73.9)" xlink:href="#linear-gradient-17"/><linearGradient id="linear-gradient-65" x1="343.78" y1="2088.86" x2="1100.54" y2="2088.86" xlink:href="#linear-gradient-17"/><linearGradient id="linear-gradient-66" x1="-1586.44" y1="2179.27" x2="-1412.94" y2="2179.27" gradientTransform="matrix(0.66, -0.75, 0.75, 0.66, 934.37, -118.63)" xlink:href="#linear-gradient-6"/><linearGradient id="linear-gradient-67" x1="1602.93" y1="2010.31" x2="2999.2" y2="3459.28" gradientTransform="translate(-165.2 -71.17) rotate(5.62)" xlink:href="#linear-gradient-42"/><linearGradient id="linear-gradient-68" x1="617.26" y1="2177.27" x2="1475.14" y2="2632.93" gradientTransform="translate(-9.52 20.64) rotate(-3.5)" gradientUnits="userSpaceOnUse"><stop offset="0" stop-color="#311944"/><stop offset="1" stop-color="#6b3976"/></linearGradient><linearGradient id="linear-gradient-69" x1="292.42" y1="2381.39" x2="1070.32" y2="2236.87" gradientTransform="translate(-9.52 20.64) rotate(-3.5)" xlink:href="#linear-gradient-55"/><linearGradient id="linear-gradient-70" x1="850.57" y1="1934.93" x2="767.88" y2="2210.58" gradientTransform="matrix(1, 0, 0, 1, 0, 0)" xlink:href="#linear-gradient-42"/><linearGradient id="linear-gradient-71" x1="571.67" y1="2159.36" x2="225.49" y2="3417.8" gradientTransform="translate(-9.52 20.64) rotate(-3.5)" xlink:href="#linear-gradient-42"/><linearGradient id="linear-gradient-72" x1="618.16" y1="2300.51" x2="533.15" y2="1968.01" gradientTransform="translate(-9.52 20.64) rotate(-3.5)" xlink:href="#linear-gradient-42"/><linearGradient id="linear-gradient-73" x1="485.54" y1="2135.67" x2="139.37" y2="3394.11" gradientTransform="translate(-9.52 20.64) rotate(-3.5)" xlink:href="#linear-gradient-42"/><linearGradient id="linear-gradient-74" x1="577.79" y1="1873.96" x2="673.46" y2="1873.96" gradientTransform="matrix(1, 0, 0, 1, 0, 0)" xlink:href="#linear-gradient-42"/><linearGradient id="linear-gradient-75" x1="681.39" y1="2243.24" x2="894.63" y2="2243.24" gradientTransform="matrix(1, 0, 0, 1, 0, 0)" xlink:href="#linear-gradient-42"/><linearGradient id="linear-gradient-76" x1="1195.39" y1="1727.25" x2="1181.11" y2="1747.62" gradientTransform="translate(-297.66 -52.47) rotate(6.1)" xlink:href="#linear-gradient-42"/><linearGradient id="linear-gradient-77" x1="1169.4" y1="1759.53" x2="1197.07" y2="1702.65" gradientTransform="translate(-297.66 -52.47) rotate(6.1)" xlink:href="#linear-gradient-42"/><linearGradient id="linear-gradient-78" x1="1189.6" y1="1736.07" x2="1194.3" y2="1733.14" gradientTransform="matrix(1, 0, 0, 1, -489.85, 62.56)" xlink:href="#linear-gradient-42"/><linearGradient id="linear-gradient-79" x1="1193.88" y1="1720.82" x2="1179.52" y2="1737.84" gradientTransform="translate(2428.64 634.2) rotate(90)" xlink:href="#linear-gradient-42"/><linearGradient id="linear-gradient-80" x1="1164.64" y1="1745.13" x2="1182.09" y2="1745.13" gradientTransform="translate(-297.66 -52.47) rotate(6.1)" xlink:href="#linear-gradient-42"/><linearGradient id="linear-gradient-81" x1="-6780.38" y1="2726.47" x2="-6779.21" y2="2726.47" gradientTransform="matrix(-0.95, -0.31, -0.31, 0.95, 7246.82, 1098.66)" xlink:href="#linear-gradient-39"/><linearGradient id="linear-gradient-82" x1="-6780.25" y1="2757.62" x2="-6779.09" y2="2757.62" gradientTransform="matrix(-0.95, -0.31, -0.31, 0.95, 7246.82, 1098.66)" xlink:href="#linear-gradient-39"/><linearGradient id="linear-gradient-83" x1="1096.83" y1="1416.04" x2="1123.65" y2="1360.9" gradientTransform="matrix(1.03, 0.11, -0.12, 1.09, -320.57, 132.84)" xlink:href="#linear-gradient-42"/><linearGradient id="linear-gradient-84" x1="1115.01" y1="1347.25" x2="1109.23" y2="1366.44" gradientTransform="matrix(1.03, 0.11, -0.12, 1.09, -320.57, 132.84)" xlink:href="#linear-gradient-42"/><linearGradient id="linear-gradient-85" x1="1115.04" y1="1347.16" x2="1109.24" y2="1366.4" gradientTransform="matrix(1.03, 0.11, -0.12, 1.09, -320.57, 132.84)" xlink:href="#linear-gradient-42"/><linearGradient id="linear-gradient-86" x1="1087.75" y1="1744.61" x2="1120.2" y2="1744.61" gradientTransform="translate(-297.66 -52.47) rotate(6.1)" xlink:href="#linear-gradient-42"/><linearGradient id="linear-gradient-87" x1="1090.89" y1="1750.37" x2="1064.84" y2="1765.52" gradientTransform="translate(2356 698.54) rotate(90)" xlink:href="#linear-gradient-42"/><linearGradient id="linear-gradient-88" x1="1072.38" y1="1744.61" x2="1108.05" y2="1744.61" gradientTransform="translate(-297.66 -52.47) rotate(6.1)" xlink:href="#linear-gradient-42"/><linearGradient id="linear-gradient-89" x1="1072.38" y1="1744.15" x2="1093.83" y2="1744.15" gradientTransform="translate(-297.66 -52.47) rotate(6.1)" xlink:href="#linear-gradient-42"/><linearGradient id="linear-gradient-90" x1="717.94" y1="2164.72" x2="997.05" y2="2164.72" gradientTransform="translate(-9.52 20.64) rotate(-3.5)" xlink:href="#linear-gradient-6"/><linearGradient id="linear-gradient-91" x1="13.77" y1="2337.76" x2="152.4" y2="2337.76" gradientTransform="translate(383.56 58.74) rotate(-22.13)" xlink:href="#linear-gradient-6"/><linearGradient id="linear-gradient-92" x1="1127.19" y1="2207.93" x2="2523.53" y2="3656.96" gradientTransform="translate(-9.52 20.64) rotate(-3.5)" xlink:href="#linear-gradient-42"/><linearGradient id="linear-gradient-93" x1="547.77" y1="2307.03" x2="1187.28" y2="2244.69" xlink:href="#linear-gradient-68"/><linearGradient id="linear-gradient-94" x1="301.89" y1="2432.31" x2="1079.79" y2="2287.78" gradientTransform="translate(-9.52 20.64) rotate(-3.5)" xlink:href="#linear-gradient-55"/><linearGradient id="linear-gradient-95" x1="579.35" y1="2330.93" x2="1049.98" y2="2230.34" xlink:href="#linear-gradient-68"/><linearGradient id="linear-gradient-96" x1="2946.64" y1="1268.01" x2="3255.22" y2="1593.3" gradientTransform="matrix(-1, 0, 0, 1, 4975.35, 0)" xlink:href="#linear-gradient-17"/><linearGradient id="linear-gradient-97" x1="3145.5" y1="1303.69" x2="3271.22" y2="1436.23" gradientTransform="matrix(-1, 0, 0, 1, 4975.35, 0)" xlink:href="#linear-gradient-17"/><linearGradient id="linear-gradient-98" x1="3109.14" y1="1293.9" x2="2956.35" y2="1441.08" gradientTransform="matrix(-1, 0, 0, 1, 4975.35, 0)" xlink:href="#linear-gradient-17"/><linearGradient id="linear-gradient-99" x1="3116.07" y1="1309.28" x2="2969.64" y2="1450.32" gradientTransform="matrix(-1, 0, 0, 1, 4975.35, 0)" xlink:href="#linear-gradient-17"/><linearGradient id="linear-gradient-100" x1="3122.95" y1="1323.39" x2="2982.42" y2="1458.76" gradientTransform="matrix(-1, 0, 0, 1, 4975.35, 0)" xlink:href="#linear-gradient-17"/><linearGradient id="linear-gradient-101" x1="3129.77" y1="1336.39" x2="2994.72" y2="1466.49" gradientTransform="matrix(-1, 0, 0, 1, 4975.35, 0)" xlink:href="#linear-gradient-17"/><linearGradient id="linear-gradient-102" x1="1123.16" y1="1834.47" x2="1425.47" y2="2153.17" gradientTransform="translate(-208.27)" xlink:href="#linear-gradient-42"/><linearGradient id="linear-gradient-103" x1="1324.49" y1="1864.1" x2="1454.78" y2="2001.45" gradientTransform="translate(-208.27)" xlink:href="#linear-gradient-42"/><linearGradient id="linear-gradient-104" x1="3993.37" y1="1922.02" x2="4013.76" y2="1922.02" gradientTransform="matrix(-1, 0, 0, 1, 4975.35, 0)" xlink:href="#linear-gradient-42"/><linearGradient id="linear-gradient-105" x1="1266.91" y1="1861.76" x2="1120.66" y2="2002.64" gradientTransform="translate(-208.27)" xlink:href="#linear-gradient-42"/><linearGradient id="linear-gradient-106" x1="1277.02" y1="1874.83" x2="1134.24" y2="2012.36" gradientTransform="translate(-208.27)" xlink:href="#linear-gradient-42"/><linearGradient id="linear-gradient-107" x1="1287.01" y1="1887.26" x2="1147.56" y2="2021.59" gradientTransform="translate(-208.27)" xlink:href="#linear-gradient-42"/><linearGradient id="linear-gradient-108" x1="1296.88" y1="1899.1" x2="1160.62" y2="2030.35" gradientTransform="translate(-208.27)" xlink:href="#linear-gradient-42"/><linearGradient id="linear-gradient-109" x1="-5660.05" y1="-82.14" x2="-6480.25" y2="1968.35" gradientTransform="translate(6786.11 -269.62) rotate(-0.89)" xlink:href="#linear-gradient-55"/><linearGradient id="linear-gradient-110" x1="-6167.83" y1="702.74" x2="-5791.08" y2="1401.5" gradientTransform="translate(6786.11 -269.62) rotate(-0.89)" xlink:href="#linear-gradient-40"/><linearGradient id="linear-gradient-111" x1="-6398.25" y1="275.37" x2="-6021.5" y2="974.13" gradientTransform="translate(6786.11 -269.62) rotate(-0.89)" xlink:href="#linear-gradient-40"/><linearGradient id="linear-gradient-112" x1="-5265.83" y1="-14.04" x2="-4913.1" y2="640.17" gradientTransform="translate(5848.78 -342.71) rotate(-9.81)" xlink:href="#linear-gradient-40"/><linearGradient id="linear-gradient-113" x1="-6269.73" y1="741.6" x2="-5897.67" y2="1488.24" gradientTransform="translate(6786.11 -269.62) rotate(-0.89)" xlink:href="#linear-gradient-40"/></defs><g class="cls-4"><g id="Layer_2" data-name="Layer 2"><g id="Illustration"><path class="cls-5" d="M2705.85,1166.46C2631.42,679.24,2326.23,80.66,1723.3,18c0,0-457.77-55.68-909,28.71C546.44,96.82,311.6,245.91,163,460.19S-35.24,935.77,25,1184.88c39.13,161.8,65.57,329.26,58.31,495.51-12.63,289.36-5.36,559.45,275.45,732,250.73,154.08,566.29,290,867.33,313.77,204.58,16.18,434-10,631.2-63.26C2862.17,2391.47,2780.29,1653.68,2705.85,1166.46Z"/><g class="cls-6"><g class="cls-7"><path class="cls-2" d="M1226.85,2107.9c20.4,4.16,68.46-4.78,80-12.28,77-49.88,227.14-133.92,253.07-227.35,4.43-16-60.5-54.38-65.39-72.09-35.45-34.55-49.89-44.34-67.46-93.74-51.87-145.86,229.55-290.16,13.71-448.54-158.1-116-328.52-106.16-215.45-374.53S1291.77,35.56,935.93,128C731.72,181.09,820.87,472.68,676.18,615.78,538.69,751.76,562,910.4,702.44,1068.26s21.58,201.65-82.25,340c-124.74,166.25,151.63,297.79,284.41,347.64C1011.52,1796.08,1256.69,1970.43,1226.85,2107.9Z"/><g class="cls-8"><path class="cls-9" d="M1428.27,1989l3.12-3.14C948,1504.72,802.38,788.9,1042,71.05l-4.2-1.41C924.22,409.86,896.53,763.11,957.7,1091.22,1022,1436.16,1184.72,1746.61,1428.27,1989Z"/><path class="cls-9" d="M560.42,1471.45C747,1473.79,1028,1568.24,1186.89,1682l2.58-3.6c-159.53-114.21-441.69-209-629-211.37Z"/><path class="cls-9" d="M1334.45,1893.47l3.87-2.16c-49.32-88.8-51.85-199.13-7.52-327.91,32.51-94.43,89-196.4,167.86-303.08l-3.56-2.63c-79.15,107-135.84,209.41-168.49,304.27C1281.86,1692,1284.49,1803.51,1334.45,1893.47Z"/><path class="cls-9" d="M950.82,1044.31l4-2c-84.35-172.17-260.27-270.68-393-323l-1.62,4.12C692.18,775.52,867.1,873.41,950.82,1044.31Z"/><path class="cls-9" d="M929.93,605.92l4.28,1.12c54.94-208.88,233.66-348.38,335.3-412.95l-2.37-3.74C1165,255.27,985.25,395.57,929.93,605.92Z"/></g></g><g class="cls-7"><path class="cls-3" d="M1136,1919.47c18-3.23,54.28-26.12,61.28-36,46.58-65.67,141.79-182.94,132.62-267.56-1.57-14.45-67-24.72-76.73-37.57-40.13-16.68-55.09-20-85.45-54.56-89.64-102.13,93.06-311.15-134.38-370.28C866.7,1110.21,730.91,1173.55,736,918S516.35,208.22,256.14,399.12c-149.33,109.55,18,318.44-53.55,482.11-68,155.52,2.5,277.34,168.26,360.51s83,157.46,43.27,304C366.34,1721.84,634.44,1739.44,758.91,1737,859.14,1735,1115.68,1797.67,1136,1919.47Z"/><g class="cls-10"><path class="cls-9" d="M1261.65,1757.13l1.52-3.57C712.75,1518,361.7,981.47,324.13,318.24l-3.89.22c17.81,314.32,109.88,611.42,266.25,859.17C750.88,1438.09,984.34,1638.48,1261.65,1757.13Z"/><path class="cls-9" d="M385.87,1616.68c152.9-58.64,412.76-72.81,579.28-31.6l.93-3.77c-167.17-41.37-428.08-27.14-581.6,31.74Z"/><path class="cls-9" d="M1154.12,1709.66l2.46-3c-69-56.42-106.91-145.58-112.55-265-4.14-87.57,8.83-189.06,38.54-301.67l-3.76-1c-29.81,113-42.82,214.88-38.66,302.84C1045.84,1562.4,1084.19,1652.51,1154.12,1709.66Z"/><path class="cls-9" d="M565.66,1141.6l2.61-2.88c-124.68-113-300.12-136.3-425.34-135.9v3.89C267.48,1006.31,441.91,1029.39,565.66,1141.6Z"/><path class="cls-9" d="M406.34,790.83l3.86-.47c-23-188.2,77.51-360,139.45-445.62l-3.15-2.28C484.22,428.57,383.2,601.32,406.34,790.83Z"/></g></g></g><path class="cls-11" d="M2680.73,1807.56,2497.66,916.34c-36.34-176.93-205.56-285.71-373.17-237.14l-75.74,21.95a302.93,302.93,0,0,1-83.7,12l-169.12.36L1100,715l-183.26.39a352.54,352.54,0,0,1-92.92-12.27L738.45,680c-193.59-52.44-395.7,66.79-440,262.82L70.12,1952.71C31.94,2121.6,127.94,2283,292.79,2329.38h0c183.37,51.55,381.48-63.11,432-247.05l78.39-285.61c16.26-59.25,69.72-102.19,130.38-105L1949.82,1645c55-2.53,102.9,33.51,117.4,88l69.31,260.46c44.15,165.87,213.74,246.12,365.74,175.58h0C2635,2107.38,2710.68,1953.38,2680.73,1807.56Z"/><path class="cls-12" d="M1790.09,1183.23,1224,1199c-50.4,1.41-91.45-45.14-91.45-104V715.16l742.85-1.84v365.14C1875.38,1135,1837.29,1181.92,1790.09,1183.23Z"/><path class="cls-13" d="M2254.21,1944.19c-1.78-66.5,29.89-100.75,23.13-202.37-3.17-47.51-12.15-182.55-101.19-251.51-85.29-66.06-203.15-39.78-355.58-5.78-196.41,43.8-188.8,90.84-326.67,109.86-201,27.71-272.67-64.62-419.19-17.35-73.05,23.56-128.81,70.28-170.69,119.41a137,137,0,0,1,29.5-4.71L1949.82,1645c55-2.53,102.9,33.51,117.4,88l69.31,260.46c35.83,134.6,154.26,212.81,278.86,199.82C2287.86,2092.39,2255.9,2007.53,2254.21,1944.19Z"/><path class="cls-14" d="M1031.64,1092.68c0,165.12-135.12,303.36-304.08,308.86-171.52,5.57-312.5-127.4-312.5-297.08s141-308,312.5-309C896.52,794.49,1031.64,927.57,1031.64,1092.68Z"/><path class="cls-15" d="M1376.48,1485.64c0,133.46-107.36,246.84-241.26,253.32-135.54,6.55-246.64-98.67-246.64-235.1s111.1-249.95,246.64-253.52C1269.12,1246.82,1376.48,1352.18,1376.48,1485.64Z"/><path class="cls-16" d="M1330,1487.38c0,107.73-86.77,199.08-194.76,204.07-109.06,5-198.25-79.73-198.25-189.4s89.19-201.1,198.25-204.21C1243.21,1294.77,1330,1379.64,1330,1487.38Z"/><path class="cls-17" d="M1291.43,1489.55c0,75-60.37,138.8-135.67,142.45-76.21,3.68-138.69-55.49-138.69-132.2s62.48-140.56,138.69-142.56C1231.06,1355.26,1291.43,1414.5,1291.43,1489.55Z"/><path class="cls-18" d="M1265.28,1490.53c0,60.58-48.79,112-109.52,114.75-61.32,2.84-111.48-44.83-111.48-106.5s50.16-113.08,111.48-114.83C1216.49,1382.22,1265.28,1430,1265.28,1490.53Z"/><path class="cls-19" d="M2095,1455.82c0,128.6-99.66,237.67-223.91,243.68-125.71,6.08-228.71-95.42-228.71-226.77s103-240.55,228.71-243.85C1995.36,1225.61,2095,1327.23,2095,1455.82Z"/><path class="cls-20" d="M2051.85,1457.44c0,103.8-80.54,191.67-180.74,196.3-101.15,4.68-183.85-77.1-183.85-182.69s82.7-193.54,183.85-196.42C1971.31,1271.78,2051.85,1353.63,2051.85,1457.44Z"/><path class="cls-21" d="M2036.25,1459.15c0,75-60.37,138.81-135.66,142.45-76.22,3.69-138.69-55.48-138.69-132.2s62.47-140.55,138.69-142.56C1975.88,1324.86,2036.25,1384.11,2036.25,1459.15Z"/><path class="cls-22" d="M2010.1,1460.13c0,60.58-48.79,111.95-109.51,114.76-61.33,2.83-111.48-44.84-111.48-106.51s50.15-113.08,111.48-114.83C1961.31,1351.82,2010.1,1399.55,2010.1,1460.13Z"/><path class="cls-23" d="M1031.7,912.11h0A37.13,37.13,0,0,1,994,875V809a37.83,37.83,0,0,1,37.66-37.73h0a37.26,37.26,0,0,1,37.54,37.25v65.79A38,38,0,0,1,1031.7,912.11Z"/><path class="cls-24" d="M1945.18,901.05h0c-19,.21-34.33-15.67-34.33-35.48v-63c0-19.8,15.38-35.93,34.33-36h0c18.91-.08,34.22,15.85,34.22,35.58v62.82C1979.4,884.67,1964.09,900.84,1945.18,901.05Z"/><path class="cls-25" d="M759.89,879l-64.75.61c-19.09.18-34.58,15.52-34.58,34.27v73.69a33.06,33.06,0,0,0,5.78,18.69L695.62,1049a34,34,0,0,0,28.73,14.64l6.42-.11A35.2,35.2,0,0,0,759.41,1048l29.05-43.57a33.86,33.86,0,0,0,5.71-18.75V912.38A33.64,33.64,0,0,0,759.89,879Z"/><path class="cls-26" d="M759.89,1316.79l-64.75,1.87c-19.09.55-34.58-14.2-34.58-33V1212a34.1,34.1,0,0,1,5.78-18.91l29.28-43.94a35.51,35.51,0,0,1,28.73-15.74l6.42-.13a33.71,33.71,0,0,1,28.64,14.51l29.05,42.46a32.82,32.82,0,0,1,5.71,18.53v73.26C794.17,1300.7,778.83,1316.25,759.89,1316.79Z"/><path class="cls-27" d="M502.35,1070.64v64.3c0,18.88,15.71,33.84,35.06,33.42l75.74-1.67a35.88,35.88,0,0,0,19.22-6.1l44.22-29.7A34.54,34.54,0,0,0,692,1102.33V1096a33.07,33.07,0,0,0-15.45-28l-44.22-28a34.91,34.91,0,0,0-19.22-5.36l-75.74,1.23C518.06,1036.2,502.35,1051.76,502.35,1070.64Z"/><path class="cls-28" d="M948.37,1062.75v63a34.57,34.57,0,0,1-33.81,34.26l-73.74,1.63a33.91,33.91,0,0,1-18.86-5.21l-43.66-27.66A32.87,32.87,0,0,1,763,1101v-6.31a34.37,34.37,0,0,1,15.32-28.43L822,1036.91a34.84,34.84,0,0,1,18.86-5.93l73.74-1.19A33,33,0,0,1,948.37,1062.75Z"/><path class="cls-29" d="M774.35,882.16l-64.76.61C690.51,883,675,898.29,675,917v73.69a33.06,33.06,0,0,0,5.78,18.69l29.28,42.81a34,34,0,0,0,28.73,14.65l6.43-.11a35.25,35.25,0,0,0,28.64-15.61l29-43.57a33.78,33.78,0,0,0,5.71-18.75V915.59A33.62,33.62,0,0,0,774.35,882.16Z"/><path class="cls-30" d="M774.35,1320l-64.76,1.87c-19.08.55-34.58-14.21-34.58-33v-73.68a34.1,34.1,0,0,1,5.78-18.91l29.28-43.94a35.5,35.5,0,0,1,28.73-15.74l6.43-.14A33.77,33.77,0,0,1,773.87,1151l29,42.46a32.74,32.74,0,0,1,5.71,18.53v73.26C808.62,1303.9,793.29,1319.45,774.35,1320Z"/><path class="cls-31" d="M516.8,1073.85v64.3c0,18.88,15.71,33.84,35.07,33.41l75.74-1.67a35.92,35.92,0,0,0,19.21-6.09L691,1134.1a34.54,34.54,0,0,0,15.45-28.56v-6.33a33,33,0,0,0-15.45-28l-44.22-28a34.88,34.88,0,0,0-19.21-5.36l-75.74,1.23C532.51,1039.41,516.8,1055,516.8,1073.85Z"/><path class="cls-32" d="M962.82,1066v63A34.56,34.56,0,0,1,929,1163.26l-73.73,1.62a33.8,33.8,0,0,1-18.87-5.21L792.76,1132a32.89,32.89,0,0,1-15.33-27.84v-6.31a34.37,34.37,0,0,1,15.33-28.43l43.65-29.33a34.89,34.89,0,0,1,18.87-5.92L929,1033A33,33,0,0,1,962.82,1066Z"/><path class="cls-33" d="M1973.1,1073c0,157.48,121.47,281.19,269.42,276.37,145.89-4.74,262.68-133,262.68-286.54s-116.79-277.33-262.68-276.5C2094.57,787.21,1973.1,915.56,1973.1,1073Z"/><path class="cls-34" d="M2310.07,890.34c0,39.48-30.19,71.91-67.55,72.44s-68-31.26-68-71,30.49-72.17,68-72.44S2310.07,850.86,2310.07,890.34Z"/><path class="cls-35" d="M2310.07,1242.86c0,39.49-30.19,72.43-67.55,73.58s-68-30.11-68-69.84,30.49-72.69,68-73.59S2310.07,1203.38,2310.07,1242.86Z"/><path class="cls-36" d="M2074.09,998.81c38-.59,68.64,31.19,68.64,71s-30.68,72.75-68.64,73.6-69.08-30.91-69.08-71S2036,999.41,2074.09,998.81Z"/><path class="cls-37" d="M2408.29,993.57c36.77-.57,66.48,30.72,66.48,69.89s-29.71,71.59-66.48,72.42-66.91-30.45-66.91-69.88S2371.39,994.15,2408.29,993.57Z"/><path class="cls-38" d="M2324.52,893.54c0,39.49-30.18,71.92-67.54,72.44s-68-31.25-68-71,30.49-72.17,68-72.44S2324.52,854.06,2324.52,893.54Z"/><path class="cls-39" d="M2324.52,1246.07c0,39.48-30.18,72.42-67.54,73.58s-68-30.11-68-69.85,30.49-72.68,68-73.59S2324.52,1206.59,2324.52,1246.07Z"/><path class="cls-40" d="M2088.55,1002c38-.6,68.63,31.19,68.63,71s-30.67,72.75-68.63,73.61-69.09-30.92-69.09-71S2050.45,1002.62,2088.55,1002Z"/><path class="cls-41" d="M2422.74,996.78c36.77-.58,66.49,30.71,66.49,69.88s-29.72,71.6-66.49,72.42-66.91-30.45-66.91-69.87S2385.84,997.36,2422.74,996.78Z"/><path class="cls-42" d="M380.89,2215.93c5.79-73.16,104.3-84,124.31-176.34,27.43-126.52-139.32-190.71-124.31-326.68,14.68-133,187-188,161.89-268.85-12.48-40.14-57.34-34.1-118.52-89.62-86-78-105.57-188.18-109.86-219.71-26.69-196.2,130.56-343.41,159-370a508.73,508.73,0,0,1,147.76-96.13C469.47,679.1,333.77,786.46,298.43,942.79L70.12,1952.7C31.94,2121.6,127.94,2283,292.79,2329.38h0a336.15,336.15,0,0,0,156.71,5.75C391.84,2285.29,378.53,2245.86,380.89,2215.93Z"/><path class="cls-43" d="M1670.24,1053.78c-82-45.28-130.67,8.69-190.19-32.36-69.4-47.87-26.28-137.16-96-190.24-58.73-44.71-114.9-.84-199.77-34.17a210,210,0,0,1-51.74-29.57v327.62c0,58.83,41,105.38,91.45,104l566.11-15.8a74.6,74.6,0,0,0,33.51-9.13,234.54,234.54,0,0,1-40.11-18.8C1723.58,1119.87,1725.48,1084.27,1670.24,1053.78Z"/><path class="cls-44" d="M2151.77,1741.17c-55.69-27.2-164.33,71.32-217.2,165.69-21.06,37.6-45.8,81.76-39.73,134.24,10.76,93.06,114,174.68,256.07,201.93l12-42.85c-15.54-16.18-38.77-39.54-68.46-66.31-45.61-41.11-55-43.85-57.17-56.83-7.16-42.51,102.17-78.1,141-152.85C2211.77,1859.92,2194.56,1762.07,2151.77,1741.17Z"/><path class="cls-45" d="M2078.6,2489.08s9.14,22.56,4.6,31.39c-4.78,9.28-18.58,6.52-57.43,8-39.79,1.49-48.79,4.69-50.38.69-3.18-8,27.74-33.35,63.9-40.06A110,110,0,0,1,2078.6,2489.08Z"/><path class="cls-46" d="M2070.41,2455.36l-21.64,33.72s10,9.84,26.91,6.18l23.8-32Z"/><g class="cls-47"><path class="cls-44" d="M2178.33,1924.19c33.44-64.27,16.23-162.12-26.56-183-11.22-5.48-24.61-5.78-39.24-2.12,7.71,22.24,6.18,38.32,2.38,49.71-16.95,50.81-90.24,45-113.14,102.86-14.47,36.55,8.54,54.69-12,84-21.29,30.37-56.1,25.28-66.85,54.86-8,22,7.78,34.57,1.71,53.14-1.69,5.17-5,10.37-10.63,15.3,37.65,67.72,125.27,122.71,236.91,144.12l12-42.85c-15.54-16.18-38.77-39.54-68.46-66.31-45.61-41.11-55-43.85-57.17-56.83C2030.12,2034.53,2139.45,1998.94,2178.33,1924.19Z"/></g><path class="cls-44" d="M2113.77,1761.34c2.41,97.4,1.05,202.71-6,314.83a3600.37,3600.37,0,0,1-46.5,392.8l27.48,8.74C2183,2385.9,2211.18,2305.13,2218.9,2247c5.46-41.07-2.8-44.6,4.57-96,14-97.88,50.61-131.4,76.31-223,9.64-34.39,20.38-86.35,19.69-154.08Z"/><path class="cls-48" d="M2046.26,1586.87c1.71.4,9.14,2.87,12.08,33.9,7.08,74.83-31.88,105.13-22.29,145.71,9.21,39,56.18,57.85,104.52,77.3,32.3,13,132.22,53.21,190.32,8,24.46-19,27.13-42,44.58-126.44,44.33-214.54,61.5-233,42.85-279.42-32-79.76-117.73-112.78-132-118.28-152.07-58.6-331.65,49.1-402.61,172.82-9.35,16.29-65.15,113.59-25.94,159.74,23.72,27.92,78.22,32.42,114.2,13.39C2020,1648.15,2030.25,1583.2,2046.26,1586.87Z"/><path class="cls-49" d="M1880.06,1643.63a3.45,3.45,0,0,1-3.12-4.86c1.3-2.85,32.69-70.22,105.23-96.8a3.42,3.42,0,1,1,2.36,6.43c-69.77,25.58-101,92.55-101.35,93.22A3.43,3.43,0,0,1,1880.06,1643.63Z"/><path class="cls-50" d="M2164.85,1566.68c-.4-3.1-3.54-24.47-21.39-31.32-8.88-3.41-24.48-4.4-30.56,5.35-3.81,6.12-3.48,15.85,1.53,20.62,6.33,6,14.59-1.14,26,3.82,13.68,6,15.9,22.49,20.63,21.39C2164.74,1585.67,2165.91,1574.85,2164.85,1566.68Z"/><path class="cls-51" d="M2318.9,1418.49c-9.6,26.13,19.2,48.77,6.86,77.14-17.69,40.66-88,19.79-113.14,60-29.79,47.65,38.43,125.82,10.28,152.57-12.82,12.19-27.64-3.43-65.14,5.14-53.4,12.2-69.44,54.4-94.28,48-7.81-2-17.28-9.11-25.25-30.94-3.47,12.12-5.12,23.61-2.18,36.08,9.21,39,56.18,57.85,104.52,77.3,32.3,13,132.22,53.21,190.32,8,24.46-19,27.13-42,44.58-126.44,44.33-214.54,61.5-233,42.85-279.42-10.16-25.32-25.74-45.92-42.73-62.44C2339,1391.57,2323.92,1404.82,2318.9,1418.49Z"/><path class="cls-52" d="M2166,1546.54c4.1,3.73,50.11,53.14,100.15,40.63,43.59-10.9,70.35-53.27,75-88.93,11.14-84.8-99.33-156-85.72-173.14,8-10.09,50.67,8.64,80.57,27.43,24.52,15.41,127.27,80,124.51,188.22-.28,11-2.05,80.6-48.12,115.35-62.22,46.92-158.39,45.67-261.12-67.76Z"/><path class="cls-53" d="M1941.35,1442.64l49.53,158.23a12.82,12.82,0,0,0,11.78,9l64.77,9.42a12.81,12.81,0,0,0,13-15.53l-43.67-162a12.83,12.83,0,0,0-12.13-10.09L1954,1426A12.81,12.81,0,0,0,1941.35,1442.64Z"/><path class="cls-54" d="M1943.72,1447.85l48.08,153.56a12.44,12.44,0,0,0,11.43,8.72l56.92,9.14a12.44,12.44,0,0,0,12.59-15.07l-42.66-157.28a12.42,12.42,0,0,0-11.77-9.79L1956,1431.7A12.44,12.44,0,0,0,1943.72,1447.85Z"/><path class="cls-55" d="M2072.74,1604.2,2032,1453.94a54.22,54.22,0,0,0-11.49,7.32c-16.06,13.76-25.25,38.69-20,58.62,6.76,25.42,32.69,26.21,36.28,47.36,2.81,16.56-10.62,34.08-21.71,44.8l45,7.23A12.44,12.44,0,0,0,2072.74,1604.2Z"/><path class="cls-56" d="M2144.57,1304a22.46,22.46,0,0,1-16.28,28c-15,3.62-33.3,8.63-41.2,13.15-14.5,8.29,44.16-1.29,98.11-2.56,33.68-.79,58.85-4.57,73-7.3a3.74,3.74,0,0,0,.41-7.23c-13.48-4.39-35.4-10.85-53.92-13.17-22.93-2.89-47.53-53.49-47.53-53.49l-19.65,17.85Z"/><path class="cls-57" d="M1971.24,1555.38l3-4.94a21.17,21.17,0,0,1,23.08-15.68l15.9,2a8.54,8.54,0,0,1,7.31,10.25c-1.48,7.09-5.28,15.58-15,14.92-16.59-1.12-27.19,23.06-27.19,23.06l-6.37-9A18.72,18.72,0,0,1,1971.24,1555.38Z"/><path class="cls-58" d="M2100.77,1278.05c-16.95-2.51-35.94-16.76-35.57-28.53.5-16.18,37.5-25,56.17-29.52s26.69-2.86,32.05,1.22,9.08,11.64,10.25,18.08c.65,3.51.68,8.33.08,18-.53,8.53-.38,8.16-.6,10.68-.53,6.06-2.18,16.72-8.09,31.49a77.38,77.38,0,0,0-9.83-9.1,68.26,68.26,0,0,0-15-8.82C2118.05,1276.59,2111.06,1279.58,2100.77,1278.05Z"/><path class="cls-59" d="M2164.08,1283s-1.1,23.61-23.35,34c-19.92,9.29-46.36-32.31-39.09-48.19,2.43-5.3,9.94-11.06,17.64-12.85,4.55-1.05,6.78-.15,14.18-2,6.82-1.72,8.15-3.31,10.78-2.78,3.3.66,7.5,4.41,10.64,19.09,1.63-5.73,5.26-9.57,9.18-9.8a7.38,7.38,0,0,1,3.93,1.09C2173.38,1264.94,2172.33,1273.7,2164.08,1283Z"/><path class="cls-60" d="M2441.78,918.44c0-89.4-82.47-159.19-180.69-156-55.94,1.82-104.6,27-135,64.26v0c-.19.23-.37.47-.55.7-.53.66-1,1.32-1.55,2-.94,1.2-1.87,2.41-2.77,3.63-.53.73-1,1.45-1.57,2.19-.87,1.22-1.71,2.45-2.54,3.7-.48.71-1,1.42-1.42,2.14-.93,1.44-1.82,2.9-2.69,4.36-.32.53-.65,1-1,1.59-1.15,2-2.26,4-3.32,6-.28.54-.54,1.09-.81,1.64-.77,1.52-1.53,3.06-2.24,4.61-.36.76-.69,1.53-1,2.3-.6,1.37-1.19,2.75-1.75,4.15-.33.8-.65,1.61-1,2.43-.55,1.43-1.07,2.87-1.57,4.31-.26.76-.53,1.51-.79,2.28-.6,1.82-1.15,3.65-1.68,5.5-.11.39-.24.77-.34,1.15-.62,2.23-1.17,4.48-1.68,6.75-.15.66-.27,1.34-.41,2-.34,1.62-.66,3.25-.95,4.9-.14.83-.27,1.67-.39,2.51-.24,1.52-.45,3.05-.63,4.58-.11.86-.21,1.72-.29,2.58-.17,1.62-.3,3.24-.4,4.87-.05.76-.12,1.52-.16,2.28-.12,2.38-.19,4.77-.19,7.18,0,57.37,34.74,108,86.83,135.07q7.18,3.75,14.81,6.88,3.81,1.56,7.73,3a191.54,191.54,0,0,0,59.28,11.1h0c2.89.09,5.77.1,8.63.06,1,0,1.93-.07,2.89-.09,1.89-.06,3.79-.12,5.67-.23,1.15-.06,2.28-.17,3.43-.25,1.68-.13,3.36-.26,5-.43,1.22-.12,2.44-.28,3.65-.42,1.57-.19,3.15-.39,4.71-.62,1.25-.18,2.49-.38,3.73-.59,1.51-.25,3-.51,4.52-.8,1.26-.24,2.51-.49,3.75-.76,1.47-.31,2.93-.64,4.38-1,1.25-.29,2.5-.6,3.73-.92,1.44-.37,2.87-.76,4.29-1.16,1.22-.35,2.45-.7,3.66-1.07.45-.13.91-.25,1.35-.39l0,0C2392.43,1045.07,2441.78,987.37,2441.78,918.44Z"/><path class="cls-61" d="M2428.28,918.47c0,89.17-82,159.06-179.77,156.21-94.09-2.75-167.84-72.39-167.84-155.64s73.75-153.13,167.84-156.19C2346.24,759.67,2428.28,829.29,2428.28,918.47Z"/><path class="cls-62" d="M2237.26,826.84l-26.32,48.44-53.12,6.38c-7.66.92-11.29,10.47-6.14,16.2l35.87,39.9-12.23,54.92c-1.8,8.07,6,14.76,13.27,11.29l50-24,48.51,29.44a9.94,9.94,0,0,0,15-10l-7.43-57.26,42-38.27a10,10,0,0,0-5-17.2l-55.17-9.62-22.11-49.94C2251.19,820,2241.09,819.79,2237.26,826.84Z"/><g class="cls-63"><path class="cls-64" d="M2291,1035.87c-21.21-46.69.23-89.83-28.4-119.78s-65.66-2-104.76-26c-14.95-9.21-31.48-26.82-43.69-63.15-21.06,25.86-33.49,57.74-33.49,92.13,0,83.25,73.75,152.89,167.84,155.64a191.66,191.66,0,0,0,63.09-8.64A107.32,107.32,0,0,1,2291,1035.87Z"/></g><path class="cls-65" d="M2080.11,598.19a130.72,130.72,0,0,1-.31,14c-.21,2-.25,3.95-.55,5.89-.62,3.9-1.29,7.76-2.26,11.55-.47,1.89-.93,3.78-1.48,5.65-.38,1.23-.75,2.48-1.15,3.72-9.65,28.91-29.3,54-55.49,72.65-.57.4-1.11.8-1.67,1.18a182.13,182.13,0,0,1-29.15,16.52l-1.94.85q-6.84,3-14,5.53c-2,.71-4.11,1.4-6.2,2-1.39.45-2.79.87-4.21,1.28q-3.15.92-6.38,1.72c-1.42.36-2.87.71-4.31,1a212.19,212.19,0,0,1-57,5.14c-1.46-.07-2.93-.14-4.37-.24-.43,0-.85-.07-1.26-.09-.12,0-.23,0-.35,0-.92-.07-1.85-.12-2.75-.21-.47,0-.92-.07-1.37-.12l-3-.28-1.28-.17c-1-.09-2.06-.21-3.08-.35l-1.11-.14-3.29-.45-.82-.15c-1.21-.16-2.39-.35-3.6-.56-.17,0-.33-1.7-.47-1.72-1.35-.24-2.7-2.39-4-2.39h0c-11.26,0-22.1-3.53-32.39-7.34,0,0,0,.8,0,.78-3.22-1.18-6.39-2-9.51-3.4-2.77-1.2-5.49-2.25-8.16-3.55-1.3,1-2.82,2.23-4.5,3.39a179.89,179.89,0,0,1-55.83-37.21c1.8-2.44,3.52-5,5.11-7.64-22.17-25.27-35.18-56.32-35.18-89.42,0-79.37,74.83-146,171.21-148.9,3.15-.09,5.44-.11,8.54-.06,94.45,1.2,173.77,63.9,176.68,144.72v3.67C2079.16,596.13,2080.11,597.15,2080.11,598.19Z"/><path class="cls-66" d="M2068.16,597.65c0,84.76-82,150.2-180.2,149-2.27,0-4.57-.09-6.86-.19-2.08-.09-4.17-.21-6.22-.37s-4.22-.34-6.3-.55c-.42,0-.85-.07-1.28-.14-1.34-.14-2.67-.28-4-.47s-2.62-.33-4-.55c-1.89-.26-3.78-.57-5.65-.9l-3.36-.61a204.43,204.43,0,0,1-32.37-9c-3.17-1.18-6.27-2.41-9.32-3.74a180,180,0,0,1-55.83-37.26c-26.85-26.59-42.92-60.85-42.92-97.64,0-79.37,74.83-146,171.22-148.9a210,210,0,0,1,22.21.47c78.37,5.66,143.7,53.71,160.58,118v0c.43,1.62.83,3.24,1.19,4.88.12.53.22,1.06.33,1.59.28,1.3.55,2.61.78,3.92.34,1.93.65,3.87.91,5.82,0,0,0,0,0,.1.09.73.19,1.49.26,2.22.12.93.21,1.85.28,2.77s.19,2.06.24,3.08c0,.3,0,.64.07.94.07,1.19.12,2.37.14,3.55C2068.14,595,2068.16,596.32,2068.16,597.65Z"/><path class="cls-66" d="M2068.16,597.65c0,84.76-82,150.2-180.2,149-2.27,0-4.57-.09-6.86-.19-2.08-.09-4.17-.21-6.22-.37s-4.22-.34-6.3-.55c-.42,0-.85-.07-1.28-.14-1.34-.14-2.67-.28-4-.47s-2.62-.33-4-.55c-1.89-.26-3.78-.57-5.65-.9l-3.36-.61a204.43,204.43,0,0,1-32.37-9c-3.17-1.18-6.27-2.41-9.32-3.74a180,180,0,0,1-55.83-37.26c-26.85-26.59-42.92-60.85-42.92-97.64,0-79.37,74.83-146,171.22-148.9a210,210,0,0,1,22.21.47c78.37,5.66,143.7,53.71,160.58,118v0c.43,1.62.83,3.24,1.19,4.88.12.53.22,1.06.33,1.59.28,1.3.55,2.61.78,3.92.34,1.93.65,3.87.91,5.82,0,0,0,0,0,.1.09.73.19,1.49.26,2.22.12.93.21,1.85.28,2.77s.19,2.06.24,3.08c0,.3,0,.64.07.94.07,1.19.12,2.37.14,3.55C2068.14,595,2068.16,596.32,2068.16,597.65Z"/><path class="cls-62" d="M1782.92,556.22h0c7.24-20.66,25.34-35.5,46.73-35.75,28.25-.34,51.44,24.81,51.44,56.17,0-31.36,23.46-57.07,52.78-57.43,22.77-.27,42.43,14.8,50.41,36.38h0c30.56,77.91-103.19,146.27-103.19,146.27S1755.65,629.46,1782.92,556.22Z"/><g class="cls-67"><path class="cls-68" d="M1838.14,706.71c21.23-43.35-.23-84.85,28.52-113,29.63-29,68.79-1.65,111.79-25.66,16.87-9.42,35.79-27.57,50-65.07,24.85,25.95,39.75,58.83,39.75,94.66,0,86.73-85.86,153.25-187.07,148.79a208.67,208.67,0,0,1-63.18-12.59A92.32,92.32,0,0,0,1838.14,706.71Z"/></g><path class="cls-69" d="M2332.08,281.26c77.94,2.39,143.4,50,156.15,110.21a2,2,0,0,1,.05.24q1,4.95,1.59,10c0,.22.05.44.08.67.16,1.57.28,3.15.37,4.74,0,.29,0,.57,0,.86.08,1.62.13,3.25.13,4.89,0,70-71.44,123-158.41,118.54-2.31-.12-4.61-.29-6.9-.48l-.67-.06c-2.16-.19-4.32-.43-6.46-.69l-1-.13c-2.08-.26-4.13-.56-6.18-.89l-1.15-.19c-2-.33-4-.7-6-1.09l-1.2-.25q-3-.6-5.87-1.29l-1.12-.28q-2.9-.7-5.75-1.49l-1-.29q-2.57-.74-5.09-1.53l-1.28-.4c-1.71-.55-3.4-1.13-5.08-1.72l-1.1-.37v0c-57.81-20.85-98.45-67.78-98.45-120.27C2177.79,331.8,2246.37,278.63,2332.08,281.26Z"/><path class="cls-70" d="M2161.29,400c0,68.18,68.58,127,154.29,131.44,87,4.5,158.41-48.54,158.41-118.54s-71.44-128.94-158.41-131.61C2229.87,278.63,2161.29,331.8,2161.29,400Z"/><path class="cls-62" d="M2259.93,378.53c0,20,23.31,67.63,39.77,98.77,6.86,13,24.92,13.84,31.81,1.5,16.59-29.74,40.25-75.69,40.25-95.9,0-31.19-25.22-57.33-56.18-58.39C2284.78,323.45,2259.93,347.64,2259.93,378.53Zm25.71,1a28.72,28.72,0,0,1,29.94-29,31.56,31.56,0,0,1,30.1,31.35,28.72,28.72,0,0,1-30.1,29A31.56,31.56,0,0,1,2285.64,379.53Z"/><g class="cls-67"><path class="cls-71" d="M2277.75,497.7c18.77-36-.21-71.25,25.18-94,25.91-23.22,59.74.74,96.36-17.65,14.22-7.14,30.08-21.27,41.88-51.22,20.57,22,32.82,49.12,32.82,78,0,70-71.44,123-158.41,118.54a194.71,194.71,0,0,1-55.85-11.15A76.87,76.87,0,0,0,2277.75,497.7Z"/></g><path class="cls-72" d="M617.1,1657.75S476.36,1414,286,1828.49c-148.22,322.72-52.42,681.75,290.47,780.27s878.44-100.45,710.34-240.67C930.25,2070.65,659.61,1807,617.1,1657.75Z"/><g class="cls-67"><path class="cls-73" d="M440.5,1876.75c-10,29.52-12.29,113.61-8.06,210.32,3.77,86.27-4.07,131.37,133.18,194.12,47,21.5,79.58,89.75,151.61,130.35,32.66,18.41,155.68,85,314.56,58.09,105.12-17.8,183.39-69.36,236.1-117.41-347.17-290.92-609-547.87-650.78-694.47,0,0-51.43-89-134.13-67.92C503,1612.2,509.85,1672.43,440.5,1876.75Z"/></g><g class="cls-67"><path class="cls-74" d="M1125.3,2510.72c-162.16,89.55-433,144.2-634.77-5.66C303.7,2366.29,287.06,2133.9,280.83,2063c-10.89-123.94,13.33-231.87,48.24-318.93-14,24.53-28.39,52.51-43.05,84.44-148.22,322.72-52.42,681.75,290.47,780.27,337.51,97,861.69-94.28,717.73-234C1253.31,2420.88,1198.11,2470.52,1125.3,2510.72Z"/></g><path class="cls-75" d="M869.83,2537.32q-7.2,0-14.51-.17c-125.24-2.79-301.07-44.39-427.5-226.68-106.78-154-92.49-327.72-61.69-446.38,33.32-128.41,92.64-221.73,93.24-222.66a2.23,2.23,0,0,1,3.75,2.41c-.59.92-59.58,93.74-92.71,221.5-30.53,117.71-44.71,290,61.08,442.59,125.36,180.75,299.73,222,423.93,224.77,134.78,3,241-37.27,242.09-37.67a2.23,2.23,0,0,1,1.6,4.16C1098.08,2499.58,998.45,2537.31,869.83,2537.32Z"/><path class="cls-76" d="M1542.38,2514.27c-8.94-9.63-25-51,4.26-59.55,29.37-8.56,45.69-19.39,86.13-51.81s50.83-4.58-6.29,48.07S1555.09,2528,1542.38,2514.27Z"/><path class="cls-77" d="M1504.11,2453.79l24.06,21a15.08,15.08,0,0,0,18,1.39,9.79,9.79,0,0,0,1.14-15.72l-35.17-30.09Z"/><path class="cls-78" d="M783.55,2251.52c-42.51,37.23,46.22,159.35,188,119.77,171.77-48,390.23-26.41,537.49,93.49,8.54-7.6,29.7-19.53,20-29.31C1396,2301,1272.78,2223.72,1170.72,2203,1016.43,2171.68,904.58,2145.49,783.55,2251.52Z"/><g class="cls-79"><path class="cls-80" d="M1281.87,2302.66c24.92,14.5,30.23-14.95,43.09-34.33-55.18-33.88-107-55.74-154.24-65.33-154.29-31.32-266.14-57.51-387.17,48.52-42.51,37.23,46.22,159.35,188,119.77,51.27-14.31,106.72-22.28,163.17-23.44C1180.08,2319.29,1217.23,2253.78,1281.87,2302.66Z"/></g><path class="cls-81" d="M758.46,2378.73l-8.73,3.33s-56.44-53.29-66.5-66.87c-12.27-16.57,125.94-58.81,170.82-114.09,47.15-58.07,9.9,69,9.9,69Z"/><path class="cls-82" d="M707.27,1855.91s50.11,6.87,105.05,104.3c41.31,73.24,131,133.93,131,133.93l9.21,57.64-74.43,13.07-26.63-17.53-72.63-154.54Z"/><path class="cls-83" d="M610.12,1849.7S486.61,1864.93,484,2007.05c-2.45,131.15,44.87,182,161,291.33,11.67,11,30.61,11,32,12.58q11.31,12.75,22.91,26.64C803.78,2237.88,921,2204.11,921,2204.11s-108.36-224.19-156-298.5C715.88,1829,641.83,1842.08,610.12,1849.7Z"/><g class="cls-67"><path class="cls-84" d="M815.18,2180.77c-52.13,27.9-126,24.74-153.2-9.78-20.46-26-23.78-35.69-48.69-76.51-20-32.85-29.8-38.11-73.59-65.76A220.64,220.64,0,0,1,486,1980.53a220.41,220.41,0,0,0-2.07,26.52c-2.45,131.15,44.87,182,161,291.33,11.67,11,30.61,11,32,12.58q11.31,12.75,22.91,26.64C803.78,2237.88,921,2204.11,921,2204.11s-18-35.27-41.8-84.84C861.87,2148.21,848.63,2162.88,815.18,2180.77Z"/></g><path class="cls-62" d="M730,2184.94s23.41,1.08,40-5.61,15.26-8.24,34.39-10.67c18.6-2.36,55.24-13.4,34.5-32.26-23.09-21-62.66-15.11-74-1.17-11,13.43-30,22-30,22Z"/><path class="cls-85" d="M521.25,1920.54s-68.6,8-28.57,228.88c20.76,114.57,123.38,98.44,247.29,51.1,8.39-17.55-2.41-54.74-2.41-54.74s-153.95,63.48-157.93-29.13C575.16,2012.82,561.27,1909.57,521.25,1920.54Z"/><path class="cls-86" d="M638.86,1896.69c-29.36,0-59.19-21.74-60.62-22.79a1.12,1.12,0,0,1-.23-1.56,1.11,1.11,0,0,1,1.56-.23c.39.29,39.6,28.87,71.33,20.94,8.8-2.2,14.81-6.5,17.89-12.79,5.86-12-.78-27.31-.85-27.46a1.12,1.12,0,0,1,2-.91c.3.67,7.12,16.46.81,29.35-3.38,6.91-9.89,11.61-19.35,14A51.83,51.83,0,0,1,638.86,1896.69Z"/><path class="cls-87" d="M682.51,2306.42a1.12,1.12,0,0,1-.75-2c1.11-1,111.68-100,211.49-124.37a1.1,1.1,0,0,1,1.35.81,1.11,1.11,0,0,1-.81,1.35c-99.28,24.27-209.43,122.88-210.53,123.87A1.16,1.16,0,0,1,682.51,2306.42Z"/><path class="cls-62" d="M620.67,1795.53s-9.43,48.26-16.6,55.5,3.19,24.22,29.57,38.69,20.11-44.34,20.11-44.34Z"/><path class="cls-88" d="M691.36,1778.61l2.88.31c11.82,1.26,20,15.22,18.32,31.18l-.1.89c-1.7,16-12.67,27.88-24.49,26.61l-2.88-.31c-6-.63-9.39-14.29-7.66-30.49S685.4,1778,691.36,1778.61Z"/><path class="cls-89" d="M670.69,1806.08c-1.89,17.74,3.48,32.85,12.29,33.79s17.72-12.64,19.62-30.38-4-32.91-12.76-33.85S672.59,1788.34,670.69,1806.08Z"/><rect class="cls-90" x="683.5" y="1775.33" width="3.38" height="64.6" transform="translate(196.06 -62.6) rotate(6.1)"/><ellipse class="cls-91" cx="683.51" cy="1807.45" rx="32.3" ry="16.04" transform="translate(-1186.34 2295.03) rotate(-83.9)"/><path class="cls-92" d="M674.83,1806.52c-1,9.64,2,17.88,6.81,18.39s9.51-6.89,10.54-16.54-2-17.87-6.81-18.39S675.86,1796.88,674.83,1806.52Z"/><path class="cls-93" d="M685,1803.62c11.12-7.22,17.52-24.48,12.34-38.68-4.45-12.21-16-17.83-23-21.2-20.08-9.74-49.2-10.56-64.61,4.86-9.12,9.13-5.21,36.24-4.77,41,.49,5.41,3.7,8.35,6,13.12,3.15,6.62,8.06,17.11,16,34.54a84.88,84.88,0,0,1,9.38-12,75.56,75.56,0,0,1,15.36-12.61C666.85,1803.61,674.43,1810.45,685,1803.62Z"/><path class="cls-62" d="M613,1820s6.26,26.74,34.07,34.85c25,7.28,46.68-44.81,34.87-61.75-3.94-5.64-13.86-10.94-23.13-11.65-5.47-.42-7.85,1-16.77.14-8.22-.79-10.08-2.37-13-1.31-3.65,1.32-7.68,6.32-8.18,23.59-3.09-6.25-8.06-10-12.62-9.6a8.57,8.57,0,0,0-4.28,1.92C598.54,1801.06,601.6,1810.86,613,1820Z"/><path class="cls-94" d="M629,1776.72c.88,1.27-4.15,4.26-6.46,10.22-4.49,11.54,2.92,30,14.95,35.67,7.13,3.35,10.61-.24,23.23,2.88a61.72,61.72,0,0,1,17.47,7.4c-.54,14.28-8.52,25.84-19.41,28.6-11.7,3-22.54-5.32-27.07-8.78-3-2.32-12.73-9.71-15.12-21.47-2.49-12.25,5.38-16.27.91-25.56-2.26-4.68-6.24-7.79-8.36-16a35.61,35.61,0,0,1-.94-5.39C616.7,1780,627.76,1774.87,629,1776.72Z"/><path class="cls-62" d="M667.72,1834.47s-6.2.79-15.15-3c-.43-.19-1-.24-1.1,0-.49.76,4.08,6.64,10,7.11,4.19.33,8.36-2.12,8.15-3.21C669.5,1834.9,668.62,1834.63,667.72,1834.47Z"/><path class="cls-95" d="M617.67,1780.65l-3.65-.42,1.29-11.28c2.22-19.46,17.44-33.94,34.63-33l18.41,1c9.63.53,18.3,5.38,24.42,13.65a42.13,42.13,0,0,1,7.68,29.71l-1,9-3.65-.39,1-9a37.73,37.73,0,0,0-6.88-26.59c-5.47-7.4-13.24-11.74-21.85-12.22l-18.41-1c-15.24-.85-28.73,12-30.7,29.24Z"/><path class="cls-96" d="M692.05,1760.22a5.22,5.22,0,0,1-3.83-2.46c-4.78-7.45-12.23-12-20.43-12.44l-18.41-1a23.72,23.72,0,0,0-17.72,6.83,5.06,5.06,0,0,1-7.77-.67,6.89,6.89,0,0,1,.8-8.82c7.21-6.86,16.27-10.36,25.53-9.84l18.41,1c11.48.64,21.89,7,28.58,17.4a6.88,6.88,0,0,1-1.29,8.76A5.15,5.15,0,0,1,692.05,1760.22Z"/><path class="cls-97" d="M685.68,1746.72c-13-5.89-12.62-10-19.63-11.06-13.1-2-19.92,11.52-32.54,8.29a19.49,19.49,0,0,1-7.26-3.71c-.53.45-1,.91-1.56,1.4a6.89,6.89,0,0,0-.8,8.82,5.06,5.06,0,0,0,7.77.67,23.72,23.72,0,0,1,17.72-6.83l18.41,1c8.2.46,15.65,5,20.43,12.44a5.22,5.22,0,0,0,3.83,2.46,5.15,5.15,0,0,0,3.87-1.24,6.9,6.9,0,0,0,1.72-8A78.44,78.44,0,0,1,685.68,1746.72Z"/><path class="cls-98" d="M630.7,1801.27C628.78,1819.2,620,1833,611.1,1832s-14.58-16.27-12.66-34.2,10.69-31.7,19.6-30.75S632.62,1783.34,630.7,1801.27Z"/><ellipse class="cls-99" cx="611.4" cy="1799.21" rx="32.66" ry="16.22" transform="translate(-1242.59 2215.97) rotate(-83.9)"/><path class="cls-100" d="M610.87,1769.15l-2.9-.32c-12-1.27-23.05,10.77-24.77,26.9l-.1.91c-1.72,16.13,6.57,30.25,18.53,31.53l2.9.31c6,.64,12.34-12.12,14.09-28.5S616.9,1769.79,610.87,1769.15Z"/><path class="cls-101" d="M604.53,1798c-1.27,11.83-7.06,20.9-12.95,20.28s-9.64-10.73-8.38-22.56,7.06-20.9,12.95-20.27S605.79,1786.19,604.53,1798Z"/><path class="cls-102" d="M746.47,2214.63a3,3,0,0,0-2.44,2c0,.16.39,5.76.38,5.92a2.81,2.81,0,0,0,1.93,2.91l105,34.12,196.27-76.87-93.25,7.13Z"/><path class="cls-103" d="M746.43,2213.87a2.81,2.81,0,0,0-.47,5.46l105,34.11,196.27-76.87L954,2183.71Z"/><path class="cls-104" d="M846.34,2251.91,862,2047.17a7.1,7.1,0,0,1,6-6.47l235-36.79a7.11,7.11,0,0,1,8.19,7.34l-8.83,190.83a7.09,7.09,0,0,1-5.79,6.65l-244.18,45.2Z"/><path class="cls-102" d="M851.36,2259.63l16.14-209.26a7.09,7.09,0,0,1,6-6.46l235-36.79a7.1,7.1,0,0,1,8.19,7.34l-8.83,190.86a7.09,7.09,0,0,1-5.76,6.64Z"/><path class="cls-105" d="M851.37,2259.63,1102.12,2212a7.09,7.09,0,0,0,5.76-6.64l2.66-57.56c-74.69,42.42-168.31,47.81-255.55,64.83Z"/><path class="cls-106" d="M1276.08,2216.74c-3.43-11.91-11-25.06,16-34.66,19.63-7,53.73-9.2,84.73-10.79,43.43-2.23,53.42,23.76-10.06,40.29C1325.22,2222.4,1281,2233.66,1276.08,2216.74Z"/><path class="cls-107" d="M1309.92,2198.51c.41,6.66-3.83,11.89-9.37,12.68-12.85,1.84-10.44-4.78-10.85-11.44s-5.6-11.28,9.37-12.68C1304.64,2186.55,1309.51,2191.85,1309.92,2198.51Z"/><path class="cls-108" d="M1178,2160.2l12.69-2s24.71,2.31,92.82,21.09c14.58,2.41,34.45,45-8.27,46.64s-94.71,33.48-94.71,33.48Z"/><path class="cls-109" d="M734.49,2358.19s6.22,55.22,134.62,50.19,357.77-138.31,356.33-208.25-86.8-42-175.18-1.58c-74.59,34.12-189.82,53.89-213.43,57.55C806.6,2260.79,727.18,2331.67,734.49,2358.19Z"/><g class="cls-63"><path class="cls-110" d="M902.49,2289c59.43-6.06,72.78-48.71,146.73-61,47.93-8,64.85,6.17,89.28-10.2,19.29-12.91,29.13-35.44,33.87-59.89-32.77,2.77-77,20.06-122.11,40.69-72.45,33.14-183.23,52.74-211.17,57.2-.83.13-19.56-6.57-19.56-6.57s-13.94,8-23.94,14.26C834.55,2284.32,880.78,2291.2,902.49,2289Z"/></g><polygon class="cls-111" points="1798.72 1376.2 2081.7 1408.57 2081.7 1320.68 1798.72 1314.03 1798.72 1376.2"/><polygon class="cls-112" points="2067.21 1391.08 2067.21 1336.18 1806.16 1325.7 1806.16 1365.56 2067.21 1391.08"/><polygon class="cls-113" points="1761.6 1371.93 1840.36 1380.93 1810.7 1286.51 1761.6 1287.32 1761.6 1371.93"/><polygon class="cls-112" points="1827.49 1367.61 1805.92 1298.08 1768.25 1298.08 1768.25 1361.82 1827.49 1367.61"/><polygon class="cls-62" points="2032.38 1379.66 2056.86 1381.84 2056.86 1343.98 2032.38 1342.79 2032.38 1379.66"/><polygon class="cls-62" points="2001.17 1376.88 2023.99 1378.91 2023.99 1342.38 2001.17 1341.26 2001.17 1376.88"/><polygon class="cls-62" points="1972.01 1374.29 1993.34 1376.18 1993.34 1340.88 1972.01 1339.84 1972.01 1374.29"/><polygon class="cls-62" points="1944.71 1371.86 1964.68 1373.63 1964.68 1339.48 1944.71 1338.51 1944.71 1371.86"/><polygon class="cls-114" points="1919.09 1369.58 1937.84 1371.24 1937.84 1338.17 1919.1 1337.26 1919.09 1369.58"/><polygon class="cls-115" points="1895.01 1367.43 1912.64 1369 1912.64 1336.94 1895.01 1336.08 1895.01 1367.43"/><polygon class="cls-116" points="1872.33 1365.41 1888.94 1366.89 1888.94 1335.78 1872.33 1334.97 1872.33 1365.41"/><polygon class="cls-117" points="1850.93 1363.51 1866.6 1364.9 1866.6 1334.69 1850.93 1333.93 1850.93 1363.51"/><polygon class="cls-118" points="1146.09 1934.9 850.6 1969.13 850.6 1897.81 1146.09 1875.77 1146.09 1934.9"/><polygon class="cls-112" points="863.6 1954.67 863.6 1909.79 1137.02 1887.33 1137.02 1925.06 863.6 1954.67"/><polygon class="cls-119" points="1192.56 1929.48 1096.39 1940.62 1131.53 1850.6 1192.56 1847.15 1192.56 1929.48"/><polygon class="cls-112" points="1111.48 1927.8 1137.32 1861.15 1184.08 1858.16 1184.08 1919.93 1111.48 1927.8"/><polygon class="cls-62" points="895.69 1944.53 873.02 1946.89 873.02 1915.77 895.69 1913.82 895.69 1944.53"/><polygon class="cls-62" points="925.47 1941.42 903.6 1943.7 903.6 1913.14 925.47 1911.26 925.47 1941.42"/><polygon class="cls-62" points="954.22 1938.42 933.1 1940.62 933.1 1910.6 954.22 1908.78 954.22 1938.42"/><polygon class="cls-120" points="981.98 1935.53 961.59 1937.65 961.59 1908.15 981.98 1906.39 981.98 1935.53"/><polygon class="cls-121" points="1008.81 1932.72 989.1 1934.78 989.1 1905.78 1008.81 1904.08 1008.81 1932.72"/><polygon class="cls-122" points="1034.75 1930.02 1015.69 1932.01 1015.69 1903.49 1034.75 1901.85 1034.75 1930.02"/><polygon class="cls-123" points="1059.85 1927.4 1041.41 1929.32 1041.41 1901.27 1059.85 1899.69 1059.85 1927.4"/><polygon class="cls-124" points="1084.15 1924.86 1066.3 1926.73 1066.3 1899.13 1084.15 1897.59 1084.15 1924.86"/><path class="cls-125" d="M1000.48,910.3S961.64,887,938.64,850c33.46-39.39,52.73-87.45,51.94-138.34C988.67,589.59,872,489,723.8,486.81,572.17,484.6,444.57,585.25,440,713.68v.13c-.05,1.6-.09,3.2-.11,4.8,0,.23,0,.47,0,.7,0,1.57,0,3.15,0,4.73a199.06,199.06,0,0,0,1.5,21.56q.57,4.56,1.34,9,1.55,9,3.89,17.7,1.17,4.35,2.53,8.63c.6,1.91,1.24,3.8,1.9,5.68,15.52,44.21,46.35,82.27,87.07,110.39.86.6,1.73,1.19,2.61,1.78a280.9,280.9,0,0,0,45.18,24.66l3,1.29q10.62,4.46,21.72,8.14,4.75,1.58,9.6,3c2.15.64,4.32,1.25,6.49,1.84q4.89,1.34,9.87,2.51,3.3.78,6.65,1.5A326.65,326.65,0,0,0,731,948.29c2.25-.13,4.48-.29,6.71-.47l1.94-.17c1.59-.14,3.18-.28,4.76-.44l2.1-.23c1.53-.16,3.07-.33,4.59-.51l2-.25q2.38-.3,4.74-.63l1.68-.25c1.69-.25,3.37-.51,5-.78l1.28-.22c1.85-.31,3.68-.63,5.51-1l.75-.14c2.06-.38,4.11-.79,6.15-1.21h0a313.91,313.91,0,0,0,49.57-14.6l-.06,0q13.93-5.43,27-12.07C876.15,931.58,930.76,961.22,1000.48,910.3Z"/><path class="cls-126" d="M1010.31,710.47c1.91,122-111.49,227.82-259.56,236.67-155.5,9.29-289.08-90.91-291.17-224.25s128.28-239.5,284-237.23C891.78,487.83,1008.41,588.44,1010.31,710.47Z"/><path class="cls-127" d="M1010.31,710.47c1.91,122-111.49,227.82-259.56,236.67-155.5,9.29-289.08-90.91-291.17-224.25s128.28-239.5,284-237.23C891.78,487.83,1008.41,588.44,1010.31,710.47Z"/><path class="cls-128" d="M864.69,905.63s65,69.61,155.53,3.52c0,0-73.93-44.32-78.2-107.93Z"/><g class="cls-67"><path class="cls-129" d="M815.81,885.05c-33.66-66.13-1.68-130.45-46.55-173-46.25-43.91-105.8-.88-172.48-36.76-26.16-14.08-55.68-41.53-78.37-98.83-37.57,40.48-59.69,91.39-58.83,146.47,2.09,133.34,135.67,233.54,291.17,224.25a320.34,320.34,0,0,0,96.81-20.88A142.27,142.27,0,0,1,815.81,885.05Z"/></g><path class="cls-62" d="M611,774.9a6.81,6.81,0,0,1-6.32-4.27A148.14,148.14,0,0,1,593.88,715c0-82.06,66.77-148.82,148.83-148.82A149.53,149.53,0,0,1,862.5,626.62a6.81,6.81,0,0,1-11,8.09,135.84,135.84,0,0,0-108.83-55C668.15,579.74,607.5,640.4,607.5,715a134.53,134.53,0,0,0,9.78,50.59A6.82,6.82,0,0,1,611,774.9Z"/><path class="cls-62" d="M835.6,638.67a6.7,6.7,0,1,1-.15-13.4l17-.33,2.91-17.29a6.81,6.81,0,0,1,13.43,2.28L865,632.79a6.69,6.69,0,0,1-6.57,5.54l-22.65.34Z"/><path class="cls-62" d="M742.71,863.77a148,148,0,0,1-117.14-57,6.81,6.81,0,0,1,10.71-8.41,134.52,134.52,0,0,0,106.43,51.81c74.55,0,135.2-60.66,135.2-135.21a134.82,134.82,0,0,0-7.53-44.61,6.81,6.81,0,1,1,12.86-4.49,148.56,148.56,0,0,1,8.29,49.1C891.53,797,824.77,863.77,742.71,863.77Z"/><path class="cls-62" d="M623,827a6.35,6.35,0,0,1-1.36-.14,6.8,6.8,0,0,1-5.32-8l4.48-22.28a6.88,6.88,0,0,1,6.68-5.53h.07l23.18.32a6.84,6.84,0,0,1-.15,13.67L633,804.81l-3.38,16.69A6.81,6.81,0,0,1,623,827Z"/><path class="cls-62" d="M728.85,786.88a12,12,0,0,1-6.26-1.77l-45.51-27.9a12,12,0,1,1,12.53-20.43l36.79,22.56,82.72-96.62a12,12,0,0,1,18.21,15.59L738,782.69A12,12,0,0,1,728.85,786.88Z"/></g></g></g></svg>