<svg xmlns="http://www.w3.org/2000/svg" xmlns:xlink="http://www.w3.org/1999/xlink" viewBox="0 0 804.48 552.22"><defs><style>.cls-1{fill:none;}.cls-2{isolation:isolate;}.cls-3{clip-path:url(#clip-path);}.cls-4{fill:#3c009b;}.cls-5{fill:#4400fa;}.cls-12,.cls-6{fill:#c70091;}.cls-10,.cls-7{fill:#8dfbf4;}.cls-11,.cls-8{fill:#ad0089;}.cls-10,.cls-11,.cls-12,.cls-9{mix-blend-mode:lighten;}</style><clipPath id="clip-path" transform="translate(69 115.22)"><rect class="cls-1" width="640" height="360"/></clipPath></defs><g class="cls-2"><g id="Layer_2" data-name="Layer 2"><g id="Layer_3" data-name="Layer 3"><g class="cls-3"><path class="cls-4" d="M-33,299s59-56,152-40,135,68,206,68c43.64,0,86.31-17.52,121.52-42.46,21.64-15.33,39.76-33.85,55.84-54.86C545,173.93,628.86,67.31,709.1,125.34l.9.66c81,60-57,311-57,311H193L17,414l-86-54Z" transform="translate(69 115.22)"/><path class="cls-5" d="M-15,68s67,49,151,19S228-39,356-32s75-83-24-83S-75-129-15,68Z" transform="translate(69 115.22)"/></g></g><g id="OBJECTS"><circle class="cls-6" cx="341.47" cy="130.97" r="5.25"/><path class="cls-7" d="M249.56,29.7a1.3,1.3,0,1,1,1.3,1.3A1.31,1.31,0,0,1,249.56,29.7Z" transform="translate(69 115.22)"/><circle class="cls-7" cx="255.96" cy="58.59" r="9" transform="translate(226.24 417.11) rotate(-80.81)"/><path class="cls-8" d="M535.79,129.33a9,9,0,1,1,9,9A9,9,0,0,1,535.79,129.33Z" transform="translate(69 115.22)"/><polygon class="cls-8" points="155.44 327.49 126.25 343.83 125.49 332.47 155.44 327.49"/><polygon class="cls-7" points="154.04 326.79 124.85 343.14 124.09 331.78 154.04 326.79"/><polygon class="cls-8" points="589.63 301.31 627.75 307.94 624.23 295.25 589.63 301.31"/><polygon class="cls-7" points="590.89 300.02 629.01 306.65 625.49 293.96 590.89 300.02"/><polygon class="cls-8" points="565.75 382.75 602.37 399.98 591.73 408.72 565.75 382.75"/><polygon class="cls-7" points="566.05 384.61 602.67 401.84 592.03 410.58 566.05 384.61"/><polygon class="cls-8" points="453.79 168.1 468.5 130.39 477.94 140.41 453.79 168.1"/><polygon class="cls-7" points="455.63 167.67 470.33 129.96 479.78 139.99 455.63 167.67"/><g class="cls-9"><path class="cls-8" d="M92.88,306.11a5.4,5.4,0,1,1,5.39,5.4A5.39,5.39,0,0,1,92.88,306.11Z" transform="translate(69 115.22)"/><path class="cls-7" d="M91.47,306.11a5.4,5.4,0,1,1,5.4,5.4A5.4,5.4,0,0,1,91.47,306.11Z" transform="translate(69 115.22)"/></g><circle class="cls-6" cx="119.42" cy="384.55" r="2.5"/><circle class="cls-7" cx="148.42" cy="368.05" r="6"/><path class="cls-7" d="M147.49,342.57a2.17,2.17,0,1,1,2.17,2.17A2.17,2.17,0,0,1,147.49,342.57Z" transform="translate(69 115.22)"/><circle class="cls-10" cx="345.56" cy="308.43" r="1.91" transform="translate(1.7 633.62) rotate(-68.71)"/><circle class="cls-7" cx="210.12" cy="166.36" r="4.75"/><path class="cls-10" d="M87.48,127.5a1.83,1.83,0,1,1,1.83,1.83A1.83,1.83,0,0,1,87.48,127.5Z" transform="translate(69 115.22)"/><circle class="cls-7" cx="485.41" cy="77.89" r="7.25" transform="translate(367.41 647.78) rotate(-76.76)"/><path class="cls-7" d="M456.33,73.5A1.53,1.53,0,1,1,457.86,75,1.52,1.52,0,0,1,456.33,73.5Z" transform="translate(69 115.22)"/><circle class="cls-11" cx="358.99" cy="327.23" r="1.91" transform="translate(-10.19 652.09) rotate(-67.92)"/><path class="cls-8" d="M100,97.23a2.63,2.63,0,1,1,2.63,2.63A2.63,2.63,0,0,1,100,97.23Z" transform="translate(69 115.22)"/><g class="cls-9"><circle class="cls-8" cx="668.34" cy="404.85" r="6.21"/><path class="cls-7" d="M589.58,289.64a6.21,6.21,0,1,1,6.2,6.2A6.2,6.2,0,0,1,589.58,289.64Z" transform="translate(69 115.22)"/></g><path class="cls-8" d="M314.23,38.27a5.39,5.39,0,1,1,5.39,5.38A5.39,5.39,0,0,1,314.23,38.27Z" transform="translate(69 115.22)"/><path class="cls-7" d="M439.62,350.06a.77.77,0,1,1,.76.76A.76.76,0,0,1,439.62,350.06Z" transform="translate(69 115.22)"/><circle class="cls-6" cx="619.57" cy="349.98" r="1.62"/><circle class="cls-6" cx="207.31" cy="314.5" r="1.62"/><circle class="cls-7" cx="140.22" cy="296.19" r="1.75"/><circle class="cls-7" cx="243.51" cy="375.8" r="1.75"/><path class="cls-7" d="M100.79,7.61a2,2,0,1,1,2,2A2,2,0,0,1,100.79,7.61Z" transform="translate(69 115.22)"/><g class="cls-9"><polygon class="cls-8" points="484.24 410.2 484.5 431.98 465.27 419.37 484.24 410.2"/><polygon class="cls-7" points="481.92 409.76 482.18 431.55 462.95 418.94 481.92 409.76"/></g><g class="cls-9"><polygon class="cls-7" points="209.48 418.17 214.02 396.86 230 413.39 209.48 418.17"/><polygon class="cls-8" points="207.31 417.24 211.85 395.93 227.83 412.45 207.31 417.24"/></g><g class="cls-9"><polygon class="cls-8" points="393.75 431.9 386.67 438.81 384.79 428.54 393.75 431.9"/><polygon class="cls-7" points="393.16 431 386.08 437.91 384.2 427.64 393.16 431"/></g><polygon class="cls-11" points="145.1 238.29 135.21 237.9 141.38 229.47 145.1 238.29"/><polygon class="cls-7" points="145.35 236.25 135.46 235.86 141.63 227.43 145.35 236.25"/><g class="cls-9"><polygon class="cls-8" points="598.03 190.76 599.67 195.28 613.33 178.51 614.62 183.57 631.31 164.29 612.66 194.34 610.78 188.78 597.56 207.2 595.66 201.07 577.79 219.44 598.03 190.76"/><polygon class="cls-7" points="597.75 186.76 599.4 191.28 613.05 174.5 614.35 179.57 631.04 160.29 612.39 190.34 610.51 184.78 597.29 203.2 595.39 197.07 577.52 215.44 597.75 186.76"/></g><g class="cls-9"><path class="cls-8" d="M588.33,263.93a1.75,1.75,0,1,1,1.75,1.75A1.74,1.74,0,0,1,588.33,263.93Z" transform="translate(69 115.22)"/><path class="cls-7" d="M587.33,263.93a1.75,1.75,0,1,1,1.75,1.75A1.74,1.74,0,0,1,587.33,263.93Z" transform="translate(69 115.22)"/></g><g class="cls-9"><polygon class="cls-8" points="319.85 400.41 305.86 436.88 307.68 443.42 319.85 400.41"/><polygon class="cls-7" points="322.35 396.67 308.37 433.14 310.19 439.67 322.35 396.67"/></g><polygon class="cls-8" points="537.03 164.26 547.54 146.66 547.18 143.11 537.03 164.26"/><polygon class="cls-7" points="535.4 165.97 545.91 148.37 545.55 144.82 535.4 165.97"/><path class="cls-7" d="M479,318.52a2.67,2.67,0,1,1-2.67-2.67A2.67,2.67,0,0,1,479,318.52Z" transform="translate(69 115.22)"/><path class="cls-7" d="M504.65,304.5a1.81,1.81,0,1,1-1.81-1.81A1.81,1.81,0,0,1,504.65,304.5Z" transform="translate(69 115.22)"/><path class="cls-7" d="M544.8,272.66a1.81,1.81,0,1,1-1.81-1.81A1.81,1.81,0,0,1,544.8,272.66Z" transform="translate(69 115.22)"/><circle class="cls-12" cx="350" cy="446.22" r="3"/><path class="cls-7" d="M198.62,27.7a2.7,2.7,0,1,1-2.7-2.7A2.69,2.69,0,0,1,198.62,27.7Z" transform="translate(69 115.22)"/><path class="cls-7" d="M585,167.74a2,2,0,1,1-2-2A2,2,0,0,1,585,167.74Z" transform="translate(69 115.22)"/><circle class="cls-7" cx="109.08" cy="265.95" r="2.34"/><circle class="cls-7" cx="100.08" cy="190.95" r="2.34"/><path class="cls-7" d="M311.14,38.27a5.39,5.39,0,1,1,5.39,5.38A5.4,5.4,0,0,1,311.14,38.27Z" transform="translate(69 115.22)"/><polygon class="cls-8" points="169.82 173.12 166.55 179.15 149.12 150.37 139.76 166.38 168.38 192.06 171.82 184.33 187.76 203.15 169.82 173.12"/><polygon class="cls-7" points="175.29 173.6 172.02 179.63 154.59 150.85 145.24 166.85 173.85 192.54 177.29 184.81 193.23 203.63 175.29 173.6"/><path class="cls-7" d="M98.26,97.23a2.64,2.64,0,1,1,2.64,2.63A2.64,2.64,0,0,1,98.26,97.23Z" transform="translate(69 115.22)"/></g></g></g></svg>