<svg width="8" height="12" viewBox="0 0 8 12" fill="none" xmlns="http://www.w3.org/2000/svg">
<path d="M0.271183 5.36404L5.53569 0.264379C5.71196 0.0947545 5.9471 0 6.19175 0C6.4364 0 6.67154 0.0947545 6.84781 0.264379L7.7229 1.11132C7.80917 1.19316 7.87788 1.29171 7.92483 1.40096C7.97178 1.51021 7.996 1.62788 7.996 1.74679C7.996 1.86569 7.97178 1.98335 7.92483 2.0926C7.87788 2.20185 7.80917 2.3004 7.7229 2.38224L3.99554 6L7.7269 9.61376C7.81317 9.6956 7.88188 9.79414 7.92883 9.90339C7.97579 10.0126 8 10.1303 8 10.2492C8 10.3681 7.97579 10.4858 7.92883 10.595C7.88188 10.7043 7.81317 10.8028 7.7269 10.8847L6.85181 11.7356C6.67554 11.9052 6.4404 12 6.19575 12C5.9511 12 5.71596 11.9052 5.53969 11.7356L0.275183 6.63596C0.18862 6.5543 0.119583 6.45588 0.072275 6.3467C0.0249669 6.23751 0.000378577 6.11985 4.33725e-06 6.00086C-0.000369903 5.88187 0.0234781 5.76405 0.0700985 5.65457C0.116719 5.54509 0.185135 5.44624 0.271183 5.36404Z" fill="#1C182C"/>
</svg>
