<svg width="18" height="14" viewBox="0 0 18 14" fill="none" xmlns="http://www.w3.org/2000/svg">
<path d="M11.6029 0H6.39718C4.92165 0.00144165 3.50697 0.588231 2.46362 1.63159C1.42026 2.67494 0.833473 4.08962 0.832031 5.56515V6.41462C0.833473 7.89015 1.42026 9.30483 2.46362 10.3482C3.50697 11.3915 4.92165 11.9783 6.39718 11.9798H8.45552L9.49558 13.6134C9.56907 13.732 9.67171 13.8298 9.79373 13.8975C9.91574 13.9652 10.0531 14.0005 10.1926 14C10.333 13.9988 10.4709 13.9616 10.5929 13.892C10.7149 13.8224 10.817 13.7228 10.8896 13.6025L11.8915 11.9689C13.2971 11.9405 14.6359 11.3635 15.6218 10.3613C16.6077 9.3591 17.1627 8.01108 17.1681 6.60521V5.56515C17.1666 4.08962 16.5799 2.67494 15.5365 1.63159C14.4931 0.588231 13.0785 0.00144165 11.6029 0V0ZM6.27738 6.87203H11.7227C11.8672 6.87203 12.0057 6.9294 12.1078 7.03152C12.2099 7.13364 12.2673 7.27215 12.2673 7.41657C12.2673 7.56099 12.2099 7.69949 12.1078 7.80161C12.0057 7.90373 11.8672 7.9611 11.7227 7.9611H6.27738C6.13296 7.9611 5.99446 7.90373 5.89234 7.80161C5.79022 7.69949 5.73285 7.56099 5.73285 7.41657C5.73285 7.27215 5.79022 7.13364 5.89234 7.03152C5.99446 6.9294 6.13296 6.87203 6.27738 6.87203V6.87203ZM5.73285 4.39984C5.73285 4.25542 5.79022 4.11692 5.89234 4.0148C5.99446 3.91268 6.13296 3.85531 6.27738 3.85531H11.7227C11.8672 3.85531 12.0057 3.91268 12.1078 4.0148C12.2099 4.11692 12.2673 4.25542 12.2673 4.39984C12.2673 4.54426 12.2099 4.68277 12.1078 4.78489C12.0057 4.88701 11.8672 4.94438 11.7227 4.94438H6.27738C6.13296 4.94438 5.99446 4.88701 5.89234 4.78489C5.79022 4.68277 5.73285 4.54426 5.73285 4.39984V4.39984Z" fill="white"/>
</svg>
