<svg width="17" height="14" viewBox="0 0 17 14" fill="none" xmlns="http://www.w3.org/2000/svg">
<path d="M10.9086 0H5.70284C4.22732 0.00144165 2.81264 0.588231 1.76928 1.63159C0.725926 2.67494 0.139137 4.08962 0.137695 5.56515V6.41462C0.139137 7.89015 0.725926 9.30483 1.76928 10.3482C2.81264 11.3915 4.22732 11.9783 5.70284 11.9798H7.76119L8.80125 13.6134C8.87473 13.732 8.97738 13.8298 9.09939 13.8975C9.22141 13.9652 9.35872 14.0005 9.49825 14C9.63871 13.9988 9.77652 13.9616 9.89854 13.892C10.0206 13.8224 10.1227 13.7228 10.1953 13.6025L11.1972 11.9689C12.6028 11.9405 13.9415 11.3635 14.9275 10.3613C15.9134 9.3591 16.4683 8.01108 16.4737 6.60521V5.56515C16.4723 4.08962 15.8855 2.67494 14.8422 1.63159C13.7988 0.588231 12.3841 0.00144165 10.9086 0ZM5.58305 6.87203H11.0284C11.1728 6.87203 11.3113 6.9294 11.4134 7.03152C11.5156 7.13364 11.5729 7.27215 11.5729 7.41657C11.5729 7.56099 11.5156 7.69949 11.4134 7.80161C11.3113 7.90373 11.1728 7.9611 11.0284 7.9611H5.58305C5.43863 7.9611 5.30012 7.90373 5.198 7.80161C5.09588 7.69949 5.03851 7.56099 5.03851 7.41657C5.03851 7.27215 5.09588 7.13364 5.198 7.03152C5.30012 6.9294 5.43863 6.87203 5.58305 6.87203ZM5.03851 4.39984C5.03851 4.25542 5.09588 4.11692 5.198 4.0148C5.30012 3.91268 5.43863 3.85531 5.58305 3.85531H11.0284C11.1728 3.85531 11.3113 3.91268 11.4134 4.0148C11.5156 4.11692 11.5729 4.25542 11.5729 4.39984C11.5729 4.54426 11.5156 4.68277 11.4134 4.78489C11.3113 4.88701 11.1728 4.94438 11.0284 4.94438H5.58305C5.43863 4.94438 5.30012 4.88701 5.198 4.78489C5.09588 4.68277 5.03851 4.54426 5.03851 4.39984Z" fill="#736B97"/>
</svg>
