<svg width="19" height="16" viewBox="0 0 19 16" fill="none" xmlns="http://www.w3.org/2000/svg">
<path d="M12.3096 0H6.36017C4.67385 0.0016476 3.05708 0.672264 1.86467 1.86467C0.672264 3.05708 0.0016476 4.67385 0 6.36017V7.331C0.0016476 9.01731 0.672264 10.6341 1.86467 11.8265C3.05708 13.0189 4.67385 13.6895 6.36017 13.6912H8.71256L9.9012 15.5581C9.98519 15.6937 10.1025 15.8055 10.2419 15.8828C10.3814 15.9602 10.5383 16.0005 10.6978 16C10.8583 15.9986 11.0158 15.9561 11.1552 15.8766C11.2947 15.7971 11.4114 15.6832 11.4944 15.5457L12.6394 13.6787C14.2458 13.6462 15.7758 12.9869 16.9026 11.8415C18.0294 10.6961 18.6636 9.15552 18.6698 7.54881V6.36017C18.6681 4.67385 17.9975 3.05708 16.8051 1.86467C15.6127 0.672264 13.9959 0.0016476 12.3096 0ZM6.22326 7.85375H12.4465C12.6116 7.85375 12.7699 7.91932 12.8866 8.03603C13.0033 8.15273 13.0688 8.31103 13.0688 8.47608C13.0688 8.64113 13.0033 8.79942 12.8866 8.91613C12.7699 9.03284 12.6116 9.0984 12.4465 9.0984H6.22326C6.05821 9.0984 5.89992 9.03284 5.78321 8.91613C5.6665 8.79942 5.60093 8.64113 5.60093 8.47608C5.60093 8.31103 5.6665 8.15273 5.78321 8.03603C5.89992 7.91932 6.05821 7.85375 6.22326 7.85375ZM5.60093 5.02839C5.60093 4.86334 5.6665 4.70505 5.78321 4.58834C5.89992 4.47163 6.05821 4.40607 6.22326 4.40607H12.4465C12.6116 4.40607 12.7699 4.47163 12.8866 4.58834C13.0033 4.70505 13.0688 4.86334 13.0688 5.02839C13.0688 5.19344 13.0033 5.35173 12.8866 5.46844C12.7699 5.58515 12.6116 5.65072 12.4465 5.65072H6.22326C6.05821 5.65072 5.89992 5.58515 5.78321 5.46844C5.6665 5.35173 5.60093 5.19344 5.60093 5.02839Z" fill="#4E00FF"/>
</svg>
