<svg width="15" height="12" viewBox="0 0 15 12" fill="none" xmlns="http://www.w3.org/2000/svg">
<path d="M2.25 5.25C3.07734 5.25 3.75 4.57734 3.75 3.75C3.75 2.92266 3.07734 2.25 2.25 2.25C1.42266 2.25 0.75 2.92266 0.75 3.75C0.75 4.57734 1.42266 5.25 2.25 5.25ZM12.75 5.25C13.5773 5.25 14.25 4.57734 14.25 3.75C14.25 2.92266 13.5773 2.25 12.75 2.25C11.9227 2.25 11.25 2.92266 11.25 3.75C11.25 4.57734 11.9227 5.25 12.75 5.25ZM13.5 6H12C11.5875 6 11.2148 6.16641 10.943 6.43594C11.8875 6.95391 12.5578 7.88906 12.7031 9H14.25C14.6648 9 15 8.66484 15 8.25V7.5C15 6.67266 14.3273 6 13.5 6ZM7.5 6C8.95078 6 10.125 4.82578 10.125 3.375C10.125 1.92422 8.95078 0.75 7.5 0.75C6.04922 0.75 4.875 1.92422 4.875 3.375C4.875 4.82578 6.04922 6 7.5 6ZM9.3 6.75H9.10547C8.61797 6.98438 8.07656 7.125 7.5 7.125C6.92344 7.125 6.38437 6.98438 5.89453 6.75H5.7C4.20937 6.75 3 7.95938 3 9.45V10.125C3 10.7461 3.50391 11.25 4.125 11.25H10.875C11.4961 11.25 12 10.7461 12 10.125V9.45C12 7.95938 10.7906 6.75 9.3 6.75ZM4.05703 6.43594C3.78516 6.16641 3.4125 6 3 6H1.5C0.672656 6 0 6.67266 0 7.5V8.25C0 8.66484 0.335156 9 0.75 9H2.29453C2.44219 7.88906 3.1125 6.95391 4.05703 6.43594Z" fill="white"/>
</svg>
