<svg width="14" height="14" viewBox="0 0 14 14" fill="none" xmlns="http://www.w3.org/2000/svg">
<path d="M7 0C3.13113 0 0 3.13078 0 7C0 8.86977 0.728137 10.6276 2.05026 11.9497C3.37239 13.2719 5.13023 14 7 14C10.8689 14 14 10.8692 14 7C14 3.13113 10.8692 0 7 0ZM9.93768 4.68516L8.30285 8.08453C8.25696 8.17997 8.17997 8.25696 8.08453 8.30285L4.68511 9.93768C4.28876 10.1284 3.87155 9.71152 4.0623 9.31487L5.69712 5.91544C5.74301 5.82001 5.82001 5.74301 5.91544 5.69712L9.31487 4.0623C9.71122 3.87171 10.1285 4.28837 9.93768 4.68516Z" fill="white"/>
</svg>
