<svg width="15" height="14" viewBox="0 0 15 14" fill="none" xmlns="http://www.w3.org/2000/svg">
<path d="M7.6123 0C3.74344 0 0.612305 3.13078 0.612305 7C0.612305 8.86977 1.34044 10.6276 2.66257 11.9497C3.98469 13.2719 5.74254 14 7.6123 14C11.4812 14 14.6123 10.8692 14.6123 7C14.6123 3.13113 11.4815 0 7.6123 0ZM10.55 4.68516L8.91515 8.08453C8.86927 8.17997 8.79227 8.25696 8.69684 8.30285L5.29741 9.93768C4.90106 10.1284 4.48385 9.71152 4.6746 9.31487L6.30943 5.91544C6.35531 5.82001 6.43231 5.74301 6.52774 5.69712L9.92717 4.0623C10.3235 3.87171 10.7408 4.28837 10.55 4.68516Z" fill="#736B97"/>
</svg>
