<?xml version="1.0" encoding="utf-8"?>
<!-- Generator: Adobe Illustrator 25.1.0, SVG Export Plug-In . SVG Version: 6.00 Build 0)  -->
<svg version="1.1" xmlns="http://www.w3.org/2000/svg" xmlns:xlink="http://www.w3.org/1999/xlink" x="0px" y="0px"
	 viewBox="0 0 4299 2042" style="enable-background:new 0 0 4299 2042;" xml:space="preserve">
<style type="text/css">
	.st0{fill:#0B78FF;}
	.st1{fill:#7D99BC;}
	.st2{opacity:0.11;fill:#141211;enable-background:new    ;}
	.st3{fill:#1C1918;}
	.st4{fill:#003F9E;}
	.st5{fill:#1CC4FF;}
	.st6{fill:#00C3F7;}
	.st7{fill:#9FE2F4;}
	.st8{fill:#6A7D99;}
	.st9{fill:#006CE1;}
	.st10{fill:#35373A;}
	.st11{fill:#282423;}
	.st12{fill:#141211;}
	.st13{fill:#3E4244;}
	.st14{fill:#009225;}
	.st15{fill:#006917;}
	.st16{fill:#FFBC1A;}
	.st17{fill:#D79400;}
	.st18{fill:#074980;}
	.st19{fill:#E3DDE9;}
	.st20{fill:#00A632;}
	.st21{fill:#236D36;}
	.st22{opacity:0.17;fill:#111010;enable-background:new    ;}
	.st23{fill:#FFCFA0;}
	.st24{fill:#7C2A0A;}
	.st25{fill:#EFB88C;}
	.st26{fill:#FF804A;}
	.st27{fill:#FFA679;}
	.st28{fill:#EFAB89;}
	.st29{fill:#B95A20;}
	.st30{fill:#9A3101;}
	.st31{fill:#FF6611;}
	.st32{fill:#FF2C31;}
	.st33{fill:#FF6065;}
	.st34{fill:#741300;}
	.st35{fill:#FFFFEA;}
	.st36{fill:none;stroke:#741300;stroke-width:16.12;stroke-linecap:round;stroke-miterlimit:10;}
	.st37{fill:#CD4245;}
	.st38{fill:#FFBF3B;}
	.st39{fill:#4D3129;}
	.st40{fill:#A22000;}
	.st41{fill:#831D00;}
	.st42{fill:#E82900;}
	.st43{display:none;}
	.st44{display:inline;fill:#4E00FF;}
</style>
<g id="Layer_1">
	<rect x="1741.1" y="362.4" class="st0" width="894.1" height="959.2"/>
	<rect x="1741.1" y="362.4" class="st1" width="894.1" height="132.2"/>
	<path class="st2" d="M2096,1979.7c0,33.9-191.3,61.3-427.2,61.3c-235.9,0-427.2-27.5-427.2-61.3c0-25,104.3-46.5,253.8-56.1
		c52.7-3.4,111-5.2,172.4-5.3h1c1.9,0,3.9,0,5.8,0c1.3,0,2.5,0,3.7,0c57.8,0.2,112.7,2,162.7,5.2h0c6.1,0.4,12.2,0.8,18.2,1.2
		C1999.6,1934.9,2096,1955.7,2096,1979.7z"/>
	<path class="st2" d="M3188.7,1979.7c0,33.9-191.3,61.3-427.2,61.3c-235.9,0-427.2-27.5-427.2-61.3c0-21.4,76.1-40.2,191.4-51.2
		c6.9-0.6,13.9-1.3,21-1.9c48.2-4,102.5-6.8,160.3-7.8c1.3,0,2.6,0,3.9-0.1c2.4,0,4.9-0.1,7.3-0.1h0c14.2-0.2,28.6-0.3,43.2-0.3
		c44.8,0,88.1,1,128.6,2.8C3063.2,1929.1,3188.7,1952.3,3188.7,1979.7z"/>
	<path class="st3" d="M487.3,686.7h184.9V528.9H487.3V686.7z"/>
	<rect x="137.7" y="12.5" class="st4" width="883.8" height="554.7"/>
	<path class="st5" d="M958.3,504.1V75.6H200.7v428.5H958.3z"/>
	<path class="st6" d="M332.7,212.9c56,60.3,122.3,102.9,198.9,127.8c73.6,38.7,153,56.4,238.1,53.2c65.5-0.2,128.4-10,188.7-29.4
		v139.5l-757.7,0.1V75.7h29.2C255,126.8,289.3,172.6,332.7,212.9z"/>
	<path class="st3" d="M458,698h243.5v-51.9H458V698z"/>
	<path class="st7" d="M904.1,241.4c12.7,0,23.1-28.7,23.1-64.1s-10.3-64.2-23.1-64.2S881,141.8,881,177.3S891.3,241.4,904.1,241.4z"
		/>
	<polygon class="st8" points="1557.7,689.3 1557.7,1302.6 1447.4,1302.6 1447.4,770.9 112.5,770.9 112.5,1302.6 0,1302.6 0,689.3 	
		"/>
	<rect x="112.5" y="770.9" class="st9" width="1334.8" height="500.8"/>
	<rect x="1096.1" y="1" class="st10" width="341.5" height="696.7"/>
	<polygon class="st11" points="1271.2,0.1 1271.2,1 1271.1,153.4 1271.1,169.5 1271,353 1271,369.1 1270.8,689.3 1270.7,696.8 
		1096.6,696.7 1096.6,689.3 1097.1,1 1097.1,0 	"/>
	<path class="st6" d="M1322.3,169.6c1.6,0,3.2-0.5,4.5-1.4l78.6-52.4c0.9-0.6,1.6-1.3,2.2-2.2c0.6-0.9,1-1.9,1.2-2.9
		c0.2-1,0.2-2.1,0-3.2c-0.2-1-0.6-2-1.2-2.9c-0.6-0.9-1.3-1.6-2.2-2.2c-0.9-0.6-1.9-1-2.9-1.2c-1-0.2-2.1-0.2-3.2,0
		c-1,0.2-2,0.6-2.9,1.2l-76.6,51l-106.1-0.1l-81.6-54.5c-0.9-0.6-1.9-1-2.9-1.2c-1-0.2-2.1-0.2-3.2,0c-1,0.2-2,0.6-2.9,1.2
		c-0.9,0.6-1.6,1.3-2.2,2.2c-0.6,0.9-1,1.9-1.2,2.9c-0.2,1-0.2,2.1,0,3.2c0.2,1,0.6,2,1.2,2.9c0.6,0.9,1.3,1.6,2.2,2.2l83.6,55.8
		c1.3,0.9,2.9,1.4,4.5,1.4L1322.3,169.6L1322.3,169.6z"/>
	<path class="st6" d="M1322.2,369.2c1.6,0,3.2-0.5,4.5-1.4l78.6-52.4c1.8-1.2,3-3,3.4-5.1c0.4-2.1,0-4.3-1.2-6.1
		c-1.2-1.8-3.1-3-5.2-3.4c-2.1-0.4-4.3,0-6.1,1.2l-76.6,51l-106.1-0.1l-81.6-54.5c-0.9-0.6-1.9-1-2.9-1.2c-1.1-0.2-2.1-0.2-3.2,0
		c-1,0.2-2,0.6-2.9,1.2c-0.9,0.6-1.6,1.3-2.2,2.2c-0.6,0.9-1,1.9-1.2,2.9c-0.2,1-0.2,2.1,0,3.2c0.2,1,0.6,2,1.2,2.9
		c0.6,0.9,1.4,1.6,2.2,2.2l83.6,55.8c1.3,0.9,2.9,1.4,4.5,1.4L1322.2,369.2L1322.2,369.2z"/>
	<path class="st2" d="M1025.6,1805.7c0,23.5-142.3,42.6-317.7,42.6s-317.7-19.1-317.7-42.6c0-13.1,44.3-24.9,114-32.7
		c10.7-1.2,22.1-2.3,34-3.3c6.9-0.6,14-1.1,21.3-1.7c11-0.8,22.4-1.5,34.1-2.1c35.5-1.8,74-2.8,114.3-2.8c51,0,99.1,1.6,141.8,4.5
		c32,2.2,61,5,85.7,8.4C991.3,1783.6,1025.6,1794.1,1025.6,1805.7z"/>
	<path d="M1016.5,1319.2h33.5v-260.8h-33.5V1319.2z"/>
	<path class="st11" d="M786.1,1133.9h353.1c32.8,0,59.4-26.6,59.4-59.4v-7.9c0-32.8-26.6-59.4-59.4-59.4H786.1
		c-32.8,0-59.4,26.6-59.4,59.4v7.9C726.7,1107.4,753.3,1133.9,786.1,1133.9z"/>
	<path class="st12" d="M786.1,1112.2h353.1c14.5,0,28.6-5.3,39.5-15c10.9-9.7,17.8-23,19.5-37.4c0.3,2.3,0.4,4.6,0.4,6.9v7.9
		c0,7.8-1.5,15.5-4.5,22.7c-3,7.2-7.4,13.8-12.9,19.3c-5.5,5.5-12.1,9.9-19.3,12.9c-7.2,3-14.9,4.5-22.7,4.5H786.1
		c-15.8,0-30.9-6.3-42-17.4c-11.1-11.1-17.4-26.2-17.4-42v-7.9c0-2.3,0.1-4.6,0.4-6.9c1.7,14.4,8.6,27.8,19.5,37.4
		C757.5,1106.8,771.6,1112.2,786.1,1112.2z"/>
	<path class="st13" d="M951.2,1737.4c0,15-6,28.6-15.7,38.5c-10,10.3-24,16.6-39.5,16.6c-19.4,0-36.4-10-46.2-25
		c-5.7-8.7-9-19-9-30.1c0-30.5,24.7-55.2,55.2-55.2C926.4,1682.2,951.2,1706.9,951.2,1737.4z"/>
	<path d="M968.8,1727.5c-0.4,1.9-1.3,3.6-2.5,5.1c-1.2,1.5-2.7,2.7-4.4,3.5c-1.7,0.8-3.6,1.3-5.5,1.3H835.6c-1.9,0-3.8-0.4-5.5-1.3
		c-1.7-0.8-3.2-2-4.4-3.5c-1.2-1.5-2-3.2-2.5-5.1c-0.4-1.9-0.5-3.8,0-5.7c3.6-16.7,12.7-31.6,26-42.4c5.4-4.3,11.2-7.9,17.5-10.5
		c9.2-4,19.2-6,29.4-6c6,0,11.9,0.7,17.6,2.1c10.6,2.6,20.6,7.5,29.2,14.5c13.3,10.7,22.4,25.7,26,42.4
		C969.2,1723.7,969.2,1725.7,968.8,1727.5z"/>
	<path d="M896,1770.7c18.4,0,33.3-14.9,33.3-33.3c0-18.4-14.9-33.3-33.3-33.3c-18.4,0-33.3,14.9-33.3,33.3
		C862.7,1755.8,877.6,1770.7,896,1770.7z"/>
	<path class="st13" d="M601.6,1737.4c0,10.4-2.9,20.2-7.9,28.5c-9.7,16-27.2,26.7-47.3,26.7c-16.9,0-32.1-7.6-42.2-19.6
		c-8.1-9.6-13-22-13-35.6c0-30.5,24.7-55.2,55.2-55.2C576.9,1682.2,601.6,1706.9,601.6,1737.4z"/>
	<path d="M619.2,1727.5c-0.4,1.9-1.3,3.6-2.5,5.1s-2.7,2.7-4.4,3.5c-1.7,0.8-3.6,1.3-5.5,1.3H486c-1.9,0-3.8-0.4-5.5-1.3
		c-1.7-0.8-3.2-2-4.4-3.5c-1.2-1.5-2-3.2-2.5-5.1c-0.4-1.9-0.5-3.8,0-5.7c3.6-16.7,12.7-31.6,26-42.4c5.4-4.3,11.2-7.9,17.5-10.5
		c9.2-4,19.2-6,29.4-6c10.2,0,20.2,2.1,29.4,6c6.2,2.7,12.1,6.2,17.5,10.5c13.3,10.7,22.4,25.7,26,42.4
		C619.6,1723.7,619.6,1725.7,619.2,1727.5z"/>
	<path d="M546.4,1770.7c18.4,0,33.3-14.9,33.3-33.3c0-18.4-14.9-33.3-33.3-33.3c-18.4,0-33.3,14.9-33.3,33.3
		C513.1,1755.8,528,1770.7,546.4,1770.7z"/>
	<rect x="653" y="1317.8" class="st12" width="115.3" height="201.2"/>
	<path class="st14" d="M1044.1,689.3c-1.1-40.5-10.7-82.2-33.2-122.1c-13-23-30.2-45.4-52.5-66.6c0,0,0,0-0.1,0
		c-1.3-1.2-2.5-2.4-3.8-3.6c-43.7-40.1-64.7-78.3-80.7-111.8c-34.7-72.8-45.7-124.2-213.3-127V258h-6.3v0.1c-4,0.1-7.9,0.2-11.7,0.3
		c-18.8,0.6-35.6,1.9-50.5,3.8c-0.2,0-0.3,0-0.5,0.1c-0.7,0.1-1.4,0.2-2.2,0.3c-1.4,0.2-2.8,0.4-4.2,0.6c-0.7,0.1-1.4,0.2-2.1,0.3
		c-0.7,0.1-1.4,0.2-2.1,0.3c-1.1,0.2-2.2,0.3-3.2,0.5c-0.9,0.2-1.8,0.3-2.7,0.5c-0.6,0.1-1.3,0.2-1.9,0.4c-0.7,0.1-1.3,0.2-1.9,0.4
		c-0.6,0.1-1.3,0.2-1.9,0.4c-1.9,0.4-3.8,0.8-5.6,1.2c-0.6,0.1-1.2,0.3-1.8,0.4c-0.3,0.1-0.7,0.1-1,0.2c-0.5,0.1-1.1,0.3-1.6,0.4
		c-0.9,0.2-1.8,0.4-2.6,0.6c-0.6,0.1-1.2,0.3-1.7,0.4c-1.1,0.3-2.3,0.6-3.4,0.9c-1.1,0.3-2.2,0.6-3.3,0.9c-0.2,0.1-0.4,0.1-0.6,0.2
		c-1.6,0.5-3.2,0.9-4.7,1.4c-0.5,0.2-1,0.3-1.5,0.5c-0.5,0.2-1,0.3-1.5,0.5c-1.5,0.5-3,1-4.5,1.6c-0.5,0.2-0.9,0.3-1.3,0.5
		c-0.5,0.2-0.9,0.4-1.4,0.5c-4.2,1.6-8.2,3.3-11.9,5.2c-0.8,0.4-1.6,0.8-2.5,1.2c-1.6,0.8-3.2,1.7-4.7,2.5
		c-16.3,9.2-28,20.5-37.5,33.6c-32.1,44.2-39.1,108.3-115.6,178.4c-2.5,2.3-5,4.7-7.4,7.1c0,0-0.1,0.1-0.1,0.1
		c-20.6,20.1-36.6,41.3-48.9,63c-22.5,39.8-32.1,81.6-33.2,122.1c-0.8,28.2,2.6,55.7,8.7,81.6C290,816.2,309,856.4,328.6,886
		c28.9,43.6,38.8,78.2,39.6,117c0.6,29.3-3.8,61-9.1,100.8c-1.1,8.2-2.2,16.8-3.3,25.8v0c-0.4,3.2-0.8,6.4-1.2,9.7
		c-5.8,48.3,0.5,85,9.9,111.3c2.8,7.9,5.9,14.9,9.1,21c11.7,22.7,23.8,33.1,23.8,33.1h519.8c0,0,0,0,0,0c0.2-0.1,0.8-0.7,1.7-1.6
		c0.4-0.4,0.8-0.8,1.2-1.2c1.1-1.1,2.4-2.6,4-4.4c4.5-5.4,10.8-13.9,16.9-25.8c4.8-9.2,9.4-20.5,13.2-34v0c7-25,10.7-57.5,5.8-98.3
		c-0.2-1.8-0.4-3.6-0.7-5.4c-0.9-7.5-1.8-14.8-2.8-21.8c-5.5-41.8-10.4-74.8-10.2-104.9c0.2-40.6,9.7-76.1,39.7-121.3
		c19.6-29.6,38.6-69.8,49.2-115.1C1041.5,745,1044.9,717.4,1044.1,689.3z M653.6,567.2l0,78.9v14.6c0,6.2-2.5,12.2-6.9,16.6
		c-4.4,4.4-10.4,6.9-16.6,6.9h-89.7c-3.1,0-6.1-0.6-9-1.8c-2.8-1.2-5.4-2.9-7.6-5.1c-2.2-2.2-3.9-4.8-5.1-7.6
		c-1.2-2.8-1.8-5.9-1.8-9v-72.2c0-7.2,0.7-14.3,2-21.3c1.4-7.5,3.6-14.9,6.6-22c2.4-5.7,5.1-11.1,8.4-16.3
		c4.6-7.4,10-14.2,16.2-20.4c1.5-1.5,3-2.9,4.6-4.3c0,0,0-0.1,0.1-0.1c9.5-8.5,20.3-15.3,32-20.1c13.7-5.7,28.4-8.6,43.3-8.6
		c3.1,0,6.2,0.6,9,1.8c2.8,1.2,5.4,2.9,7.6,5.1c4.4,4.4,6.9,10.4,6.9,16.6V567.2z M861.3,588.5v72.2c0,6.2-2.5,12.2-6.9,16.6
		c-4.4,4.4-10.4,6.9-16.6,6.9h-89.7c-6.2,0-12.2-2.5-16.6-6.9c-4.4-4.4-6.9-10.4-6.9-16.6V498.8c0-6.2,2.5-12.2,6.9-16.6
		c4.4-4.4,10.4-6.9,16.6-6.9c7.4,0,14.8,0.7,22.1,2.2c7.3,1.4,14.4,3.6,21.2,6.4c11.8,4.9,22.6,11.7,32,20.1c0,0,0,0,0.1,0.1
		c1.6,1.4,3.1,2.9,4.6,4.3c10.5,10.5,18.8,23,24.5,36.7c2.9,7.1,5.2,14.5,6.6,22C860.6,574.2,861.3,581.3,861.3,588.5z"/>
	<path class="st15" d="M727.3,1297.5H470.6c0,0-56.8-48.4-42.8-165.4s30.7-167.7-26.1-253.4s-108-260.8,31.7-389
		c119.1-109.3,69.6-204.2,209.4-231.3C412.2,265.9,496.5,372,360.3,497c-139.7,128.2-88.5,303.3-31.7,389s40.1,136.4,26.1,253.3
		s42.8,165.4,42.8,165.4h519.8c2.5-2.3,4.8-4.7,6.9-7.3L727.3,1297.5L727.3,1297.5z"/>
	<path d="M465.2,1338.3h33.5v-260.8h-33.5V1338.3z"/>
	<path class="st11" d="M1134.7,1306.2v58.7c0,37.8-30.7,68.5-68.5,68.5H404.7c-1.8,0-3.5-0.1-5.3-0.2c-0.6,0-1.1-0.1-1.7-0.2
		c-1-0.1-2.1-0.2-3.1-0.4c-0.4-0.1-0.8-0.1-1.2-0.2c-0.7-0.1-1.4-0.2-2.1-0.4c-1-0.2-2.1-0.4-3.1-0.7c-0.7-0.2-1.3-0.3-2-0.5
		c-0.5-0.1-1-0.3-1.5-0.4c-0.5-0.2-1.1-0.3-1.6-0.5c-0.5-0.2-1.1-0.4-1.6-0.6c-0.5-0.2-1.1-0.4-1.6-0.6c-0.5-0.2-1-0.4-1.6-0.6
		c-0.5-0.2-1-0.4-1.5-0.6c0,0,0,0-0.1,0c-0.3-0.1-0.6-0.3-0.9-0.4c-0.3-0.2-0.7-0.3-1-0.5c-0.4-0.2-0.8-0.4-1.2-0.6
		c-0.5-0.2-0.9-0.5-1.4-0.7c-0.3-0.1-0.5-0.3-0.7-0.4c-0.3-0.2-0.7-0.4-1-0.6c-0.5-0.3-1-0.6-1.4-0.8c-0.5-0.3-0.9-0.6-1.4-0.9
		c-0.9-0.6-1.8-1.2-2.7-1.8c-0.9-0.6-1.8-1.3-2.6-2c-0.4-0.3-0.8-0.7-1.3-1c-4.2-3.5-8-7.5-11.3-11.9c-0.3-0.4-0.7-0.9-1-1.3
		c-0.8-1.1-1.5-2.2-2.2-3.3c-0.2-0.4-0.5-0.8-0.7-1.1c-0.3-0.5-0.6-1-0.9-1.4c-0.5-1-1.1-2-1.6-3c-0.3-0.5-0.5-1-0.7-1.5
		c-0.2-0.5-0.5-1-0.7-1.6c-0.2-0.5-0.4-1-0.7-1.5c-0.2-0.5-0.4-1-0.6-1.6c-0.4-1-0.8-2.1-1.1-3.2c-0.5-1.6-1-3.2-1.4-4.8
		c-0.1-0.5-0.3-1.1-0.4-1.6c-0.1-0.5-0.2-1-0.3-1.5c-0.1-0.4-0.2-0.9-0.3-1.4c-0.1-0.5-0.2-0.9-0.2-1.4c-0.1-0.7-0.2-1.3-0.3-2
		c-0.1-0.5-0.1-1-0.2-1.4c-0.1-0.8-0.1-1.5-0.2-2.3c-0.1-1.7-0.2-3.3-0.2-5v-58.7c0-1.2,0-2.4,0.1-3.5c0-1.1,0.1-2.2,0.2-3.3
		c0.1-1.1,0.3-2.2,0.4-3.3c0.1-0.6,0.2-1.1,0.3-1.7c0.1-0.4,0.2-0.8,0.2-1.3c0.1-0.7,0.3-1.4,0.4-2c0.1-0.5,0.3-1,0.4-1.6
		c0.1-0.6,0.3-1.1,0.5-1.7c0.3-1.1,0.6-2.1,1-3.2c0.3-1.1,0.7-2.1,1.1-3.2c0.2-0.5,0.4-1,0.6-1.5s0.4-1,0.7-1.5
		c0.2-0.5,0.5-1,0.7-1.5c0.2-0.5,0.5-1,0.7-1.5c0.5-1,1-2,1.6-2.9c0.1-0.3,0.3-0.5,0.4-0.7c0.1-0.2,0.3-0.5,0.4-0.7
		c0.2-0.3,0.4-0.7,0.6-1c0.4-0.6,0.8-1.2,1.2-1.8c0.3-0.5,0.6-0.9,1-1.4c0.3-0.5,0.7-0.9,1-1.4c0.4-0.6,0.8-1.1,1.3-1.7
		c0.3-0.4,0.6-0.8,0.9-1.2c0.7-0.8,1.4-1.7,2.2-2.5c0.7-0.8,1.5-1.6,2.3-2.4c0.8-0.8,1.6-1.5,2.4-2.3c1.4-1.3,2.8-2.5,4.3-3.6
		c0.3-0.3,0.7-0.5,1-0.8c0.2-0.2,0.4-0.3,0.6-0.5c0,0,0,0,0,0c0.2-0.2,0.5-0.3,0.7-0.5c0.9-0.6,1.8-1.3,2.8-1.9
		c9.7-6.1,21-9.9,33.2-10.5c1.1-0.1,2.3-0.1,3.4-0.1h661.5c25.3,0,47.3,13.7,59.2,34C1131.3,1281.9,1134.7,1293.6,1134.7,1306.2z"/>
	<path class="st15" d="M762.7,1405.8c-124.1,0-232.5-67.6-290.2-168.1h580.3C995.1,1338.1,886.8,1405.8,762.7,1405.8z"/>
	<path class="st12" d="M450,1237.7v195.7h-45.3c-1.8,0-3.5-0.1-5.3-0.2c-0.6,0-1.1-0.1-1.7-0.2c-1-0.1-2.1-0.2-3.1-0.4
		c-0.4-0.1-0.8-0.1-1.2-0.2c-0.7-0.1-1.4-0.2-2.1-0.4c-1-0.2-2.1-0.4-3.1-0.7c-0.7-0.2-1.3-0.3-2-0.5c-0.5-0.1-1-0.3-1.5-0.4
		c-0.5-0.2-1.1-0.3-1.6-0.5c-0.5-0.2-1.1-0.4-1.6-0.6c-0.5-0.2-1.1-0.4-1.6-0.6c-0.5-0.2-1-0.4-1.6-0.6c-0.5-0.2-1-0.4-1.5-0.6
		c0,0,0,0-0.1,0c-0.3-0.1-0.6-0.3-0.9-0.4c-0.3-0.2-0.7-0.3-1-0.5c-0.4-0.2-0.8-0.4-1.2-0.6c-0.5-0.2-0.9-0.5-1.4-0.7
		c-0.3-0.1-0.5-0.3-0.7-0.4c-0.3-0.2-0.7-0.4-1-0.6c-0.5-0.3-1-0.6-1.4-0.8c-0.5-0.3-0.9-0.6-1.4-0.9c-0.9-0.6-1.8-1.2-2.7-1.8
		c-0.9-0.6-1.8-1.3-2.6-2c-0.4-0.3-0.8-0.7-1.3-1c-1-0.8-2-1.7-3-2.6c-0.1-0.1-0.2-0.2-0.3-0.2c-0.5-0.5-1.1-1-1.6-1.5
		c-1.3-1.3-2.6-2.8-3.9-4.2c0,0,0,0-0.1-0.1c-0.9-1-1.7-2.1-2.5-3.2c-0.3-0.4-0.7-0.9-1-1.3c-0.8-1.1-1.5-2.2-2.2-3.3
		c-0.2-0.4-0.5-0.8-0.7-1.1c-0.3-0.5-0.6-1-0.9-1.4c-0.5-1-1.1-2-1.6-3c-0.3-0.5-0.5-1-0.7-1.5c-0.2-0.5-0.5-1-0.7-1.6
		c-0.2-0.5-0.4-1-0.7-1.5c-0.2-0.5-0.4-1-0.6-1.6c-0.4-1-0.8-2.1-1.1-3.2c-0.5-1.6-1-3.2-1.4-4.8c-0.1-0.5-0.3-1.1-0.4-1.6
		c-0.1-0.5-0.2-1-0.3-1.5c-0.1-0.4-0.2-0.9-0.3-1.4c-0.1-0.5-0.2-0.9-0.2-1.4c-0.1-0.7-0.2-1.3-0.3-2c-0.1-0.5-0.1-1-0.2-1.4
		c-0.1-0.8-0.1-1.5-0.2-2.3c-0.1-1.7-0.2-3.4-0.2-5v-58.7c0-1.2,0-2.3,0.1-3.5c0-1.1,0.1-2.2,0.2-3.3c0.1-1.1,0.3-2.2,0.4-3.3
		c0.1-0.6,0.2-1.1,0.3-1.7c0.1-0.4,0.2-0.8,0.2-1.3c0.1-0.7,0.3-1.4,0.4-2c0.1-0.5,0.3-1,0.4-1.6c0.1-0.6,0.3-1.1,0.5-1.7
		c0.3-1.1,0.6-2.1,1-3.2c0.4-1.1,0.7-2.1,1.1-3.2c0.2-0.5,0.4-1,0.6-1.5s0.4-1,0.7-1.5c0.2-0.5,0.5-1,0.7-1.5c0.2-0.5,0.5-1,0.7-1.5
		c0.5-1,1-2,1.6-2.9c0.1-0.3,0.3-0.5,0.4-0.7c0.1-0.2,0.3-0.5,0.4-0.7c0.2-0.3,0.4-0.7,0.6-1c0.4-0.6,0.8-1.2,1.2-1.8
		c0.3-0.5,0.6-0.9,1-1.4c0.3-0.5,0.7-0.9,1-1.4c0.4-0.6,0.8-1.1,1.3-1.7c0.3-0.4,0.6-0.8,0.9-1.2c0.7-0.8,1.4-1.7,2.2-2.5
		c0.7-0.8,1.5-1.6,2.3-2.4v0c0.8-0.8,1.6-1.5,2.4-2.3c1.4-1.3,2.8-2.5,4.3-3.6c0.3-0.3,0.7-0.5,1-0.8c0.2-0.2,0.4-0.3,0.6-0.5
		c0,0,0,0,0,0c0.2-0.2,0.5-0.3,0.7-0.5c0.9-0.6,1.8-1.3,2.8-1.9c9.9-6.3,21.3-9.9,33.2-10.5c1.1-0.1,2.3-0.1,3.4-0.1H450z"/>
	<path d="M773.5,1527.8v126H647.8v-126c0-8.6,1.8-17.1,5.1-24.9c3.1-7.2,7.6-13.9,13.3-19.6c11.8-11.8,27.8-18.4,44.4-18.4
		c4.1,0,8.2,0.4,12.3,1.2c4,0.8,8,2,11.8,3.6c7.6,3.2,14.5,7.8,20.4,13.6c5.6,5.6,10,12.1,13.2,19.3c0.2,0.3,0.3,0.7,0.5,1.1
		C771.9,1511.4,773.5,1519.6,773.5,1527.8z"/>
	<path d="M913.6,1628.1v40.8H513.3v-40.8c0-10.6,4.2-20.7,11.7-28.2c7.5-7.5,17.6-11.7,28.2-11.7h320.5c10.6,0,20.7,4.2,28.2,11.7
		C909.4,1607.4,913.6,1617.6,913.6,1628.1z"/>
	<path class="st11" d="M327.3,1129.7h353.1c32.8,0,59.4-26.6,59.4-59.4v-7.9c0-32.8-26.6-59.4-59.4-59.4H327.3
		c-32.8,0-59.4,26.6-59.4,59.4v7.9C267.9,1103.1,294.5,1129.7,327.3,1129.7z"/>
	<path class="st12" d="M327.3,1103.9h353.1c14.2,0,27.9-5.1,38.7-14.3c10.8-9.3,17.9-22,20-36.1c0.4,3,0.7,6,0.7,9v7.9
		c0,15.8-6.3,30.9-17.4,42c-11.1,11.1-26.2,17.4-42,17.4H327.3c-15.8,0-30.9-6.3-42-17.4c-11.1-11.1-17.4-26.2-17.4-42v-7.9
		c0-3,0.2-6,0.7-9c2.2,14,9.3,26.8,20,36.1C299.4,1098.8,313.1,1103.9,327.3,1103.9L327.3,1103.9z"/>
	<path class="st3" d="M3908,528.9h-184.9v157.8H3908V528.9z"/>
	<rect x="3373.7" y="12.6" class="st10" width="883.8" height="554.6"/>
	<path class="st5" d="M4194.7,504.2V75.8h-757.7v428.5H4194.7z"/>
	<path class="st6" d="M4062.4,212.9c-56,60.3-122.3,102.9-198.9,127.8c-73.7,38.7-153,56.4-238.1,53.2
		c-65.5-0.2-128.4-10-188.7-29.4v139.5l757.7,0.1V75.7h-29.2C4140.1,126.8,4105.9,172.6,4062.4,212.9z"/>
	<path class="st3" d="M3937.3,646.2h-243.5V698h243.5V646.2z"/>
	<path class="st7" d="M3491.1,241.4c12.7,0,23.1-28.7,23.1-64.1s-10.3-64.2-23.1-64.2s-23.1,28.7-23.1,64.2
		S3478.3,241.4,3491.1,241.4z"/>
	<polygon class="st8" points="4298.7,689.3 4298.7,1302.6 4186.2,1302.6 4186.2,770.9 2851.4,770.9 2851.4,1302.6 2741.1,1302.6 
		2741.1,689.3 	"/>
	<rect x="2851.4" y="770.9" class="st9" width="1334.8" height="500.8"/>
	<rect x="2860.3" y="0.1" class="st10" width="341.5" height="696.7"/>
	<rect x="3027.7" y="0" class="st11" width="174.1" height="696.7"/>
	<path class="st6" d="M2976.4,169.6c-1.6,0-3.2-0.5-4.5-1.4l-78.6-52.4c-1.8-1.2-3-3-3.4-5.2c-0.4-2.1,0-4.3,1.2-6.1
		c1.2-1.8,3-3,5.1-3.4c2.1-0.4,4.3,0,6.1,1.2l76.6,51l106.1-0.1l81.6-54.5c0.9-0.6,1.9-1,2.9-1.2c1-0.2,2.1-0.2,3.2,0
		c1,0.2,2,0.6,2.9,1.2c0.9,0.6,1.6,1.3,2.2,2.2c0.6,0.9,1,1.9,1.2,2.9c0.2,1,0.2,2.1,0,3.2c-0.2,1-0.6,2-1.2,2.9
		c-0.6,0.9-1.4,1.6-2.2,2.2l-83.6,55.8c-1.3,0.9-2.9,1.4-4.5,1.4L2976.4,169.6L2976.4,169.6z"/>
	<path class="st6" d="M2976.5,369.2c-1.6,0-3.1-0.5-4.5-1.4l-78.6-52.4c-1.8-1.2-3-3-3.4-5.1c-0.4-2.1,0-4.3,1.2-6.1s3.1-3,5.2-3.4
		c2.1-0.4,4.3,0,6.1,1.2l76.6,51l106.1-0.1l81.6-54.5c1.8-1.2,4-1.6,6.1-1.2c2.1,0.4,4,1.7,5.1,3.4c1.2,1.8,1.6,4,1.2,6.1
		c-0.4,2.1-1.7,4-3.4,5.1l-83.7,55.9c-1.3,0.9-2.9,1.4-4.5,1.4L2976.5,369.2L2976.5,369.2z"/>
	<path class="st2" d="M4037.2,1796c0,23.5-142.3,42.6-317.7,42.6s-317.7-19.1-317.7-42.6c0-10.4,27.8-19.9,73.9-27.3
		c8.3-1.3,17.2-2.6,26.7-3.8c13.3-1.7,27.6-3.2,42.9-4.5c8.7-0.8,17.7-1.5,27-2.1c44-3.1,94.1-4.8,147.2-4.8
		c34.6,0,67.9,0.7,99.1,2.1c8.5,0.4,16.9,0.8,25.1,1.3c17.9,1,35,2.3,51.1,3.7c8.6,0.8,16.9,1.6,24.9,2.5
		C3991.4,1770.7,4037.2,1782.6,4037.2,1796z"/>
	<path d="M3400.7,1058.4h-33.5v260.8h33.5V1058.4z"/>
	<path class="st11" d="M3631,1007.3h-353.1c-32.8,0-59.4,26.6-59.4,59.4v7.9c0,32.8,26.6,59.4,59.4,59.4H3631
		c32.8,0,59.4-26.6,59.4-59.4v-7.9C3690.4,1033.9,3663.8,1007.3,3631,1007.3z"/>
	<path class="st12" d="M3631,1112.2h-353.1c-14.6,0-28.6-5.3-39.5-15c-10.9-9.7-17.8-23-19.5-37.4c-0.3,2.3-0.4,4.6-0.4,6.9v7.9
		c0,15.8,6.3,30.8,17.4,42c11.1,11.1,26.2,17.4,42,17.4H3631c15.8,0,30.9-6.3,42-17.4c11.1-11.1,17.4-26.2,17.4-42v-7.9
		c0-2.3-0.1-4.6-0.4-6.9c-1.7,14.4-8.6,27.8-19.5,37.4C3659.6,1106.8,3645.6,1112.2,3631,1112.2L3631,1112.2z"/>
	<path class="st13" d="M3576.4,1737.4c0,7.4-1.5,14.4-4.1,20.8c-8.2,20.2-28,34.4-51.1,34.4c-18.9,0-35.5-9.5-45.5-23.9
		c-6.1-8.9-9.7-19.7-9.7-31.3c0-30.5,24.7-55.2,55.2-55.2C3551.6,1682.2,3576.4,1706.9,3576.4,1737.4z"/>
	<path d="M3593.9,1727.5c-0.4,1.9-1.3,3.6-2.5,5.1s-2.7,2.7-4.4,3.5c-1.7,0.8-3.6,1.3-5.5,1.3h-120.7c-1.9,0-3.8-0.4-5.5-1.3
		c-1.7-0.8-3.2-2-4.4-3.5c-1.2-1.5-2-3.2-2.5-5.1c-0.4-1.8-0.5-3.8-0.1-5.6c3.6-16.7,12.7-31.6,26-42.4c8.6-7,18.6-11.9,29.2-14.5
		c5.7-1.4,11.7-2.1,17.6-2.1c10.2,0,20.2,2.1,29.4,6c6.2,2.7,12.1,6.2,17.5,10.5c13.3,10.7,22.4,25.7,26,42.4
		C3594.4,1723.7,3594.4,1725.7,3593.9,1727.5z"/>
	<path d="M3521.2,1770.7c18.4,0,33.3-14.9,33.3-33.3c0-18.4-14.9-33.3-33.3-33.3c-18.4,0-33.3,14.9-33.3,33.3
		C3487.9,1755.8,3502.8,1770.7,3521.2,1770.7z"/>
	<path class="st13" d="M3925.9,1737.4c0,9.2-2.3,17.9-6.2,25.5c-9.2,17.6-27.7,29.7-48.9,29.7c-24.1,0-44.7-15.5-52.1-37.1
		c-2-5.7-3-11.8-3-18.1c0-30.5,24.7-55.2,55.2-55.2S3925.9,1706.9,3925.9,1737.4z"/>
	<path d="M3943.5,1727.5c-0.4,1.9-1.3,3.6-2.5,5.1s-2.7,2.7-4.4,3.5c-1.7,0.8-3.6,1.3-5.5,1.3h-120.7c-1.9,0-3.8-0.4-5.5-1.3
		c-1.7-0.8-3.2-2-4.4-3.5c-1.2-1.5-2-3.2-2.5-5.1c-0.4-1.9-0.4-3.8-0.1-5.7c3.6-16.7,12.7-31.6,26-42.4c5.3-4.3,11.2-7.9,17.5-10.5
		c9.2-4,19.2-6,29.4-6c10.2,0,20.2,2.1,29.4,6c6.2,2.7,12.1,6.2,17.5,10.5c13.3,10.7,22.4,25.7,26,42.4
		C3944,1723.7,3943.9,1725.7,3943.5,1727.5z"/>
	<path d="M3870.7,1770.7c18.4,0,33.3-14.9,33.3-33.3c0-18.4-14.9-33.3-33.3-33.3c-18.4,0-33.3,14.9-33.3,33.3
		C3837.4,1755.8,3852.3,1770.7,3870.7,1770.7z"/>
	<rect x="3648.9" y="1317.8" class="st12" width="115.3" height="201.2"/>
	<path class="st16" d="M4146.4,689.3c-1.1-40.5-10.7-82.2-33.2-122c-9.6-17-21.5-33.8-36.1-49.9c0,0,0,0,0,0c-1.8-2-3.6-3.9-5.5-5.9
		c0,0,0,0,0,0c-2.3-2.4-4.7-4.8-7.2-7.2c0,0,0,0-0.1-0.1c-2.5-2.4-5-4.8-7.6-7.2c-0.5-0.4-0.9-0.8-1.4-1.3c-0.1-0.1-0.2-0.2-0.3-0.3
		c-2.1-1.9-4.1-3.8-6-5.7c-3.1-3-6-6-8.9-9c-0.8-0.9-1.7-1.8-2.5-2.6c-1.8-1.9-3.6-3.8-5.3-5.8c-0.4-0.5-0.9-0.9-1.3-1.4
		c-1.4-1.6-2.8-3.2-4.1-4.8c-0.4-0.5-0.8-1-1.2-1.5c-1.1-1.3-2.1-2.5-3.1-3.8c-0.4-0.5-0.8-0.9-1.1-1.4c-0.9-1.1-1.9-2.3-2.8-3.4
		c-0.6-0.7-1.1-1.4-1.7-2.2c-1.3-1.7-2.5-3.3-3.7-4.9c-0.5-0.7-1-1.4-1.5-2c-0.3-0.5-0.7-0.9-1-1.4c-0.5-0.7-1-1.5-1.6-2.2
		c-4.7-6.6-8.9-13.2-12.8-19.6c-0.5-0.8-0.9-1.5-1.4-2.3c-2.2-3.7-4.2-7.3-6.2-10.9c-0.4-0.8-0.8-1.5-1.2-2.3c-1-1.8-2-3.7-2.9-5.5
		c-0.4-0.9-0.9-1.7-1.3-2.6c-2.6-5.1-5.1-10.1-7.4-15c-0.4-0.8-0.8-1.6-1.2-2.4c-6.9-14.6-12.9-28.3-19.5-40.9
		c-0.4-0.7-0.8-1.4-1.1-2.1c0,0,0,0,0-0.1c-0.7-1.3-1.4-2.6-2.2-4c-2-3.6-4.1-7-6.2-10.4c-0.4-0.6-0.8-1.2-1.2-1.8
		c-1.7-2.6-3.5-5.1-5.4-7.6c-0.5-0.6-0.9-1.2-1.4-1.8c-0.5-0.6-1-1.2-1.4-1.8c-0.4-0.6-0.9-1.1-1.4-1.6c-0.7-0.8-1.4-1.6-2.1-2.4
		c-0.3-0.4-0.7-0.8-1-1.1c-0.1-0.1-0.1-0.2-0.2-0.2c-0.5-0.5-1-1-1.5-1.5c-0.7-0.7-1.3-1.4-2-2c-0.5-0.5-0.9-0.9-1.4-1.3
		c-0.5-0.5-0.9-0.9-1.4-1.3c-0.4-0.3-0.7-0.7-1.1-1c-0.5-0.4-0.9-0.9-1.4-1.3c-0.5-0.4-1-0.8-1.4-1.2c-0.6-0.5-1.2-1-1.9-1.5
		c0,0,0,0-0.1,0c-0.6-0.5-1.3-1-1.9-1.5c-0.6-0.4-1.1-0.9-1.7-1.3c-0.8-0.6-1.7-1.2-2.5-1.8c-0.6-0.4-1.3-0.9-1.9-1.3
		c-0.7-0.4-1.3-0.9-2-1.3c-0.1-0.1-0.2-0.1-0.2-0.2c-0.7-0.4-1.4-0.9-2.1-1.3c-0.8-0.4-1.5-0.9-2.3-1.3c-0.8-0.4-1.6-0.9-2.3-1.3
		c-0.8-0.4-1.6-0.9-2.4-1.3c-1.6-0.8-3.3-1.7-5-2.5c-2.1-1-4.4-2-6.7-2.9c-3.7-1.5-7.5-3-11.6-4.3c-0.5-0.2-1-0.3-1.5-0.5
		c-0.5-0.2-1-0.3-1.6-0.5c-0.5-0.2-1-0.3-1.6-0.5c-2.1-0.6-4.3-1.3-6.5-1.9c-2.2-0.6-4.5-1.2-6.9-1.8c-0.6-0.2-1.2-0.3-1.8-0.4
		c-1.2-0.3-2.4-0.5-3.6-0.8c-1.2-0.3-2.5-0.5-3.7-0.8c-0.6-0.1-1.3-0.3-1.9-0.4c-3.2-0.6-6.4-1.2-9.8-1.8c-0.5-0.1-0.9-0.1-1.4-0.2
		c-4.3-0.7-8.7-1.3-13.3-1.9c-0.7-0.1-1.5-0.2-2.2-0.3c-1.6-0.2-3.2-0.4-4.8-0.5c-1.4-0.2-2.8-0.3-4.3-0.4c-1.6-0.2-3.3-0.3-4.9-0.5
		c-2.3-0.2-4.7-0.4-7-0.6c0,0-0.1,0-0.1,0c-1.5-0.1-2.9-0.2-4.4-0.3c-6.7-0.4-13.8-0.8-21.2-1h0c-3.8-0.1-7.6-0.2-11.6-0.3V258h-6.3
		v0.1c-170,2.9-178.9,55.7-214.8,130.2c-15.8,32.8-36.9,69.9-79.2,108.7c-2.6,2.4-5.1,4.7-7.5,7.1c0,0-0.1,0.1-0.1,0.1
		c-20.5,20.1-36.5,41.3-48.8,63c-22.4,39.8-32.1,81.6-33.1,122c-0.8,28.2,2.6,55.7,8.7,81.6c10.7,45.3,29.6,85.5,49.2,115.1
		c30,45.2,39.5,80.7,39.7,121.3c0.2,30.1-4.8,63.1-10.2,104.9c-0.9,7-1.8,14.2-2.8,21.8c-0.2,1.8-0.4,3.6-0.7,5.4
		c-4.9,40.9-1.1,73.4,5.9,98.4c3.8,13.5,8.4,24.8,13.2,34c6.1,11.8,12.3,20.3,16.9,25.7c1.5,1.8,2.9,3.3,3.9,4.4
		c0.2,0.2,0.4,0.4,0.6,0.6c0.2,0.2,0.4,0.4,0.6,0.6c1,1,1.7,1.6,1.8,1.7c0,0,0,0,0,0h519.8c0,0,0,0,0,0c0.2-0.1,0.8-0.7,1.9-1.8
		c1.2-1.2,3-3.1,5.1-5.6c0.5-0.6,1.1-1.3,1.6-2c0.3-0.4,0.6-0.7,0.9-1.1c0.6-0.7,1.2-1.5,1.8-2.4c3.8-5.1,8.1-11.8,12.4-20.1
		c0.6-1.2,1.3-2.5,1.9-3.8c1.4-2.9,2.8-6,4.1-9.2c0,0,0,0,0,0c0.7-1.6,1.3-3.3,2-5c0,0,0,0,0,0c0.4-1,0.8-2,1.1-3.1v0
		c9.4-26.4,15.7-63,9.9-111.3c-0.3-2.6-0.6-5.1-0.9-7.6c-0.1-0.7-0.2-1.4-0.3-2c0,0,0,0,0,0c-1.1-9-2.2-17.6-3.3-25.8
		c-5.3-39.9-9.7-71.6-9.1-100.8c0.1-5.7,0.5-11.4,1-17c0.2-1.8,0.4-3.7,0.6-5.6c0.3-2.5,0.7-4.9,1.1-7.4c0.2-1.2,0.4-2.4,0.6-3.7
		l0.4-1.9c0.2-1.2,0.5-2.4,0.8-3.7c0,0,0,0,0,0c0.3-1.2,0.5-2.4,0.8-3.7c0.2-0.6,0.3-1.2,0.5-1.9c0.6-2.5,1.3-4.9,2-7.4
		c0.2-0.6,0.4-1.3,0.6-1.9c0.8-2.5,1.6-4.9,2.5-7.4c0.4-1.3,0.9-2.5,1.4-3.8c1.2-3.1,2.5-6.3,3.9-9.5v0c0.6-1.3,1.1-2.6,1.7-3.8
		c0.3-0.6,0.6-1.3,0.9-1.9c0.9-1.9,1.9-3.9,2.9-5.9c1-2,2-3.9,3.1-5.9c0.7-1.3,1.4-2.7,2.2-4c3.8-6.7,8-13.6,12.7-20.8
		c3.3-4.9,6.5-10.1,9.7-15.6c0.9-1.6,1.8-3.2,2.7-4.8c0.6-1.1,1.2-2.1,1.7-3.2c0.8-1.4,1.5-2.8,2.3-4.2c0.9-1.7,1.8-3.4,2.6-5.1
		c1.3-2.5,2.6-5.1,3.8-7.7c0-0.1,0.1-0.1,0.1-0.2c1.2-2.5,2.4-5.1,3.6-7.7c0.5-1.1,1-2.2,1.5-3.4c1.1-2.5,2.2-5,3.2-7.6
		c1.2-3,2.4-6.1,3.6-9.1c1-2.7,2.1-5.4,3-8.2c0.2-0.4,0.3-0.9,0.5-1.3c1.3-3.7,2.6-7.5,3.8-11.3c0-0.1,0.1-0.2,0.1-0.4
		c0.6-1.9,1.2-3.8,1.7-5.7c0.1-0.2,0.1-0.5,0.2-0.7c0.8-2.8,1.6-5.6,2.4-8.4c0.3-1.3,0.7-2.5,1-3.8c0.5-2.1,1-4.2,1.5-6.2
		c0.1-0.2,0.1-0.4,0.1-0.6h0c1.9-7.9,3.5-15.9,4.8-24c0.2-1.3,0.4-2.6,0.6-3.9c0.6-3.8,1.1-7.6,1.5-11.4
		C4146.1,717.7,4146.8,703.6,4146.4,689.3z M3763.6,498.8c0-6.2,2.5-12.2,6.9-16.6c4.4-4.4,10.4-6.9,16.6-6.9
		c7.4,0,14.8,0.7,22.1,2.2c7.3,1.4,14.3,3.6,21.2,6.4c11.8,4.9,22.6,11.7,32.1,20.2c0,0,0.1,0.1,0.1,0.1c1.5,1.4,3,2.8,4.5,4.2
		c6.2,6.2,11.6,13,16.2,20.4c3.2,5.2,6,10.6,8.4,16.3c2.9,7.1,5.2,14.5,6.6,22.1c1.3,7,2,14.1,2,21.2v72.2c0,6.2-2.5,12.2-6.9,16.6
		c-4.4,4.4-10.4,6.9-16.6,6.9H3787c-6.2,0-12.2-2.5-16.6-6.9c-4.4-4.4-6.9-10.4-6.9-16.6V498.8z M3588.9,508.5
		c1.5-1.5,3-2.9,4.5-4.2c0,0,0.1-0.1,0.1-0.1c20.7-18.5,47.5-28.8,75.4-28.8c3.1,0,6.1,0.6,9,1.8c2.8,1.2,5.4,2.9,7.6,5.1
		s3.9,4.8,5.1,7.6c1.2,2.9,1.8,5.9,1.8,9v161.9c0,3.1-0.6,6.1-1.8,9c-1.2,2.8-2.9,5.4-5.1,7.6c-2.2,2.2-4.8,3.9-7.6,5.1
		c-2.8,1.2-5.9,1.8-9,1.8h-89.7c-6.2,0-12.2-2.5-16.6-6.9c-4.4-4.4-6.9-10.4-6.9-16.6v-72.2c0-7.2,0.7-14.3,2-21.2
		C3562,545.1,3572.8,524.6,3588.9,508.5z"/>
	<path class="st17" d="M4144.6,731.6c-0.4,3.8-0.9,7.6-1.5,11.4c-0.2,1.3-0.4,2.6-0.6,3.9c-1.3,8.1-2.9,16.1-4.8,24h0
		c0,0.2-0.1,0.4-0.1,0.6c-0.5,2.1-1,4.2-1.5,6.2c-0.3,1.3-0.7,2.5-1,3.8c-0.8,2.8-1.5,5.6-2.4,8.4c-0.1,0.2-0.1,0.5-0.2,0.7
		c-0.6,1.9-1.1,3.8-1.7,5.7c0,0.1-0.1,0.2-0.1,0.4c-1.2,3.8-2.5,7.6-3.8,11.3c-0.1,0.4-0.3,0.9-0.5,1.3c-1,2.8-2,5.5-3,8.2
		c-1.2,3.1-2.4,6.1-3.6,9.1c-1.1,2.6-2.1,5.1-3.2,7.6c-0.5,1.1-1,2.3-1.5,3.4c-1.2,2.6-2.4,5.2-3.6,7.7c0,0.1-0.1,0.2-0.1,0.2
		c-1.3,2.6-2.5,5.2-3.8,7.7c-0.9,1.7-1.8,3.4-2.6,5.1c-0.8,1.4-1.5,2.8-2.3,4.2c-0.6,1.1-1.2,2.1-1.7,3.2c-0.9,1.6-1.8,3.2-2.7,4.8
		c-3.2,5.5-6.4,10.7-9.7,15.6c-4.7,7.2-9,14.1-12.7,20.8c-0.8,1.4-1.5,2.7-2.2,4c-1.1,2-2.1,4-3.1,5.9c-1,2-1.9,3.9-2.9,5.9
		c-0.3,0.6-0.6,1.3-0.9,1.9c-0.6,1.3-1.2,2.6-1.7,3.8v0c-1.4,3.2-2.7,6.3-3.9,9.5c-0.5,1.3-0.9,2.5-1.4,3.8c-0.9,2.5-1.7,5-2.5,7.4
		c-0.2,0.6-0.4,1.3-0.6,1.9c-0.7,2.5-1.4,4.9-2,7.4c-0.1,0.6-0.3,1.2-0.5,1.9c-0.3,1.2-0.6,2.4-0.8,3.7c0,0,0,0,0,0
		c-0.3,1.2-0.5,2.4-0.8,3.7l-0.4,1.9c-0.2,1.2-0.4,2.5-0.6,3.7c-0.4,2.5-0.8,4.9-1.1,7.4c-0.2,1.8-0.4,3.7-0.6,5.6
		c-0.5,5.6-0.9,11.2-1,17c-0.6,29.3,3.8,61,9.1,100.8c1.1,8.2,2.2,16.8,3.3,25.8c0,0,0,0,0,0h0c0.1,0.7,0.2,1.4,0.3,2
		c0.3,2.5,0.6,5,0.9,7.6c5.8,48.3-0.5,85-9.9,111.3v0c-0.4,1-0.7,2-1.1,3.1c0,0,0,0,0,0c-0.7,1.7-1.3,3.4-2,5c0,0,0,0,0,0
		c-1.3,3.3-2.7,6.3-4.1,9.2c-0.6,1.3-1.3,2.5-1.9,3.8c-4.3,8.3-8.6,15-12.4,20.1c-0.6,0.8-1.2,1.6-1.8,2.4c-0.3,0.4-0.6,0.8-0.9,1.1
		c-0.6,0.7-1.1,1.4-1.6,2c-2.1,2.5-3.9,4.4-5.1,5.6c-1.1,1.1-1.8,1.7-1.9,1.8c0,0,0,0,0,0h-519.8c0,0,0,0,0,0
		c-0.6-0.6-1.2-1.1-1.8-1.7c-0.2-0.2-0.4-0.4-0.6-0.6c-0.2-0.2-0.4-0.4-0.6-0.6c-0.3-0.3-0.6-0.7-1-1.1c-1-1.1-2-2.2-2.9-3.3h197
		l0,0h256.7c0,0,2.1-1.8,5.4-5.5c3.7-4.2,8.9-10.9,14.4-20.2c0.3-0.5,0.5-0.9,0.8-1.4c4.9-8.6,10-19.5,14.2-32.6
		c8.3-25.8,13.4-60.7,8-105.7c-0.1-0.8-0.2-1.6-0.3-2.3c0,0,0,0,0,0c-1.1-9-2.2-17.6-3.3-25.8c-5.2-39.9-9.9-71.8-10.1-100.8
		c-0.2-41.9,9-78,39.7-124.3c18.6-28,36.5-65.5,47.4-107.8c6.7-25.8,10.7-53.4,10.6-81.6c-0.1-40.3-8.4-82-29.3-122
		c-11.3-21.7-26.2-42.8-45.5-63c0,0-0.1,0-0.1-0.1c-4.7-4.9-9.6-9.7-14.8-14.5c-64-58.8-79.4-113.4-101.5-155.5
		c-19.1-36.3-43.2-63.3-107.9-75.8c7.4,0.2,14.4,0.6,21.2,1c1.5,0.1,3,0.2,4.4,0.3c0,0,0.1,0,0.1,0c2.4,0.2,4.7,0.4,7,0.6
		c1.7,0.1,3.3,0.3,4.9,0.5c1.4,0.1,2.8,0.3,4.3,0.4c1.6,0.2,3.3,0.3,4.8,0.5c0.7,0.1,1.5,0.2,2.2,0.3c4.6,0.6,9,1.2,13.3,1.9
		c0.5,0.1,0.9,0.2,1.4,0.2c3.4,0.5,6.6,1.1,9.8,1.8c0.6,0.1,1.3,0.3,1.9,0.4c1.3,0.3,2.5,0.5,3.7,0.8c1.2,0.3,2.4,0.5,3.6,0.8
		c0.6,0.1,1.2,0.3,1.8,0.4c2.4,0.6,4.6,1.1,6.9,1.8c2.2,0.6,4.4,1.2,6.5,1.9c0.5,0.2,1.1,0.3,1.6,0.5c0.5,0.2,1,0.3,1.6,0.5
		c0.5,0.2,1,0.3,1.5,0.5c4.1,1.4,7.9,2.8,11.6,4.3c2.3,0.9,4.5,1.9,6.7,2.9c1.7,0.8,3.4,1.6,5,2.5c0.8,0.4,1.6,0.9,2.4,1.3
		c0.8,0.4,1.6,0.9,2.3,1.3c0.8,0.4,1.5,0.9,2.3,1.3c0.7,0.4,1.4,0.9,2.1,1.3c0.1,0,0.2,0.1,0.2,0.2c0.7,0.4,1.4,0.9,2,1.3
		c0.6,0.4,1.3,0.9,1.9,1.3c0.9,0.6,1.7,1.2,2.5,1.8c0.6,0.4,1.1,0.8,1.7,1.3c0.6,0.5,1.3,1,1.9,1.5c0,0,0.1,0,0.1,0
		c0.6,0.5,1.2,1,1.9,1.5c0.5,0.4,1,0.8,1.4,1.2c0.5,0.4,1,0.8,1.4,1.3c0.4,0.3,0.7,0.6,1.1,1c0.5,0.4,0.9,0.9,1.4,1.3
		c0.5,0.4,0.9,0.9,1.4,1.3c0.7,0.6,1.3,1.3,2,2c0.5,0.5,1,1,1.5,1.5c0.1,0.1,0.1,0.2,0.2,0.2c0.3,0.4,0.7,0.8,1,1.1
		c0.7,0.8,1.4,1.6,2.1,2.4c0.5,0.5,0.9,1.1,1.4,1.6c0.5,0.6,1,1.2,1.4,1.8c0.5,0.6,1,1.2,1.4,1.8c1.9,2.5,3.7,5,5.4,7.6
		c0.4,0.6,0.8,1.2,1.2,1.8c2.2,3.4,4.2,6.8,6.2,10.4c0.7,1.3,1.4,2.6,2.2,4c0,0,0,0,0,0.1c0.4,0.7,0.8,1.4,1.1,2.1
		c6.6,12.6,12.6,26.3,19.5,40.9c0.4,0.8,0.8,1.6,1.2,2.4c2.3,4.9,4.8,9.9,7.4,15c0.4,0.9,0.9,1.7,1.3,2.6c0.9,1.8,1.9,3.6,2.9,5.5
		c0.4,0.8,0.8,1.5,1.2,2.3c2,3.6,4,7.2,6.2,10.9c0.4,0.8,0.9,1.5,1.4,2.3c3.9,6.4,8.1,12.9,12.8,19.6c0.5,0.7,1,1.5,1.6,2.2
		c0.3,0.5,0.7,0.9,1,1.4c0.5,0.7,1,1.4,1.5,2c1.2,1.6,2.5,3.3,3.7,4.9c0.6,0.7,1.1,1.5,1.7,2.2c0.9,1.1,1.8,2.3,2.8,3.4
		c0.4,0.5,0.8,0.9,1.1,1.4c1,1.3,2.1,2.5,3.1,3.8c0.4,0.5,0.8,1,1.2,1.5c1.3,1.6,2.7,3.2,4.1,4.8c0.4,0.5,0.9,1,1.3,1.4
		c1.7,1.9,3.5,3.8,5.3,5.8c0.8,0.9,1.7,1.8,2.5,2.6c2.9,3,5.8,6,8.9,9c2,1.9,4,3.8,6,5.7c0.1,0.1,0.2,0.2,0.3,0.3
		c0.5,0.4,0.9,0.8,1.4,1.3c2.6,2.4,5.1,4.8,7.6,7.2c0,0,0.1,0,0.1,0.1c2.4,2.4,4.8,4.8,7.1,7.2c0,0,0,0,0,0c1.9,1.9,3.7,3.9,5.5,5.9
		c0,0,0,0,0,0c14.6,16.1,26.6,32.8,36.1,49.9c22.4,39.8,32.1,81.6,33.2,122C4146.8,703.6,4146.1,717.7,4144.6,731.6z"/>
	<path d="M3952,1077.5h-33.5v260.8h33.5V1077.5z"/>
	<path class="st11" d="M4080.9,1306.2v58.7c0,1.1,0,2.3-0.1,3.4c0,1-0.1,1.9-0.2,2.8c0,0.1,0,0.1,0,0.2c-0.9,9.9-3.9,19.1-8.6,27.3
		c-0.8,1.5-1.7,2.9-2.6,4.3c-2.5,3.7-5.3,7.2-8.5,10.4c-1.3,1.3-2.5,2.5-3.9,3.6c-0.4,0.3-0.7,0.6-1.1,0.9c-0.4,0.3-0.9,0.7-1.3,1.1
		c-0.4,0.3-0.9,0.7-1.3,1c-0.4,0.3-0.9,0.7-1.4,1c-0.4,0.3-0.9,0.6-1.4,0.9s-0.9,0.6-1.4,0.9c-0.5,0.3-0.9,0.6-1.4,0.9
		c-0.9,0.5-1.8,1-2.6,1.5c-0.4,0.2-0.9,0.5-1.3,0.7c-0.5,0.2-0.9,0.5-1.4,0.7c-1,0.5-2,0.9-3,1.4c-0.2,0.1-0.4,0.2-0.6,0.3
		c0,0-0.1,0-0.1,0c-0.7,0.3-1.4,0.6-2.1,0.8c-0.2,0.1-0.3,0.1-0.5,0.2c-1.4,0.5-2.9,1-4.4,1.4c0,0-0.1,0-0.1,0
		c-0.7,0.2-1.4,0.4-2.2,0.6c-0.3,0.1-0.6,0.1-0.9,0.2c-1,0.2-1.9,0.4-2.9,0.6c-0.6,0.1-1.2,0.2-1.8,0.3c-0.5,0.1-0.9,0.1-1.4,0.2
		c-1.1,0.2-2.1,0.3-3.2,0.4c-0.6,0.1-1.1,0.1-1.7,0.1c-1.7,0.1-3.4,0.2-5.1,0.2h-661.5c-37.8,0-68.5-30.7-68.5-68.5v-58.7
		c0-12.6,3.4-24.3,9.3-34.5c11.9-20.3,33.9-34,59.2-34h661.5c1.7,0,3.4,0.1,5.1,0.2c0.6,0,1.1,0.1,1.7,0.1c0,0,0,0,0,0
		c0.6,0.1,1.1,0.1,1.7,0.2c0.6,0.1,1.1,0.2,1.7,0.2c7.3,1.1,14.3,3.3,20.6,6.5c0.5,0.3,1,0.5,1.5,0.8c1.5,0.8,2.9,1.6,4.3,2.5
		c0.9,0.6,1.7,1.1,2.5,1.7c0.2,0.1,0.4,0.3,0.5,0.4c0.1,0.1,0.3,0.2,0.4,0.3v0c1.1,0.8,2.2,1.7,3.3,2.5c0.4,0.3,0.8,0.7,1.2,1
		c1.3,1.1,2.6,2.3,3.9,3.6c1.6,1.6,3.1,3.3,4.5,5c0.4,0.4,0.7,0.9,1.1,1.3c0.4,0.4,0.7,0.9,1,1.3c0.3,0.5,0.7,0.9,1,1.4
		c1.1,1.6,2.2,3.3,3.2,4.9c5.4,9.2,8.7,19.8,9.2,31C4080.9,1303.9,4080.9,1305.1,4080.9,1306.2z"/>
	<path class="st17" d="M3654.4,1405.8c124.1,0,232.5-67.6,290.2-168.1h-580.3C3422,1338.1,3530.3,1405.8,3654.4,1405.8z"/>
	<path class="st12" d="M4080.9,1306.2v58.7c0,1.1,0,2.3-0.1,3.4c-0.4,7.8-2.1,15.5-5.1,22.8c-1.1,2.6-2.3,5.1-3.7,7.6
		c-0.8,1.5-1.7,2.9-2.6,4.3c-2.5,3.7-5.3,7.2-8.5,10.4c-1.3,1.3-2.5,2.5-3.9,3.6c-0.4,0.3-0.7,0.6-1.1,0.9c-0.4,0.3-0.9,0.7-1.3,1.1
		c-0.4,0.3-0.9,0.7-1.3,1c-0.4,0.3-0.9,0.7-1.4,1c-0.4,0.3-0.9,0.6-1.4,0.9s-0.9,0.6-1.4,0.9c-0.5,0.3-0.9,0.6-1.4,0.9
		c-2.9,1.7-5.9,3.2-9,4.5c-6.2,2.6-12.8,4.2-19.5,4.9c-0.6,0.1-1.1,0.1-1.7,0.1c-1.7,0.1-3.4,0.2-5.1,0.2h-45.3v-195.7h45.3
		c1.7,0,3.4,0.1,5.1,0.2c0.6,0,1.1,0.1,1.7,0.1c0,0,0,0,0,0c0.6,0.1,1.1,0.1,1.7,0.2c0.6,0.1,1.1,0.2,1.7,0.2
		c7.2,1.1,14.2,3.3,20.6,6.5c0.5,0.3,1,0.5,1.5,0.8c1.5,0.8,2.9,1.6,4.3,2.5c0.9,0.6,1.7,1.1,2.5,1.7c0.2,0.1,0.4,0.3,0.5,0.4
		c0.1,0.1,0.3,0.2,0.4,0.3c1.1,0.8,2.2,1.7,3.3,2.5c0.4,0.3,0.8,0.7,1.2,1c1.3,1.1,2.6,2.3,3.9,3.6c1.6,1.6,3.1,3.3,4.5,5
		c0.4,0.4,0.7,0.9,1.1,1.3c0.4,0.4,0.7,0.9,1,1.3c0.3,0.5,0.7,0.9,1,1.4c1.1,1.6,2.2,3.3,3.2,4.9c5.5,9.4,8.7,20,9.2,31
		C4080.9,1303.9,4080.9,1305,4080.9,1306.2z"/>
	<path d="M3769.3,1527.9v126h-125.7v-126c0-8.3,1.6-16.4,4.8-24.1c0.2-0.4,0.3-0.7,0.5-1.1c3.1-7.2,7.6-13.7,13.2-19.3
		c5.8-5.8,12.8-10.5,20.4-13.6c7.6-3.2,15.8-4.8,24.1-4.8v0c16.7,0,32.6,6.6,44.4,18.4c5.7,5.7,10.2,12.3,13.3,19.6
		C3767.5,1510.8,3769.3,1519.2,3769.3,1527.9z"/>
	<path d="M3903.8,1628.1v40.8h-400.3v-40.8c0-10.6,4.2-20.7,11.7-28.2c7.5-7.5,17.6-11.7,28.2-11.7h320.5c5.2,0,10.4,1,15.3,3
		c4.8,2,9.2,4.9,12.9,8.6c3.7,3.7,6.6,8.1,8.6,12.9C3902.8,1617.7,3903.8,1622.9,3903.8,1628.1z"/>
	<path class="st11" d="M4089.8,1003h-353.1c-32.8,0-59.4,26.6-59.4,59.4v7.9c0,32.8,26.6,59.4,59.4,59.4h353.1
		c32.8,0,59.4-26.6,59.4-59.4v-7.9C4149.2,1029.6,4122.6,1003,4089.8,1003z"/>
	<path class="st12" d="M4089.8,1103.9h-353.1c-14.2,0-27.9-5.1-38.7-14.3c-10.8-9.3-17.9-22-20-36.1c-0.4,3-0.7,6-0.7,9v7.9
		c0,15.8,6.3,30.9,17.4,42c11.1,11.1,26.3,17.4,42,17.4h353.1c15.7,0,30.9-6.3,42-17.4c11.1-11.1,17.4-26.2,17.4-42v-7.9
		c0-3-0.2-6-0.7-9c-2.1,14-9.3,26.8-20,36.1C4117.7,1098.8,4104,1103.8,4089.8,1103.9L4089.8,1103.9z"/>
	<path class="st18" d="M1856.8,1916.1C1856.8,1916.1,1856.8,1916.1,1856.8,1916.1c-4.6-0.1-9.9,1.2-14.5,6.1c0,0,0,0,0,0
		c-0.4,0.4-0.8,0.9-1.1,1.3h0c-0.1,0.1-0.2,0.3-0.3,0.4c-0.4,0.5-0.7,0.9-1.1,1.5c-0.2,0.3-0.4,0.7-0.7,1c-0.2,0.4-0.5,0.8-0.7,1.2
		c-0.2,0.4-0.4,0.8-0.6,1.2c-0.1,0.2-0.2,0.4-0.3,0.7c-0.2,0.4-0.4,0.8-0.6,1.3c-0.3,0.7-0.6,1.4-0.9,2.1c-0.3,0.7-0.6,1.5-0.8,2.3
		c-0.5,1.6-1,3.3-1.5,5.1c-0.1,0.5-0.3,0.9-0.4,1.4c-0.2,0.4-0.3,0.9-0.6,1.3c-0.2,0.4-0.4,0.9-0.7,1.3c-0.3,0.4-0.5,0.9-0.8,1.3
		c-0.4,0.6-0.9,1.2-1.5,1.8c-0.2,0.2-0.4,0.4-0.5,0.6c-1.1,1.1-2.4,2.2-3.9,3.2c-0.7,0.5-1.5,1-2.3,1.4c-0.8,0.5-1.7,0.9-2.5,1.3
		c-1.5,0.7-3,1.4-4.7,2c0,0,0,0,0,0c-0.7,0.3-1.3,0.5-2,0.7c-27.4,9.2-76.4,6.9-110.7-4.5c-0.5-0.2-1-0.3-1.5-0.5
		c-0.5-0.2-1-0.3-1.4-0.5c-0.9-0.3-1.9-0.7-2.8-1c-6-2.3-11.4-4.9-16-7.8c-2.1-1.3-4.1-2.7-5.9-4.2c-0.3-2-0.4-4-0.5-6.1
		c-0.2-5-0.2-9.6-0.1-13.7c0-0.7,0-1.5,0.1-2.2v0c0.1-2,0.2-4,0.3-5.8c1.2-14.9,4.4-23.1,7.6-27.7c3.7-5.3,7.4-5.6,7.4-5.6l112-1
		c0,0,8.4,1.1,18.8,5.4C1833.7,1886.9,1849.7,1897.1,1856.8,1916.1z"/>
	<path class="st19" d="M1860.2,1945.4c-5.7,60.9-122.2,41.3-122.2,41.3s-43.7-0.5-58.4-33.4c-2-4.4-3.4-9.4-4.2-15.1
		c1.8,1.5,3.7,2.9,5.9,4.2c4.6,2.9,10,5.5,16,7.8c0.9,0.3,1.9,0.7,2.8,1c0.5,0.2,0.9,0.3,1.4,0.5c0.5,0.2,1,0.3,1.5,0.5
		c34.3,11.4,83.3,13.7,110.7,4.5c0.7-0.2,1.4-0.5,2-0.7c0,0,0,0,0,0c1.7-0.6,3.2-1.3,4.7-2c0.9-0.4,1.7-0.9,2.5-1.3
		c0.8-0.5,1.6-0.9,2.3-1.4c1.5-1,2.8-2.1,3.9-3.2c0.2-0.2,0.4-0.4,0.5-0.6c0.5-0.6,1-1.2,1.5-1.8c0.3-0.4,0.6-0.8,0.8-1.3
		c0.3-0.4,0.5-0.9,0.7-1.3c0.2-0.4,0.4-0.9,0.6-1.3c0.2-0.5,0.3-0.9,0.4-1.4c0.5-1.8,1-3.5,1.5-5.1c0.3-0.8,0.5-1.6,0.8-2.3
		c0.3-0.8,0.6-1.5,0.9-2.1c0.2-0.4,0.4-0.9,0.6-1.3c0.1-0.2,0.2-0.5,0.3-0.7c0.2-0.4,0.4-0.8,0.6-1.2c0.2-0.4,0.5-0.8,0.7-1.2
		c0.2-0.4,0.4-0.7,0.7-1c0.3-0.5,0.7-1,1.1-1.5c0.1-0.1,0.2-0.3,0.3-0.4c0.4-0.5,0.8-0.9,1.1-1.3c0,0,0,0,0,0
		c4.6-4.9,9.9-6.3,14.5-6.2c0,0,0,0,0,0.1c1,2.7,1.8,5.6,2.5,8.7C1860.5,1930.9,1860.9,1937.7,1860.2,1945.4z"/>
	<path class="st11" d="M1829.6,1811.8l-8.4,69.2h-0.2c0,0.2,0,0.4-0.1,0.6c-1.8,7.6-32.2,13.7-69.3,13.7c-35.3,0-64.4-5.5-68.8-12.6
		c-0.3-0.5-0.5-1.1-0.6-1.7h-0.2l10.5-85.9c2.3-18.6,2.4-37.3,0.4-55.9l-7.6-70.2l-6.6-61.6l137.4-14.8l1.1,10l13.1,121.8
		C1833.3,1753.4,1833.1,1782.7,1829.6,1811.8z"/>
	<path class="st18" d="M1677.6,1916.1C1677.6,1916.1,1677.6,1916.1,1677.6,1916.1c-1,0-1.9,0-2.9,0.1c-2.2,0.3-4.5,0.9-6.8,2.2
		c-1.1,0.6-2.3,1.4-3.3,2.3c0,0,0,0,0,0.1c-0.5,0.4-1,0.9-1.5,1.5c-0.5,0.5-1,1.1-1.5,1.7c-0.3,0.3-0.5,0.6-0.7,1
		c-0.3,0.5-0.7,1-1,1.5c-0.2,0.4-0.5,0.8-0.7,1.2c-0.3,0.6-0.6,1.2-0.9,1.8c0,0,0,0,0,0c-0.2,0.4-0.4,0.8-0.6,1.3
		c-0.3,0.7-0.6,1.4-0.9,2.1c-0.3,0.7-0.6,1.5-0.8,2.3c-0.5,1.6-1,3.3-1.5,5.1c-0.1,0.5-0.3,0.9-0.4,1.4c-0.2,0.4-0.3,0.9-0.6,1.3
		c-0.2,0.4-0.4,0.9-0.7,1.3c-0.3,0.4-0.5,0.9-0.8,1.3c-0.4,0.6-0.9,1.2-1.5,1.8c-0.2,0.2-0.4,0.4-0.5,0.6c-1.1,1.1-2.4,2.2-3.9,3.2
		c-0.5,0.3-1,0.6-1.5,1c-1.8,1.1-3.9,2.1-6.1,3c-0.6,0.3-1.3,0.5-1.9,0.8c-35.5,13.3-112.3,5.3-140.3-17.7c-0.3-2-0.4-4-0.5-6.1
		c-0.1-3-0.2-5.8-0.2-8.4c-0.1-23.5,4-35.2,8.1-40.9c3.8-5.4,7.4-5.6,7.4-5.6l112-1c0,0,8.4,1.1,18.8,5.4
		c11.5,4.8,25.5,13.4,33.4,28.8C1676,1912.2,1676.9,1914.1,1677.6,1916.1z"/>
	<path class="st19" d="M1654.4,1940.2c5-20.2,15.2-24.4,23.2-24.2c3,8.1,4.5,17.8,3.4,29.4c-5.7,60.9-122.2,41.3-122.2,41.3
		s-56.2-0.7-62.6-48.5C1531.8,1967.5,1646.4,1972.3,1654.4,1940.2z"/>
	<path class="st11" d="M1650.4,1811.8l-8.4,69.2h-0.2c0,0.2,0,0.4-0.1,0.5c-1.8,7.7-32.1,13.7-69.3,13.7c-35.2,0-64.3-5.4-68.8-12.5
		c-0.4-0.6-0.6-1.1-0.6-1.7h-0.2l10.5-85.9c2.3-18.6,2.4-37.3,0.4-55.9l-6-55.3l-6.1-56.3l-1-9.6l-1.1-10.6l13.8-1.5l55.2-5.9
		l43.8-4.7c0,0,0,0,0,0l24.6-2.7l0.3,2.8l8.2,75.9l5.7,53C1654.1,1753.4,1653.9,1782.7,1650.4,1811.8z"/>
	<path class="st20" d="M2178.6,1442c-8.1,0.7-15.7,1.3-22.9,1.7c-25.2,1.7-46.3,2.3-71.6,1.3c-100.7-3.9-183.6-28.2-247.8-72.9
		c-8.8-6.2-17.3-12.7-25.4-19.6c-11.8-10.1-22.3-20.5-31.5-31c-16.2-18.5-28.8-37.3-38.4-55.1c-2.7-4.9-5.1-9.8-7.4-14.6
		c0,0,0,0,0,0c-1.4-3-2.8-6-4-8.9c-8.9-20.6-14-38.7-16.9-52.1c-2.9-13.4-3.7-21.9-3.8-23l32.1-2.4l39.9-3l31.4-2.4v-0.6
		c0.1,1.3,2.3,21.9,15.2,48.7c0.6,1.3,1.3,2.7,2,4c7.5,14.7,18.2,31.1,33.5,47c26.3,27.5,61.3,48.4,104,62.3
		c0.3,0.1,0.6,0.2,0.9,0.3c54.1,17.4,120.4,23.5,197.4,18.2c4.4-0.3,8.8-0.6,13.3-1L2178.6,1442z"/>
	<path class="st11" d="M1834.9,1551.2c0,0.1,0,3.8-1,9.9c-1.7,9.6-5.9,25.1-16.8,41.4c-18.4,27.7-55.8,57.9-131.8,66.4
		c-11.5,1.3-23.9,2.1-37.2,2.3c-0.9,0-1.8,0-2.8,0c-25.5,0.2-47.9-2.5-67.6-7.3c-32.1-7.8-56.9-21.1-76.1-36.5c-2-1.6-4-3.3-5.9-4.9
		c-5.4-4.7-10.3-9.6-14.7-14.6c-24.2-27-35.2-56-39.8-72.1c-2.2-7.8-2.9-12.6-2.9-12.6l41.3,2.9l0.2,0l23.2,1.6l4.6,0.3l217.2,15.3
		l5.5,0.4l8.5,0.6L1834.9,1551.2z"/>
	<path class="st21" d="M1839.8,1555.4c-1.7,2-3.7,3.9-6,5.7c-19.2,14.9-59.9,22.4-145.9,31.2c-17.9,1.8-34.9,2.8-50.8,3.1
		c-8.6,0.1-16.9,0.1-24.9-0.2c0,0,0,0,0,0c-18.8-0.6-36-2.3-51.8-4.7c-9-1.4-17.6-3.1-25.7-5.1c-8-1.9-15.6-4.1-22.7-6.5
		c-34-11.3-57.3-27.1-70.8-43.1c-13.1-15.6-16.9-31.4-12-43.4c1.7-4.1,4.4-7.8,8.1-10.9c0,0,2.2,0.7,6.3,2c6.6,2,18.2,5.5,33.5,9.6
		c4.8,1.3,9.9,2.6,15.4,4c57,14.4,149,33.1,232.2,29.2c4.7-0.2,9.4-0.5,14.1-0.9c38.4-3.1,74.4-11.4,103.3-27.8c0,0,1.8,3.4,3.7,8.8
		C1849.7,1518.2,1853.7,1539.2,1839.8,1555.4z"/>
	<path class="st19" d="M1845.7,1506.6c-15.5,15.8-47.3,27.5-107.1,36c-2.8,0.4-5.6,0.8-8.6,1.2c-1.6,0.2-3.1,0.4-4.7,0.6
		c-0.3,0-0.5,0.1-0.8,0.1c-88.9,11.3-159.7,6.8-211.3-6.9c-1.2-0.3-2.3-0.6-3.4-0.9c-10.9-3.1-21-6.5-30.1-10.4
		c-0.1-0.1-0.2-0.1-0.3-0.1c-22.3-9.4-39.1-20.9-50.3-33.7c-13.1-15-18.5-31.6-15.8-48.4c3.1-19.5,7.2-30.8,11.6-38.7
		c6-10.8,12.6-15.4,18.3-26.3c7.2,1.8,14.2,3.4,21.1,5.1c4.9,1.1,9.8,2.2,14.6,3.3c105.5,23.3,184,28.2,242.1,23.9
		c4.8-0.3,9.5-0.8,14.1-1.3c22.2-2.3,41.2-6.1,57.3-10.6c2.2-0.6,4.3-1.2,6.4-1.9c0,0,0,0,0,0c1.4-0.4,2.8-0.9,4.1-1.3c0,0,0,0,0,0
		c14.1-4.6,25.8-9.8,35.4-15C1849.6,1438.8,1872.9,1478.9,1845.7,1506.6z"/>
	<path class="st20" d="M1838.2,1381.3c-9.6,5.2-21.2,10.4-35.3,15c0,0,0,0,0,0c-1.3,0.4-2.7,0.9-4.1,1.3c0,0,0,0,0,0
		c-2.1,0.6-4.2,1.3-6.4,1.9c-16.1,4.5-35.1,8.2-57.3,10.6c-4.6,0.5-9.2,0.9-14.1,1.3c-58.1,4.3-136.6-0.6-242.1-23.9
		c-4.8-1.1-9.7-2.2-14.6-3.3c-6.9-1.6-14-3.3-21.1-5.1c3-5.7,2.4-24.7,1.7-41.6c-0.2-6-0.5-11.7-0.6-16.5
		c-0.4-15.2-0.2-31.9,0.7-49.2c0.5-10.3,1.3-20.7,2.3-31.1c0,0,0-0.1,0-0.1c1.5-15.9,3.6-31.7,6.2-46.6c0.2-1.3,0.5-2.6,0.7-3.9v0
		c2.2-12.2,4.8-23.7,7.8-34.1c7.7-27.1,17.8-47,30.4-52.2l65.1,6.8l20.6,2.2l69.5,7.3l93.4,9.8l46.7,4.9h0l16.8,1.8l10.6,1.1
		c0,0,7.1,23.1,12.3,70.8c0.2,1.7,0.4,3.4,0.5,5.1c2.9,28,5,64,4.8,108.2c0,1.9,0,3.8,0,5.8c-0.1,15,1.1,30,3.6,44.8
		C1837,1375.2,1837.5,1378.3,1838.2,1381.3z"/>
	<path class="st21" d="M1738.4,1553.9c0-0.6,1.6-55.4-2.1-122.3c-4.9-90.3-16.6-158.5-34.6-202.7l-13,5.3
		c41.7,102.4,35.7,317.2,35.7,319.3L1738.4,1553.9z"/>
	<path class="st22" d="M1536.9,1565.4c0,0-43.9-35.6-57.5-116.7c-7.6-44.9,6.7-105.4,13.2-177.5
		C1492.5,1271.2,1313.4,1443.9,1536.9,1565.4z"/>
	<path class="st23" d="M1577.6,1664c-1.8,3.4-4,6.6-6.6,9.7c-16.2,18.5-41.8,19.9-63.4,10c-6.4-2.9-12.4-6.8-17.7-11.4
		c-9.8-8.5-16.6-16.8-19.9-25.4c-4.6-12-1.9-24.5,10.4-38.5c0.2-0.2,0.3-0.4,0.5-0.5c9.3-10.7,19.5-22.6,31-29
		c9.4-5.2,19.6-6.9,31.1-1.5c5.5,2.6,11.3,6.8,17.3,13c0.6,0.6,1.2,1.2,1.7,1.8c2.3,2.4,4.4,5,6.3,7.6
		C1582.5,1619.1,1588.1,1643.9,1577.6,1664z"/>
	<path class="st20" d="M1544.3,1576.2l-1.3,1.2l-8.3,8l-21.5,20.5l-12.7,12.1l-4.9,4.6l-25.6,24.4l-0.8,0.8
		c-2.9-3.1-72.4-76.4-110.4-150c-22.7-43.9-14.1-106.4,26.1-190.9c5.7-11.8,11.7-23.5,17.9-35.1c12-22.4,25.1-44.2,39-65.5
		c1.6-2.4,3.5-4.7,5.5-6.8c0,0,0,0,0,0c1.9-2,4-3.9,6.2-5.6c0.9-0.7,1.9-1.4,2.9-2.1c0,0,0,0,0,0c5.5-3.6,11.8-6.2,18.4-7.5
		c5.8-1.1,11.6-1.3,17.3-0.4c7.7,1.1,15,3.9,21.6,8.3c5.8,3.9,10.7,8.9,14.5,14.7c3.6,5.5,6.1,11.7,7.4,18.3c0.7,3.5,1,7.1,0.9,10.6
		c0,0,0,0,0,0c-0.1,10-3.1,19.8-8.8,28.2c-8.2,12.6-16.1,25.4-23.6,38.5c-0.7,1.3-1.4,2.5-2.1,3.7c-6.1,10.8-11.9,21.6-17.5,32.7
		c-1.9,3.7-3.7,7.4-5.5,11.1c-6.1,12.7-11,24-14.8,33.9c-19.1,49.5-13.4,66-13.3,66.2c7.4,14.4,16.6,29,26.2,43
		c8.5,12.3,17.3,24,25.7,34.6c2.4,3.1,4.8,6,7.1,8.9c8.5,10.4,16.2,19.3,22.1,26.1C1539.4,1571.1,1544.1,1576.1,1544.3,1576.2z"/>
	<path class="st24" d="M1933.7,978.3c0,0,111.3-132.8,19.3-364.8s-529.1-108.6-529.1-108.6s-279.3,166.2-87.6,531.6L1933.7,978.3z"
		/>
	<path class="st25" d="M1444.1,1044.4c11.1-45.4-15.5-90.8-59.4-101.5c-43.8-10.7-88.3,17.5-99.4,62.8
		c-11,45.4,15.5,90.8,59.4,101.5C1388.6,1117.9,1433.1,1089.8,1444.1,1044.4z"/>
	<path class="st26" d="M1382.7,1077.6c30.1-7.4,48.4-37.8,41-67.9c-7.4-30.1-37.8-48.4-67.9-41c-30.1,7.4-48.4,37.8-41,67.9
		C1322.2,1066.7,1352.6,1085,1382.7,1077.6z"/>
	<path class="st25" d="M1971.7,1048.9c29.9-29.9,29.9-78.3,0-108.1c-29.9-29.9-78.3-29.9-108.1,0c-29.9,29.9-29.9,78.3,0,108.1
		C1893.4,1078.8,1941.9,1078.8,1971.7,1048.9z"/>
	<path class="st26" d="M1980.8,1021.4c8.1-27.8-7.9-56.9-35.7-65.1c-27.8-8.1-56.9,7.9-65.1,35.7c-8.1,27.8,7.9,57,35.7,65.1
		C1943.5,1065.2,1972.6,1049.2,1980.8,1021.4z"/>
	<path class="st23" d="M1930.2,816c0,0,74.8,432.6-240.3,440c-357.1,8.5-337.4-282.3-327.4-443c0,0,64.2-202.5,324.2-179.9
		S1930.2,816,1930.2,816z"/>
	<path class="st27" d="M1362.4,813c0,0,36.6-115.5,166.5-162.3c-105.7,52.2-136.7,149.6-136.7,149.6
		c-10,160.7-29.7,451.5,327.4,443.1c31-0.7,58.1-5.6,82-13.7c-30.3,15.7-67.2,25.3-111.8,26.4
		C1332.8,1264.5,1352.4,973.7,1362.4,813z"/>
	<path class="st28" d="M1723.5,1065c15.2-0.2,27.4-13.2,27.2-29c-0.2-15.8-12.7-28.5-28-28.3c-15.2,0.2-27.4,13.2-27.2,29
		C1695.8,1052.5,1708.3,1065.2,1723.5,1065z"/>
	<path class="st29" d="M1999.2,776.7c-0.5,1.9-0.9,3.7-1.5,5.5c0,0,0,0,0,0c-0.3,1-0.6,2.1-0.9,3.1c-0.3,0.8-0.5,1.7-0.8,2.5
		c-0.4,1.2-0.8,2.4-1.2,3.6c-0.3,1-0.7,2-1,3c-0.3,0.8-0.6,1.7-0.9,2.5c-0.5,1.4-1.1,2.8-1.6,4.2c-0.5,1.2-1,2.3-1.4,3.5
		c-0.3,0.7-0.6,1.3-0.9,2c-0.2,0.4-0.4,0.9-0.6,1.3c-0.3,0.6-0.5,1.2-0.8,1.7c-0.3,0.7-0.7,1.4-1,2.2c-1,2.2-2.1,4.3-3.2,6.3
		c-0.3,0.6-0.7,1.3-1,1.9c-0.7,1.4-1.5,2.7-2.2,4c-0.3,0.5-0.6,1-0.9,1.5c-0.5,0.8-1,1.7-1.5,2.5c-0.4,0.6-0.7,1.2-1.1,1.8
		c-0.8,1.3-1.5,2.5-2.3,3.7c-0.3,0.5-0.7,1-1,1.5c-0.9,1.3-1.7,2.6-2.6,3.8c-0.4,0.6-0.8,1.1-1.2,1.7c-2.5,3.4-5,6.6-7.5,9.6
		c-0.4,0.4-0.7,0.8-1.1,1.3c-0.1,0.1-0.2,0.3-0.3,0.4c-0.4,0.4-0.8,0.9-1.2,1.3c-0.4,0.5-0.8,0.9-1.3,1.4c-2.1,2.3-4.3,4.6-6.4,6.6
		c-0.9,0.8-1.7,1.6-2.6,2.4c-0.4,0.4-0.8,0.8-1.3,1.2c-0.4,0.4-0.8,0.8-1.3,1.1c-0.8,0.7-1.7,1.4-2.5,2.1c-0.4,0.4-0.8,0.7-1.3,1
		c-0.4,0.3-0.8,0.7-1.2,1c-0.4,0.3-0.8,0.6-1.2,1c-0.9,0.7-1.8,1.4-2.8,2c-0.5,0.3-0.9,0.7-1.4,1c-0.1,0-0.1,0.1-0.2,0.1v0
		c-1.5,1-3,1.9-4.4,2.8c-0.4,0.3-0.8,0.5-1.3,0.7c-0.5,0.3-0.9,0.5-1.4,0.8c-0.5,0.2-0.9,0.5-1.4,0.7c0,0-4.4-26.9-13.7-51.7
		c0,0-15.2,21.9-41.3,37.4c-4.8,2.8-9.9,5.5-15.3,7.7c0,0,0,0,0-0.2c0,0,0-0.1,0-0.1c0-0.1,0-0.2-0.1-0.4c0-0.1-0.1-0.2-0.1-0.4
		c0-0.1-0.1-0.3-0.1-0.5c-0.2-0.7-0.4-1.6-0.7-2.8c-0.1-0.2-0.1-0.5-0.2-0.7c-0.2-0.8-0.4-1.6-0.7-2.6c-0.1-0.2-0.1-0.4-0.2-0.7
		c-0.6-2-1.3-4.4-2.2-7.1c-0.1-0.2-0.1-0.4-0.2-0.7c0-0.1-0.1-0.1-0.1-0.2c-1.1-3.2-2.3-6.8-3.8-10.8c-0.1-0.4-0.3-0.8-0.5-1.2
		c-0.9-2.4-1.9-4.9-3-7.5c-0.3-0.8-0.7-1.6-1-2.4c0-0.1-0.1-0.2-0.1-0.3c-0.2-0.4-0.4-0.9-0.6-1.3c-0.4-0.9-0.8-1.8-1.2-2.7
		c-0.3-0.7-0.6-1.4-0.9-2.1c-0.2-0.4-0.4-0.9-0.6-1.3c-1.8-4-3.9-8.2-6.1-12.5c-14.8-28.2-38.3-60.9-74.3-84.3
		c0.3,0.9,12.2,38.7,2.8,82c-0.1,0.5-0.2,1.1-0.4,1.6c-0.1,0.5-0.3,1.1-0.4,1.6c-1,4-2.1,8-3.5,12c-0.1,0.4-0.3,0.7-0.4,1.1
		c-0.4,1.2-0.8,2.3-1.3,3.5c-0.2,0.5-0.4,1-0.6,1.5c-0.4,1.1-0.9,2.2-1.3,3.3c-0.2,0.4-0.3,0.8-0.5,1.2c-0.4,0.8-0.7,1.6-1.1,2.4
		c-0.4,1-0.9,2-1.4,3c-0.3,0.6-0.6,1.2-0.9,1.8c-0.7,1.4-1.4,2.8-2.2,4.3c-1.3,2.3-2.7,4.7-4.1,7c-0.3,0.5-0.7,1.1-1,1.6
		c-0.7,1.1-1.4,2.2-2.2,3.2c-0.4,0.5-0.8,1.1-1.1,1.6c-0.1,0.1-0.1,0.2-0.2,0.3c-0.3,0.4-0.6,0.8-0.9,1.2c-0.1,0.1-0.2,0.3-0.3,0.4
		c-0.5,0.7-1,1.3-1.5,2c-0.9,1.1-1.8,2.3-2.7,3.4c-0.3,0.4-0.6,0.7-0.9,1.1c-0.8,0.9-1.6,1.8-2.4,2.7c-0.4,0.5-0.9,1-1.3,1.5
		c-1.3,1.4-2.6,2.8-4,4.1c-0.3,0.3-0.7,0.7-1,1c-1.7,1.7-3.5,3.4-5.4,5c-0.8,0.7-1.5,1.3-2.3,2c-2.3,2-4.7,3.9-7.2,5.8
		c-0.8,0.6-1.7,1.3-2.6,1.9c-0.4,0.3-0.9,0.6-1.3,0.9c-0.9,0.6-1.8,1.2-2.7,1.8c-0.9,0.6-1.8,1.2-2.7,1.8c-0.5,0.3-0.9,0.6-1.4,0.9
		c-1.4,0.9-2.9,1.8-4.4,2.7c-0.4,0.3-0.9,0.5-1.4,0.8c-1.3,0.8-2.6,1.5-3.9,2.2c-0.7,0.4-1.5,0.8-2.2,1.2c-1.6,0.8-3.2,1.7-4.8,2.5
		c0,0,0-1-0.2-2.8c0-0.1,0-0.3,0-0.4c0-0.1,0-0.2,0-0.3c0-0.4-0.1-0.8-0.1-1.3c0-0.5-0.1-1-0.1-1.6c0-0.4-0.1-0.7-0.1-1.1
		c0-0.4-0.1-0.8-0.1-1.2c0-0.4-0.1-0.8-0.1-1.3c-0.1-1.1-0.2-2.2-0.3-3.5c0-0.4-0.1-0.8-0.1-1.3c-0.1-0.9-0.2-1.9-0.3-2.9
		c-0.1-0.6-0.1-1.3-0.2-1.9c0-0.1,0-0.3,0-0.4c-0.1-0.6-0.1-1.2-0.2-1.8c0-0.3-0.1-0.6-0.1-0.9c-0.1-0.5-0.1-1.1-0.2-1.6
		c-0.1-0.4-0.1-0.8-0.2-1.2c-0.1-0.6-0.2-1.3-0.2-1.9c0-0.3-0.1-0.7-0.1-1.1c0-0.3-0.1-0.7-0.1-1c0-0.3-0.1-0.7-0.1-1
		c-0.1-0.7-0.2-1.3-0.3-2c-0.1-1.1-0.3-2.2-0.5-3.3c-0.1-0.7-0.2-1.4-0.3-2.2c-0.1-0.8-0.2-1.6-0.3-2.3c-0.1-0.7-0.2-1.5-0.3-2.2
		c-0.1-0.8-0.3-1.6-0.4-2.3c-0.2-1.1-0.4-2.2-0.6-3.4c-0.2-1.1-0.4-2.2-0.6-3.3c-0.2-1.1-0.4-2.2-0.6-3.4c-0.1-0.7-0.3-1.5-0.4-2.2
		c-0.6-3.4-1.3-6.8-2.1-10.3c-0.6-2.6-1.2-5.3-1.8-8c-0.6-2.6-1.3-5.2-2-7.9c0-0.1-0.1-0.2-0.1-0.3c-0.5-1.8-1-3.6-1.5-5.5
		c-3.6-12.8-8-25.8-13.6-38.1c-8.8-19.7-20.3-37.6-35.3-50c0,0-0.9,11.4-6.2,28.8c-0.7,2.2-1.5,4.6-2.3,7c-0.3,0.9-0.6,1.8-1,2.7
		c-0.1,0.2-0.2,0.5-0.3,0.7c-0.2,0.5-0.4,1-0.6,1.6c-0.2,0.6-0.5,1.3-0.8,1.9c0,0.1-0.1,0.1-0.1,0.2c-0.2,0.6-0.5,1.2-0.7,1.8
		c-0.3,0.7-0.5,1.3-0.8,2c-0.3,0.6-0.5,1.3-0.8,1.9c0,0.2-0.1,0.3-0.2,0.5c-0.4,1-0.9,2.1-1.4,3.2c-0.1,0.2-0.2,0.5-0.3,0.7
		c-0.6,1.4-1.3,2.8-2,4.2c-0.3,0.7-0.7,1.4-1.1,2.2c-0.3,0.7-0.7,1.5-1.1,2.2c-0.4,0.7-0.8,1.5-1.1,2.2c-0.4,0.8-0.8,1.6-1.3,2.4
		c-0.4,0.7-0.7,1.4-1.1,2.1c-0.4,0.7-0.8,1.5-1.3,2.3c-0.4,0.6-0.7,1.2-1.1,1.9c-0.1,0.1-0.2,0.3-0.3,0.4c-1.8,3-3.7,6.1-5.7,9.2
		c0,0,0,0,0,0c-0.5,0.8-1,1.5-1.5,2.3c-0.5,0.7-1,1.4-1.4,2.1c-0.6,0.8-1.2,1.7-1.8,2.5c-0.6,0.8-1.1,1.6-1.7,2.3
		c-0.6,0.8-1.1,1.5-1.7,2.3c0,0-0.1,0.1-0.1,0.1c-0.6,0.8-1.2,1.6-1.8,2.3c-1.2,1.6-2.5,3.2-3.8,4.7c0,0,0,0,0,0
		c-0.6,0.8-1.3,1.6-2,2.4c-0.7,0.8-1.3,1.6-2,2.4c-0.7,0.8-1.4,1.6-2.1,2.3c0,0-0.1,0.1-0.1,0.1c-0.7,0.8-1.4,1.5-2,2.2
		c-0.8,0.8-1.6,1.7-2.4,2.5c-0.7,0.7-1.4,1.4-2.1,2.2c-0.8,0.8-1.6,1.6-2.4,2.5c-0.7,0.7-1.5,1.5-2.3,2.2c-0.1,0.1-0.1,0.1-0.2,0.2
		c-0.8,0.7-1.5,1.4-2.3,2.2c-0.4,0.3-0.7,0.7-1.1,1h0c-0.4,0.4-0.8,0.7-1.2,1.1c-0.4,0.3-0.7,0.7-1.1,1c-0.6,0.5-1.1,1-1.7,1.5
		c-0.9,0.8-1.7,1.5-2.6,2.3c-0.9,0.8-1.9,1.6-2.8,2.4c-0.9,0.7-1.7,1.4-2.6,2.1c-0.9,0.8-1.9,1.5-2.8,2.2c-1.9,1.5-3.8,3-5.8,4.4
		c-0.9,0.6-1.7,1.3-2.6,1.9c-1.2,0.8-2.3,1.7-3.5,2.5c-0.9,0.6-1.7,1.2-2.6,1.7c-0.2,0.2-0.5,0.3-0.8,0.5c-1,0.7-2,1.3-3.1,2
		c-1,0.6-2,1.3-3,1.9c-0.2,0.1-0.4,0.3-0.7,0.4c-1,0.6-2,1.2-3.1,1.9c-1.1,0.7-2.3,1.4-3.4,2c-2.3,1.3-4.7,2.7-7.1,4
		c-1.2,0.7-2.4,1.3-3.7,2c-1.2,0.6-2.5,1.3-3.8,1.9c-2.5,1.3-5.1,2.5-7.7,3.8c-1.3,0.6-2.6,1.2-4,1.8c-4,1.8-8.2,3.6-12.4,5.3
		c-0.7,0.3-1.4,0.6-2.1,0.8c-1.4,0.6-2.9,1.1-4.3,1.7c-0.7,0.3-1.5,0.5-2.2,0.8c-0.7,0.3-1.5,0.5-2.2,0.8c-0.7,0.3-1.5,0.5-2.2,0.8
		s-1.5,0.5-2.3,0.8c-1.6,0.5-3.1,1.1-4.7,1.6c-1.5,0.5-3,1-4.6,1.4c-0.1,0-0.2,0.1-0.4,0.1c0,0,0,0,0,0c-0.7,0.2-1.3,0.4-2,0.6
		c-4,1.2-8,2.4-12.2,3.4c-1.5,0.4-3.1,0.8-4.7,1.2c-2.1,0.5-4.1,1-6.2,1.5c-0.6,0.2-1.2,0.3-1.8,0.4c-4,0.9-8,1.8-12.2,2.6
		c-1.3,0.3-2.5,0.5-3.8,0.7c0,0,0,0,0,0c-1.4,0.3-2.8,0.5-4.2,0.8c-1.4,0.3-2.7,0.5-4.1,0.7c-0.9,0.2-1.9,0.3-2.8,0.5
		c-0.8,0.1-1.7,0.3-2.5,0.4c-0.4,0.1-0.7,0.1-1.1,0.2c-0.4,0.1-0.8,0.1-1.2,0.2c-0.9,0.1-1.7,0.3-2.6,0.4c-0.8,0.1-1.7,0.3-2.5,0.4
		c-0.5,0.1-1,0.1-1.6,0.2c-1.1,0.2-2.2,0.3-3.4,0.4c-1.5,0.2-3,0.4-4.5,0.6c-0.3,0-0.7,0.1-1,0.1c-1.2,0.1-2.4,0.3-3.6,0.4
		c-1.1,0.1-2.2,0.2-3.3,0.4c-0.7,0.1-1.5,0.2-2.2,0.2c-1.8,0.2-3.6,0.4-5.4,0.5c-2.7,0.2-5.4,0.5-8.2,0.7c-1.5,0.1-3.1,0.2-4.6,0.3
		c-0.2,0-0.4,0-0.6,0c-1.4,0.1-2.9,0.2-4.3,0.3c-2.9,0.2-5.8,0.3-8.8,0.4c-0.8,0-1.5,0.1-2.3,0.1c-1.3,0-2.6,0.1-3.8,0.1
		c-1.4,0.1-2.9,0.1-4.4,0.1c-1,0-2,0-3,0.1c-2.3,0-4.6,0.1-6.9,0.1c-0.9,0-1.9,0-2.8,0c-5.4,0-10.8,0-16.4-0.1
		c-1.5,0-2.9-0.1-4.4-0.1c0,0-0.6-1.7-1.6-4.8c-0.2-0.5-0.3-1-0.5-1.5c-0.7-2.1-1.5-4.8-2.4-7.9c-0.2-0.5-0.3-1.1-0.5-1.6
		c-0.2-0.5-0.3-1.1-0.5-1.7c-0.6-2-1.2-4.1-1.8-6.4c-0.2-0.7-0.4-1.3-0.5-2c-0.1-0.3-0.2-0.7-0.3-1c-0.3-1-0.5-2.1-0.8-3.2
		c-0.1-0.4-0.2-0.7-0.3-1.1c-0.4-1.5-0.8-3-1.1-4.6c-6.8-28.2-14.4-70.5-14.2-118.3c0-1.5,0-3.1,0-4.6c0-1.3,0-2.5,0.1-3.8
		c0.3-12.1,1.1-24.6,2.6-37.2c1.4-11.9,3.3-23.9,6-36c0.6-2.8,1.3-5.6,2-8.5c8.9-35.8,24.1-71.6,48.7-104.4
		c7.2-9.6,15.1-18.9,23.9-27.9c2.5-2.6,5.1-5.1,7.8-7.6c1.3-1.3,2.7-2.5,4-3.7c2-1.9,4.1-3.7,6.3-5.5c0.7-0.6,1.4-1.2,2.2-1.8
		c2.9-2.4,5.8-4.8,8.9-7.2c1.5-1.2,3.1-2.3,4.6-3.5c0.8-0.6,1.6-1.2,2.3-1.7c0.8-0.6,1.6-1.1,2.4-1.7c0.8-0.6,1.6-1.1,2.4-1.7
		c0.8-0.6,1.6-1.1,2.4-1.7c0.8-0.6,1.6-1.1,2.5-1.7c1.7-1.1,3.3-2.2,5-3.3c0.8-0.5,1.7-1.1,2.6-1.6c11.6-7.3,24-14.3,37.5-20.7
		c39.9-19.1,88.4-33.8,147.3-42.4c0,0,71.1-14.2,156.1,1.6c37.6,7,77.8,19.8,115.9,42.2c30.2,17.8,58.9,41.7,83.8,73.5
		C2004.5,650,2012.7,722.2,1999.2,776.7z"/>
	<path class="st30" d="M1763.5,811.7c-7.5,34.4-28.5,72.3-79.6,97.9c0,0-3.1-70.9-28.3-127.2
		C1689.7,798.1,1726.2,808.1,1763.5,811.7z"/>
	<path class="st30" d="M1999.2,776.7c-13.4,54-48.2,90.7-71.3,102.1c0,0-4.4-26.9-13.7-51.7c0,0-21.3,30.6-56.7,45.1
		c0,0-5.6-26.2-22.4-58.2C1891.7,812.2,1947.4,799.5,1999.2,776.7L1999.2,776.7z"/>
	<path class="st30" d="M1400.2,514c14.7,56.2,42.4,105.8,83.3,148.8c36,44,79.6,76.8,130.6,98.3c-17.6,57-83.6,178.1-326.1,172.3
		C1288,933.4,1185.6,650.4,1400.2,514z"/>
	<path class="st31" d="M1943.9,666.8c11.9-11.7-15-58.3-60-104c-45.1-45.7-91.2-73.3-103.1-61.6c-11.9,11.7,15,58.3,60.1,104
		C1885.8,650.9,1932,678.5,1943.9,666.8z"/>
	<path class="st31" d="M1787.7,619c8-7.8,2.8-26-11.5-40.5c-14.3-14.5-32.4-20-40.3-12.1c-8,7.8-2.8,26,11.5,40.5
		C1761.7,621.4,1779.7,626.9,1787.7,619z"/>
	<path class="st32" d="M1697.8,1109.9c-40.5,1.6-75.7,17.5-96.5,40.4c-18.6-20.5-29.8-46.9-29.7-75.7l249.4,25
		c-7.4,26.5-8.1,25.3-21.9,44.6C1776.5,1122,1739.3,1108.3,1697.8,1109.9z"/>
	<path class="st33" d="M1696.9,1191.8c-38.4-0.2-72.7-16.3-95.6-41.5c20.9-22.9,56.1-38.7,96.5-40.4c41.5-1.7,78.7,12,101.2,34.2
		C1776,1173.2,1738.8,1192,1696.9,1191.8z"/>
	<path class="st34" d="M1569,1042.6c22.6-0.7,40.1-27.8,39.2-60.5c-1-32.7-20.1-58.7-42.7-58c-22.6,0.7-40.1,27.8-39.2,60.5
		C1527.2,1017.3,1546.4,1043.2,1569,1042.6z"/>
	<path class="st35" d="M1601.6,976c8.1-1.7,13.1-10.6,11.1-19.9c-2-9.3-10.1-15.4-18.2-13.7c-8.1,1.7-13.1,10.6-11.1,19.9
		C1585.3,971.6,1593.5,977.7,1601.6,976z"/>
	<path class="st35" d="M1882.3,948.6c1.2,6.8-1.6,13.2-6.4,16.4c-0.8-10.6-4-20.8-9.4-29.9C1873.9,934.2,1880.8,940.1,1882.3,948.6z
		"/>
	<path class="st34" d="M1838.3,916.7c11.2,0.1,21.3,7.2,28.2,18.4l-0.8,0.1c-7.6,1.3-12.6,9.5-11,18.3c1.6,8.8,9,14.8,16.6,13.4
		c1.7-0.3,3.3-0.9,4.7-1.9c0.2,2.4,0.3,4.8,0.3,7.3c-0.2,30.6-17.5,55.3-38.6,55.2c-21.1-0.1-38.1-25-37.9-55.6
		C1799.9,941.2,1817.2,916.5,1838.3,916.7z"/>
	<path class="st35" d="M1854.7,953.4c-1.5-8.8,3.4-16.9,11-18.3l0.8-0.1c5.4,9.1,8.6,19.3,9.4,29.9c-1.4,0.9-3,1.6-4.7,1.9
		C1863.6,968.1,1856.2,962.1,1854.7,953.4z"/>
	<path class="st36" d="M1491.4,884.4c0,0,49.7-73,122.7,8.8"/>
	<path class="st36" d="M1784,884.4c0,0,49.7-73,122.7,8.8"/>
	<path class="st37" d="M2710.8,1932.1c-0.1,2.1-0.3,4.1-0.5,6.1c-1.8,1.5-3.7,2.9-5.9,4.2c-31.7,19.8-101.2,25.9-134.4,13.5
		c-1.7-0.6-3.2-1.3-4.7-2c-0.9-0.4-1.7-0.9-2.6-1.3c-0.8-0.5-1.6-0.9-2.3-1.4c-1.5-1-2.8-2.1-3.9-3.2c-0.2-0.2-0.4-0.4-0.6-0.6
		c-0.5-0.6-1-1.2-1.5-1.8c-0.3-0.4-0.6-0.8-0.8-1.3c-0.3-0.4-0.5-0.9-0.7-1.3c-0.2-0.4-0.4-0.9-0.6-1.3c-0.2-0.5-0.3-0.9-0.4-1.4
		c-0.5-1.8-1-3.5-1.5-5.1c-0.4-1.3-0.9-2.6-1.4-3.7c-0.1-0.2-0.2-0.5-0.3-0.7c-0.2-0.4-0.4-0.9-0.6-1.3c0,0,0,0,0,0
		c-0.4-0.8-0.8-1.6-1.3-2.4c-0.1-0.1-0.1-0.2-0.2-0.3c-0.1-0.1-0.1-0.2-0.2-0.3c-0.6-0.9-1.1-1.7-1.7-2.5c-5-6.4-10.9-8-16-7.9
		c0,0,0,0,0-0.1c7.1-19,23-29.2,35.9-34.5c10.4-4.3,18.8-5.4,18.8-5.4l112,1c0,0,3.6,0.2,7.4,5.6c3.2,4.6,6.4,12.8,7.6,27.7
		c0.1,1.8,0.3,3.7,0.3,5.7v0c0,0.8,0.1,1.7,0.1,2.6C2711.1,1922.8,2711,1927.3,2710.8,1932.1z"/>
	<path class="st19" d="M2710.3,1938.2c-0.8,5.7-2.2,10.7-4.2,15.1c-14.7,32.9-58.4,33.4-58.4,33.4s-116.5,19.6-122.2-41.3
		c-0.6-6.1-0.4-11.8,0.3-16.9c0.6-4.5,1.7-8.7,3.1-12.5c0,0,0,0,0,0c5.1-0.1,11,1.5,16,7.9c0.6,0.8,1.2,1.6,1.7,2.5
		c0,0.1,0.1,0.2,0.2,0.3c0.1,0.1,0.1,0.2,0.2,0.3c0.4,0.7,0.9,1.5,1.3,2.4c0,0,0,0,0,0c0.2,0.4,0.4,0.8,0.6,1.3
		c0.1,0.2,0.2,0.5,0.3,0.7c0.5,1.1,1,2.4,1.4,3.7c0.5,1.6,1,3.3,1.5,5.1c0.1,0.5,0.3,0.9,0.4,1.4c0.2,0.4,0.3,0.9,0.6,1.3
		c0.2,0.4,0.4,0.9,0.7,1.3c0.3,0.4,0.5,0.9,0.8,1.3c0.4,0.6,0.9,1.2,1.5,1.8c0.2,0.2,0.4,0.4,0.6,0.6c1.1,1.1,2.4,2.2,3.9,3.2
		c0.7,0.5,1.5,1,2.3,1.4c0.8,0.5,1.7,0.9,2.6,1.3c1.5,0.7,3,1.4,4.7,2c33.2,12.4,102.7,6.3,134.4-13.5
		C2706.6,1941,2708.5,1939.6,2710.3,1938.2z"/>
	<path class="st11" d="M2693.2,1795.1l10.5,85.9h-0.2c0,0.6-0.2,1.2-0.6,1.7c-4.5,7.1-33.6,12.5-68.8,12.5
		c-37.2,0-67.5-6.1-69.3-13.7c-0.1-0.2-0.1-0.4-0.1-0.6h-0.2l-8.4-69.2c-3.5-29-3.7-58.4-0.6-87.5l13.1-121.7l1.1-10l137.4,14.8
		l-6.6,61.6l-7.6,70.2C2690.8,1757.7,2691,1776.5,2693.2,1795.1z"/>
	<path class="st37" d="M2890,1932.1c-0.1,2.1-0.3,4.1-0.5,6.1c-28,23.1-104.8,31-140.3,17.7c-1.7-0.6-3.2-1.3-4.7-2
		c-0.9-0.4-1.7-0.9-2.6-1.3c-0.8-0.5-1.6-0.9-2.3-1.4c-1.5-1-2.8-2.1-3.9-3.2c-0.2-0.2-0.4-0.4-0.6-0.6c-0.5-0.6-1-1.2-1.5-1.8
		c-0.3-0.4-0.6-0.8-0.8-1.3c-0.3-0.4-0.5-0.9-0.7-1.3s-0.4-0.9-0.6-1.3c-0.2-0.5-0.3-0.9-0.4-1.4c-0.5-1.8-1-3.5-1.5-5.1
		c-0.4-1.3-0.9-2.6-1.4-3.7c0,0,0,0,0,0c-0.3-0.7-0.6-1.3-0.9-2c0,0,0,0,0,0c-0.4-0.8-0.9-1.6-1.3-2.4c0,0,0,0,0,0
		c-2.4-4-5.1-6.6-7.8-8.3c-2.4-1.5-5-2.2-7.4-2.5c-1-0.1-1.9-0.2-2.8-0.1c0,0,0,0,0-0.1c0.7-2,1.6-3.8,2.5-5.6
		c7.9-15.4,21.9-24.1,33.4-28.9c10.4-4.3,18.8-5.4,18.8-5.4l111.9,1c0,0,3.6,0.2,7.4,5.6c3.9,5.6,7.8,16.6,8.1,38.5
		C2890.2,1924.6,2890.1,1928.2,2890,1932.1z"/>
	<path class="st19" d="M2731.2,1940.2c-5-20.2-15.2-24.4-23.2-24.2c-3,8.1-4.5,17.8-3.4,29.4c5.7,60.9,122.2,41.3,122.2,41.3
		s56.2-0.7,62.6-48.5C2853.8,1967.5,2739.2,1972.3,2731.2,1940.2z"/>
	<path class="st11" d="M2886.2,1607.4l-1.1,10.6l-1,9.6l-6.1,56.2l-6,55.3c-2,18.6-1.9,37.4,0.4,55.9l10.5,85.9h-0.2
		c0,0.6-0.2,1.2-0.6,1.7c-4.5,7.1-33.6,12.5-68.8,12.5c-37.2,0-67.5-6.1-69.3-13.7c0-0.2-0.1-0.4-0.1-0.6h-0.2l-8.4-69.2
		c-3.5-29-3.7-58.4-0.6-87.5l5.7-53l8.2-75.9l0.3-2.8l24.6,2.7l43.8,4.7l55.2,5.9L2886.2,1607.4z"/>
	<path class="st38" d="M2676.6,1167.9c-0.1,1.2-0.8,9.7-3.8,23c-2.9,13.3-8,31.5-16.9,52.1c-1.3,2.9-2.6,5.9-4,8.9c0,0,0,0,0,0
		c-4.6,9.8-10.2,20.1-16.7,30.6c-8,12.9-17.6,26.1-29.1,39.1c-9.2,10.5-19.7,20.9-31.5,31c-8.1,6.9-16.6,13.5-25.5,19.6
		c-64.1,44.6-147.1,69-247.7,72.9c-19.5,0.8-36.6,0.6-54.9-0.3c-12.2-0.6-25.1-1.5-39.5-2.7l0-103c11.7,1,23.2,1.7,34.4,2.2
		c68.1,2.9,127.3-3.6,176.3-19.4c0.3-0.1,0.6-0.2,0.9-0.3c42.7-13.9,77.7-34.8,104-62.3c15.3-15.9,26-32.3,33.5-47
		c0.7-1.3,1.3-2.6,2-4c12.9-26.8,15.1-47.4,15.2-48.8v0.6l31.3,2.4l30.5,2.3L2676.6,1167.9z"/>
	<path class="st11" d="M2947.4,1523.3c0,0-0.7,4.8-2.9,12.6c-4.6,16.1-15.5,45.1-39.8,72.1c-4.4,5-9.3,9.9-14.8,14.6
		c-1.9,1.7-3.9,3.3-5.9,5c-19.2,15.4-44,28.7-76,36.5c-19.7,4.8-42.1,7.5-67.7,7.2c-0.9,0-1.8,0-2.7,0c-13.3-0.2-25.7-1-37.2-2.3
		c-76.1-8.5-113.5-38.7-131.8-66.4c-10.9-16.4-15.1-31.9-16.8-41.5c-1-6.1-1.1-9.8-1.1-9.9l96.3-6.8l8.5-0.6l5.5-0.4l217.2-15.3
		l4.6-0.3l23.2-1.6l0.2,0L2947.4,1523.3z"/>
	<path class="st17" d="M2944.5,1535.9c-13.5,16-36.8,31.8-70.8,43.1c-7.1,2.4-14.7,4.5-22.7,6.5c-8.1,1.9-16.6,3.6-25.6,5.1
		c-15.8,2.5-33.1,4.2-51.9,4.7c-8,0.3-16.3,0.3-24.9,0.2c-16-0.3-32.9-1.3-50.8-3.1c-86-8.8-126.7-16.3-145.9-31.2
		c-2.3-1.8-4.3-3.7-6-5.7c-13.9-16.2-9.9-37.2-5.9-48.9c1.8-5.4,3.7-8.8,3.7-8.8c28.9,16.4,64.9,24.8,103.3,27.8
		c4.6,0.4,9.3,0.7,14,0.9c83.2,3.9,175.2-14.8,232.2-29.2c5.4-1.4,10.6-2.7,15.4-4c15.3-4.1,26.9-7.6,33.6-9.6c4.1-1.3,6.3-2,6.3-2
		c3.7,3.1,6.4,6.7,8.1,10.8C2961.4,1504.5,2957.6,1520.3,2944.5,1535.9z"/>
	<path class="st19" d="M2956.4,1492.4c-11.2,12.8-28,24.3-50.3,33.7c-0.1,0-0.2,0.1-0.3,0.1c-9.1,3.8-19.2,7.3-30.1,10.4
		c-1.1,0.3-2.3,0.6-3.4,0.9c-51.6,13.7-122.4,18.2-211.3,6.9c-0.3,0-0.5-0.1-0.8-0.1c-1.6-0.2-3.2-0.4-4.7-0.6
		c-2.9-0.4-5.8-0.8-8.6-1.2c-59.8-8.6-91.6-20.3-107.1-36.1c-27.1-27.6-3.8-67.7,7.5-125.2c9.1,5,20.1,9.9,33.4,14.3
		c18.6,6.2,41.5,11.4,69.8,14.4c4.6,0.5,9.2,0.9,14.1,1.3c58.1,4.3,136.6-0.6,242.1-23.9c4.8-1.1,9.7-2.2,14.6-3.3
		c6.9-1.6,14-3.3,21.1-5.1c5.7,10.9,12.3,15.6,18.3,26.4c4.4,7.9,8.5,19.2,11.6,38.7C2974.9,1460.8,2969.6,1477.5,2956.4,1492.4z"/>
	<path class="st38" d="M2942.4,1379c-7.1,1.8-14.2,3.4-21.1,5.1c-4.9,1.1-9.8,2.2-14.6,3.3c-105.5,23.3-184,28.2-242.1,23.9
		c-4.8-0.3-9.5-0.8-14.1-1.3c-28.3-3-51.2-8.2-69.8-14.4c-13.3-4.4-24.3-9.4-33.4-14.3c0.6-3,1.2-6.1,1.7-9.1
		c2.5-14.8,3.7-29.8,3.7-44.8c0-2,0-3.9-0.1-5.8c-0.2-44.2,1.9-80.2,4.8-108.2c0.2-1.7,0.3-3.4,0.5-5c5.2-47.8,12.3-70.8,12.3-70.8
		l10.6-1.1l16.9-1.8l37.3-3.9l102.7-10.8l3.2-0.3l66.3-7l44-4.6l41.8-4.4c12.6,5.2,22.7,25.1,30.4,52.2c3,10.4,5.6,22,7.8,34.1
		c0,0,0,0,0,0c0.2,1.3,0.5,2.6,0.7,3.9c4.3,24.7,7.2,51.9,8.6,77.9c0.9,17.2,1.1,34,0.7,49.2c-0.1,4.8-0.4,10.5-0.6,16.5
		C2940,1354.4,2939.5,1373.4,2942.4,1379z"/>
	<path class="st17" d="M2647.2,1553.9c0-0.6-1.6-55.4,2.1-122.3c4.9-90.3,16.6-158.5,34.6-202.7l13,5.3
		c-41.7,102.4-35.7,317.2-35.7,319.3L2647.2,1553.9z"/>
	<path class="st22" d="M2848.7,1565.4c0,0,43.9-35.6,57.5-116.7c7.6-44.9-6.7-105.4-13.1-177.5
		C2893.1,1271.2,3072.3,1443.9,2848.7,1565.4z"/>
	<path class="st23" d="M2915.6,1647c-3.2,8.5-10.1,16.8-19.9,25.4c-5.3,4.7-11.4,8.6-17.8,11.4c-21.6,9.8-47.1,8.5-63.3-10.1
		c-2.7-3.1-4.9-6.3-6.6-9.7c-10.5-20.2-4.8-44.9,9.2-64.1c1.9-2.7,4.1-5.2,6.3-7.7c0.6-0.6,1.2-1.2,1.7-1.8
		c6.1-6.2,11.8-10.4,17.3-13c11.5-5.4,21.7-3.8,31.1,1.5c11.5,6.5,21.7,18.3,31,29c0.2,0.2,0.3,0.4,0.5,0.5
		C2917.5,1622.5,2920.2,1635,2915.6,1647z"/>
	<path class="st38" d="M3026.8,1497.7c-38,73.7-107.5,147-110.4,150l-0.8-0.8l-25.6-24.4l-4.9-4.7l-12.6-12.1l-21.5-20.5l-8.3-8
		l-1.3-1.2c0.2-0.2,4.9-5.1,12.2-13.5c5.9-6.7,13.6-15.7,22.1-26.1c2.3-2.9,4.7-5.8,7.1-8.9c8.4-10.6,17.2-22.3,25.6-34.6
		c9.6-14,18.8-28.6,26.2-43c0.1-0.2,5.8-16.7-13.3-66.2c-3.8-9.9-8.7-21.2-14.8-33.9c-1.8-3.7-3.6-7.4-5.5-11.1c0,0,0,0,0,0
		c-5.6-11-11.4-21.9-17.5-32.7c-6.6-11.7-13.6-23.3-20.8-34.6c-1.6-2.5-3.3-5.1-4.9-7.6c-2.8-4.1-4.9-8.6-6.4-13.3
		c-1.5-4.8-2.3-9.9-2.4-14.9c0,0,0,0,0,0c-0.1-3.5,0.3-7.1,1-10.6c0.4-1.9,0.9-3.9,1.5-5.7c1.4-4.5,3.4-8.7,6-12.6
		c3.8-5.8,8.7-10.8,14.5-14.7c6.5-4.4,13.9-7.2,21.6-8.3c5.7-0.8,11.6-0.7,17.3,0.4c6.6,1.3,12.9,3.8,18.4,7.5c0,0,0,0,0,0
		c1,0.7,2,1.3,2.9,2.1c4.5,3.4,8.5,7.6,11.7,12.4c14,21.3,27,43.1,39.1,65.5c6.2,11.6,12.2,23.3,17.9,35.1
		C3041,1391.3,3049.5,1453.8,3026.8,1497.7z"/>
	<path class="st39" d="M2452,978.3c0,0-111.3-132.8-19.3-364.8s529.1-108.6,529.1-108.6s279.3,166.2,87.6,531.6L2452,978.3z"/>
	<path class="st25" d="M3040.9,1107.2c43.9-10.7,70.4-56.1,59.4-101.5c-11.1-45.4-55.6-73.5-99.4-62.8
		c-43.8,10.7-70.4,56.1-59.4,101.5C2952.6,1089.7,2997.1,1117.8,3040.9,1107.2z"/>
	<path class="st26" d="M3056.1,1062.9c21.9-21.9,21.9-57.4,0-79.3c-21.9-21.9-57.4-21.9-79.3,0c-21.9,21.9-21.9,57.4,0,79.3
		C2998.7,1084.8,3034.2,1084.8,3056.1,1062.9z"/>
	<path class="st25" d="M2522,1048.9c29.9-29.9,29.9-78.3,0-108.1c-29.9-29.9-78.3-29.9-108.2,0c-29.9,29.9-29.9,78.3,0,108.1
		C2443.8,1078.8,2492.2,1078.8,2522,1048.9z"/>
	<path class="st26" d="M2511.6,1013.8c10.1-27.2-3.7-57.4-30.9-67.5s-57.4,3.7-67.5,30.9c-10.1,27.2,3.7,57.4,30.9,67.5
		C2471.3,1054.8,2501.6,1041,2511.6,1013.8z"/>
	<path class="st23" d="M2455.5,816c0,0-74.8,432.6,240.3,440c357.1,8.5,337.4-282.3,327.4-443c0,0-64.2-202.5-324.2-179.9
		S2455.5,816,2455.5,816z"/>
	<path class="st27" d="M3023.2,813c0,0-36.6-115.5-166.5-162.3c105.7,52.2,136.7,149.6,136.7,149.6c10,160.7,29.7,451.5-327.4,443.1
		c-30.9-0.7-58.1-5.6-82-13.7c30.3,15.7,67.2,25.3,111.8,26.4C3052.9,1264.5,3033.2,973.7,3023.2,813z"/>
	<path class="st28" d="M2689.7,1036.4c0.2-15.8-12-28.8-27.2-29c-15.2-0.2-27.8,12.5-28,28.3c-0.2,15.8,12,28.8,27.2,29
		C2677,1064.9,2689.5,1052.2,2689.7,1036.4z"/>
	<path class="st32" d="M2687.8,1109.9c40.5,1.6,75.7,17.5,96.5,40.4c18.6-20.5,29.8-46.9,29.7-75.7l-249.4,25
		c7.4,26.5,8.1,25.3,21.9,44.6C2609.1,1122,2646.3,1108.3,2687.8,1109.9z"/>
	<path class="st33" d="M2688.8,1191.8c38.4-0.2,72.6-16.3,95.6-41.5c-20.9-22.9-56.1-38.7-96.5-40.4c-41.5-1.7-78.8,12-101.2,34.2
		C2609.6,1173.2,2646.8,1192,2688.8,1191.8z"/>
	<path class="st34" d="M2860.5,984.2c1-32.7-16.6-59.8-39.1-60.4c-22.6-0.7-41.7,25.3-42.7,58c-1,32.7,16.5,59.8,39.1,60.4
		C2840.4,1042.8,2859.5,1016.9,2860.5,984.2z"/>
	<path class="st35" d="M2802.2,962.2c2-9.3-3-18.2-11.1-19.9c-8.1-1.7-16.3,4.4-18.3,13.7c-2,9.3,3,18.2,11.1,19.9
		C2792.1,977.7,2800.3,971.5,2802.2,962.2z"/>
	<path class="st35" d="M2503.3,948.6c-1.2,6.8,1.5,13.2,6.4,16.4c0.8-10.6,4-20.8,9.4-29.9C2511.8,934.2,2504.8,940.1,2503.3,948.6z
		"/>
	<path class="st34" d="M2547.3,916.7c-11.3,0.1-21.3,7.2-28.2,18.4l0.8,0.1c7.6,1.3,12.6,9.5,11,18.3c-1.6,8.8-8.9,14.8-16.6,13.4
		c-1.7-0.3-3.2-0.9-4.7-1.9c-0.2,2.4-0.3,4.8-0.3,7.3c0.2,30.6,17.5,55.3,38.6,55.2c21.1-0.1,38.1-25,37.9-55.6
		C2585.7,941.2,2568.5,916.5,2547.3,916.7z"/>
	<path class="st35" d="M2531,953.4c1.5-8.8-3.4-16.9-11-18.3l-0.8-0.1c-5.4,9.1-8.6,19.3-9.4,29.9c1.4,0.9,3,1.6,4.6,1.9
		C2522,968.1,2529.4,962.1,2531,953.4z"/>
	<path class="st36" d="M2894.2,884.4c0,0-49.7-73-122.7,8.8"/>
	<path class="st36" d="M2601.6,884.4c0,0-49.7-73-122.7,8.8"/>
	<path class="st40" d="M3123.4,756.6c0,4.8-0.1,9.6-0.1,14.3c-1.8,89.3-20.8,153.1-42.5,197.4c-0.1,0.3-0.3,0.5-0.4,0.8
		c-4.9,9.9-9.9,18.8-14.9,26.8c-10.6,17-21.2,29.8-30.1,39.2c-1.4,1.6-2.9,3-4.2,4.3c-11.3,11.1-19,16-19.5,16.3
		c-0.1,0-0.2,0-0.2-0.1v0c-10.6-3.6-20.1-9.6-28.6-17.5c-3-2.8-6-5.8-8.8-9.1c-4.5-5.2-8.7-10.9-12.6-17c-5.1-8-9.7-16.7-13.9-25.9
		c-31.8-69.6-37.9-163.8-37.9-163.8c0,0,0,0,0,0c-19.9,5.6-39.1,10.7-57.8,15.2c-0.2,0-0.4,0.1-0.6,0.1c-1.5,0.4-3,0.7-4.5,1.1
		c-15.2,3.6-30.1,6.8-44.5,9.7c-21.2,4.2-41.6,7.7-61.3,10.5c-38.1,5.4-73.3,8.2-105.9,8.9c-17.8,0.4-34.8,0.1-51-0.7
		c-22.7-1.2-43.9-3.4-63.7-6.6c-25.2-4-48-9.5-68.7-16.1c-20-6.3-38-13.5-54.1-21.4c-50-24.2-82.7-54-103-78.1
		c-9.6-11.4-9.7-26.6-2.5-37.9c0,0,0,0,0,0c1.1-1.7,2.3-3.4,3.8-4.9c0,0,0,0,0,0c0.3-0.3,0.6-0.6,0.9-0.9c0.6-0.5,1.1-1.1,1.7-1.6
		c1.3-1.1,2.8-2.2,4.3-3.1c0.3-0.2,0.6-0.4,1-0.6c1.6-0.9,3.3-1.7,5.1-2.3c1.9-0.7,3.8-1.4,5.6-2.2c0.9-0.3,1.7-0.7,2.6-1.1
		c1.1-0.5,2.1-0.9,3.1-1.4c0.7-0.3,1.5-0.7,2.2-1c1.8-0.8,3.5-1.8,5.3-2.7c0.9-0.5,1.8-0.9,2.6-1.4c7-3.9,13.8-8.3,20.4-13.3
		c58.6-43.3,107.2-123.4,185-175.9c28.6-19.3,61.1-34.9,99.4-43.6c14-3.2,28.8-5.5,44.5-6.7c65.3-5,126.2-2.2,180.6,8.7
		c66.7,13.3,123.7,38.7,167.4,76.3c39,33.5,67.4,76.7,82.8,129.8c2.8,9.7,5.2,19.8,7.1,30.1c0.5,2.5,0.9,5,1.3,7.5c0,0,0,0,0,0.1
		c0.3,1.8,0.6,3.7,0.8,5.6c0.5,3.2,0.9,6.5,1.3,9.8c0.4,3.3,0.7,6.6,1,10C3122.9,733.2,3123.4,744.8,3123.4,756.6z"/>
	<path class="st41" d="M2913.1,466.9c-5.1,23.2-13.3,45.7-24.4,66.7c-14.2,43.5-38.4,81.2-72.6,113c-31.8,34.2-69.5,58.4-113,72.6
		c-41.8,22-86.9,32.1-135.3,30.2c-63.4-0.2-122.4-16.2-177.2-47.9l-40-30.9c-13.3,9.8-27.1,17.8-41.9,23.1
		c-21.4,7.7-28.9,34-14.2,51.3c59.3,70.3,223.3,188.6,615.2,77.3c0,0,13.1,203.8,101.9,233.4c0,0,111.8-69,111.8-299.1
		C3123.4,605,3042,509,2913.1,466.9z"/>
	<path class="st42" d="M2553,602.6c26.9-27,39.8-57.8,28.7-69c-11.1-11.1-42,1.7-68.9,28.7c-27,27-39.8,57.8-28.7,69
		C2495.2,642.4,2526.1,629.5,2553,602.6z"/>
	<path class="st23" d="M2275.4,1393.8v1.1c0,21.3-11.6,39.9-28.9,49.9c-8.4,4.9-18.2,7.7-28.7,7.7h-31.8c-11.1,0-21.5-3.2-30.3-8.6
		c-16.3-10.1-27.2-28.3-27.2-48.9v-1.1c0-24.4,15.2-45.3,36.7-53.7c6.4-2.5,13.5-3.9,20.8-3.9h31.8c8.4,0,16.4,1.8,23.6,5
		C2261.4,1350.3,2275.4,1370.4,2275.4,1393.8z"/>
</g>
<g id="Layer_2" class="st43">
	<path class="st44" d="M4146.4,689.3c-1.1-40.5-10.7-82.2-33.2-122h144.2V12.6h-883.8v554.6h32.4c-22.4,39.8-32.1,81.6-33.1,122
		h-171.2V0h-174.1v0.1h-167.4v453c-54.4-10.9-115.3-13.7-180.6-8.7c-15.7,1.2-30.5,3.5-44.5,6.7v-88.6h-894.1v90.1
		c-85-15.7-156.1-1.6-156.1-1.6c-58.9,8.6-107.5,23.4-147.3,42.4V1h-166.4V0.1L1097.1,0v1h-1v688.2h-52
		c-1.1-40.5-10.7-82.2-33.2-122.1h10.6V12.5H137.7v554.7h166.1c-22.5,39.8-32.1,81.6-33.2,122.1H0v613.4h112.5v-30.9h233
		c-0.1,0.2-0.3,0.5-0.4,0.7c-0.6,1-1.1,1.9-1.6,2.9c-0.3,0.5-0.5,1-0.7,1.5c-0.2,0.5-0.5,1-0.7,1.5c-0.2,0.5-0.5,1-0.7,1.5
		s-0.4,1-0.6,1.5c-0.4,1-0.8,2.1-1.1,3.2c-0.4,1-0.7,2.1-1,3.2c-0.2,0.6-0.3,1.1-0.5,1.7c-0.1,0.5-0.3,1-0.4,1.6
		c-0.2,0.7-0.3,1.3-0.4,2c-0.1,0.4-0.2,0.8-0.2,1.3c-0.1,0.5-0.2,1.1-0.3,1.7c-0.2,1.1-0.3,2.2-0.4,3.3c-0.1,1.1-0.2,2.2-0.2,3.3
		c-0.1,1.2-0.1,2.3-0.1,3.5v58.7c0,0.8,0,1.6,0,2.5c0,0.9,0.1,1.7,0.1,2.6c0,0.8,0.1,1.5,0.2,2.3c0.1,0.5,0.1,1,0.2,1.4
		c0.1,0.7,0.2,1.3,0.3,2c0.1,0.5,0.1,0.9,0.2,1.4c0.1,0.5,0.2,0.9,0.3,1.4c0.1,0.5,0.2,1,0.3,1.5c0.1,0.6,0.3,1.1,0.4,1.6
		c0.4,1.6,0.9,3.3,1.4,4.8c0.3,1.1,0.7,2.1,1.1,3.2c0.2,0.5,0.4,1.1,0.6,1.6c0.2,0.5,0.4,1,0.7,1.5c0.2,0.5,0.5,1,0.7,1.6
		c0.2,0.5,0.5,1,0.7,1.5c0.5,1,1,2,1.6,3c0.3,0.5,0.6,1,0.9,1.4c0.2,0.4,0.5,0.8,0.7,1.1c0.7,1.1,1.4,2.2,2.2,3.3
		c0.3,0.4,0.7,0.9,1,1.3c0.4,0.6,0.8,1.1,1.3,1.6c0.4,0.5,0.8,1,1.3,1.5c0,0,0,0,0,0.1s0,0,0,0c0,0.1,0.1,0.1,0.1,0.2
		c0.4,0.5,0.8,0.9,1.2,1.4c0.8,0.9,1.7,1.8,2.5,2.7c0.5,0.5,0.9,0.9,1.4,1.3c0.1,0.1,0.1,0.1,0.2,0.2c0.1,0.1,0.2,0.2,0.3,0.2
		c1,0.9,2,1.8,3,2.6c0.4,0.3,0.8,0.7,1.3,1c0.9,0.7,1.7,1.3,2.6,2c0.9,0.7,1.8,1.3,2.7,1.8c0.5,0.3,0.9,0.6,1.4,0.9
		c0.5,0.3,1,0.6,1.4,0.8c0.3,0.2,0.7,0.4,1,0.6c0.2,0.1,0.5,0.3,0.7,0.4c0.4,0.3,0.9,0.5,1.4,0.7c0.4,0.2,0.8,0.4,1.2,0.6
		c0.3,0.2,0.7,0.3,1,0.5c0.3,0.1,0.6,0.3,0.9,0.4c0,0,0,0,0.1,0c0.5,0.2,1,0.4,1.5,0.6c0.5,0.2,1,0.4,1.6,0.6c0.5,0.2,1,0.4,1.6,0.6
		c0.5,0.2,1,0.4,1.6,0.6c0.5,0.2,1.1,0.3,1.6,0.5c0.5,0.2,1,0.3,1.5,0.4c0.7,0.2,1.3,0.3,2,0.5c1,0.3,2,0.5,3.1,0.7
		c0.7,0.1,1.4,0.3,2.1,0.4c0.4,0.1,0.8,0.1,1.2,0.2c1,0.2,2.1,0.3,3.1,0.4c0.6,0.1,1.1,0.1,1.7,0.2c0.4,0,0.9,0.1,1.3,0.1
		c1.3,0.1,2.6,0.1,4,0.1H450v0h203v69.6c-3.4,7.8-5.1,16.2-5.1,24.9v60.4h-94.6c-10.6,0-20.7,4.2-28.2,11.7
		c-7.5,7.5-11.7,17.6-11.7,28.2v40.8h3.7c-6.2,2.7-12.1,6.2-17.5,10.5c-13.3,10.7-22.4,25.7-26,42.4c-0.4,1.9-0.4,3.8,0,5.7
		c0.4,1.9,1.3,3.6,2.5,5.1c1.2,1.5,2.7,2.7,4.4,3.5c1.7,0.8,3.6,1.3,5.5,1.3h5.2c0,13.6,4.9,26,13,35.6c-69.7,7.8-114,19.6-114,32.7
		c0,23.5,142.3,42.6,317.7,42.6s317.7-19.1,317.7-42.6c0-11.6-34.4-22.1-90.2-29.8c9.7-9.9,15.7-23.5,15.7-38.5h5.2
		c1.9,0,3.8-0.4,5.5-1.3c1.7-0.8,3.2-2,4.4-3.5c1.2-1.5,2-3.2,2.5-5.1c0.4-1.8,0.5-3.8,0-5.6c-3.6-16.7-12.7-31.6-26-42.4
		c-8.6-7-18.6-11.9-29.2-14.5v-36.9c0-10.6-4.2-20.7-11.7-28.2c-7.5-7.5-17.6-11.7-28.2-11.7H773.5v-60.4c0-8.3-1.6-16.4-4.8-24.1
		c-0.1-0.4-0.3-0.7-0.5-1.1v-69.4h298c37.8,0,68.5-30.7,68.5-68.5v-58.7c0-12.6-3.4-24.3-9.3-34.5h277.4
		c-6.2,11.6-12.2,23.3-17.9,35.1c-40.3,84.5-48.8,146.9-26.1,190.9c38,73.7,107.5,147,110.4,150l0.8-0.8
		c3.2,8.5,10.1,16.9,19.9,25.4c5.3,4.7,11.4,8.5,17.7,11.4l6,55.3c2,18.6,1.9,37.4-0.4,55.9l-10.5,85.9h0.2c0,0.6,0.2,1.2,0.6,1.7
		c-4,5.8-8.1,17.4-8.1,40.9c-149.5,9.5-253.8,31.1-253.8,56.1c0,33.9,191.3,61.3,427.2,61.3c235.9,0,427.2-27.5,427.2-61.3
		c0-24.1-96.4-44.9-236.8-54.9c-0.6-3.1-1.5-6-2.5-8.7c0,0,0,0,0,0c-7.1-19-23.1-29.2-35.9-34.6c0-0.2,0.1-0.4,0.1-0.6h0.2l8.4-69.2
		c3.5-29,3.7-58.4,0.6-87.5l-13.1-121.8c10.9-16.3,15.1-31.8,16.8-41.4c2.3-1.8,4.3-3.7,6-5.7c13.9-16.2,9.9-37.2,5.9-48.8
		c27.1-27.6,3.8-67.7-7.5-125.2c-7.8,4.2-16.9,8.4-27.7,12.3c10.7-3.9,19.9-8.1,27.6-12.3c-0.6-3-1.2-6.1-1.7-9.2
		c64.1,44.6,147.1,69,247.8,72.9c25.3,1,46.4,0.4,71.6-1.3c8.8,5.5,19.2,8.6,30.3,8.6h31.8c10.4,0,20.2-2.8,28.7-7.7
		c18.4,0.9,35.4,1,54.9,0.3c100.7-3.9,183.6-28.2,247.7-72.9c-0.5,3-1.1,6.1-1.7,9.1c5.1,2.8,10.8,5.6,17.2,8.3
		c-6.4-2.7-12.1-5.5-17.3-8.3c-11.3,57.5-34.7,97.6-7.5,125.2c-3.9,11.7-8,32.6,5.9,48.9c1.7,2,3.7,3.9,6,5.7
		c1.6,9.6,5.9,25.1,16.8,41.5l-13.1,121.7c-3.1,29.1-2.9,58.4,0.6,87.5l8.4,69.2h0.2c0,0.2,0,0.4,0.1,0.6
		c-12.8,5.3-28.8,15.5-35.9,34.5c0,0,0,0,0,0c-1.4,3.8-2.5,8-3.1,12.5c-115.4,11-191.4,29.8-191.4,51.2
		c0,33.9,191.3,61.3,427.2,61.3c235.9,0,427.2-27.5,427.2-61.3c0-27.4-125.5-50.7-298.5-58.5c-0.2-21.9-4.2-32.9-8.1-38.5
		c0.4-0.6,0.6-1.1,0.6-1.7h0.2l-10.5-85.9c-2.3-18.6-2.4-37.3-0.4-55.9l6-55.3c6.4-2.9,12.4-6.8,17.8-11.4
		c9.7-8.5,16.6-16.8,19.9-25.4l0.8,0.8c2.9-3.1,72.4-76.4,110.4-150c22.7-43.9,14.1-106.4-26.1-190.9c-5.7-11.8-11.7-23.5-17.9-35.1
		h308.9c-5.9,10.1-9.3,21.9-9.3,34.5v58.7c0,37.8,30.7,68.5,68.5,68.5h298v69.3c-0.2,0.4-0.3,0.7-0.5,1.1
		c-3.1,7.6-4.8,15.8-4.8,24.1v60.4h-100.3c-10.6,0-20.7,4.2-28.2,11.7c-7.5,7.5-11.7,17.6-11.7,28.2v36.9
		c-10.6,2.6-20.6,7.5-29.2,14.5c-13.3,10.7-22.4,25.7-26,42.4c-0.4,1.9-0.4,3.8,0.1,5.6c0.4,1.9,1.3,3.6,2.5,5.1
		c1.2,1.5,2.7,2.7,4.4,3.5c1.7,0.8,3.6,1.3,5.5,1.3h5.2c0,11.6,3.6,22.4,9.7,31.3c-46.1,7.4-73.9,16.9-73.9,27.3
		c0,23.5,142.3,42.6,317.7,42.6s317.7-19.1,317.7-42.6c0-13.4-45.8-25.3-117.6-33.1c4-7.6,6.2-16.3,6.2-25.5h5.2
		c1.9,0,3.8-0.4,5.5-1.3c1.7-0.8,3.2-2,4.4-3.5s2.1-3.2,2.5-5.1c0.4-1.9,0.4-3.8,0.1-5.7c-3.6-16.7-12.7-31.6-26-42.4
		c-5.4-4.3-11.2-7.9-17.5-10.5h3.7v-40.8c0-5.2-1-10.4-3-15.3c-2-4.8-4.9-9.2-8.6-12.9c-3.7-3.7-8.1-6.6-12.9-8.6
		c-4.8-2-10-3-15.3-3h-94.6v-60.4c0-8.6-1.8-17.1-5.1-24.8v-69.6h248.3c1.7,0,3.4-0.1,5.1-0.2c0.6,0,1.1-0.1,1.7-0.1
		c0.5-0.1,1.1-0.1,1.6-0.2c0.5-0.1,1-0.1,1.6-0.2c0.2,0,0.4-0.1,0.6-0.1c0.3-0.1,0.5-0.1,0.8-0.1c0.6-0.1,1.2-0.2,1.8-0.3
		c0.5-0.1,1-0.2,1.5-0.3c0.5-0.1,1-0.2,1.5-0.3c0.3-0.1,0.6-0.1,0.9-0.2c0.4-0.1,0.7-0.2,1.1-0.3c0.4-0.1,0.7-0.2,1.1-0.3
		c0,0,0,0,0,0c0,0,0.1,0,0.1,0c0.7-0.2,1.5-0.4,2.2-0.7c0,0,0.1,0,0.1,0c0.7-0.2,1.3-0.5,2-0.7c0,0,0,0,0.1,0
		c0.2-0.1,0.3-0.1,0.5-0.2c0.7-0.3,1.4-0.5,2.1-0.8c0,0,0.1,0,0.1,0c0.2-0.1,0.4-0.2,0.6-0.3c1-0.4,2-0.9,3.1-1.4
		c0.5-0.2,0.9-0.4,1.4-0.7c0.4-0.2,0.9-0.5,1.3-0.7c0.9-0.5,1.8-1,2.6-1.5c0.5-0.3,1-0.6,1.4-0.9c0.5-0.3,0.9-0.6,1.4-0.9
		s0.9-0.6,1.4-0.9c0.5-0.3,0.9-0.7,1.4-1c0.5-0.3,0.9-0.7,1.3-1c0.4-0.4,0.9-0.7,1.3-1.1c0.4-0.3,0.7-0.6,1.1-0.9
		c1.4-1.2,2.6-2.4,3.9-3.6c3.2-3.2,6-6.7,8.5-10.4c0.5-0.7,0.9-1.4,1.4-2.1c0,0,0,0,0,0c0.4-0.7,0.9-1.4,1.3-2.2
		c3.5-6.2,6.1-12.9,7.5-20c0.1-0.5,0.2-1,0.3-1.6c0.1-0.3,0.1-0.6,0.1-0.9c0.1-0.4,0.1-0.7,0.2-1.1c0-0.1,0-0.2,0-0.2
		c0.1-0.6,0.2-1.1,0.2-1.7c0.1-0.6,0.1-1.2,0.2-1.8c0-0.1,0-0.1,0-0.2c0.1-0.9,0.1-1.9,0.2-2.8c0.1-1.1,0.1-2.3,0.1-3.4v-58.7
		c0-1.2,0-2.3-0.1-3.4c-0.1-2.1-0.3-4.1-0.6-6.1c-1.2-9-4.2-17.4-8.6-24.9h114.6V770.9h0v531.7h112.5V689.3H4146.4z M2417.8,1321.9
		c-49.1,15.8-108.3,22.3-176.3,19.4c-7.2-3.2-15.2-5-23.6-5h-31.8c-7.3,0-14.4,1.4-20.8,3.9c-77,5.3-143.3-0.8-197.4-18.2
		c-0.3-0.1-0.6-0.2-0.9-0.3h451.7C2418.4,1321.7,2418.1,1321.8,2417.8,1321.9z"/>
</g>
</svg>
