<svg width="4299" height="2042" viewBox="0 0 4299 2042" fill="none" xmlns="http://www.w3.org/2000/svg">
<path d="M2635.2 362.427H1741.1V1321.58H2635.2V362.427Z" fill="#0B78FF"/>
<path d="M2635.2 362.427H1741.1V494.667H2635.2V362.427Z" fill="#7D99BC"/>
<path opacity="0.11" d="M1668.84 2041.07C1904.76 2041.07 2096.02 2013.6 2096.02 1979.73C2096.02 1945.85 1904.76 1918.39 1668.84 1918.39C1432.91 1918.39 1241.66 1945.85 1241.66 1979.73C1241.66 2013.6 1432.91 2041.07 1668.84 2041.07Z" fill="#141211"/>
<path opacity="0.11" d="M2761.5 2041.07C2997.42 2041.07 3188.68 2013.6 3188.68 1979.73C3188.68 1945.85 2997.42 1918.39 2761.5 1918.39C2525.57 1918.39 2334.32 1945.85 2334.32 1979.73C2334.32 2013.6 2525.57 2041.07 2761.5 2041.07Z" fill="#141211"/>
<path d="M487.27 686.697H672.15V528.867H487.27V686.697Z" fill="#1C1918"/>
<path d="M137.73 567.197L1021.57 567.197L1021.57 12.547L137.73 12.547L137.73 567.197Z" fill="#003F9E"/>
<path d="M958.35 504.077V75.5969L200.69 75.5969V504.077L958.35 504.077Z" fill="#1CC4FF"/>
<path d="M332.74 212.947C388.74 273.214 455.033 315.807 531.62 340.727C605.26 379.394 684.623 397.134 769.71 393.947C835.217 393.747 898.113 383.957 958.4 364.577V504.117L200.74 504.187V75.707H229.93C254.997 126.827 289.267 172.574 332.74 212.947Z" fill="#00C3F7"/>
<path d="M457.95 697.957H701.46V646.097H457.95V697.957Z" fill="#1C1918"/>
<path d="M904.07 241.407C916.806 241.407 927.13 212.686 927.13 177.257C927.13 141.828 916.806 113.107 904.07 113.107C891.334 113.107 881.01 141.828 881.01 177.257C881.01 212.686 891.334 241.407 904.07 241.407Z" fill="#9FE2F4"/>
<path d="M0 689.257H1557.67V1302.62H1447.36V770.897H112.52V1302.62H0V689.257Z" fill="#6A7D99"/>
<path d="M1447.35 770.897H112.52V1271.74H1447.35V770.897Z" fill="#006CE1"/>
<path d="M1096.13 697.717H1437.65V1.01703H1096.13V697.717Z" fill="#35373A"/>
<path d="M1096.62 696.7L1270.74 696.821L1271.22 0.121504L1097.1 -5.46784e-05L1096.62 696.7Z" fill="#282423"/>
<path d="M1322.35 169.617C1323.95 169.62 1325.51 169.147 1326.83 168.257L1405.42 115.857C1406.3 115.266 1407.06 114.507 1407.65 113.623C1408.24 112.74 1408.65 111.749 1408.85 110.707C1409.06 109.665 1409.06 108.593 1408.85 107.551C1408.64 106.51 1408.23 105.519 1407.64 104.637C1407.05 103.754 1406.29 102.997 1405.41 102.408C1404.52 101.819 1403.53 101.409 1402.49 101.203C1401.45 100.997 1400.38 100.998 1399.33 101.206C1398.29 101.415 1397.3 101.826 1396.42 102.417L1319.87 153.417L1213.77 153.337L1132.22 98.8569C1131.34 98.266 1130.35 97.8545 1129.31 97.646C1128.27 97.4375 1127.2 97.436 1126.15 97.6417C1125.11 97.8474 1124.12 98.2562 1123.24 98.8447C1122.35 99.4333 1121.6 100.19 1121 101.072C1120.41 101.954 1120 102.943 1119.79 103.984C1119.59 105.025 1119.58 106.097 1119.79 107.138C1120 108.18 1120.4 109.17 1120.99 110.054C1121.58 110.937 1122.34 111.696 1123.22 112.287L1206.85 168.137C1208.18 169.022 1209.74 169.495 1211.33 169.497L1322.33 169.577L1322.35 169.617Z" fill="#00C3F7"/>
<path d="M1322.24 369.207C1323.83 369.206 1325.39 368.736 1326.72 367.857L1405.31 315.457C1407.09 314.264 1408.33 312.411 1408.74 310.307C1409.16 308.203 1408.72 306.019 1407.53 304.237C1406.34 302.455 1404.48 301.22 1402.38 300.803C1400.28 300.387 1398.09 300.824 1396.31 302.017L1319.75 353.017L1213.65 352.937L1132.06 298.447C1131.18 297.856 1130.19 297.445 1129.15 297.237C1128.1 297.028 1127.03 297.027 1125.99 297.233C1124.95 297.44 1123.96 297.849 1123.07 298.438C1122.19 299.027 1121.43 299.785 1120.84 300.667C1120.25 301.55 1119.84 302.54 1119.63 303.581C1119.42 304.623 1119.42 305.695 1119.63 306.737C1119.83 307.779 1120.24 308.77 1120.83 309.654C1121.42 310.537 1122.18 311.296 1123.06 311.887L1206.69 367.727C1208.02 368.612 1209.58 369.085 1211.17 369.087L1322.17 369.167L1322.24 369.207Z" fill="#00C3F7"/>
<path opacity="0.11" d="M707.92 1848.3C883.392 1848.3 1025.64 1829.22 1025.64 1805.68C1025.64 1782.14 883.392 1763.06 707.92 1763.06C532.448 1763.06 390.2 1782.14 390.2 1805.68C390.2 1829.22 532.448 1848.3 707.92 1848.3Z" fill="#141211"/>
<path d="M1016.45 1319.17H1049.97V1058.42H1016.45V1319.17Z" fill="black"/>
<path d="M786.11 1133.95H1139.18C1171.98 1133.95 1198.57 1107.36 1198.57 1074.56V1066.69C1198.57 1033.89 1171.98 1007.3 1139.18 1007.3H786.11C753.31 1007.3 726.72 1033.89 726.72 1066.69V1074.56C726.72 1107.36 753.31 1133.95 786.11 1133.95Z" fill="#282423"/>
<path d="M786.12 1112.19H1139.18C1153.73 1112.19 1167.78 1106.85 1178.65 1097.18C1189.53 1087.51 1196.48 1074.19 1198.18 1059.74C1198.45 1062.04 1198.59 1064.36 1198.59 1066.69V1074.56C1198.59 1082.36 1197.05 1090.08 1194.07 1097.28C1191.08 1104.49 1186.71 1111.04 1181.2 1116.55C1175.68 1122.07 1169.13 1126.44 1161.93 1129.43C1154.72 1132.41 1147 1133.95 1139.2 1133.95H786.12C770.369 1133.95 755.263 1127.69 744.125 1116.55C732.987 1105.41 726.73 1090.31 726.73 1074.56V1066.69C726.735 1064.36 726.872 1062.04 727.14 1059.74C728.842 1074.19 735.788 1087.51 746.659 1097.17C757.53 1106.84 771.572 1112.18 786.12 1112.19Z" fill="#141211"/>
<path d="M895.96 1792.57C926.441 1792.57 951.15 1767.86 951.15 1737.38C951.15 1706.9 926.441 1682.19 895.96 1682.19C865.479 1682.19 840.77 1706.9 840.77 1737.38C840.77 1767.86 865.479 1792.57 895.96 1792.57Z" fill="#3E4244"/>
<path d="M835.61 1737.38C833.7 1737.37 831.816 1736.94 830.094 1736.11C828.373 1735.29 826.858 1734.09 825.66 1732.6C824.463 1731.11 823.614 1729.37 823.174 1727.52C822.734 1725.66 822.716 1723.72 823.12 1721.86C826.679 1705.18 835.854 1690.23 849.111 1679.5C862.369 1668.77 878.906 1662.92 895.96 1662.92C913.014 1662.92 929.551 1668.77 942.809 1679.5C956.066 1690.23 965.241 1705.18 968.8 1721.86C969.206 1723.72 969.189 1725.66 968.751 1727.51C968.313 1729.37 967.464 1731.11 966.267 1732.6C965.071 1734.09 963.556 1735.29 961.835 1736.11C960.114 1736.94 958.23 1737.37 956.32 1737.38H835.61Z" fill="black"/>
<path d="M895.96 1770.67C914.346 1770.67 929.25 1755.76 929.25 1737.38C929.25 1718.99 914.346 1704.09 895.96 1704.09C877.574 1704.09 862.67 1718.99 862.67 1737.38C862.67 1755.76 877.574 1770.67 895.96 1770.67Z" fill="black"/>
<path d="M546.4 1792.57C576.881 1792.57 601.59 1767.86 601.59 1737.38C601.59 1706.9 576.881 1682.19 546.4 1682.19C515.919 1682.19 491.21 1706.9 491.21 1737.38C491.21 1767.86 515.919 1792.57 546.4 1792.57Z" fill="#3E4244"/>
<path d="M486.05 1737.38C484.14 1737.37 482.256 1736.94 480.534 1736.11C478.813 1735.29 477.298 1734.09 476.1 1732.6C474.903 1731.11 474.053 1729.37 473.614 1727.52C473.174 1725.66 473.156 1723.72 473.56 1721.86C477.119 1705.18 486.294 1690.23 499.551 1679.5C512.809 1668.77 529.346 1662.92 546.4 1662.92C563.454 1662.92 579.991 1668.77 593.249 1679.5C606.506 1690.23 615.681 1705.18 619.24 1721.86C619.644 1723.72 619.626 1725.66 619.186 1727.52C618.746 1729.37 617.897 1731.11 616.7 1732.6C615.502 1734.09 613.987 1735.29 612.266 1736.11C610.544 1736.94 608.66 1737.37 606.75 1737.38H486.05Z" fill="black"/>
<path d="M546.4 1770.67C564.786 1770.67 579.69 1755.76 579.69 1737.38C579.69 1718.99 564.786 1704.09 546.4 1704.09C528.014 1704.09 513.11 1718.99 513.11 1737.38C513.11 1755.76 528.014 1770.67 546.4 1770.67Z" fill="black"/>
<path d="M652.96 1518.97H768.26V1317.82H652.96V1518.97Z" fill="#141211"/>
<path d="M954.56 497.027C816.06 369.957 905.48 262.357 660.56 258.147V258.047H657.4H654.23V258.147C409.33 262.357 498.75 369.957 360.23 497.027C220.55 625.197 271.77 800.307 328.57 886.027C385.37 971.747 368.62 1022.39 354.65 1139.37C340.68 1256.35 397.48 1304.79 397.48 1304.79H917.31C917.31 1304.79 974.12 1256.36 960.15 1139.37C946.18 1022.38 929.42 971.717 986.22 886.027C1043.02 800.337 1094.25 625.197 954.56 497.027ZM653.56 660.707C653.56 666.926 651.089 672.891 646.692 677.289C642.294 681.686 636.329 684.157 630.11 684.157H540.45C537.371 684.157 534.321 683.55 531.476 682.372C528.631 681.193 526.046 679.466 523.868 677.289C521.691 675.111 519.964 672.526 518.785 669.681C517.607 666.836 517 663.786 517 660.707V588.467C516.999 573.611 519.924 558.901 525.608 545.176C531.293 531.451 539.625 518.98 550.129 508.476C560.634 497.972 573.104 489.639 586.829 483.955C600.554 478.271 615.265 475.346 630.12 475.347V475.347C636.339 475.347 642.304 477.818 646.702 482.215C651.099 486.613 653.57 492.577 653.57 498.797L653.56 660.707ZM861.3 660.707C861.3 666.926 858.829 672.891 854.432 677.289C850.034 681.686 844.069 684.157 837.85 684.157H748.18C741.961 684.157 735.996 681.686 731.598 677.289C727.201 672.891 724.73 666.926 724.73 660.707V498.797C724.73 492.577 727.201 486.613 731.598 482.215C735.996 477.818 741.961 475.347 748.18 475.347V475.347C763.035 475.347 777.745 478.273 791.469 483.958C805.194 489.642 817.664 497.975 828.168 508.479C838.672 518.983 847.005 531.453 852.689 545.178C858.374 558.902 861.3 573.612 861.3 588.467V660.707Z" fill="#009225"/>
<path d="M727.29 1297.46H470.57C470.57 1297.46 413.76 1249.03 427.73 1132.04C441.7 1015.05 458.46 964.377 401.65 878.687C344.84 792.997 293.65 617.887 433.32 489.687C552.47 380.367 502.93 285.457 642.71 258.397C412.17 265.857 496.55 372.007 360.27 497.027C220.59 625.197 271.81 800.307 328.61 886.027C385.41 971.747 368.66 1022.39 354.69 1139.37C340.72 1256.35 397.52 1304.79 397.52 1304.79H917.31C919.8 1302.53 922.12 1300.09 924.25 1297.49H727.25L727.29 1297.46Z" fill="#006917"/>
<path d="M465.16 1338.29H498.68L498.68 1077.54H465.16V1338.29Z" fill="black"/>
<path d="M404.71 1433.37H1066.23C1104.06 1433.37 1134.72 1402.7 1134.72 1364.88V1306.2C1134.72 1268.37 1104.06 1237.71 1066.23 1237.71H404.71C366.884 1237.71 336.22 1268.37 336.22 1306.2V1364.88C336.22 1402.7 366.884 1433.37 404.71 1433.37Z" fill="#282423"/>
<path d="M762.66 1405.78C638.53 1405.78 530.2 1338.14 472.5 1237.72H1052.83C995.13 1338.14 886.8 1405.78 762.66 1405.78Z" fill="#006917"/>
<path d="M404.7 1237.72H450V1433.38H404.7C395.703 1433.38 386.795 1431.6 378.483 1428.16C370.172 1424.72 362.62 1419.67 356.26 1413.31C349.899 1406.94 344.855 1399.39 341.415 1391.08C337.975 1382.76 336.206 1373.85 336.21 1364.86V1306.17C336.221 1288.01 343.441 1270.6 356.284 1257.76C369.128 1244.93 386.542 1237.72 404.7 1237.72V1237.72Z" fill="#141211"/>
<path d="M773.5 1653.83H647.82V1527.83C647.825 1511.16 654.448 1495.19 666.232 1483.41C678.017 1471.62 693.997 1465.01 710.66 1465.01V1465.01C718.912 1465.01 727.084 1466.63 734.708 1469.79C742.332 1472.95 749.259 1477.58 755.095 1483.41C760.93 1489.25 765.559 1496.17 768.717 1503.8C771.875 1511.42 773.5 1519.59 773.5 1527.85V1653.85V1653.83Z" fill="black"/>
<path d="M913.62 1668.97H513.34V1628.13C513.34 1617.56 517.54 1607.42 525.015 1599.94C532.49 1592.47 542.628 1588.27 553.2 1588.27H873.75C884.322 1588.27 894.46 1592.47 901.935 1599.94C909.411 1607.42 913.61 1617.56 913.61 1628.13V1668.97H913.62Z" fill="black"/>
<path d="M327.29 1129.69H680.36C713.16 1129.69 739.75 1103.1 739.75 1070.3V1062.43C739.75 1029.63 713.16 1003.04 680.36 1003.04H327.29C294.49 1003.04 267.9 1029.63 267.9 1062.43V1070.3C267.9 1103.1 294.49 1129.69 327.29 1129.69Z" fill="#282423"/>
<path d="M327.3 1103.86H680.36C694.554 1103.85 708.278 1098.77 719.049 1089.53C729.82 1080.28 736.925 1067.49 739.08 1053.46C739.527 1056.44 739.751 1059.44 739.75 1062.46V1070.33C739.75 1086.08 733.493 1101.18 722.355 1112.32C711.217 1123.46 696.111 1129.72 680.36 1129.72H327.3C311.549 1129.72 296.443 1123.46 285.305 1112.32C274.167 1101.18 267.91 1086.08 267.91 1070.33V1062.46C267.909 1059.44 268.133 1056.44 268.58 1053.46C270.733 1067.49 277.838 1080.28 288.609 1089.53C299.38 1098.77 313.105 1103.86 327.3 1103.86V1103.86Z" fill="#141211"/>
<path d="M3907.99 528.907H3723.11V686.737H3907.99V528.907Z" fill="#1C1918"/>
<path d="M4257.5 12.5869H3373.66V567.237H4257.5V12.5869Z" fill="#35373A"/>
<path d="M4194.72 504.237V75.7571L3437.06 75.7571V504.237L4194.72 504.237Z" fill="#1CC4FF"/>
<path d="M4062.4 212.947C4006.4 273.214 3940.11 315.807 3863.53 340.727C3789.88 379.394 3710.52 397.134 3625.44 393.947C3559.92 393.747 3497.02 383.957 3436.74 364.577V504.117L4194.4 504.187V75.707H4165.21C4140.14 126.827 4105.87 172.574 4062.4 212.947Z" fill="#00C3F7"/>
<path d="M3937.3 646.157H3693.79V698.017H3937.3V646.157Z" fill="#1C1918"/>
<path d="M3491.07 241.407C3503.81 241.407 3514.13 212.686 3514.13 177.257C3514.13 141.828 3503.81 113.107 3491.07 113.107C3478.33 113.107 3468.01 141.828 3468.01 177.257C3468.01 212.686 3478.33 241.407 3491.07 241.407Z" fill="#9FE2F4"/>
<path d="M4298.72 689.257H2741.05V1302.62H2851.36V770.897H4186.2V1302.62H4298.72V689.257Z" fill="#6A7D99"/>
<path d="M4186.19 770.897H2851.36V1271.74H4186.19V770.897Z" fill="#006CE1"/>
<path d="M3201.81 0.0668945H2860.29V696.767H3201.81V0.0668945Z" fill="#35373A"/>
<path d="M3201.81 0.00708008H3027.69V696.707H3201.81V0.00708008Z" fill="#282423"/>
<path d="M2976.36 169.617C2974.77 169.619 2973.21 169.145 2971.89 168.257L2893.3 115.857C2891.52 114.663 2890.28 112.811 2889.87 110.707C2889.45 108.603 2889.89 106.419 2891.08 104.637C2892.27 102.855 2894.13 101.62 2896.23 101.203C2898.33 100.787 2900.52 101.223 2902.3 102.417L2978.85 153.417L3084.95 153.337L3166.5 98.8569C3167.38 98.266 3168.37 97.8545 3169.41 97.646C3170.45 97.4375 3171.52 97.436 3172.57 97.6417C3173.61 97.8474 3174.6 98.2562 3175.48 98.8447C3176.37 99.4333 3177.12 100.19 3177.72 101.072C3178.31 101.954 3178.72 102.943 3178.93 103.984C3179.13 105.025 3179.14 106.097 3178.93 107.138C3178.72 108.18 3178.32 109.17 3177.73 110.054C3177.14 110.937 3176.38 111.696 3175.5 112.287L3091.87 168.137C3090.54 169.022 3088.98 169.495 3087.39 169.497L2976.39 169.577L2976.36 169.617Z" fill="#00C3F7"/>
<path d="M2976.48 369.207C2974.89 369.206 2973.33 368.736 2972 367.857L2893.41 315.457C2891.63 314.263 2890.39 312.411 2889.98 310.307C2889.56 308.203 2890 306.019 2891.19 304.237C2892.38 302.455 2894.24 301.22 2896.34 300.803C2898.44 300.387 2900.63 300.823 2902.41 302.017L2978.97 353.017L3085.07 352.937L3166.66 298.447C3168.44 297.253 3170.63 296.817 3172.73 297.233C3174.83 297.65 3176.69 298.885 3177.88 300.667C3179.07 302.449 3179.51 304.633 3179.09 306.737C3178.68 308.841 3177.44 310.693 3175.66 311.887L3092 367.767C3090.67 368.651 3089.11 369.124 3087.52 369.127L2976.52 369.207H2976.48Z" fill="#00C3F7"/>
<path opacity="0.11" d="M3719.51 1838.61C3894.98 1838.61 4037.23 1819.53 4037.23 1795.99C4037.23 1772.45 3894.98 1753.37 3719.51 1753.37C3544.04 1753.37 3401.79 1772.45 3401.79 1795.99C3401.79 1819.53 3544.04 1838.61 3719.51 1838.61Z" fill="#141211"/>
<path d="M3400.67 1058.41H3367.15V1319.16H3400.67V1058.41Z" fill="black"/>
<path d="M3631.01 1007.3H3277.94C3245.14 1007.3 3218.55 1033.89 3218.55 1066.69V1074.56C3218.55 1107.36 3245.14 1133.95 3277.94 1133.95H3631.01C3663.81 1133.95 3690.4 1107.36 3690.4 1074.56V1066.69C3690.4 1033.89 3663.81 1007.3 3631.01 1007.3Z" fill="#282423"/>
<path d="M3631 1112.19H3277.94C3263.39 1112.19 3249.34 1106.85 3238.47 1097.18C3227.59 1087.51 3220.64 1074.19 3218.94 1059.74C3218.67 1062.04 3218.53 1064.36 3218.53 1066.69V1074.56C3218.53 1090.31 3224.79 1105.41 3235.93 1116.55C3247.06 1127.69 3262.17 1133.95 3277.92 1133.95H3631C3646.75 1133.95 3661.86 1127.69 3673 1116.55C3684.13 1105.41 3690.39 1090.31 3690.39 1074.56V1066.69C3690.38 1064.36 3690.25 1062.04 3689.98 1059.74C3688.28 1074.19 3681.33 1087.51 3670.46 1097.17C3659.59 1106.84 3645.55 1112.18 3631 1112.19V1112.19Z" fill="#141211"/>
<path d="M3521.16 1792.57C3551.64 1792.57 3576.35 1767.86 3576.35 1737.38C3576.35 1706.9 3551.64 1682.19 3521.16 1682.19C3490.68 1682.19 3465.97 1706.9 3465.97 1737.38C3465.97 1767.86 3490.68 1792.57 3521.16 1792.57Z" fill="#3E4244"/>
<path d="M3581.51 1737.38C3583.42 1737.37 3585.3 1736.94 3587.03 1736.11C3588.75 1735.29 3590.26 1734.09 3591.46 1732.6C3592.66 1731.11 3593.51 1729.37 3593.95 1727.52C3594.39 1725.66 3594.4 1723.72 3594 1721.86C3590.44 1705.18 3581.27 1690.23 3568.01 1679.5C3554.75 1668.77 3538.21 1662.92 3521.16 1662.92C3504.11 1662.92 3487.57 1668.77 3474.31 1679.5C3461.05 1690.23 3451.88 1705.18 3448.32 1721.86C3447.91 1723.72 3447.93 1725.66 3448.37 1727.51C3448.81 1729.37 3449.66 1731.11 3450.85 1732.6C3452.05 1734.09 3453.56 1735.29 3455.29 1736.11C3457.01 1736.94 3458.89 1737.37 3460.8 1737.38H3581.51Z" fill="black"/>
<path d="M3521.16 1770.67C3539.55 1770.67 3554.45 1755.76 3554.45 1737.38C3554.45 1718.99 3539.55 1704.09 3521.16 1704.09C3502.77 1704.09 3487.87 1718.99 3487.87 1737.38C3487.87 1755.76 3502.77 1770.67 3521.16 1770.67Z" fill="black"/>
<path d="M3870.72 1792.57C3901.2 1792.57 3925.91 1767.86 3925.91 1737.38C3925.91 1706.9 3901.2 1682.19 3870.72 1682.19C3840.24 1682.19 3815.53 1706.9 3815.53 1737.38C3815.53 1767.86 3840.24 1792.57 3870.72 1792.57Z" fill="#3E4244"/>
<path d="M3931.07 1737.38C3932.98 1737.37 3934.86 1736.94 3936.59 1736.11C3938.31 1735.29 3939.82 1734.09 3941.02 1732.6C3942.22 1731.11 3943.07 1729.37 3943.51 1727.52C3943.95 1725.66 3943.96 1723.72 3943.56 1721.86C3940 1705.18 3930.83 1690.23 3917.57 1679.5C3904.31 1668.77 3887.77 1662.92 3870.72 1662.92C3853.67 1662.92 3837.13 1668.77 3823.87 1679.5C3810.61 1690.23 3801.44 1705.18 3797.88 1721.86C3797.48 1723.72 3797.49 1725.66 3797.93 1727.52C3798.37 1729.37 3799.22 1731.11 3800.42 1732.6C3801.62 1734.09 3803.13 1735.29 3804.85 1736.11C3806.58 1736.94 3808.46 1737.37 3810.37 1737.38H3931.07Z" fill="black"/>
<path d="M3870.72 1770.67C3889.11 1770.67 3904.01 1755.76 3904.01 1737.38C3904.01 1718.99 3889.11 1704.09 3870.72 1704.09C3852.33 1704.09 3837.43 1718.99 3837.43 1737.38C3837.43 1755.76 3852.33 1770.67 3870.72 1770.67Z" fill="black"/>
<path d="M3764.17 1317.83H3648.87V1518.98H3764.17V1317.83Z" fill="#141211"/>
<path d="M3430.9 885.997C3487.7 971.687 3470.9 1022.36 3456.97 1139.34C3443.04 1256.32 3499.81 1304.76 3499.81 1304.76H4019.6C4019.6 1304.76 4076.4 1256.33 4062.43 1139.34C4048.46 1022.35 4031.7 971.687 4088.51 885.997C4145.32 800.307 4196.51 625.197 4056.84 496.997C3918.35 369.927 4007.77 262.327 3762.84 258.117V258.017H3759.67H3756.51V258.117C3511.61 262.327 3601.03 369.927 3462.51 496.997C3322.87 625.197 3374.09 800.307 3430.9 885.997ZM3763.55 498.797C3763.55 492.578 3766.02 486.613 3770.42 482.216C3774.82 477.818 3780.78 475.347 3787 475.347V475.347C3801.86 475.347 3816.56 478.273 3830.29 483.958C3844.01 489.643 3856.48 497.975 3866.99 508.479C3877.49 518.983 3885.82 531.454 3891.51 545.178C3897.19 558.902 3900.12 573.612 3900.12 588.467V660.707C3900.12 666.926 3897.65 672.891 3893.25 677.289C3888.85 681.686 3882.89 684.157 3876.67 684.157H3787C3780.78 684.157 3774.82 681.686 3770.42 677.289C3766.02 672.891 3763.55 666.926 3763.55 660.707V498.797ZM3555.81 588.467C3555.81 558.466 3567.73 529.693 3588.94 508.479C3610.16 487.265 3638.93 475.347 3668.93 475.347V475.347C3672.01 475.346 3675.06 475.951 3677.91 477.129C3680.75 478.307 3683.34 480.034 3685.52 482.212C3687.7 484.39 3689.42 486.975 3690.6 489.821C3691.78 492.667 3692.39 495.717 3692.39 498.797V660.707C3692.39 663.787 3691.78 666.838 3690.6 669.683C3689.42 672.529 3687.7 675.115 3685.52 677.292C3683.34 679.47 3680.75 681.197 3677.91 682.375C3675.06 683.553 3672.01 684.158 3668.93 684.157H3579.26C3573.04 684.157 3567.08 681.686 3562.68 677.289C3558.28 672.891 3555.81 666.926 3555.81 660.707V588.467Z" fill="#FFBC1A"/>
<path d="M3689.83 1297.46H3946.55C3946.55 1297.46 4003.36 1249.03 3989.39 1132.04C3975.42 1015.05 3958.66 964.377 4015.47 878.687C4072.28 792.997 4123.47 617.887 3983.8 489.687C3864.65 380.367 3914.19 285.457 3774.41 258.397C4004.95 265.777 3920.57 371.967 4056.84 496.987C4196.53 625.157 4145.31 800.267 4088.51 885.987C4031.71 971.707 4048.46 1022.35 4062.43 1139.33C4076.4 1256.31 4019.6 1304.75 4019.6 1304.75H3499.81C3497.32 1302.49 3495 1300.05 3492.87 1297.45H3689.87L3689.83 1297.46Z" fill="#D79400"/>
<path d="M3951.96 1077.54H3918.44V1338.29H3951.96V1077.54Z" fill="black"/>
<path d="M4012.42 1237.72H3350.9C3313.07 1237.72 3282.41 1268.38 3282.41 1306.21V1364.89C3282.41 1402.71 3313.07 1433.38 3350.9 1433.38H4012.42C4050.25 1433.38 4080.91 1402.71 4080.91 1364.89V1306.21C4080.91 1268.38 4050.25 1237.72 4012.42 1237.72Z" fill="#282423"/>
<path d="M3654.45 1405.78C3778.59 1405.78 3886.92 1338.14 3944.62 1237.72H3364.29C3422 1338.14 3530.32 1405.78 3654.45 1405.78Z" fill="#D79400"/>
<path d="M4012.42 1237.72H3967.17V1433.38H4012.42C4021.42 1433.38 4030.32 1431.6 4038.64 1428.16C4046.95 1424.72 4054.5 1419.67 4060.86 1413.31C4067.22 1406.94 4072.26 1399.39 4075.7 1391.08C4079.14 1382.76 4080.91 1373.85 4080.9 1364.86V1306.17C4080.89 1288.01 4073.67 1270.6 4060.83 1257.76C4047.99 1244.93 4030.58 1237.72 4012.42 1237.72V1237.72Z" fill="#141211"/>
<path d="M3706.46 1465.04C3723.12 1465.04 3739.1 1471.65 3750.89 1483.44C3762.67 1495.22 3769.29 1511.19 3769.3 1527.86V1653.86H3643.62V1527.86C3643.62 1519.6 3645.25 1511.43 3648.4 1503.81C3651.56 1496.18 3656.19 1489.26 3662.03 1483.42C3667.86 1477.59 3674.79 1472.96 3682.41 1469.8C3690.04 1466.64 3698.21 1465.02 3706.46 1465.02V1465.04Z" fill="black"/>
<path d="M3543.37 1588.26H3863.92C3869.15 1588.26 3874.34 1589.29 3879.17 1591.29C3884.01 1593.29 3888.4 1596.23 3892.11 1599.93C3895.81 1603.63 3898.74 1608.03 3900.75 1612.86C3902.75 1617.7 3903.78 1622.88 3903.78 1628.12V1668.96H3503.51V1628.12C3503.51 1617.55 3507.71 1607.41 3515.18 1599.93C3522.66 1592.46 3532.8 1588.26 3543.37 1588.26V1588.26Z" fill="black"/>
<path d="M4089.83 1003.04H3736.76C3703.96 1003.04 3677.37 1029.63 3677.37 1062.43V1070.3C3677.37 1103.1 3703.96 1129.69 3736.76 1129.69H4089.83C4122.63 1129.69 4149.22 1103.1 4149.22 1070.3V1062.43C4149.22 1029.63 4122.63 1003.04 4089.83 1003.04Z" fill="#282423"/>
<path d="M4089.82 1103.86H3736.76C3722.57 1103.85 3708.84 1098.77 3698.07 1089.53C3687.3 1080.28 3680.19 1067.49 3678.04 1053.46C3677.59 1056.44 3677.37 1059.44 3677.37 1062.46V1070.33C3677.37 1086.08 3683.63 1101.18 3694.76 1112.32C3705.9 1123.46 3721.01 1129.72 3736.76 1129.72H4089.82C4105.57 1129.72 4120.68 1123.46 4131.81 1112.32C4142.95 1101.18 4149.21 1086.08 4149.21 1070.33V1062.46C4149.21 1059.44 4148.99 1056.44 4148.54 1053.46C4146.39 1067.49 4139.28 1080.28 4128.51 1089.53C4117.74 1098.77 4104.01 1103.85 4089.82 1103.86V1103.86Z" fill="#141211"/>
<path d="M1833.55 1940.24C1825.55 1972.31 1710.97 1967.51 1675.34 1938.16C1675.09 1936.16 1674.9 1934.16 1674.81 1932.1C1672.61 1878.25 1690.07 1877.1 1690.07 1877.1L1802.07 1876.1C1802.07 1876.1 1843.88 1881.68 1856.79 1916.1C1848.76 1915.86 1838.56 1920.05 1833.55 1940.24Z" fill="#074980"/>
<path d="M1833.55 1940.24C1838.55 1920.05 1848.76 1915.85 1856.75 1916.05C1859.75 1924.15 1861.23 1933.84 1860.15 1945.43C1854.47 2006.32 1737.92 1986.71 1737.92 1986.71C1737.92 1986.71 1681.69 1986 1675.34 1938.16C1711 1967.51 1825.58 1972.31 1833.55 1940.24Z" fill="#E3DDE9"/>
<path d="M1830.18 1724.31L1816 1592.55L1678.61 1607.36L1692.82 1739.13C1694.82 1757.72 1694.69 1776.49 1692.43 1795.06L1681.95 1881H1682.13C1682.63 1888.89 1713.51 1895.25 1751.55 1895.25C1789.59 1895.25 1820.47 1888.89 1820.97 1881H1821.16L1829.6 1811.78C1833.12 1782.74 1833.32 1753.39 1830.18 1724.31V1724.31Z" fill="#282423"/>
<path d="M1654.4 1940.24C1646.4 1972.31 1531.82 1967.51 1496.19 1938.16C1495.94 1936.16 1495.75 1934.16 1495.67 1932.1C1493.46 1878.25 1510.92 1877.1 1510.92 1877.1L1622.92 1876.1C1622.92 1876.1 1664.73 1881.68 1677.64 1916.1C1669.62 1915.86 1659.41 1920.05 1654.4 1940.24Z" fill="#074980"/>
<path d="M1654.4 1940.24C1659.4 1920.05 1669.62 1915.85 1677.6 1916.05C1680.6 1924.15 1682.08 1933.84 1681 1945.43C1675.32 2006.32 1558.77 1986.71 1558.77 1986.71C1558.77 1986.71 1502.54 1986 1496.19 1938.16C1531.82 1967.51 1646.43 1972.31 1654.4 1940.24Z" fill="#E3DDE9"/>
<path d="M1651 1724.31L1636.79 1592.55L1499.4 1607.36L1513.61 1739.13C1515.61 1757.72 1515.48 1776.49 1513.22 1795.06L1502.74 1881H1502.92C1503.42 1888.89 1534.3 1895.25 1572.34 1895.25C1610.38 1895.25 1641.26 1888.89 1641.76 1881H1641.95L1650.39 1811.78C1653.92 1782.74 1654.13 1753.39 1651 1724.31V1724.31Z" fill="#282423"/>
<path d="M2178.64 1442.05C2142.46 1445.05 2116.71 1446.32 2084.19 1445.05C1969.64 1440.66 1878.03 1409.71 1810.99 1352.57C1717.93 1273.26 1709.32 1172.17 1708.99 1167.9L1812.33 1160.12V1159.57C1812.54 1161.7 1817.93 1212.27 1862.99 1259.31C1889.49 1286.98 1924.78 1308.03 1967.89 1321.89C2025.05 1340.26 2095.95 1346.04 2178.6 1339.08" fill="#00A632"/>
<path d="M1834.88 1551.17C1834.88 1551.17 1835.13 1668.24 1648.03 1671.27C1460.93 1674.3 1438.22 1523.27 1438.22 1523.27L1834.88 1551.17Z" fill="#282423"/>
<path d="M1842.08 1497.72C1842.08 1497.72 1860.14 1531.64 1839.82 1555.41C1823.73 1574.24 1784.23 1582.48 1687.94 1592.28C1470.05 1614.48 1398.07 1514.06 1437.3 1481.61C1437.3 1481.61 1711.24 1571.86 1842.08 1497.72Z" fill="#236D36"/>
<path d="M1443.2 1379.04C1674.91 1436.13 1786.86 1409.31 1838.2 1381.33C1856.49 1473.96 1905.84 1521.4 1725.34 1544.41C1512.67 1571.52 1403.03 1508.84 1413.34 1444.08C1420.71 1398.04 1433.36 1397.95 1443.2 1379.04Z" fill="#E3DDE9"/>
<path d="M1443.2 1379.04C1447.2 1371.36 1444.81 1339.33 1444.31 1320.91C1442.12 1240.56 1458.31 1117.85 1492.52 1103.59L1815.2 1137.51C1815.2 1137.51 1834.06 1198.51 1832.8 1327.38C1832.72 1345.5 1834.51 1363.58 1838.15 1381.33C1786.86 1409.31 1674.91 1436.13 1443.2 1379.04Z" fill="#00A632"/>
<path d="M1738.42 1553.93C1738.42 1553.38 1740.03 1498.55 1736.36 1431.6C1731.41 1341.34 1719.76 1273.13 1701.73 1228.86L1688.73 1234.16C1730.43 1336.57 1724.46 1551.34 1724.39 1553.5L1738.42 1553.93Z" fill="#236D36"/>
<path opacity="0.17" d="M1536.9 1565.44C1536.9 1565.44 1492.99 1529.79 1479.37 1448.74C1471.82 1403.85 1486.07 1343.31 1492.52 1271.24C1492.52 1271.24 1313.37 1443.86 1536.9 1565.44Z" fill="#111010"/>
<path d="M1562.1 1592.28C1583.33 1615.14 1591.98 1649.77 1571 1673.75C1550.02 1697.73 1513.4 1692.91 1489.92 1672.37C1466.44 1651.83 1459.48 1632.48 1480.46 1608.5C1501.44 1584.52 1526.49 1553.93 1562.1 1592.28Z" fill="#FFCFA0"/>
<path d="M1469.25 1647.76C1466.32 1644.68 1396.85 1571.4 1358.82 1497.71C1336.14 1453.77 1344.68 1391.33 1384.93 1306.82C1401.66 1272.07 1420.68 1238.48 1441.87 1206.26C1449.55 1194.85 1461.44 1186.96 1474.93 1184.33C1488.42 1181.69 1502.41 1184.52 1513.81 1192.2C1525.21 1199.87 1533.1 1211.76 1535.74 1225.25C1538.38 1238.75 1535.55 1252.73 1527.87 1264.14V1264.14C1509.8 1291.74 1493.51 1320.46 1479.09 1350.14C1442.63 1426.25 1450.89 1450.03 1450.98 1450.25C1482.22 1510.77 1543.68 1575.57 1544.29 1576.25" fill="#00A632"/>
<path d="M1933.66 978.257C1933.66 978.257 2045 845.417 1953 613.417C1861 381.417 1423.88 504.857 1423.88 504.857C1423.88 504.857 1144.55 671.017 1336.31 1036.45L1933.66 978.257Z" fill="#7C2A0A"/>
<path d="M1444.1 1044.42C1455.15 999.041 1428.56 953.604 1384.71 942.932C1340.86 932.259 1296.36 960.392 1285.32 1005.77C1274.27 1051.14 1300.86 1096.58 1344.71 1107.25C1388.56 1117.93 1433.06 1089.79 1444.1 1044.42Z" fill="#EFB88C"/>
<path d="M1382.69 1077.6C1412.75 1070.17 1431.09 1039.77 1423.66 1009.71C1416.23 979.653 1385.83 961.31 1355.77 968.744C1325.71 976.177 1307.37 1006.57 1314.8 1036.63C1322.23 1066.7 1352.63 1085.04 1382.69 1077.6Z" fill="#FF804A"/>
<path d="M1971.73 1048.93C2001.59 1019.06 2001.59 970.645 1971.73 940.782C1941.87 910.918 1893.45 910.918 1863.59 940.782C1833.72 970.645 1833.72 1019.06 1863.59 1048.93C1893.45 1078.79 1941.87 1078.79 1971.73 1048.93Z" fill="#EFB88C"/>
<path d="M1980.76 1021.42C1988.87 993.603 1972.9 964.473 1945.08 956.359C1917.26 948.245 1888.13 964.22 1880.01 992.039C1871.9 1019.86 1887.87 1048.99 1915.69 1057.1C1943.51 1065.22 1972.64 1049.24 1980.76 1021.42Z" fill="#FF804A"/>
<path d="M1930.16 816.017C1930.16 816.017 2004.94 1248.59 1689.85 1256.02C1332.76 1264.49 1352.45 973.687 1362.43 813.017C1362.43 813.017 1426.65 610.487 1686.61 633.097C1946.57 655.707 1930.16 816.017 1930.16 816.017Z" fill="#FFCFA0"/>
<path d="M1362.43 813.007C1362.43 813.007 1399.05 697.537 1528.91 650.707C1423.17 702.857 1392.26 800.337 1392.26 800.337C1382.26 961.057 1362.59 1251.86 1719.68 1243.39C1750.68 1242.66 1777.82 1237.81 1801.68 1229.68C1771.35 1245.39 1734.52 1255 1689.84 1256.06C1332.76 1264.53 1352.45 973.727 1362.43 813.007Z" fill="#FFA679"/>
<path d="M1723.54 1064.97C1738.78 1064.78 1750.96 1051.77 1750.76 1035.93C1750.55 1020.09 1738.03 1007.4 1722.8 1007.6C1707.56 1007.8 1695.38 1020.8 1695.58 1036.64C1695.79 1052.49 1708.3 1065.17 1723.54 1064.97Z" fill="#EFAB89"/>
<path d="M1927.88 878.797C1927.88 878.797 1923.5 851.897 1914.15 827.117C1914.15 827.117 1892.9 857.697 1857.5 872.217C1857.5 872.217 1837.72 779.797 1760.72 729.747C1760.72 729.747 1800.11 851.477 1683.96 909.617C1683.96 909.617 1678.28 780.447 1620.35 732.357C1620.35 732.357 1604.56 940.987 1288 933.417C1288 933.417 1137.23 516.667 1585 450.917C1585 450.917 1813.7 405.427 1940.72 568.207C2067.74 730.987 1974.47 855.857 1927.88 878.797Z" fill="#B95A20"/>
<path d="M1763.54 811.727C1756.05 846.137 1735.07 884.037 1683.96 909.617C1683.96 909.617 1680.83 838.687 1655.64 782.387C1689.71 798.142 1726.18 808.06 1763.54 811.727Z" fill="#9A3101"/>
<path d="M1999.23 776.667C1985.83 830.667 1951.07 867.387 1927.88 878.797C1927.88 878.797 1923.5 851.897 1914.15 827.117C1914.15 827.117 1892.9 857.697 1857.5 872.217C1857.5 872.217 1851.9 846.057 1835.07 814.037C1891.68 812.202 1947.41 799.516 1999.23 776.667V776.667Z" fill="#9A3101"/>
<path d="M1400.18 514.037C1414.85 570.237 1442.61 619.837 1483.48 662.837C1519.48 706.837 1563.03 739.607 1614.12 761.147C1596.52 818.147 1530.53 939.217 1288 933.417C1288 933.417 1185.63 650.417 1400.18 514.037Z" fill="#9A3101"/>
<path d="M1943.86 666.846C1955.74 655.147 1928.85 608.582 1883.81 562.841C1838.76 517.099 1792.61 489.502 1780.73 501.201C1768.85 512.9 1795.74 559.465 1840.78 605.207C1885.83 650.948 1931.98 678.546 1943.86 666.846Z" fill="#FF6611"/>
<path d="M1787.68 619.037C1795.64 611.202 1790.48 593.06 1776.16 578.515C1761.83 563.971 1743.77 558.533 1735.82 566.368C1727.86 574.204 1733.02 592.346 1747.34 606.89C1761.66 621.434 1779.73 626.873 1787.68 619.037Z" fill="#FF6611"/>
<path d="M1697.8 1109.94C1657.33 1111.57 1622.12 1127.39 1601.26 1150.3C1582.62 1129.85 1571.44 1103.4 1571.57 1074.56L1820.94 1099.56C1813.53 1126.05 1812.88 1124.86 1799.03 1144.12C1776.54 1121.96 1739.33 1108.28 1697.8 1109.94Z" fill="#FF2C31"/>
<path d="M1696.87 1191.78C1658.5 1191.58 1624.22 1175.49 1601.26 1150.3C1622.12 1127.39 1657.33 1111.57 1697.8 1109.94C1739.33 1108.28 1776.54 1121.94 1799.03 1144.13C1776 1173.21 1738.79 1192 1696.87 1191.78Z" fill="#FF6065"/>
<path d="M1568.97 1042.56C1591.57 1041.88 1609.1 1014.81 1608.12 982.094C1607.14 949.377 1588.02 923.404 1565.41 924.082C1542.81 924.76 1525.28 951.832 1526.26 984.55C1527.24 1017.27 1546.36 1043.24 1568.97 1042.56Z" fill="#741300"/>
<path d="M1601.57 976.014C1609.68 974.296 1614.65 965.369 1612.68 956.077C1610.71 946.784 1602.54 940.644 1594.44 942.362C1586.33 944.08 1581.36 953.006 1583.33 962.299C1585.3 971.591 1593.47 977.732 1601.57 976.014Z" fill="#FFFFEA"/>
<path d="M1882.31 948.557C1883.49 955.347 1880.76 961.777 1875.92 964.947C1875.15 954.384 1871.94 944.144 1866.53 935.037C1873.87 934.247 1880.83 940.117 1882.31 948.557Z" fill="#FFFFEA"/>
<path d="M1838.3 916.667C1849.54 916.737 1859.6 923.817 1866.53 935.037L1865.73 935.127C1858.1 936.457 1853.16 944.627 1854.73 953.377C1856.3 962.127 1863.73 968.137 1871.31 966.807C1872.97 966.508 1874.56 965.875 1875.97 964.947C1876.17 967.347 1876.28 969.797 1876.27 972.287C1876.07 1002.88 1858.79 1027.57 1837.66 1027.44C1816.53 1027.31 1799.55 1002.44 1799.74 971.817C1799.93 941.197 1817.16 916.537 1838.3 916.667Z" fill="#741300"/>
<path d="M1854.68 953.377C1853.16 944.627 1858.1 936.457 1865.68 935.127L1866.48 935.037C1871.89 944.144 1875.1 954.384 1875.87 964.947C1874.46 965.875 1872.87 966.508 1871.21 966.807C1863.63 968.137 1856.21 962.127 1854.68 953.377Z" fill="#FFFFEA"/>
<path d="M1491.44 884.447C1491.44 884.447 1541.11 811.447 1614.14 893.217" stroke="#741300" stroke-width="16.12" stroke-miterlimit="10" stroke-linecap="round"/>
<path d="M1784 884.447C1784 884.447 1833.66 811.447 1906.7 893.217" stroke="#741300" stroke-width="16.12" stroke-miterlimit="10" stroke-linecap="round"/>
<path d="M2552.09 1940.24C2560.09 1972.31 2674.67 1967.51 2710.29 1938.16C2710.55 1936.16 2710.73 1934.16 2710.82 1932.1C2713.02 1878.25 2695.56 1877.1 2695.56 1877.1L2583.61 1876.1C2583.61 1876.1 2541.79 1881.68 2528.88 1916.1C2536.87 1915.86 2547.07 1920.05 2552.09 1940.24Z" fill="#CD4245"/>
<path d="M2552.09 1940.24C2547.09 1920.05 2536.87 1915.85 2528.88 1916.05C2525.88 1924.15 2524.4 1933.84 2525.48 1945.43C2531.17 2006.32 2647.71 1986.71 2647.71 1986.71C2647.71 1986.71 2703.94 1986 2710.29 1938.16C2674.67 1967.51 2560.05 1972.31 2552.09 1940.24Z" fill="#E3DDE9"/>
<path d="M2555.46 1724.31L2569.66 1592.55L2707.05 1607.36L2692.84 1739.13C2690.84 1757.72 2690.97 1776.49 2693.23 1795.06L2703.71 1881H2703.53C2703.03 1888.89 2672.15 1895.25 2634.11 1895.25C2596.07 1895.25 2565.19 1888.89 2564.69 1881H2564.51L2556.06 1811.78C2552.53 1782.74 2552.32 1753.39 2555.46 1724.31V1724.31Z" fill="#282423"/>
<path d="M2731.24 1940.24C2739.24 1972.31 2853.82 1967.51 2889.44 1938.16C2889.7 1936.16 2889.88 1934.16 2889.97 1932.1C2892.17 1878.25 2874.71 1877.1 2874.71 1877.1L2762.76 1876.1C2762.76 1876.1 2720.94 1881.68 2708.03 1916.1C2716 1915.86 2726.22 1920.05 2731.24 1940.24Z" fill="#CD4245"/>
<path d="M2731.24 1940.24C2726.24 1920.05 2716.02 1915.85 2708.03 1916.05C2705.03 1924.15 2703.55 1933.84 2704.63 1945.43C2710.32 2006.32 2826.86 1986.71 2826.86 1986.71C2826.86 1986.71 2883.09 1986 2889.44 1938.16C2853.82 1967.51 2739.2 1972.31 2731.24 1940.24Z" fill="#E3DDE9"/>
<path d="M2734.6 1724.31L2748.81 1592.55L2886.2 1607.36L2872 1739.13C2870 1757.72 2870.13 1776.49 2872.39 1795.06L2882.87 1881H2882.69C2882.19 1888.89 2851.31 1895.25 2813.27 1895.25C2775.23 1895.25 2744.35 1888.89 2743.85 1881H2743.67L2735.22 1811.78C2731.68 1782.74 2731.48 1753.39 2734.6 1724.31V1724.31Z" fill="#282423"/>
<path d="M2207 1442.05C2243.18 1445.05 2268.93 1446.32 2301.45 1445.05C2416 1440.66 2507.61 1409.71 2574.65 1352.57C2667.71 1273.26 2676.32 1172.17 2676.65 1167.9L2573.31 1160.12V1159.57C2573.11 1161.7 2567.71 1212.27 2522.66 1259.31C2496.15 1286.98 2460.86 1308.03 2417.75 1321.89C2360.59 1340.26 2289.69 1346.04 2207.04 1339.08" fill="#FFBF3B"/>
<path d="M2550.75 1551.17C2550.75 1551.17 2550.5 1668.24 2737.61 1671.27C2924.72 1674.3 2947.41 1523.27 2947.41 1523.27L2550.75 1551.17Z" fill="#282423"/>
<path d="M2543.55 1497.72C2543.55 1497.72 2525.49 1531.64 2545.81 1555.41C2561.91 1574.24 2601.4 1582.48 2697.69 1592.28C2915.58 1614.48 2987.57 1514.06 2948.34 1481.61C2948.34 1481.61 2674.39 1571.86 2543.55 1497.72Z" fill="#D79400"/>
<path d="M2942.44 1379.04C2710.72 1436.13 2598.77 1409.31 2547.44 1381.33C2529.15 1473.96 2479.8 1521.4 2660.3 1544.41C2872.97 1571.52 2982.61 1508.84 2972.25 1444.08C2964.92 1398.04 2952.27 1397.95 2942.44 1379.04Z" fill="#E3DDE9"/>
<path d="M2942.44 1379.04C2938.44 1371.36 2940.82 1339.33 2941.32 1320.91C2943.52 1240.56 2927.32 1117.85 2893.11 1103.59L2570.43 1137.51C2570.43 1137.51 2551.57 1198.51 2552.83 1327.38C2552.91 1345.5 2551.12 1363.58 2547.48 1381.33C2598.77 1409.31 2710.72 1436.13 2942.44 1379.04Z" fill="#FFBF3B"/>
<path d="M2647.21 1553.93C2647.21 1553.38 2645.6 1498.55 2649.27 1431.6C2654.22 1341.34 2665.88 1273.13 2683.9 1228.86L2696.9 1234.16C2655.2 1336.57 2661.18 1551.34 2661.24 1553.5L2647.21 1553.93Z" fill="#D79400"/>
<path opacity="0.17" d="M2848.74 1565.44C2848.74 1565.44 2892.64 1529.79 2906.26 1448.74C2913.81 1403.85 2899.56 1343.31 2893.11 1271.24C2893.11 1271.24 3072.26 1443.86 2848.74 1565.44Z" fill="#111010"/>
<path d="M2823.53 1592.28C2802.31 1615.14 2793.65 1649.77 2814.63 1673.75C2835.61 1697.73 2872.24 1692.91 2895.72 1672.37C2919.2 1651.83 2926.16 1632.48 2905.18 1608.5C2884.2 1584.52 2859.15 1553.93 2823.53 1592.28Z" fill="#FFCFA0"/>
<path d="M2916.38 1647.76C2919.32 1644.68 2988.78 1571.4 3026.82 1497.71C3049.49 1453.77 3040.96 1391.33 3000.71 1306.82C2983.97 1272.07 2964.95 1238.48 2943.76 1206.26C2936.08 1194.85 2924.19 1186.96 2910.7 1184.33C2897.21 1181.69 2883.22 1184.52 2871.82 1192.2C2860.42 1199.87 2852.53 1211.76 2849.89 1225.25C2847.25 1238.75 2850.08 1252.73 2857.76 1264.14V1264.14C2875.82 1291.74 2892.11 1320.47 2906.53 1350.14C2943 1426.25 2934.73 1450.03 2934.64 1450.25C2903.4 1510.77 2841.94 1575.57 2841.33 1576.25" fill="#FFBF3B"/>
<path d="M2452 978.257C2452 978.257 2340.68 845.417 2432.66 613.417C2524.64 381.417 2961.75 504.857 2961.75 504.857C2961.75 504.857 3241.08 671.017 3049.32 1036.45L2452 978.257Z" fill="#4D3129"/>
<path d="M3040.95 1107.16C3084.8 1096.49 3111.39 1051.05 3100.35 1005.68C3089.3 960.299 3044.8 932.166 3000.95 942.839C2957.11 953.512 2930.52 998.948 2941.56 1044.32C2952.61 1089.7 2997.1 1117.83 3040.95 1107.16Z" fill="#EFB88C"/>
<path d="M3056.14 1062.94C3078.03 1041.04 3078.03 1005.54 3056.14 983.647C3034.24 961.75 2998.74 961.75 2976.84 983.647C2954.94 1005.54 2954.94 1041.04 2976.84 1062.94C2998.74 1084.84 3034.24 1084.84 3056.14 1062.94Z" fill="#FF804A"/>
<path d="M2522.04 1048.93C2551.9 1019.07 2551.9 970.647 2522.04 940.784C2492.17 910.92 2443.76 910.92 2413.89 940.784C2384.03 970.647 2384.03 1019.07 2413.89 1048.93C2443.76 1078.79 2492.17 1078.79 2522.04 1048.93Z" fill="#EFB88C"/>
<path d="M2511.64 1013.85C2521.74 986.692 2507.9 956.487 2480.74 946.391C2453.58 936.295 2423.37 950.13 2413.28 977.293C2403.18 1004.46 2417.02 1034.66 2444.18 1044.76C2471.34 1054.85 2501.55 1041.02 2511.64 1013.85Z" fill="#FF804A"/>
<path d="M2455.47 816.017C2455.47 816.017 2380.7 1248.59 2695.78 1256.02C3052.87 1264.49 3033.18 973.687 3023.2 813.017C3023.2 813.017 2958.98 610.487 2699.02 633.097C2439.06 655.707 2455.47 816.017 2455.47 816.017Z" fill="#FFCFA0"/>
<path d="M3023.2 813.007C3023.2 813.007 2986.58 697.537 2856.72 650.707C2962.46 702.857 2993.37 800.337 2993.37 800.337C3003.37 961.057 3023.04 1251.86 2665.95 1243.39C2635 1242.66 2607.82 1237.81 2583.95 1229.68C2614.28 1245.39 2651.11 1255 2695.79 1256.06C3052.87 1264.53 3033.18 973.727 3023.2 813.007Z" fill="#FFA679"/>
<path d="M2689.73 1036.38C2689.93 1020.53 2677.75 1007.53 2662.51 1007.33C2647.27 1007.14 2634.76 1019.82 2634.55 1035.67C2634.35 1051.51 2646.53 1064.51 2661.77 1064.71C2677.01 1064.91 2689.52 1052.22 2689.73 1036.38Z" fill="#EFAB89"/>
<path d="M2687.84 1109.94C2728.3 1111.57 2763.51 1127.39 2784.37 1150.3C2803.01 1129.85 2814.2 1103.4 2814.06 1074.56L2564.69 1099.56C2572.1 1126.05 2572.75 1124.86 2586.61 1144.12C2609.09 1121.96 2646.3 1108.28 2687.84 1109.94Z" fill="#FF2C31"/>
<path d="M2688.76 1191.78C2727.13 1191.58 2761.41 1175.49 2784.37 1150.3C2763.51 1127.39 2728.3 1111.57 2687.84 1109.94C2646.3 1108.28 2609.09 1121.94 2586.61 1144.13C2609.62 1173.21 2646.84 1192 2688.76 1191.78Z" fill="#FF6065"/>
<path d="M2860.47 984.177C2861.45 951.475 2843.92 924.417 2821.32 923.742C2798.73 923.068 2779.62 949.032 2778.65 981.735C2777.67 1014.44 2795.19 1041.5 2817.79 1042.17C2840.38 1042.84 2859.49 1016.88 2860.47 984.177Z" fill="#741300"/>
<path d="M2802.23 962.223C2804.2 952.931 2799.23 944.005 2791.13 942.286C2783.02 940.568 2774.85 946.709 2772.88 956.001C2770.91 965.294 2775.89 974.22 2783.99 975.939C2792.1 977.657 2800.26 971.516 2802.23 962.223Z" fill="#FFFFEA"/>
<path d="M2503.33 948.557C2502.14 955.347 2504.87 961.777 2509.72 964.947C2510.48 954.383 2513.69 944.143 2519.1 935.037C2511.76 934.247 2504.8 940.117 2503.33 948.557Z" fill="#FFFFEA"/>
<path d="M2547.34 916.667C2536.09 916.737 2526.03 923.817 2519.1 935.037L2519.9 935.127C2527.53 936.457 2532.47 944.627 2530.9 953.377C2529.33 962.127 2521.95 968.137 2514.32 966.807C2512.66 966.51 2511.08 965.877 2509.67 964.947C2509.46 967.347 2509.35 969.797 2509.37 972.287C2509.56 1002.88 2526.84 1027.57 2547.98 1027.44C2569.12 1027.31 2586.09 1002.44 2585.9 971.817C2585.71 941.197 2568.47 916.537 2547.34 916.667Z" fill="#741300"/>
<path d="M2531 953.377C2532.52 944.627 2527.58 936.457 2520 935.127L2519.2 935.037C2513.79 944.143 2510.58 954.384 2509.82 964.947C2511.23 965.877 2512.81 966.51 2514.47 966.807C2522 968.137 2529.42 962.127 2531 953.377Z" fill="#FFFFEA"/>
<path d="M2894.19 884.447C2894.19 884.447 2844.52 811.447 2771.49 893.217" stroke="#741300" stroke-width="16.12" stroke-miterlimit="10" stroke-linecap="round"/>
<path d="M2601.63 884.447C2601.63 884.447 2551.97 811.447 2478.93 893.217" stroke="#741300" stroke-width="16.12" stroke-miterlimit="10" stroke-linecap="round"/>
<path d="M2294.61 745.037C2353.93 815.317 2517.96 933.637 2909.79 822.377C2909.79 822.377 2922.93 1026.18 3011.69 1055.77C3011.69 1055.77 3123.45 986.767 3123.45 756.637C3123.45 526.507 2936.08 424.637 2679.69 444.357C2477.58 459.907 2421.41 653.257 2308.84 693.697C2287.48 701.367 2280 727.697 2294.61 745.037Z" fill="#A22000"/>
<path d="M2913.13 466.857C2908.07 490.103 2899.87 512.555 2888.77 533.597C2874.61 577.124 2850.41 614.79 2816.17 646.597C2784.37 680.837 2746.7 705.034 2703.17 719.187C2661.33 741.187 2616.24 751.267 2567.9 749.427C2504.53 749.227 2445.47 733.25 2390.71 701.497L2350.71 670.587C2337.41 680.427 2323.6 688.397 2308.82 693.707C2287.46 701.377 2279.95 727.707 2294.59 745.047C2353.91 815.327 2517.94 933.647 2909.77 822.387C2909.77 822.387 2922.92 1026.19 3011.67 1055.78C3011.67 1055.78 3123.43 986.777 3123.43 756.647C3123.45 604.977 3042 509.017 2913.13 466.857Z" fill="#831D00"/>
<path d="M2553.01 602.558C2579.96 575.6 2592.8 544.728 2581.67 533.602C2570.55 522.475 2539.67 535.309 2512.72 562.267C2485.76 589.225 2472.92 620.098 2484.05 631.225C2495.18 642.351 2526.05 629.516 2553.01 602.558Z" fill="#E82900"/>
<path d="M2217.83 1336.22H2186.08C2154.3 1336.22 2128.54 1361.98 2128.54 1393.76V1394.88C2128.54 1426.66 2154.3 1452.42 2186.08 1452.42H2217.83C2249.61 1452.42 2275.37 1426.66 2275.37 1394.88V1393.76C2275.37 1361.98 2249.61 1336.22 2217.83 1336.22Z" fill="#FFCFA0"/>
</svg>
