<svg xmlns="http://www.w3.org/2000/svg" viewBox="0 0 4298.72 2041.07"><defs><style>.cls-1,.cls-24,.cls-4{isolation:isolate;}.cls-2{fill:#0b78ff;}.cls-3{fill:#7d99bc;}.cls-14,.cls-4{fill:#141211;}.cls-4{opacity:0.11;}.cls-5{fill:#1c1918;}.cls-6{fill:#003f9e;}.cls-7{fill:#1cc4ff;}.cls-8{fill:#00c3f7;}.cls-9{fill:#9fe2f4;}.cls-10{fill:#6a7d99;}.cls-11{fill:#006ce1;}.cls-12{fill:#35373a;}.cls-13{fill:#282423;}.cls-15{fill:#3e4244;}.cls-16{fill:#009225;}.cls-17{fill:#006917;}.cls-18{fill:#ffbc1a;}.cls-19{fill:#d79400;}.cls-20{fill:#074980;}.cls-21{fill:#e3dde9;}.cls-22{fill:#00a632;}.cls-23{fill:#236d36;}.cls-24{fill:#111010;opacity:0.17;}.cls-25{fill:#ffcfa0;}.cls-26{fill:#7c2a0a;}.cls-27{fill:#efb88c;}.cls-28{fill:#ff804a;}.cls-29{fill:#ffa679;}.cls-30{fill:#efab89;}.cls-31{fill:#b95a20;}.cls-32{fill:#9a3101;}.cls-33{fill:#f61;}.cls-34{fill:#ff2c31;}.cls-35{fill:#ff6065;}.cls-36{fill:#741300;}.cls-37{fill:#ffffea;}.cls-38{fill:none;stroke:#741300;stroke-linecap:round;stroke-miterlimit:10;stroke-width:16.12px;}.cls-39{fill:#cd4245;}.cls-40{fill:#ffbf3b;}.cls-41{fill:#4d3129;}.cls-42{fill:#a22000;}.cls-43{fill:#831d00;}.cls-44{fill:#e82900;}.cls-45{fill:#4e00ff;mix-blend-mode:lighten;}</style></defs><g class="cls-1"><g id="Layer_1" data-name="Layer 1"><rect class="cls-2" x="1741.1" y="362.43" width="894.1" height="959.15"/><rect class="cls-3" x="1741.1" y="362.43" width="894.1" height="132.24"/><path class="cls-4" d="M2096,1979.73c0,33.87-191.26,61.34-427.18,61.34s-427.18-27.47-427.18-61.34c0-25,104.28-46.53,253.82-56.08,52.71-3.36,111-5.24,172.41-5.26h10.52c57.77.18,112.72,2,162.65,5.17h0q9.2.57,18.16,1.22C1999.6,1934.86,2096,1955.67,2096,1979.73Z" transform="translate(0 0)"/><path class="cls-4" d="M3188.68,1979.73c0,33.87-191.26,61.34-427.18,61.34s-427.18-27.47-427.18-61.34c0-21.37,76.07-40.18,191.45-51.17q10.29-1,21-1.87c48.23-4,102.47-6.75,160.31-7.81l3.89-.07,7.28-.11h0q21.31-.32,43.22-.31c44.83,0,88.05,1,128.65,2.83C3063.2,1929.06,3188.68,1952.29,3188.68,1979.73Z" transform="translate(0 0)"/><path class="cls-5" d="M487.27,686.7H672.15V528.87H487.27Z" transform="translate(0 0)"/><rect class="cls-6" x="137.73" y="12.55" width="883.84" height="554.65"/><path class="cls-7" d="M958.35,504.08V75.6H200.69V504.08Z" transform="translate(0 0)"/><path class="cls-8" d="M332.74,213q84,90.39,198.88,127.78,110.46,58,238.09,53.22,98.26-.3,188.69-29.37V504.12l-757.66.07V75.71h29.19Q267.53,152.39,332.74,213Z" transform="translate(0 0)"/><path class="cls-5" d="M458,698H701.46V646.1H458Z" transform="translate(0 0)"/><path class="cls-9" d="M904.07,241.41c12.74,0,23.06-28.72,23.06-64.15s-10.32-64.15-23.06-64.15S881,141.83,881,177.26,891.33,241.41,904.07,241.41Z" transform="translate(0 0)"/><polygon class="cls-10" points="1557.67 689.26 1557.67 1302.62 1447.36 1302.62 1447.36 770.9 112.52 770.9 112.52 1302.62 0 1302.62 0 689.26 1557.67 689.26"/><rect class="cls-11" x="112.52" y="770.9" width="1334.83" height="500.84"/><rect class="cls-12" x="1096.13" y="1.02" width="341.52" height="696.7"/><polygon class="cls-13" points="1271.22 0.12 1271.22 1.02 1271.11 153.38 1271.1 169.54 1270.98 352.98 1270.97 369.13 1270.75 689.26 1270.74 696.82 1096.62 696.7 1096.63 689.26 1097.1 1.02 1097.1 0 1271.22 0.12"/><path class="cls-8" d="M1322.35,169.62a8,8,0,0,0,4.48-1.36l78.59-52.4a8.06,8.06,0,0,0,2.23-2.24,7.91,7.91,0,0,0,1.2-2.91,8,8,0,0,0,0-3.16,8.11,8.11,0,0,0-1.21-2.91,8,8,0,0,0-2.23-2.23,8,8,0,0,0-6.08-1.2,8.11,8.11,0,0,0-2.91,1.21l-76.55,51-106.1-.08-81.55-54.48a7.93,7.93,0,0,0-2.91-1.21,8.08,8.08,0,0,0-8.31,3.42,8.11,8.11,0,0,0-1.21,2.91,8.2,8.2,0,0,0,0,3.16,8.1,8.1,0,0,0,3.43,5.15l83.63,55.85a8.22,8.22,0,0,0,4.48,1.36l111,.08Z" transform="translate(0 0)"/><path class="cls-8" d="M1322.24,369.21a8.13,8.13,0,0,0,4.48-1.35l78.59-52.4a8.09,8.09,0,1,0-9-13.44l-76.56,51-106.1-.08-81.59-54.49a8.11,8.11,0,0,0-2.91-1.21,8.07,8.07,0,0,0-8.31,3.43,8.11,8.11,0,0,0-1.21,2.91,8,8,0,0,0,0,3.16,7.91,7.91,0,0,0,1.2,2.91,8.06,8.06,0,0,0,2.23,2.24l83.63,55.84a8.22,8.22,0,0,0,4.48,1.36l111,.08Z" transform="translate(0 0)"/><path class="cls-4" d="M1025.64,1805.68c0,23.54-142.25,42.62-317.72,42.62s-317.72-19.08-317.72-42.62c0-13.14,44.33-24.89,114-32.71q16.11-1.82,34-3.33,10.4-.87,21.33-1.65,16.51-1.18,34.15-2.09c35.45-1.83,74-2.84,114.26-2.84,51,0,99.12,1.61,141.81,4.47,32,2.15,61,5,85.72,8.4C991.26,1783.61,1025.64,1794.11,1025.64,1805.68Z" transform="translate(0 0)"/><path d="M1016.45,1319.17H1050V1058.42h-33.52Z" transform="translate(0 0)"/><path class="cls-13" d="M786.11,1134h353.07a59.39,59.39,0,0,0,59.39-59.39v-7.87a59.39,59.39,0,0,0-59.39-59.39H786.11a59.39,59.39,0,0,0-59.39,59.39v7.87A59.39,59.39,0,0,0,786.11,1134Z" transform="translate(0 0)"/><path class="cls-14" d="M786.12,1112.19h353.06a59.42,59.42,0,0,0,59-52.45,59.6,59.6,0,0,1,.41,7v7.87A59.38,59.38,0,0,1,1139.2,1134H786.12a59.41,59.41,0,0,1-59.39-59.39v-7.87a59.6,59.6,0,0,1,.41-7,59.42,59.42,0,0,0,59,52.45Z" transform="translate(0 0)"/><path class="cls-15" d="M951.15,1737.38A55.19,55.19,0,1,1,896,1682.19,55,55,0,0,1,951.15,1737.38Z" transform="translate(0 0)"/><path d="M968.75,1727.51a12.93,12.93,0,0,1-2.48,5.09,12.71,12.71,0,0,1-4.43,3.51,12.9,12.9,0,0,1-5.52,1.27H835.61a12.9,12.9,0,0,1-5.52-1.27,12.71,12.71,0,0,1-4.43-3.51,12.77,12.77,0,0,1-2.54-10.74,74.48,74.48,0,0,1,145.68,0A12.68,12.68,0,0,1,968.75,1727.51Z" transform="translate(0 0)"/><path d="M896,1770.67a33.29,33.29,0,1,0-33.29-33.29A33.29,33.29,0,0,0,896,1770.67Z" transform="translate(0 0)"/><path class="cls-15" d="M601.59,1737.38a55.19,55.19,0,1,1-55.19-55.19A54.95,54.95,0,0,1,601.59,1737.38Z" transform="translate(0 0)"/><path d="M619.19,1727.52a12.85,12.85,0,0,1-2.49,5.08,12.71,12.71,0,0,1-4.43,3.51,12.9,12.9,0,0,1-5.52,1.27H486.05a12.9,12.9,0,0,1-5.52-1.27,12.71,12.71,0,0,1-4.43-3.51,12.77,12.77,0,0,1-2.54-10.74,74.48,74.48,0,0,1,145.68,0A12.87,12.87,0,0,1,619.19,1727.52Z" transform="translate(0 0)"/><path d="M546.4,1770.67a33.29,33.29,0,1,0-33.29-33.29A33.29,33.29,0,0,0,546.4,1770.67Z" transform="translate(0 0)"/><rect class="cls-14" x="652.96" y="1317.82" width="115.3" height="201.15"/><path class="cls-16" d="M1044.14,689.26c-1.09-40.49-10.74-82.22-33.2-122.06-13-23-30.21-45.42-52.54-66.58,0,0,0,0,0,0q-1.87-1.8-3.79-3.55c-43.71-40.1-64.72-78.27-80.7-111.85-34.66-72.84-45.68-124.15-213.3-127v-.1h-6.33v.1q-6,.11-11.69.28c-18.84.61-35.58,1.88-50.5,3.76l-.52.07-2.15.28c-1.43.18-2.84.38-4.24.59l-2.08.31c-.72.1-1.44.21-2.15.33l-3.23.52-2.69.46-2,.35-1.94.36-1.91.37c-1.9.36-3.76.75-5.59,1.15l-1.82.4-1,.23-1.64.38c-.89.2-1.77.42-2.65.64l-1.73.43c-1.15.29-2.28.59-3.4.89l-3.3.92-.61.18q-2.4.69-4.71,1.43l-1.53.49-1.51.5c-1.52.51-3,1-4.5,1.57l-1.34.5-1.42.54c-4.22,1.62-8.18,3.34-11.93,5.17q-1.25.6-2.46,1.23-2.43,1.22-4.74,2.54a114.36,114.36,0,0,0-37.49,33.56C443.7,362.74,436.66,426.92,360.23,497q-3.81,3.5-7.43,7.05a.31.31,0,0,0-.1.1,280.69,280.69,0,0,0-48.86,63c-22.45,39.85-32.1,81.57-33.19,122.06a319.49,319.49,0,0,0,8.72,81.64C290,816.19,309,856.44,328.57,886c28.91,43.63,38.77,78.18,39.64,117,.65,29.26-3.81,61-9,100.82-1.09,8.24-2.21,16.83-3.33,25.83v0c-.4,3.17-.79,6.38-1.18,9.65-5.77,48.34.54,85,9.94,111.32a171.77,171.77,0,0,0,9.07,21c11.68,22.7,23.82,33,23.82,33H917.31l0,0c.16-.13.77-.67,1.74-1.63.4-.4.8-.8,1.18-1.2,1.08-1.13,2.43-2.6,4-4.43a137.91,137.91,0,0,0,16.88-25.75,178.2,178.2,0,0,0,13.18-34h0c7-25,10.72-57.48,5.84-98.34q-.33-2.73-.65-5.42-1.38-11.28-2.76-21.76c-5.45-41.84-10.38-74.78-10.2-104.89.22-40.6,9.71-76.06,39.68-121.27,19.61-29.59,38.56-69.83,49.21-115.13A319.14,319.14,0,0,0,1044.14,689.26ZM653.57,567.2v93.51a23.46,23.46,0,0,1-23.45,23.45H540.45A23.44,23.44,0,0,1,517,660.71V588.47a113.1,113.1,0,0,1,33.13-80q2.24-2.24,4.58-4.32l.08-.08a113.11,113.11,0,0,1,75.33-28.73,23.46,23.46,0,0,1,23.45,23.45ZM861.3,588.47v72.24a23.46,23.46,0,0,1-23.45,23.45H748.18a23.46,23.46,0,0,1-23.45-23.45V498.8a23.46,23.46,0,0,1,23.45-23.45,113.11,113.11,0,0,1,75.33,28.73l.06.05c1.57,1.41,3.11,2.86,4.6,4.35a113.33,113.33,0,0,1,33.13,80Z" transform="translate(0 0)"/><path class="cls-17" d="M727.29,1297.46H470.57S413.76,1249,427.73,1132s30.73-167.66-26.08-253.35-108-260.8,31.67-389C552.47,380.37,502.93,285.46,642.71,258.4,412.17,265.86,496.55,372,360.27,497,220.59,625.2,271.81,800.31,328.61,886s40.05,136.36,26.08,253.34,42.83,165.42,42.83,165.42H917.31a68.39,68.39,0,0,0,6.94-7.3h-197Z" transform="translate(0 0)"/><path d="M465.16,1338.29h33.52V1077.54H465.16Z" transform="translate(0 0)"/><path class="cls-13" d="M1134.72,1306.2v58.68a68.49,68.49,0,0,1-68.49,68.49H404.71c-1.77,0-3.53-.07-5.27-.2-.57,0-1.14-.09-1.7-.15-1-.1-2.07-.23-3.1-.39l-1.19-.19c-.71-.11-1.41-.24-2.11-.38-1-.2-2-.43-3.07-.68l-2-.52-1.47-.43c-.54-.16-1.07-.33-1.6-.51s-1.07-.36-1.59-.55l-1.58-.58-1.57-.63-1.51-.64-.06,0-.87-.4q-.51-.22-1-.48l-1.24-.61q-.7-.35-1.38-.72c-.25-.13-.5-.26-.74-.4l-1-.59c-.48-.27-1-.55-1.43-.84s-.93-.57-1.4-.87c-.92-.6-1.83-1.21-2.73-1.85s-1.77-1.29-2.64-2l-1.28-1a69.16,69.16,0,0,1-11.32-11.87l-1-1.33c-.77-1.09-1.51-2.19-2.21-3.32-.24-.37-.47-.75-.69-1.13s-.57-1-.85-1.45c-.55-1-1.07-2-1.58-3-.25-.5-.5-1-.74-1.51s-.48-1-.71-1.56-.44-1-.65-1.52-.42-1-.63-1.57c-.41-1-.79-2.1-1.13-3.17q-.8-2.38-1.4-4.84c-.14-.55-.27-1.09-.39-1.64s-.23-1-.33-1.54-.17-.9-.26-1.36-.15-.9-.22-1.36c-.11-.66-.2-1.33-.29-2-.06-.48-.12-1-.17-1.45-.08-.75-.15-1.5-.2-2.25-.12-1.66-.18-3.33-.18-5V1306.2c0-1.18,0-2.36.09-3.52s.14-2.2.24-3.28.25-2.23.42-3.34c.08-.55.17-1.11.27-1.66s.15-.84.23-1.26c.13-.68.27-1.36.42-2,.12-.52.25-1,.37-1.56l.45-1.69c.29-1.07.61-2.14,1-3.19s.72-2.11,1.13-3.15c.2-.52.41-1,.62-1.55s.43-1,.66-1.54.46-1,.69-1.51.49-1,.74-1.51c.49-1,1-2,1.57-2.94l.42-.73.43-.73.63-1c.38-.6.76-1.2,1.16-1.79s.62-.93.95-1.39.65-.91,1-1.36.83-1.11,1.27-1.65c.3-.39.61-.77.93-1.16.69-.84,1.41-1.67,2.15-2.48s1.49-1.61,2.27-2.38,1.57-1.53,2.38-2.27c1.39-1.27,2.82-2.46,4.3-3.59l1-.76.63-.46,0,0,.71-.5q1.37-1,2.79-1.86a68,68,0,0,1,33.18-10.5c1.13-.06,2.27-.09,3.41-.09h661.52a68.47,68.47,0,0,1,68.49,68.49Z" transform="translate(0 0)"/><path class="cls-17" d="M762.66,1405.78c-124.13,0-232.46-67.64-290.16-168.06h580.33C995.13,1338.14,886.8,1405.78,762.66,1405.78Z" transform="translate(0 0)"/><path class="cls-14" d="M450,1237.72v195.66H404.7c-1.76,0-3.51-.07-5.26-.21-.57,0-1.14-.09-1.7-.15-1-.1-2.07-.23-3.1-.39l-1.19-.19c-.71-.11-1.41-.24-2.11-.38-1-.2-2-.43-3.07-.68l-2-.52-1.47-.43c-.54-.16-1.07-.33-1.6-.51s-1.07-.36-1.59-.55l-1.58-.58-1.57-.63-1.51-.64-.06,0-.87-.4q-.51-.22-1-.48l-1.24-.61q-.7-.35-1.38-.72c-.25-.13-.5-.26-.74-.4l-1-.59c-.48-.27-1-.55-1.43-.84s-.93-.57-1.4-.87c-.93-.59-1.84-1.2-2.73-1.85s-1.78-1.28-2.64-2l-1.28-1c-1-.85-2-1.73-3-2.64l-.25-.24c-.55-.51-1.09-1-1.62-1.54-1.35-1.35-2.63-2.76-3.86-4.21l0-.07c-.87-1-1.72-2.09-2.53-3.17l-1-1.33c-.77-1.09-1.51-2.19-2.21-3.32-.24-.37-.47-.75-.69-1.13s-.57-1-.85-1.45c-.55-1-1.07-2-1.58-3-.25-.5-.5-1-.74-1.51s-.48-1-.71-1.56-.44-1-.65-1.52-.42-1-.63-1.57c-.4-1-.78-2.1-1.13-3.17q-.78-2.4-1.4-4.84c-.14-.55-.27-1.09-.39-1.64s-.23-1-.33-1.54-.17-.9-.26-1.36-.15-.9-.22-1.36c-.11-.66-.2-1.33-.29-2-.06-.48-.12-1-.17-1.45-.08-.75-.15-1.5-.2-2.25-.13-1.67-.19-3.36-.19-5v-58.69c0-1.17,0-2.33.1-3.49s.14-2.2.24-3.28.25-2.23.42-3.34c.08-.55.17-1.11.27-1.66s.15-.84.23-1.26c.13-.68.27-1.36.42-2,.12-.52.25-1,.37-1.56l.45-1.69c.3-1.07.62-2.14,1-3.19s.73-2.11,1.13-3.15c.2-.52.41-1,.62-1.55s.43-1,.66-1.54.46-1,.69-1.51.49-1,.74-1.51c.5-1,1-2,1.57-2.94l.42-.73.43-.73.63-1c.38-.6.76-1.2,1.16-1.79s.62-.93.95-1.39.65-.91,1-1.36.83-1.11,1.27-1.65c.3-.39.61-.77.93-1.16.69-.84,1.41-1.67,2.15-2.48s1.48-1.6,2.27-2.38h0c.78-.78,1.57-1.53,2.38-2.26,1.39-1.27,2.82-2.46,4.3-3.59l1-.76.63-.46,0,0,.71-.51q1.37-1,2.79-1.86a68.58,68.58,0,0,1,33.18-10.5c1.13,0,2.26-.08,3.4-.08Z" transform="translate(0 0)"/><path d="M773.5,1527.85v126H647.82v-126a62.84,62.84,0,0,1,120.44-25.1c.16.35.31.71.46,1.07A62.77,62.77,0,0,1,773.5,1527.85Z" transform="translate(0 0)"/><path d="M913.61,1628.13V1669H513.34v-40.84a39.86,39.86,0,0,1,39.86-39.86H873.75a39.86,39.86,0,0,1,39.86,39.86Z" transform="translate(0 0)"/><path class="cls-13" d="M327.29,1129.69H680.36a59.39,59.39,0,0,0,59.39-59.39v-7.87A59.39,59.39,0,0,0,680.36,1003H327.29a59.39,59.39,0,0,0-59.39,59.39v7.87A59.39,59.39,0,0,0,327.29,1129.69Z" transform="translate(0 0)"/><path class="cls-14" d="M327.3,1103.86H680.36a59.42,59.42,0,0,0,58.72-50.4,60.19,60.19,0,0,1,.67,9v7.87a59.41,59.41,0,0,1-59.39,59.39H327.3a59.39,59.39,0,0,1-59.39-59.39v-7.87a60.19,60.19,0,0,1,.67-9,59.42,59.42,0,0,0,58.72,50.4Z" transform="translate(0 0)"/><path class="cls-5" d="M3908,528.91H3723.11V686.74H3908Z" transform="translate(0 0)"/><rect class="cls-12" x="3373.66" y="12.59" width="883.84" height="554.65"/><path class="cls-7" d="M4194.72,504.24V75.76H3437.06V504.24Z" transform="translate(0 0)"/><path class="cls-8" d="M4062.4,213q-84,90.39-198.87,127.78-110.47,58-238.09,53.22-98.28-.3-188.7-29.37V504.12l757.66.07V75.71h-29.19Q4127.61,152.39,4062.4,213Z" transform="translate(0 0)"/><path class="cls-5" d="M3937.3,646.16H3693.79V698H3937.3Z" transform="translate(0 0)"/><path class="cls-9" d="M3491.07,241.41c12.74,0,23.06-28.72,23.06-64.15s-10.32-64.15-23.06-64.15S3468,141.83,3468,177.26,3478.33,241.41,3491.07,241.41Z" transform="translate(0 0)"/><polygon class="cls-10" points="4298.72 689.26 4298.72 1302.62 4186.2 1302.62 4186.2 770.9 2851.36 770.9 2851.36 1302.62 2741.05 1302.62 2741.05 689.26 4298.72 689.26"/><rect class="cls-11" x="2851.36" y="770.9" width="1334.83" height="500.84"/><rect class="cls-12" x="2860.29" y="0.07" width="341.52" height="696.7"/><rect class="cls-13" x="3027.69" y="0.01" width="174.12" height="696.7"/><path class="cls-8" d="M2976.36,169.62a8,8,0,0,1-4.47-1.36l-78.59-52.4a8.09,8.09,0,1,1,9-13.44l76.55,51,106.1-.08,81.55-54.48a7.93,7.93,0,0,1,2.91-1.21,8.08,8.08,0,0,1,8.31,3.42,8.11,8.11,0,0,1,1.21,2.91,8.2,8.2,0,0,1,0,3.16,8.1,8.1,0,0,1-3.43,5.15l-83.63,55.85a8.22,8.22,0,0,1-4.48,1.36l-111,.08Z" transform="translate(0 0)"/><path class="cls-8" d="M2976.48,369.21a8.13,8.13,0,0,1-4.48-1.35l-78.59-52.4a8.09,8.09,0,1,1,9-13.44L2979,353l106.1-.08,81.59-54.49a8.09,8.09,0,0,1,9,13.44L3092,367.77a8.22,8.22,0,0,1-4.48,1.36l-111,.08Z" transform="translate(0 0)"/><path class="cls-4" d="M4037.23,1796c0,23.54-142.25,42.62-317.72,42.62s-317.72-19.08-317.72-42.62c0-10.4,27.77-19.93,73.91-27.33,8.31-1.33,17.23-2.6,26.69-3.78,13.27-1.68,27.62-3.19,42.88-4.54q13.08-1.14,27-2.13c44-3.09,94.1-4.84,147.23-4.84,34.59,0,67.89.74,99.06,2.11q12.78.57,25.07,1.27c17.94,1,35,2.25,51.1,3.68q12.93,1.15,24.93,2.46C3991.4,1770.7,4037.23,1782.63,4037.23,1796Z" transform="translate(0 0)"/><path d="M3400.67,1058.41h-33.52v260.75h33.52Z" transform="translate(0 0)"/><path class="cls-13" d="M3631,1007.3H3277.94a59.39,59.39,0,0,0-59.39,59.39v7.87a59.39,59.39,0,0,0,59.39,59.39H3631a59.39,59.39,0,0,0,59.39-59.39v-7.87A59.39,59.39,0,0,0,3631,1007.3Z" transform="translate(0 0)"/><path class="cls-14" d="M3631,1112.19H3277.94a59.42,59.42,0,0,1-59-52.45,59.6,59.6,0,0,0-.41,7v7.87a59.41,59.41,0,0,0,59.39,59.39H3631a59.39,59.39,0,0,0,59.39-59.39v-7.87a61.88,61.88,0,0,0-.41-7,59.42,59.42,0,0,1-59,52.45Z" transform="translate(0 0)"/><path class="cls-15" d="M3576.35,1737.38a55.19,55.19,0,1,1-55.19-55.19A55.07,55.07,0,0,1,3576.35,1737.38Z" transform="translate(0 0)"/><path d="M3594,1727.52a12.85,12.85,0,0,1-2.49,5.08,12.71,12.71,0,0,1-4.43,3.51,12.9,12.9,0,0,1-5.52,1.27H3460.8a12.82,12.82,0,0,1-5.51-1.27,12.66,12.66,0,0,1-4.44-3.51,12.93,12.93,0,0,1-2.48-5.09,12.68,12.68,0,0,1,0-5.65,74.48,74.48,0,0,1,145.68,0A12.87,12.87,0,0,1,3594,1727.52Z" transform="translate(0 0)"/><path d="M3521.16,1770.67a33.29,33.29,0,1,0-33.29-33.29A33.29,33.29,0,0,0,3521.16,1770.67Z" transform="translate(0 0)"/><path class="cls-15" d="M3925.91,1737.38a55.19,55.19,0,1,1-55.19-55.19A54.89,54.89,0,0,1,3925.91,1737.38Z" transform="translate(0 0)"/><path d="M3943.51,1727.52a12.85,12.85,0,0,1-2.49,5.08,12.71,12.71,0,0,1-4.43,3.51,12.9,12.9,0,0,1-5.52,1.27h-120.7a12.9,12.9,0,0,1-5.52-1.27,12.71,12.71,0,0,1-4.43-3.51,12.77,12.77,0,0,1-2.54-10.74,74.48,74.48,0,0,1,145.68,0A12.87,12.87,0,0,1,3943.51,1727.52Z" transform="translate(0 0)"/><path d="M3870.72,1770.67a33.29,33.29,0,1,0-33.29-33.29A33.29,33.29,0,0,0,3870.72,1770.67Z" transform="translate(0 0)"/><rect class="cls-14" x="3648.87" y="1317.83" width="115.3" height="201.15"/><path class="cls-18" d="M4146.42,689.26c-1.09-40.47-10.73-82.18-33.17-122a274.83,274.83,0,0,0-36.13-49.87s0,0,0,0c-1.8-2-3.62-3.93-5.49-5.88,0,0,0,0,0,0q-3.49-3.64-7.17-7.23a.17.17,0,0,0-.06-.06q-3.69-3.63-7.56-7.18l-1.38-1.28-.33-.3q-3.09-2.87-6-5.73-4.62-4.5-8.89-9c-.84-.88-1.68-1.75-2.49-2.63-1.8-1.92-3.56-3.83-5.27-5.75-.43-.48-.86-1-1.27-1.43-1.4-1.58-2.78-3.17-4.13-4.75l-1.22-1.45c-1.06-1.26-2.09-2.51-3.11-3.76-.39-.47-.76-.93-1.13-1.4q-1.4-1.72-2.75-3.45l-1.68-2.17q-1.9-2.47-3.72-4.93l-1.49-2-1-1.4c-.53-.73-1.05-1.47-1.56-2.19-4.67-6.62-8.89-13.15-12.76-19.57l-1.36-2.29c-2.18-3.68-4.24-7.32-6.21-10.91l-1.24-2.29q-1.48-2.76-2.89-5.47-.68-1.28-1.32-2.55c-2.61-5.1-5-10.11-7.39-15l-1.16-2.45c-6.89-14.6-12.9-28.31-19.51-40.91-.37-.72-.75-1.43-1.13-2.13a.08.08,0,0,0,0-.05q-1.08-2-2.16-4c-2-3.57-4.07-7-6.24-10.41l-1.2-1.82c-1.72-2.58-3.5-5.11-5.38-7.56-.47-.62-.95-1.23-1.43-1.83s-1-1.21-1.45-1.81-.91-1.1-1.37-1.64c-.7-.82-1.41-1.63-2.14-2.44l-1-1.12-.2-.22-1.47-1.55c-.65-.68-1.31-1.35-2-2-.45-.45-.9-.89-1.37-1.33s-.94-.9-1.42-1.34-.7-.65-1.06-1-.95-.86-1.43-1.26-1-.83-1.45-1.24-1.22-1-1.85-1.53l-.07-.05c-.62-.5-1.26-1-1.9-1.48s-1.13-.87-1.71-1.29c-.83-.62-1.67-1.23-2.53-1.81q-.93-.66-1.89-1.29c-.67-.45-1.35-.89-2-1.33a1.67,1.67,0,0,0-.24-.16l-2.1-1.3-2.28-1.35-2.34-1.32c-.8-.44-1.6-.87-2.41-1.29-1.63-.85-3.3-1.69-5-2.5q-3.21-1.51-6.66-2.95-5.51-2.28-11.62-4.32l-1.54-.5c-.52-.18-1-.34-1.56-.5l-1.58-.49c-2.12-.65-4.3-1.28-6.53-1.87s-4.53-1.19-6.87-1.75c-.59-.15-1.18-.29-1.78-.42-1.19-.27-2.39-.54-3.61-.8s-2.46-.53-3.71-.78l-1.88-.37c-3.16-.63-6.43-1.21-9.79-1.75l-1.43-.23q-6.41-1-13.31-1.86l-2.2-.26c-1.59-.19-3.21-.37-4.84-.54l-4.25-.43q-2.43-.24-4.92-.45c-2.31-.2-4.66-.38-7-.56h-.1l-4.44-.3q-10.11-.66-21.16-1h0q-5.65-.18-11.57-.28V258h-6.33v.1c-170,2.92-178.9,55.66-214.78,130.16-15.81,32.82-36.86,69.86-79.22,108.72q-3.84,3.53-7.5,7.12a.71.71,0,0,0-.13.12,280.9,280.9,0,0,0-48.77,63c-22.42,39.84-32.06,81.55-33.14,122a319,319,0,0,0,8.72,81.64c10.66,45.28,29.6,85.52,49.21,115.1,30,45.22,39.46,80.69,39.67,121.3.16,30.11-4.77,63-10.2,104.89q-1.36,10.49-2.75,21.76c-.22,1.78-.43,3.58-.65,5.39-4.87,40.88-1.1,73.39,5.86,98.38a178.84,178.84,0,0,0,13.19,34,138,138,0,0,0,16.85,25.71c1.52,1.8,2.86,3.27,3.93,4.39l.59.6.58.58c1,1,1.66,1.58,1.81,1.71l0,0H4019.6l0,0c.15-.13.83-.73,1.91-1.81,1.23-1.23,3-3.08,5.1-5.59.53-.63,1.08-1.29,1.64-2l.87-1.11c.59-.74,1.2-1.53,1.82-2.37a146.6,146.6,0,0,0,12.43-20.11c.62-1.22,1.25-2.48,1.88-3.77q2.1-4.34,4.11-9.21h0q1-2.43,2-5h0c.38-1,.75-2,1.12-3.06h0c9.4-26.35,15.71-63,9.94-111.33-.31-2.55-.61-5.08-.92-7.57-.08-.68-.17-1.36-.26-2a0,0,0,0,0,0,0q-1.66-13.49-3.32-25.83c-5.25-39.86-9.7-71.56-9.06-100.82q.2-8.61,1-17c.19-1.85.39-3.7.63-5.55.32-2.48.68-4.94,1.09-7.41.2-1.23.42-2.45.65-3.67l.36-1.86c.24-1.23.5-2.45.77-3.67v0c.27-1.22.55-2.44.85-3.67.15-.62.31-1.24.46-1.86q.93-3.69,2-7.39c.19-.62.38-1.25.56-1.87q1.14-3.71,2.48-7.45c.45-1.25.91-2.51,1.38-3.77q1.77-4.71,3.87-9.49h0c.55-1.27,1.13-2.56,1.72-3.84l.9-1.94q1.36-2.9,2.85-5.85c1-2,2-4,3.1-6,.71-1.33,1.44-2.66,2.2-4,3.76-6.72,8-13.63,12.73-20.79q4.89-7.38,9.68-15.6c.91-1.56,1.81-3.15,2.72-4.75l1.74-3.16q1.14-2.09,2.27-4.22,1.32-2.52,2.63-5.08,1.95-3.79,3.82-7.74c0-.07.07-.14.11-.22,1.21-2.53,2.4-5.09,3.57-7.7l1.5-3.37q1.62-3.74,3.21-7.56,1.84-4.5,3.62-9.13,1.56-4.05,3-8.21c.16-.43.31-.86.46-1.29q2-5.58,3.76-11.31c0-.12.08-.23.11-.35q.89-2.82,1.74-5.67c.06-.23.13-.47.2-.7q1.23-4.17,2.36-8.42c.34-1.26.68-2.52,1-3.79q.8-3.11,1.54-6.24c.05-.19.09-.39.13-.58h0c1.85-7.86,3.45-15.88,4.75-24,.22-1.28.42-2.57.6-3.86q.85-5.68,1.5-11.44A302.92,302.92,0,0,0,4146.42,689.26ZM3763.55,498.8A23.46,23.46,0,0,1,3787,475.35a113.11,113.11,0,0,1,75.42,28.81l.09.08c1.53,1.37,3,2.79,4.48,4.24a113.3,113.3,0,0,1,33.13,80v72.24a23.46,23.46,0,0,1-23.45,23.45H3787a23.46,23.46,0,0,1-23.45-23.45Zm-174.61,9.68c1.46-1.46,3-2.88,4.49-4.24a.6.6,0,0,1,.12-.11,113.09,113.09,0,0,1,75.38-28.78,23.46,23.46,0,0,1,23.46,23.45V660.71a23.48,23.48,0,0,1-14.48,21.67,23.65,23.65,0,0,1-9,1.78h-89.67a23.46,23.46,0,0,1-23.45-23.45V588.47a113.13,113.13,0,0,1,33.13-80Z" transform="translate(0 0)"/><path class="cls-19" d="M4144.56,731.59q-.65,5.74-1.5,11.44c-.18,1.29-.38,2.58-.6,3.86-1.3,8.13-2.9,16.15-4.75,24h0c0,.19-.08.39-.13.58q-.75,3.13-1.54,6.24c-.32,1.27-.66,2.53-1,3.79q-1.12,4.25-2.36,8.42c-.07.23-.14.47-.2.7q-.86,2.85-1.74,5.67c0,.12-.07.23-.11.35q-1.8,5.73-3.76,11.31c-.15.43-.3.86-.46,1.29q-1.47,4.15-3,8.21-1.77,4.62-3.62,9.13-1.59,3.82-3.21,7.56l-1.5,3.37c-1.17,2.6-2.37,5.17-3.57,7.7,0,.08-.08.15-.11.22q-1.89,3.93-3.82,7.74-1.3,2.57-2.63,5.08-1.12,2.13-2.27,4.22l-1.74,3.16c-.91,1.6-1.81,3.19-2.72,4.75q-4.77,8.21-9.68,15.6c-4.74,7.16-9,14.07-12.73,20.79-.75,1.35-1.49,2.68-2.2,4-1.07,2-2.11,4-3.1,6s-1.93,3.91-2.85,5.85l-.9,1.94c-.59,1.29-1.16,2.57-1.72,3.84h0q-2.09,4.79-3.87,9.49c-.47,1.26-.93,2.52-1.38,3.77q-1.32,3.74-2.48,7.45c-.18.62-.37,1.25-.56,1.87-.74,2.47-1.42,4.94-2,7.39-.15.62-.31,1.24-.46,1.86-.29,1.22-.57,2.44-.85,3.67v0c-.27,1.22-.52,2.45-.77,3.67l-.36,1.86c-.23,1.22-.44,2.45-.65,3.67-.41,2.47-.77,4.93-1.09,7.41q-.35,2.76-.63,5.55-.81,8.38-1,17c-.64,29.26,3.81,61,9.06,100.82q1.64,12.36,3.32,25.83a0,0,0,0,1,0,0h0c.08.68.17,1.36.25,2,.31,2.49.61,5,.92,7.57,5.77,48.34-.54,85-9.94,111.33h0c-.37,1-.74,2-1.12,3.06h0q-1,2.57-2,5h0c-1.34,3.25-2.72,6.32-4.11,9.21-.63,1.29-1.26,2.55-1.88,3.77a146.6,146.6,0,0,1-12.43,20.11c-.63.83-1.23,1.62-1.82,2.37l-.87,1.11c-.57.71-1.12,1.37-1.64,2-2.11,2.51-3.87,4.36-5.1,5.59-1.08,1.08-1.76,1.67-1.91,1.81l0,0H3499.81l0,0c-.61-.56-1.21-1.13-1.81-1.71l-.58-.58-.59-.6c-.31-.32-.64-.68-1-1.06-1-1.08-2-2.18-2.94-3.33h453.68a60.92,60.92,0,0,0,5.41-5.54,127.37,127.37,0,0,0,14.39-20.18c.27-.47.55-.94.82-1.42a170.9,170.9,0,0,0,14.19-32.6c8.31-25.85,13.4-60.7,8-105.68-.09-.78-.19-1.55-.28-2.32a0,0,0,0,0,0,0c-1.08-9-2.17-17.58-3.25-25.83-5.21-39.95-9.91-71.78-10.07-100.82-.24-41.9,9-78,39.69-124.35,18.55-28,36.5-65.49,47.39-107.79a324.69,324.69,0,0,0,10.63-81.64c-.08-40.28-8.44-82-29.31-122a275.3,275.3,0,0,0-45.52-63l-.07-.07q-7-7.34-14.79-14.48c-64-58.76-79.35-113.36-101.52-155.49-19.07-36.26-43.22-63.28-107.86-75.8q11.05.36,21.16,1l4.44.3h.1c2.38.18,4.73.36,7,.56q2.49.21,4.92.45l4.25.43c1.63.17,3.25.35,4.84.54l2.2.26q6.91.84,13.31,1.86l1.43.23c3.36.54,6.63,1.12,9.79,1.75l1.88.37c1.25.25,2.49.5,3.71.78s2.42.53,3.61.8c.6.13,1.19.27,1.78.42q3.52.84,6.87,1.75c2.23.59,4.41,1.22,6.53,1.87l1.58.49c.52.16,1,.32,1.56.5l1.54.5q6.12,2,11.62,4.32c2.3.94,4.52,1.93,6.66,2.95,1.72.8,3.39,1.64,5,2.5.81.42,1.61.85,2.41,1.29l2.34,1.32,2.28,1.35,2.1,1.3a1.67,1.67,0,0,1,.24.16c.69.44,1.37.88,2,1.33s1.27.85,1.89,1.29c.86.58,1.7,1.19,2.53,1.81q.87.63,1.71,1.29c.64.49,1.28,1,1.9,1.48l.07.05c.63.51,1.24,1,1.85,1.53s1,.82,1.45,1.24,1,.83,1.43,1.26.71.63,1.06,1,1,.88,1.42,1.34.92.88,1.37,1.33c.67.65,1.33,1.32,2,2l1.47,1.55.2.22,1,1.12c.73.81,1.44,1.62,2.14,2.44.46.54.92,1.09,1.37,1.64s1,1.2,1.45,1.81,1,1.21,1.43,1.83c1.88,2.45,3.66,5,5.38,7.56l1.2,1.82c2.17,3.37,4.24,6.84,6.24,10.41q1.09,2,2.16,4a.08.08,0,0,1,0,.05c.38.7.76,1.41,1.13,2.13,6.61,12.6,12.62,26.31,19.51,40.91l1.16,2.45c2.34,4.91,4.78,9.92,7.39,15q.65,1.27,1.32,2.55,1.41,2.72,2.89,5.47l1.24,2.29c2,3.59,4,7.23,6.21,10.91.45.76.9,1.53,1.36,2.29,3.87,6.42,8.09,12.95,12.76,19.57.51.72,1,1.46,1.56,2.19l1,1.4,1.49,2q1.82,2.46,3.72,4.93l1.68,2.17q1.35,1.72,2.75,3.45c.37.47.75.93,1.13,1.4,1,1.25,2.05,2.5,3.11,3.76l1.22,1.45c1.35,1.58,2.73,3.17,4.13,4.75l1.27,1.43c1.71,1.92,3.47,3.83,5.27,5.75.82.88,1.65,1.75,2.49,2.63q4.27,4.47,8.89,9,2.94,2.85,6,5.73l.33.3,1.38,1.27q3.88,3.57,7.57,7.19a.19.19,0,0,1,.07.06q3.67,3.58,7.15,7.23s0,0,0,0c1.88,1.95,3.7,3.91,5.49,5.88,0,0,0,0,0,0a274.15,274.15,0,0,1,36.15,49.87c22.44,39.83,32.08,81.55,33.16,122A303.05,303.05,0,0,1,4144.56,731.59Z" transform="translate(0 0)"/><path d="M3952,1077.54h-33.52v260.75H3952Z" transform="translate(0 0)"/><path class="cls-13" d="M4080.91,1306.21v58.68c0,1.14,0,2.28-.09,3.41-.05,1-.12,1.89-.2,2.83,0,.06,0,.12,0,.18a67.67,67.67,0,0,1-8.58,27.32q-1.23,2.2-2.64,4.29a68.37,68.37,0,0,1-8.52,10.39c-1.25,1.25-2.55,2.46-3.9,3.61l-1.09.91-1.31,1.05c-.44.34-.88.68-1.34,1s-.9.66-1.36,1-.92.64-1.38.95-.93.62-1.41.92l-1.42.88c-.87.52-1.76,1-2.65,1.5l-1.31.69-1.4.69c-1,.49-2,1-3.05,1.39l-.6.26-.11,0c-.69.29-1.38.56-2.08.82l-.49.18c-1.43.52-2.89,1-4.36,1.43l-.13,0c-.71.21-1.43.4-2.15.59l-.9.21c-1,.24-2,.45-2.93.64-.6.12-1.2.23-1.81.33-.45.07-.9.15-1.36.21-1.06.16-2.12.29-3.18.4l-1.67.14c-1.68.13-3.36.19-5,.19H3350.9a68.49,68.49,0,0,1-68.49-68.49v-58.68a68.47,68.47,0,0,1,68.49-68.49h661.52c1.7,0,3.4.06,5.08.19l1.68.14h0l1.67.19,1.67.23a67.56,67.56,0,0,1,20.65,6.54l1.48.77q2.22,1.17,4.34,2.52c.86.55,1.71,1.11,2.54,1.69l.53.37.42.3h0c1.13.81,2.24,1.66,3.32,2.55l1.17,1q2,1.69,3.85,3.56c1.61,1.61,3.12,3.28,4.55,5,.35.44.71.88,1,1.32s.68.89,1,1.34.66.9,1,1.36q1.71,2.4,3.18,4.94a68,68,0,0,1,9.21,31C4080.88,1303.91,4080.91,1305.06,4080.91,1306.21Z" transform="translate(0 0)"/><path class="cls-19" d="M3654.45,1405.78c124.14,0,232.47-67.64,290.17-168.06H3364.29C3422,1338.14,3530.32,1405.78,3654.45,1405.78Z" transform="translate(0 0)"/><path class="cls-14" d="M4080.9,1306.17v58.69c0,1.15,0,2.29-.08,3.44a68.63,68.63,0,0,1-5.12,22.78,71.15,71.15,0,0,1-3.68,7.55c-.83,1.46-1.71,2.9-2.64,4.29a68.37,68.37,0,0,1-8.52,10.39c-1.25,1.25-2.55,2.46-3.9,3.61l-1.09.91-1.31,1.05c-.44.34-.88.68-1.34,1s-.9.66-1.36,1-.92.64-1.38.95-.93.62-1.41.92l-1.42.88a68.74,68.74,0,0,1-28.51,9.42l-1.67.14c-1.68.13-3.36.19-5,.19h-45.25V1237.72h45.25c1.7,0,3.4.06,5.08.19l1.68.14h0l1.67.19,1.67.23a68.66,68.66,0,0,1,20.65,6.54l1.48.77q2.21,1.18,4.34,2.52c.86.55,1.71,1.11,2.54,1.69l.53.37.42.31c1.13.81,2.24,1.66,3.32,2.55l1.17,1q2,1.69,3.85,3.56c1.61,1.61,3.12,3.28,4.55,5,.35.44.71.88,1,1.32s.68.89,1,1.34.66.9,1,1.36q1.7,2.4,3.16,4.94a68.52,68.52,0,0,1,9.23,31C4080.87,1303.9,4080.9,1305,4080.9,1306.17Z" transform="translate(0 0)"/><path d="M3769.3,1527.86v126H3643.62v-126a63,63,0,0,1,4.78-24c.15-.37.31-.73.47-1.09a62.81,62.81,0,0,1,57.59-37.7v0a62.85,62.85,0,0,1,62.84,62.82Z" transform="translate(0 0)"/><path d="M3903.78,1628.12V1669H3503.51v-40.84a39.84,39.84,0,0,1,39.86-39.86h320.55a39.84,39.84,0,0,1,39.86,39.86Z" transform="translate(0 0)"/><path class="cls-13" d="M4089.83,1003H3736.76a59.39,59.39,0,0,0-59.39,59.39v7.87a59.39,59.39,0,0,0,59.39,59.39h353.07a59.39,59.39,0,0,0,59.39-59.39v-7.87A59.39,59.39,0,0,0,4089.83,1003Z" transform="translate(0 0)"/><path class="cls-14" d="M4089.82,1103.86H3736.76a59.42,59.42,0,0,1-58.72-50.4,60.19,60.19,0,0,0-.67,9v7.87a59.39,59.39,0,0,0,59.39,59.39h353.06a59.41,59.41,0,0,0,59.39-59.39v-7.87a60.19,60.19,0,0,0-.67-9,59.42,59.42,0,0,1-58.72,50.4Z" transform="translate(0 0)"/><path class="cls-20" d="M1856.79,1916.1h0a18.56,18.56,0,0,0-14.52,6.1l0,0c-.39.42-.77.86-1.14,1.33h0a3.57,3.57,0,0,0-.3.38c-.37.46-.72.94-1.06,1.45-.23.33-.44.66-.66,1s-.46.76-.69,1.16-.42.76-.63,1.16q-.17.32-.33.66c-.21.41-.41.84-.61,1.28-.31.68-.61,1.39-.9,2.14s-.56,1.49-.83,2.28q-.81,2.39-1.5,5.14c-.12.47-.26.94-.42,1.4s-.35.9-.56,1.34-.44.88-.69,1.3-.53.85-.82,1.25a17.57,17.57,0,0,1-1.46,1.79c-.18.2-.37.39-.55.58a25.38,25.38,0,0,1-3.89,3.19c-.73.5-1.5,1-2.3,1.44s-1.66.92-2.55,1.34c-1.47.72-3,1.38-4.7,2h0q-1,.38-2,.72c-27.36,9.22-76.41,6.92-110.67-4.47l-1.45-.49-1.44-.51c-1-.34-1.88-.68-2.8-1a92.83,92.83,0,0,1-16-7.75,54.23,54.23,0,0,1-5.88-4.19c-.25-2-.44-4-.53-6.06-.2-5-.24-9.56-.13-13.7,0-.74,0-1.47.07-2.18v0c.08-2,.19-4,.34-5.82,1.19-14.89,4.44-23.12,7.62-27.67,3.74-5.35,7.36-5.59,7.36-5.59l112-1a83.15,83.15,0,0,1,18.81,5.45C1833.73,1886.88,1849.66,1897.1,1856.79,1916.1Z" transform="translate(0 0)"/><path class="cls-21" d="M1860.15,1945.43c-5.68,60.89-122.23,41.28-122.23,41.28s-43.67-.55-58.38-33.43a53.87,53.87,0,0,1-4.2-15.12,54.23,54.23,0,0,0,5.88,4.19,92.83,92.83,0,0,0,16,7.75c.92.35,1.85.69,2.8,1l1.44.51,1.45.49c34.26,11.39,83.31,13.69,110.67,4.47.69-.23,1.38-.47,2-.72h0q2.49-.93,4.7-2c.89-.42,1.74-.87,2.55-1.34s1.57-.94,2.3-1.44a25.38,25.38,0,0,0,3.89-3.19c.19-.18.37-.38.55-.58a16.32,16.32,0,0,0,1.46-1.79,12.8,12.8,0,0,0,.82-1.25c.25-.42.48-.86.69-1.3a14.07,14.07,0,0,0,.56-1.34c.16-.46.3-.93.42-1.4q.69-2.76,1.5-5.14c.27-.79.54-1.55.83-2.28s.59-1.46.9-2.14c.2-.44.4-.87.61-1.28q.16-.35.33-.66c.21-.4.42-.78.63-1.16s.46-.79.69-1.16.43-.68.66-1c.34-.51.69-1,1.06-1.45l.3-.38c.37-.47.75-.91,1.15-1.33l0,0a18.59,18.59,0,0,1,14.5-6.15l0,0a58.49,58.49,0,0,1,2.46,8.7A70.6,70.6,0,0,1,1860.15,1945.43Z" transform="translate(0 0)"/><path class="cls-13" d="M1829.6,1811.78l-8.44,69.22H1821a2.63,2.63,0,0,1-.09.55c-1.85,7.63-32.17,13.7-69.33,13.7-35.28,0-64.41-5.47-68.84-12.56a3.6,3.6,0,0,1-.58-1.69H1682l10.48-85.94a245.58,245.58,0,0,0,.39-55.93l-7.57-70.17-6.64-61.6L1816,1592.55l1.07,10,13.11,121.77A384.19,384.19,0,0,1,1829.6,1811.78Z" transform="translate(0 0)"/><path class="cls-20" d="M1677.64,1916.1h0a19.92,19.92,0,0,0-2.87.12,17.91,17.91,0,0,0-6.8,2.17,19,19,0,0,0-3.34,2.35l0,0c-.5.45-1,.94-1.5,1.46s-1,1.1-1.45,1.71c-.25.3-.48.62-.71,1s-.68,1-1,1.51c-.23.37-.46.76-.69,1.16-.32.57-.64,1.17-1,1.79,0,0,0,0,0,0-.21.41-.41.84-.61,1.28-.31.68-.61,1.39-.9,2.14s-.56,1.49-.83,2.28q-.81,2.39-1.5,5.14c-.12.47-.26.94-.42,1.4s-.35.9-.56,1.34-.44.88-.69,1.3-.53.85-.82,1.25a17.57,17.57,0,0,1-1.46,1.79c-.18.2-.37.39-.55.58a25.38,25.38,0,0,1-3.89,3.19c-.49.33-1,.65-1.51,1a44.46,44.46,0,0,1-6.1,3c-.63.26-1.28.52-1.94.77-35.46,13.25-112.26,5.35-140.27-17.72-.25-2-.44-4-.52-6.06-.12-3-.18-5.78-.19-8.45-.08-23.51,4-35.15,8-40.91,3.75-5.4,7.39-5.64,7.39-5.64l112-1a83,83,0,0,1,18.75,5.42c11.5,4.77,25.49,13.44,33.42,28.84A52.48,52.48,0,0,1,1677.64,1916.1Z" transform="translate(0 0)"/><path class="cls-21" d="M1654.4,1940.24c5-20.19,15.22-24.39,23.2-24.19,3,8.1,4.48,17.79,3.4,29.38-5.68,60.89-122.23,41.28-122.23,41.28s-56.23-.71-62.58-48.55C1531.82,1967.51,1646.43,1972.31,1654.4,1940.24Z" transform="translate(0 0)"/><path class="cls-13" d="M1650.39,1811.78,1642,1881h-.19a2.36,2.36,0,0,1-.09.52c-1.77,7.65-32.13,13.73-69.33,13.73-35.2,0-64.27-5.45-68.81-12.51a3.62,3.62,0,0,1-.61-1.74h-.18l10.48-85.94a245.58,245.58,0,0,0,.39-55.93l-6-55.34-6.07-56.27-1-9.58-1.14-10.58,13.81-1.49,55.19-5.95,43.78-4.72h0l24.59-2.65.3,2.82,8.19,75.93,5.72,53A384.19,384.19,0,0,1,1650.39,1811.78Z" transform="translate(0 0)"/><path class="cls-22" d="M2178.64,1442.05c-8.08.67-15.65,1.26-22.88,1.74a635.11,635.11,0,0,1-71.57,1.26c-100.67-3.86-183.62-28.23-247.75-72.87q-13.26-9.23-25.45-19.61a306.61,306.61,0,0,1-31.49-31,299.37,299.37,0,0,1-38.4-55.1q-4-7.41-7.36-14.55s0,0,0,0q-2.14-4.52-4-8.9a284.57,284.57,0,0,1-17-52.07,178.8,178.8,0,0,1-3.75-23l32.11-2.42,39.87-3,31.36-2.36v-.55c.13,1.34,2.32,21.9,15.19,48.69q.95,2,2,4a197.12,197.12,0,0,0,33.48,47c26.31,27.47,61.27,48.41,104,62.27l.94.31c54.07,17.38,120.42,23.49,197.39,18.21,4.41-.31,8.85-.64,13.32-1Z" transform="translate(0 0)"/><path class="cls-13" d="M1834.88,1551.17a65.13,65.13,0,0,1-1.05,9.93,108.72,108.72,0,0,1-16.76,41.44c-18.35,27.66-55.75,57.89-131.82,66.42-11.5,1.3-23.88,2.09-37.22,2.31l-2.75,0c-25.52.21-47.94-2.47-67.64-7.25-32.06-7.76-56.89-21.08-76.07-36.53-2-1.62-4-3.28-5.89-5a174.11,174.11,0,0,1-14.74-14.61,186.36,186.36,0,0,1-39.78-72.11,113.35,113.35,0,0,1-2.94-12.58l41.26,2.9h.18l23.16,1.63,4.58.33,217.19,15.27,5.48.39,8.54.6Z" transform="translate(0 0)"/><path class="cls-23" d="M1839.82,1555.41a41.29,41.29,0,0,1-6,5.69c-19.18,14.92-59.87,22.43-145.89,31.18-17.93,1.83-34.88,2.82-50.85,3.09q-12.85.23-24.89-.17h0a418.84,418.84,0,0,1-51.82-4.74q-13.54-2.14-25.66-5.07t-22.72-6.47c-34-11.29-57.35-27.08-70.82-43.07-13.15-15.59-16.9-31.37-12-43.38a27.69,27.69,0,0,1,8.12-10.86s2.21.73,6.34,2c6.64,2,18.24,5.51,33.53,9.62q7.17,1.92,15.37,4c57,14.43,149,33.1,232.17,29.2q7.07-.35,14-.89c38.43-3.07,74.38-11.43,103.32-27.83a65.3,65.3,0,0,1,3.66,8.85C1849.68,1518.24,1853.69,1539.19,1839.82,1555.41Z" transform="translate(0 0)"/><path class="cls-21" d="M1845.74,1506.57c-15.46,15.75-47.32,27.46-107.11,36q-4.19.6-8.56,1.19l-4.73.61-.77.1c-88.86,11.25-159.69,6.8-211.25-6.92-1.15-.3-2.29-.61-3.41-.93a254.78,254.78,0,0,1-30.11-10.35l-.32-.14c-22.27-9.39-39.1-20.94-50.3-33.7-13.13-15-18.51-31.61-15.84-48.39,3.12-19.52,7.2-30.77,11.6-38.71,6-10.79,12.59-15.44,18.26-26.33q10.72,2.64,21.1,5,7.38,1.71,14.6,3.3c105.51,23.32,184,28.22,242.06,23.92q7.24-.52,14.06-1.25a348.46,348.46,0,0,0,57.27-10.57c2.19-.62,4.32-1.24,6.4-1.89h0c1.39-.42,2.75-.85,4.09-1.29h0a208.44,208.44,0,0,0,35.38-15C1849.56,1438.84,1872.88,1478.93,1845.74,1506.57Z" transform="translate(0 0)"/><path class="cls-22" d="M1838.15,1381.33a208.11,208.11,0,0,1-35.33,15h0l-4.09,1.29h0c-2.08.64-4.22,1.27-6.4,1.89a348.46,348.46,0,0,1-57.27,10.57q-6.82.72-14.06,1.25c-58.06,4.3-136.55-.6-242.06-23.92q-7.22-1.59-14.6-3.3-10.38-2.41-21.1-5c3-5.68,2.42-24.66,1.74-41.62-.24-6-.5-11.71-.63-16.51-.41-15.21-.17-31.94.73-49.17.53-10.27,1.3-20.72,2.31-31.13a.45.45,0,0,1,0-.11c1.53-15.9,3.61-31.71,6.24-46.64.23-1.31.46-2.61.7-3.9v0c2.24-12.16,4.85-23.68,7.81-34.13,7.69-27.06,17.84-47,30.41-52.2l65.15,6.85,20.58,2.16,69.49,7.31,93.36,9.81,46.68,4.91h0l16.85,1.77,10.56,1.11s7.13,23,12.32,70.75c.19,1.67.36,3.37.54,5.1a1014.47,1014.47,0,0,1,4.78,108.22c0,1.92,0,3.85,0,5.8a262.58,262.58,0,0,0,3.64,44.8Q1837.22,1376.77,1838.15,1381.33Z" transform="translate(0 0)"/><path class="cls-23" d="M1738.42,1553.93c0-.55,1.61-55.38-2.06-122.33-4.95-90.26-16.6-158.47-34.63-202.74l-13,5.3c41.7,102.41,35.73,317.18,35.66,319.34Z" transform="translate(0 0)"/><path class="cls-24" d="M1536.9,1565.44s-43.91-35.65-57.53-116.7c-7.55-44.89,6.7-105.43,13.15-177.5C1492.52,1271.24,1313.37,1443.86,1536.9,1565.44Z" transform="translate(0 0)"/><path class="cls-25" d="M1577.64,1664.05a48.61,48.61,0,0,1-6.64,9.7c-16.21,18.53-41.75,19.86-63.36,10a72.69,72.69,0,0,1-17.72-11.42c-9.75-8.52-16.64-16.84-19.87-25.37-4.57-12-1.86-24.47,10.41-38.5.16-.18.31-.36.48-.54,9.34-10.7,19.5-22.58,31-29,9.35-5.23,19.6-6.9,31.06-1.48,5.49,2.58,11.25,6.8,17.32,13,.58.59,1.16,1.19,1.74,1.82a83.49,83.49,0,0,1,6.3,7.64C1582.48,1619.14,1588.11,1643.88,1577.64,1664.05Z" transform="translate(0 0)"/><path class="cls-22" d="M1544.29,1576.25l-1.25,1.19-8.34,8-21.49,20.48-12.67,12.07-4.86,4.63L1470.05,1647l-.8.76c-2.93-3.08-72.4-76.36-110.43-150-22.68-43.94-14.14-106.38,26.11-190.89q8.55-17.74,17.89-35.08,18.06-33.57,39-65.48a51,51,0,0,1,5.48-6.82h0a50.69,50.69,0,0,1,6.24-5.57c.94-.71,1.91-1.39,2.9-2h0a51.85,51.85,0,0,1,79.21,33.45,51,51,0,0,1,1,10.64s0,0,0,0a51.69,51.69,0,0,1-8.81,28.22q-12.36,18.9-23.62,38.48l-2.14,3.74q-9.13,16.13-17.51,32.68-2.8,5.52-5.51,11.1c-6.1,12.74-10.95,24-14.79,33.95-19.13,49.46-13.39,66-13.32,66.16a403.73,403.73,0,0,0,26.19,43c8.46,12.25,17.28,24,25.65,34.57,2.4,3,4.78,6,7.09,8.85,8.47,10.41,16.17,19.35,22.12,26.09C1539.42,1571.1,1544.12,1576.06,1544.29,1576.25Z" transform="translate(0 0)"/><path class="cls-26" d="M1933.66,978.26S2045,845.42,1953,613.42s-529.12-108.56-529.12-108.56S1144.55,671,1336.31,1036.45Z" transform="translate(0 0)"/><path class="cls-27" d="M1444.1,1044.42c11.05-45.38-15.54-90.82-59.39-101.49s-88.35,17.46-99.39,62.84,15.54,90.81,59.39,101.48S1433.06,1089.79,1444.1,1044.42Z" transform="translate(0 0)"/><path class="cls-28" d="M1382.69,1077.6a56.07,56.07,0,1,0-67.89-41A56.07,56.07,0,0,0,1382.69,1077.6Z" transform="translate(0 0)"/><path class="cls-27" d="M1971.73,1048.93a76.47,76.47,0,1,0-108.14,0A76.48,76.48,0,0,0,1971.73,1048.93Z" transform="translate(0 0)"/><path class="cls-28" d="M1980.76,1021.42a52.47,52.47,0,1,0-65.07,35.68A52.47,52.47,0,0,0,1980.76,1021.42Z" transform="translate(0 0)"/><path class="cls-25" d="M1930.16,816s74.78,432.57-240.31,440c-357.09,8.47-337.4-282.33-327.42-443,0,0,64.22-202.53,324.18-179.92S1930.16,816,1930.16,816Z" transform="translate(0 0)"/><path class="cls-29" d="M1362.43,813s36.62-115.47,166.48-162.3c-105.74,52.15-136.65,149.63-136.65,149.63-10,160.72-29.67,451.52,327.42,443.05,31-.73,58.14-5.58,82-13.71-30.33,15.71-67.16,25.32-111.84,26.38C1332.76,1264.53,1352.45,973.73,1362.43,813Z" transform="translate(0 0)"/><path class="cls-30" d="M1723.54,1065c15.24-.19,27.42-13.2,27.22-29s-12.73-28.53-28-28.33-27.42,13.2-27.22,29S1708.3,1065.17,1723.54,1065Z" transform="translate(0 0)"/><path class="cls-31" d="M1999.22,776.68q-.69,2.79-1.46,5.52s0,0,0,0c-.29,1-.58,2-.89,3.07-.25.83-.5,1.66-.76,2.48-.38,1.21-.77,2.41-1.17,3.61-.34,1-.69,2-1,3s-.6,1.67-.91,2.49c-.52,1.4-1,2.79-1.6,4.17-.47,1.17-1,2.34-1.44,3.49-.28.67-.57,1.33-.86,2-.19.44-.38.88-.58,1.32s-.52,1.16-.79,1.73c-.33.72-.66,1.44-1,2.15-1,2.16-2.08,4.27-3.16,6.34l-1,1.9c-.73,1.36-1.48,2.71-2.24,4l-.85,1.49-1.46,2.46-1.11,1.8c-.77,1.25-1.55,2.47-2.35,3.68-.32.5-.65,1-1,1.48-.87,1.29-1.74,2.57-2.63,3.82-.4.57-.81,1.14-1.22,1.7q-3.69,5.07-7.49,9.57c-.36.43-.73.85-1.09,1.27l-.31.37c-.38.44-.76.87-1.15,1.3s-.84,1-1.27,1.42q-3.2,3.51-6.38,6.61c-.85.83-1.7,1.64-2.55,2.41-.42.4-.85.78-1.27,1.16l-1.26,1.12c-.84.74-1.68,1.45-2.51,2.14l-1.25,1-1.24,1-1.23,1c-.93.71-1.85,1.38-2.75,2-.47.34-.94.67-1.41,1l-.19.12h0q-2.25,1.51-4.41,2.78l-1.27.72c-.47.27-.94.52-1.41.77l-1.38.7s-4.38-26.9-13.73-51.68a146.13,146.13,0,0,1-41.3,37.4,115.76,115.76,0,0,1-15.35,7.7l0-.15s0-.09,0-.15,0-.22-.08-.37-.06-.24-.09-.38l-.11-.45c-.17-.69-.4-1.62-.7-2.76q-.09-.33-.18-.69c-.21-.77-.45-1.63-.71-2.56-.06-.21-.13-.44-.19-.66-.59-2-1.31-4.4-2.16-7.06-.08-.22-.15-.45-.22-.68a1.46,1.46,0,0,1-.07-.19c-1.06-3.22-2.31-6.84-3.8-10.77-.14-.39-.29-.79-.45-1.19q-1.37-3.6-3-7.52c-.32-.79-.66-1.59-1-2.39a2.72,2.72,0,0,1-.11-.25c-.19-.44-.38-.89-.58-1.34q-.59-1.35-1.2-2.73l-1-2.1c-.2-.44-.4-.88-.61-1.32-1.85-4-3.9-8.19-6.15-12.47-14.81-28.17-38.31-60.87-74.34-84.28.27.85,12.24,38.66,2.81,82l-.36,1.62c-.12.53-.25,1.07-.38,1.61-1,4-2.1,8-3.45,12l-.37,1.08c-.4,1.17-.82,2.33-1.25,3.49-.19.48-.37,1-.56,1.46-.43,1.1-.87,2.2-1.33,3.29-.17.4-.33.79-.5,1.18-.35.82-.71,1.63-1.08,2.44-.44,1-.9,2-1.39,3-.3.61-.59,1.22-.9,1.82-.7,1.42-1.45,2.84-2.23,4.26-1.29,2.34-2.67,4.68-4.13,7-.34.54-.69,1.08-1,1.61-.7,1.08-1.43,2.15-2.17,3.22-.37.54-.75,1.07-1.13,1.6l-.17.25-.87,1.19-.33.44c-.48.65-1,1.3-1.47,2-.89,1.13-1.79,2.26-2.73,3.39-.29.36-.58.71-.88,1.06-.77.91-1.56,1.83-2.37,2.74l-1.32,1.46q-1.92,2.08-4,4.14l-1,1q-2.6,2.55-5.38,5c-.75.66-1.5,1.32-2.27,2q-3.46,3-7.24,5.8c-.84.63-1.69,1.26-2.55,1.88l-1.31.94c-.87.62-1.76,1.23-2.66,1.84s-1.82,1.22-2.74,1.82c-.46.31-.93.6-1.4.9q-2.17,1.39-4.42,2.73l-1.36.8q-1.9,1.13-3.87,2.2c-.73.41-1.47.81-2.21,1.21-1.56.83-3.16,1.66-4.78,2.47,0,0,0-1-.16-2.78l0-.45c0-.1,0-.21,0-.32,0-.39,0-.8-.09-1.25s-.07-1-.11-1.57l-.09-1.11c0-.38-.06-.78-.09-1.18s-.07-.83-.11-1.27c-.1-1.08-.2-2.24-.32-3.48,0-.41-.07-.83-.12-1.25-.09-.93-.19-1.91-.29-2.92-.07-.63-.13-1.27-.21-1.92,0-.13,0-.26,0-.39-.06-.58-.13-1.18-.2-1.78,0-.3-.07-.61-.1-.91-.06-.53-.12-1.07-.19-1.62l-.15-1.21c-.07-.62-.15-1.25-.23-1.89-.05-.35-.09-.71-.14-1.07s-.08-.67-.13-1-.09-.68-.13-1c-.09-.66-.18-1.32-.27-2-.15-1.1-.31-2.21-.47-3.35-.1-.72-.21-1.44-.32-2.18s-.24-1.56-.35-2.35-.23-1.46-.35-2.21-.25-1.55-.38-2.34c-.18-1.12-.37-2.24-.56-3.38s-.38-2.19-.58-3.29-.41-2.23-.61-3.36c-.14-.74-.28-1.49-.43-2.24-.64-3.37-1.35-6.83-2.12-10.35q-.85-3.95-1.83-8c-.62-2.61-1.27-5.24-2-7.89a1.82,1.82,0,0,1-.07-.25q-.71-2.73-1.49-5.48a276.18,276.18,0,0,0-13.55-38.14c-8.8-19.68-20.3-37.58-35.31-50,0,0-.86,11.41-6.23,28.79-.69,2.23-1.45,4.56-2.29,7-.31.88-.63,1.78-1,2.68-.08.24-.17.49-.26.73-.19.52-.39,1-.59,1.56s-.49,1.3-.75,1.95c0,.07,0,.13-.07.19l-.72,1.8c-.26.66-.54,1.33-.82,2l-.8,1.89a4.32,4.32,0,0,1-.19.45c-.45,1-.91,2.1-1.39,3.17q-.15.36-.33.72-.95,2.09-2,4.22-.51,1.08-1,2.16c-.35.72-.72,1.46-1.1,2.19l-1.13,2.2c-.41.8-.84,1.6-1.28,2.4s-.74,1.37-1.13,2.06l-1.26,2.25L1595,804.6c-.08.14-.16.28-.25.42q-2.67,4.54-5.7,9.19l0,0-1.54,2.31-1.45,2.13q-.87,1.27-1.8,2.55c-.56.78-1.12,1.56-1.7,2.35l-1.67,2.25-.08.1c-.59.78-1.19,1.57-1.8,2.35q-1.83,2.37-3.77,4.72h0l-2,2.35-2,2.36c-.68.78-1.38,1.57-2.08,2.35l-.1.12c-.68.75-1.35,1.49-2,2.23s-1.56,1.7-2.37,2.54l-2.08,2.15c-.79.83-1.6,1.64-2.43,2.46s-1.49,1.47-2.25,2.2a1.29,1.29,0,0,1-.17.16c-.75.73-1.5,1.45-2.27,2.16l-1.09,1h0c-.38.37-.77.72-1.16,1.07l-1.12,1-1.67,1.49c-.87.76-1.74,1.52-2.63,2.28s-1.87,1.61-2.84,2.4-1.72,1.42-2.6,2.12-1.86,1.5-2.82,2.24q-2.85,2.24-5.83,4.42L1531,874q-1.72,1.25-3.51,2.46l-2.56,1.74c-.24.17-.49.34-.75.5l-3.08,2c-1,.63-2,1.25-3,1.88l-.67.42-3,1.86q-1.71,1-3.45,2c-2.32,1.35-4.69,2.69-7.11,4-1.21.65-2.44,1.31-3.67,1.95s-2.49,1.29-3.75,1.92q-3.78,1.92-7.72,3.75c-1.31.61-2.63,1.22-4,1.82q-6,2.72-12.41,5.25c-.71.29-1.42.57-2.14.84-1.43.57-2.87,1.12-4.34,1.66l-2.2.81c-.74.28-1.48.54-2.22.8l-2.24.79-2.26.78q-2.32.81-4.71,1.57c-1.5.48-3,1-4.55,1.44l-.36.11h0l-2,.61q-5.94,1.82-12.16,3.45c-1.54.41-3.09.81-4.66,1.21q-3.08.78-6.22,1.5l-1.84.43q-6,1.38-12.16,2.6l-3.83.74h0c-1.39.27-2.79.52-4.19.77s-2.73.48-4.11.72l-2.82.46-2.54.41-1.06.16c-.39.06-.79.13-1.19.18-.86.14-1.73.27-2.6.39s-1.68.25-2.52.36l-1.59.22q-1.66.24-3.36.45c-1.5.2-3,.39-4.52.57l-1,.12-3.59.41c-1.09.13-2.19.24-3.3.36l-2.2.22c-1.78.19-3.57.36-5.39.52q-4.07.36-8.23.68l-4.61.32-.62,0c-1.43.1-2.86.19-4.31.27q-4.32.25-8.75.44l-2.3.1-3.85.13c-1.44.06-2.89.1-4.35.13l-3,.07c-2.28,0-4.57.09-6.89.11l-2.83,0q-8.05.06-16.39-.09l-4.41-.09s-.6-1.65-1.6-4.75l-.48-1.5c-.67-2.12-1.49-4.75-2.4-7.86l-.46-1.6c-.15-.54-.31-1.1-.48-1.67-.56-2-1.15-4.15-1.77-6.44-.17-.66-.35-1.33-.53-2l-.27-1c-.27-1-.54-2.11-.82-3.2-.09-.36-.18-.73-.28-1.1-.37-1.48-.75-3-1.12-4.57-6.77-28.15-14.38-70.54-14.2-118.33,0-1.54,0-3.09,0-4.64,0-1.27,0-2.54.07-3.82.28-12.14,1.08-24.58,2.55-37.19a351.63,351.63,0,0,1,6-36q.91-4.23,2-8.46c8.86-35.78,24.09-71.6,48.66-104.42A269.32,269.32,0,0,1,1346.81,557q3.76-3.87,7.77-7.62,2-1.9,4.05-3.74c2-1.88,4.14-3.72,6.28-5.54l2.15-1.82q4.32-3.65,8.88-7.17,2.28-1.77,4.61-3.51l2.35-1.74,2.38-1.72,2.41-1.71,2.44-1.7,2.47-1.68c1.65-1.13,3.33-2.24,5-3.33l2.56-1.64a350.85,350.85,0,0,1,37.47-20.68c39.89-19.06,88.44-33.79,147.35-42.44,0,0,71.14-14.15,156.1,1.57,37.57,7,77.84,19.75,115.86,42.18a296.94,296.94,0,0,1,83.76,73.54C2004.52,650,2012.74,722.16,1999.22,776.68Z" transform="translate(0 0)"/><path class="cls-32" d="M1763.54,811.73c-7.49,34.41-28.47,72.31-79.58,97.89,0,0-3.13-70.93-28.32-127.23A335.23,335.23,0,0,0,1763.54,811.73Z" transform="translate(0 0)"/><path class="cls-32" d="M1999.23,776.67c-13.4,54-48.16,90.72-71.35,102.13,0,0-4.38-26.9-13.73-51.68,0,0-21.25,30.58-56.65,45.1,0,0-5.6-26.16-22.43-58.18a442.5,442.5,0,0,0,164.16-37.37Z" transform="translate(0 0)"/><path class="cls-32" d="M1400.18,514q22,84.3,83.3,148.8,54,66,130.64,98.31c-17.6,57-83.59,178.07-326.12,172.27C1288,933.42,1185.63,650.42,1400.18,514Z" transform="translate(0 0)"/><path class="cls-33" d="M1943.86,666.85c11.88-11.7-15-58.27-60-104s-91.2-73.34-103.08-61.64,15,58.27,60,104S1932,678.55,1943.86,666.85Z" transform="translate(0 0)"/><path class="cls-33" d="M1787.68,619c8-7.84,2.8-26-11.52-40.52s-32.39-20-40.34-12.15-2.8,26,11.52,40.52S1779.73,626.87,1787.68,619Z" transform="translate(0 0)"/><path class="cls-34" d="M1697.8,1109.94c-40.47,1.63-75.68,17.45-96.54,40.36-18.64-20.45-29.82-46.9-29.69-75.74l249.37,25c-7.41,26.49-8.06,25.3-21.91,44.56C1776.54,1122,1739.33,1108.28,1697.8,1109.94Z" transform="translate(0 0)"/><path class="cls-35" d="M1696.87,1191.78c-38.37-.2-72.65-16.29-95.61-41.48,20.86-22.91,56.07-38.73,96.54-40.36,41.53-1.66,78.74,12,101.23,34.19C1776,1173.21,1738.79,1192,1696.87,1191.78Z" transform="translate(0 0)"/><path class="cls-36" d="M1569,1042.56c22.6-.68,40.13-27.75,39.15-60.47s-20.1-58.69-42.71-58-40.13,27.75-39.15,60.47S1546.36,1043.24,1569,1042.56Z" transform="translate(0 0)"/><path class="cls-37" d="M1601.57,976c8.11-1.71,13.08-10.64,11.11-19.93s-10.14-15.44-18.24-13.72-13.08,10.65-11.11,19.94S1593.47,977.73,1601.57,976Z" transform="translate(0 0)"/><path class="cls-37" d="M1882.31,948.56c1.18,6.79-1.55,13.22-6.39,16.39a68.22,68.22,0,0,0-9.39-29.91C1873.87,934.25,1880.83,940.12,1882.31,948.56Z" transform="translate(0 0)"/><path class="cls-36" d="M1838.3,916.67c11.24.07,21.3,7.15,28.23,18.37l-.8.09c-7.63,1.33-12.57,9.5-11,18.25s9,14.76,16.58,13.43A12.51,12.51,0,0,0,1876,965c.2,2.4.31,4.85.3,7.34-.2,30.59-17.48,55.28-38.61,55.15s-38.11-25-37.92-55.62S1817.16,916.54,1838.3,916.67Z" transform="translate(0 0)"/><path class="cls-37" d="M1854.68,953.38c-1.52-8.75,3.42-16.92,11-18.25l.8-.09a68.22,68.22,0,0,1,9.39,29.91,12.51,12.51,0,0,1-4.66,1.86C1863.63,968.14,1856.21,962.13,1854.68,953.38Z" transform="translate(0 0)"/><path class="cls-38" d="M1491.44,884.45s49.67-73,122.7,8.77" transform="translate(0 0)"/><path class="cls-38" d="M1784,884.45s49.66-73,122.7,8.77" transform="translate(0 0)"/><path class="cls-39" d="M2710.82,1932.1c-.09,2.06-.27,4.06-.53,6.06a53.42,53.42,0,0,1-5.89,4.19c-31.67,19.8-101.17,25.94-134.37,13.53-1.66-.63-3.23-1.29-4.7-2-.89-.42-1.74-.87-2.55-1.34s-1.57-.94-2.3-1.44a25.38,25.38,0,0,1-3.89-3.19c-.18-.19-.37-.38-.55-.58a17.57,17.57,0,0,1-1.46-1.79c-.29-.4-.56-.82-.82-1.25s-.48-.86-.69-1.3-.39-.89-.56-1.34-.3-.93-.42-1.4q-.69-2.76-1.5-5.14c-.45-1.32-.92-2.55-1.42-3.71-.1-.24-.2-.48-.31-.71l-.61-1.28s0,0,0,0c-.42-.83-.85-1.62-1.29-2.36a3.37,3.37,0,0,0-.19-.32c-.05-.1-.11-.19-.16-.27-.57-.89-1.14-1.71-1.72-2.46-5-6.38-10.93-8-16-7.86l0,0c7.13-19,23-29.16,35.88-34.5a83.29,83.29,0,0,1,18.83-5.45l111.95,1s3.63.24,7.38,5.61c3.17,4.56,6.42,12.8,7.6,27.72q.23,2.71.34,5.74v0c0,.85.06,1.71.08,2.59C2711.06,1922.84,2711,1927.26,2710.82,1932.1Z" transform="translate(0 0)"/><path class="cls-21" d="M2710.29,1938.16a53.87,53.87,0,0,1-4.2,15.12c-14.71,32.88-58.38,33.43-58.38,33.43s-116.54,19.61-122.23-41.28a72.69,72.69,0,0,1,.29-16.87,59.48,59.48,0,0,1,3.11-12.51h0c5.07-.12,11,1.53,16,7.91a28.66,28.66,0,0,1,1.72,2.46c.05.08.11.17.16.27a3.37,3.37,0,0,1,.19.32c.45.74.87,1.52,1.29,2.36,0,0,0,0,0,0l.61,1.28c.11.23.21.47.31.71.5,1.15,1,2.39,1.42,3.71q.81,2.39,1.5,5.14c.12.47.26.94.42,1.4a14.07,14.07,0,0,0,.56,1.34c.21.44.44.88.69,1.3a12.8,12.8,0,0,0,.82,1.25,16.32,16.32,0,0,0,1.46,1.79c.18.2.36.4.55.58a25.38,25.38,0,0,0,3.89,3.19c.73.5,1.49,1,2.3,1.44s1.66.92,2.55,1.34q2.21,1.08,4.7,2c33.2,12.41,102.7,6.27,134.37-13.53A53.42,53.42,0,0,0,2710.29,1938.16Z" transform="translate(0 0)"/><path class="cls-13" d="M2693.23,1795.06l10.48,85.94h-.18a3.69,3.69,0,0,1-.59,1.71c-4.48,7.08-33.58,12.54-68.83,12.54-37.16,0-67.48-6.07-69.33-13.7a2.63,2.63,0,0,1-.09-.55h-.18l-8.45-69.22a383.62,383.62,0,0,1-.6-87.47l13.12-121.73,1.08-10,137.39,14.81-6.64,61.61-7.57,70.16A245.58,245.58,0,0,0,2693.23,1795.06Z" transform="translate(0 0)"/><path class="cls-39" d="M2890,1932.1c-.09,2.06-.27,4.06-.53,6.06-28,23.07-104.81,31-140.26,17.72-1.66-.63-3.23-1.29-4.7-2-.89-.42-1.74-.87-2.55-1.34s-1.57-.94-2.3-1.44a25.38,25.38,0,0,1-3.89-3.19c-.18-.19-.37-.38-.55-.58a17.57,17.57,0,0,1-1.46-1.79c-.29-.4-.56-.82-.82-1.25s-.48-.86-.69-1.3-.39-.89-.56-1.34-.3-.93-.42-1.4q-.69-2.76-1.5-5.14c-.45-1.32-.92-2.55-1.42-3.71a0,0,0,0,0,0,0c-.3-.68-.6-1.33-.91-2,0,0,0,0,0,0-.43-.83-.85-1.62-1.29-2.36a.08.08,0,0,0,0,0,23.45,23.45,0,0,0-7.84-8.27,17.82,17.82,0,0,0-7.36-2.48,18.38,18.38,0,0,0-2.85-.12l0,0a52.18,52.18,0,0,1,2.49-5.62c7.91-15.41,21.9-24.1,33.4-28.88a83.14,83.14,0,0,1,18.82-5.45l111.95,1s3.64.24,7.38,5.62c3.87,5.56,7.85,16.6,8.06,38.5C2890.19,1924.58,2890.13,1928.2,2890,1932.1Z" transform="translate(0 0)"/><path class="cls-21" d="M2731.24,1940.24c-5-20.19-15.22-24.39-23.21-24.19-3,8.1-4.48,17.79-3.4,29.38,5.69,60.89,122.23,41.28,122.23,41.28s56.23-.71,62.58-48.55C2853.82,1967.51,2739.2,1972.31,2731.24,1940.24Z" transform="translate(0 0)"/><path class="cls-13" d="M2886.2,1607.36l-1.14,10.56-1,9.65-6.06,56.24-6,55.32a245.58,245.58,0,0,0,.39,55.93l10.48,85.94h-.18a3.64,3.64,0,0,1-.6,1.72c-4.5,7.07-33.59,12.53-68.82,12.53-37.16,0-67.48-6.07-69.33-13.7a2.63,2.63,0,0,1-.09-.55h-.18l-8.45-69.22a384.19,384.19,0,0,1-.62-87.47l5.72-53,8.19-75.93.3-2.82,24.6,2.65,43.82,4.73,55.19,5.94Z" transform="translate(0 0)"/><path class="cls-40" d="M2676.65,1167.9a178.8,178.8,0,0,1-3.75,23,285.83,285.83,0,0,1-17,52.06q-1.9,4.38-4,8.9v0a299.58,299.58,0,0,1-45.76,69.64,306.61,306.61,0,0,1-31.49,31q-12.2,10.4-25.47,19.62c-64.13,44.64-147.07,69-247.73,72.86-19.51.76-36.58.61-54.93-.28-12.24-.6-25.05-1.52-39.52-2.72l0-103q17.55,1.47,34.39,2.18c68.06,2.89,127.25-3.6,176.32-19.37l.94-.31c42.69-13.86,77.65-34.8,104-62.27a197.31,197.31,0,0,0,33.47-47c.69-1.33,1.34-2.65,2-4,12.9-26.83,15.09-47.43,15.22-48.77v.55l31.35,2.36,30.54,2.3Z" transform="translate(0 0)"/><path class="cls-13" d="M2947.41,1523.27a112.5,112.5,0,0,1-2.95,12.6A186.21,186.21,0,0,1,2904.7,1608a174.35,174.35,0,0,1-14.75,14.62c-1.91,1.68-3.89,3.35-5.93,5-19.18,15.42-44,28.73-76,36.49-19.71,4.78-42.14,7.46-67.67,7.24l-2.71,0c-13.33-.22-25.71-1-37.2-2.3-76.06-8.53-113.46-38.74-131.83-66.39a108.88,108.88,0,0,1-16.78-41.49,65,65,0,0,1-1.05-9.92l96.28-6.77,8.54-.6,5.48-.39,217.18-15.27,4.57-.33,23.18-1.63h.17Z" transform="translate(0 0)"/><path class="cls-19" d="M2944.46,1535.87c-13.48,16-36.82,31.76-70.8,43.05q-10.66,3.55-22.74,6.47t-25.65,5.07a417.41,417.41,0,0,1-51.86,4.74q-12,.39-24.9.17c-16-.27-32.9-1.26-50.82-3.09-86-8.75-126.71-16.26-145.89-31.19a40.71,40.71,0,0,1-6-5.68c-13.87-16.23-9.86-37.18-5.92-48.85a65.46,65.46,0,0,1,3.66-8.84c28.94,16.4,64.89,24.76,103.32,27.83q7,.56,14,.89c83.17,3.9,175.19-14.76,232.17-29.2,5.45-1.38,10.59-2.72,15.36-4,15.31-4.11,26.92-7.57,33.56-9.62,4.13-1.28,6.34-2,6.34-2a27.7,27.7,0,0,1,8.11,10.84C2961.39,1504.46,2957.63,1520.27,2944.46,1535.87Z" transform="translate(0 0)"/><path class="cls-21" d="M2956.45,1492.45c-11.18,12.76-28,24.32-50.3,33.72l-.3.13a252.84,252.84,0,0,1-30.14,10.37l-3.4.93c-51.55,13.71-122.38,18.16-211.25,6.91l-.76-.1-4.73-.61q-4.38-.58-8.57-1.19c-59.8-8.58-91.65-20.29-107.11-36-27.13-27.64-3.8-67.73,7.55-125.23a206.52,206.52,0,0,0,33.39,14.32c18.56,6.2,41.52,11.43,69.78,14.41q6.82.72,14.06,1.25c58.06,4.3,136.55-.6,242-23.92q7.22-1.59,14.6-3.3,10.39-2.41,21.12-5c5.67,10.9,12.27,15.55,18.25,26.35,4.4,7.94,8.45,19.19,11.56,38.69C2974.93,1460.85,2969.57,1477.48,2956.45,1492.45Z" transform="translate(0 0)"/><path class="cls-40" d="M2942.44,1379q-10.72,2.64-21.12,5-7.38,1.71-14.6,3.3c-105.5,23.32-184,28.22-242,23.92q-7.24-.52-14.06-1.25c-28.26-3-51.22-8.21-69.78-14.41a206,206,0,0,1-33.35-14.32q.93-4.56,1.7-9.14a261.69,261.69,0,0,0,3.65-44.81c0-2,0-3.88,0-5.8a1019.81,1019.81,0,0,1,4.78-108.22c.18-1.7.35-3.38.53-5,5.21-47.75,12.34-70.83,12.34-70.83l10.56-1.11,16.86-1.77,37.35-3.93,102.69-10.79,3.16-.34,66.34-7,44-4.62,41.75-4.39c12.57,5.24,22.71,25.14,30.41,52.2,3,10.45,5.57,22,7.81,34.13v0c.24,1.3.47,2.6.7,3.92a660.46,660.46,0,0,1,8.56,77.87c.89,17.23,1.14,34,.72,49.17-.13,4.81-.39,10.55-.63,16.53C2940,1354.39,2939.48,1373.36,2942.44,1379Z" transform="translate(0 0)"/><path class="cls-19" d="M2647.21,1553.93c0-.55-1.61-55.38,2.06-122.33,4.95-90.26,16.61-158.47,34.63-202.74l13,5.3c-41.7,102.41-35.72,317.18-35.66,319.34Z" transform="translate(0 0)"/><path class="cls-24" d="M2848.74,1565.44s43.9-35.65,57.52-116.7c7.55-44.89-6.7-105.43-13.15-177.5C2893.11,1271.24,3072.26,1443.86,2848.74,1565.44Z" transform="translate(0 0)"/><path class="cls-25" d="M2915.59,1647c-3.23,8.53-10.13,16.84-19.87,25.36a72.51,72.51,0,0,1-17.76,11.44c-21.6,9.8-47.13,8.46-63.33-10.06a48.55,48.55,0,0,1-6.64-9.69c-10.47-20.17-4.83-44.9,9.24-64.13a85,85,0,0,1,6.3-7.65c.58-.63,1.16-1.23,1.74-1.82,6.07-6.22,11.83-10.43,17.31-13,11.47-5.42,21.73-3.75,31.08,1.48,11.54,6.46,21.7,18.34,31,29,.17.18.32.36.48.54C2917.46,1622.53,2920.17,1635,2915.59,1647Z" transform="translate(0 0)"/><path class="cls-40" d="M3026.82,1497.71c-38,73.69-107.5,147-110.44,150l-.79-.75L2890,1622.58l-4.89-4.66-12.64-12.05-21.5-20.48-8.34-8-1.25-1.19c.17-.19,4.86-5.14,12.24-13.48,5.95-6.74,13.65-15.68,22.14-26.1q3.47-4.28,7.09-8.86c8.37-10.59,17.19-22.32,25.64-34.57a402.2,402.2,0,0,0,26.2-43c.07-.18,5.82-16.7-13.32-66.16-3.83-9.94-8.69-21.21-14.79-33.95q-2.7-5.55-5.5-11.07s0,0,0,0q-8.37-16.55-17.52-32.7-10-17.58-20.84-34.62-2.43-3.81-4.91-7.6a51.73,51.73,0,0,1-6.4-13.27,51.21,51.21,0,0,1-2.41-14.95s0,0,0,0a51,51,0,0,1,.95-10.64,50.28,50.28,0,0,1,1.47-5.74,51.84,51.84,0,0,1,77.74-27.71h0c1,.66,2,1.34,2.91,2.06a51.78,51.78,0,0,1,11.72,12.39q21,31.88,39,65.48,9.36,17.34,17.9,35.08C3041,1391.33,3049.49,1453.77,3026.82,1497.71Z" transform="translate(0 0)"/><path class="cls-41" d="M2452,978.26s-111.32-132.84-19.34-364.84,529.09-108.56,529.09-108.56,279.33,166.16,87.57,531.59Z" transform="translate(0 0)"/><path class="cls-27" d="M3041,1107.16c43.85-10.67,70.44-56.11,59.4-101.48s-55.55-73.51-99.4-62.84-70.43,56.11-59.39,101.48S2997.1,1117.83,3041,1107.16Z" transform="translate(0 0)"/><path class="cls-28" d="M3056.14,1062.94a56.07,56.07,0,1,0-79.3,0A56.08,56.08,0,0,0,3056.14,1062.94Z" transform="translate(0 0)"/><path class="cls-27" d="M2522,1048.93a76.47,76.47,0,1,0-108.15,0A76.48,76.48,0,0,0,2522,1048.93Z" transform="translate(0 0)"/><path class="cls-28" d="M2511.64,1013.85a52.47,52.47,0,1,0-67.46,30.91A52.47,52.47,0,0,0,2511.64,1013.85Z" transform="translate(0 0)"/><path class="cls-25" d="M2455.47,816s-74.77,432.57,240.31,440c357.09,8.47,337.4-282.33,327.42-443,0,0-64.22-202.53-324.18-179.92S2455.47,816,2455.47,816Z" transform="translate(0 0)"/><path class="cls-29" d="M3023.2,813s-36.62-115.47-166.48-162.3c105.74,52.15,136.65,149.63,136.65,149.63,10,160.72,29.67,451.52-327.42,443.05-30.95-.73-58.13-5.58-82-13.71,30.33,15.71,67.16,25.32,111.84,26.38C3052.87,1264.53,3033.18,973.73,3023.2,813Z" transform="translate(0 0)"/><path class="cls-30" d="M2689.73,1036.38c.2-15.85-12-28.85-27.22-29.05s-27.75,12.49-28,28.34,12,28.84,27.22,29S2689.52,1052.22,2689.73,1036.38Z" transform="translate(0 0)"/><path class="cls-34" d="M2687.84,1109.94c40.46,1.63,75.67,17.45,96.53,40.36,18.64-20.45,29.83-46.9,29.69-75.74l-249.37,25c7.41,26.49,8.06,25.3,21.92,44.56C2609.09,1122,2646.3,1108.28,2687.84,1109.94Z" transform="translate(0 0)"/><path class="cls-35" d="M2688.76,1191.78c38.37-.2,72.65-16.29,95.61-41.48-20.86-22.91-56.07-38.73-96.53-40.36-41.54-1.66-78.75,12-101.23,34.19C2609.62,1173.21,2646.84,1192,2688.76,1191.78Z" transform="translate(0 0)"/><path class="cls-36" d="M2860.47,984.18c1-32.71-16.55-59.76-39.15-60.44s-41.7,25.29-42.67,58,16.54,59.77,39.14,60.44S2859.49,1016.88,2860.47,984.18Z" transform="translate(0 0)"/><path class="cls-37" d="M2802.23,962.22c2-9.29-3-18.21-11.1-19.93s-16.28,4.42-18.25,13.71,3,18.22,11.11,19.94S2800.26,971.52,2802.23,962.22Z" transform="translate(0 0)"/><path class="cls-37" d="M2503.33,948.56c-1.19,6.79,1.54,13.22,6.39,16.39A68.08,68.08,0,0,1,2519.1,935C2511.76,934.25,2504.8,940.12,2503.33,948.56Z" transform="translate(0 0)"/><path class="cls-36" d="M2547.34,916.67c-11.25.07-21.31,7.15-28.24,18.37l.8.09c7.63,1.33,12.57,9.5,11,18.25s-9,14.76-16.58,13.43a12.46,12.46,0,0,1-4.65-1.86c-.21,2.4-.32,4.85-.3,7.34.19,30.59,17.47,55.28,38.61,55.15s38.11-25,37.92-55.62S2568.47,916.54,2547.34,916.67Z" transform="translate(0 0)"/><path class="cls-37" d="M2531,953.38c1.52-8.75-3.42-16.92-11-18.25l-.8-.09a68.08,68.08,0,0,0-9.38,29.91,12.46,12.46,0,0,0,4.65,1.86C2522,968.14,2529.42,962.13,2531,953.38Z" transform="translate(0 0)"/><path class="cls-38" d="M2894.19,884.45s-49.67-73-122.7,8.77" transform="translate(0 0)"/><path class="cls-38" d="M2601.63,884.45s-49.66-73-122.7,8.77" transform="translate(0 0)"/><path class="cls-42" d="M3123.45,756.64q0,7.25-.15,14.26c-1.83,89.28-20.76,153.14-42.53,197.44-.12.26-.25.52-.37.77a304.57,304.57,0,0,1-15,26.82,246.5,246.5,0,0,1-30,39.16c-1.45,1.55-2.87,3-4.24,4.35-11.25,11.13-19,16-19.47,16.33l-.24-.08h0a79.7,79.7,0,0,1-28.57-17.46,109.78,109.78,0,0,1-8.77-9.1,144.52,144.52,0,0,1-12.56-17,213.84,213.84,0,0,1-13.89-25.86c-31.79-69.62-37.87-163.84-37.87-163.84h0q-29.79,8.46-57.84,15.18l-.57.13-4.5,1.08q-22.83,5.4-44.53,9.7-31.82,6.33-61.28,10.48a887.49,887.49,0,0,1-105.85,8.9q-26.72.57-51-.72a590.13,590.13,0,0,1-63.67-6.58,481.82,481.82,0,0,1-68.74-16,398,398,0,0,1-54.14-21.38c-50-24.21-82.66-54-103-78.09a32.06,32.06,0,0,1-2.55-37.95s0,0,0,0a32.69,32.69,0,0,1,3.77-4.89l0,0c.29-.3.58-.6.88-.89.55-.55,1.13-1.08,1.73-1.59a31.15,31.15,0,0,1,4.3-3.1c.32-.2.65-.39,1-.57a33.24,33.24,0,0,1,5.06-2.3q2.82-1,5.61-2.17c.87-.35,1.74-.72,2.61-1.1,1.05-.45,2.1-.93,3.15-1.42.74-.33,1.49-.68,2.22-1q2.67-1.28,5.29-2.69c.88-.46,1.75-.93,2.62-1.43a185.81,185.81,0,0,0,20.41-13.25c58.6-43.34,107.2-123.36,185-175.93,28.56-19.3,61.06-34.9,99.43-43.64a306.11,306.11,0,0,1,44.49-6.67c65.33-5,126.19-2.15,180.6,8.71,66.67,13.34,123.67,38.68,167.4,76.25,39,33.49,67.44,76.71,82.76,129.8a307.66,307.66,0,0,1,7.1,30.14c.46,2.46.89,5,1.28,7.45a.13.13,0,0,1,0,.06c.3,1.84.59,3.7.84,5.56q.72,4.84,1.27,9.78t1,10Q3123.45,738.84,3123.45,756.64Z" transform="translate(0 0)"/><path class="cls-43" d="M2913.13,466.86a263.09,263.09,0,0,1-24.36,66.74q-21.24,65.28-72.6,113-47.7,51.36-113,72.59-62.76,33-135.27,30.24-95.05-.3-177.19-47.93l-40-30.91c-13.3,9.84-27.11,17.81-41.89,23.12-21.36,7.67-28.87,34-14.23,51.34,59.32,70.28,223.35,188.6,615.18,77.34,0,0,13.15,203.8,101.9,233.39,0,0,111.76-69,111.76-299.13C3123.45,605,3042,509,2913.13,466.86Z" transform="translate(0 0)"/><path class="cls-44" d="M2553,602.56c26.95-27,39.79-57.83,28.66-69s-42,1.71-69,28.67-39.8,57.83-28.67,69S2526.05,629.52,2553,602.56Z" transform="translate(0 0)"/><path class="cls-25" d="M2275.37,1393.76v1.12a57.51,57.51,0,0,1-57.54,57.54h-31.75a57.53,57.53,0,0,1-57.54-57.54v-1.12a57.51,57.51,0,0,1,57.54-57.54h31.75a57.48,57.48,0,0,1,57.54,57.54Z" transform="translate(0 0)"/><path class="cls-45" d="M4146.43,689.26c-1.08-40.47-10.72-82.19-33.16-122H4257.5V12.59H3373.66V567.24h32.45c-22.42,39.84-32.06,81.55-33.14,122H3201.81V0H3027.69V.07h-167.4v453c-54.41-10.86-115.27-13.74-180.6-8.71A306.11,306.11,0,0,0,2635.2,451v-88.6H1741.1v90.06c-85-15.72-156.1-1.57-156.1-1.57-58.91,8.65-107.46,23.38-147.35,42.44V1H1271.22V.12L1097.1,0V1h-1V689.26h-52c-1.09-40.49-10.74-82.22-33.2-122.06h10.63V12.55H137.73V567.2H303.84c-22.45,39.85-32.1,81.57-33.19,122.06H0v613.36H112.52v-30.88h233l-.42.73c-.55,1-1.08,1.94-1.57,2.94-.25.5-.5,1-.74,1.51s-.47,1-.69,1.51-.45,1-.66,1.54-.42,1-.62,1.55c-.41,1-.79,2.09-1.13,3.15s-.68,2.12-1,3.19l-.45,1.69c-.12.52-.25,1-.37,1.56-.15.67-.29,1.35-.42,2-.08.42-.16.84-.23,1.26s-.19,1.11-.27,1.66c-.17,1.11-.31,2.22-.42,3.34s-.19,2.18-.24,3.28-.1,2.32-.1,3.49v58.69c0,.82,0,1.64.05,2.46s.07,1.73.14,2.58.12,1.5.2,2.25c0,.49.11,1,.17,1.45.09.67.18,1.34.29,2,.07.46.14.91.22,1.36s.17.91.26,1.36.21,1,.33,1.54.25,1.09.39,1.64q.6,2.46,1.4,4.84c.34,1.07.72,2.13,1.13,3.17.21.53.41,1,.63,1.57s.43,1,.65,1.52.47,1,.71,1.56.49,1,.74,1.51c.51,1,1,2,1.58,3,.28.49.56,1,.85,1.45s.45.76.69,1.13c.7,1.13,1.44,2.23,2.21,3.32l1,1.33c.41.55.84,1.1,1.26,1.63s.84,1,1.27,1.54l0,0,0,0,.14.16c.39.46.79.91,1.19,1.36.81.92,1.66,1.82,2.53,2.69.46.46.93.9,1.41,1.34l.21.2.25.24c1,.91,2,1.79,3,2.64l1.28,1c.86.69,1.74,1.34,2.64,2s1.8,1.26,2.73,1.85c.47.3.93.59,1.4.87s.95.57,1.43.84l1,.59c.24.14.49.27.74.4q.68.38,1.38.72l1.24.61q.51.26,1,.48l.87.4.06,0,1.51.64,1.57.63,1.58.58c.52.19,1.05.37,1.59.55s1.06.35,1.6.51l1.47.43,2,.52c1,.25,2,.48,3.07.68.7.14,1.4.27,2.11.38l1.19.19c1,.16,2.07.29,3.1.39.56.06,1.13.11,1.7.15l1.31.09c1.32.08,2.63.12,3.95.12H653V1503a63,63,0,0,0-5.14,24.86v60.44H553.2a39.86,39.86,0,0,0-39.86,39.86V1669H517a74.43,74.43,0,0,0-43.45,52.89,12.77,12.77,0,0,0,2.54,10.74,12.71,12.71,0,0,0,4.43,3.51,12.9,12.9,0,0,0,5.52,1.27h5.16a55,55,0,0,0,13,35.59c-69.69,7.82-114,19.57-114,32.71,0,23.54,142.25,42.62,317.72,42.62s317.72-19.08,317.72-42.62c0-11.57-34.38-22.07-90.19-29.75a55,55,0,0,0,15.7-38.55h5.17a12.9,12.9,0,0,0,5.52-1.27,12.71,12.71,0,0,0,4.43-3.51,12.93,12.93,0,0,0,2.48-5.09,12.68,12.68,0,0,0,0-5.65A74.48,74.48,0,0,0,913.61,1665v-36.91a39.86,39.86,0,0,0-39.86-39.86H773.5v-60.42a62.77,62.77,0,0,0-4.78-24c-.15-.36-.3-.72-.46-1.07v-69.36h298a68.49,68.49,0,0,0,68.49-68.49V1306.2a68.13,68.13,0,0,0-9.29-34.46h277.39q-9.35,17.34-17.89,35.08c-40.25,84.51-48.79,147-26.11,190.89,38,73.69,107.5,147,110.43,150l.8-.76c3.23,8.53,10.12,16.85,19.87,25.37a72.69,72.69,0,0,0,17.72,11.42l6,55.34a245.58,245.58,0,0,1-.39,55.93L1502.74,1881h.18a3.62,3.62,0,0,0,.61,1.74c-4,5.76-8.13,17.4-8,40.91-149.54,9.55-253.82,31.06-253.82,56.08,0,33.87,191.25,61.34,427.18,61.34S2096,2013.6,2096,1979.73c0-24.06-96.42-44.87-236.79-54.93a58.49,58.49,0,0,0-2.46-8.7h0c-7.13-19-23.06-29.22-35.91-34.55a2.63,2.63,0,0,0,.09-.55h.19l8.44-69.22a384.19,384.19,0,0,0,.58-87.47l-13.11-121.77a108.72,108.72,0,0,0,16.76-41.44,41.29,41.29,0,0,0,6-5.69c13.87-16.22,9.86-37.17,5.92-48.84,27.14-27.64,3.82-67.73-7.54-125.24a201.57,201.57,0,0,1-27.68,12.34,201.27,201.27,0,0,0,27.63-12.34q-.93-4.56-1.71-9.15c64.13,44.64,147.08,69,247.75,72.87a635.11,635.11,0,0,0,71.57-1.26,57.25,57.25,0,0,0,30.32,8.63h31.75a57.25,57.25,0,0,0,28.69-7.65c18.35.89,35.42,1,54.93.28,100.66-3.86,183.6-28.22,247.73-72.86q-.76,4.57-1.7,9.14c5.12,2.79,10.83,5.57,17.21,8.26a189.39,189.39,0,0,1-17.25-8.26c-11.35,57.5-34.68,97.59-7.55,125.23-3.94,11.67-7.95,32.62,5.92,48.85a40.71,40.71,0,0,0,6,5.68,108.88,108.88,0,0,0,16.78,41.49l-13.12,121.73a383.62,383.62,0,0,0,.6,87.47l8.45,69.22h.18a2.63,2.63,0,0,0,.09.55c-12.84,5.34-28.75,15.54-35.88,34.5h0a59.48,59.48,0,0,0-3.11,12.51c-115.38,11-191.45,29.8-191.45,51.17,0,33.87,191.25,61.34,427.18,61.34s427.18-27.47,427.18-61.34c0-27.44-125.48-50.67-298.53-58.51-.21-21.9-4.19-32.94-8.06-38.5a3.64,3.64,0,0,0,.6-1.72h.18l-10.48-85.94a245.58,245.58,0,0,1-.39-55.93l6-55.32a72.51,72.51,0,0,0,17.76-11.44c9.74-8.52,16.64-16.83,19.87-25.36l.79.75c2.94-3.08,72.4-76.36,110.44-150,22.67-43.94,14.14-106.38-26.11-190.89q-8.55-17.74-17.9-35.08h308.9a68.14,68.14,0,0,0-9.3,34.47v58.68a68.49,68.49,0,0,0,68.49,68.49h298v69.34c-.16.36-.32.72-.47,1.09a63,63,0,0,0-4.78,24v60.4H3543.37a39.84,39.84,0,0,0-39.86,39.86V1665a74.48,74.48,0,0,0-55.19,56.82,12.68,12.68,0,0,0,0,5.65,12.93,12.93,0,0,0,2.48,5.09,12.66,12.66,0,0,0,4.44,3.51,12.82,12.82,0,0,0,5.51,1.27H3466a54.86,54.86,0,0,0,9.73,31.28c-46.14,7.4-73.91,16.93-73.91,27.33,0,23.54,142.25,42.62,317.72,42.62s317.72-19.08,317.72-42.62c0-13.36-45.83-25.29-117.56-33.1a54.89,54.89,0,0,0,6.24-25.51h5.16a12.9,12.9,0,0,0,5.52-1.27,12.71,12.71,0,0,0,4.43-3.51,12.77,12.77,0,0,0,2.54-10.74,74.44,74.44,0,0,0-43.47-52.9h3.69v-40.84a39.85,39.85,0,0,0-39.86-39.86H3769.3v-60.4a62.89,62.89,0,0,0-5.13-24.84v-69.64h248.25c1.69,0,3.37-.06,5-.19l1.67-.14,1.63-.19c.52-.06,1-.13,1.55-.21l.57-.08.79-.13c.61-.1,1.21-.21,1.81-.33l1.47-.3,1.46-.34.9-.21,1.08-.29,1.07-.3h0l.11,0c.74-.22,1.47-.44,2.2-.68l.1,0,2-.7.05,0,.49-.18c.7-.26,1.39-.53,2.08-.82l.11,0,.6-.26c1-.44,2-.9,3.05-1.39l1.4-.69,1.31-.69c.89-.49,1.78-1,2.65-1.5l1.42-.88c.48-.3.95-.61,1.41-.92s.93-.63,1.38-.95.91-.65,1.36-1,.9-.68,1.34-1l1.31-1.05,1.09-.91c1.35-1.15,2.65-2.36,3.9-3.61a68.37,68.37,0,0,0,8.52-10.39c.46-.69.91-1.4,1.36-2.11,0,0,0,0,0,0,.44-.71.86-1.44,1.28-2.17a67.49,67.49,0,0,0,7.51-20c.11-.52.21-1,.29-1.56l.15-.86c.06-.36.12-.72.17-1.08a1.85,1.85,0,0,0,0-.23c.08-.57.16-1.14.22-1.71s.14-1.22.2-1.84c0-.06,0-.12,0-.18.08-.94.15-1.88.2-2.83.06-1.13.09-2.27.09-3.41v-58.68c0-1.15,0-2.3-.09-3.44-.1-2.07-.29-4.12-.59-6.14a67.77,67.77,0,0,0-8.62-24.89h114.58V770.9h0v531.72h112.52V689.26ZM2417.75,1321.89c-49.07,15.77-108.26,22.26-176.32,19.37a57.37,57.37,0,0,0-23.6-5h-31.75a57.25,57.25,0,0,0-20.8,3.88c-77,5.28-143.32-.83-197.39-18.21l-.94-.31h451.74Z" transform="translate(0 0)"/></g></g></svg>