<svg width="14" height="14" viewBox="0 0 14 14" fill="none" xmlns="http://www.w3.org/2000/svg">
<path d="M14 4.9383V11.7555C13.9996 12.1186 13.8356 12.4667 13.544 12.7235C13.2523 12.9802 12.8569 13.1246 12.4444 13.125H9.85189C9.57679 13.125 9.31306 13.0288 9.11855 12.8576C8.92404 12.6864 8.81484 12.4542 8.81484 12.212V9.70135C8.81484 9.58023 8.76015 9.46416 8.66295 9.37857C8.56571 9.29289 8.43382 9.24481 8.2963 9.24481H5.7037C5.56618 9.24481 5.4343 9.29289 5.33705 9.37857C5.23982 9.46416 5.18519 9.58023 5.18519 9.70135V12.212C5.18519 12.4542 5.07593 12.6864 4.88144 12.8576C4.68696 13.0288 4.42319 13.125 4.14815 13.125H1.55556C1.14313 13.1246 0.747701 12.9802 0.456067 12.7235C0.164433 12.4667 0.000411815 12.1186 0 11.7555V4.9383C0.000388003 4.78064 0.0469221 4.62574 0.135112 4.48853C0.223303 4.35132 0.350172 4.23644 0.503481 4.15496L6.46644 1.00518C6.62764 0.919997 6.81212 0.875 7.00013 0.875C7.18814 0.875 7.37261 0.919997 7.53381 1.00518L13.4968 4.15496C13.65 4.23646 13.7769 4.35136 13.865 4.48857C13.9532 4.62578 13.9997 4.78067 14 4.9383Z" fill="white"/>
</svg>
