<svg width="16" height="16" viewBox="0 0 16 16" fill="none" xmlns="http://www.w3.org/2000/svg">
<path d="M16 5.30717V14.2113C15.9995 14.6855 15.8121 15.1402 15.4788 15.4756C15.1455 15.8109 14.6936 15.9995 14.2222 16H11.2593C10.9449 16 10.6435 15.8744 10.4212 15.6507C10.1989 15.4271 10.0741 15.1238 10.0741 14.8075V11.5283C10.0741 11.3701 10.0116 11.2185 9.90051 11.1067C9.78938 10.9948 9.63865 10.932 9.48148 10.932H6.51852C6.36135 10.932 6.21063 10.9948 6.09949 11.1067C5.98836 11.2185 5.92593 11.3701 5.92593 11.5283V14.8075C5.92593 15.1238 5.80106 15.4271 5.57879 15.6507C5.35653 15.8744 5.05507 16 4.74074 16H1.77778C1.30643 15.9995 0.854515 15.8109 0.521219 15.4756C0.187923 15.1402 0.000470646 14.6855 0 14.2113V5.30717C0.000443432 5.10125 0.0536253 4.89893 0.154414 4.71971C0.255203 4.5405 0.400197 4.39045 0.575407 4.28403L7.39022 0.170027C7.57445 0.0587715 7.78528 0 8.00015 0C8.21502 0 8.42584 0.0587715 8.61007 0.170027L15.4249 4.28403C15.6 4.39048 15.745 4.54055 15.8457 4.71976C15.9465 4.89898 15.9996 5.10128 16 5.30717V5.30717Z" fill="white"/>
</svg>
