<svg width="16" height="16" viewBox="0 0 16 16" fill="none" xmlns="http://www.w3.org/2000/svg">
<path d="M7.41309 10.4948C7.4863 10.1318 7.04923 9.60777 6.43023 9.05567C5.84593 8.52506 5.19999 8.06274 4.50555 7.67812C4.37435 7.58987 4.22135 7.53732 4.06235 7.52586C3.90334 7.5144 3.74407 7.54446 3.60096 7.61294C3.45786 7.68142 3.3361 7.78583 3.24824 7.91542C3.16038 8.04501 3.1096 8.19507 3.10114 8.35014C2.94778 9.10651 3.10725 9.89125 3.54487 10.5337C3.68959 10.7463 3.88487 10.9218 4.11411 11.0452C4.34336 11.1686 4.5998 11.2362 4.86164 11.2425C5.48539 11.2895 6.11229 11.2798 6.73418 11.2133C6.90453 11.1665 7.0582 11.0745 7.17806 10.9476C7.29793 10.8208 7.37929 10.664 7.41309 10.4948ZM13.6342 11.1096C13.6142 11.0935 13.5906 11.0825 13.5653 11.0774C13.5399 11.0723 13.5137 11.0733 13.4889 11.0804C13.4641 11.0874 13.4414 11.1002 13.4228 11.1177C13.4043 11.1353 13.3904 11.1569 13.3824 11.1809C13.0069 12.2362 12.301 13.1503 11.3641 13.7943C10.4271 14.4384 9.30641 14.78 8.15966 14.7711C3.61698 15.0812 10.6002 16.0601 12.5715 14.5821C13.0256 14.3323 13.3984 13.9632 13.6475 13.5169C13.8966 13.0707 14.0119 12.5652 13.9803 12.0582C13.9738 11.7128 13.8502 11.3793 13.6286 11.1096H13.6342ZM15.52 7.49228C15.5284 7.23206 15.4581 6.97517 15.3179 6.75351C15.1777 6.53186 14.9737 6.3552 14.7313 6.24547C14.6872 6.23187 14.6475 6.20727 14.6161 6.1741C14.5848 6.14093 14.5629 6.10035 14.5527 6.05639C14.3692 5.0545 13.9496 4.10772 13.3269 3.29049C13.2936 3.24619 13.216 3.19541 13.2603 3.14247C13.5188 2.80214 13.2515 2.6109 13.0485 2.42183C12.0843 1.43594 10.8481 0.74252 9.48872 0.425083C8.12931 0.107646 6.70467 0.179723 5.38635 0.632635C4.18329 1.00105 3.11057 1.69096 2.29023 2.62387C2.16931 2.75136 2.08722 2.89289 2.19926 3.05604C2.29023 3.17381 2.2392 3.23971 2.16931 3.33047C1.57023 4.1355 1.16285 5.06043 0.976785 6.03803C0.968697 6.09033 0.946 6.13946 0.911175 6.18005C0.87635 6.22063 0.830737 6.25112 0.779325 6.26816C0.576193 6.35943 0.400259 6.49955 0.268094 6.67534C0.135929 6.85113 0.0518835 7.05679 0.0238746 7.27296L0.00279739 8.05627V8.67427C-0.0102104 8.87494 0.0222562 9.07594 0.0978962 9.26302C0.173536 9.4501 0.290498 9.61869 0.440494 9.75684C0.590489 9.89499 0.769847 9.99932 0.965855 10.0624C1.16186 10.1255 1.36973 10.1459 1.57471 10.1221C1.62239 10.1265 1.67049 10.1208 1.71572 10.1055C1.76094 10.0901 1.80224 10.0655 1.83679 10.0332C1.87133 10.0009 1.89831 9.96166 1.91587 9.91826C1.93344 9.87487 1.94118 9.82829 1.93857 9.78171C1.8853 8.54147 1.92237 7.2991 2.0495 6.06396C2.23263 5.20145 2.61882 4.39211 3.17767 3.69967C3.73652 3.00722 4.45277 2.45057 5.27003 2.07353C6.08729 1.69649 6.98325 1.50935 7.88739 1.52686C8.79152 1.54436 9.67914 1.76603 10.4804 2.17441C11.4257 2.64412 12.2175 3.3618 12.7663 4.24647C13.3152 5.13113 13.5992 6.14758 13.5865 7.18112C13.6109 8.01413 13.5865 8.85038 13.5865 9.68124C13.5865 9.8876 13.653 10.0507 13.8716 10.1004C14.0504 10.1331 14.2341 10.131 14.4122 10.0943C14.5902 10.0576 14.759 9.98708 14.909 9.88669C15.059 9.78631 15.1871 9.65808 15.286 9.50935C15.385 9.36062 15.4528 9.19433 15.4856 9.02001C15.5392 8.51246 15.5489 8.00141 15.5145 7.49228H15.52ZM10.6723 11.3753C10.9141 11.388 11.1558 11.3499 11.3812 11.2637C11.6065 11.1775 11.8102 11.0452 11.9785 10.8756C12.1468 10.7061 12.2758 10.5033 12.3566 10.281C12.4375 10.0588 12.4684 9.82215 12.4472 9.58724C12.384 8.25183 10.4382 9.09996 9.78483 9.35062C7.56617 10.1815 8.41925 10.9713 9.11147 11.1474L10.6723 11.3753Z" fill="#736B97"/>
</svg>
