<svg width="16" height="16" viewBox="0 0 16 16" fill="none" xmlns="http://www.w3.org/2000/svg">
<path d="M7.78255 0.0675364C6.77156 0.0309628 5.76343 0.193883 4.81875 0.546501C3.87408 0.899119 3.01237 1.43415 2.28544 2.11943C1.55851 2.80471 0.981378 3.62609 0.588734 4.53417C0.19609 5.44226 -0.00395228 6.4183 0.000633667 7.40361C-0.013131 8.42533 0.197499 9.43812 0.618408 10.3741C1.03932 11.3101 1.66078 12.1476 2.44115 12.8306C2.70295 13.0596 2.64859 13.1925 2.69296 14.6068C2.69567 14.7063 2.72344 14.8035 2.77382 14.8901C2.82419 14.9767 2.89564 15.0498 2.98187 15.1032C3.06809 15.1566 3.16646 15.1885 3.26832 15.1961C3.37018 15.2037 3.4724 15.1869 3.566 15.147C5.22222 14.4361 5.24441 14.3799 5.52507 14.4545C10.3251 15.7412 15.5267 12.7495 15.5267 7.40901C15.5361 6.42529 15.3406 5.44993 14.9521 4.54185C14.5636 3.63377 13.9901 2.81182 13.2663 2.12565C12.5425 1.43948 11.6834 0.903327 10.7408 0.549589C9.79833 0.195851 8.79196 0.0318643 7.78255 0.0675364ZM12.455 5.71275L10.1698 9.23709C10.0835 9.36962 9.96991 9.48335 9.83632 9.57116C9.70272 9.65896 9.55194 9.71894 9.39343 9.74734C9.23492 9.77574 9.07209 9.77195 8.91516 9.73621C8.75822 9.70046 8.61056 9.63353 8.48142 9.53961L6.66324 8.21069C6.58197 8.15125 6.48309 8.11912 6.38147 8.11912C6.27984 8.11912 6.18096 8.15125 6.0997 8.21069L3.64587 10.0269C3.57699 10.0774 3.49213 10.1028 3.40601 10.0988C3.31988 10.0948 3.23791 10.0616 3.1743 10.0049C3.11069 9.94818 3.06944 9.8716 3.05771 9.7884C3.04598 9.7052 3.06451 9.62063 3.11007 9.54933L5.39528 6.02499C5.48191 5.89271 5.59565 5.77927 5.72938 5.69178C5.8631 5.60429 6.01393 5.54463 6.17242 5.51654C6.33092 5.48844 6.49366 5.49252 6.65046 5.52851C6.80726 5.56451 6.95474 5.63164 7.08367 5.72571L8.90185 7.04707C8.98312 7.1065 9.082 7.13864 9.18362 7.13864C9.28525 7.13864 9.38413 7.1065 9.46539 7.04707L11.9203 5.23628C11.989 5.18544 12.0738 5.15968 12.16 5.1635C12.2461 5.16732 12.3282 5.20047 12.3918 5.25718C12.4555 5.31389 12.4967 5.39056 12.5082 5.47381C12.5198 5.55706 12.5009 5.64163 12.455 5.71275Z" fill="#736B97"/>
</svg>
