<svg width="16" height="16" viewBox="0 0 16 16" fill="none" xmlns="http://www.w3.org/2000/svg">
<path d="M14.7099 9.8862C14.8155 9.39981 14.8701 8.90423 14.873 8.40709C14.8734 7.49605 14.6894 6.59386 14.3315 5.75216C13.9735 4.91045 13.4487 4.14574 12.787 3.50179C12.1253 2.85783 11.3397 2.34727 10.4753 1.99932C9.61075 1.65137 8.68429 1.47285 7.74888 1.47399C7.23836 1.47527 6.72938 1.5285 6.23022 1.63281C5.48309 1.08043 4.5559 0.810154 3.62003 0.871946C2.68417 0.933737 1.80291 1.32342 1.13916 1.96895C0.475415 2.61449 0.0740552 3.47223 0.00927508 4.38363C-0.055505 5.29503 0.220675 6.19845 0.786763 6.92691C0.68258 7.4138 0.62943 7.90974 0.628129 8.40709C0.627692 9.31786 0.811593 10.2198 1.16932 11.0613C1.52704 11.9028 2.05157 12.6673 2.71291 13.3113C3.37425 13.9552 4.15942 14.4658 5.02354 14.8139C5.88765 15.1621 6.81375 15.3409 7.74888 15.3402C8.2594 15.3389 8.76839 15.2857 9.26755 15.1814C9.84219 15.6109 10.5288 15.8754 11.2496 15.9448C11.9705 16.0141 12.697 15.8857 13.3468 15.574C13.9967 15.2624 14.5441 14.7798 14.9271 14.181C15.3101 13.5821 15.5134 12.8909 15.5142 12.1854C15.5176 11.3526 15.2344 10.5428 14.7099 9.88512V9.8862ZM7.96187 12.9762C5.68776 12.9762 3.78416 11.9898 3.78416 10.7808C3.77154 10.6452 3.78902 10.5086 3.83543 10.3802C3.88183 10.2518 3.95607 10.1346 4.0531 10.0366C4.15013 9.93862 4.26767 9.86212 4.39775 9.81231C4.52783 9.76249 4.66739 9.74053 4.80695 9.7479C5.88855 9.7479 5.9895 11.2605 7.86203 11.2605C8.74949 11.2605 9.32856 10.8759 9.32856 10.3724C9.32856 9.74034 8.7739 9.6431 7.87202 9.42702C5.7044 8.90733 3.78749 8.68368 3.78749 6.48177C3.78749 4.48298 5.81977 3.74289 7.57028 3.74289C9.48054 3.74289 11.4119 4.48298 11.4119 5.61419C11.4198 5.75295 11.3984 5.89181 11.349 6.02222C11.2997 6.15262 11.2235 6.27181 11.1251 6.37243C11.0266 6.47305 10.9081 6.55297 10.7768 6.60726C10.6454 6.66156 10.504 6.68908 10.3613 6.68813C9.37959 6.68813 9.34853 5.55692 7.76109 5.55692C6.87363 5.55692 6.30454 5.79354 6.30454 6.31322C6.30454 6.98201 7.0256 7.049 8.70068 7.42715C10.1361 7.74155 11.8456 8.33254 11.8456 10.0483C11.8456 12.0438 9.86547 12.9654 7.96298 12.9654L7.96187 12.9762Z" fill="#736B97"/>
</svg>
