<svg width="16" height="18" viewBox="0 0 16 18" fill="none" xmlns="http://www.w3.org/2000/svg">
<path d="M10.3034 8.58824C10.2885 8.75947 10.2228 8.92278 10.1142 9.05823C10.0057 9.19367 9.85895 9.2954 9.692 9.35099C9.52506 9.40658 9.3451 9.41362 9.17412 9.37125C9.00313 9.32889 8.84851 9.23895 8.72913 9.11242C8.60975 8.98589 8.53078 8.82824 8.50186 8.65873C8.47294 8.48921 8.49532 8.31517 8.56627 8.15784C8.63723 8.00051 8.75368 7.8667 8.90141 7.77276C9.04915 7.67881 9.22177 7.6288 9.3982 7.62882C9.52236 7.63382 9.64428 7.66261 9.757 7.71356C9.86971 7.7645 9.97101 7.83659 10.0551 7.92571C10.1392 8.01482 10.2044 8.11921 10.247 8.23289C10.2896 8.34658 10.3088 8.46733 10.3034 8.58824ZM6.15898 7.62882C5.9117 7.64863 5.68112 7.7583 5.51302 7.93604C5.34492 8.11378 5.25161 8.34659 5.25161 8.58824C5.25161 8.82989 5.34492 9.06271 5.51302 9.24045C5.68112 9.41819 5.9117 9.52785 6.15898 9.54767C6.28313 9.54266 6.40505 9.51387 6.51777 9.46292C6.63048 9.41198 6.73178 9.33989 6.81586 9.25078C6.89993 9.16166 6.96514 9.05728 7.00775 8.94359C7.05037 8.82991 7.06954 8.70915 7.06419 8.58824C7.07029 8.46716 7.05163 8.3461 7.00929 8.2321C6.96696 8.11811 6.90179 8.01344 6.81757 7.92417C6.73335 7.83491 6.63176 7.76283 6.5187 7.71213C6.40564 7.66143 6.28337 7.63311 6.15898 7.62882ZM15.5306 2.15751V17.6639C13.2953 15.7396 14.0097 16.3771 11.4127 14.025L11.8831 15.624H1.8193C1.5798 15.6235 1.34277 15.5769 1.12172 15.4872C0.900681 15.3974 0.699961 15.2661 0.531024 15.1007C0.362087 14.9354 0.228241 14.7393 0.137129 14.5235C0.0460167 14.3078 -0.000578012 14.0767 5.41177e-06 13.8435V2.15751C-0.000578012 1.92425 0.0460167 1.69316 0.137129 1.47744C0.228241 1.26172 0.362087 1.06559 0.531024 0.900254C0.699961 0.734914 0.900681 0.603601 1.12172 0.513813C1.34277 0.424025 1.5798 0.37752 1.8193 0.376953L13.7113 0.376953C13.9508 0.37752 14.1878 0.424025 14.4088 0.513813C14.6299 0.603601 14.8306 0.734914 14.9995 0.900254C15.1685 1.06559 15.3023 1.26172 15.3934 1.47744C15.4845 1.69316 15.5311 1.92425 15.5306 2.15751ZM13.0013 10.3515C12.9725 8.59923 12.5355 6.8762 11.7233 5.31237C11.0086 4.76566 10.1373 4.44854 9.22959 4.40481L9.10534 4.5431C9.91342 4.75252 10.6666 5.12668 11.3151 5.64082C10.3028 5.10971 9.17924 4.81102 8.03027 4.76758C6.88129 4.72413 5.73733 4.93708 4.68579 5.39016C4.353 5.5371 4.16219 5.64082 4.16219 5.64082C4.8441 5.10161 5.6394 4.71505 6.49177 4.50853L6.40303 4.40048C5.49534 4.44422 4.62398 4.76134 3.90927 5.30805C3.09798 6.87354 2.66252 8.5981 2.63576 10.3515C2.94181 10.7698 3.34874 11.1084 3.82074 11.3375C4.29275 11.5666 4.81534 11.6792 5.34251 11.6653C5.34251 11.6653 5.67531 11.2764 5.93711 10.9479C5.31318 10.7946 4.76384 10.4339 4.38406 9.92798C4.51496 10.0166 4.73017 10.1322 4.74792 10.1441C5.5902 10.5912 6.52404 10.8503 7.48182 10.9026C8.43959 10.955 9.39732 10.7992 10.2857 10.4466C10.6445 10.3147 10.9869 10.1436 11.3062 9.93662C10.9122 10.4534 10.3432 10.8177 9.69994 10.9652C9.96618 11.2893 10.2857 11.6653 10.2857 11.6653C10.814 11.6783 11.3375 11.5655 11.8108 11.3365C12.2841 11.1075 12.6928 10.7694 13.0013 10.3515Z" fill="#736B97"/>
</svg>
