<?xml version="1.0" encoding="UTF-8" standalone="no"?>
<!-- Created with Inkscape (http://www.inkscape.org/) -->

<svg
   xmlns:dc="http://purl.org/dc/elements/1.1/"
   xmlns:cc="http://creativecommons.org/ns#"
   xmlns:rdf="http://www.w3.org/1999/02/22-rdf-syntax-ns#"
   xmlns:svg="http://www.w3.org/2000/svg"
   xmlns="http://www.w3.org/2000/svg"
   xmlns:sodipodi="http://sodipodi.sourceforge.net/DTD/sodipodi-0.dtd"
   xmlns:inkscape="http://www.inkscape.org/namespaces/inkscape"
   version="1.1"
   id="svg10"
   xml:space="preserve"
   width="800"
   height="600"
   viewBox="0 0 800 599.99998"
   sodipodi:docname="logo.svg"
   inkscape:version="0.92.2 5c3e80d, 2017-08-06"><metadata
     id="metadata16"><rdf:RDF><cc:Work
         rdf:about=""><dc:format>image/svg+xml</dc:format><dc:type
           rdf:resource="http://purl.org/dc/dcmitype/StillImage" /><dc:title></dc:title></cc:Work></rdf:RDF></metadata><defs
     id="defs14"><clipPath
       clipPathUnits="userSpaceOnUse"
       id="clipPath28"><path
         d="M 0,1250 H 1850 V 0 H 0 Z"
         id="path26"
         inkscape:connector-curvature="0" /></clipPath></defs><sodipodi:namedview
     pagecolor="#ffffff"
     bordercolor="#666666"
     borderopacity="1"
     objecttolerance="10"
     gridtolerance="10"
     guidetolerance="10"
     inkscape:pageopacity="0"
     inkscape:pageshadow="2"
     inkscape:window-width="1920"
     inkscape:window-height="982"
     id="namedview12"
     showgrid="false"
     inkscape:zoom="0.48299998"
     inkscape:cx="1233.3334"
     inkscape:cy="584.88616"
     inkscape:window-x="0"
     inkscape:window-y="1"
     inkscape:window-maximized="1"
     inkscape:current-layer="g24" /><g
     id="g18"
     inkscape:groupmode="layer"
     inkscape:label="logo"
     transform="matrix(1.3333333,0,0,-1.3333333,0,599.99996)"><g
       id="g22"><g
         id="g24"
         clip-path="url(#clipPath28)"><g
           id="g30"
           transform="matrix(1.2662635,0,0,1.2662635,573.36949,352.76155)"><path
             d="m 0,0 -40.703,41.522 -0.007,0.008 -3.785,3.862 c -0.165,0.167 -0.342,0.314 -0.509,0.477 l -13.735,13.883 c -0.63,0.636 -1.279,1.223 -1.936,1.783 -0.154,0.128 -0.308,0.256 -0.462,0.379 -0.462,0.378 -0.929,0.731 -1.4,1.074 -0.3,0.219 -0.598,0.429 -0.894,0.634 -0.749,0.506 -1.507,0.968 -2.265,1.399 -30.607,18.167 -57.371,-7.644 -57.371,-7.644 l -0.009,-0.039 c -0.58,-0.519 -1.165,-1.031 -1.721,-1.586 L -251.172,-73.43 -296.161,-28.441 -315,-9.446 l -4.464,4.501 c -0.872,0.795 -1.725,1.512 -2.567,2.194 v 0.009 c -0.086,0.069 -0.171,0.125 -0.256,0.193 -0.88,0.703 -1.74,1.353 -2.574,1.941 -10.238,7.391 -20.006,10.023 -28.71,10.059 V 9.46 c -0.097,0 -0.188,-0.01 -0.285,-0.01 -0.979,-0.002 -1.947,-0.032 -2.898,-0.097 -8.791,-0.504 -16.043,-3.336 -21.477,-6.406 -5.743,-3.358 -10.189,-7.563 -11.7,-9.074 l -0.575,-0.587 -0.002,-10e-4 -43.466,-44.341 c -16.314,-16.642 -16.08,-43.488 0.52,-59.844 l 98.539,-97.084 c 0.927,-1.173 1.853,-2.233 2.825,-3.235 l 44.225,-45.6 c 7.953,-8.198 18.972,-12.829 30.424,-12.828 0.418,0 0.839,0.006 1.258,0.019 2.156,-0.07 4.298,0.033 6.412,0.289 5.285,-2.32 10.987,-3.404 16.666,-3.217 10.381,-0.342 20.865,3.484 28.671,11.533 l 44.226,45.601 c 0.97,0.999 1.864,2.043 2.702,3.116 L -0.47,-53.92 C 14.523,-39.148 14.733,-15.03 0,0"
             style="fill:#4e00ff;fill-opacity:1;fill-rule:nonzero;stroke:none"
             id="path32"
             inkscape:connector-curvature="0" /></g><g
           id="g34"
           transform="matrix(1.2662635,0,0,1.2662635,545.29275,361.78241)"><path
             d="m 0,0 -44.495,45.392 c -14.863,15.163 -39.244,15.284 -54.258,0.27 l -134.351,-137.16 -76.043,76.043 c -15.015,15.015 -39.395,14.893 -54.258,-0.27 l -44.496,-45.391 c -14.733,-15.03 -14.523,-39.149 0.469,-53.92 l 98.729,-97.271 c 0.838,-1.072 1.732,-2.116 2.702,-3.115 l 44.226,-45.601 c 7.807,-8.049 18.29,-11.875 28.671,-11.533 10.38,-0.342 20.864,3.484 28.671,11.533 l 44.226,45.601 c 0.969,0.999 1.863,2.043 2.702,3.115 L -0.469,-53.92 C 14.523,-39.148 14.733,-15.03 0,0"
             style="fill:#ffffff;fill-opacity:1;fill-rule:nonzero;stroke:none"
             id="path36"
             inkscape:connector-curvature="0" /></g><g
           id="g38"
           transform="matrix(1.2662635,0,0,1.2662635,218.48979,34.957284)"><path
             d="m 0,0 -44.227,45.601 c -0.821,0.846 -1.607,1.754 -2.405,2.776 l -0.169,0.215 -98.923,97.462 c -13.314,13.118 -13.501,34.648 -0.417,47.995 l 44.495,45.392 c 6.399,6.527 14.957,10.148 24.096,10.194 h 0.175 c 3.439,0 6.797,-0.512 9.994,-1.49 -0.034,-0.002 -0.067,10e-4 -0.1,10e-4 -0.059,-0.003 -0.116,-0.005 -0.174,-0.007 -8.997,-0.371 -17.597,-4.069 -24.147,-10.75 l -43.297,-44.169 c -0.41,-0.419 -1.996,-2.075 -2.359,-2.521 -12.696,-14.203 -12.116,-36.085 1.604,-49.602 l 98.827,-97.368 c 0.027,-0.036 0.141,-0.179 0.168,-0.214 0.794,-1.01 1.607,-1.95 2.469,-2.838 L 9.836,-4.924 c 1.346,-1.388 2.787,-2.644 4.305,-3.772 C 8.818,-7.021 3.938,-4.061 0,0"
             style="fill:#d9cfff;fill-opacity:1;fill-rule:nonzero;stroke:none"
             id="path40"
             inkscape:connector-curvature="0" /></g><g
           id="g42"
           transform="matrix(1.2662635,0,0,1.2662635,441.32188,411.27432)"><path
             d="m 0,0 c -0.749,-0.553 -3.493,-3.194 -4.171,-3.873 l -136.512,-137.002 -5.949,5.946 134.628,135.121 c 6.423,6.422 14.948,9.952 24.024,9.952 h 0.173 C 15.607,10.127 18.939,9.609 22.108,8.63 14.052,8.34 6.276,5.403 0,0"
             style="fill:#d9cfff;fill-opacity:1;fill-rule:nonzero;stroke:none"
             id="path44"
             inkscape:connector-curvature="0" /></g><g
           id="g46"
           transform="matrix(1.2662635,0,0,1.2662635,161.1939,255.37234)"><path
             d="m 0,0 h -15.683 v 3.937 12.351 c 0,3.702 -3.001,6.703 -6.702,6.703 h -9.585 c -3.702,0 -6.703,-3.001 -6.703,-6.703 V 0 h -15.683 c -4.036,0 -7.308,-3.272 -7.308,-7.308 v -8.374 c 0,-4.037 3.272,-7.309 7.308,-7.309 h 3.828 11.855 v -16.287 c 0,-3.702 3.001,-6.703 6.703,-6.703 h 9.585 c 3.701,0 6.702,3.001 6.702,6.703 v 16.287 H 0 c 4.036,0 7.309,3.272 7.309,7.309 v 8.374 C 7.309,-3.272 4.036,0 0,0"
             style="fill:#4e00ff;fill-opacity:1;fill-rule:nonzero;stroke:none"
             id="path48"
             inkscape:connector-curvature="0" /></g><g
           id="g50"
           transform="matrix(1.2662635,0,0,1.2662635,380.54745,226.42518)"><path
             d="m 0,0 c -8.35,0 -15.117,-6.768 -15.117,-15.117 0,-8.349 6.767,-15.117 15.117,-15.117 8.349,0 15.117,6.768 15.117,15.117 C 15.117,-6.768 8.349,0 0,0"
             style="fill:#4e00ff;fill-opacity:1;fill-rule:nonzero;stroke:none"
             id="path52"
             inkscape:connector-curvature="0" /></g><g
           id="g54"
           transform="matrix(1.2662635,0,0,1.2662635,412.05196,258.84786)"><path
             d="m 0,0 c -8.349,0 -15.117,-6.768 -15.117,-15.117 0,-8.349 6.768,-15.117 15.117,-15.117 8.35,0 15.117,6.768 15.117,15.117 C 15.117,-6.768 8.35,0 0,0"
             style="fill:#4e00ff;fill-opacity:1;fill-rule:nonzero;stroke:none"
             id="path56"
             inkscape:connector-curvature="0" /></g><g
           id="g58"
           transform="matrix(1.2662635,0,0,1.2662635,394.52332,287.66142)"><path
             d="m 0,0 c -2.759,2.954 -6.677,4.811 -11.037,4.811 -8.35,0 -15.117,-6.768 -15.117,-15.117 0,-3.948 1.525,-7.531 4.004,-10.224 2.762,-3.001 6.712,-4.893 11.113,-4.893 8.349,0 15.117,6.768 15.117,15.117 C 4.08,-6.318 2.523,-2.701 0,0"
             style="fill:#4e00ff;fill-opacity:1;fill-rule:nonzero;stroke:none"
             id="path60"
             inkscape:connector-curvature="0" /></g><g
           id="g62"
           transform="matrix(1.2662635,0,0,1.2662635,360.35649,254.1723)"><path
             d="m 0,0 c -2.65,2.294 -6.099,3.692 -9.88,3.692 -8.349,0 -15.117,-6.768 -15.117,-15.117 0,-6.429 4.02,-11.907 9.679,-14.092 1.689,-0.653 3.518,-1.025 5.438,-1.025 8.349,0 15.117,6.768 15.117,15.117 C 5.237,-6.857 3.202,-2.772 0,0"
             style="fill:#4e00ff;fill-opacity:1;fill-rule:nonzero;stroke:none"
             id="path64"
             inkscape:connector-curvature="0" /></g><g
           id="g66"
           transform="matrix(1.2662635,0,0,1.2662635,116.53455,279.64598)"><path
             d="m 0,0 c -0.069,-0.096 -0.14,-0.191 -0.199,-0.295 -0.33,-0.624 -0.537,-1.217 -0.474,-2.054 l -0.011,0.148 c -0.081,-1.392 0.072,-2.784 0.156,-4.176 l 0.228,-4.177 c 0.134,-2.784 0.324,-5.569 0.537,-8.353 h 0.2 c 0.213,2.784 0.403,5.569 0.538,8.353 L 1.18,-6.785 C 1.296,-5.052 1.874,0.433 4.568,1.266 1.888,1.665 0.603,0.774 0,0"
             style="fill:#d9cfff;fill-opacity:1;fill-rule:nonzero;stroke:none"
             id="path68"
             inkscape:connector-curvature="0" /></g><g
           id="g70"
           transform="matrix(1.2662635,0,0,1.2662635,137.77663,201.5117)"><path
             d="M 0,0 C 0.069,0.096 0.141,0.191 0.2,0.295 0.529,0.919 0.736,1.512 0.673,2.349 L 0.684,2.201 C 0.765,3.593 0.612,4.985 0.528,6.377 l -0.227,4.177 c -0.135,2.784 -0.325,5.569 -0.538,8.353 h -0.2 C -0.649,16.123 -0.84,13.338 -0.975,10.554 L -1.18,6.786 C -1.296,5.052 -1.873,-0.433 -4.568,-1.266 -1.887,-1.665 -0.603,-0.773 0,0"
             style="fill:#d9cfff;fill-opacity:1;fill-rule:nonzero;stroke:none"
             id="path72"
             inkscape:connector-curvature="0" /></g><g
           id="g74"
           transform="matrix(1.2662635,0,0,1.2662635,366.1746,271.51112)"><path
             d="m 0,0 c -0.521,1.71 -0.471,3.546 -0.108,5.317 0.385,1.769 1.185,3.488 2.349,4.938 1.157,1.447 2.655,2.659 4.348,3.353 0.81,0.426 1.724,0.58 2.581,0.8 0.881,0.148 1.782,0.168 2.656,0.139 C 11.072,14.033 10.299,13.706 9.593,13.255 8.895,12.794 8.179,12.418 7.563,11.901 6.252,10.998 5.162,9.892 4.197,8.7 3.234,7.503 2.425,6.165 1.753,4.704 1.075,3.242 0.522,1.689 0,0"
             style="fill:#d9cfff;fill-opacity:1;fill-rule:nonzero;stroke:none"
             id="path76"
             inkscape:connector-curvature="0" /></g><g
           id="g78"
           transform="matrix(1.2662635,0,0,1.2662635,394.9512,209.59034)"><path
             d="m 0,0 c 0.522,-1.71 0.472,-3.546 0.109,-5.316 -0.385,-1.77 -1.185,-3.489 -2.349,-4.939 -1.157,-1.447 -2.655,-2.659 -4.348,-3.353 -0.81,-0.426 -1.724,-0.58 -2.581,-0.8 -0.881,-0.148 -1.782,-0.168 -2.656,-0.139 0.754,0.514 1.527,0.841 2.233,1.292 0.697,0.461 1.414,0.837 2.03,1.354 1.311,0.903 2.401,2.01 3.365,3.201 0.964,1.198 1.773,2.536 2.445,3.996 C -1.074,-3.242 -0.521,-1.689 0,0"
             style="fill:#d9cfff;fill-opacity:1;fill-rule:nonzero;stroke:none"
             id="path80"
             inkscape:connector-curvature="0" /></g></g></g></g></svg>