<svg width="32" height="25" viewBox="0 0 32 25" fill="none" xmlns="http://www.w3.org/2000/svg">
<path d="M31.1613 5.45916L28.3175 2.55801L28.0529 2.28832L28.0177 2.25512L27.0576 1.28505C27.0134 1.24077 26.9681 1.19951 26.9228 1.16026L26.8906 1.1341C26.8584 1.10794 26.8252 1.08278 26.79 1.05863L26.7276 1.01435C26.6752 0.979134 26.627 0.946934 26.5696 0.913726C25.9306 0.568461 25.1988 0.434205 24.4788 0.530185C23.7589 0.626165 23.0878 0.947458 22.5615 1.44807C22.5213 1.48429 22.48 1.52052 22.4408 1.55876L13.6126 10.5832L10.4699 7.44056L9.15566 6.11426L8.84371 5.80029C8.78232 5.74495 8.72297 5.69966 8.66461 5.64734L8.64649 5.63425C8.58511 5.58494 8.52471 5.53967 8.46635 5.49841C7.89015 5.05556 7.18738 4.80872 6.46082 4.794H6.44067C6.37224 4.794 6.30481 4.794 6.2394 4.80104C5.71152 4.83312 5.19816 4.98635 4.73905 5.24885C4.44209 5.42642 4.16771 5.63929 3.92192 5.88281L3.88163 5.92407L0.84469 9.02145C0.296977 9.58171 -0.00667686 10.336 0.000111414 11.1195C0.00689969 11.903 0.323527 12.6519 0.880866 13.2026L7.76494 19.985C7.82809 20.0639 7.89527 20.1395 7.96621 20.2115L11.0555 23.3974C11.3319 23.6813 11.6623 23.9069 12.0274 24.0609C12.3924 24.2149 12.7846 24.2941 13.1808 24.294H13.2684C13.4179 24.2987 13.5676 24.292 13.7162 24.2739C14.0826 24.4347 14.4805 24.5114 14.8805 24.4983C15.252 24.5117 15.6222 24.447 15.9672 24.3083C16.3121 24.1696 16.6241 23.9601 16.883 23.6932L19.9724 20.5073C20.0393 20.4383 20.1024 20.3657 20.1615 20.2899L31.1301 9.22069C31.6332 8.7252 31.9193 8.05038 31.9255 7.34428C31.9317 6.63817 31.6576 5.95842 31.1633 5.45413" fill="#4E00FF"/>
<path d="M29.614 4.95956L26.5055 1.78872C26.2588 1.53691 25.9646 1.33652 25.64 1.19914C25.3153 1.06175 24.9667 0.990093 24.6141 0.988315C24.2616 0.986537 23.9123 1.05467 23.5862 1.18877C23.2602 1.32288 22.9641 1.5203 22.7148 1.7696L13.3291 11.3515L8.01684 6.03931C7.76761 5.79 7.47144 5.59259 7.14543 5.45849C6.81941 5.32438 6.47003 5.25625 6.11751 5.25802C5.76499 5.2598 5.41633 5.33146 5.09168 5.46885C4.76704 5.60623 4.47287 5.80663 4.22616 6.05843L1.11773 9.22927C0.623442 9.73356 0.349347 10.4133 0.355573 11.1194C0.361798 11.8255 0.647794 12.5003 1.15089 12.9958L8.04805 19.7913C8.10716 19.8671 8.1703 19.9397 8.23722 20.0087L11.3266 23.1946C11.5854 23.4615 11.8974 23.671 12.2424 23.8097C12.5873 23.9483 12.9575 24.0131 13.3291 23.9997C13.7006 24.0131 14.0708 23.9483 14.4158 23.8097C14.7607 23.671 15.0728 23.4615 15.3317 23.1946L18.4209 20.0087C18.4878 19.9396 18.551 19.8671 18.6102 19.7913L29.5787 8.72209C30.0816 8.22646 30.3675 7.5517 30.3737 6.84568C30.3799 6.13965 30.106 5.45995 29.612 4.95553" fill="white"/>
<path d="M11.5842 22.9909L8.4949 19.805C8.43541 19.7434 8.3793 19.6785 8.32684 19.6108L8.31477 19.5957L1.40353 12.7871C0.956692 12.3454 0.702824 11.7449 0.697356 11.1166C0.691888 10.4884 0.935273 9.8835 1.37435 9.43412L4.48279 6.26328C4.70185 6.03843 4.96362 5.8596 5.25271 5.73725C5.54181 5.61491 5.85241 5.55152 6.16632 5.55082H6.17839C6.41489 5.54953 6.65025 5.58345 6.87676 5.65145H6.85766C6.22019 5.67691 5.61668 5.94554 5.17111 6.40215L2.14618 9.48743C2.118 9.51661 2.0063 9.63236 1.98114 9.66355C1.55167 10.1453 1.32377 10.7737 1.34456 11.4187C1.36535 12.0638 1.63323 12.6762 2.09284 13.1292L8.99704 19.9318L9.00912 19.9469C9.06291 20.0169 9.12034 20.0841 9.18119 20.1482L12.2705 23.3341C12.3639 23.43 12.4648 23.5181 12.5724 23.5977C12.1981 23.4815 11.8585 23.274 11.5842 22.994" fill="#D9CFFF"/>
<path d="M23.8769 2.23288C23.8246 2.27112 23.6334 2.45628 23.5851 2.50358L14.0484 12.0745L13.6328 11.6589L23.0377 2.2188C23.2575 1.99764 23.5191 1.82231 23.8072 1.70295C24.0954 1.5836 24.4043 1.52258 24.7162 1.52345H24.7282C24.9629 1.52439 25.1962 1.56 25.4206 1.62911C24.8519 1.6484 24.3069 1.86142 23.8759 2.23288" fill="#D9CFFF"/>
<path d="M8.42212 10.8307H7.32627V9.69254C7.32627 9.56843 7.27697 9.44942 7.18922 9.36166C7.10146 9.27391 6.98244 9.22461 6.85834 9.22461H6.18916C6.06505 9.22461 5.94603 9.27391 5.85827 9.36166C5.77052 9.44942 5.72122 9.56843 5.72122 9.69254V10.8307H4.62738C4.49207 10.8307 4.3623 10.8844 4.26662 10.9801C4.17094 11.0758 4.11719 11.2055 4.11719 11.3408V11.9255C4.11719 12.0608 4.17094 12.1906 4.26662 12.2863C4.3623 12.3819 4.49207 12.4357 4.62738 12.4357H5.72324V13.5738C5.72324 13.6353 5.73534 13.6961 5.75886 13.7529C5.78237 13.8097 5.81684 13.8612 5.86029 13.9047C5.90374 13.9481 5.95533 13.9826 6.0121 14.0061C6.06887 14.0296 6.12972 14.0417 6.19117 14.0417H6.86035C6.9218 14.0417 6.98265 14.0296 7.03942 14.0061C7.09619 13.9826 7.14778 13.9481 7.19123 13.9047C7.23468 13.8612 7.26915 13.8097 7.29266 13.7529C7.31618 13.6961 7.32828 13.6353 7.32828 13.5738V12.4357H8.42413C8.49113 12.4357 8.55748 12.4225 8.61938 12.3969C8.68128 12.3712 8.73752 12.3336 8.78489 12.2863C8.83227 12.2389 8.86985 12.1826 8.89549 12.1207C8.92113 12.0589 8.93433 11.9925 8.93433 11.9255V11.3408C8.93433 11.2739 8.92113 11.2075 8.89549 11.1456C8.86985 11.0837 8.83227 11.0275 8.78489 10.9801C8.73752 10.9327 8.68128 10.8951 8.61938 10.8695C8.55748 10.8439 8.49113 10.8307 8.42413 10.8307" fill="#4E00FF"/>
<path d="M20.5244 12.4297C20.2444 12.4297 19.9759 12.5409 19.7779 12.7389C19.58 12.9368 19.4688 13.2053 19.4688 13.4853C19.4685 13.6241 19.4956 13.7616 19.5485 13.8899C19.6015 14.0182 19.6792 14.1348 19.7772 14.233C19.8753 14.3313 19.9917 14.4092 20.1199 14.4624C20.2481 14.5155 20.3856 14.5429 20.5244 14.5429C20.8043 14.5429 21.0728 14.4317 21.2708 14.2337C21.4687 14.0358 21.58 13.7673 21.58 13.4873C21.5802 13.3485 21.5531 13.211 21.5002 13.0827C21.4473 12.9544 21.3695 12.8378 21.2715 12.7396C21.1734 12.6413 21.057 12.5634 20.9288 12.5102C20.8006 12.4571 20.6631 12.4297 20.5244 12.4297" fill="#4E00FF"/>
<path d="M22.2607 10.6406C21.9807 10.6406 21.7122 10.7518 21.5143 10.9498C21.3163 11.1478 21.2051 11.4163 21.2051 11.6962C21.2048 11.835 21.2319 11.9725 21.2849 12.1008C21.3378 12.2291 21.4155 12.3457 21.5135 12.444C21.6116 12.5422 21.7281 12.6201 21.8563 12.6733C21.9845 12.7265 22.1219 12.7538 22.2607 12.7538C22.5406 12.7538 22.8091 12.6426 23.0071 12.4447C23.2051 12.2467 23.3163 11.9782 23.3163 11.6982C23.3166 11.5594 23.2894 11.422 23.2365 11.2937C23.1836 11.1654 23.1059 11.0488 23.0078 10.9505C22.9098 10.8523 22.7933 10.7743 22.6651 10.7212C22.5369 10.668 22.3995 10.6406 22.2607 10.6406" fill="#4E00FF"/>
<path d="M21.2952 9.05095C21.1967 8.94491 21.0775 8.86032 20.9448 8.80249C20.8122 8.74466 20.669 8.71482 20.5244 8.71484C20.2444 8.71484 19.9759 8.82606 19.7779 9.02402C19.58 9.22199 19.4688 9.49048 19.4688 9.77045C19.4686 10.0354 19.5685 10.2905 19.7485 10.4849C19.8471 10.5928 19.9672 10.6789 20.1009 10.7378C20.2347 10.7967 20.3792 10.8271 20.5254 10.8271C20.8053 10.8271 21.0738 10.7158 21.2718 10.5179C21.4697 10.3199 21.581 10.0514 21.581 9.77145C21.5809 9.50414 21.4791 9.24687 21.2962 9.05195" fill="#4E00FF"/>
<path d="M19.4089 10.8982C19.2175 10.7318 18.9723 10.6403 18.7186 10.6406C18.4392 10.6414 18.1714 10.753 17.9741 10.9509C17.7768 11.1487 17.666 11.4168 17.666 11.6962C17.6662 11.9094 17.7309 12.1174 17.8516 12.2931C17.9723 12.4688 18.1434 12.6038 18.3422 12.6804C18.4635 12.7276 18.5925 12.7518 18.7226 12.7518C18.8613 12.752 18.9987 12.7248 19.1269 12.6718C19.2551 12.6188 19.3716 12.541 19.4697 12.443C19.5678 12.345 19.6457 12.2286 19.6988 12.1004C19.7519 11.9723 19.7792 11.8349 19.7792 11.6962C19.7792 11.5447 19.7465 11.3949 19.6833 11.2572C19.6201 11.1195 19.5278 10.997 19.4129 10.8982" fill="#4E00FF"/>
<path d="M5.96016 9.4918C5.95512 9.49826 5.95041 9.50498 5.94608 9.51193C5.9205 9.55535 5.90891 9.60559 5.91287 9.65583V9.64577C5.9108 9.74318 5.91449 9.84062 5.92394 9.93759L5.94004 10.2294C5.9491 10.4236 5.96218 10.6189 5.97727 10.8131H5.99136C6.00645 10.6189 6.01954 10.4236 6.02859 10.2294L6.04268 9.96577C6.05073 9.84501 6.09098 9.46262 6.27916 9.40325C6.22302 9.38683 6.16341 9.38642 6.10704 9.40207C6.05068 9.41771 5.99981 9.44879 5.96016 9.4918Z" fill="#D9CFFF"/>
<path d="M7.12368 13.8037C7.12873 13.7972 7.13343 13.7905 7.13777 13.7836C7.16335 13.7401 7.17494 13.6899 7.17098 13.6397V13.6497C7.17305 13.5523 7.16936 13.4549 7.15991 13.3579L7.14381 13.0661C7.13475 12.8719 7.12066 12.6766 7.10658 12.4824H7.09249C7.07739 12.6766 7.06431 12.8719 7.05526 13.0661L7.04117 13.3297C7.03312 13.4505 6.99286 13.8329 6.80469 13.8922C6.86083 13.9087 6.92044 13.9091 6.97681 13.8934C7.03317 13.8778 7.08404 13.8467 7.12368 13.8037Z" fill="#D9CFFF"/>
<path d="M19.7319 9.94018C19.6987 9.81892 19.6963 9.6913 19.7249 9.56886C19.7523 9.44273 19.8084 9.32461 19.8889 9.2237C19.9683 9.12147 20.0721 9.04084 20.1908 8.98924C20.2484 8.96345 20.3089 8.94454 20.3709 8.93288C20.4321 8.92341 20.4942 8.92004 20.5561 8.92282C20.5037 8.95905 20.4494 8.98119 20.4001 9.01339C20.351 9.04222 20.3037 9.0738 20.2582 9.10798C20.1693 9.1707 20.09 9.24595 20.0227 9.33138C19.9568 9.41627 19.9013 9.50885 19.8577 9.6071C19.8094 9.7139 19.7684 9.82384 19.7349 9.93616" fill="#D9CFFF"/>
<path d="M21.3174 13.3594C21.3509 13.4805 21.3537 13.6082 21.3254 13.7307C21.2977 13.8569 21.2412 13.975 21.1604 14.0759C21.081 14.1781 20.9772 14.2587 20.8585 14.3103C20.8005 14.3358 20.7397 14.3544 20.6773 14.3657C20.6161 14.3751 20.5541 14.3785 20.4922 14.3757C20.5445 14.3395 20.5989 14.3174 20.6482 14.2852C20.6972 14.2563 20.7446 14.2247 20.7901 14.1906C20.8788 14.1266 20.9578 14.0499 21.0245 13.9632C21.0928 13.8776 21.1503 13.784 21.1956 13.6844C21.2434 13.5789 21.2841 13.4703 21.3174 13.3594" fill="#D9CFFF"/>
</svg>
