<svg xmlns="http://www.w3.org/2000/svg" xmlns:xlink="http://www.w3.org/1999/xlink" viewBox="0 0 2625.47 2565.5"><defs><style>.cls-1{fill:none;}.cls-2{fill:url(#linear-gradient);}.cls-3{fill:url(#linear-gradient-2);}.cls-4{isolation:isolate;}.cls-5{clip-path:url(#clip-path);}.cls-111,.cls-42,.cls-6{mix-blend-mode:soft-light;}.cls-7{clip-path:url(#clip-path-2);}.cls-8{fill:#fcfdfe;}.cls-9{clip-path:url(#clip-path-3);}.cls-10{fill:url(#linear-gradient-5);}.cls-11,.cls-12,.cls-41,.cls-42,.cls-54,.cls-66,.cls-74,.cls-96{opacity:0.3;}.cls-11,.cls-12,.cls-41,.cls-46,.cls-50,.cls-54,.cls-62,.cls-66,.cls-74,.cls-78,.cls-91,.cls-96{mix-blend-mode:multiply;}.cls-11{fill:url(#linear-gradient-6);}.cls-12{fill:url(#linear-gradient-7);}.cls-13{fill:url(#linear-gradient-8);}.cls-14{fill:url(#linear-gradient-9);}.cls-15{fill:url(#linear-gradient-10);}.cls-16{fill:url(#linear-gradient-11);}.cls-17{fill:url(#linear-gradient-12);}.cls-18{fill:url(#linear-gradient-13);}.cls-19{fill:url(#linear-gradient-14);}.cls-20{fill:url(#linear-gradient-15);}.cls-21{fill:url(#linear-gradient-16);}.cls-22{fill:url(#linear-gradient-17);}.cls-23{fill:url(#linear-gradient-18);}.cls-24{fill:url(#linear-gradient-19);}.cls-25{fill:url(#linear-gradient-20);}.cls-26{fill:url(#linear-gradient-21);}.cls-27{fill:url(#linear-gradient-22);}.cls-28{fill:url(#linear-gradient-23);}.cls-29{fill:url(#linear-gradient-24);}.cls-30{fill:url(#linear-gradient-25);}.cls-31{fill:url(#linear-gradient-26);}.cls-32{fill:url(#linear-gradient-27);}.cls-33{fill:url(#linear-gradient-28);}.cls-34{fill:url(#linear-gradient-29);}.cls-35{fill:url(#linear-gradient-30);}.cls-36{fill:url(#linear-gradient-31);}.cls-37{fill:url(#linear-gradient-32);}.cls-38{fill:url(#linear-gradient-33);}.cls-39{fill:url(#linear-gradient-34);}.cls-40{fill:url(#linear-gradient-35);}.cls-41{fill:url(#linear-gradient-36);}.cls-42{fill:url(#linear-gradient-37);}.cls-43{fill:#e28dde;}.cls-44{fill:url(#linear-gradient-38);}.cls-45{fill:url(#linear-gradient-39);}.cls-46{opacity:0.4;}.cls-47{fill:url(#linear-gradient-40);}.cls-48{fill:url(#linear-gradient-41);}.cls-49{fill:url(#linear-gradient-42);}.cls-50{fill:url(#linear-gradient-43);}.cls-51{fill:url(#linear-gradient-44);}.cls-52{fill:url(#linear-gradient-45);}.cls-53{fill:url(#linear-gradient-46);}.cls-54{fill:url(#linear-gradient-47);}.cls-55{fill:url(#linear-gradient-48);}.cls-56{fill:url(#linear-gradient-49);}.cls-57{fill:url(#linear-gradient-50);}.cls-58{fill:url(#linear-gradient-51);}.cls-59{fill:url(#linear-gradient-52);}.cls-60{fill:url(#linear-gradient-53);}.cls-111,.cls-61{fill:#fff;}.cls-62{opacity:0.2;}.cls-63{fill:url(#linear-gradient-54);}.cls-64{fill:url(#linear-gradient-55);}.cls-65{fill:url(#linear-gradient-56);}.cls-67{fill:url(#linear-gradient-58);}.cls-68{fill:url(#linear-gradient-59);}.cls-69{fill:url(#linear-gradient-60);}.cls-70{fill:url(#linear-gradient-61);}.cls-71{fill:url(#linear-gradient-62);}.cls-72{fill:url(#linear-gradient-63);}.cls-73{fill:url(#linear-gradient-64);}.cls-74{fill:url(#linear-gradient-65);}.cls-75{fill:url(#linear-gradient-66);}.cls-76{fill:url(#linear-gradient-67);}.cls-77{fill:url(#linear-gradient-68);}.cls-78{opacity:0.24;}.cls-79{fill:#552d63;}.cls-80{fill:url(#linear-gradient-69);}.cls-81{fill:url(#linear-gradient-70);}.cls-82{fill:url(#linear-gradient-71);}.cls-83{fill:url(#linear-gradient-72);}.cls-84{fill:url(#linear-gradient-73);}.cls-85{fill:url(#linear-gradient-74);}.cls-86{fill:url(#linear-gradient-75);}.cls-87{fill:url(#linear-gradient-76);}.cls-88{fill:url(#linear-gradient-77);}.cls-89{fill:url(#linear-gradient-78);}.cls-90{fill:url(#linear-gradient-79);}.cls-91{opacity:0.6;fill:url(#linear-gradient-80);}.cls-92{fill:url(#linear-gradient-81);}.cls-93{fill:url(#linear-gradient-82);}.cls-94{fill:url(#linear-gradient-83);}.cls-95{fill:url(#linear-gradient-84);}.cls-96{fill:url(#linear-gradient-85);}.cls-97{fill:url(#linear-gradient-86);}.cls-98{fill:url(#linear-gradient-87);}.cls-99{fill:url(#linear-gradient-88);}.cls-100{fill:url(#linear-gradient-89);}.cls-101{fill:#26264f;}.cls-102{fill:#444b8c;}.cls-103{fill:url(#linear-gradient-90);}.cls-104{fill:#1f1f44;}.cls-105{fill:url(#linear-gradient-91);}.cls-106{fill:url(#linear-gradient-92);}.cls-107{fill:url(#linear-gradient-93);}.cls-108{fill:url(#linear-gradient-94);}.cls-109{fill:url(#linear-gradient-95);}.cls-110{fill:url(#linear-gradient-96);}.cls-112{fill:url(#linear-gradient-97);}.cls-113{fill:url(#linear-gradient-98);}.cls-114{fill:url(#linear-gradient-99);}.cls-115{fill:url(#linear-gradient-100);}.cls-116{fill:url(#linear-gradient-101);}.cls-117{fill:url(#linear-gradient-102);}.cls-118{fill:url(#linear-gradient-103);}.cls-119{fill:url(#linear-gradient-104);}.cls-120{fill:url(#linear-gradient-105);}.cls-121{fill:url(#linear-gradient-106);}.cls-122{fill:url(#linear-gradient-107);}.cls-123{fill:url(#linear-gradient-108);}.cls-124{fill:url(#linear-gradient-109);}.cls-125{fill:url(#linear-gradient-110);}.cls-126{fill:url(#linear-gradient-111);}.cls-127{fill:url(#linear-gradient-112);}.cls-128{fill:url(#linear-gradient-113);}</style><linearGradient id="linear-gradient" x1="16903.06" y1="17648.84" x2="14946.56" y2="15590.17" gradientUnits="userSpaceOnUse"><stop offset="0" stop-color="#f36f56"/><stop offset="1" stop-color="#ffc444"/></linearGradient><linearGradient id="linear-gradient-2" x1="176.87" y1="1055.72" x2="1330.48" y2="1055.72" gradientUnits="userSpaceOnUse"><stop offset="0" stop-color="#e38ddd"/><stop offset="1" stop-color="#9571f6"/></linearGradient><clipPath id="clip-path" transform="translate(-61.78 11.14)"><rect class="cls-1" width="1298.13" height="1502.52"/></clipPath><clipPath id="clip-path-2" transform="translate(-61.78 11.14)"><path class="cls-2" d="M1226.85,2027.12c20.4,4.16,68.46-4.78,80-12.28,77-49.88,227.14-133.92,253.07-227.35,4.43-16-60.5-54.39-65.39-72.09-35.45-34.55-49.89-44.34-67.46-93.74-51.87-145.86,229.55-290.16,13.71-448.54-158.1-116-328.52-106.17-215.45-374.53S1291.77-45.22,935.93,47.24C731.72,100.31,820.87,391.9,676.18,535,538.69,671,562,829.62,702.44,987.48s21.58,201.65-82.25,340c-124.74,166.25,151.63,297.79,284.41,347.64C1011.52,1715.3,1256.69,1889.65,1226.85,2027.12Z"/></clipPath><clipPath id="clip-path-3" transform="translate(-61.78 11.14)"><path class="cls-3" d="M1136,1838.69c18-3.23,54.28-26.12,61.28-36,46.58-65.67,141.79-182.94,132.62-267.56-1.57-14.45-67-24.72-76.73-37.58-40.13-16.67-55.09-20-85.45-54.56-89.64-102.12,93.06-311.14-134.38-370.27-166.6-43.31-302.39,20-297.27-235.54S516.35,127.44,256.14,318.34c-149.33,109.55,18,318.44-53.55,482.1-68,155.53,2.5,277.35,168.26,360.52s83,157.46,43.27,304c-47.78,176.07,220.32,193.67,344.79,191.23C859.14,1654.26,1115.68,1716.89,1136,1838.69Z"/></clipPath><linearGradient id="linear-gradient-5" x1="818.31" y1="559.11" x2="1850.32" y2="2475.69" gradientUnits="userSpaceOnUse"><stop offset="0" stop-color="#444b8c"/><stop offset="1" stop-color="#26264f"/></linearGradient><linearGradient id="linear-gradient-6" x1="1132.53" y1="875.41" x2="1875.38" y2="875.41" gradientUnits="userSpaceOnUse"><stop offset="0" stop-color="#40447e"/><stop offset="1" stop-color="#3c3b6b"/></linearGradient><linearGradient id="linear-gradient-7" x1="1981.36" y1="1532.5" x2="2490.16" y2="1009.24" xlink:href="#linear-gradient-5"/><linearGradient id="linear-gradient-8" x1="896.64" y1="1299.94" x2="472.63" y2="609.98" xlink:href="#linear-gradient-5"/><linearGradient id="linear-gradient-9" x1="888.58" y1="1413.97" x2="1376.48" y2="1413.97" xlink:href="#linear-gradient-5"/><linearGradient id="linear-gradient-10" x1="1089.58" y1="1006.34" x2="1116.56" y2="1256.89" xlink:href="#linear-gradient-5"/><linearGradient id="linear-gradient-11" x1="1165.62" y1="1308.98" x2="1119.85" y2="1731.32" xlink:href="#linear-gradient-5"/><linearGradient id="linear-gradient-12" x1="1156.58" y1="1257.87" x2="1152.41" y2="1619.88" xlink:href="#linear-gradient-5"/><linearGradient id="linear-gradient-13" x1="1642.4" y1="1383.5" x2="2095.02" y2="1383.5" xlink:href="#linear-gradient-5"/><linearGradient id="linear-gradient-14" x1="1820.46" y1="927.63" x2="1847.44" y2="1178.18" xlink:href="#linear-gradient-5"/><linearGradient id="linear-gradient-15" x1="1910.44" y1="1278.58" x2="1864.67" y2="1700.92" xlink:href="#linear-gradient-5"/><linearGradient id="linear-gradient-16" x1="1901.4" y1="1227.47" x2="1897.24" y2="1589.48" xlink:href="#linear-gradient-5"/><linearGradient id="linear-gradient-17" x1="979.45" y1="609.26" x2="1071.96" y2="878.11" gradientUnits="userSpaceOnUse"><stop offset="0" stop-color="#aa80f9"/><stop offset="1" stop-color="#6165d7"/></linearGradient><linearGradient id="linear-gradient-18" x1="1798.65" y1="327.38" x2="1891.16" y2="596.24" xlink:href="#linear-gradient-17"/><linearGradient id="linear-gradient-19" x1="1037.01" y1="1174.08" x2="962.81" y2="1102.77" xlink:href="#linear-gradient-17"/><linearGradient id="linear-gradient-20" x1="895.77" y1="1321.04" x2="821.57" y2="1249.73" xlink:href="#linear-gradient-17"/><linearGradient id="linear-gradient-21" x1="895.47" y1="1321.35" x2="821.27" y2="1250.04" xlink:href="#linear-gradient-17"/><linearGradient id="linear-gradient-22" x1="1036.37" y1="1174.74" x2="962.17" y2="1103.43" xlink:href="#linear-gradient-17"/><linearGradient id="linear-gradient-23" x1="776.25" y1="945.48" x2="932.36" y2="1276.97" xlink:href="#linear-gradient-17"/><linearGradient id="linear-gradient-24" x1="661.65" y1="999.45" x2="817.76" y2="1330.94" xlink:href="#linear-gradient-17"/><linearGradient id="linear-gradient-25" x1="605.9" y1="1025.7" x2="762.01" y2="1357.2" xlink:href="#linear-gradient-17"/><linearGradient id="linear-gradient-26" x1="830.42" y1="919.97" x2="986.53" y2="1251.46" xlink:href="#linear-gradient-17"/><linearGradient id="linear-gradient-27" x1="2401.51" y1="1252.38" x2="1950.53" y2="516.16" xlink:href="#linear-gradient-5"/><linearGradient id="linear-gradient-28" x1="2608.59" y1="1176.57" x2="2507.41" y2="1075.39" xlink:href="#linear-gradient-17"/><linearGradient id="linear-gradient-29" x1="2431.75" y1="1353.41" x2="2330.57" y2="1252.22" xlink:href="#linear-gradient-17"/><linearGradient id="linear-gradient-30" x1="2434.34" y1="1350.81" x2="2333.16" y2="1249.63" xlink:href="#linear-gradient-17"/><linearGradient id="linear-gradient-31" x1="2604.64" y1="1180.52" x2="2503.46" y2="1079.34" xlink:href="#linear-gradient-17"/><linearGradient id="linear-gradient-32" x1="2282.82" y1="902.86" x2="2464.95" y2="1527.3" xlink:href="#linear-gradient-17"/><linearGradient id="linear-gradient-33" x1="2187.76" y1="930.59" x2="2369.89" y2="1555.03" xlink:href="#linear-gradient-17"/><linearGradient id="linear-gradient-34" x1="2079.2" y1="962.25" x2="2261.32" y2="1586.69" xlink:href="#linear-gradient-17"/><linearGradient id="linear-gradient-35" x1="2388.92" y1="871.92" x2="2571.04" y2="1496.36" xlink:href="#linear-gradient-17"/><linearGradient id="linear-gradient-36" x1="136.52" y1="926.22" x2="1168.53" y2="2842.81" xlink:href="#linear-gradient-5"/><linearGradient id="linear-gradient-37" x1="1132.53" y1="902.47" x2="1875.38" y2="902.47" xlink:href="#linear-gradient-17"/><linearGradient id="linear-gradient-38" x1="3464.37" y1="2187.23" x2="3510.15" y2="2457.75" gradientTransform="matrix(-1, 0, 0, 1, 5537.1, 0)" xlink:href="#linear-gradient-5"/><linearGradient id="linear-gradient-39" x1="-338.85" y1="2233.45" x2="-378.28" y2="2480.3" gradientTransform="translate(2438.85)" gradientUnits="userSpaceOnUse"><stop offset="0" stop-color="#311944"/><stop offset="1" stop-color="#a03976"/></linearGradient><linearGradient id="linear-gradient-40" x1="-211.09" y1="1170.17" x2="-398.51" y2="1837.58" gradientTransform="translate(2438.85)" gradientUnits="userSpaceOnUse"><stop offset="0" stop-color="#ff9085"/><stop offset="1" stop-color="#fb6fbb"/></linearGradient><linearGradient id="linear-gradient-41" x1="-511.75" y1="1496.95" x2="-479.18" y2="1602.66" xlink:href="#linear-gradient-40"/><linearGradient id="linear-gradient-42" x1="3393.11" y1="1633.94" x2="3359.45" y2="2465.51" gradientTransform="matrix(-1, 0, 0, 1, 5537.1, 0)" gradientUnits="userSpaceOnUse"><stop offset="0" stop-color="#ffc444"/><stop offset="1" stop-color="#f36f56"/></linearGradient><linearGradient id="linear-gradient-43" x1="-103.97" y1="1200.25" x2="-291.39" y2="1867.66" xlink:href="#linear-gradient-40"/><linearGradient id="linear-gradient-44" x1="3338.47" y1="1520.98" x2="2882.76" y2="1146.43" gradientTransform="matrix(-1, 0, 0, 1, 5537.1, 0)" xlink:href="#linear-gradient-40"/><linearGradient id="linear-gradient-45" x1="3626.64" y1="1517.41" x2="3462.41" y2="1393.66" gradientTransform="matrix(-1, 0, 0, 1, 5537.1, 0)" xlink:href="#linear-gradient-5"/><linearGradient id="linear-gradient-46" x1="-454.13" y1="1395.82" x2="-376.04" y2="1536.63" gradientTransform="translate(2438.85)" xlink:href="#linear-gradient-5"/><linearGradient id="linear-gradient-47" x1="3452.29" y1="1353.96" x2="3573.86" y2="1648.32" gradientTransform="matrix(-1, 0, 0, 1, 5537.1, 0)" xlink:href="#linear-gradient-5"/><linearGradient id="linear-gradient-48" x1="-257.02" y1="1041.62" x2="-290.69" y2="1873.19" gradientTransform="translate(2438.85)" xlink:href="#linear-gradient-42"/><linearGradient id="linear-gradient-49" x1="-436.38" y1="1280.26" x2="-470.05" y2="2111.84" gradientTransform="translate(2438.85)" xlink:href="#linear-gradient-42"/><linearGradient id="linear-gradient-50" x1="3456.22" y1="1064.5" x2="3420.43" y2="1170.93" gradientTransform="matrix(-1, 0, 0, 1, 5537.1, 0)" xlink:href="#linear-gradient-5"/><linearGradient id="linear-gradient-51" x1="-306.82" y1="1285.51" x2="-340.49" y2="2117.08" gradientTransform="translate(2438.85)" xlink:href="#linear-gradient-42"/><linearGradient id="linear-gradient-52" x1="2035.27" y1="372.54" x2="2293.08" y2="889.9" gradientTransform="matrix(1, 0, 0, 1, 0, 0)" xlink:href="#linear-gradient-42"/><linearGradient id="linear-gradient-53" x1="2186.88" y1="712.36" x2="2437.29" y2="1176.8" gradientTransform="matrix(1, 0, 0, 1, 0, 0)" xlink:href="#linear-gradient-42"/><linearGradient id="linear-gradient-54" x1="2118.11" y1="743.23" x2="2361.38" y2="1231.41" gradientTransform="matrix(1, 0, 0, 1, 0, 0)" xlink:href="#linear-gradient-42"/><linearGradient id="linear-gradient-55" x1="2159.45" y1="-127.56" x2="1622.88" y2="1213.87" gradientUnits="userSpaceOnUse"><stop offset="0" stop-color="#311944"/><stop offset="1" stop-color="#893976"/></linearGradient><linearGradient id="linear-gradient-56" x1="1822.39" y1="391.8" x2="2069.28" y2="849.7" gradientTransform="matrix(1, 0, 0, 1, 0, 0)" xlink:href="#linear-gradient-40"/><linearGradient id="linear-gradient-58" x1="-3209.78" y1="417.95" x2="-2967.78" y2="903.57" gradientTransform="matrix(-1, 0, 0, 1, -1188.04, 0)" xlink:href="#linear-gradient-40"/><linearGradient id="linear-gradient-59" x1="2175.32" y1="288.11" x2="2411.97" y2="344.02" xlink:href="#linear-gradient-55"/><linearGradient id="linear-gradient-60" x1="-3560.59" y1="223.86" x2="-3357.71" y2="600.15" gradientTransform="matrix(-1, 0, 0, 1, -1188.04, 0)" xlink:href="#linear-gradient-2"/><linearGradient id="linear-gradient-61" x1="-3620.06" y1="248.72" x2="-3421.24" y2="647.7" gradientTransform="matrix(-1, 0, 0, 1, -1188.04, 0)" xlink:href="#linear-gradient-40"/><linearGradient id="linear-gradient-62" x1="561.41" y1="1649.32" x2="1396.77" y2="3433.84" gradientTransform="translate(-73.9)" xlink:href="#linear-gradient-17"/><linearGradient id="linear-gradient-63" x1="945.13" y1="1914.94" x2="867.95" y2="2368.85" gradientTransform="translate(-73.9)" xlink:href="#linear-gradient-17"/><linearGradient id="linear-gradient-64" x1="561.41" y1="1649.32" x2="1396.77" y2="3433.85" gradientTransform="translate(-73.9)" xlink:href="#linear-gradient-17"/><linearGradient id="linear-gradient-65" x1="343.78" y1="2008.08" x2="1100.54" y2="2008.08" xlink:href="#linear-gradient-17"/><linearGradient id="linear-gradient-66" x1="-1586.44" y1="2098.49" x2="-1412.94" y2="2098.49" gradientTransform="matrix(0.66, -0.75, 0.75, 0.66, 995.3, -146.37)" xlink:href="#linear-gradient-6"/><linearGradient id="linear-gradient-67" x1="1602.93" y1="1929.53" x2="2999.2" y2="3378.49" gradientTransform="translate(-173.12 -71.56) rotate(5.62)" xlink:href="#linear-gradient-42"/><linearGradient id="linear-gradient-68" x1="617.26" y1="2096.49" x2="1475.14" y2="2552.15" gradientTransform="translate(-4.58 20.49) rotate(-3.5)" gradientUnits="userSpaceOnUse"><stop offset="0" stop-color="#311944"/><stop offset="1" stop-color="#6b3976"/></linearGradient><linearGradient id="linear-gradient-69" x1="292.42" y1="2300.61" x2="1070.32" y2="2156.08" gradientTransform="translate(-4.58 20.49) rotate(-3.5)" xlink:href="#linear-gradient-55"/><linearGradient id="linear-gradient-70" x1="850.57" y1="1854.15" x2="767.88" y2="2129.8" gradientTransform="matrix(1, 0, 0, 1, 0, 0)" xlink:href="#linear-gradient-42"/><linearGradient id="linear-gradient-71" x1="571.67" y1="2078.58" x2="225.49" y2="3337.02" gradientTransform="translate(-4.58 20.49) rotate(-3.5)" xlink:href="#linear-gradient-42"/><linearGradient id="linear-gradient-72" x1="618.16" y1="2219.73" x2="533.15" y2="1887.23" gradientTransform="translate(-4.58 20.49) rotate(-3.5)" xlink:href="#linear-gradient-42"/><linearGradient id="linear-gradient-73" x1="485.54" y1="2054.89" x2="139.37" y2="3313.33" gradientTransform="translate(-4.58 20.49) rotate(-3.5)" xlink:href="#linear-gradient-42"/><linearGradient id="linear-gradient-74" x1="577.79" y1="1793.18" x2="673.46" y2="1793.18" gradientTransform="matrix(1, 0, 0, 1, 0, 0)" xlink:href="#linear-gradient-42"/><linearGradient id="linear-gradient-75" x1="681.39" y1="2162.46" x2="894.63" y2="2162.46" gradientTransform="matrix(1, 0, 0, 1, 0, 0)" xlink:href="#linear-gradient-42"/><linearGradient id="linear-gradient-76" x1="1195.39" y1="1646.47" x2="1181.11" y2="1666.84" gradientTransform="translate(-306.25 -52.93) rotate(6.1)" xlink:href="#linear-gradient-42"/><linearGradient id="linear-gradient-77" x1="1169.4" y1="1678.75" x2="1197.07" y2="1621.87" gradientTransform="translate(-306.25 -52.93) rotate(6.1)" xlink:href="#linear-gradient-42"/><linearGradient id="linear-gradient-78" x1="1189.6" y1="1655.29" x2="1194.3" y2="1652.36" gradientTransform="matrix(1, 0, 0, 1, -489.85, 62.56)" xlink:href="#linear-gradient-42"/><linearGradient id="linear-gradient-79" x1="1193.88" y1="1640.04" x2="1179.52" y2="1657.06" gradientTransform="translate(2347.86 553.42) rotate(90)" xlink:href="#linear-gradient-42"/><linearGradient id="linear-gradient-80" x1="1164.64" y1="1664.35" x2="1182.09" y2="1664.35" gradientTransform="translate(-306.25 -52.93) rotate(6.1)" xlink:href="#linear-gradient-42"/><linearGradient id="linear-gradient-81" x1="-6780.38" y1="2645.68" x2="-6779.21" y2="2645.68" gradientTransform="matrix(-0.95, -0.31, -0.31, 0.95, 7221.47, 1094.58)" xlink:href="#linear-gradient-39"/><linearGradient id="linear-gradient-82" x1="-6780.25" y1="2676.84" x2="-6779.09" y2="2676.84" gradientTransform="matrix(-0.95, -0.31, -0.31, 0.95, 7221.47, 1094.58)" xlink:href="#linear-gradient-39"/><linearGradient id="linear-gradient-83" x1="1096.83" y1="1335.26" x2="1123.65" y2="1280.12" gradientTransform="matrix(1.03, 0.11, -0.12, 1.09, -329.99, 140.23)" xlink:href="#linear-gradient-42"/><linearGradient id="linear-gradient-84" x1="1115.01" y1="1266.47" x2="1109.23" y2="1285.66" gradientTransform="matrix(1.03, 0.11, -0.12, 1.09, -329.99, 140.23)" xlink:href="#linear-gradient-42"/><linearGradient id="linear-gradient-85" x1="1115.04" y1="1266.38" x2="1109.24" y2="1285.61" gradientTransform="matrix(1.03, 0.11, -0.12, 1.09, -329.99, 140.23)" xlink:href="#linear-gradient-42"/><linearGradient id="linear-gradient-86" x1="1087.75" y1="1663.82" x2="1120.2" y2="1663.82" gradientTransform="translate(-306.25 -52.93) rotate(6.1)" xlink:href="#linear-gradient-42"/><linearGradient id="linear-gradient-87" x1="1090.89" y1="1669.58" x2="1064.84" y2="1684.74" gradientTransform="translate(2275.22 617.75) rotate(90)" xlink:href="#linear-gradient-42"/><linearGradient id="linear-gradient-88" x1="1072.38" y1="1663.82" x2="1108.05" y2="1663.82" gradientTransform="translate(-306.25 -52.93) rotate(6.1)" xlink:href="#linear-gradient-42"/><linearGradient id="linear-gradient-89" x1="1072.38" y1="1663.37" x2="1093.83" y2="1663.37" gradientTransform="translate(-306.25 -52.93) rotate(6.1)" xlink:href="#linear-gradient-42"/><linearGradient id="linear-gradient-90" x1="717.94" y1="2083.93" x2="997.05" y2="2083.93" gradientTransform="translate(-4.58 20.49) rotate(-3.5)" xlink:href="#linear-gradient-6"/><linearGradient id="linear-gradient-91" x1="13.77" y1="2256.98" x2="152.4" y2="2256.98" gradientTransform="translate(413.99 52.78) rotate(-22.13)" xlink:href="#linear-gradient-6"/><linearGradient id="linear-gradient-92" x1="1127.19" y1="2127.15" x2="2523.53" y2="3576.18" gradientTransform="translate(-4.58 20.49) rotate(-3.5)" xlink:href="#linear-gradient-42"/><linearGradient id="linear-gradient-93" x1="547.77" y1="2226.25" x2="1187.28" y2="2163.91" xlink:href="#linear-gradient-68"/><linearGradient id="linear-gradient-94" x1="301.89" y1="2351.53" x2="1079.79" y2="2207" gradientTransform="translate(-4.58 20.49) rotate(-3.5)" xlink:href="#linear-gradient-55"/><linearGradient id="linear-gradient-95" x1="579.35" y1="2250.14" x2="1049.98" y2="2149.56" xlink:href="#linear-gradient-68"/><linearGradient id="linear-gradient-96" x1="2946.64" y1="1187.23" x2="3255.22" y2="1512.52" gradientTransform="matrix(-1, 0, 0, 1, 4913.57, 11.14)" xlink:href="#linear-gradient-17"/><linearGradient id="linear-gradient-97" x1="3145.5" y1="1222.91" x2="3271.22" y2="1355.45" gradientTransform="matrix(-1, 0, 0, 1, 4913.57, 11.14)" xlink:href="#linear-gradient-17"/><linearGradient id="linear-gradient-98" x1="3109.14" y1="1213.12" x2="2956.35" y2="1360.3" gradientTransform="matrix(-1, 0, 0, 1, 4913.57, 11.14)" xlink:href="#linear-gradient-17"/><linearGradient id="linear-gradient-99" x1="3116.07" y1="1228.5" x2="2969.64" y2="1369.54" gradientTransform="matrix(-1, 0, 0, 1, 4913.57, 11.14)" xlink:href="#linear-gradient-17"/><linearGradient id="linear-gradient-100" x1="3122.95" y1="1242.61" x2="2982.42" y2="1377.98" gradientTransform="matrix(-1, 0, 0, 1, 4913.57, 11.14)" xlink:href="#linear-gradient-17"/><linearGradient id="linear-gradient-101" x1="3129.77" y1="1255.61" x2="2994.72" y2="1385.71" gradientTransform="matrix(-1, 0, 0, 1, 4913.57, 11.14)" xlink:href="#linear-gradient-17"/><linearGradient id="linear-gradient-102" x1="1123.16" y1="1753.69" x2="1425.47" y2="2072.39" gradientTransform="translate(-270.05 11.14)" xlink:href="#linear-gradient-42"/><linearGradient id="linear-gradient-103" x1="1324.49" y1="1783.32" x2="1454.78" y2="1920.67" gradientTransform="translate(-270.05 11.14)" xlink:href="#linear-gradient-42"/><linearGradient id="linear-gradient-104" x1="3993.37" y1="1841.24" x2="4013.76" y2="1841.24" gradientTransform="matrix(-1, 0, 0, 1, 4913.57, 11.14)" xlink:href="#linear-gradient-42"/><linearGradient id="linear-gradient-105" x1="1266.91" y1="1780.98" x2="1120.66" y2="1921.86" gradientTransform="translate(-270.05 11.14)" xlink:href="#linear-gradient-42"/><linearGradient id="linear-gradient-106" x1="1277.02" y1="1794.05" x2="1134.24" y2="1931.58" gradientTransform="translate(-270.05 11.14)" xlink:href="#linear-gradient-42"/><linearGradient id="linear-gradient-107" x1="1287.01" y1="1806.48" x2="1147.56" y2="1940.81" gradientTransform="translate(-270.05 11.14)" xlink:href="#linear-gradient-42"/><linearGradient id="linear-gradient-108" x1="1296.88" y1="1818.32" x2="1160.62" y2="1949.57" gradientTransform="translate(-270.05 11.14)" xlink:href="#linear-gradient-42"/><linearGradient id="linear-gradient-109" x1="-5660.05" y1="-162.92" x2="-6480.25" y2="1887.57" gradientTransform="translate(6787.37 -269.63) rotate(-0.89)" xlink:href="#linear-gradient-55"/><linearGradient id="linear-gradient-110" x1="-6167.83" y1="621.96" x2="-5791.08" y2="1320.72" gradientTransform="translate(6787.37 -269.63) rotate(-0.89)" xlink:href="#linear-gradient-40"/><linearGradient id="linear-gradient-111" x1="-6398.25" y1="194.59" x2="-6021.5" y2="893.35" gradientTransform="translate(6787.37 -269.63) rotate(-0.89)" xlink:href="#linear-gradient-40"/><linearGradient id="linear-gradient-112" x1="-5265.83" y1="-94.82" x2="-4913.1" y2="559.39" gradientTransform="translate(5862.54 -343.89) rotate(-9.81)" xlink:href="#linear-gradient-40"/><linearGradient id="linear-gradient-113" x1="-6269.73" y1="660.82" x2="-5897.67" y2="1407.46" gradientTransform="translate(6787.37 -269.63) rotate(-0.89)" xlink:href="#linear-gradient-40"/></defs><g class="cls-4"><g id="Layer_2" data-name="Layer 2"><g id="Illustration"><g class="cls-5"><g class="cls-6"><path class="cls-2" d="M1226.85,2027.12c20.4,4.16,68.46-4.78,80-12.28,77-49.88,227.14-133.92,253.07-227.35,4.43-16-60.5-54.39-65.39-72.09-35.45-34.55-49.89-44.34-67.46-93.74-51.87-145.86,229.55-290.16,13.71-448.54-158.1-116-328.52-106.17-215.45-374.53S1291.77-45.22,935.93,47.24C731.72,100.31,820.87,391.9,676.18,535,538.69,671,562,829.62,702.44,987.48s21.58,201.65-82.25,340c-124.74,166.25,151.63,297.79,284.41,347.64C1011.52,1715.3,1256.69,1889.65,1226.85,2027.12Z" transform="translate(-61.78 11.14)"/><g class="cls-7"><path class="cls-8" d="M1428.27,1908.22l3.12-3.14C948,1423.94,802.38,708.12,1042-9.73l-4.2-1.41C924.22,329.08,896.53,682.33,957.7,1010.44,1022,1355.38,1184.72,1665.83,1428.27,1908.22Z" transform="translate(-61.78 11.14)"/><path class="cls-8" d="M560.42,1390.67C747,1393,1028,1487.46,1186.89,1601.22l2.58-3.6c-159.53-114.21-441.69-209-629-211.38Z" transform="translate(-61.78 11.14)"/><path class="cls-8" d="M1334.45,1812.68l3.87-2.15c-49.32-88.8-51.85-199.13-7.52-327.91,32.51-94.43,89-196.4,167.86-303.08l-3.56-2.63c-79.15,107-135.84,209.41-168.49,304.27C1281.86,1611.2,1284.49,1722.73,1334.45,1812.68Z" transform="translate(-61.78 11.14)"/><path class="cls-8" d="M950.82,963.53l4-1.95c-84.35-172.17-260.27-270.68-393-323l-1.62,4.12C692.18,694.74,867.1,792.63,950.82,963.53Z" transform="translate(-61.78 11.14)"/><path class="cls-8" d="M929.93,525.14l4.28,1.12c54.94-208.88,233.66-348.39,335.3-412.95l-2.37-3.74C1165,174.48,985.25,314.79,929.93,525.14Z" transform="translate(-61.78 11.14)"/></g></g><g class="cls-6"><path class="cls-3" d="M1136,1838.69c18-3.23,54.28-26.12,61.28-36,46.58-65.67,141.79-182.94,132.62-267.56-1.57-14.45-67-24.72-76.73-37.58-40.13-16.67-55.09-20-85.45-54.56-89.64-102.12,93.06-311.14-134.38-370.27-166.6-43.31-302.39,20-297.27-235.54S516.35,127.44,256.14,318.34c-149.33,109.55,18,318.44-53.55,482.1-68,155.53,2.5,277.35,168.26,360.52s83,157.46,43.27,304c-47.78,176.07,220.32,193.67,344.79,191.23C859.14,1654.26,1115.68,1716.89,1136,1838.69Z" transform="translate(-61.78 11.14)"/><g class="cls-9"><path class="cls-8" d="M1261.65,1676.35l1.52-3.57c-550.42-235.52-901.47-772.09-939-1435.32l-3.89.22C338.05,552,430.12,849.1,586.49,1096.85,750.88,1357.31,984.34,1557.7,1261.65,1676.35Z" transform="translate(-61.78 11.14)"/><path class="cls-8" d="M385.87,1535.9c152.9-58.64,412.76-72.81,579.28-31.6l.93-3.77c-167.17-41.38-428.08-27.14-581.6,31.73Z" transform="translate(-61.78 11.14)"/><path class="cls-8" d="M1154.12,1628.88l2.46-3c-69-56.42-106.91-145.58-112.55-265-4.14-87.57,8.83-189.06,38.54-301.67l-3.76-1c-29.81,113-42.82,214.88-38.66,302.84C1045.84,1481.62,1084.19,1571.73,1154.12,1628.88Z" transform="translate(-61.78 11.14)"/><path class="cls-8" d="M565.66,1060.82l2.61-2.88C443.59,944.89,268.15,921.64,142.93,922v3.89C267.48,925.53,441.91,948.61,565.66,1060.82Z" transform="translate(-61.78 11.14)"/><path class="cls-8" d="M406.34,710.05l3.86-.47c-23-188.2,77.5-360,139.45-445.62l-3.15-2.28C484.22,347.79,383.2,520.54,406.34,710.05Z" transform="translate(-61.78 11.14)"/></g></g></g><path class="cls-10" d="M2680.73,1726.78,2497.66,835.56c-36.34-176.93-205.56-285.71-373.17-237.14l-75.74,22a303,303,0,0,1-83.7,12l-169.12.37L1100,634.2l-183.26.39a352.14,352.14,0,0,1-92.92-12.28l-85.4-23.13C544.86,546.75,342.75,666,298.43,862L70.12,1871.92c-38.18,168.9,57.82,330.34,222.67,376.68h0c183.37,51.55,381.47-63.12,432-247l78.39-285.61c16.26-59.25,69.72-102.19,130.38-105l1016.3-46.78c55-2.53,102.9,33.51,117.4,88l69.31,260.46c44.15,165.87,213.74,246.12,365.74,175.58h0C2635,2026.6,2710.68,1872.6,2680.73,1726.78Z" transform="translate(-61.78 11.14)"/><path class="cls-11" d="M1790.09,1102.45,1224,1118.25c-50.4,1.41-91.45-45.14-91.45-104V634.38l742.85-1.84V997.68C1875.38,1054.23,1837.29,1101.14,1790.09,1102.45Z" transform="translate(-61.78 11.14)"/><path class="cls-12" d="M2254.21,1863.41c-1.78-66.5,29.89-100.75,23.13-202.37-3.17-47.51-12.15-182.55-101.19-251.51-85.29-66.06-203.15-39.78-355.58-5.78-196.41,43.8-188.8,90.84-326.67,109.85-201,27.72-272.67-64.61-419.19-17.34-73.05,23.56-128.81,70.28-170.69,119.41a137,137,0,0,1,29.5-4.71l1016.3-46.78c55-2.53,102.9,33.51,117.4,88l69.31,260.46c35.83,134.6,154.26,212.81,278.86,199.82C2287.86,2011.61,2255.9,1926.75,2254.21,1863.41Z" transform="translate(-61.78 11.14)"/><path class="cls-13" d="M1031.64,1011.9c0,165.11-135.12,303.36-304.08,308.85-171.52,5.58-312.5-127.39-312.5-297.07s141-308,312.5-309C896.52,713.71,1031.64,846.79,1031.64,1011.9Z" transform="translate(-61.78 11.14)"/><path class="cls-14" d="M1376.48,1404.86c0,133.46-107.36,246.84-241.26,253.32-135.54,6.55-246.64-98.67-246.64-235.1s111.1-249.95,246.64-253.52C1269.12,1166,1376.48,1271.4,1376.48,1404.86Z" transform="translate(-61.78 11.14)"/><path class="cls-15" d="M1330,1406.59c0,107.74-86.77,199.09-194.76,204.08-109.06,5-198.25-79.73-198.25-189.4s89.19-201.1,198.25-204.21C1243.21,1214,1330,1298.86,1330,1406.59Z" transform="translate(-61.78 11.14)"/><path class="cls-16" d="M1291.43,1408.77c0,75-60.37,138.8-135.67,142.45-76.21,3.68-138.69-55.49-138.69-132.2s62.48-140.56,138.69-142.56C1231.06,1274.47,1291.43,1333.72,1291.43,1408.77Z" transform="translate(-61.78 11.14)"/><path class="cls-17" d="M1265.28,1409.75c0,60.58-48.79,112-109.52,114.75-61.32,2.84-111.48-44.83-111.48-106.5s50.16-113.09,111.48-114.83C1216.49,1301.44,1265.28,1349.16,1265.28,1409.75Z" transform="translate(-61.78 11.14)"/><path class="cls-18" d="M2095,1375c0,128.6-99.66,237.66-223.91,243.67-125.71,6.09-228.71-95.41-228.71-226.77s103-240.54,228.71-243.85C1995.36,1144.83,2095,1246.45,2095,1375Z" transform="translate(-61.78 11.14)"/><path class="cls-19" d="M2051.85,1376.66c0,103.8-80.54,191.67-180.74,196.3-101.15,4.68-183.85-77.1-183.85-182.69s82.7-193.54,183.85-196.42C1971.31,1191,2051.85,1272.85,2051.85,1376.66Z" transform="translate(-61.78 11.14)"/><path class="cls-20" d="M2036.25,1378.37c0,75.05-60.37,138.81-135.66,142.45-76.22,3.68-138.69-55.48-138.69-132.2s62.47-140.56,138.69-142.56C1975.88,1244.08,2036.25,1303.33,2036.25,1378.37Z" transform="translate(-61.78 11.14)"/><path class="cls-21" d="M2010.1,1379.35c0,60.58-48.79,112-109.51,114.75-61.33,2.84-111.48-44.83-111.48-106.5s50.15-113.08,111.48-114.83C1961.31,1271,2010.1,1318.77,2010.1,1379.35Z" transform="translate(-61.78 11.14)"/><path class="cls-22" d="M1031.7,831.32h0A37.12,37.12,0,0,1,994,794.18v-66a37.83,37.83,0,0,1,37.66-37.73h0a37.26,37.26,0,0,1,37.54,37.25v65.78A38,38,0,0,1,1031.7,831.32Z" transform="translate(-61.78 11.14)"/><path class="cls-23" d="M1945.18,820.27h0c-19,.21-34.33-15.67-34.33-35.48v-63c0-19.8,15.38-35.93,34.33-36h0c18.91-.08,34.22,15.84,34.22,35.58v62.82C1979.4,803.89,1964.09,820.06,1945.18,820.27Z" transform="translate(-61.78 11.14)"/><path class="cls-24" d="M759.89,798.17l-64.75.61c-19.09.18-34.58,15.52-34.58,34.27v73.69a33.06,33.06,0,0,0,5.78,18.69l29.28,42.82a34,34,0,0,0,28.73,14.64l6.42-.11a35.2,35.2,0,0,0,28.64-15.61l29.05-43.57a33.86,33.86,0,0,0,5.71-18.75V831.6A33.63,33.63,0,0,0,759.89,798.17Z" transform="translate(-61.78 11.14)"/><path class="cls-25" d="M759.89,1236l-64.75,1.87c-19.09.55-34.58-14.2-34.58-33v-73.69a34.1,34.1,0,0,1,5.78-18.91l29.28-43.94a35.51,35.51,0,0,1,28.73-15.74l6.42-.13A33.71,33.71,0,0,1,759.41,1067l29.05,42.46a32.82,32.82,0,0,1,5.71,18.53v73.26C794.17,1219.92,778.83,1235.47,759.89,1236Z" transform="translate(-61.78 11.14)"/><path class="cls-26" d="M502.35,989.86v64.3c0,18.88,15.71,33.84,35.06,33.41l75.74-1.66a35.88,35.88,0,0,0,19.22-6.1l44.22-29.7A34.53,34.53,0,0,0,692,1021.55v-6.33a33.06,33.06,0,0,0-15.44-28l-44.22-28a34.91,34.91,0,0,0-19.22-5.36l-75.74,1.23C518.06,955.42,502.35,971,502.35,989.86Z" transform="translate(-61.78 11.14)"/><path class="cls-27" d="M948.37,982v63a34.57,34.57,0,0,1-33.81,34.26l-73.74,1.63a33.91,33.91,0,0,1-18.86-5.21L778.3,1048A32.87,32.87,0,0,1,763,1020.19v-6.31a34.37,34.37,0,0,1,15.32-28.43L822,956.13a34.84,34.84,0,0,1,18.86-5.93l73.74-1.2A33,33,0,0,1,948.37,982Z" transform="translate(-61.78 11.14)"/><path class="cls-28" d="M774.35,801.38l-64.76.61c-19.08.18-34.58,15.52-34.58,34.27V910a33.06,33.06,0,0,0,5.78,18.69l29.28,42.81A34,34,0,0,0,738.8,986.1l6.43-.11a35.28,35.28,0,0,0,28.64-15.61l29-43.57a33.78,33.78,0,0,0,5.71-18.75V834.8A33.62,33.62,0,0,0,774.35,801.38Z" transform="translate(-61.78 11.14)"/><path class="cls-29" d="M774.35,1239.22l-64.76,1.87c-19.08.55-34.58-14.21-34.58-33v-73.69a34.12,34.12,0,0,1,5.78-18.91l29.28-43.93a35.48,35.48,0,0,1,28.73-15.74l6.43-.14a33.77,33.77,0,0,1,28.64,14.52l29,42.46a32.72,32.72,0,0,1,5.71,18.53v73.25C808.62,1223.12,793.29,1238.67,774.35,1239.22Z" transform="translate(-61.78 11.14)"/><path class="cls-30" d="M516.8,993.07v64.3c0,18.88,15.71,33.84,35.07,33.41l75.74-1.67a35.92,35.92,0,0,0,19.21-6.09l44.22-29.7a34.54,34.54,0,0,0,15.45-28.56v-6.33a33,33,0,0,0-15.45-28l-44.22-28a34.79,34.79,0,0,0-19.21-5.36l-75.74,1.23C532.51,958.63,516.8,974.19,516.8,993.07Z" transform="translate(-61.78 11.14)"/><path class="cls-31" d="M962.82,985.18v63A34.56,34.56,0,0,1,929,1082.48l-73.73,1.62a33.8,33.8,0,0,1-18.87-5.21l-43.65-27.65a32.9,32.9,0,0,1-15.33-27.85v-6.3a34.37,34.37,0,0,1,15.33-28.43l43.65-29.33a34.9,34.9,0,0,1,18.87-5.93L929,952.21A33,33,0,0,1,962.82,985.18Z" transform="translate(-61.78 11.14)"/><path class="cls-32" d="M1973.1,992.26c0,157.48,121.47,281.19,269.42,276.37,145.89-4.74,262.68-133,262.68-286.54s-116.79-277.33-262.68-276.5C2094.57,706.43,1973.1,834.78,1973.1,992.26Z" transform="translate(-61.78 11.14)"/><path class="cls-33" d="M2310.07,809.56c0,39.48-30.19,71.91-67.55,72.44s-68-31.26-68-71,30.49-72.17,68-72.44S2310.07,770.07,2310.07,809.56Z" transform="translate(-61.78 11.14)"/><path class="cls-34" d="M2310.07,1162.08c0,39.49-30.19,72.43-67.55,73.58s-68-30.11-68-69.84,30.49-72.69,68-73.6S2310.07,1122.6,2310.07,1162.08Z" transform="translate(-61.78 11.14)"/><path class="cls-35" d="M2074.09,918c38-.59,68.64,31.19,68.64,71s-30.68,72.75-68.64,73.6-69.08-30.92-69.08-71S2036,918.63,2074.09,918Z" transform="translate(-61.78 11.14)"/><path class="cls-36" d="M2408.29,912.79c36.77-.57,66.48,30.71,66.48,69.88s-29.71,71.6-66.48,72.43-66.91-30.46-66.91-69.88S2371.39,913.37,2408.29,912.79Z" transform="translate(-61.78 11.14)"/><path class="cls-37" d="M2324.52,812.76c0,39.48-30.18,71.92-67.54,72.44s-68-31.25-68-71,30.49-72.17,68-72.45S2324.52,773.28,2324.52,812.76Z" transform="translate(-61.78 11.14)"/><path class="cls-38" d="M2324.52,1165.29c0,39.48-30.18,72.42-67.54,73.58s-68-30.11-68-69.85,30.49-72.68,68-73.59S2324.52,1125.81,2324.52,1165.29Z" transform="translate(-61.78 11.14)"/><path class="cls-39" d="M2088.55,921.24c38-.6,68.63,31.18,68.63,71s-30.67,72.75-68.63,73.61-69.09-30.92-69.09-71S2050.45,921.83,2088.55,921.24Z" transform="translate(-61.78 11.14)"/><path class="cls-40" d="M2422.74,916c36.77-.58,66.49,30.71,66.49,69.88s-29.72,71.59-66.49,72.42-66.91-30.45-66.91-69.87S2385.84,916.58,2422.74,916Z" transform="translate(-61.78 11.14)"/><path class="cls-41" d="M380.89,2135.15c5.79-73.16,104.3-84.05,124.31-176.34,27.43-126.52-139.32-190.71-124.31-326.68,14.68-133,187-188,161.89-268.85-12.48-40.14-57.34-34.1-118.52-89.62-86-78.05-105.57-188.19-109.86-219.71-26.69-196.2,130.56-343.42,159-370a508.53,508.53,0,0,1,147.76-96.13C469.47,598.32,333.77,705.68,298.43,862L70.12,1871.92c-38.18,168.9,57.82,330.33,222.67,376.68h0a336.15,336.15,0,0,0,156.71,5.75C391.84,2204.51,378.52,2165.08,380.89,2135.15Z" transform="translate(-61.78 11.14)"/><path class="cls-42" d="M1670.24,973c-82-45.28-130.67,8.69-190.19-32.36-69.4-47.87-26.28-137.16-96-190.24-58.73-44.71-114.9-.84-199.77-34.17a210,210,0,0,1-51.74-29.57v327.61c0,58.84,41,105.39,91.45,104l566.11-15.8a74.6,74.6,0,0,0,33.51-9.13,233.85,233.85,0,0,1-40.11-18.81C1723.58,1039.09,1725.48,1003.49,1670.24,973Z" transform="translate(-61.78 11.14)"/><path class="cls-43" d="M2151.77,1660.39c-55.69-27.2-164.33,71.32-217.2,165.69-21.06,37.6-45.8,81.75-39.73,134.24,10.76,93.06,114,174.68,256.07,201.93l12-42.85c-15.54-16.18-38.77-39.54-68.46-66.31-45.61-41.11-55-43.85-57.17-56.83-7.16-42.51,102.17-78.1,141-152.85C2211.77,1779.14,2194.56,1681.29,2151.77,1660.39Z" transform="translate(-61.78 11.14)"/><path class="cls-44" d="M2078.6,2408.3s9.14,22.56,4.6,31.39c-4.78,9.28-18.58,6.52-57.43,8-39.79,1.49-48.79,4.69-50.38.69-3.18-8,27.74-33.36,63.9-40.06A110,110,0,0,1,2078.6,2408.3Z" transform="translate(-61.78 11.14)"/><path class="cls-45" d="M2070.41,2374.58l-21.64,33.72s10,9.84,26.91,6.17l23.8-31.94Z" transform="translate(-61.78 11.14)"/><g class="cls-46"><path class="cls-43" d="M2178.33,1843.41c33.44-64.27,16.23-162.12-26.56-183-11.22-5.48-24.61-5.79-39.24-2.12,7.71,22.24,6.18,38.32,2.38,49.71-16.95,50.81-90.24,45-113.14,102.86-14.47,36.55,8.54,54.69-12,84-21.29,30.37-56.1,25.28-66.85,54.86-8,22,7.78,34.57,1.71,53.14-1.69,5.17-5,10.37-10.64,15.3,37.66,67.72,125.28,122.71,236.92,144.12l12-42.85c-15.54-16.18-38.77-39.54-68.46-66.31-45.61-41.11-55-43.85-57.17-56.83C2030.12,1953.75,2139.45,1918.16,2178.33,1843.41Z" transform="translate(-61.78 11.14)"/></g><path class="cls-43" d="M2113.77,1680.56c2.41,97.4,1.05,202.71-6,314.82a3600.27,3600.27,0,0,1-46.5,392.81l27.48,8.74c94.24-91.81,122.43-172.58,130.15-230.68,5.46-41.07-2.8-44.6,4.57-96,14-97.88,50.61-131.4,76.31-223,9.64-34.39,20.38-86.35,19.69-154.08Z" transform="translate(-61.78 11.14)"/><path class="cls-47" d="M2046.26,1506.09c1.71.39,9.14,2.87,12.08,33.9,7.08,74.83-31.88,105.13-22.29,145.71,9.21,39,56.18,57.85,104.52,77.3,32.3,13,132.22,53.21,190.32,8,24.46-19,27.13-42,44.58-126.44,44.33-214.54,61.5-233,42.85-279.42-32-79.76-117.73-112.79-132-118.28-152.07-58.6-331.65,49.1-402.61,172.82-9.35,16.29-65.15,113.59-25.94,159.74,23.72,27.92,78.22,32.42,114.2,13.39C2020,1567.37,2030.25,1502.42,2046.26,1506.09Z" transform="translate(-61.78 11.14)"/><path class="cls-48" d="M1880.06,1562.84a3.43,3.43,0,0,1-3.12-4.85c1.3-2.85,32.69-70.22,105.23-96.8a3.42,3.42,0,1,1,2.36,6.43c-69.77,25.57-101,92.55-101.35,93.22A3.42,3.42,0,0,1,1880.06,1562.84Z" transform="translate(-61.78 11.14)"/><path class="cls-49" d="M2164.85,1485.9c-.4-3.1-3.54-24.47-21.39-31.32-8.88-3.41-24.48-4.4-30.56,5.34-3.81,6.13-3.48,15.86,1.53,20.63,6.33,6,14.59-1.14,26,3.82,13.68,6,15.9,22.49,20.63,21.39C2164.74,1504.89,2165.91,1494.07,2164.85,1485.9Z" transform="translate(-61.78 11.14)"/><path class="cls-50" d="M2318.9,1337.71c-9.6,26.13,19.2,48.77,6.86,77.14-17.69,40.66-88,19.79-113.14,60-29.79,47.65,38.43,125.81,10.28,152.57-12.82,12.19-27.64-3.43-65.14,5.14-53.4,12.2-69.44,54.39-94.28,48-7.81-2-17.28-9.11-25.25-30.94-3.47,12.11-5.12,23.61-2.18,36.08,9.21,39,56.18,57.85,104.52,77.3,32.3,13,132.22,53.21,190.32,8,24.46-19,27.13-42,44.58-126.44,44.33-214.54,61.5-233,42.85-279.42-10.16-25.32-25.74-45.92-42.73-62.44C2339,1310.79,2323.92,1324,2318.9,1337.71Z" transform="translate(-61.78 11.14)"/><path class="cls-51" d="M2166,1465.76c4.1,3.73,50.11,53.14,100.15,40.63,43.59-10.9,70.35-53.28,75-88.93,11.15-84.8-99.32-156-85.71-173.14,8-10.09,50.67,8.64,80.57,27.43,24.52,15.41,127.27,80,124.51,188.22-.28,11-2.05,80.6-48.12,115.35-62.22,46.92-158.39,45.67-261.12-67.76Z" transform="translate(-61.78 11.14)"/><path class="cls-52" d="M1941.35,1361.86l49.53,158.23a12.82,12.82,0,0,0,11.78,9l64.77,9.42a12.81,12.81,0,0,0,13-15.53l-43.67-162a12.81,12.81,0,0,0-12.13-10.09l-70.62-5.69A12.81,12.81,0,0,0,1941.35,1361.86Z" transform="translate(-61.78 11.14)"/><path class="cls-53" d="M1943.72,1367.06l48.08,153.57a12.44,12.44,0,0,0,11.43,8.72l56.92,9.14a12.44,12.44,0,0,0,12.59-15.07l-42.66-157.28a12.44,12.44,0,0,0-11.77-9.8l-62.33-5.42A12.44,12.44,0,0,0,1943.72,1367.06Z" transform="translate(-61.78 11.14)"/><path class="cls-54" d="M2072.74,1523.42,2032,1373.15a55,55,0,0,0-11.49,7.32c-16.06,13.77-25.25,38.7-20,58.63,6.76,25.42,32.69,26.21,36.28,47.36,2.81,16.56-10.62,34.08-21.71,44.8l45,7.23A12.44,12.44,0,0,0,2072.74,1523.42Z" transform="translate(-61.78 11.14)"/><path class="cls-55" d="M2144.57,1223.21a22.45,22.45,0,0,1-16.28,28c-15,3.63-33.3,8.64-41.2,13.15-14.5,8.3,44.16-1.28,98.11-2.55,33.68-.79,58.85-4.57,73-7.3a3.74,3.74,0,0,0,.41-7.23c-13.48-4.39-35.4-10.85-53.92-13.17-22.93-2.89-47.53-53.49-47.53-53.49l-19.65,17.85Z" transform="translate(-61.78 11.14)"/><path class="cls-56" d="M1971.24,1474.6l3-4.94a21.17,21.17,0,0,1,23.08-15.68l15.9,2a8.54,8.54,0,0,1,7.31,10.25c-1.48,7.09-5.28,15.58-15,14.92-16.59-1.12-27.19,23.06-27.19,23.06l-6.37-9A18.72,18.72,0,0,1,1971.24,1474.6Z" transform="translate(-61.78 11.14)"/><path class="cls-57" d="M2100.77,1197.27c-16.95-2.51-35.94-16.76-35.57-28.53.5-16.18,37.5-25,56.17-29.52s26.69-2.86,32.05,1.22,9.08,11.64,10.25,18.08c.65,3.5.68,8.33.08,18-.53,8.54-.38,8.17-.6,10.69-.53,6.06-2.18,16.72-8.09,31.49a77.38,77.38,0,0,0-9.83-9.1,68.26,68.26,0,0,0-15-8.82C2118.05,1195.81,2111.05,1198.8,2100.77,1197.27Z" transform="translate(-61.78 11.14)"/><path class="cls-58" d="M2164.08,1202.18s-1.1,23.62-23.35,34c-19.92,9.28-46.36-32.31-39.09-48.19,2.43-5.3,9.94-11.06,17.64-12.85,4.55-1,6.78-.15,14.18-2,6.82-1.73,8.15-3.31,10.78-2.78,3.3.66,7.5,4.41,10.64,19.08,1.63-5.72,5.26-9.56,9.18-9.79a7.4,7.4,0,0,1,3.93,1.09C2173.38,1184.16,2172.33,1192.92,2164.08,1202.18Z" transform="translate(-61.78 11.14)"/><path class="cls-59" d="M2441.78,837.66c0-89.4-82.47-159.19-180.69-156-55.94,1.82-104.6,27-135,64.26v0c-.19.23-.37.47-.55.7-.53.65-1,1.32-1.55,2-.94,1.2-1.87,2.41-2.77,3.63-.53.73-1,1.45-1.57,2.19-.87,1.22-1.71,2.45-2.54,3.7-.48.71-1,1.42-1.42,2.14-.93,1.44-1.82,2.89-2.69,4.36-.32.53-.65,1-1,1.59-1.15,2-2.26,4-3.32,6-.28.54-.54,1.09-.81,1.63-.77,1.53-1.53,3.07-2.24,4.62-.36.76-.69,1.53-1,2.3-.6,1.37-1.19,2.75-1.75,4.14-.33.81-.65,1.62-1,2.44-.55,1.43-1.07,2.87-1.57,4.31-.26.76-.54,1.51-.79,2.27-.6,1.83-1.15,3.66-1.68,5.51-.11.39-.24.77-.34,1.15-.62,2.23-1.17,4.48-1.68,6.75-.15.66-.27,1.34-.41,2-.34,1.62-.66,3.25-.95,4.89-.14.84-.27,1.68-.4,2.52-.23,1.52-.44,3-.62,4.58-.11.86-.21,1.72-.29,2.58-.17,1.62-.3,3.24-.4,4.87-.05.76-.12,1.52-.16,2.28-.12,2.38-.19,4.77-.19,7.18,0,57.37,34.74,108,86.83,135.07q7.18,3.74,14.81,6.87,3.81,1.58,7.73,3a191.54,191.54,0,0,0,59.28,11.1h0c2.89.09,5.77.1,8.63.06,1,0,1.93-.07,2.89-.1,1.89-.05,3.79-.11,5.67-.22,1.15-.06,2.28-.17,3.43-.25,1.68-.13,3.36-.26,5-.43,1.22-.12,2.43-.28,3.65-.42,1.57-.19,3.15-.39,4.71-.62,1.25-.18,2.49-.39,3.73-.59,1.51-.25,3-.51,4.52-.8,1.26-.24,2.51-.49,3.75-.76,1.47-.31,2.93-.64,4.38-1,1.25-.3,2.5-.6,3.73-.92,1.44-.37,2.87-.76,4.29-1.16,1.22-.35,2.45-.7,3.66-1.07.45-.13.91-.25,1.35-.39l0,0C2392.43,964.29,2441.78,906.59,2441.78,837.66Z" transform="translate(-61.78 11.14)"/><path class="cls-60" d="M2428.28,837.69c0,89.17-82,159.06-179.77,156.21-94.09-2.75-167.84-72.39-167.84-155.64s73.75-153.13,167.84-156.19C2346.24,678.89,2428.28,748.51,2428.28,837.69Z" transform="translate(-61.78 11.14)"/><path class="cls-61" d="M2237.26,746.06l-26.32,48.44-53.12,6.38c-7.66.92-11.29,10.47-6.14,16.2l35.87,39.9-12.23,54.92c-1.8,8.07,6,14.76,13.27,11.28l50-24,48.51,29.44a9.94,9.94,0,0,0,15-10l-7.44-57.26,42-38.28a10,10,0,0,0-5-17.19l-55.17-9.62-22.11-49.94C2251.19,739.16,2241.09,739,2237.26,746.06Z" transform="translate(-61.78 11.14)"/><g class="cls-62"><path class="cls-63" d="M2291,955.09c-21.21-46.69.23-89.83-28.4-119.78s-65.66-2-104.76-26c-15-9.21-31.48-26.82-43.69-63.15-21.06,25.86-33.49,57.74-33.49,92.13,0,83.25,73.75,152.89,167.84,155.64a191.92,191.92,0,0,0,63.09-8.64A107.32,107.32,0,0,1,2291,955.09Z" transform="translate(-61.78 11.14)"/></g><path class="cls-64" d="M2080.11,517.41a130.72,130.72,0,0,1-.31,14c-.21,2-.25,3.95-.55,5.89-.62,3.9-1.29,7.76-2.26,11.55-.47,1.89-.93,3.78-1.48,5.65-.38,1.23-.75,2.48-1.15,3.71-9.65,28.91-29.3,54-55.49,72.66-.57.4-1.11.8-1.67,1.18a182.9,182.9,0,0,1-29.15,16.52l-1.94.85q-6.84,3-14,5.53c-2,.71-4.11,1.4-6.2,2-1.39.45-2.79.87-4.21,1.28q-3.15.91-6.38,1.72c-1.42.36-2.87.71-4.31,1a212.19,212.19,0,0,1-57,5.14c-1.46-.07-2.93-.14-4.37-.24-.43,0-.85-.07-1.26-.09-.12,0-.23,0-.35,0-.92-.07-1.85-.12-2.75-.21-.47,0-.92-.07-1.37-.12l-3-.28-1.28-.17c-1-.09-2.06-.21-3.08-.35l-1.11-.15c-1.09-.14-2.17-.28-3.29-.44l-.82-.15c-1.21-.16-2.39-.35-3.6-.56-.17,0-.33-1.7-.47-1.72-1.35-.24-2.7-2.39-4-2.39h0c-11.26,0-22.1-3.53-32.39-7.34,0,0,0,.8,0,.78-3.22-1.18-6.39-2-9.51-3.4-2.77-1.2-5.49-2.25-8.16-3.55-1.3,1-2.82,2.23-4.5,3.39A179.89,179.89,0,0,1,1752.8,612c1.8-2.44,3.52-5,5.11-7.64-22.17-25.27-35.18-56.32-35.18-89.42,0-79.37,74.83-146,171.21-148.9,3.15-.09,5.44-.11,8.54-.06,94.45,1.2,173.77,63.9,176.68,144.72v3.66C2079.16,515.35,2080.11,516.37,2080.11,517.41Z" transform="translate(-61.78 11.14)"/><path class="cls-65" d="M2068.16,516.87c0,84.76-82,150.2-180.2,149-2.27,0-4.57-.09-6.86-.19-2.08-.09-4.17-.21-6.22-.38s-4.22-.33-6.3-.54c-.42-.05-.85-.07-1.28-.14-1.34-.14-2.67-.29-4-.47s-2.62-.34-4-.55c-1.89-.26-3.78-.57-5.65-.9l-3.36-.61a204.43,204.43,0,0,1-32.37-9c-3.17-1.18-6.27-2.41-9.32-3.74A180,180,0,0,1,1752.8,612c-26.85-26.59-42.92-60.85-42.92-97.64,0-79.37,74.83-146,171.22-148.9a207.36,207.36,0,0,1,22.21.47c78.37,5.66,143.7,53.7,160.58,118v0q.65,2.42,1.19,4.88c.12.53.22,1.06.33,1.59.28,1.3.55,2.6.78,3.92.34,1.93.65,3.87.91,5.82,0,0,0,0,0,.1.09.73.19,1.49.26,2.22.12.92.21,1.85.28,2.77s.19,2.06.24,3.08c0,.3,0,.63.07.94.07,1.18.12,2.37.14,3.55C2068.14,514.22,2068.16,515.54,2068.16,516.87Z" transform="translate(-61.78 11.14)"/><path class="cls-65" d="M2068.16,516.87c0,84.76-82,150.2-180.2,149-2.27,0-4.57-.09-6.86-.19-2.08-.09-4.17-.21-6.22-.38s-4.22-.33-6.3-.54c-.42-.05-.85-.07-1.28-.14-1.34-.14-2.67-.29-4-.47s-2.62-.34-4-.55c-1.89-.26-3.78-.57-5.65-.9l-3.36-.61a204.43,204.43,0,0,1-32.37-9c-3.17-1.18-6.27-2.41-9.32-3.74A180,180,0,0,1,1752.8,612c-26.85-26.59-42.92-60.85-42.92-97.64,0-79.37,74.83-146,171.22-148.9a207.36,207.36,0,0,1,22.21.47c78.37,5.66,143.7,53.7,160.58,118v0q.65,2.42,1.19,4.88c.12.53.22,1.06.33,1.59.28,1.3.55,2.6.78,3.92.34,1.93.65,3.87.91,5.82,0,0,0,0,0,.1.09.73.19,1.49.26,2.22.12.92.21,1.85.28,2.77s.19,2.06.24,3.08c0,.3,0,.63.07.94.07,1.18.12,2.37.14,3.55C2068.14,514.22,2068.16,515.54,2068.16,516.87Z" transform="translate(-61.78 11.14)"/><path class="cls-61" d="M1782.92,475.44h0c7.24-20.67,25.34-35.5,46.73-35.75,28.25-.34,51.44,24.8,51.44,56.17,0-31.37,23.46-57.07,52.78-57.43,22.77-.27,42.43,14.8,50.41,36.38h0c30.56,77.91-103.19,146.27-103.19,146.27S1755.65,548.68,1782.92,475.44Z" transform="translate(-61.78 11.14)"/><g class="cls-66"><path class="cls-67" d="M1838.14,625.93c21.23-43.35-.23-84.85,28.52-113,29.63-29,68.79-1.65,111.79-25.66,16.87-9.42,35.79-27.57,50-65.07,24.85,25.94,39.75,58.83,39.75,94.65,0,86.74-85.86,153.26-187.07,148.8a208.67,208.67,0,0,1-63.18-12.59A92.45,92.45,0,0,0,1838.14,625.93Z" transform="translate(-61.78 11.14)"/></g><path class="cls-68" d="M2332.08,200.48c77.94,2.39,143.4,50,156.15,110.21a2,2,0,0,1,.05.24q1,4.95,1.59,10c0,.22.05.44.08.67.16,1.57.28,3.15.37,4.74,0,.28,0,.57,0,.86.08,1.62.13,3.25.13,4.89,0,70-71.44,123-158.41,118.54-2.31-.12-4.61-.29-6.9-.49l-.67-.05c-2.16-.2-4.32-.43-6.46-.69l-1-.13c-2.08-.26-4.13-.56-6.18-.89l-1.15-.19q-3-.51-6-1.09l-1.2-.25q-3-.6-5.87-1.29l-1.12-.28q-2.9-.7-5.75-1.49l-1-.3q-2.57-.72-5.09-1.52l-1.28-.4c-1.71-.55-3.4-1.13-5.08-1.72l-1.1-.38h0c-57.81-20.85-98.45-67.78-98.45-120.27C2177.79,251,2246.37,197.85,2332.08,200.48Z" transform="translate(-61.78 11.14)"/><path class="cls-69" d="M2161.29,319.19c0,68.18,68.58,127,154.29,131.44,87,4.5,158.41-48.55,158.41-118.54s-71.44-128.94-158.41-131.61C2229.87,197.85,2161.29,251,2161.29,319.19Z" transform="translate(-61.78 11.14)"/><path class="cls-61" d="M2259.93,297.75c0,20,23.31,67.63,39.77,98.77,6.86,13,24.92,13.84,31.81,1.5,16.59-29.74,40.25-75.69,40.25-95.9,0-31.19-25.22-57.33-56.18-58.4C2284.78,242.67,2259.93,266.86,2259.93,297.75Zm25.71,1a28.71,28.71,0,0,1,29.94-29,31.56,31.56,0,0,1,30.1,31.35,28.72,28.72,0,0,1-30.1,29A31.56,31.56,0,0,1,2285.64,298.75Z" transform="translate(-61.78 11.14)"/><g class="cls-66"><path class="cls-70" d="M2277.75,416.91c18.77-36-.21-71.24,25.18-94,25.91-23.22,59.74.73,96.36-17.65,14.22-7.14,30.08-21.27,41.88-51.22,20.57,22,32.82,49.12,32.82,78,0,70-71.44,123-158.41,118.54a194.38,194.38,0,0,1-55.85-11.16A76.61,76.61,0,0,0,2277.75,416.91Z" transform="translate(-61.78 11.14)"/></g><path class="cls-71" d="M617.1,1577S476.36,1333.26,286,1747.71C137.8,2070.43,233.6,2429.46,576.49,2528s878.44-100.44,710.34-240.66C930.25,1989.87,659.61,1726.23,617.1,1577Z" transform="translate(-61.78 11.14)"/><g class="cls-66"><path class="cls-72" d="M440.5,1796c-10,29.52-12.29,113.61-8.06,210.32,3.77,86.27-4.07,131.37,133.18,194.11,47,21.51,79.58,89.76,151.61,130.36,32.66,18.41,155.68,85,314.56,58.09,105.12-17.8,183.39-69.36,236.1-117.41-347.17-290.92-609-547.87-650.78-694.47,0,0-51.43-89-134.13-67.92C503,1531.42,509.85,1591.65,440.5,1796Z" transform="translate(-61.78 11.14)"/></g><g class="cls-66"><path class="cls-73" d="M1125.3,2429.94c-162.16,89.55-433,144.2-634.77-5.66-186.83-138.77-203.47-371.16-209.7-442.08-10.89-124,13.33-231.87,48.24-318.93-14,24.52-28.39,52.51-43.05,84.44C137.8,2070.43,233.6,2429.46,576.49,2528c337.51,97,861.69-94.27,717.73-234C1253.31,2340.1,1198.11,2389.74,1125.3,2429.94Z" transform="translate(-61.78 11.14)"/></g><path class="cls-74" d="M869.83,2456.54q-7.2,0-14.51-.17c-125.24-2.79-301.07-44.39-427.5-226.68-106.78-154-92.49-327.72-61.69-446.38,33.32-128.41,92.64-221.73,93.24-222.66a2.23,2.23,0,0,1,3.75,2.41c-.59.92-59.58,93.74-92.71,221.5-30.53,117.71-44.71,290.05,61.08,442.59,125.36,180.75,299.73,222,423.93,224.77,134.78,3,241-37.27,242.09-37.67a2.23,2.23,0,0,1,1.6,4.16C1098.08,2418.8,998.45,2456.53,869.83,2456.54Z" transform="translate(-61.78 11.14)"/><path class="cls-75" d="M1542.38,2433.48c-8.94-9.62-25-51,4.26-59.54,29.37-8.56,45.69-19.4,86.13-51.82s50.83-4.58-6.29,48.08S1555.09,2447.17,1542.38,2433.48Z" transform="translate(-61.78 11.14)"/><path class="cls-76" d="M1504.11,2373l24.06,21a15.08,15.08,0,0,0,18,1.39,9.79,9.79,0,0,0,1.14-15.72l-35.17-30.09Z" transform="translate(-61.78 11.14)"/><path class="cls-77" d="M783.55,2170.73c-42.51,37.24,46.22,159.36,188,119.78,171.77-48,390.23-26.41,537.49,93.49,8.54-7.6,29.7-19.53,20-29.31-133-134.52-256.24-211.75-358.3-232.47C1016.43,2090.9,904.58,2064.7,783.55,2170.73Z" transform="translate(-61.78 11.14)"/><g class="cls-78"><path class="cls-79" d="M1281.87,2221.88c24.92,14.5,30.23-15,43.09-34.33-55.18-33.88-107-55.74-154.24-65.33-154.29-31.33-266.14-57.52-387.17,48.51-42.51,37.24,46.22,159.36,188,119.78,51.27-14.32,106.72-22.28,163.17-23.44C1180.08,2238.51,1217.23,2173,1281.87,2221.88Z" transform="translate(-61.78 11.14)"/></g><path class="cls-80" d="M758.46,2297.94l-8.73,3.34s-56.44-53.29-66.5-66.87c-12.27-16.57,125.94-58.81,170.82-114.09,47.15-58.08,9.9,69,9.9,69Z" transform="translate(-61.78 11.14)"/><path class="cls-81" d="M707.27,1775.13s50.11,6.87,105.05,104.29c41.31,73.25,131,133.94,131,133.94l9.21,57.64-74.43,13.07-26.63-17.53L778.83,1912Z" transform="translate(-61.78 11.14)"/><path class="cls-82" d="M610.12,1768.92S486.61,1784.15,484,1926.27c-2.45,131.15,44.87,182,161,291.32,11.67,11,30.61,11,32,12.59q11.31,12.75,22.91,26.64C803.78,2157.1,921,2123.32,921,2123.32s-108.37-224.18-156-298.49C715.88,1748.22,641.83,1761.3,610.12,1768.92Z" transform="translate(-61.78 11.14)"/><g class="cls-66"><path class="cls-83" d="M815.18,2100c-52.13,27.9-126,24.74-153.2-9.78-20.46-26-23.78-35.69-48.69-76.51-20-32.85-29.8-38.11-73.59-65.77-16.52-10.43-35.28-25.54-53.67-48.18a220.41,220.41,0,0,0-2.07,26.52c-2.45,131.15,44.87,182,161,291.32,11.67,11,30.61,11,32,12.59q11.31,12.75,22.91,26.64C803.78,2157.09,921,2123.32,921,2123.32s-18-35.26-41.8-84.84C861.87,2067.43,848.63,2082.09,815.18,2100Z" transform="translate(-61.78 11.14)"/></g><path class="cls-61" d="M730,2104.16s23.41,1.08,40-5.61,15.26-8.24,34.39-10.67c18.6-2.36,55.24-13.4,34.5-32.26-23.09-21-62.66-15.11-74-1.17-11,13.43-30,22-30,22Z" transform="translate(-61.78 11.14)"/><path class="cls-84" d="M521.25,1839.76s-68.6,8-28.57,228.88c20.76,114.56,123.38,98.44,247.29,51.1,8.39-17.55-2.41-54.74-2.41-54.74s-153.95,63.47-157.93-29.13C575.16,1932,561.27,1828.79,521.25,1839.76Z" transform="translate(-61.78 11.14)"/><path class="cls-85" d="M638.86,1815.91c-29.36,0-59.19-21.74-60.62-22.79a1.12,1.12,0,0,1,1.33-1.8c.39.29,39.6,28.88,71.33,21,8.8-2.2,14.81-6.5,17.89-12.79,5.86-12-.78-27.31-.85-27.47a1.11,1.11,0,0,1,2-.9c.3.67,7.12,16.46.81,29.35-3.38,6.91-9.89,11.61-19.35,14A51.83,51.83,0,0,1,638.86,1815.91Z" transform="translate(-61.78 11.14)"/><path class="cls-86" d="M682.51,2225.63a1.11,1.11,0,0,1-.83-.36,1.13,1.13,0,0,1,.08-1.58c1.11-1,111.68-100,211.49-124.37a1.1,1.1,0,0,1,1.35.81,1.12,1.12,0,0,1-.81,1.35c-99.28,24.27-209.43,122.87-210.53,123.87A1.15,1.15,0,0,1,682.51,2225.63Z" transform="translate(-61.78 11.14)"/><path class="cls-61" d="M620.67,1714.75s-9.43,48.26-16.6,55.49,3.19,24.23,29.57,38.7,20.11-44.34,20.11-44.34Z" transform="translate(-61.78 11.14)"/><path class="cls-87" d="M691.36,1697.83l2.88.31c11.82,1.26,20,15.22,18.32,31.18l-.1.89c-1.7,16-12.67,27.87-24.49,26.61l-2.88-.31c-6-.63-9.39-14.29-7.66-30.49S685.4,1697.19,691.36,1697.83Z" transform="translate(-61.78 11.14)"/><path class="cls-88" d="M670.69,1725.3c-1.89,17.73,3.48,32.85,12.29,33.79s17.72-12.65,19.62-30.38-4-32.91-12.76-33.85S672.59,1707.56,670.69,1725.3Z" transform="translate(-61.78 11.14)"/><rect class="cls-89" x="683.5" y="1694.55" width="3.38" height="64.6" transform="translate(125.7 -51.92) rotate(6.1)"/><ellipse class="cls-90" cx="683.51" cy="1726.67" rx="32.3" ry="16.04" transform="translate(-1167.79 2233.97) rotate(-83.9)"/><path class="cls-91" d="M674.83,1725.74c-1,9.64,2,17.88,6.81,18.39s9.51-6.89,10.54-16.54-2-17.87-6.81-18.39S675.86,1716.09,674.83,1725.74Z" transform="translate(-61.78 11.14)"/><path class="cls-92" d="M685,1722.84c11.12-7.22,17.52-24.48,12.34-38.68-4.45-12.21-16-17.83-23-21.2-20.08-9.74-49.2-10.57-64.61,4.86-9.12,9.13-5.21,36.23-4.77,41,.49,5.41,3.7,8.35,6,13.12,3.15,6.62,8.06,17.1,16,34.54a84.88,84.88,0,0,1,9.38-12,75.56,75.56,0,0,1,15.36-12.61C666.85,1722.83,674.43,1729.67,685,1722.84Z" transform="translate(-61.78 11.14)"/><path class="cls-61" d="M613,1739.24s6.26,26.74,34.07,34.85c25,7.28,46.68-44.81,34.87-61.75-3.94-5.65-13.86-10.94-23.13-11.65-5.47-.42-7.85,1-16.77.14-8.22-.79-10.08-2.37-13-1.31-3.65,1.32-7.68,6.32-8.18,23.59-3.09-6.25-8.06-10-12.62-9.6a8.39,8.39,0,0,0-4.28,1.92C598.54,1720.28,601.6,1730.08,613,1739.24Z" transform="translate(-61.78 11.14)"/><path class="cls-93" d="M629,1695.94c.88,1.27-4.15,4.26-6.46,10.22-4.49,11.54,2.92,30,14.95,35.66,7.13,3.36,10.61-.24,23.23,2.89a61.72,61.72,0,0,1,17.47,7.4c-.54,14.28-8.52,25.83-19.41,28.59-11.7,3-22.54-5.31-27.07-8.77-3-2.32-12.73-9.71-15.12-21.47-2.49-12.25,5.38-16.27.91-25.56-2.26-4.68-6.24-7.79-8.36-16.05a35.61,35.61,0,0,1-.94-5.39C616.7,1699.22,627.76,1694.09,629,1695.94Z" transform="translate(-61.78 11.14)"/><path class="cls-61" d="M667.72,1753.69s-6.2.79-15.15-3c-.43-.19-1-.24-1.1,0-.49.76,4.08,6.64,10,7.11,4.19.33,8.36-2.12,8.15-3.21C669.5,1754.11,668.62,1753.85,667.72,1753.69Z" transform="translate(-61.78 11.14)"/><path class="cls-94" d="M617.67,1699.87l-3.65-.43,1.29-11.28c2.22-19.45,17.44-33.93,34.63-33l18.41,1c9.63.53,18.3,5.38,24.42,13.65a42.13,42.13,0,0,1,7.68,29.71l-1,9-3.65-.4,1-9a37.72,37.72,0,0,0-6.88-26.59c-5.47-7.4-13.24-11.74-21.85-12.22l-18.41-1c-15.24-.85-28.73,12-30.7,29.24Z" transform="translate(-61.78 11.14)"/><path class="cls-95" d="M692.05,1679.44a5.22,5.22,0,0,1-3.83-2.46c-4.78-7.45-12.23-12-20.43-12.44l-18.41-1a23.72,23.72,0,0,0-17.72,6.83,5.06,5.06,0,0,1-7.77-.67,6.89,6.89,0,0,1,.8-8.82c7.21-6.86,16.27-10.36,25.53-9.85l18.41,1c11.48.64,21.89,7,28.58,17.39a6.89,6.89,0,0,1-1.29,8.77A5.15,5.15,0,0,1,692.05,1679.44Z" transform="translate(-61.78 11.14)"/><path class="cls-96" d="M685.68,1665.94c-13-5.89-12.62-10-19.63-11.06-13.1-2-19.92,11.51-32.54,8.29a19.64,19.64,0,0,1-7.26-3.71c-.53.45-1,.91-1.56,1.4a6.89,6.89,0,0,0-.8,8.82,5.06,5.06,0,0,0,7.77.67,23.72,23.72,0,0,1,17.72-6.83l18.41,1c8.2.46,15.65,5,20.43,12.44a5.22,5.22,0,0,0,3.83,2.46,5.15,5.15,0,0,0,3.87-1.24,6.9,6.9,0,0,0,1.72-8A78.44,78.44,0,0,1,685.68,1665.94Z" transform="translate(-61.78 11.14)"/><path class="cls-97" d="M630.7,1720.49c-1.92,17.93-10.69,31.7-19.6,30.74S596.52,1735,598.44,1717s10.69-31.7,19.6-30.75S632.62,1702.55,630.7,1720.49Z" transform="translate(-61.78 11.14)"/><ellipse class="cls-98" cx="611.4" cy="1718.42" rx="32.66" ry="16.22" transform="translate(-1224.04 2154.9) rotate(-83.9)"/><path class="cls-99" d="M610.87,1688.36l-2.9-.31c-12-1.27-23.05,10.77-24.77,26.9l-.1.91c-1.72,16.13,6.57,30.25,18.53,31.53l2.9.31c6,.64,12.34-12.12,14.09-28.5S616.9,1689,610.87,1688.36Z" transform="translate(-61.78 11.14)"/><path class="cls-100" d="M604.53,1717.23c-1.27,11.83-7.06,20.9-12.95,20.27s-9.64-10.72-8.38-22.55,7.06-20.9,12.95-20.27S605.79,1705.4,604.53,1717.23Z" transform="translate(-61.78 11.14)"/><path class="cls-101" d="M746.47,2133.85a3,3,0,0,0-2.44,2.05c0,.15.39,5.75.38,5.92a2.81,2.81,0,0,0,1.93,2.91l105,34.12L1047.63,2102l-93.25,7.13Z" transform="translate(-61.78 11.14)"/><path class="cls-102" d="M746.43,2133.09a2.81,2.81,0,0,0-.47,5.45l105,34.12,196.27-76.87L954,2102.92Z" transform="translate(-61.78 11.14)"/><path class="cls-103" d="M846.34,2171.13,862,1966.39a7.1,7.1,0,0,1,6-6.47l235-36.79a7.11,7.11,0,0,1,8.19,7.34l-8.83,190.83a7.08,7.08,0,0,1-5.79,6.64l-244.18,45.21Z" transform="translate(-61.78 11.14)"/><path class="cls-101" d="M851.36,2178.85l16.14-209.26a7.09,7.09,0,0,1,6-6.46l235-36.79a7.1,7.1,0,0,1,8.19,7.34l-8.83,190.86a7.09,7.09,0,0,1-5.76,6.64Z" transform="translate(-61.78 11.14)"/><path class="cls-104" d="M851.36,2178.85l250.76-47.67a7.09,7.09,0,0,0,5.76-6.64l2.66-57.57c-74.69,42.43-168.31,47.82-255.55,64.84Z" transform="translate(-61.78 11.14)"/><path class="cls-105" d="M1276.08,2136c-3.43-11.91-11-25.06,16-34.66,19.63-7,53.73-9.2,84.73-10.79,43.43-2.23,53.42,23.75-10.06,40.29C1325.22,2141.62,1281,2152.88,1276.08,2136Z" transform="translate(-61.78 11.14)"/><path class="cls-106" d="M1309.92,2117.73c.41,6.66-3.83,11.89-9.37,12.68-12.85,1.84-10.44-4.78-10.85-11.44s-5.6-11.29,9.37-12.68C1304.64,2105.77,1309.51,2111.07,1309.92,2117.73Z" transform="translate(-61.78 11.14)"/><path class="cls-107" d="M1178,2079.42l12.69-2s24.71,2.32,92.82,21.09c14.58,2.42,34.45,45-8.27,46.65s-94.71,33.48-94.71,33.48Z" transform="translate(-61.78 11.14)"/><path class="cls-108" d="M734.49,2277.41s6.22,55.22,134.62,50.19,357.77-138.31,356.33-208.26-86.8-42-175.18-1.57c-74.59,34.12-189.82,53.89-213.43,57.55C806.6,2180,727.18,2250.89,734.49,2277.41Z" transform="translate(-61.78 11.14)"/><g class="cls-62"><path class="cls-109" d="M902.49,2208.21c59.43-6.06,72.78-48.71,146.73-61,47.93-8,64.85,6.16,89.28-10.2,19.29-12.92,29.13-35.44,33.87-59.9-32.77,2.78-77,20.07-122.11,40.7-72.45,33.14-183.23,52.74-211.17,57.2-.83.13-19.56-6.57-19.56-6.57s-13.94,8-23.94,14.26C834.55,2203.54,880.78,2210.42,902.49,2208.21Z" transform="translate(-61.78 11.14)"/></g><polygon class="cls-110" points="1736.94 1306.56 2019.92 1338.92 2019.92 1251.04 1736.95 1244.39 1736.94 1306.56"/><polygon class="cls-111" points="2005.43 1321.43 2005.43 1266.53 1744.38 1256.06 1744.38 1295.91 2005.43 1321.43"/><polygon class="cls-112" points="1699.83 1302.28 1778.58 1311.29 1748.93 1216.87 1699.83 1217.67 1699.83 1302.28"/><polygon class="cls-111" points="1765.72 1297.96 1744.14 1228.44 1706.48 1228.43 1706.48 1292.18 1765.72 1297.96"/><polygon class="cls-61" points="1970.6 1310.02 1995.08 1312.2 1995.08 1274.34 1970.6 1273.14 1970.6 1310.02"/><polygon class="cls-61" points="1939.39 1307.24 1962.21 1309.27 1962.21 1272.73 1939.39 1271.62 1939.39 1307.24"/><polygon class="cls-61" points="1910.23 1304.64 1931.56 1306.54 1931.56 1271.24 1910.23 1270.2 1910.23 1304.64"/><polygon class="cls-61" points="1882.93 1302.21 1902.91 1303.99 1902.91 1269.84 1882.93 1268.86 1882.93 1302.21"/><polygon class="cls-113" points="1857.32 1299.93 1876.07 1301.6 1876.07 1268.53 1857.32 1267.61 1857.32 1299.93"/><polygon class="cls-114" points="1833.24 1297.79 1850.87 1299.36 1850.87 1267.3 1833.24 1266.43 1833.24 1297.79"/><polygon class="cls-115" points="1810.56 1295.77 1827.16 1297.25 1827.16 1266.14 1810.56 1265.33 1810.56 1295.77"/><polygon class="cls-116" points="1789.16 1293.86 1804.83 1295.26 1804.83 1265.05 1789.16 1264.28 1789.16 1293.86"/><polygon class="cls-117" points="1084.31 1865.25 788.82 1899.48 788.82 1828.16 1084.31 1806.12 1084.31 1865.25"/><polygon class="cls-111" points="801.83 1885.03 801.83 1840.14 1075.25 1817.68 1075.25 1855.42 801.83 1885.03"/><polygon class="cls-118" points="1130.79 1859.84 1034.61 1870.98 1069.75 1780.95 1130.79 1777.51 1130.79 1859.84"/><polygon class="cls-111" points="1049.7 1858.15 1075.54 1791.51 1122.3 1788.52 1122.3 1850.29 1049.7 1858.15"/><polygon class="cls-61" points="833.91 1874.88 811.24 1877.25 811.24 1846.13 833.91 1844.18 833.91 1874.88"/><polygon class="cls-61" points="863.7 1871.78 841.82 1874.06 841.82 1843.5 863.7 1841.61 863.7 1871.78"/><polygon class="cls-61" points="892.44 1868.78 871.33 1870.98 871.33 1840.96 892.44 1839.14 892.44 1868.78"/><polygon class="cls-119" points="920.21 1865.88 899.81 1868.01 899.81 1838.5 920.21 1836.75 920.21 1865.88"/><polygon class="cls-120" points="947.03 1863.08 927.32 1865.14 927.32 1836.13 947.03 1834.44 947.03 1863.08"/><polygon class="cls-121" points="972.98 1860.37 953.92 1862.36 953.92 1833.84 972.98 1832.2 972.98 1860.37"/><polygon class="cls-122" points="998.08 1857.75 979.64 1859.68 979.64 1831.63 998.08 1830.04 998.08 1857.75"/><polygon class="cls-123" points="1022.38 1855.22 1004.52 1857.08 1004.52 1829.49 1022.38 1827.95 1022.38 1855.22"/><path class="cls-124" d="M1000.48,829.52s-38.84-23.3-61.84-60.34c33.46-39.39,52.73-87.45,51.94-138.35C988.67,508.8,872,408.2,723.8,406,572.17,403.82,444.57,504.47,440,632.9V633c-.05,1.6-.09,3.2-.11,4.8,0,.23,0,.47,0,.7,0,1.57,0,3.15,0,4.73a199.06,199.06,0,0,0,1.5,21.56q.57,4.56,1.34,9,1.55,9,3.89,17.69,1.17,4.37,2.53,8.64c.6,1.91,1.24,3.8,1.9,5.68,15.52,44.21,46.35,82.27,87.07,110.39.86.6,1.73,1.19,2.61,1.78a280.9,280.9,0,0,0,45.18,24.66l3,1.28q10.62,4.47,21.72,8.15,4.75,1.57,9.6,3c2.15.64,4.32,1.25,6.49,1.84q4.89,1.34,9.87,2.51,3.3.78,6.65,1.5A326.65,326.65,0,0,0,731,867.51c2.25-.14,4.48-.29,6.71-.47l1.94-.18c1.59-.13,3.18-.27,4.76-.43l2.1-.23c1.53-.16,3.07-.33,4.59-.51l2-.25c1.59-.2,3.17-.41,4.74-.64l1.68-.24c1.69-.25,3.37-.51,5-.79l1.28-.21q2.76-.46,5.51-1l.75-.14c2.06-.39,4.11-.79,6.15-1.22h0a313.91,313.91,0,0,0,49.57-14.6l-.06,0q13.93-5.43,27-12.07C876.15,850.8,930.76,880.44,1000.48,829.52Z" transform="translate(-61.78 11.14)"/><path class="cls-125" d="M1010.31,629.69c1.91,122-111.49,227.82-259.56,236.67-155.5,9.29-289.08-90.92-291.17-224.25s128.28-239.5,284-237.23C891.78,407.05,1008.41,507.66,1010.31,629.69Z" transform="translate(-61.78 11.14)"/><path class="cls-126" d="M1010.31,629.69c1.91,122-111.49,227.82-259.56,236.67-155.5,9.29-289.08-90.92-291.17-224.25s128.28-239.5,284-237.23C891.78,407.05,1008.41,507.66,1010.31,629.69Z" transform="translate(-61.78 11.14)"/><path class="cls-127" d="M864.69,824.85s65,69.61,155.53,3.52c0,0-73.93-44.32-78.2-107.93Z" transform="translate(-61.78 11.14)"/><g class="cls-66"><path class="cls-128" d="M815.81,804.27c-33.66-66.13-1.68-130.45-46.55-173-46.25-43.9-105.8-.87-172.48-36.76-26.16-14.07-55.68-41.52-78.37-98.82-37.57,40.48-59.69,91.39-58.83,146.47,2.09,133.33,135.67,233.54,291.17,224.25a321,321,0,0,0,96.81-20.88A142.27,142.27,0,0,1,815.81,804.27Z" transform="translate(-61.78 11.14)"/></g><path class="cls-61" d="M611,694.12a6.81,6.81,0,0,1-6.32-4.27,148.14,148.14,0,0,1-10.77-55.68c0-82.06,66.77-148.83,148.83-148.83a149.54,149.54,0,0,1,119.79,60.5,6.81,6.81,0,0,1-11,8.09,135.84,135.84,0,0,0-108.83-55c-74.56,0-135.21,60.66-135.21,135.21a134.53,134.53,0,0,0,9.78,50.59,6.81,6.81,0,0,1-3.77,8.86A6.68,6.68,0,0,1,611,694.12Z" transform="translate(-61.78 11.14)"/><path class="cls-61" d="M835.6,557.89a6.7,6.7,0,1,1-.15-13.4l17-.33,2.91-17.29a6.81,6.81,0,0,1,13.43,2.28L865,552a6.69,6.69,0,0,1-6.57,5.54l-22.65.34Z" transform="translate(-61.78 11.14)"/><path class="cls-61" d="M742.71,783a148,148,0,0,1-117.14-57,6.81,6.81,0,0,1,10.71-8.41,134.51,134.51,0,0,0,106.43,51.8c74.55,0,135.2-60.65,135.2-135.2a134.82,134.82,0,0,0-7.53-44.61,6.81,6.81,0,1,1,12.86-4.49,148.56,148.56,0,0,1,8.29,49.1C891.53,716.23,824.77,783,742.71,783Z" transform="translate(-61.78 11.14)"/><path class="cls-61" d="M623,746.19a7.06,7.06,0,0,1-1.36-.14,6.8,6.8,0,0,1-5.32-8l4.48-22.28a6.88,6.88,0,0,1,6.68-5.53h.07l23.18.32a6.84,6.84,0,0,1-.15,13.67L633,724l-3.38,16.69A6.81,6.81,0,0,1,623,746.19Z" transform="translate(-61.78 11.14)"/><path class="cls-61" d="M728.85,706.1a12,12,0,0,1-6.26-1.77l-45.51-27.9A12,12,0,1,1,689.61,656l36.79,22.56,82.72-96.62a12,12,0,0,1,18.21,15.59L738,701.91A12,12,0,0,1,728.85,706.1Z" transform="translate(-61.78 11.14)"/></g></g></g></svg>