<svg xmlns="http://www.w3.org/2000/svg" xmlns:xlink="http://www.w3.org/1999/xlink" viewBox="0 0 2820.6 2663.99"><defs><style>.cls-1{fill:url(#linear-gradient);}.cls-2{fill:#fe8794;}.cls-3{fill:none;}.cls-4{fill:url(#linear-gradient-2);}.cls-5{isolation:isolate;}.cls-6{fill:#bfc8d6;}.cls-21,.cls-30,.cls-38,.cls-44,.cls-45,.cls-6,.cls-74,.cls-75,.cls-83,.cls-89{opacity:0.3;}.cls-21,.cls-30,.cls-34,.cls-38,.cls-44,.cls-45,.cls-6,.cls-74,.cls-83,.cls-89{mix-blend-mode:multiply;}.cls-7,.cls-75{mix-blend-mode:soft-light;}.cls-8{clip-path:url(#clip-path);}.cls-9{fill:#fcfdfe;}.cls-10{clip-path:url(#clip-path-2);}.cls-11{clip-path:url(#clip-path-3);}.cls-12{clip-path:url(#clip-path-4);}.cls-13{clip-path:url(#clip-path-5);}.cls-14{fill:url(#linear-gradient-5);}.cls-15{fill:url(#linear-gradient-6);}.cls-16{fill:url(#linear-gradient-7);}.cls-17{fill:url(#linear-gradient-8);}.cls-18{fill:#26264f;}.cls-19{fill:url(#linear-gradient-9);}.cls-20{fill:url(#linear-gradient-10);}.cls-21{fill:url(#linear-gradient-11);}.cls-22{fill:url(#linear-gradient-12);}.cls-23{fill:url(#linear-gradient-13);}.cls-24{fill:url(#linear-gradient-14);}.cls-25{fill:url(#linear-gradient-15);}.cls-26{fill:url(#linear-gradient-16);}.cls-27{fill:url(#linear-gradient-17);}.cls-28{fill:url(#linear-gradient-18);}.cls-29{fill:url(#linear-gradient-19);}.cls-30{fill:url(#linear-gradient-20);}.cls-31{fill:url(#linear-gradient-21);}.cls-32{fill:url(#linear-gradient-22);}.cls-33{fill:#fff;}.cls-34{opacity:0.2;}.cls-35{fill:url(#linear-gradient-23);}.cls-36{fill:url(#linear-gradient-24);}.cls-37{fill:url(#linear-gradient-25);}.cls-39{fill:url(#linear-gradient-27);}.cls-40{fill:url(#linear-gradient-28);}.cls-41{fill:url(#linear-gradient-29);}.cls-42{fill:url(#linear-gradient-30);}.cls-43{fill:url(#linear-gradient-31);}.cls-44{fill:url(#linear-gradient-32);}.cls-45{fill:url(#linear-gradient-33);}.cls-46{fill:url(#linear-gradient-34);}.cls-47{fill:url(#linear-gradient-35);}.cls-48{fill:url(#linear-gradient-36);}.cls-49{fill:url(#linear-gradient-37);}.cls-50{fill:url(#linear-gradient-38);}.cls-51{fill:url(#linear-gradient-39);}.cls-52{fill:url(#linear-gradient-40);}.cls-53{fill:url(#linear-gradient-41);}.cls-54{fill:url(#linear-gradient-42);}.cls-55{fill:url(#linear-gradient-43);}.cls-56{fill:url(#linear-gradient-44);}.cls-57{fill:url(#linear-gradient-45);}.cls-58{fill:url(#linear-gradient-46);}.cls-59{fill:url(#linear-gradient-47);}.cls-60{fill:url(#linear-gradient-48);}.cls-61{fill:url(#linear-gradient-49);}.cls-62{fill:url(#linear-gradient-50);}.cls-63{fill:url(#linear-gradient-51);}.cls-64{fill:url(#linear-gradient-52);}.cls-65{fill:url(#linear-gradient-53);}.cls-66{fill:url(#linear-gradient-54);}.cls-67{fill:url(#linear-gradient-55);}.cls-68{fill:url(#linear-gradient-56);}.cls-69{fill:url(#linear-gradient-57);}.cls-70{fill:url(#linear-gradient-58);}.cls-71{fill:url(#linear-gradient-59);}.cls-72{fill:url(#linear-gradient-60);}.cls-73{fill:url(#linear-gradient-61);}.cls-74{fill:url(#linear-gradient-62);}.cls-75{fill:url(#linear-gradient-63);}.cls-76{fill:url(#linear-gradient-64);}.cls-77{fill:url(#linear-gradient-65);}.cls-78{fill:url(#linear-gradient-66);}.cls-79{fill:url(#linear-gradient-67);}.cls-80{fill:url(#linear-gradient-68);}.cls-81{fill:url(#linear-gradient-69);}.cls-82{fill:url(#linear-gradient-70);}.cls-83{fill:url(#linear-gradient-71);}.cls-84{fill:url(#linear-gradient-72);}.cls-85{fill:url(#linear-gradient-73);}.cls-86{fill:url(#linear-gradient-74);}.cls-87{fill:url(#linear-gradient-75);}.cls-88{fill:url(#linear-gradient-76);}.cls-89{fill:url(#linear-gradient-77);}.cls-90{fill:url(#linear-gradient-78);}</style><linearGradient id="linear-gradient" x1="419.23" y1="686.34" x2="835.53" y2="3347.7" gradientUnits="userSpaceOnUse"><stop offset="0" stop-color="#e38ddd"/><stop offset="1" stop-color="#9571f6"/></linearGradient><linearGradient id="linear-gradient-2" x1="1690.41" y1="164.11" x2="2301.28" y2="4069.27" xlink:href="#linear-gradient"/><clipPath id="clip-path" transform="translate(0 -14.28)"><path class="cls-1" d="M877.73,2003.63c15.3-3,46-22.85,51.82-31.33,39-56.46,118.78-157.43,110-229.42-1.49-12.29-57.35-20.32-65.79-31.16-34.37-13.76-47.15-16.41-73.4-45.54-77.49-86,75.85-266.12-118.57-314-142.41-35.06-257.41,20.4-255.87-197.39S331,552.54,111.38,718.05c-126,95,18.85,271.1-40.31,411.33-56.22,133.25,5.19,236.26,147.33,305.29s72.5,133.23,40.23,258.55c-38.76,150.53,189.84,162.56,295.85,159.11C639.86,1849.56,859.11,1900.08,877.73,2003.63Z"/></clipPath><clipPath id="clip-path-2" transform="translate(0 -14.28)"><path class="cls-2" d="M875.73,2259.31c11.68-5.3,32.51-26.18,35.62-33.6,20.7-49.38,65.83-139.77,45.53-190.75-3.47-8.71-49.6-3.13-58.34-9.35-30-3-40.72-2.35-67.09-18.33-77.84-47.15,11.43-210.64-152.82-205.84-120.3,3.52-201.95,67.77-241-92.21s-267.19-401.5-412.1-235.11c-83.16,95.48,65.2,194.87,43.84,309.8-20.3,109.22,47.83,172.13,174.2,193.57s82.57,82.8,79.94,181.28c-3.15,118.31,181.79,80.23,265.88,55.95C657.12,2195.17,841.71,2187.22,875.73,2259.31Z"/></clipPath><clipPath id="clip-path-3" transform="translate(0 -14.28)"><rect class="cls-3" x="1111.74" y="251.38" width="1963.91" height="1471.46" transform="translate(1091.87 3073.8) rotate(-89.6)"/></clipPath><clipPath id="clip-path-4" transform="translate(0 -14.28)"><path class="cls-4" d="M1712.71,2198.75c-21.87,4.45-73.37-5.13-85.77-13.16-82.49-53.47-243.43-143.53-271.22-243.66-4.75-17.1,64.85-58.29,70.08-77.26,38-37,53.48-47.52,72.31-100.47,55.59-156.32-246-311-14.7-480.71,169.44-124.34,352.08-113.78,230.9-401.4S1643.13-22.25,2024.49,76.85c218.87,56.87,123.32,369.38,278.39,522.74,147.35,145.74,122.35,315.76-28.14,484.94s-23.14,216.11,88.15,364.44c133.68,178.17-162.52,319.15-304.81,372.57C1943.49,1864.56,1680.73,2051.41,1712.71,2198.75Z"/></clipPath><clipPath id="clip-path-5" transform="translate(0 -14.28)"><path class="cls-2" d="M1608.17,2160.44c-22-4-66.28-31.89-74.83-43.94-56.87-80.17-173.12-223.36-161.92-326.67,1.92-17.65,81.81-30.18,93.69-45.88,49-20.36,67.25-24.38,104.32-66.62,109.45-124.68-113.61-379.89,164.08-452.08,203.4-52.88,369.2,24.45,362.94-287.58s268.22-866.58,585.92-633.51c182.33,133.77-22,388.8,65.39,588.63,83,189.89-3.06,338.62-205.44,440.17s-101.4,192.25-52.83,371.21c58.33,215-269,236.45-421,233.48C1946.15,1935.25,1632.92,2011.72,1608.17,2160.44Z"/></clipPath><linearGradient id="linear-gradient-5" x1="2174.63" y1="642.72" x2="1909.24" y2="2405.9" gradientUnits="userSpaceOnUse"><stop offset="0" stop-color="#444b8c"/><stop offset="1" stop-color="#26264f"/></linearGradient><linearGradient id="linear-gradient-6" x1="2352.88" y1="669.55" x2="2087.49" y2="2432.73" xlink:href="#linear-gradient-5"/><linearGradient id="linear-gradient-7" x1="2423.53" y1="1672.24" x2="1284.98" y2="230.09" gradientUnits="userSpaceOnUse"><stop offset="0" stop-color="#aa80f9"/><stop offset="1" stop-color="#6165d7"/></linearGradient><linearGradient id="linear-gradient-8" x1="2453.26" y1="2353.89" x2="2501.21" y2="2353.89" gradientUnits="userSpaceOnUse"><stop offset="0" stop-color="#ffc444"/><stop offset="1" stop-color="#f36f56"/></linearGradient><linearGradient id="linear-gradient-9" x1="2437.2" y1="2445.89" x2="2419.32" y2="2261.97" gradientUnits="userSpaceOnUse"><stop offset="0" stop-color="#40447e"/><stop offset="1" stop-color="#3c3b6b"/></linearGradient><linearGradient id="linear-gradient-10" x1="2747.53" y1="2466.14" x2="2794.03" y2="2466.14" xlink:href="#linear-gradient-8"/><linearGradient id="linear-gradient-11" x1="2453.83" y1="2444.27" x2="2435.95" y2="2260.35" xlink:href="#linear-gradient-9"/><linearGradient id="linear-gradient-12" x1="2380.22" y1="2173.49" x2="2795.95" y2="2173.49" xlink:href="#linear-gradient-9"/><linearGradient id="linear-gradient-13" x1="2467.01" y1="1468.25" x2="2350.78" y2="1986.8" gradientUnits="userSpaceOnUse"><stop offset="0" stop-color="#ab316d"/><stop offset="1" stop-color="#792d3d"/></linearGradient><linearGradient id="linear-gradient-14" x1="2263.94" y1="1422.74" x2="2147.72" y2="1941.28" xlink:href="#linear-gradient-13"/><linearGradient id="linear-gradient-15" x1="2459.72" y1="1253.07" x2="2477.92" y2="1414.96" xlink:href="#linear-gradient-8"/><linearGradient id="linear-gradient-16" x1="1775.59" y1="1473.11" x2="1824.44" y2="1657.98" xlink:href="#linear-gradient-8"/><linearGradient id="linear-gradient-17" x1="2247.62" y1="1545.85" x2="2357.22" y2="1545.85" xlink:href="#linear-gradient-8"/><linearGradient id="linear-gradient-18" x1="2300.95" y1="1501.43" x2="2361.06" y2="1526.4" xlink:href="#linear-gradient-8"/><linearGradient id="linear-gradient-19" x1="2297.86" y1="1508.87" x2="2357.96" y2="1533.84" xlink:href="#linear-gradient-8"/><linearGradient id="linear-gradient-20" x1="2319.36" y1="1435.16" x2="2203.13" y2="1953.7" xlink:href="#linear-gradient-13"/><linearGradient id="linear-gradient-21" x1="925.8" y1="489.87" x2="1219.84" y2="1079.94" xlink:href="#linear-gradient-8"/><linearGradient id="linear-gradient-22" x1="1098.71" y1="877.44" x2="1384.32" y2="1407.16" xlink:href="#linear-gradient-8"/><linearGradient id="linear-gradient-23" x1="1020.28" y1="912.65" x2="1297.74" y2="1469.44" xlink:href="#linear-gradient-8"/><linearGradient id="linear-gradient-24" x1="1267.8" y1="110.6" x2="817.51" y2="1236.34" gradientUnits="userSpaceOnUse"><stop offset="0" stop-color="#311944"/><stop offset="1" stop-color="#893976"/></linearGradient><linearGradient id="linear-gradient-25" x1="984.94" y1="546.45" x2="1192.13" y2="930.72" gradientUnits="userSpaceOnUse"><stop offset="0" stop-color="#ff9085"/><stop offset="1" stop-color="#fb6fbb"/></linearGradient><linearGradient id="linear-gradient-27" x1="-2354.23" y1="568.39" x2="-2151.14" y2="975.94" gradientTransform="matrix(-1, 0, 0, 1, -1201.99, 0)" xlink:href="#linear-gradient-25"/><linearGradient id="linear-gradient-28" x1="663.23" y1="817.78" x2="861.84" y2="864.7" xlink:href="#linear-gradient-24"/><linearGradient id="linear-gradient-29" x1="-2030.75" y1="763.86" x2="-1860.49" y2="1079.65" gradientTransform="matrix(-1, 0, 0, 1, -1201.99, 0)" xlink:href="#linear-gradient"/><linearGradient id="linear-gradient-30" x1="-2080.65" y1="784.72" x2="-1913.81" y2="1119.55" gradientTransform="matrix(-1, 0, 0, 1, -1201.99, 0)" xlink:href="#linear-gradient-25"/><linearGradient id="linear-gradient-31" x1="693.9" y1="1531.52" x2="1389.3" y2="2822.95" xlink:href="#linear-gradient-5"/><linearGradient id="linear-gradient-32" x1="905.64" y1="1744.65" x2="1406.18" y2="1744.65" xlink:href="#linear-gradient-9"/><linearGradient id="linear-gradient-33" x1="1477.6" y1="2187.41" x2="1820.44" y2="1834.83" xlink:href="#linear-gradient-5"/><linearGradient id="linear-gradient-34" x1="746.68" y1="2030.71" x2="460.98" y2="1565.79" xlink:href="#linear-gradient-5"/><linearGradient id="linear-gradient-35" x1="741.26" y1="2107.54" x2="1070.01" y2="2107.54" xlink:href="#linear-gradient-5"/><linearGradient id="linear-gradient-36" x1="876.69" y1="1832.87" x2="894.87" y2="2001.7" xlink:href="#linear-gradient-5"/><linearGradient id="linear-gradient-37" x1="927.93" y1="2036.79" x2="897.09" y2="2321.38" xlink:href="#linear-gradient-5"/><linearGradient id="linear-gradient-38" x1="921.84" y1="2002.36" x2="919.03" y2="2246.29" xlink:href="#linear-gradient-5"/><linearGradient id="linear-gradient-39" x1="1249.2" y1="2087.01" x2="1554.18" y2="2087.01" xlink:href="#linear-gradient-5"/><linearGradient id="linear-gradient-40" x1="1369.18" y1="1779.84" x2="1387.36" y2="1948.66" xlink:href="#linear-gradient-5"/><linearGradient id="linear-gradient-41" x1="1429.81" y1="2016.31" x2="1398.97" y2="2300.9" xlink:href="#linear-gradient-5"/><linearGradient id="linear-gradient-42" x1="1423.72" y1="1981.87" x2="1420.91" y2="2225.8" xlink:href="#linear-gradient-5"/><linearGradient id="linear-gradient-43" x1="802.48" y1="1565.31" x2="864.82" y2="1746.47" xlink:href="#linear-gradient-7"/><linearGradient id="linear-gradient-44" x1="1354.48" y1="1375.38" x2="1416.82" y2="1556.54" xlink:href="#linear-gradient-7"/><linearGradient id="linear-gradient-45" x1="841.27" y1="1945.89" x2="791.27" y2="1897.85" xlink:href="#linear-gradient-7"/><linearGradient id="linear-gradient-46" x1="746.1" y1="2044.92" x2="696.1" y2="1996.87" xlink:href="#linear-gradient-7"/><linearGradient id="linear-gradient-47" x1="745.9" y1="2045.13" x2="695.9" y2="1997.08" xlink:href="#linear-gradient-7"/><linearGradient id="linear-gradient-48" x1="840.84" y1="1946.34" x2="790.84" y2="1898.29" xlink:href="#linear-gradient-7"/><linearGradient id="linear-gradient-49" x1="665.57" y1="1791.86" x2="770.76" y2="2015.23" xlink:href="#linear-gradient-7"/><linearGradient id="linear-gradient-50" x1="588.34" y1="1828.23" x2="693.53" y2="2051.6" xlink:href="#linear-gradient-7"/><linearGradient id="linear-gradient-51" x1="550.78" y1="1845.92" x2="655.97" y2="2069.29" xlink:href="#linear-gradient-7"/><linearGradient id="linear-gradient-52" x1="702.07" y1="1774.67" x2="807.26" y2="1998.04" xlink:href="#linear-gradient-7"/><linearGradient id="linear-gradient-53" x1="1760.7" y1="1998.66" x2="1456.82" y2="1502.57" xlink:href="#linear-gradient-5"/><linearGradient id="linear-gradient-54" x1="1900.23" y1="1947.58" x2="1832.06" y2="1879.4" xlink:href="#linear-gradient-7"/><linearGradient id="linear-gradient-55" x1="1781.08" y1="2066.73" x2="1712.9" y2="1998.55" xlink:href="#linear-gradient-7"/><linearGradient id="linear-gradient-56" x1="1782.83" y1="2064.98" x2="1714.65" y2="1996.81" xlink:href="#linear-gradient-7"/><linearGradient id="linear-gradient-57" x1="1897.57" y1="1950.24" x2="1829.4" y2="1882.06" xlink:href="#linear-gradient-7"/><linearGradient id="linear-gradient-58" x1="1680.73" y1="1763.15" x2="1803.45" y2="2183.91" xlink:href="#linear-gradient-7"/><linearGradient id="linear-gradient-59" x1="1616.67" y1="1781.83" x2="1739.39" y2="2202.59" xlink:href="#linear-gradient-7"/><linearGradient id="linear-gradient-60" x1="1543.52" y1="1803.16" x2="1666.24" y2="2223.93" xlink:href="#linear-gradient-7"/><linearGradient id="linear-gradient-61" x1="1752.22" y1="1742.29" x2="1874.94" y2="2163.06" xlink:href="#linear-gradient-7"/><linearGradient id="linear-gradient-62" x1="234.5" y1="1778.89" x2="929.9" y2="3070.33" xlink:href="#linear-gradient-5"/><linearGradient id="linear-gradient-63" x1="905.64" y1="1762.88" x2="1406.18" y2="1762.88" xlink:href="#linear-gradient-7"/><linearGradient id="linear-gradient-64" x1="-4649.33" y1="977.39" x2="-4054.27" y2="1381.58" gradientTransform="matrix(-1, 0, 0, 1, -3745.13, 0)" gradientUnits="userSpaceOnUse"><stop offset="0" stop-color="#311944"/><stop offset="1" stop-color="#6b3976"/></linearGradient><linearGradient id="linear-gradient-65" x1="-4912.5" y1="1911.5" x2="-4832.36" y2="1911.5" xlink:href="#linear-gradient-64"/><linearGradient id="linear-gradient-66" x1="-4874.71" y1="1943.08" x2="-4755.14" y2="1584.39" gradientTransform="matrix(-1, 0, 0, 1, -3745.13, 0)" xlink:href="#linear-gradient-8"/><linearGradient id="linear-gradient-67" x1="-4899.74" y1="1764.35" x2="-4850.73" y2="1764.35" xlink:href="#linear-gradient-64"/><linearGradient id="linear-gradient-68" x1="-4928.15" y1="1898.93" x2="-4848.12" y2="1658.84" gradientTransform="matrix(-1, 0, 0, 1, -3745.13, 0)" xlink:href="#linear-gradient-8"/><linearGradient id="linear-gradient-69" x1="-4829.54" y1="1494.43" x2="-4769.85" y2="1839.53" gradientTransform="matrix(-1, 0, 0, 1, -3745.13, 0)" xlink:href="#linear-gradient-13"/><linearGradient id="linear-gradient-70" x1="-4745.24" y1="1903.42" x2="-4660.36" y2="1634.8" gradientTransform="matrix(-1, 0, 0, 1, -3745.13, 0)" xlink:href="#linear-gradient-13"/><linearGradient id="linear-gradient-71" x1="-4745.23" y1="1903.42" x2="-4660.35" y2="1634.81" gradientTransform="matrix(-1, 0, 0, 1, -3745.13, 0)" xlink:href="#linear-gradient-13"/><linearGradient id="linear-gradient-72" x1="-4625.8" y1="1459.6" x2="-4566.24" y2="1803.9" gradientTransform="matrix(-1, 0, 0, 1, -3745.13, 0)" xlink:href="#linear-gradient-13"/><linearGradient id="linear-gradient-73" x1="5591.58" y1="401.72" x2="5596.98" y2="258.11" gradientTransform="translate(-4645.2 -167.93) rotate(10.28)" xlink:href="#linear-gradient-8"/><linearGradient id="linear-gradient-74" x1="5589.9" y1="274.94" x2="5587.59" y2="460.87" gradientTransform="translate(-4645.2 -167.93) rotate(10.28)" xlink:href="#linear-gradient-8"/><linearGradient id="linear-gradient-75" x1="-3217.79" y1="1455.1" x2="-2986.58" y2="1455.1" gradientTransform="matrix(-1, 0, 0, 1, -2235.14, 0)" xlink:href="#linear-gradient-9"/><linearGradient id="linear-gradient-76" x1="-3365.65" y1="1309.25" x2="-3214.06" y2="1459.63" gradientTransform="matrix(-1, 0, 0, 1, -2235.14, 0)" xlink:href="#linear-gradient-9"/><linearGradient id="linear-gradient-77" x1="-3365.65" y1="1309.25" x2="-3214.06" y2="1459.63" gradientTransform="matrix(-1, 0, 0, 1, -2235.14, 0)" xlink:href="#linear-gradient-9"/><linearGradient id="linear-gradient-78" x1="3869.6" y1="1409.51" x2="3792.74" y2="1481.94" gradientTransform="translate(-3031.74)" xlink:href="#linear-gradient-8"/></defs><g class="cls-5"><g id="Layer_2" data-name="Layer 2"><g id="Illustration"><path class="cls-6" d="M1540.94,528.2l-64.9,4.38a505.5,505.5,0,0,0-29.37-83.6l53.84-36.14a31.93,31.93,0,0,0,8.43-44.57l-62.79-92.39a32.56,32.56,0,0,0-44.89-9l-54.56,36.41a522.38,522.38,0,0,0-67.32-58.14l28.78-59.08c7.75-15.93,1-35.28-15.17-43.22L1191.88,93.12c-16.2-8-35.66-1.5-43.46,14.46l-29,59.26a518.72,518.72,0,0,0-87.66-17.35l-5-66.47a33.21,33.21,0,0,0-35.09-30.38l-113,6.66a32,32,0,0,0-30.34,34.34l5.06,66.66a513.87,513.87,0,0,0-85,28l-38.11-55.58a33.63,33.63,0,0,0-46-9.19l-94.58,62.12A32.07,32.07,0,0,0,581,230.82l38.25,55.58a511.1,511.1,0,0,0-59.35,66.87l-61.2-29.56c-16.57-8-36.49-1.38-44.49,14.8l-50.06,101.3c-8,16.22-1.05,35.84,15.57,43.81l60.75,29.16a500.34,500.34,0,0,0-17.11,88.11l-67.26,4.54c-18.41,1.24-32.24,16.88-30.87,34.94l8.56,112.88c1.37,18,17.42,31.63,35.83,30.33l66.71-4.69a505.68,505.68,0,0,0,29.93,85.37l-54.88,36.63a32.33,32.33,0,0,0-8.79,45.48l64.84,93.39a33.65,33.65,0,0,0,46.26,8.54l54.45-36.54a522.22,522.22,0,0,0,69.47,59l-28.45,58.21a32.34,32.34,0,0,0,15.47,43.54l103,48.5a33.33,33.33,0,0,0,44.08-15.4l28.09-57.67a518.2,518.2,0,0,0,89.79,16.37l4.83,63.75a32.56,32.56,0,0,0,35.21,29.82l112.85-8.9a32.66,32.66,0,0,0,30.14-34.88l-4.82-63.56a514.07,514.07,0,0,0,85.51-29.78l36,52.35a32.59,32.59,0,0,0,45.19,8.35l92.55-63.1a32.2,32.2,0,0,0,8.48-44.85l-36.12-52.67A511.11,511.11,0,0,0,1397.68,953l57.75,27.72a32.29,32.29,0,0,0,43.06-15l48.2-100.05a32.21,32.21,0,0,0-15.08-42.95l-57.86-28a500.21,500.21,0,0,0,16.09-87.22l64.37-4.53a31.92,31.92,0,0,0,29.63-34.29l-8.39-110.65A32.47,32.47,0,0,0,1540.94,528.2Zm-585-198.81c181.89-11.55,339.58,124.63,353.2,304.11s-121.87,335.87-303.61,349.38c-182.83,13.6-343-122.4-356.8-303.85S773,341,955.93,329.39Z" transform="translate(0 -14.28)"/><g class="cls-7"><path class="cls-1" d="M877.73,2003.63c15.3-3,46-22.85,51.82-31.33,39-56.46,118.78-157.43,110-229.42-1.49-12.29-57.35-20.32-65.79-31.16-34.37-13.76-47.15-16.41-73.4-45.54-77.49-86,75.85-266.12-118.57-314-142.41-35.06-257.41,20.4-255.87-197.39S331,552.54,111.38,718.05c-126,95,18.85,271.1-40.31,411.33-56.22,133.25,5.19,236.26,147.33,305.29s72.5,133.23,40.23,258.55c-38.76,150.53,189.84,162.56,295.85,159.11C639.86,1849.56,859.11,1900.08,877.73,2003.63Z" transform="translate(0 -14.28)"/><g class="cls-8"><path class="cls-9" d="M983,1863.94l1.27-3.07C512.74,1666.29,207.74,1213,168.41,648.39l-3.31.23c18.64,267.6,100.36,519.7,236.31,729.05C544.34,1597.76,745.46,1765.91,983,1863.94Z" transform="translate(0 -14.28)"/><path class="cls-9" d="M235.34,1753.94c129.62-51.64,350.86-66.59,493.18-33.31l.75-3.23c-142.88-33.4-365-18.39-495.16,33.46Z" transform="translate(0 -14.28)"/><path class="cls-9" d="M890.9,1824.68l2.06-2.59c-59.45-47.31-92.7-122.86-98.82-224.54-4.49-74.55,5.44-161.16,29.51-257.43l-3.22-.8c-24.15,96.59-34.11,183.54-29.6,258.43C797,1700.41,830.68,1776.76,890.9,1824.68Z" transform="translate(0 -14.28)"/><path class="cls-9" d="M383.27,1347.2l2.19-2.48C278,1249.78,128.27,1231.91,21.58,1233.64l.06,3.31C127.74,1235.23,276.6,1253,383.27,1347.2Z" transform="translate(0 -14.28)"/><path class="cls-9" d="M243.66,1050.12l3.29-.45C225.29,889.59,309,742.13,360.84,668.48l-2.71-1.91C306,740.62,221.86,888.91,243.66,1050.12Z" transform="translate(0 -14.28)"/></g></g><g class="cls-7"><path class="cls-2" d="M875.73,2259.31c11.68-5.3,32.51-26.18,35.62-33.6,20.7-49.38,65.83-139.77,45.53-190.75-3.47-8.71-49.6-3.13-58.34-9.35-30-3-40.72-2.35-67.09-18.33-77.84-47.15,11.43-210.64-152.82-205.84-120.3,3.52-201.95,67.77-241-92.21s-267.19-401.5-412.1-235.11c-83.16,95.48,65.2,194.87,43.84,309.8-20.3,109.22,47.83,172.13,174.2,193.57s82.57,82.8,79.94,181.28c-3.15,118.31,181.79,80.23,265.88,55.95C657.12,2195.17,841.71,2187.22,875.73,2259.31Z" transform="translate(0 -14.28)"/><g class="cls-10"><path class="cls-9" d="M934.06,2135.3l.44-2.5c-412.86-45.9-740.43-315.6-876.25-721.45l-2.6.85c64.37,192.34,176.29,360.38,323.66,486C534.23,2030.18,726.06,2112.18,934.06,2135.3Z" transform="translate(0 -14.28)"/><path class="cls-9" d="M316.14,2208.06c94.05-64.45,268.11-120.79,388-125.6v-2.52c-120.37,4.83-295.13,61.41-389.56,126.12Z" transform="translate(0 -14.28)"/><path class="cls-9" d="M853.17,2125.42l1.16-2.32c-56.25-22.48-96.79-71-120.49-144.32-17.37-53.74-25.45-119.27-24-194.77l-2.71.07c-1.45,75.76,6.67,141.54,24.12,195.52C755.16,2053.59,796.18,2102.65,853.17,2125.42Z" transform="translate(0 -14.28)"/><path class="cls-9" d="M359.17,1879.55l1.3-2.27C257,1829.73,134.05,1847.35,49.1,1870.5l.66,2.42C134.24,1849.89,256.5,1832.35,359.17,1879.55Z" transform="translate(0 -14.28)"/><path class="cls-9" d="M192.67,1690.41l2.54-1C148.3,1576.5,188,1451.22,215.76,1386.6l-2.52-.84C185.28,1450.73,145.43,1576.71,192.67,1690.41Z" transform="translate(0 -14.28)"/></g></g><g class="cls-11"><g class="cls-7"><path class="cls-4" d="M1712.71,2198.75c-21.87,4.45-73.37-5.13-85.77-13.16-82.49-53.47-243.43-143.53-271.22-243.66-4.75-17.1,64.85-58.29,70.08-77.26,38-37,53.48-47.52,72.31-100.47,55.59-156.32-246-311-14.7-480.71,169.44-124.34,352.08-113.78,230.9-401.4S1643.13-22.25,2024.49,76.85c218.87,56.87,123.32,369.38,278.39,522.74,147.35,145.74,122.35,315.76-28.14,484.94s-23.14,216.11,88.15,364.44c133.68,178.17-162.52,319.15-304.81,372.57C1943.49,1864.56,1680.73,2051.41,1712.71,2198.75Z" transform="translate(0 -14.28)"/><g class="cls-12"><path class="cls-9" d="M1496.84,2071.32l-3.34-3.36C2011.6,1552.3,2167.62,785.14,1910.86,15.78l4.5-1.5c121.69,364.62,151.36,743.21,85.81,1094.86C1932.25,1478.82,1757.86,1811.54,1496.84,2071.32Z" transform="translate(0 -14.28)"/><path class="cls-9" d="M2427,1516.65c-199.92,2.5-501.12,103.73-671.42,225.65l-2.76-3.86c171-122.4,473.38-224,674.12-226.54Z" transform="translate(0 -14.28)"/><path class="cls-9" d="M1597.39,1968.93l-4.15-2.31c52.86-95.17,55.57-213.41,8.06-351.43-34.84-101.2-95.36-210.49-179.9-324.82l3.82-2.82c84.82,114.72,145.57,224.43,180.57,326.09C1653.75,1753,1650.93,1872.53,1597.39,1968.93Z" transform="translate(0 -14.28)"/><path class="cls-9" d="M2008.53,1058.86l-4.26-2.09c90.41-184.52,278.94-290.09,421.18-346.17l1.74,4.42C2285.73,770.79,2098.27,875.71,2008.53,1058.86Z" transform="translate(0 -14.28)"/><path class="cls-9" d="M2030.93,589l-4.59,1.21C1967.46,366.36,1775.92,216.85,1667,147.65l2.55-4C1779.05,213.22,1971.63,363.58,2030.93,589Z" transform="translate(0 -14.28)"/></g></g><g class="cls-7"><path class="cls-2" d="M1608.17,2160.44c-22-4-66.28-31.89-74.83-43.94-56.87-80.17-173.12-223.36-161.92-326.67,1.92-17.65,81.81-30.18,93.69-45.88,49-20.36,67.25-24.38,104.32-66.62,109.45-124.68-113.61-379.89,164.08-452.08,203.4-52.88,369.2,24.45,362.94-287.58s268.22-866.58,585.92-633.51c182.33,133.77-22,388.8,65.39,588.63,83,189.89-3.06,338.62-205.44,440.17s-101.4,192.25-52.83,371.21c58.33,215-269,236.45-421,233.48C1946.15,1935.25,1632.92,2011.72,1608.17,2160.44Z" transform="translate(0 -14.28)"/><g class="cls-13"><path class="cls-9" d="M1454.71,1962.23l-1.87-4.37c672-287.56,1100.65-942.68,1146.53-1752.45l4.74.27C2582.36,589.45,2470,952.19,2279,1254.68,2078.33,1572.69,1793.28,1817.36,1454.71,1962.23Z" transform="translate(0 -14.28)"/><path class="cls-9" d="M2524,1790.74c-186.68-71.59-504-88.9-707.26-38.58l-1.14-4.61c204.1-50.51,522.65-33.12,710.1,38.75Z" transform="translate(0 -14.28)"/><path class="cls-9" d="M1586,1904.27l-3-3.68c84.3-68.89,130.54-177.75,137.42-323.55,5-106.92-10.78-230.83-47.05-368.32l4.59-1.21c36.39,138,52.28,262.36,47.21,369.75C1718.19,1724.47,1671.38,1834.49,1586,1904.27Z" transform="translate(0 -14.28)"/><path class="cls-9" d="M2304.47,1210.69l-3.19-3.51c152.22-138,366.43-166.41,519.32-165.93V1046C2668.53,1045.52,2455.56,1073.69,2304.47,1210.69Z" transform="translate(0 -14.28)"/><path class="cls-9" d="M2499,782.43l-4.71-.58c28.06-229.78-94.63-439.51-170.26-544.08l3.84-2.78C2403.9,340.12,2527.25,551,2499,782.43Z" transform="translate(0 -14.28)"/></g></g></g><path class="cls-14" d="M2343.19,1480.81c29.77,15.12,67.17,1.24,83.54-31s5.5-70.62-24.27-85.74c-1.55-.78-3.12-1.44-4.7-2.07a378.08,378.08,0,0,0,12.5-53.8c1.71,0,3.42,0,5.16-.18,34-3,60.92-34.24,60.21-69.72s-28.82-61.78-62.79-58.75c-1.77.16-3.52.44-5.25.75a346.77,346.77,0,0,0-14.54-51.37c1.56-.92,3.11-1.86,4.63-2.93,29.06-20.35,38.35-60.54,20.75-89.74s-55.42-36.38-84.48-16c-1.49,1-2.89,2.17-4.27,3.31A306.81,306.81,0,0,0,2292,988.38c1-1.57,1.9-3.16,2.75-4.83,16.36-32.23,37.75-67.45,7.75-82.09-69.41-33.88-99.19-4.88-115.56,27.36-.85,1.66-1.58,3.36-2.28,5.06a307.22,307.22,0,0,0-50.64-9.67c.11-1.79.19-3.58.15-5.4-.71-35.48,9.82-54.67-24.28-55.33-74.34-1.45-99.43,30.82-98.71,66.29,0,1.86.19,3.67.37,5.47a346.53,346.53,0,0,0-50,18.57c-.78-1.58-1.58-3.15-2.5-4.68-17.6-29.21-55.42-36.38-84.48-16s-38.35,60.54-20.75,89.75c.9,1.5,1.89,2.89,2.89,4.27a377.91,377.91,0,0,0-36.06,41.84c-1.44-.9-2.9-1.79-4.44-2.57-29.77-15.11-67.17-1.24-83.54,31s-5.5,70.62,24.27,85.73c1.55.79,3.12,1.45,4.7,2.07a378.4,378.4,0,0,0-12.5,53.8c-1.71,0-3.42,0-5.16.19-34,3-60.92,34.24-60.21,69.71s28.82,61.78,62.79,58.75c1.77-.16,3.52-.44,5.25-.75a346.89,346.89,0,0,0,14.54,51.38c-1.56.91-3.11,1.86-4.63,2.92-29.06,20.36-38.35,60.54-20.75,89.75s75.86,42.77,104.92,22.42c1.48-1-17.55-8.57-16.17-9.71a307.51,307.51,0,0,0,37.69,35.17c-1,1.57-1.9,3.16-2.75,4.83-16.36,32.24-5.5,70.62,24.27,85.74s67.17,1.23,83.54-31c.85-1.67,1.58-3.37,2.28-5.06a307.19,307.19,0,0,0,50.64,9.66c-.11,1.79-.19,3.59-.15,5.41.71,35.47,28.82,61.77,62.78,58.75s60.93-34.24,60.21-69.72c0-1.85-.19-3.66-.37-5.46a346.14,346.14,0,0,0,50-18.58c.78,1.58,1.58,3.16,2.5,4.68,17.6,29.21,55.42,36.38,84.48,16s38.35-60.54,20.75-89.74c-.9-1.5-1.89-2.9-2.89-4.28a377.8,377.8,0,0,0,36.06-41.83C2340.19,1479.15,2341.65,1480,2343.19,1480.81Zm-371.11,4.71c-108.09-54.88-147.54-194.24-88.12-311.28s195.22-167.43,303.3-112.55,147.54,194.25,88.12,311.28S2080.16,1540.4,1972.08,1485.52Z" transform="translate(0 -14.28)"/><path class="cls-15" d="M2415.42,1308c34-3,60.92-34.24,60.21-69.72s-28.82-61.78-62.79-58.75c-1.77.16-3.52.44-5.25.75a346.77,346.77,0,0,0-14.54-51.37c1.56-.92,3.11-1.86,4.63-2.93,29.06-20.35,65-69.55,44.51-96.79-38.91-51.72-79.18-29.33-108.24-9-1.49,1-2.89,2.17-4.27,3.31A306.81,306.81,0,0,0,2292,988.38c1-1.57,1.9-3.16,2.75-4.83a67.67,67.67,0,0,0,3.81-53.33q-42.11,74.1-83,148.89c86.23,63.18,113.68,187.71,59.78,293.87-45.67,90-136.47,140.47-225.12,134.14-4,10.26-7.84,20.57-12.07,30.72-11.49,27.57-24.55,54.56-37.62,81.52q12.33,2.33,24.76,3.64c-.11,1.79-.19,3.59-.15,5.41.71,35.47,22.24,65.61,83.8,62.35,34.05-1.81,39.9-37.84,39.19-73.32,0-1.85-.19-3.66-.37-5.46a346.14,346.14,0,0,0,50-18.58c.78,1.58,1.58,3.16,2.5,4.68,17.6,29.21,78.65,41.62,107.71,21.26s15.12-65.78-2.48-95c-.9-1.5-1.89-2.9-2.89-4.28a377.8,377.8,0,0,0,36.06-41.83c1.44.9,2.9,1.78,4.44,2.56,29.77,15.12,67.17,1.24,83.54-31s5.5-70.63-24.27-85.74c-1.55-.78-3.12-1.44-4.7-2.07a378.27,378.27,0,0,0,12.5-53.79C2412,1308.21,2413.68,1308.18,2415.42,1308Z" transform="translate(0 -14.28)"/><path class="cls-16" d="M2375.21,1484.46c29.77,15.11,67.17,1.23,83.54-31s5.5-70.62-24.27-85.74c-1.55-.78-3.12-1.44-4.7-2.07a378.27,378.27,0,0,0,12.5-53.79c1.7,0,3.42,0,5.16-.19,34-3,60.92-34.24,60.21-69.72s-28.82-61.77-62.79-58.75c-1.77.16-3.52.44-5.25.75a346.77,346.77,0,0,0-14.54-51.37c1.56-.92,3.11-1.86,4.63-2.92,29.06-20.36,38.35-60.54,20.75-89.75s-55.42-36.38-84.48-16c-1.49,1-2.89,2.17-4.27,3.31A306.81,306.81,0,0,0,2324,992c1-1.57,1.9-3.16,2.75-4.83,16.36-32.23,5.5-70.62-24.27-85.73s-67.17-1.24-83.54,31c-.85,1.67-1.58,3.36-2.28,5.06a306.16,306.16,0,0,0-50.64-9.66c.11-1.8.19-3.59.15-5.41-.71-35.47-28.82-61.78-62.78-58.75s-60.93,34.24-60.21,69.71c0,1.86.19,3.67.37,5.47a346.14,346.14,0,0,0-50,18.58c-.78-1.59-1.58-3.16-2.5-4.69-17.6-29.2-55.42-36.38-84.48-16s-38.35,60.54-20.75,89.75c.9,1.5,1.89,2.9,2.89,4.28a377.8,377.8,0,0,0-36.06,41.83c-1.44-.9-2.9-1.78-4.44-2.57-29.77-15.11-67.17-1.23-83.54,31s-5.5,70.62,24.27,85.74c1.54.78,3.12,1.44,4.7,2.07a378,378,0,0,0-12.5,53.79c-1.71,0-3.42,0-5.16.19-34,3-60.92,34.24-60.21,69.71s28.82,61.78,62.79,58.75c1.77-.16,3.52-.44,5.25-.74a346.77,346.77,0,0,0,14.54,51.37c-1.56.91-3.11,1.86-4.63,2.92-29.06,20.36-38.35,60.54-20.75,89.75s55.42,36.38,84.48,16c1.48-1,2.89-2.17,4.27-3.31a306.73,306.73,0,0,0,37.69,35.17c-1,1.58-1.9,3.17-2.75,4.84-16.36,32.23-5.5,70.61,24.27,85.73s67.17,1.24,83.54-31c.85-1.67,1.58-3.36,2.28-5.06a307.19,307.19,0,0,0,50.64,9.66c-.11,1.79-.19,3.59-.15,5.41.71,35.47,28.82,61.77,62.78,58.75s60.92-34.24,60.21-69.72c0-1.85-.19-3.66-.37-5.46a346.58,346.58,0,0,0,50-18.58c.78,1.58,1.58,3.16,2.5,4.68,17.6,29.21,55.42,36.38,84.48,16s38.35-60.54,20.75-89.75c-.9-1.5-1.89-2.9-2.89-4.28a377.8,377.8,0,0,0,36.06-41.83C2372.21,1482.79,2373.67,1483.67,2375.21,1484.46Zm-371.11,4.7c-108.09-54.88-147.55-194.24-88.12-311.28s195.21-167.43,303.3-112.55,147.54,194.25,88.12,311.29S2112.18,1544,2004.1,1489.16Z" transform="translate(0 -14.28)"/><polygon class="cls-17" points="2453.26 2354.72 2494.21 2374.72 2501.21 2356.22 2473.62 2333.06 2453.26 2354.72"/><path class="cls-18" d="M2494.85,2373a6.06,6.06,0,0,1,6.48-4.76,13.58,13.58,0,0,1,8.62,3.74c4.48,4.71,3.16,11.95.72,25-2.33,12.39-3.6,18.65-9,22.36s-11.87,2.95-16.53,2.43c-4.27-.48-11-1.24-13.08-5.89a7.63,7.63,0,0,1,.36-6.93c2.87-4.38,9.73-1.66,13.85-6.2.66-.71,1.15-1.51,2.5-7.36C2491.85,2382,2493.54,2379,2494.85,2373Z" transform="translate(0 -14.28)"/><path class="cls-19" d="M2380.22,1912.93c-13.51,9.48-100.71,72.83-111.11,186.79-8,87.39,34.11,150.74,46.48,168.77,50.4,73.44,121.56,98.49,143.66,105.33l22.26-21.29a201,201,0,0,1,36.65-360.1c3.77-8.46,17.39-41.47,2.87-67C2502.33,1892.42,2440.88,1878.76,2380.22,1912.93Z" transform="translate(0 -14.28)"/><path class="cls-18" d="M2795.24,2488.26l3.9,6.25c0,10.68.18,19.69-9.76,15.81-9.7-3.79-35.14-9-40.77-11.31-12-4.89-23.49-13.22-24.48-18.79s33.11,0,43.76.23S2795.24,2488.26,2795.24,2488.26Z" transform="translate(0 -14.28)"/><path class="cls-20" d="M2780.36,2439.82,2794,2491.5s-8.78,5.18-24-8.43l-22.48-43.25Z" transform="translate(0 -14.28)"/><path class="cls-21" d="M2518.16,1992.43c3.77-8.46,17.39-41.47,2.87-67-17.72-31.24-73.86-45.07-131.32-17.33,13.1,37.45,9,58,.09,70-13.61,18.36-39,17.64-44.06,37.35-5.72,22.31,23.26,37,17.24,58.44-5.39,19.2-30.62,14.14-46.94,36.4-19.57,26.7-14.48,76.58,9.58,103.45,18.6,20.77,39.16,17.32,50.77,41.19,9.13,18.76-1.37,25.4,6.71,42.15,14.3,29.63,53.55,21.95,75.67,52.68a62.09,62.09,0,0,1,8.4,16.51l14.34-13.71c-66.18-41-103-116.57-94.39-193.61A201.71,201.71,0,0,1,2518.16,1992.43Z" transform="translate(0 -14.28)"/><path class="cls-22" d="M2380.22,1924c28.7,70.67,98.79,204.6,158.85,293.9a1346.25,1346.25,0,0,0,214.73,247.7,56.77,56.77,0,0,0,42.15-4.79,558.26,558.26,0,0,0-27.78-89.09c-39.85-98-83.79-125.21-124.53-191.58-86.33-140.68-36.12-258.45-94.37-280.83C2525.86,1890.34,2456.22,1847.54,2380.22,1924Z" transform="translate(0 -14.28)"/><path class="cls-23" d="M2454.94,1328.61c1.6-13.52,1-7.92,2.65-21.44,8.78,4.38,112.64,58.42,128.26,176.62,11.63,88-30.3,176.35-107.28,226.07-149.63-108.43-173.48-142.73-167.31-153.9,9.39-17,86,24.26,141.76-16,29-20.88,37.85-53.29,41.16-65.4C2514.71,1399.69,2461,1335.65,2454.94,1328.61Z" transform="translate(0 -14.28)"/><path class="cls-24" d="M1804.08,1524.1q14.91-10.74,29.8-21.5a373.48,373.48,0,0,0,124.87,59.1c65.66,17.11,104.33,4.15,196.82-2.34,137.31-9.65,206-14.46,259.14,15.29,88.62,49.6,125.87,157.57,136.66,188.85,11.63,33.73,17.76,68.81,24.26,106,8.44,48.26,12.51,72.62,5.28,84.27-25.66,41.42-152.11,34.69-235-29.53C2278.44,1872,2296,1825.4,2226.57,1772c-62.23-47.88-109.71-36.09-187.91-62.58C1975.06,1687.88,1889.55,1640.46,1804.08,1524.1Z" transform="translate(0 -14.28)"/><path class="cls-25" d="M2464,1253.36s16.43,24.49,12.81,47.47-21.82,27.78-21.82,27.78Z" transform="translate(0 -14.28)"/><path class="cls-26" d="M1826.21,1508.14,1809.32,1487l-24-22.3s-7.34,6.31,8.45,22.28a11.5,11.5,0,0,1,3.2,10c-.83,6.68-7.11,11.34-13.83,11.11l-39.65.3s22.74,21.55,60.54,15.72Z" transform="translate(0 -14.28)"/><path class="cls-27" d="M2251.16,1552a3.68,3.68,0,0,0-.8,7.24c25.39,6.65,64.79,15.84,78.16,12.67,3.9-.92,24.93-7.17,27.36-8.21,5.9-2.54-9.29-6.61-14.77-10l-6-1.2a10.55,10.55,0,0,1-4.72-11.49l3.8-15.42-24.39-6.48-6,17.8a19.92,19.92,0,0,1-18,13.58Z" transform="translate(0 -14.28)"/><path class="cls-28" d="M2312.7,1535c-1.9-1-17.36-2.92-19.49-11.23-2.89-11.28,7.25-25,8.51-27.23,5.29-9.25,6.62-10.5,9.08-12.07l3.41-2,.41-.14c2.18-.72,9.55-.78,11-.43,4.74,1.13,9.38,20.66,7.31,48.08.18,1,.34,2.11.5,3.18C2333.88,1535.93,2312.56,1536,2312.7,1535Z" transform="translate(0 -14.28)"/><path class="cls-18" d="M2298.16,1480.72c1.78,5.17,8.85,10.52,12,12.91a14.15,14.15,0,0,1,3,3.43,4.13,4.13,0,0,1,.46,1c1.75,5.41-6.92,11.52-5.33,14,1.16,1.77,7-.43,7.66,1.09s-4.27,4.25-3.57,6c.53,1.29,3.52.19,5.34,2.19.91,1,.62,1.76,1.54,4.77a27.18,27.18,0,0,0,1.84,4.61c2.83,5.06,11.11,7.07,12.76,5.11.45-.55.08-1,.58-2.89a14.83,14.83,0,0,1,1.71-3.69c1.79-2.83,6-4.78,10.25-7.7,7.9-5.42,10.12-10.14,10.79-11.74l.2-.49c.11-.27.21-.55.29-.82,1.79-5.77-2.78-12-5.24-14.89a79.23,79.23,0,0,0-18.15-15.65c-2.36-1.48-25.36-15.68-33.8-8.66C2297.48,1471.74,2297,1477.2,2298.16,1480.72Z" transform="translate(0 -14.28)"/><path class="cls-29" d="M2311.4,1510.1c2.14-2.82,5.75,0,5.68,3.66s-3.74,7.48-7.2,6.67S2308.5,1513.89,2311.4,1510.1Z" transform="translate(0 -14.28)"/><path class="cls-30" d="M2476,1929.53c-21.91-26.57,10.42-79-20.43-109.84-22.38-22.33-47.71-3-79.19-25.54-41.84-29.92-18-86.2-56.19-102.17-40.32-16.89-76.32,22.39-127.72,2.55-33.88-13.07-27.86-33.84-61.31-53.64-58-34.34-109.68,8.3-189-2.56a198.18,198.18,0,0,1-44.67-11.58c52.11,45.09,101,69.07,141.18,82.67,78.2,26.49,125.68,14.7,187.91,62.58,69.39,53.4,51.87,100,119.3,152.24,82.93,64.22,209.38,71,235.05,29.53,3-4.82,4-11.88,3.63-21.86C2518.51,1951,2488.55,1944.74,2476,1929.53Z" transform="translate(0 -14.28)"/><path class="cls-31" d="M1389.44,1020.35c0-102-94.06-181.57-206.08-177.92-63.8,2.07-119.31,30.83-154,73.29v0c-.21.27-.41.54-.63.81-.6.74-1.18,1.49-1.76,2.25-1.07,1.37-2.13,2.74-3.16,4.14l-1.79,2.49q-1.49,2.1-2.9,4.23c-.54.81-1.09,1.62-1.62,2.44q-1.57,2.46-3.07,5c-.36.61-.74,1.2-1.09,1.81q-2,3.4-3.79,6.88c-.32.62-.61,1.25-.92,1.87-.88,1.74-1.74,3.49-2.56,5.26-.4.87-.78,1.75-1.17,2.62-.69,1.57-1.36,3.14-2,4.73-.38.92-.74,1.85-1.1,2.78-.63,1.63-1.22,3.27-1.79,4.92-.3.86-.61,1.72-.9,2.59q-1,3.12-1.92,6.28c-.13.44-.27.87-.39,1.31-.7,2.54-1.34,5.11-1.92,7.69-.17.76-.31,1.53-.46,2.3-.39,1.85-.76,3.71-1.08,5.58-.16,1-.31,1.92-.46,2.87-.26,1.74-.5,3.48-.71,5.22-.12,1-.23,2-.33,2.95-.19,1.84-.34,3.7-.46,5.56-.06.86-.13,1.72-.18,2.59-.13,2.72-.22,5.45-.22,8.19,0,65.44,39.63,123.15,99,154.06q8.2,4.26,16.89,7.84,4.35,1.78,8.81,3.39a218.84,218.84,0,0,0,67.62,12.66h0c3.3.1,6.58.11,9.84.07,1.11,0,2.2-.08,3.3-.11,2.16-.06,4.32-.13,6.46-.25,1.31-.08,2.61-.2,3.91-.3,1.92-.14,3.83-.29,5.73-.48,1.4-.14,2.78-.32,4.16-.49,1.8-.21,3.6-.44,5.38-.7,1.42-.2,2.84-.44,4.25-.67,1.73-.29,3.45-.59,5.16-.92,1.43-.27,2.85-.56,4.27-.86,1.68-.35,3.34-.73,5-1.12,1.42-.34,2.84-.68,4.25-1q2.46-.64,4.89-1.34c1.4-.39,2.8-.79,4.18-1.21.51-.15,1-.29,1.54-.45l0,0C1333.15,1164.78,1389.44,1099,1389.44,1020.35Z" transform="translate(0 -14.28)"/><path class="cls-32" d="M1374.05,1020.38c0,101.7-93.58,181.42-205,178.16C1061.69,1195.41,977.59,1116,977.59,1021s84.1-174.65,191.41-178.14C1280.47,839.27,1374.05,918.68,1374.05,1020.38Z" transform="translate(0 -14.28)"/><path class="cls-33" d="M1156.18,915.88l-30,55.24-60.59,7.28c-8.74,1.05-12.87,11.94-7,18.48l40.92,45.51-14,62.63c-2.06,9.21,6.88,16.84,15.13,12.87l57-27.35,55.32,33.58a11.34,11.34,0,0,0,17.07-11.42l-8.48-65.31,47.93-43.65a11.36,11.36,0,0,0-5.69-19.61l-62.92-11-25.22-57C1172.07,908,1160.55,907.84,1156.18,915.88Z" transform="translate(0 -14.28)"/><g class="cls-34"><path class="cls-35" d="M1217.48,1154.28c-24.19-53.25.27-102.46-32.39-136.61-32.81-34.31-74.88-2.24-119.48-29.69-17.06-10.5-35.9-30.59-49.83-72-24,29.49-38.19,65.86-38.19,105.07,0,95,84.1,174.38,191.41,177.51a218.5,218.5,0,0,0,72-9.85A122.53,122.53,0,0,1,1217.48,1154.28Z" transform="translate(0 -14.28)"/></g><path class="cls-36" d="M1201.22,651.86a109.77,109.77,0,0,1-.26,11.78c-.18,1.66-.21,3.31-.46,4.94-.52,3.28-1.08,6.51-1.9,9.69-.39,1.59-.78,3.18-1.24,4.74-.32,1-.63,2.09-1,3.12-8.1,24.26-24.59,45.29-46.56,61-.48.34-.93.68-1.41,1A152.64,152.64,0,0,1,1124,762l-1.62.72q-5.74,2.54-11.79,4.65c-1.71.59-3.46,1.17-5.21,1.7-1.17.38-2.34.74-3.53,1.08-1.77.51-3.55,1-5.36,1.44-1.19.3-2.4.6-3.61.88a178.48,178.48,0,0,1-47.85,4.31c-1.23-.06-2.47-.12-3.68-.2l-1-.08-.3,0c-.77-.06-1.55-.1-2.3-.18l-1.15-.1-2.52-.24-1.07-.14c-.86-.08-1.73-.18-2.59-.29l-.93-.12c-.91-.12-1.83-.24-2.76-.38l-.69-.12c-1-.14-2-.3-3-.48-.14,0-.28-1.42-.4-1.44-1.13-.2-2.26-2-3.37-2h0c-9.45,0-18.55-3-27.18-6.16,0,0,0,.67,0,.65-2.7-1-5.37-1.72-8-2.85-2.32-1-4.6-1.89-6.85-3-1.09.87-2.36,1.87-3.77,2.84a150.78,150.78,0,0,1-46.85-31.22c1.5-2.05,3-4.17,4.28-6.41-18.6-21.21-29.52-47.27-29.52-75,0-66.61,62.8-122.52,143.69-125,2.64-.08,4.56-.1,7.16-.06,79.26,1,145.83,53.63,148.27,121.45v3.08C1200.42,650.13,1201.22,651,1201.22,651.86Z" transform="translate(0 -14.28)"/><path class="cls-37" d="M1191.19,651.41c0,71.13-68.81,126.05-151.23,125-1.9,0-3.83-.08-5.75-.16-1.75-.08-3.5-.18-5.23-.32s-3.53-.28-5.28-.45c-.35,0-.71-.06-1.07-.12-1.13-.12-2.24-.24-3.37-.4s-2.21-.28-3.32-.46c-1.59-.22-3.18-.47-4.75-.75l-2.81-.52a171,171,0,0,1-27.17-7.58c-2.66-1-5.26-2-7.82-3.14a150.73,150.73,0,0,1-46.85-31.27c-22.54-22.32-36-51.07-36-81.94,0-66.61,62.8-122.52,143.69-125a177.56,177.56,0,0,1,18.64.39c65.77,4.76,120.59,45.08,134.76,99.07v0c.36,1.36.69,2.72,1,4.1.09.44.18.89.28,1.33.22,1.09.45,2.19.65,3.29.29,1.62.55,3.25.76,4.89,0,0,0,0,0,.08.08.61.16,1.25.22,1.86.1.78.18,1.55.24,2.33s.16,1.72.2,2.58l.06.79c.06,1,.09,2,.11,3S1191.19,650.29,1191.19,651.41Z" transform="translate(0 -14.28)"/><path class="cls-37" d="M1191.19,651.41c0,71.13-68.81,126.05-151.23,125-1.9,0-3.83-.08-5.75-.16-1.75-.08-3.5-.18-5.23-.32s-3.53-.28-5.28-.45c-.35,0-.71-.06-1.07-.12-1.13-.12-2.24-.24-3.37-.4s-2.21-.28-3.32-.46c-1.59-.22-3.18-.47-4.75-.75l-2.81-.52a171,171,0,0,1-27.17-7.58c-2.66-1-5.26-2-7.82-3.14a150.73,150.73,0,0,1-46.85-31.27c-22.54-22.32-36-51.07-36-81.94,0-66.61,62.8-122.52,143.69-125a177.56,177.56,0,0,1,18.64.39c65.77,4.76,120.59,45.08,134.76,99.07v0c.36,1.36.69,2.72,1,4.1.09.44.18.89.28,1.33.22,1.09.45,2.19.65,3.29.29,1.62.55,3.25.76,4.89,0,0,0,0,0,.08.08.61.16,1.25.22,1.86.1.78.18,1.55.24,2.33s.16,1.72.2,2.58l.06.79c.06,1,.09,2,.11,3S1191.19,650.29,1191.19,651.41Z" transform="translate(0 -14.28)"/><path class="cls-33" d="M951.81,616.64h0c6.08-17.34,21.27-29.79,39.22-30,23.71-.29,43.17,20.82,43.17,47.14,0-26.32,19.69-47.9,44.29-48.2,19.11-.22,35.61,12.42,42.31,30.53h0c25.64,65.39-86.6,122.75-86.6,122.75S928.93,678.1,951.81,616.64Z" transform="translate(0 -14.28)"/><g class="cls-38"><path class="cls-39" d="M998.16,742.94c17.81-36.38-.2-71.21,23.93-94.84,24.86-24.36,57.73-1.38,93.82-21.53,14.15-7.91,30-23.14,41.92-54.61,20.85,21.77,33.36,49.37,33.36,79.44,0,72.78-72,128.61-157,124.87a175.31,175.31,0,0,1-53-10.57A77.59,77.59,0,0,0,998.16,742.94Z" transform="translate(0 -14.28)"/></g><path class="cls-40" d="M794.79,744.24c65.41,2,120.34,41.94,131.05,92.49a1.42,1.42,0,0,0,0,.2c.58,2.77,1,5.56,1.33,8.39,0,.19,0,.37.07.56.13,1.32.24,2.65.31,4l0,.72c.07,1.37.11,2.73.11,4.1,0,58.75-60,103.26-132.94,99.49q-2.91-.15-5.79-.41l-.56,0c-1.82-.16-3.62-.36-5.42-.58l-.84-.1c-1.73-.22-3.46-.48-5.18-.75l-1-.16c-1.68-.28-3.36-.59-5-.92l-1-.2q-2.47-.51-4.92-1.09l-1-.23c-1.62-.4-3.23-.81-4.82-1.26l-.85-.24c-1.44-.41-2.86-.83-4.28-1.28l-1.07-.33c-1.44-.47-2.86-1-4.27-1.45l-.92-.31h0c-48.51-17.5-82.62-56.89-82.62-100.94C665.31,786.65,722.86,742,794.79,744.24Z" transform="translate(0 -14.28)"/><path class="cls-41" d="M651.46,843.86c0,57.22,57.56,106.58,129.49,110.31,73,3.77,132.94-40.74,132.94-99.49s-60-108.2-132.94-110.44C709,742,651.46,786.65,651.46,843.86Z" transform="translate(0 -14.28)"/><path class="cls-33" d="M734.24,825.87c0,16.8,19.56,56.75,33.38,82.89,5.75,10.88,20.91,11.61,26.69,1.26,13.93-25,33.78-63.53,33.78-80.49,0-26.17-21.16-48.11-47.14-49A44.9,44.9,0,0,0,734.24,825.87Zm21.58.84A24.1,24.1,0,0,1,781,802.37a26.48,26.48,0,0,1,25.25,26.31A24.09,24.09,0,0,1,781,853,26.48,26.48,0,0,1,755.82,826.71Z" transform="translate(0 -14.28)"/><g class="cls-38"><path class="cls-42" d="M749.2,925.87C765,895.7,749,866.08,770.33,847c21.74-19.48,50.13.62,80.87-14.81,11.93-6,25.24-17.85,35.15-43,17.25,18.48,27.54,41.22,27.54,65.48,0,58.75-60,103.26-132.94,99.49a163.5,163.5,0,0,1-46.87-9.36A64.45,64.45,0,0,0,749.2,925.87Z" transform="translate(0 -14.28)"/></g><path class="cls-43" d="M1948.84,2318.32,1825.49,1717.8C1801,1598.58,1687,1525.28,1574,1558l-51,14.79a204,204,0,0,1-56.39,8.06l-114,.25-468.92,1-123.48.26a237.43,237.43,0,0,1-62.61-8.27l-57.55-15.59c-130.44-35.33-266.63,45-296.49,177.1l-153.84,680.5c-25.73,113.81,39,222.58,150,253.81h0c123.56,34.74,257.05-42.53,291.06-166.46L683.68,2311c11-39.92,47-68.85,87.86-70.73l684.8-31.52c37-1.71,69.34,22.57,79.11,59.28l46.71,175.51c29.74,111.77,144,165.84,246.44,118.31h0C1918,2520.35,1969,2416.57,1948.84,2318.32Z" transform="translate(0 -14.28)"/><path class="cls-44" d="M1348.71,1897.63l-381.45,10.65c-34,1-61.62-30.42-61.62-70.06v-256l500.54-1.25v246C1406.18,1865.14,1380.52,1896.75,1348.71,1897.63Z" transform="translate(0 -14.28)"/><path class="cls-45" d="M1661.45,2410.38c-1.2-44.8,20.14-67.88,15.58-136.36-2.13-32-8.19-123-68.18-169.47-57.47-44.51-136.89-26.8-239.6-3.9-132.34,29.52-127.22,61.22-220.12,74-135.44,18.67-183.72-43.54-282.45-11.69-49.23,15.88-86.8,47.36-115,80.46a92.24,92.24,0,0,1,19.88-3.17l684.8-31.52c37-1.71,69.34,22.57,79.11,59.28l46.71,175.51c24.13,90.7,103.93,143.39,187.89,134.64C1684.12,2510.24,1662.59,2453.06,1661.45,2410.38Z" transform="translate(0 -14.28)"/><path class="cls-46" d="M837.65,1836.62c0,111.25-91,204.41-204.89,208.11-115.58,3.76-210.57-85.84-210.57-200.18s95-207.56,210.57-208.22C746.61,1635.69,837.65,1725.36,837.65,1836.62Z" transform="translate(0 -14.28)"/><path class="cls-47" d="M1070,2101.4c0,89.93-72.34,166.33-162.56,170.69-91.33,4.42-166.19-66.48-166.19-158.41s74.86-168.43,166.19-170.83C997.67,1940.48,1070,2011.47,1070,2101.4Z" transform="translate(0 -14.28)"/><path class="cls-48" d="M1038.68,2102.57c0,72.6-58.47,134.15-131.23,137.51-73.49,3.4-133.59-53.73-133.59-127.62S834,1977,907.45,1974.86C980.21,1972.79,1038.68,2030,1038.68,2102.57Z" transform="translate(0 -14.28)"/><path class="cls-49" d="M1012.7,2104c0,50.56-40.68,93.53-91.41,96-51.36,2.48-93.45-37.39-93.45-89.08s42.09-94.71,93.45-96.06C972,2013.55,1012.7,2053.47,1012.7,2104Z" transform="translate(0 -14.28)"/><path class="cls-50" d="M995.09,2104.69c0,40.83-32.88,75.44-73.8,77.33-41.32,1.91-75.12-30.21-75.12-71.76s33.8-76.2,75.12-77.38A71.28,71.28,0,0,1,995.09,2104.69Z" transform="translate(0 -14.28)"/><path class="cls-51" d="M1554.18,2081.31c0,86.65-67.15,160.14-150.87,164.19-84.71,4.1-154.11-64.29-154.11-152.8s69.4-162.08,154.11-164.31C1487,1926.19,1554.18,1994.66,1554.18,2081.31Z" transform="translate(0 -14.28)"/><path class="cls-52" d="M1525.09,2082.4c0,69.94-54.27,129.15-121.78,132.27-68.16,3.15-123.89-52-123.89-123.1s55.73-130.41,123.89-132.35C1470.82,1957.3,1525.09,2012.45,1525.09,2082.4Z" transform="translate(0 -14.28)"/><path class="cls-53" d="M1514.58,2083.55c0,50.57-40.68,93.53-91.41,96-51.36,2.48-93.45-37.39-93.45-89.08s42.09-94.71,93.45-96.06C1473.9,1993.06,1514.58,2033,1514.58,2083.55Z" transform="translate(0 -14.28)"/><path class="cls-54" d="M1497,2084.21c0,40.82-32.87,75.44-73.79,77.33-41.32,1.91-75.12-30.21-75.12-71.77s33.8-76.2,75.12-77.37A71.27,71.27,0,0,1,1497,2084.21Z" transform="translate(0 -14.28)"/><path class="cls-55" d="M837.7,1714.94h0a25,25,0,0,1-25.37-25v-44.48A25.48,25.48,0,0,1,837.69,1620h0a25.11,25.11,0,0,1,25.29,25.1v44.32A25.59,25.59,0,0,1,837.7,1714.94Z" transform="translate(0 -14.28)"/><path class="cls-56" d="M1453.21,1707.49h0c-12.76.14-23.13-10.56-23.13-23.9v-42.46c0-13.35,10.37-24.21,23.13-24.27h0c12.75-.06,23.06,10.67,23.06,24v42.33C1476.27,1696.46,1466,1707.35,1453.21,1707.49Z" transform="translate(0 -14.28)"/><path class="cls-57" d="M654.54,1692.6l-43.63.41a23.36,23.36,0,0,0-23.3,23.1v49.65a22.33,22.33,0,0,0,3.89,12.59l19.74,28.85a22.88,22.88,0,0,0,19.35,9.87l4.33-.07a23.75,23.75,0,0,0,19.3-10.52l19.57-29.36a22.8,22.8,0,0,0,3.85-12.63v-49.36A22.66,22.66,0,0,0,654.54,1692.6Z" transform="translate(0 -14.28)"/><path class="cls-58" d="M654.54,1987.63l-43.63,1.26a22.31,22.31,0,0,1-23.3-22.21V1917a23.06,23.06,0,0,1,3.89-12.74l19.74-29.61a23.91,23.91,0,0,1,19.35-10.6l4.33-.09a22.72,22.72,0,0,1,19.3,9.78l19.57,28.61a22.08,22.08,0,0,1,3.85,12.48v49.36A23.73,23.73,0,0,1,654.54,1987.63Z" transform="translate(0 -14.28)"/><path class="cls-59" d="M481,1821.77v43.32c0,12.73,10.58,22.81,23.62,22.52l51-1.13a24.26,24.26,0,0,0,13-4.1l29.79-20a23.29,23.29,0,0,0,10.41-19.25v-4.26A22.27,22.27,0,0,0,598.41,1820l-29.79-18.87a23.54,23.54,0,0,0-13-3.62l-51,.83C491.59,1798.56,481,1809.05,481,1821.77Z" transform="translate(0 -14.28)"/><path class="cls-60" d="M781.54,1816.45v42.48A23.28,23.28,0,0,1,758.76,1882l-49.68,1.1a22.81,22.81,0,0,1-12.72-3.51L667,1861a22.15,22.15,0,0,1-10.33-18.76V1838A23.14,23.14,0,0,1,667,1818.8L696.36,1799a23.44,23.44,0,0,1,12.72-4l49.68-.8A22.23,22.23,0,0,1,781.54,1816.45Z" transform="translate(0 -14.28)"/><path class="cls-61" d="M664.28,1694.76l-43.63.41a23.36,23.36,0,0,0-23.3,23.1v49.65a22.33,22.33,0,0,0,3.89,12.59L621,1809.36a22.85,22.85,0,0,0,19.35,9.87l4.33-.07a23.75,23.75,0,0,0,19.3-10.52l19.57-29.36a22.77,22.77,0,0,0,3.85-12.63v-49.36A22.66,22.66,0,0,0,664.28,1694.76Z" transform="translate(0 -14.28)"/><path class="cls-62" d="M664.28,1989.79l-43.63,1.26a22.31,22.31,0,0,1-23.3-22.21v-49.65a23.06,23.06,0,0,1,3.89-12.74L621,1876.84a23.91,23.91,0,0,1,19.35-10.6l4.33-.09a22.72,22.72,0,0,1,19.3,9.78l19.57,28.61a22.08,22.08,0,0,1,3.85,12.48v49.36A23.73,23.73,0,0,1,664.28,1989.79Z" transform="translate(0 -14.28)"/><path class="cls-63" d="M490.75,1823.93v43.32c0,12.73,10.58,22.81,23.62,22.52l51-1.12a24.27,24.27,0,0,0,13-4.11l29.79-20a23.29,23.29,0,0,0,10.41-19.25V1841a22.27,22.27,0,0,0-10.41-18.85l-29.79-18.87a23.45,23.45,0,0,0-13-3.61l-51,.82C501.33,1800.72,490.75,1811.21,490.75,1823.93Z" transform="translate(0 -14.28)"/><path class="cls-64" d="M791.28,1818.61v42.48a23.3,23.3,0,0,1-22.78,23.09l-49.68,1.09a22.81,22.81,0,0,1-12.72-3.51l-29.41-18.64a22.15,22.15,0,0,1-10.33-18.76v-4.25A23.14,23.14,0,0,1,676.69,1821l29.41-19.76a23.53,23.53,0,0,1,12.72-4l49.68-.8A22.23,22.23,0,0,1,791.28,1818.61Z" transform="translate(0 -14.28)"/><path class="cls-65" d="M1472,1823.38c0,106.11,81.85,189.47,181.54,186.23,98.31-3.2,177-89.62,177-193.08s-78.69-186.87-177-186.31C1553.88,1630.78,1472,1717.27,1472,1823.38Z" transform="translate(0 -14.28)"/><path class="cls-66" d="M1699.09,1700.27c0,26.61-20.34,48.46-45.52,48.81s-45.81-21.06-45.81-47.83,20.55-48.63,45.81-48.82S1699.09,1673.67,1699.09,1700.27Z" transform="translate(0 -14.28)"/><path class="cls-67" d="M1699.09,1937.81c0,26.61-20.34,48.8-45.52,49.58s-45.81-20.28-45.81-47.06,20.55-49,45.81-49.59S1699.09,1911.21,1699.09,1937.81Z" transform="translate(0 -14.28)"/><path class="cls-68" d="M1540.08,1773.37c25.58-.4,46.25,21,46.25,47.83s-20.67,49-46.25,49.6-46.55-20.84-46.55-47.83S1514.41,1773.77,1540.08,1773.37Z" transform="translate(0 -14.28)"/><path class="cls-69" d="M1765.27,1769.84c24.78-.39,44.8,20.69,44.8,47.08s-20,48.25-44.8,48.8-45.09-20.51-45.09-47.08S1740.4,1770.23,1765.27,1769.84Z" transform="translate(0 -14.28)"/><path class="cls-70" d="M1708.83,1702.43c0,26.61-20.34,48.46-45.52,48.82s-45.81-21.07-45.81-47.84,20.55-48.63,45.81-48.82S1708.83,1675.83,1708.83,1702.43Z" transform="translate(0 -14.28)"/><path class="cls-71" d="M1708.83,1940c0,26.6-20.34,48.79-45.52,49.57s-45.81-20.28-45.81-47.06,20.55-49,45.81-49.59S1708.83,1913.37,1708.83,1940Z" transform="translate(0 -14.28)"/><path class="cls-72" d="M1549.82,1775.53c25.58-.4,46.25,21,46.25,47.83s-20.67,49-46.25,49.6-46.55-20.84-46.55-47.83S1524.15,1775.93,1549.82,1775.53Z" transform="translate(0 -14.28)"/><path class="cls-73" d="M1775,1772c24.78-.39,44.8,20.69,44.8,47.09s-20,48.24-44.8,48.79-45.09-20.51-45.09-47.08S1750.14,1772.39,1775,1772Z" transform="translate(0 -14.28)"/><path class="cls-74" d="M399.17,2593.49c3.89-49.3,70.27-56.64,83.76-118.83,18.48-85.24-93.88-128.5-83.76-220.12,9.88-89.6,126-126.7,109.08-181.16-8.41-27-38.64-23-79.87-60.38-57.95-52.59-71.13-126.81-74-148-18-132.2,88-231.4,107.14-249.34a342.83,342.83,0,0,1,99.56-64.78c-102.21,7.11-193.64,79.45-217.46,184.79l-153.84,680.5c-25.73,113.81,39,222.58,150,253.81h0a226.41,226.41,0,0,0,105.59,3.88C406.54,2640.22,397.57,2613.65,399.17,2593.49Z" transform="translate(0 -14.28)"/><path class="cls-75" d="M1268,1810.41c-55.27-30.51-88,5.85-128.16-21.81-46.76-32.26-17.71-92.42-64.69-128.19-39.58-30.12-77.42-.56-134.61-23a141.31,141.31,0,0,1-34.86-19.92v220.75c0,39.64,27.66,71,61.62,70.06l381.45-10.65a50.23,50.23,0,0,0,22.58-6.15,158.35,158.35,0,0,1-27-12.67C1303.9,1854.94,1305.18,1831,1268,1810.41Z" transform="translate(0 -14.28)"/><path class="cls-76" d="M871.51,1192.39c11.2-7.26,1-28.37.39-73.72-.74-55.58,14-65.93,2.17-87.74-14.5-26.66-51-37.69-75.17-38.21-5.33-.12-6.57-3-51.25,8.54C667.17,1022.1,647,999.76,611,1022.08c-34.82,21.56-19.57,45.18-53.38,70.47-54.81,41-112.45-3.32-151.62,31-37.06,32.43-37.91,115.06,1.06,160.16,44.19,51.12,123.85,35.76,177.25,25.62,11.23-2.13,68-14,127.06-57.65a338.37,338.37,0,0,0,69.4-68.87c3.35-3.77,8.58-8.34,15.49-9.08,8.28-.88,14.94,4.18,18.15,6.41C831.23,1191.77,860.52,1199.52,871.51,1192.39Z" transform="translate(0 -14.28)"/><path class="cls-2" d="M826.53,1169.09c14.4-13.12,65.76,12.16,99.8,45.7,40,39.41,36.92,71.36,71.82,120.32,17.35,24.34,47.09,57.1,99.8,85.8l-11.19,28c-25.49,1.53-75.52.63-122.19-29.85-32.42-21.17-49.1-49.22-81.14-104.46C851.27,1259.15,808.54,1185.48,826.53,1169.09Z" transform="translate(0 -14.28)"/><path class="cls-77" d="M1150.94,1911.48l-40.09-24.1h-18.1s-6.16,22.95-5.46,24.1c8.06,13.21,45.6,23.26,69,24.09,3.89.14,9.32.16,10.72-2.66C1169.41,1928.14,1158.8,1918.12,1150.94,1911.48Z" transform="translate(0 -14.28)"/><path class="cls-78" d="M1110.14,1861.09c-2.58,14.92.68,22.69,4.2,27.05,2.47,3.07,4.67,3.94,19.35,16.63,4.85,4.2,7.32,6.44,6.76,7.62-.64,1.35-4.93.62-14.18-1.61-20.16-4.85-30.29-7.37-32.76-12.22-2.24-4.4-.26-6.38-.39-18.35a62.49,62.49,0,0,0-2.95-18.19Z" transform="translate(0 -14.28)"/><path class="cls-79" d="M1139.12,1742.88s18.12,21.62,15.17,45.32-34.67-11-39.09-22.66-9.6-28.39-9.6-28.39S1127.85,1723.31,1139.12,1742.88Z" transform="translate(0 -14.28)"/><path class="cls-80" d="M1132.21,1709.06s-4.91,25.18,4.46,38.48c4.67,6.62,11,12.23,9.12,17.62-1.24,3.61-6,6.2-10,5.79-7.64-.78-11.88-12.5-14.86-20.76-4.42-12.2-6.88-38.32-6.88-38.32Z" transform="translate(0 -14.28)"/><path class="cls-81" d="M1117.78,1730.29l16.71-6.09c8.69-19.85,19.3-52.46,15.75-92.09-9.11-101.92-103.37-155.92-113.84-161.7-25.69,12.88-51.7,31.06-52.64,54-1.18,28.77,38,44,74.85,86C1080.72,1635.68,1104.35,1673.3,1117.78,1730.29Z" transform="translate(0 -14.28)"/><path class="cls-82" d="M1111.77,1872.75c18.41-71.91,13.7-130.59,8.39-164.39-8-51.09-24.35-155-93.73-193.77-15.15-8.46-36.81-16-63.21-39.56a224,224,0,0,1-44.52-54.87c-92.79-27.22-178.38-16.19-216.15,33.58-4.37,5.75-15.29,18.22-17.4,36.61-4.77,41.5,36,91.46,81.75,101.89,58.15,13.26,91.89-46.45,143.41-26.58,14.41,5.56,26.63,19.33,51.06,46.87a389.1,389.1,0,0,1,55.17,80.3c19.69,38.52,34.62,67,36.8,103.81.5,8.58.81,25.93,10.86,44.63a92.94,92.94,0,0,0,26,29.85Z" transform="translate(0 -14.28)"/><path class="cls-83" d="M685.15,1490.35c2.11-18.39,13-30.86,17.4-36.61,37.77-49.77,123.36-60.8,216.15-33.58A224,224,0,0,0,963.22,1475c26.4,23.52,48.06,31.1,63.21,39.56,42.37,23.67,64.93,71.63,77.92,117-19.27-29.88-35.77-37.83-48.54-38-18.28-.2-26.45,15.42-48.27,13.29-23.33-2.28-28.66-21.57-47.57-23.78-5.66-.67-12.62.21-21,4.66-11.16-11.69-19.48-18.6-28.68-22.15-51.52-19.87-85.26,39.84-143.41,26.58C721.15,1581.81,680.38,1531.85,685.15,1490.35Z" transform="translate(0 -14.28)"/><path class="cls-84" d="M1063.69,1546.75a306.49,306.49,0,0,0-46.19,1c-92.59,9.15-118.11,55-194.63,66.13-18.11,2.64-98.7,14.41-133.61-32.18C664.2,1548.3,668,1490.66,695.4,1468c11.6-9.6,23.09-9.33,97.39-8.66,28,.25,56,.34,83.94.7,118.44,1.51,141.09-6.69,162.64,12.9C1049.43,1482.07,1064.13,1501.7,1063.69,1546.75Z" transform="translate(0 -14.28)"/><path class="cls-2" d="M813.65,1166.74s-138.21-40.31-152.55,60.87c-13.74,97,56.66,141.49,24.62,239.72-3.71,11.39,263.1-40.77,263.1-40.77-35.61-44.43-43.89-81.09-44.74-106.58-.93-27.94,7.12-40.64,0-73.67,0,0-8-36.86-36.61-68.51C863.35,1173.26,858.45,1168.53,813.65,1166.74Z" transform="translate(0 -14.28)"/><path class="cls-85" d="M783.26,1110.84c1.12,5.24,6.83,33.38-4.68,40.62-2.5,1.57-7.29,2.47-16.88,4.27-6.28,1.18-11.55,1.9-15.27,2.34a38.47,38.47,0,0,0,7.58,19.38c15.26,19.59,45.87,14.52,50.23,13.73,15.4-2.81,30.54-7.56,34.2-10.47,5.57-4.43,9.95-7.75,12.54-11.12-6-2.88-18-10.47-26.05-13a151.29,151.29,0,0,0-16.85-4.13q-1.27-8.16-2.54-16.31Z" transform="translate(0 -14.28)"/><path class="cls-86" d="M782.72,1124.86s2.08,20.62,22.12,24.26c17.95,3.25,31.46-40.12,22.27-51.34-3.06-3.74-10.62-7.3-17.18-7.11-4.61.13-20.19,6.07-22.36,21.65-3.1-3.27-7-4.21-8.88-2.84-2.41,1.74-1.12,6.79-.82,7.93A14.44,14.44,0,0,0,782.72,1124.86Z" transform="translate(0 -14.28)"/><path class="cls-87" d="M977,1437.92l-211.54,10.29a8.85,8.85,0,0,0-7.1,4.18l-5.86,9.39a6.87,6.87,0,0,0,6.1,10.5l224.06-8.53Z" transform="translate(0 -14.28)"/><path class="cls-88" d="M1197,1320.12l-218.54,4.24a18.32,18.32,0,0,0-15.59,9.27l-75.67,133.14,230.8-9.19a18.76,18.76,0,0,0,15.37-9.12l70.12-117.14A7.4,7.4,0,0,0,1197,1320.12Z" transform="translate(0 -14.28)"/><path class="cls-89" d="M962.88,1333.63a18.32,18.32,0,0,1,15.59-9.27l4.79-.1c.71,7.06,2.87,13.51,7.19,18.72,13.48,16.27,35.87,6.23,52.55,23.45,18.33,18.91,1.4,41.42,17.79,59,17.25,18.52,45.14,3.44,77.21,15.29l-4.62,7.71a18.75,18.75,0,0,1-15.37,9.13l-230.8,9.19Z" transform="translate(0 -14.28)"/><path class="cls-2" d="M782.69,1430.85q4.14-10.9,8.26-21.81c-30.43-8.35-72.51-20.67-115.68-36.1-6.76-2.41-14.79-5.41-17.42-12.52-7.39-20,39.54-40.64,57.78-84.21,16.87-40.3,7.59-96.23-12-102.83-40.75-13.75-185.23,166.1-133.63,241.91C599.18,1458.15,689.11,1465,782.69,1430.85Z" transform="translate(0 -14.28)"/><path class="cls-90" d="M791,1409c19.11-10.15,42,.25,43.45,1a57.35,57.35,0,0,1,16.48,11.81c.69,1,9,12.44,6,16.12-2.42,2.95-11.79.5-23.05-6.5a87.84,87.84,0,0,0-20.17-.5c-15.46,1.43-22.54,6.31-28.16,2.1-4.11-3.09-5.51-9.61-4-14.47C783,1413.34,787.72,1410.76,791,1409Z" transform="translate(0 -14.28)"/></g></g></g></svg>