<svg width="13" height="12" viewBox="0 0 13 12" fill="none" xmlns="http://www.w3.org/2000/svg">
<g clip-path="url(#clip0)">
<path d="M12.4131 6.47549C12.3952 6.41336 12.3579 6.35855 12.3067 6.31902C11.8716 5.98359 11.4248 5.79914 10.982 5.75754C10.982 5.75754 10.923 5.74805 10.781 5.74805C10.6388 5.74805 10.5664 5.75729 10.5664 5.75729C10.1395 5.80765 9.71191 5.99565 9.29237 6.31902C9.24112 6.35849 9.20384 6.41339 9.18597 6.47549C8.98004 7.18928 8.92511 7.874 9.01296 8.63038C9.09064 9.299 9.27485 9.97013 9.48978 10.7151C9.50767 10.7773 9.54498 10.8321 9.59617 10.8716C9.92563 11.1256 10.353 11.2654 10.7995 11.2654C11.2459 11.2654 11.6734 11.1256 12.0028 10.8717C12.054 10.8322 12.0914 10.7773 12.1093 10.7152C12.3242 9.97006 12.5084 9.29903 12.5861 8.63044C12.6739 7.874 12.619 7.18921 12.4131 6.47549ZM11.0654 7.71502C11.0654 7.86188 10.9463 7.98093 10.7995 7.98093C10.6526 7.98093 10.5336 7.86188 10.5336 7.71502V6.60606C10.5336 6.45923 10.6526 6.34013 10.7995 6.34013C10.9463 6.34013 11.0654 6.45923 11.0654 6.60606V7.71502Z" fill="#736B97"/>
<path d="M8.77475 10.5518H8.2953L7.89963 9.20646H8.70724C8.68201 9.06225 8.66044 8.91814 8.64359 8.77344C8.59265 8.33465 8.58649 7.9178 8.62578 7.50631H1.55235V1.57189H11.135V5.38137C11.4472 5.41268 11.7573 5.50384 12.0624 5.65324V1.10821C12.0624 0.852135 11.8547 0.644531 11.5987 0.644531H1.08868C0.832604 0.644531 0.625 0.852135 0.625 1.10821V8.74278C0.625 8.99888 0.832604 9.20646 1.08868 9.20646H4.78771L4.39207 10.5518H3.91269C3.79096 10.5518 3.69226 10.6504 3.69226 10.7722V11.1346C3.69226 11.2564 3.79096 11.3551 3.91269 11.3551H8.77475C8.89648 11.3551 8.99515 11.2564 8.99515 11.1346V10.7722C8.99509 10.6504 8.89645 10.5518 8.77475 10.5518Z" fill="#736B97"/>
</g>
<defs>
<clipPath id="clip0">
<rect width="12" height="12" fill="white" transform="translate(0.625)"/>
</clipPath>
</defs>
</svg>
