<svg width="16" height="17" viewBox="0 0 16 17" fill="none" xmlns="http://www.w3.org/2000/svg">
<path d="M15.4621 13.1085L12.8287 10.4751C13.3075 9.51746 13.6267 8.40025 13.6267 7.28304C13.6267 3.53242 10.5942 0.5 6.8436 0.5C3.09297 0.5 0.0605469 3.53242 0.0605469 7.28304C0.0605469 11.0337 3.09297 14.0661 6.8436 14.0661C7.96081 14.0661 9.07802 13.7469 10.0356 13.2681L12.669 15.9015C13.4671 16.6995 14.6641 16.6995 15.4621 15.9015C16.1803 15.1035 16.1803 13.9065 15.4621 13.1085ZM6.8436 12.4701C3.97078 12.4701 1.65656 10.1559 1.65656 7.28304C1.65656 4.41022 3.97078 2.09601 6.8436 2.09601C9.71643 2.09601 12.0306 4.41022 12.0306 7.28304C12.0306 10.1559 9.71643 12.4701 6.8436 12.4701Z" fill="#EEE6FF"/>
</svg>
