<svg width="16" height="14" viewBox="0 0 16 14" fill="none" xmlns="http://www.w3.org/2000/svg">
<path d="M15.0471 5.57296L2.13792 0.216402C1.59408 -0.00928566 0.979669 0.0899957 0.534513 0.475371C0.0893569 0.860808 -0.0968305 1.45468 0.0486695 2.02521L1.1977 6.53121H6.82351C7.08239 6.53121 7.29229 6.74109 7.29229 7C7.29229 7.25887 7.08242 7.46878 6.82351 7.46878H1.1977L0.0486695 11.9747C-0.0968305 12.5453 0.0893257 13.1392 0.534513 13.5246C0.980576 13.9107 1.59504 14.0088 2.13795 13.7836L15.0471 8.42703C15.6349 8.18315 16 7.63634 16 7C16 6.36365 15.6349 5.81681 15.0471 5.57296Z" fill="#4E00FF"/>
</svg>
