<svg width="12" height="12" viewBox="0 0 12 12" fill="none" xmlns="http://www.w3.org/2000/svg">
<path d="M11.3288 4.43725C11.1099 4.40546 10.9011 4.32473 10.7178 4.20105C10.5345 4.07736 10.3815 3.91393 10.2701 3.72291C10.1588 3.53189 10.0919 3.3182 10.0746 3.09777C10.0573 2.87734 10.0899 2.65583 10.17 2.44975C10.221 2.31502 10.2285 2.16773 10.1915 2.02852C10.1545 1.88931 10.0749 1.76517 9.96376 1.6735C9.47327 1.26162 8.91497 0.938065 8.31376 0.717249C8.17685 0.666393 8.02739 0.660039 7.88666 0.699092C7.74594 0.738145 7.62113 0.820614 7.53001 0.934749C7.39286 1.11012 7.21758 1.25196 7.01746 1.3495C6.81734 1.44705 6.59764 1.49775 6.37501 1.49775C6.15238 1.49775 5.93267 1.44705 5.73255 1.3495C5.53243 1.25196 5.35715 1.11012 5.22001 0.934749C5.12889 0.820614 5.00408 0.738145 4.86335 0.699092C4.72262 0.660039 4.57316 0.666393 4.43626 0.717249C3.88113 0.921115 3.3621 1.21228 2.89876 1.57975C2.78196 1.67221 2.69784 1.79964 2.6587 1.94337C2.61956 2.0871 2.62747 2.23959 2.68126 2.3785C2.76779 2.59003 2.80354 2.8189 2.78565 3.04675C2.76775 3.2746 2.69671 3.49508 2.57821 3.69051C2.45971 3.88594 2.29706 4.05087 2.10331 4.17209C1.90955 4.2933 1.69008 4.36742 1.46251 4.3885C1.31476 4.4043 1.17599 4.46711 1.06662 4.5677C0.95726 4.66829 0.883081 4.80134 0.855008 4.94725C0.785182 5.29289 0.750008 5.64463 0.750008 5.99725C0.749495 6.29246 0.773326 6.58721 0.821258 6.8785C0.845114 7.02909 0.917913 7.16762 1.0284 7.27269C1.13889 7.37775 1.28091 7.4435 1.43251 7.45975C1.66508 7.48157 1.88904 7.55879 2.08565 7.68494C2.28225 7.81108 2.44578 7.98249 2.56254 8.18481C2.67931 8.38713 2.74591 8.61447 2.75678 8.84781C2.76765 9.08115 2.72246 9.3137 2.62501 9.526C2.56123 9.66409 2.54541 9.81953 2.58006 9.96763C2.61471 10.1157 2.69784 10.248 2.81626 10.3435C3.3038 10.7479 3.85672 11.0662 4.45126 11.2847C4.52729 11.3111 4.60706 11.325 4.68751 11.326C4.79782 11.3258 4.90647 11.2991 5.00434 11.2482C5.10221 11.1973 5.18646 11.1237 5.25001 11.0335C5.38366 10.8388 5.56283 10.6796 5.77195 10.5698C5.98107 10.46 6.21382 10.4029 6.45001 10.4035C6.67885 10.4038 6.90447 10.4575 7.10889 10.5604C7.31332 10.6632 7.4909 10.8124 7.62751 10.996C7.71837 11.1181 7.84708 11.2068 7.99359 11.2482C8.1401 11.2896 8.29617 11.2813 8.43751 11.2247C8.98114 11.006 9.48725 10.7036 9.93751 10.3285C10.0506 10.235 10.1312 10.108 10.1675 9.96583C10.2039 9.82365 10.1943 9.6736 10.14 9.53725C10.0518 9.32844 10.0133 9.10199 10.0277 8.87577C10.042 8.64955 10.1087 8.42976 10.2225 8.23374C10.3364 8.03772 10.4942 7.87085 10.6836 7.74629C10.8729 7.62172 11.0887 7.54289 11.3138 7.516C11.4597 7.49582 11.5954 7.4297 11.7013 7.32722C11.8071 7.22473 11.8776 7.09121 11.9025 6.946C11.9627 6.63321 11.9954 6.31574 12 5.99725C12.0001 5.6613 11.9687 5.32609 11.9063 4.996C11.8809 4.85399 11.8115 4.72356 11.7078 4.62326C11.6042 4.52295 11.4715 4.45787 11.3288 4.43725ZM8.25001 5.99725C8.25001 6.36809 8.14004 6.7306 7.93401 7.03894C7.72799 7.34728 7.43515 7.58761 7.09254 7.72952C6.74993 7.87144 6.37293 7.90857 6.00921 7.83622C5.6455 7.76387 5.31141 7.5853 5.04918 7.32307C4.78696 7.06085 4.60838 6.72676 4.53604 6.36304C4.46369 5.99933 4.50082 5.62233 4.64273 5.27972C4.78465 4.93711 5.02497 4.64427 5.33331 4.43824C5.64166 4.23222 6.00417 4.12225 6.37501 4.12225C6.87229 4.12225 7.3492 4.31979 7.70083 4.67142C8.05246 5.02305 8.25001 5.49997 8.25001 5.99725Z" fill="#736B97"/>
</svg>
