<svg width="12" height="12" viewBox="0 0 12 12" fill="none" xmlns="http://www.w3.org/2000/svg">
<path d="M10.9538 4.43725C10.7349 4.40546 10.5261 4.32473 10.3428 4.20104C10.1595 4.07736 10.0065 3.91393 9.89514 3.72291C9.78377 3.53189 9.71693 3.3182 9.69959 3.09777C9.68226 2.87734 9.71487 2.65583 9.79501 2.44975C9.84595 2.31502 9.85346 2.16773 9.81647 2.02852C9.77948 1.88931 9.69986 1.76517 9.58876 1.6735C9.09827 1.26162 8.53997 0.938065 7.93876 0.717249C7.80185 0.666393 7.65239 0.660039 7.51166 0.699092C7.37094 0.738145 7.24613 0.820614 7.15501 0.934749C7.01786 1.11012 6.84258 1.25196 6.64246 1.3495C6.44234 1.44705 6.22264 1.49775 6.00001 1.49775C5.77738 1.49775 5.55767 1.44705 5.35755 1.3495C5.15743 1.25196 4.98215 1.11012 4.84501 0.934749C4.75389 0.820614 4.62908 0.738145 4.48835 0.699092C4.34762 0.660039 4.19816 0.666393 4.06126 0.717249C3.50613 0.921115 2.9871 1.21228 2.52376 1.57975C2.40696 1.67221 2.32284 1.79964 2.2837 1.94337C2.24456 2.0871 2.25247 2.23959 2.30626 2.3785C2.39279 2.59003 2.42854 2.8189 2.41065 3.04675C2.39275 3.2746 2.32171 3.49508 2.20321 3.69051C2.08471 3.88594 1.92206 4.05087 1.72831 4.17209C1.53455 4.2933 1.31508 4.36742 1.08751 4.3885C0.939761 4.4043 0.80099 4.46711 0.691625 4.5677C0.58226 4.66829 0.508081 4.80134 0.480008 4.94725C0.410182 5.29289 0.375008 5.64463 0.375008 5.99725C0.374495 6.29246 0.398326 6.58721 0.446258 6.8785C0.470114 7.02909 0.542913 7.16762 0.653401 7.27269C0.763888 7.37775 0.90591 7.4435 1.05751 7.45975C1.29008 7.48157 1.51404 7.55879 1.71065 7.68494C1.90725 7.81108 2.07078 7.98249 2.18754 8.18481C2.30431 8.38713 2.37091 8.61447 2.38178 8.84781C2.39265 9.08115 2.34746 9.3137 2.25001 9.526C2.18623 9.66409 2.17041 9.81953 2.20506 9.96763C2.23971 10.1157 2.32284 10.248 2.44126 10.3435C2.9288 10.7479 3.48172 11.0662 4.07626 11.2847C4.15229 11.3111 4.23206 11.325 4.31251 11.326C4.42282 11.3258 4.53147 11.2991 4.62934 11.2482C4.72721 11.1973 4.81146 11.1237 4.87501 11.0335C5.00866 10.8388 5.18783 10.6796 5.39695 10.5698C5.60607 10.46 5.83882 10.4029 6.07501 10.4035C6.30385 10.4038 6.52947 10.4575 6.73389 10.5604C6.93832 10.6632 7.1159 10.8124 7.25251 10.996C7.34337 11.1181 7.47208 11.2068 7.61859 11.2482C7.7651 11.2896 7.92117 11.2813 8.06251 11.2247C8.60614 11.006 9.11225 10.7036 9.56251 10.3285C9.67561 10.235 9.75615 10.108 9.79254 9.96583C9.82892 9.82365 9.81929 9.6736 9.76501 9.53725C9.67681 9.32844 9.63835 9.10199 9.65267 8.87577C9.66699 8.64955 9.7337 8.42976 9.84753 8.23374C9.96136 8.03772 10.1192 7.87085 10.3086 7.74629C10.4979 7.62172 10.7137 7.54289 10.9388 7.516C11.0847 7.49582 11.2204 7.4297 11.3263 7.32722C11.4321 7.22473 11.5026 7.09121 11.5275 6.946C11.5877 6.63322 11.6204 6.31574 11.625 5.99725C11.6251 5.6613 11.5937 5.32609 11.5313 4.996C11.5059 4.85399 11.4365 4.72356 11.3328 4.62326C11.2292 4.52295 11.0965 4.45787 10.9538 4.43725V4.43725ZM7.87501 5.99725C7.87501 6.36809 7.76504 6.7306 7.55901 7.03894C7.35299 7.34728 7.06015 7.58761 6.71754 7.72952C6.37493 7.87144 5.99793 7.90857 5.63421 7.83622C5.2705 7.76387 4.93641 7.5853 4.67418 7.32307C4.41196 7.06085 4.23338 6.72676 4.16104 6.36304C4.08869 5.99933 4.12582 5.62233 4.26773 5.27972C4.40965 4.93711 4.64997 4.64427 4.95831 4.43824C5.26666 4.23222 5.62917 4.12225 6.00001 4.12225C6.49729 4.12225 6.9742 4.31979 7.32583 4.67142C7.67746 5.02305 7.87501 5.49997 7.87501 5.99725Z" fill="white"/>
</svg>
