<svg width="12" height="13" viewBox="0 0 12 13" fill="none" xmlns="http://www.w3.org/2000/svg">
<path d="M8.85797 7.957C9.89625 9.22966 10.3744 10.2726 10.133 10.739C9.94781 11.0929 8.80406 11.7843 7.96265 12.0492C7.2689 12.2672 6.35953 12.3609 5.60953 12.2883C4.71422 12.2015 3.80719 11.8804 3.02906 11.3742C2.37515 10.9476 2.2275 10.7718 2.2275 10.4226C2.2275 9.72185 2.99859 8.49372 4.31812 7.09216C5.06812 6.29763 6.11109 5.36481 6.22594 5.3906C6.44625 5.43981 8.20172 7.15075 8.85797 7.957ZM4.60875 3.8695C3.91265 3.23903 3.24703 2.60622 2.58375 2.38356C2.2275 2.26403 2.20172 2.27106 1.91109 2.57341C1.22672 3.28591 0.657185 4.44138 0.49781 5.44216C0.371248 6.24372 0.354841 6.46872 0.399373 6.86013C0.530623 8.04372 0.804841 8.86169 1.34859 9.69372C1.57125 10.0359 1.63219 10.0992 1.56656 9.92575C1.46812 9.66794 1.55953 9.04685 1.78922 8.42575C2.12437 7.51169 3.0525 5.77966 4.60875 3.8695ZM11.9119 5.35778C11.5158 3.48278 10.3298 2.30388 10.1634 2.30388C9.99234 2.30388 9.59625 2.45622 9.31968 2.62966C8.77359 2.9695 8.35875 3.3656 7.81265 3.86716C8.8064 5.11638 10.208 7.13435 10.6931 8.60856C10.8525 9.09372 10.9205 9.57185 10.8666 9.83434C10.8267 10.0336 10.8267 10.0336 10.8994 9.94216C11.0423 9.76169 11.3658 9.20856 11.4947 8.92263C11.6681 8.54294 11.8462 7.98044 11.9306 7.54685C12.0314 7.0195 12.022 5.88747 11.9119 5.35778ZM3.50015 1.507C4.61812 1.44841 6.07125 2.3156 6.17906 2.33669C6.19547 2.33903 6.42281 2.23825 6.68531 2.10935C8.18297 1.38044 8.88844 1.50466 9.2025 1.51872C7.70484 0.597626 5.62359 0.346845 3.72047 1.2445C3.17203 1.50466 3.15797 1.52341 3.50015 1.507Z" fill="#F5F3FA"/>
</svg>
