<svg width="32" height="32" viewBox="0 0 32 32" fill="none" xmlns="http://www.w3.org/2000/svg">
<path d="M18.6029 9H13.3972C11.9217 9.00144 10.507 9.58823 9.46362 10.6316C8.42026 11.6749 7.83347 13.0896 7.83203 14.5651V15.4146C7.83347 16.8901 8.42026 18.3048 9.46362 19.3482C10.507 20.3915 11.9217 20.9783 13.3972 20.9798H15.4555L16.4956 22.6134C16.5691 22.732 16.6717 22.8298 16.7937 22.8975C16.9157 22.9652 17.0531 23.0005 17.1926 23C17.333 22.9988 17.4709 22.9616 17.5929 22.892C17.7149 22.8224 17.817 22.7228 17.8896 22.6025L18.8915 20.9689C20.2971 20.9405 21.6359 20.3635 22.6218 19.3613C23.6077 18.3591 24.1627 17.0111 24.1681 15.6052V14.5651C24.1666 13.0896 23.5799 11.6749 22.5365 10.6316C21.4931 9.58823 20.0785 9.00144 18.6029 9V9ZM13.2774 15.872H18.7227C18.8672 15.872 19.0057 15.9294 19.1078 16.0315C19.2099 16.1336 19.2673 16.2721 19.2673 16.4166C19.2673 16.561 19.2099 16.6995 19.1078 16.8016C19.0057 16.9037 18.8672 16.9611 18.7227 16.9611H13.2774C13.133 16.9611 12.9945 16.9037 12.8923 16.8016C12.7902 16.6995 12.7328 16.561 12.7328 16.4166C12.7328 16.2721 12.7902 16.1336 12.8923 16.0315C12.9945 15.9294 13.133 15.872 13.2774 15.872V15.872ZM12.7328 13.3998C12.7328 13.2554 12.7902 13.1169 12.8923 13.0148C12.9945 12.9127 13.133 12.8553 13.2774 12.8553H18.7227C18.8672 12.8553 19.0057 12.9127 19.1078 13.0148C19.2099 13.1169 19.2673 13.2554 19.2673 13.3998C19.2673 13.5443 19.2099 13.6828 19.1078 13.7849C19.0057 13.887 18.8672 13.9444 18.7227 13.9444H13.2774C13.133 13.9444 12.9945 13.887 12.8923 13.7849C12.7902 13.6828 12.7328 13.5443 12.7328 13.3998V13.3998Z" fill="#978EC1"/>
</svg>
