<svg width="32" height="33" viewBox="0 0 32 33" fill="none" xmlns="http://www.w3.org/2000/svg">
<path d="M18.6029 9.5H13.3972C11.9217 9.50144 10.507 10.0882 9.46362 11.1316C8.42026 12.1749 7.83347 13.5896 7.83203 15.0651V15.9146C7.83347 17.3901 8.42026 18.8048 9.46362 19.8482C10.507 20.8915 11.9217 21.4783 13.3972 21.4798H15.4555L16.4956 23.1134C16.5691 23.232 16.6717 23.3298 16.7937 23.3975C16.9157 23.4652 17.0531 23.5005 17.1926 23.5C17.333 23.4988 17.4709 23.4616 17.5929 23.392C17.7149 23.3224 17.817 23.2228 17.8896 23.1025L18.8915 21.4689C20.2971 21.4405 21.6359 20.8635 22.6218 19.8613C23.6077 18.8591 24.1627 17.5111 24.1681 16.1052V15.0651C24.1666 13.5896 23.5799 12.1749 22.5365 11.1316C21.4931 10.0882 20.0785 9.50144 18.6029 9.5ZM13.2774 16.372H18.7227C18.8672 16.372 19.0057 16.4294 19.1078 16.5315C19.2099 16.6336 19.2673 16.7721 19.2673 16.9166C19.2673 17.061 19.2099 17.1995 19.1078 17.3016C19.0057 17.4037 18.8672 17.4611 18.7227 17.4611H13.2774C13.133 17.4611 12.9945 17.4037 12.8923 17.3016C12.7902 17.1995 12.7328 17.061 12.7328 16.9166C12.7328 16.7721 12.7902 16.6336 12.8923 16.5315C12.9945 16.4294 13.133 16.372 13.2774 16.372ZM12.7328 13.8998C12.7328 13.7554 12.7902 13.6169 12.8923 13.5148C12.9945 13.4127 13.133 13.3553 13.2774 13.3553H18.7227C18.8672 13.3553 19.0057 13.4127 19.1078 13.5148C19.2099 13.6169 19.2673 13.7554 19.2673 13.8998C19.2673 14.0443 19.2099 14.1828 19.1078 14.2849C19.0057 14.387 18.8672 14.4444 18.7227 14.4444H13.2774C13.133 14.4444 12.9945 14.387 12.8923 14.2849C12.7902 14.1828 12.7328 14.0443 12.7328 13.8998Z" fill="#4E00FF"/>
</svg>
