<svg width="32" height="33" viewBox="0 0 32 33" fill="none" xmlns="http://www.w3.org/2000/svg">
<g clip-path="url(#clip0)">
<path d="M14.3958 9.5H10.0208C9.4579 9.5 9 9.9579 9 10.5208V13.1458C9 13.7088 9.4579 14.1667 10.0208 14.1667H14.3958C14.9588 14.1667 15.4167 13.7088 15.4167 13.1458V10.5208C15.4167 9.9579 14.9588 9.5 14.3958 9.5Z" fill="#4E00FF"/>
<path d="M14.3958 15.334H10.0208C9.4579 15.334 9 15.7919 9 16.3549V22.4799C9 23.0428 9.4579 23.5007 10.0208 23.5007H14.3958C14.9588 23.5007 15.4167 23.0428 15.4167 22.4799V16.3549C15.4167 15.7919 14.9588 15.334 14.3958 15.334Z" fill="#4E00FF"/>
<path d="M21.9799 18.834H17.6049C17.0419 18.834 16.584 19.2919 16.584 19.8549V22.4799C16.584 23.0428 17.0419 23.5007 17.6049 23.5007H21.9799C22.5428 23.5007 23.0007 23.0428 23.0007 22.4799V19.8549C23.0007 19.2919 22.5428 18.834 21.9799 18.834Z" fill="#4E00FF"/>
<path d="M21.9799 9.5H17.6049C17.0419 9.5 16.584 9.9579 16.584 10.5208V16.6458C16.584 17.2088 17.0419 17.6667 17.6049 17.6667H21.9799C22.5428 17.6667 23.0007 17.2088 23.0007 16.6458V10.5208C23.0007 9.9579 22.5428 9.5 21.9799 9.5V9.5Z" fill="#4E00FF"/>
</g>
<defs>
<clipPath id="clip0">
<rect width="14" height="14" fill="white" transform="translate(9 9.5)"/>
</clipPath>
</defs>
</svg>
