<svg width="16" height="16" viewBox="0 0 16 16" fill="none" xmlns="http://www.w3.org/2000/svg">
<g clip-path="url(#clip0)">
<path d="M6.16663 0H1.16663C0.523315 0 0 0.523315 0 1.16663V4.16663C0 4.81006 0.523315 5.33337 1.16663 5.33337H6.16663C6.81006 5.33337 7.33337 4.81006 7.33337 4.16663V1.16663C7.33337 0.523315 6.81006 0 6.16663 0Z" fill="#4E00FF"/>
<path d="M6.16663 6.6665H1.16663C0.523315 6.6665 0 7.18982 0 7.83325V14.8333C0 15.4766 0.523315 15.9999 1.16663 15.9999H6.16663C6.81006 15.9999 7.33337 15.4766 7.33337 14.8333V7.83325C7.33337 7.18982 6.81006 6.6665 6.16663 6.6665V6.6665Z" fill="#4E00FF"/>
<path d="M14.8337 10.6665H9.83374C9.19031 10.6665 8.66699 11.1898 8.66699 11.8333V14.8333C8.66699 15.4766 9.19031 15.9999 9.83374 15.9999H14.8337C15.477 15.9999 16.0004 15.4766 16.0004 14.8333V11.8333C16.0004 11.1898 15.477 10.6665 14.8337 10.6665V10.6665Z" fill="#4E00FF"/>
<path d="M14.8337 0H9.83374C9.19031 0 8.66699 0.523315 8.66699 1.16663V8.16663C8.66699 8.81006 9.19031 9.33337 9.83374 9.33337H14.8337C15.477 9.33337 16.0004 8.81006 16.0004 8.16663V1.16663C16.0004 0.523315 15.477 0 14.8337 0V0Z" fill="#4E00FF"/>
</g>
<defs>
<clipPath id="clip0">
<rect width="16" height="16" fill="white"/>
</clipPath>
</defs>
</svg>
