<svg width="32" height="33" viewBox="0 0 32 33" fill="none" xmlns="http://www.w3.org/2000/svg">
<path d="M16 9.5C12.1311 9.5 9 12.6308 9 16.5C9 18.3698 9.72814 20.1276 11.0503 21.4497C12.3724 22.7719 14.1302 23.5 16 23.5C19.8689 23.5 23 20.3692 23 16.5C23 12.6311 19.8692 9.5 16 9.5ZM18.9377 14.1852L17.3028 17.5845C17.257 17.68 17.18 17.757 17.0845 17.8028L13.6851 19.4377C13.2888 19.6284 12.8715 19.2115 13.0623 18.8149L14.6971 15.4154C14.743 15.32 14.82 15.243 14.9154 15.1971L18.3149 13.5623C18.7112 13.3717 19.1285 13.7884 18.9377 14.1852Z" fill="#4E00FF"/>
</svg>
