<svg width="16" height="16" viewBox="0 0 16 16" fill="none" xmlns="http://www.w3.org/2000/svg">
<path d="M8 0C3.57844 0 0 3.57803 0 8C0 10.1369 0.832156 12.1458 2.34316 13.6568C3.85416 15.1678 5.86313 16 8 16C12.4216 16 16 12.422 16 8C16 3.57844 12.422 0 8 0ZM11.3573 5.35447L9.48897 9.23947C9.43653 9.34853 9.34853 9.43653 9.23947 9.48897L5.35441 11.3573C4.90144 11.5753 4.42462 11.0989 4.64262 10.6456L6.511 6.7605C6.56344 6.65144 6.65144 6.56344 6.7605 6.511L10.6456 4.64262C11.0985 4.42481 11.5754 4.901 11.3573 5.35447Z" fill="#4E00FF"/>
</svg>
