<svg width="32" height="32" viewBox="0 0 32 32" fill="none" xmlns="http://www.w3.org/2000/svg">
<g clip-path="url(#clip0)">
<path d="M14.3958 9H10.0208C9.4579 9 9 9.4579 9 10.0208V12.6458C9 13.2088 9.4579 13.6667 10.0208 13.6667H14.3958C14.9588 13.6667 15.4167 13.2088 15.4167 12.6458V10.0208C15.4167 9.4579 14.9588 9 14.3958 9Z" fill="#4E00FF"/>
<path d="M14.3958 14.8333H10.0208C9.4579 14.8333 9 15.2912 9 15.8542V21.9792C9 22.5421 9.4579 23 10.0208 23H14.3958C14.9588 23 15.4167 22.5421 15.4167 21.9792V15.8542C15.4167 15.2912 14.9588 14.8333 14.3958 14.8333V14.8333Z" fill="#4E00FF"/>
<path d="M21.9789 18.3333H17.6039C17.0409 18.3333 16.583 18.7912 16.583 19.3542V21.9792C16.583 22.5421 17.0409 23 17.6039 23H21.9789C22.5418 23 22.9997 22.5421 22.9997 21.9792V19.3542C22.9997 18.7912 22.5418 18.3333 21.9789 18.3333V18.3333Z" fill="#4E00FF"/>
<path d="M21.9789 9H17.6039C17.0409 9 16.583 9.4579 16.583 10.0208V16.1458C16.583 16.7088 17.0409 17.1667 17.6039 17.1667H21.9789C22.5418 17.1667 22.9997 16.7088 22.9997 16.1458V10.0208C22.9997 9.4579 22.5418 9 21.9789 9V9Z" fill="#4E00FF"/>
</g>
<defs>
<clipPath id="clip0">
<rect width="14" height="14" fill="white" transform="translate(9 9)"/>
</clipPath>
</defs>
</svg>
