<svg width="32" height="32" viewBox="0 0 32 32" fill="none" xmlns="http://www.w3.org/2000/svg">
<path d="M16 9C12.1311 9 9 12.1308 9 16C9 17.8698 9.72814 19.6276 11.0503 20.9497C12.3724 22.2719 14.1302 23 16 23C19.8689 23 23 19.8692 23 16C23 12.1311 19.8692 9 16 9ZM18.9377 13.6852L17.3028 17.0845C17.257 17.18 17.18 17.257 17.0845 17.3028L13.6851 18.9377C13.2888 19.1284 12.8715 18.7115 13.0623 18.3149L14.6971 14.9154C14.743 14.82 14.82 14.743 14.9154 14.6971L18.3149 13.0623C18.7112 12.8717 19.1285 13.2884 18.9377 13.6852Z" fill="#978EC1"/>
</svg>
