<svg xmlns="http://www.w3.org/2000/svg" xmlns:xlink="http://www.w3.org/1999/xlink" viewBox="0 0 616.6 1313.77"><defs><style>.cls-1{isolation:isolate;}.cls-2{fill:#e28dde;}.cls-3{fill:url(#linear-gradient);}.cls-4{fill:url(#linear-gradient-2);}.cls-5{opacity:0.4;}.cls-13,.cls-5,.cls-9{mix-blend-mode:multiply;}.cls-6{fill:url(#linear-gradient-3);}.cls-7{fill:url(#linear-gradient-4);}.cls-8{fill:url(#linear-gradient-5);}.cls-9{fill:url(#linear-gradient-6);}.cls-10{fill:url(#linear-gradient-7);}.cls-11{fill:url(#linear-gradient-8);}.cls-12{fill:url(#linear-gradient-9);}.cls-13{opacity:0.3;fill:url(#linear-gradient-10);}.cls-14{fill:url(#linear-gradient-11);}.cls-15{fill:url(#linear-gradient-12);}.cls-16{fill:url(#linear-gradient-13);}.cls-17{fill:url(#linear-gradient-14);}</style><linearGradient id="linear-gradient" x1="1620.4" y1="1050.7" x2="1666.18" y2="1321.23" gradientTransform="matrix(-1, 0, 0, 1, 1849.16, 0)" gradientUnits="userSpaceOnUse"><stop offset="0" stop-color="#444b8c"/><stop offset="1" stop-color="#26264f"/></linearGradient><linearGradient id="linear-gradient-2" x1="-2182.82" y1="1096.92" x2="-2222.25" y2="1343.77" gradientTransform="translate(2438.85)" gradientUnits="userSpaceOnUse"><stop offset="0" stop-color="#311944"/><stop offset="1" stop-color="#a03976"/></linearGradient><linearGradient id="linear-gradient-3" x1="-2055.06" y1="33.64" x2="-2242.48" y2="701.05" gradientTransform="translate(2438.85)" gradientUnits="userSpaceOnUse"><stop offset="0" stop-color="#ff9085"/><stop offset="1" stop-color="#fb6fbb"/></linearGradient><linearGradient id="linear-gradient-4" x1="-2355.72" y1="360.42" x2="-2323.15" y2="466.13" xlink:href="#linear-gradient-3"/><linearGradient id="linear-gradient-5" x1="1549.14" y1="497.41" x2="1515.47" y2="1328.99" gradientTransform="matrix(-1, 0, 0, 1, 1849.16, 0)" gradientUnits="userSpaceOnUse"><stop offset="0" stop-color="#ffc444"/><stop offset="1" stop-color="#f36f56"/></linearGradient><linearGradient id="linear-gradient-6" x1="-1947.94" y1="63.72" x2="-2135.36" y2="731.13" xlink:href="#linear-gradient-3"/><linearGradient id="linear-gradient-7" x1="1494.5" y1="384.45" x2="1038.79" y2="9.91" gradientTransform="matrix(-1, 0, 0, 1, 1849.16, 0)" xlink:href="#linear-gradient-3"/><linearGradient id="linear-gradient-8" x1="1782.67" y1="380.88" x2="1618.44" y2="257.13" xlink:href="#linear-gradient"/><linearGradient id="linear-gradient-9" x1="-2298.1" y1="259.29" x2="-2220.01" y2="400.1" gradientTransform="translate(2438.85)" xlink:href="#linear-gradient"/><linearGradient id="linear-gradient-10" x1="1608.32" y1="217.43" x2="1729.89" y2="511.8" xlink:href="#linear-gradient"/><linearGradient id="linear-gradient-11" x1="-2100.99" y1="-94.91" x2="-2134.66" y2="736.66" gradientTransform="translate(2438.85)" xlink:href="#linear-gradient-5"/><linearGradient id="linear-gradient-12" x1="-2280.35" y1="143.73" x2="-2314.02" y2="975.31" gradientTransform="translate(2438.85)" xlink:href="#linear-gradient-5"/><linearGradient id="linear-gradient-13" x1="1612.25" y1="-72.02" x2="1576.46" y2="34.4" xlink:href="#linear-gradient"/><linearGradient id="linear-gradient-14" x1="-2150.79" y1="148.98" x2="-2184.46" y2="980.55" gradientTransform="translate(2438.85)" xlink:href="#linear-gradient-5"/></defs><g class="cls-1"><g id="Layer_2" data-name="Layer 2"><g id="Illustration"><path class="cls-2" d="M307.8,523.86c-55.7-27.2-164.33,71.32-217.2,165.69-21.06,37.6-45.8,81.76-39.73,134.24,10.76,93.06,114,174.68,256.07,201.93l12-42.85c-15.54-16.18-38.77-39.54-68.46-66.3-45.61-41.12-55-43.86-57.17-56.84-7.16-42.51,102.17-78.1,141.05-152.85C367.8,642.61,350.59,544.76,307.8,523.86Z"/><path class="cls-3" d="M234.63,1271.77s9.14,22.56,4.59,31.39c-4.77,9.28-18.57,6.52-57.42,8-39.79,1.49-48.79,4.69-50.38.69-3.18-8,27.74-33.35,63.9-40.06A110,110,0,0,1,234.63,1271.77Z"/><path class="cls-4" d="M226.43,1238.05l-21.63,33.72s10,9.84,26.91,6.18l23.8-32Z"/><g class="cls-5"><path class="cls-2" d="M334.36,706.88c33.44-64.27,16.23-162.12-26.56-183-11.22-5.48-24.61-5.78-39.24-2.12,7.71,22.24,6.18,38.33,2.38,49.72-16.95,50.8-90.24,45-113.14,102.85-14.48,36.55,8.54,54.69-12,84C124.51,788.67,89.7,783.58,79,813.16c-8,22,7.78,34.57,1.71,53.14-1.69,5.18-5,10.37-10.64,15.3,37.66,67.72,125.28,122.71,236.92,144.12l12-42.85c-15.54-16.18-38.77-39.54-68.46-66.3-45.61-41.12-55-43.86-57.17-56.84C186.15,817.22,295.48,781.63,334.36,706.88Z"/></g><path class="cls-2" d="M269.79,544c2.41,97.4,1.06,202.71-6,314.83a3597.78,3597.78,0,0,1-46.51,392.8l27.49,8.74c94.24-91.81,122.43-172.58,130.15-230.68,5.46-41.07-2.8-44.6,4.57-96,14-97.88,50.61-131.4,76.31-223,9.64-34.39,20.38-86.35,19.69-154.08Z"/><path class="cls-6" d="M202.29,369.56c1.71.4,9.14,2.87,12.08,33.9,7.08,74.83-31.88,105.13-22.29,145.71,9.21,39,56.18,57.85,104.52,77.3,32.3,13,132.22,53.21,190.32,8,24.46-19,27.13-42,44.58-126.44,44.32-214.54,61.5-233,42.85-279.42-32-79.75-117.73-112.78-132-118.28C290.29,51.74,110.71,159.43,39.74,283.15,30.4,299.45-25.4,396.74,13.81,442.89,37.53,470.81,92,475.32,128,456.28,176.07,430.84,186.28,365.89,202.29,369.56Z"/><path class="cls-7" d="M36.09,426.32a3.4,3.4,0,0,1-1.42-.31,3.44,3.44,0,0,1-1.7-4.54c1.3-2.86,32.69-70.23,105.23-96.81a3.42,3.42,0,1,1,2.36,6.43c-69.77,25.58-101,92.55-101.35,93.22A3.44,3.44,0,0,1,36.09,426.32Z"/><path class="cls-8" d="M320.88,349.37c-.41-3.1-3.54-24.47-21.39-31.32-8.88-3.41-24.48-4.4-30.56,5.35-3.81,6.12-3.48,15.85,1.53,20.62,6.33,6,14.59-1.14,26,3.82,13.68,6,15.9,22.49,20.63,21.39C320.77,368.36,321.94,357.55,320.88,349.37Z"/><path class="cls-9" d="M474.93,201.18c-9.6,26.13,19.2,48.77,6.86,77.14-17.7,40.66-88,19.79-113.14,60C338.86,386,407.08,464.14,378.93,490.89c-12.82,12.19-27.64-3.43-65.14,5.14-53.4,12.2-69.44,54.4-94.28,48-7.81-2-17.28-9.11-25.25-30.94-3.47,12.12-5.12,23.62-2.18,36.08,9.21,39,56.18,57.85,104.52,77.3,32.3,13,132.22,53.21,190.32,8,24.46-19,27.13-42,44.58-126.44,44.32-214.54,61.5-233,42.85-279.42-10.16-25.32-25.75-45.92-42.73-62.44C495,174.26,480,187.51,474.93,201.18Z"/><path class="cls-10" d="M322,329.23c4.1,3.73,50.11,53.14,100.15,40.63,43.59-10.9,70.35-53.27,75-88.93,11.15-84.8-99.33-156-85.71-173.13,8-10.1,50.67,8.63,80.57,27.42,24.52,15.41,127.26,80,124.51,188.22-.28,11-2,80.6-48.12,115.35C506.19,485.71,410,484.46,307.3,371Z"/><path class="cls-11" d="M97.38,225.33l49.53,158.23a12.81,12.81,0,0,0,11.78,9L223.46,402a12.81,12.81,0,0,0,13-15.53l-43.67-162a12.83,12.83,0,0,0-12.13-10.09L110,208.7A12.8,12.8,0,0,0,97.38,225.33Z"/><path class="cls-12" d="M99.75,230.54l48.08,153.57a12.43,12.43,0,0,0,11.43,8.71L216.18,402a12.44,12.44,0,0,0,12.59-15.07L186.11,229.61a12.42,12.42,0,0,0-11.77-9.79L112,214.39A12.44,12.44,0,0,0,99.75,230.54Z"/><path class="cls-13" d="M228.77,386.89,188,236.63a54.5,54.5,0,0,0-11.5,7.32c-16,13.77-25.24,38.69-19.94,58.62,6.75,25.42,32.69,26.21,36.28,47.36,2.81,16.56-10.62,34.08-21.71,44.8l45,7.23A12.44,12.44,0,0,0,228.77,386.89Z"/><path class="cls-14" d="M300.6,86.68a22.46,22.46,0,0,1-16.28,28c-15,3.62-33.3,8.63-41.2,13.15-14.5,8.29,44.16-1.29,98.11-2.56,33.68-.79,58.85-4.57,73-7.3a3.74,3.74,0,0,0,.41-7.23c-13.48-4.39-35.4-10.85-53.92-13.17-22.94-2.89-47.53-53.49-47.53-53.49L293.55,61.93Z"/><path class="cls-15" d="M127.27,338.08l3-4.95a21.18,21.18,0,0,1,23.08-15.68l15.9,2a8.55,8.55,0,0,1,7.31,10.25c-1.48,7.1-5.28,15.58-15.05,14.92-16.59-1.11-27.19,23.06-27.19,23.06l-6.37-9A18.71,18.71,0,0,1,127.27,338.08Z"/><path class="cls-16" d="M256.79,60.74c-17-2.51-35.93-16.76-35.56-28.53.5-16.18,37.5-25,56.17-29.52s26.68-2.86,32.05,1.22S318.53,15.55,319.7,22c.65,3.51.68,8.33.08,18-.54,8.54-.38,8.16-.6,10.68-.53,6.06-2.19,16.72-8.09,31.49a77.38,77.38,0,0,0-9.83-9.1,68.26,68.26,0,0,0-15-8.82C274.08,59.28,267.08,62.27,256.79,60.74Z"/><path class="cls-17" d="M320.11,65.66s-1.1,23.61-23.35,34c-19.92,9.29-46.36-32.31-39.09-48.19,2.43-5.3,9.94-11.06,17.64-12.85,4.55-1.05,6.78-.14,14.18-2,6.82-1.72,8.15-3.31,10.78-2.78,3.3.66,7.5,4.41,10.64,19.09,1.63-5.73,5.26-9.57,9.18-9.8A7.4,7.4,0,0,1,324,44.18C329.41,47.63,328.36,56.39,320.11,65.66Z"/></g></g></g></svg>