<svg xmlns="http://www.w3.org/2000/svg" xmlns:xlink="http://www.w3.org/1999/xlink" viewBox="0 0 1417.23 2039.31"><defs><style>.cls-1{fill:none;}.cls-2{fill:url(#linear-gradient);}.cls-3{fill:url(#linear-gradient-2);}.cls-4{isolation:isolate;}.cls-5{clip-path:url(#clip-path);}.cls-6{mix-blend-mode:soft-light;}.cls-7{clip-path:url(#clip-path-2);}.cls-8{fill:#fcfdfe;}.cls-9{clip-path:url(#clip-path-3);}</style><linearGradient id="linear-gradient" x1="16903.06" y1="17648.84" x2="14946.56" y2="15590.17" gradientUnits="userSpaceOnUse"><stop offset="0" stop-color="#f36f56"/><stop offset="1" stop-color="#ffc444"/></linearGradient><linearGradient id="linear-gradient-2" x1="176.87" y1="1055.72" x2="1330.48" y2="1055.72" gradientUnits="userSpaceOnUse"><stop offset="0" stop-color="#e38ddd"/><stop offset="1" stop-color="#9571f6"/></linearGradient><clipPath id="clip-path" transform="translate(-142.93 11.14)"><rect class="cls-1" width="1298.13" height="1502.52"/></clipPath><clipPath id="clip-path-2" transform="translate(-142.93 11.14)"><path class="cls-2" d="M1226.85,2027.12c20.4,4.16,68.46-4.78,80-12.28,77-49.88,227.14-133.92,253.07-227.35,4.43-16-60.5-54.39-65.39-72.09-35.45-34.55-49.89-44.34-67.46-93.74-51.87-145.86,229.55-290.16,13.71-448.54-158.1-116-328.52-106.17-215.45-374.53S1291.77-45.22,935.93,47.24C731.72,100.31,820.87,391.9,676.18,535,538.69,671,562,829.62,702.44,987.48s21.58,201.65-82.25,340c-124.74,166.25,151.63,297.79,284.41,347.64C1011.52,1715.3,1256.69,1889.65,1226.85,2027.12Z"/></clipPath><clipPath id="clip-path-3" transform="translate(-142.93 11.14)"><path class="cls-3" d="M1136,1838.69c18-3.23,54.28-26.12,61.28-36,46.58-65.67,141.79-182.94,132.62-267.56-1.57-14.45-67-24.72-76.73-37.58-40.13-16.67-55.09-20-85.45-54.56-89.64-102.12,93.06-311.14-134.38-370.27-166.6-43.31-302.39,20-297.27-235.54S516.35,127.44,256.14,318.34c-149.33,109.55,18,318.44-53.55,482.1-68,155.53,2.5,277.35,168.26,360.52s83,157.46,43.27,304c-47.78,176.07,220.32,193.67,344.79,191.23C859.14,1654.26,1115.68,1716.89,1136,1838.69Z"/></clipPath></defs><g class="cls-4"><g id="Layer_2" data-name="Layer 2"><g id="Illustration"><g class="cls-5"><g class="cls-6"><path class="cls-2" d="M1226.85,2027.12c20.4,4.16,68.46-4.78,80-12.28,77-49.88,227.14-133.92,253.07-227.35,4.43-16-60.5-54.39-65.39-72.09-35.45-34.55-49.89-44.34-67.46-93.74-51.87-145.86,229.55-290.16,13.71-448.54-158.1-116-328.52-106.17-215.45-374.53S1291.77-45.22,935.93,47.24C731.72,100.31,820.87,391.9,676.18,535,538.69,671,562,829.62,702.44,987.48s21.58,201.65-82.25,340c-124.74,166.25,151.63,297.79,284.41,347.64C1011.52,1715.3,1256.69,1889.65,1226.85,2027.12Z" transform="translate(-142.93 11.14)"/><g class="cls-7"><path class="cls-8" d="M1428.27,1908.22l3.12-3.14C948,1423.94,802.38,708.12,1042-9.73l-4.2-1.41C924.22,329.08,896.53,682.33,957.7,1010.44,1022,1355.38,1184.72,1665.83,1428.27,1908.22Z" transform="translate(-142.93 11.14)"/><path class="cls-8" d="M560.42,1390.67C747,1393,1028,1487.46,1186.89,1601.22l2.58-3.6c-159.53-114.21-441.69-209-629-211.38Z" transform="translate(-142.93 11.14)"/><path class="cls-8" d="M1334.45,1812.68l3.87-2.15c-49.32-88.8-51.85-199.13-7.52-327.91,32.51-94.43,89-196.4,167.86-303.08l-3.56-2.63c-79.15,107-135.84,209.41-168.49,304.27C1281.86,1611.2,1284.49,1722.73,1334.45,1812.68Z" transform="translate(-142.93 11.14)"/><path class="cls-8" d="M950.82,963.53l4-1.95c-84.35-172.17-260.27-270.68-393-323l-1.62,4.12C692.18,694.74,867.1,792.63,950.82,963.53Z" transform="translate(-142.93 11.14)"/><path class="cls-8" d="M929.93,525.14l4.28,1.12c54.94-208.88,233.66-348.39,335.3-412.95l-2.37-3.74C1165,174.48,985.25,314.79,929.93,525.14Z" transform="translate(-142.93 11.14)"/></g></g><g class="cls-6"><path class="cls-3" d="M1136,1838.69c18-3.23,54.28-26.12,61.28-36,46.58-65.67,141.79-182.94,132.62-267.56-1.57-14.45-67-24.72-76.73-37.58-40.13-16.67-55.09-20-85.45-54.56-89.64-102.12,93.06-311.14-134.38-370.27-166.6-43.31-302.39,20-297.27-235.54S516.35,127.44,256.14,318.34c-149.33,109.55,18,318.44-53.55,482.1-68,155.53,2.5,277.35,168.26,360.52s83,157.46,43.27,304c-47.78,176.07,220.32,193.67,344.79,191.23C859.14,1654.26,1115.68,1716.89,1136,1838.69Z" transform="translate(-142.93 11.14)"/><g class="cls-9"><path class="cls-8" d="M1261.65,1676.35l1.52-3.57c-550.42-235.52-901.47-772.09-939-1435.32l-3.89.22C338.05,552,430.12,849.1,586.49,1096.85,750.88,1357.31,984.34,1557.7,1261.65,1676.35Z" transform="translate(-142.93 11.14)"/><path class="cls-8" d="M385.87,1535.9c152.9-58.64,412.76-72.81,579.28-31.6l.93-3.77c-167.17-41.38-428.08-27.14-581.6,31.73Z" transform="translate(-142.93 11.14)"/><path class="cls-8" d="M1154.12,1628.88l2.46-3c-69-56.42-106.91-145.58-112.55-265-4.14-87.57,8.83-189.06,38.54-301.67l-3.76-1c-29.81,113-42.82,214.88-38.66,302.84C1045.84,1481.62,1084.19,1571.73,1154.12,1628.88Z" transform="translate(-142.93 11.14)"/><path class="cls-8" d="M565.66,1060.82l2.61-2.88C443.59,944.89,268.15,921.64,142.93,922v3.89C267.48,925.53,441.91,948.61,565.66,1060.82Z" transform="translate(-142.93 11.14)"/><path class="cls-8" d="M406.34,710.05l3.86-.47c-23-188.2,77.5-360,139.45-445.62l-3.15-2.28C484.22,347.79,383.2,520.54,406.34,710.05Z" transform="translate(-142.93 11.14)"/></g></g></g></g></g></g></svg>