<svg xmlns="http://www.w3.org/2000/svg" xmlns:xlink="http://www.w3.org/1999/xlink" viewBox="0 0 1447.65 1048.58"><defs><style>.cls-1{isolation:isolate;}.cls-2{fill:url(#linear-gradient);}.cls-29,.cls-3,.cls-6{opacity:0.3;}.cls-10,.cls-24,.cls-29,.cls-3,.cls-42,.cls-6{mix-blend-mode:multiply;}.cls-4{fill:url(#linear-gradient-2);}.cls-5{fill:url(#linear-gradient-3);}.cls-6{fill:url(#linear-gradient-4);}.cls-7{fill:url(#linear-gradient-5);}.cls-8{fill:url(#linear-gradient-6);}.cls-9{fill:url(#linear-gradient-7);}.cls-10{opacity:0.24;}.cls-11{fill:#552d63;}.cls-12{fill:url(#linear-gradient-8);}.cls-13{fill:url(#linear-gradient-9);}.cls-14{fill:url(#linear-gradient-10);}.cls-15{fill:url(#linear-gradient-11);}.cls-16{fill:#fff;}.cls-17{fill:url(#linear-gradient-12);}.cls-18{fill:url(#linear-gradient-13);}.cls-19{fill:url(#linear-gradient-14);}.cls-20{fill:url(#linear-gradient-15);}.cls-21{fill:url(#linear-gradient-16);}.cls-22{fill:url(#linear-gradient-17);}.cls-23{fill:url(#linear-gradient-18);}.cls-24{opacity:0.6;fill:url(#linear-gradient-19);}.cls-25{fill:url(#linear-gradient-20);}.cls-26{fill:url(#linear-gradient-21);}.cls-27{fill:url(#linear-gradient-22);}.cls-28{fill:url(#linear-gradient-23);}.cls-29{fill:url(#linear-gradient-24);}.cls-30{fill:url(#linear-gradient-25);}.cls-31{fill:url(#linear-gradient-26);}.cls-32{fill:url(#linear-gradient-27);}.cls-33{fill:url(#linear-gradient-28);}.cls-34{fill:#26264f;}.cls-35{fill:#444b8c;}.cls-36{fill:url(#linear-gradient-29);}.cls-37{fill:#1f1f44;}.cls-38{fill:url(#linear-gradient-30);}.cls-39{fill:url(#linear-gradient-31);}.cls-40{fill:url(#linear-gradient-32);}.cls-41{fill:url(#linear-gradient-33);}.cls-42{opacity:0.2;}.cls-43{fill:url(#linear-gradient-34);}</style><linearGradient id="linear-gradient" x1="342.82" y1="143.54" x2="1178.19" y2="1928.06" gradientTransform="translate(-73.9)" gradientUnits="userSpaceOnUse"><stop offset="0" stop-color="#aa80f9"/><stop offset="1" stop-color="#6165d7"/></linearGradient><linearGradient id="linear-gradient-2" x1="726.55" y1="409.16" x2="649.36" y2="863.07" xlink:href="#linear-gradient"/><linearGradient id="linear-gradient-3" x1="342.82" y1="143.54" x2="1178.19" y2="1928.07" xlink:href="#linear-gradient"/><linearGradient id="linear-gradient-4" x1="125.2" y1="502.3" x2="881.96" y2="502.3" gradientTransform="matrix(1, 0, 0, 1, 0, 0)" xlink:href="#linear-gradient"/><linearGradient id="linear-gradient-5" x1="-1805.02" y1="592.71" x2="-1631.52" y2="592.71" gradientTransform="matrix(0.66, -0.75, 0.75, 0.66, 2055.92, -828.15)" gradientUnits="userSpaceOnUse"><stop offset="0" stop-color="#40447e"/><stop offset="1" stop-color="#3c3b6b"/></linearGradient><linearGradient id="linear-gradient-6" x1="1384.35" y1="423.75" x2="2780.62" y2="1872.71" gradientTransform="translate(-321.74 -57.36) rotate(5.62)" gradientUnits="userSpaceOnUse"><stop offset="0" stop-color="#ffc444"/><stop offset="1" stop-color="#f36f56"/></linearGradient><linearGradient id="linear-gradient-7" x1="398.68" y1="590.71" x2="1256.56" y2="1046.37" gradientTransform="translate(87.01 4.27) rotate(-3.5)" gradientUnits="userSpaceOnUse"><stop offset="0" stop-color="#311944"/><stop offset="1" stop-color="#6b3976"/></linearGradient><linearGradient id="linear-gradient-8" x1="73.84" y1="794.83" x2="851.74" y2="650.3" gradientTransform="translate(87.01 4.27) rotate(-3.5)" gradientUnits="userSpaceOnUse"><stop offset="0" stop-color="#311944"/><stop offset="1" stop-color="#893976"/></linearGradient><linearGradient id="linear-gradient-9" x1="631.99" y1="348.36" x2="549.29" y2="624.02" gradientTransform="matrix(1, 0, 0, 1, 0, 0)" xlink:href="#linear-gradient-6"/><linearGradient id="linear-gradient-10" x1="353.08" y1="572.8" x2="6.91" y2="1831.24" gradientTransform="translate(87.01 4.27) rotate(-3.5)" xlink:href="#linear-gradient-6"/><linearGradient id="linear-gradient-11" x1="399.58" y1="713.95" x2="314.57" y2="381.44" gradientTransform="translate(87.01 4.27) rotate(-3.5)" xlink:href="#linear-gradient-6"/><linearGradient id="linear-gradient-12" x1="266.96" y1="549.11" x2="-79.22" y2="1807.54" gradientTransform="translate(87.01 4.27) rotate(-3.5)" xlink:href="#linear-gradient-6"/><linearGradient id="linear-gradient-13" x1="359.21" y1="287.4" x2="454.88" y2="287.4" gradientTransform="matrix(1, 0, 0, 1, 0, 0)" xlink:href="#linear-gradient-6"/><linearGradient id="linear-gradient-14" x1="462.81" y1="656.68" x2="676.05" y2="656.68" gradientTransform="matrix(1, 0, 0, 1, 0, 0)" xlink:href="#linear-gradient-6"/><linearGradient id="linear-gradient-15" x1="976.81" y1="140.69" x2="962.52" y2="161.06" gradientTransform="translate(-467.56 -38.28) rotate(6.1)" xlink:href="#linear-gradient-6"/><linearGradient id="linear-gradient-16" x1="950.82" y1="172.97" x2="978.49" y2="116.09" gradientTransform="translate(-467.56 -38.28) rotate(6.1)" xlink:href="#linear-gradient-6"/><linearGradient id="linear-gradient-17" x1="971.02" y1="149.5" x2="975.72" y2="146.58" gradientTransform="matrix(1, 0, 0, 1, -489.84, 62.51)" xlink:href="#linear-gradient-6"/><linearGradient id="linear-gradient-18" x1="975.3" y1="134.26" x2="960.94" y2="151.28" gradientTransform="translate(623.54 -733.86) rotate(90)" xlink:href="#linear-gradient-6"/><linearGradient id="linear-gradient-19" x1="946.06" y1="158.57" x2="963.51" y2="158.57" gradientTransform="translate(-467.56 -38.28) rotate(6.1)" xlink:href="#linear-gradient-6"/><linearGradient id="linear-gradient-20" x1="-6998.96" y1="1139.9" x2="-6997.79" y2="1139.9" gradientTransform="matrix(-0.95, -0.31, -0.31, 0.95, 6322.83, 949.94)" gradientUnits="userSpaceOnUse"><stop offset="0" stop-color="#311944"/><stop offset="1" stop-color="#a03976"/></linearGradient><linearGradient id="linear-gradient-21" x1="-6998.84" y1="1171.06" x2="-6997.67" y2="1171.06" xlink:href="#linear-gradient-20"/><linearGradient id="linear-gradient-22" x1="878.24" y1="-170.52" x2="905.07" y2="-225.66" gradientTransform="matrix(1.03, 0.11, -0.12, 1.09, -499.12, 301.9)" xlink:href="#linear-gradient-6"/><linearGradient id="linear-gradient-23" x1="896.43" y1="-239.31" x2="890.65" y2="-220.12" gradientTransform="matrix(1.03, 0.11, -0.12, 1.09, -499.12, 301.9)" xlink:href="#linear-gradient-6"/><linearGradient id="linear-gradient-24" x1="896.46" y1="-239.4" x2="890.66" y2="-220.17" gradientTransform="matrix(1.03, 0.11, -0.12, 1.09, -499.12, 301.9)" xlink:href="#linear-gradient-6"/><linearGradient id="linear-gradient-25" x1="869.17" y1="158.04" x2="901.62" y2="158.04" gradientTransform="translate(-467.56 -38.28) rotate(6.1)" xlink:href="#linear-gradient-6"/><linearGradient id="linear-gradient-26" x1="872.3" y1="163.8" x2="846.26" y2="178.96" gradientTransform="translate(550.9 -669.52) rotate(90)" xlink:href="#linear-gradient-6"/><linearGradient id="linear-gradient-27" x1="853.8" y1="158.04" x2="889.47" y2="158.04" gradientTransform="translate(-467.56 -38.28) rotate(6.1)" xlink:href="#linear-gradient-6"/><linearGradient id="linear-gradient-28" x1="853.8" y1="157.59" x2="875.25" y2="157.59" gradientTransform="translate(-467.56 -38.28) rotate(6.1)" xlink:href="#linear-gradient-6"/><linearGradient id="linear-gradient-29" x1="499.36" y1="578.15" x2="778.47" y2="578.15" gradientTransform="translate(87.01 4.27) rotate(-3.5)" xlink:href="#linear-gradient-5"/><linearGradient id="linear-gradient-30" x1="-204.81" y1="751.19" x2="-66.18" y2="751.19" gradientTransform="translate(965.1 -140.53) rotate(-22.13)" xlink:href="#linear-gradient-5"/><linearGradient id="linear-gradient-31" x1="908.61" y1="621.37" x2="2304.94" y2="2070.4" gradientTransform="translate(87.01 4.27) rotate(-3.5)" xlink:href="#linear-gradient-6"/><linearGradient id="linear-gradient-32" x1="329.19" y1="720.47" x2="968.7" y2="658.13" xlink:href="#linear-gradient-7"/><linearGradient id="linear-gradient-33" x1="83.3" y1="845.75" x2="861.21" y2="701.22" xlink:href="#linear-gradient-8"/><linearGradient id="linear-gradient-34" x1="360.77" y1="744.36" x2="831.4" y2="643.78" xlink:href="#linear-gradient-7"/></defs><g class="cls-1"><g id="Layer_2" data-name="Layer 2"><g id="Illustration"><path class="cls-2" d="M398.52,71.18S257.78-172.52,67.43,241.92C-80.78,564.65,15,923.68,357.91,1022.19s878.44-100.44,710.34-240.66C711.66,484.09,441,220.45,398.52,71.18Z"/><g class="cls-3"><path class="cls-4" d="M221.91,290.19c-10,29.52-12.28,113.61-8.06,210.32,3.77,86.26-4.06,131.37,133.19,194.11,47,21.51,79.58,89.76,151.61,130.36,32.66,18.41,155.68,85,314.55,58.09,105.13-17.8,183.4-69.36,236.1-117.41-347.16-290.92-609-547.87-650.78-694.48,0,0-51.42-89-134.13-67.91C284.46,25.64,291.27,85.87,221.91,290.19Z"/></g><g class="cls-3"><path class="cls-5" d="M906.72,924.16c-162.16,89.55-433,144.2-634.77-5.67C85.12,779.73,68.47,547.34,62.24,476.42,51.36,352.47,75.57,244.55,110.49,157.49c-14,24.52-28.39,52.51-43,84.43C-80.78,564.65,15,923.68,357.91,1022.19c337.51,97,861.68-94.28,717.73-234C1034.73,834.32,979.53,884,906.72,924.16Z"/></g><path class="cls-6" d="M651.25,950.75q-7.2,0-14.51-.16C511.5,947.8,335.67,906.2,209.24,723.91c-106.78-154-92.49-327.73-61.7-446.38C180.87,149.12,240.19,55.8,240.79,54.87a2.23,2.23,0,0,1,3.75,2.41C244,58.2,185,151,151.83,278.77c-30.53,117.72-44.71,290.06,61.08,442.6,125.35,180.74,299.73,222,423.93,224.76,134.77,3,241-37.26,242.09-37.66a2.23,2.23,0,0,1,1.6,4.16C879.5,913,779.87,950.75,651.25,950.75Z"/><path class="cls-7" d="M1323.8,927.7c-8.94-9.62-25-51,4.25-59.54,29.37-8.56,45.7-19.4,86.14-51.82s50.83-4.58-6.29,48.08S1336.51,941.38,1323.8,927.7Z"/><path class="cls-8" d="M1285.53,867.22l24.06,21a15.07,15.07,0,0,0,18,1.39,9.79,9.79,0,0,0,1.14-15.72l-35.17-30.09Z"/><path class="cls-9" d="M565,665c-42.5,37.24,46.23,159.36,188,119.78,171.77-48,390.23-26.41,537.48,93.49,8.55-7.6,29.71-19.53,20-29.31-133-134.52-256.24-211.75-358.3-232.47C797.85,585.11,686,558.92,565,665Z"/><g class="cls-10"><path class="cls-11" d="M1063.29,716.1c24.92,14.49,30.23-15,43.09-34.33-55.18-33.88-107-55.74-154.24-65.33C797.85,585.11,686,558.92,565,665c-42.5,37.24,46.23,159.36,188,119.78,51.27-14.32,106.72-22.28,163.17-23.45C961.5,732.73,998.65,667.22,1063.29,716.1Z"/></g><path class="cls-12" d="M539.87,792.16l-8.72,3.34s-56.44-53.29-66.5-66.87c-12.27-16.57,125.93-58.82,170.81-114.09,47.16-58.08,9.9,69,9.9,69Z"/><path class="cls-13" d="M488.69,269.35s50.11,6.87,105.05,104.29c41.31,73.25,131,133.94,131,133.94l9.21,57.63L659.5,578.29l-26.62-17.53L560.24,406.22Z"/><path class="cls-14" d="M391.54,263.14S268,278.37,265.38,420.49c-2.45,131.15,44.87,182,161,291.32,11.67,11,30.61,11,32,12.58q11.31,12.76,22.91,26.65c103.92-99.73,221.09-133.5,221.09-133.5S594,393.36,546.39,319.05C497.29,242.43,423.25,255.52,391.54,263.14Z"/><g class="cls-3"><path class="cls-15" d="M596.6,594.21c-52.14,27.89-126,24.74-153.2-9.78-20.47-26-23.78-35.69-48.69-76.51-20-32.85-29.8-38.11-73.59-65.77-16.53-10.43-35.28-25.54-53.67-48.18a218.22,218.22,0,0,0-2.07,26.52c-2.45,131.15,44.87,182,161,291.32,11.67,11,30.61,11,32,12.58q11.31,12.76,22.91,26.65c103.92-99.73,221.09-133.5,221.09-133.5s-18-35.26-41.81-84.84C643.29,561.65,630.05,576.31,596.6,594.21Z"/></g><path class="cls-16" d="M511.44,598.38s23.41,1.08,40-5.61,15.26-8.24,34.39-10.67c18.6-2.36,55.24-13.4,34.5-32.26-23.09-21-62.66-15.11-74-1.18-11,13.44-30,22-30,22Z"/><path class="cls-17" d="M302.66,334s-68.59,8-28.56,228.88c20.76,114.56,123.37,98.43,247.29,51.1,8.39-17.55-2.41-54.74-2.41-54.74s-154,63.47-157.93-29.13C356.58,426.26,342.69,323,302.66,334Z"/><path class="cls-18" d="M420.28,310.13c-29.36,0-59.19-21.74-60.62-22.79a1.12,1.12,0,0,1,1.32-1.8c.4.29,39.6,28.88,71.34,20.95,8.79-2.2,14.81-6.5,17.89-12.79,5.86-12-.78-27.31-.85-27.47a1.11,1.11,0,1,1,2-.9c.3.67,7.12,16.46.81,29.35-3.38,6.91-9.89,11.6-19.35,14A51.89,51.89,0,0,1,420.28,310.13Z"/><path class="cls-19" d="M463.93,719.85a1.09,1.09,0,0,1-.83-.37,1.11,1.11,0,0,1,.08-1.57c1.11-1,111.67-100,211.49-124.38a1.12,1.12,0,1,1,.53,2.17C575.93,620,465.78,718.57,464.67,719.57A1.1,1.1,0,0,1,463.93,719.85Z"/><path class="cls-16" d="M402.09,209s-9.43,48.26-16.6,55.49,3.19,24.23,29.56,38.7,20.11-44.34,20.11-44.34Z"/><path class="cls-20" d="M472.78,192.05l2.87.3c11.83,1.27,20,15.23,18.33,31.19l-.1.89c-1.7,16-12.67,27.87-24.5,26.61l-2.87-.31c-6-.64-9.39-14.29-7.66-30.49S466.82,191.41,472.78,192.05Z"/><path class="cls-21" d="M452.11,219.52c-1.9,17.73,3.48,32.85,12.29,33.79s17.72-12.65,19.62-30.38-3.95-32.91-12.76-33.85S454,201.78,452.11,219.52Z"/><rect class="cls-22" x="464.92" y="188.77" width="3.38" height="64.6" transform="translate(26.15 -48.35) rotate(6.1)"/><ellipse class="cls-23" cx="464.93" cy="220.89" rx="32.3" ry="16.04" transform="translate(195.89 659.71) rotate(-83.9)"/><path class="cls-24" d="M456.25,220c-1,9.64,2,17.88,6.81,18.39s9.51-6.89,10.54-16.54-2-17.88-6.81-18.39S457.28,210.31,456.25,220Z"/><path class="cls-25" d="M466.38,217.06c11.12-7.22,17.52-24.48,12.34-38.68-4.45-12.21-16.06-17.83-23-21.2-20.08-9.74-49.2-10.57-64.61,4.86-9.12,9.13-5.21,36.23-4.78,41,.5,5.41,3.71,8.35,6,13.12,3.16,6.62,8.07,17.1,16,34.54a84.88,84.88,0,0,1,9.38-12A74.92,74.92,0,0,1,433,226.06C448.27,217.05,455.85,223.89,466.38,217.06Z"/><path class="cls-16" d="M394.44,233.45s6.26,26.75,34.06,34.86c25,7.28,46.69-44.81,34.88-61.75-3.94-5.65-13.86-10.94-23.13-11.65-5.47-.42-7.85,1-16.77.14-8.22-.79-10.08-2.37-13-1.31-3.65,1.32-7.68,6.32-8.18,23.59-3.09-6.25-8.06-10-12.62-9.6a8.39,8.39,0,0,0-4.28,1.92C380,214.5,383,224.3,394.44,233.45Z"/><path class="cls-26" d="M410.46,190.16c.88,1.27-4.15,4.26-6.46,10.21-4.49,11.55,2.92,30,14.95,35.67,7.12,3.36,10.61-.24,23.22,2.89a61.46,61.46,0,0,1,17.47,7.4c-.54,14.28-8.51,25.83-19.4,28.59-11.7,3-22.54-5.31-27.07-8.78-3-2.31-12.73-9.7-15.12-21.46-2.49-12.25,5.38-16.27.91-25.56-2.26-4.68-6.25-7.79-8.36-16.05a35.61,35.61,0,0,1-.94-5.39C398.12,193.44,409.17,188.31,410.46,190.16Z"/><path class="cls-16" d="M449.13,247.91s-6.19.79-15.14-3c-.43-.19-1-.24-1.1,0-.49.76,4.08,6.64,10,7.11,4.18.33,8.36-2.13,8.15-3.21C450.92,248.33,450,248.07,449.13,247.91Z"/><path class="cls-27" d="M399.09,194.09l-3.65-.43,1.29-11.28c2.22-19.45,17.44-33.94,34.63-33l18.41,1c9.63.54,18.3,5.39,24.42,13.66a42.13,42.13,0,0,1,7.68,29.71l-1,9-3.66-.39,1-9a37.72,37.72,0,0,0-6.88-26.59c-5.48-7.4-13.24-11.74-21.85-12.22l-18.41-1c-15.24-.85-28.73,12-30.7,29.24Z"/><path class="cls-28" d="M473.47,173.65a5.16,5.16,0,0,1-3.83-2.45c-4.78-7.45-12.23-12-20.43-12.44l-18.41-1a23.75,23.75,0,0,0-17.73,6.84,5.05,5.05,0,0,1-7.76-.67,6.88,6.88,0,0,1,.8-8.82c7.21-6.87,16.27-10.36,25.53-9.85l18.41,1c11.48.63,21.89,7,28.57,17.39a6.89,6.89,0,0,1-1.28,8.77A5.1,5.1,0,0,1,473.47,173.65Z"/><path class="cls-29" d="M467.1,160.16c-13-5.89-12.63-10-19.63-11.06-13.1-2-19.92,11.51-32.54,8.29a19.42,19.42,0,0,1-7.26-3.72c-.53.46-1.05.92-1.56,1.41a6.88,6.88,0,0,0-.8,8.82,5.05,5.05,0,0,0,7.76.67,23.75,23.75,0,0,1,17.73-6.84l18.41,1c8.2.45,15.65,5,20.43,12.44a5.16,5.16,0,0,0,3.83,2.45,5.1,5.1,0,0,0,3.87-1.23,6.91,6.91,0,0,0,1.72-8A78.44,78.44,0,0,1,467.1,160.16Z"/><path class="cls-30" d="M412.12,214.71c-1.92,17.93-10.69,31.7-19.6,30.74s-14.58-16.26-12.66-34.19,10.69-31.7,19.6-30.75S414,196.77,412.12,214.71Z"/><ellipse class="cls-31" cx="392.82" cy="212.64" rx="32.66" ry="16.22" transform="translate(139.64 580.64) rotate(-83.9)"/><path class="cls-32" d="M392.29,182.58l-2.91-.31c-11.95-1.27-23,10.77-24.76,26.9l-.1.91c-1.72,16.13,6.57,30.25,18.52,31.52l2.91.31c6,.65,12.34-12.11,14.09-28.49S398.32,183.23,392.29,182.58Z"/><path class="cls-33" d="M386,211.45c-1.27,11.83-7.07,20.9-13,20.27s-9.64-10.72-8.37-22.55,7.06-20.9,12.95-20.27S387.21,199.62,386,211.45Z"/><path class="cls-34" d="M527.89,628.07a3,3,0,0,0-2.45,2c0,.15.4,5.75.39,5.92a2.81,2.81,0,0,0,1.93,2.91l105,34.12L829.05,596.2l-93.25,7.13Z"/><path class="cls-35" d="M527.84,627.31a2.81,2.81,0,0,0-.46,5.45l105,34.12L828.68,590l-93.26,7.13Z"/><path class="cls-36" d="M627.76,665.35,643.4,460.61a7.09,7.09,0,0,1,6-6.47l235-36.79a7.08,7.08,0,0,1,8.18,7.33l-8.82,190.84a7.08,7.08,0,0,1-5.79,6.64L633.81,667.37Z"/><path class="cls-34" d="M632.78,673.07l16.14-209.26a7.08,7.08,0,0,1,6-6.46l235.05-36.79a7.08,7.08,0,0,1,8.18,7.33L889.3,618.75a7.1,7.1,0,0,1-5.76,6.65Z"/><path class="cls-37" d="M632.78,673.06,883.54,625.4a7.1,7.1,0,0,0,5.76-6.65L892,561.19C817.26,603.61,723.65,609,636.41,626Z"/><path class="cls-38" d="M1057.49,630.17c-3.42-11.9-11-25,16-34.65,19.64-7,53.74-9.21,84.73-10.8,43.44-2.22,53.43,23.76-10,40.3C1106.64,635.84,1062.37,647.1,1057.49,630.17Z"/><path class="cls-39" d="M1091.34,612c.41,6.66-3.84,11.89-9.37,12.68-12.85,1.84-10.44-4.78-10.85-11.44s-5.61-11.29,9.37-12.68C1086.06,600,1090.93,605.29,1091.34,612Z"/><path class="cls-40" d="M959.46,573.64l12.68-2S996.86,574,1065,592.73c14.58,2.42,34.46,45-8.26,46.64S962,672.86,962,672.86Z"/><path class="cls-41" d="M515.9,771.63s6.22,55.22,134.62,50.19,357.78-138.31,356.33-208.26-86.8-42-175.17-1.57c-74.59,34.12-189.82,53.89-213.43,57.55C588,674.23,508.6,745.1,515.9,771.63Z"/><g class="cls-42"><path class="cls-43" d="M683.91,702.43c59.43-6.06,72.77-48.71,146.73-61,47.93-8,64.85,6.16,89.28-10.2,19.29-12.92,29.13-35.44,33.87-59.9-32.77,2.78-77,20.07-122.11,40.7-72.45,33.14-183.23,52.74-211.17,57.19-.83.14-19.56-6.56-19.56-6.56s-14,8-24,14.26C616,697.76,662.2,704.64,683.91,702.43Z"/></g></g></g></g></svg>