<svg xmlns="http://www.w3.org/2000/svg" xmlns:xlink="http://www.w3.org/1999/xlink" viewBox="0 0 2625.47 1674.17"><defs><style>.cls-1{isolation:isolate;}.cls-2{fill:url(#linear-gradient);}.cls-3,.cls-33,.cls-34,.cls-4{opacity:0.3;}.cls-3,.cls-33,.cls-4{mix-blend-mode:multiply;}.cls-3{fill:url(#linear-gradient-2);}.cls-4{fill:url(#linear-gradient-3);}.cls-5{fill:url(#linear-gradient-4);}.cls-6{fill:url(#linear-gradient-5);}.cls-7{fill:url(#linear-gradient-6);}.cls-8{fill:url(#linear-gradient-7);}.cls-9{fill:url(#linear-gradient-8);}.cls-10{fill:url(#linear-gradient-9);}.cls-11{fill:url(#linear-gradient-10);}.cls-12{fill:url(#linear-gradient-11);}.cls-13{fill:url(#linear-gradient-12);}.cls-14{fill:url(#linear-gradient-13);}.cls-15{fill:url(#linear-gradient-14);}.cls-16{fill:url(#linear-gradient-15);}.cls-17{fill:url(#linear-gradient-16);}.cls-18{fill:url(#linear-gradient-17);}.cls-19{fill:url(#linear-gradient-18);}.cls-20{fill:url(#linear-gradient-19);}.cls-21{fill:url(#linear-gradient-20);}.cls-22{fill:url(#linear-gradient-21);}.cls-23{fill:url(#linear-gradient-22);}.cls-24{fill:url(#linear-gradient-23);}.cls-25{fill:url(#linear-gradient-24);}.cls-26{fill:url(#linear-gradient-25);}.cls-27{fill:url(#linear-gradient-26);}.cls-28{fill:url(#linear-gradient-27);}.cls-29{fill:url(#linear-gradient-28);}.cls-30{fill:url(#linear-gradient-29);}.cls-31{fill:url(#linear-gradient-30);}.cls-32{fill:url(#linear-gradient-31);}.cls-33{fill:url(#linear-gradient-32);}.cls-34{mix-blend-mode:soft-light;fill:url(#linear-gradient-33);}</style><linearGradient id="linear-gradient" x1="756.53" y1="-27.7" x2="1788.54" y2="1888.88" gradientUnits="userSpaceOnUse"><stop offset="0" stop-color="#444b8c"/><stop offset="1" stop-color="#26264f"/></linearGradient><linearGradient id="linear-gradient-2" x1="1070.76" y1="288.6" x2="1813.6" y2="288.6" gradientUnits="userSpaceOnUse"><stop offset="0" stop-color="#40447e"/><stop offset="1" stop-color="#3c3b6b"/></linearGradient><linearGradient id="linear-gradient-3" x1="1919.59" y1="945.69" x2="2428.39" y2="422.43" xlink:href="#linear-gradient"/><linearGradient id="linear-gradient-4" x1="834.86" y1="713.13" x2="410.86" y2="23.17" xlink:href="#linear-gradient"/><linearGradient id="linear-gradient-5" x1="826.81" y1="827.16" x2="1314.7" y2="827.16" xlink:href="#linear-gradient"/><linearGradient id="linear-gradient-6" x1="1027.8" y1="419.53" x2="1054.78" y2="670.08" xlink:href="#linear-gradient"/><linearGradient id="linear-gradient-7" x1="1103.84" y1="722.17" x2="1058.07" y2="1144.51" xlink:href="#linear-gradient"/><linearGradient id="linear-gradient-8" x1="1094.8" y1="671.06" x2="1090.64" y2="1033.07" xlink:href="#linear-gradient"/><linearGradient id="linear-gradient-9" x1="1580.63" y1="796.68" x2="2033.24" y2="796.68" xlink:href="#linear-gradient"/><linearGradient id="linear-gradient-10" x1="1758.69" y1="340.82" x2="1785.67" y2="591.37" xlink:href="#linear-gradient"/><linearGradient id="linear-gradient-11" x1="1848.67" y1="691.77" x2="1802.9" y2="1114.11" xlink:href="#linear-gradient"/><linearGradient id="linear-gradient-12" x1="1839.62" y1="640.66" x2="1835.46" y2="1002.67" xlink:href="#linear-gradient"/><linearGradient id="linear-gradient-13" x1="917.67" y1="22.45" x2="1010.18" y2="291.3" gradientUnits="userSpaceOnUse"><stop offset="0" stop-color="#aa80f9"/><stop offset="1" stop-color="#6165d7"/></linearGradient><linearGradient id="linear-gradient-14" x1="1736.87" y1="-259.43" x2="1829.38" y2="9.43" xlink:href="#linear-gradient-13"/><linearGradient id="linear-gradient-15" x1="975.23" y1="587.26" x2="901.03" y2="515.95" xlink:href="#linear-gradient-13"/><linearGradient id="linear-gradient-16" x1="834" y1="734.23" x2="759.8" y2="662.92" xlink:href="#linear-gradient-13"/><linearGradient id="linear-gradient-17" x1="833.69" y1="734.54" x2="759.49" y2="663.23" xlink:href="#linear-gradient-13"/><linearGradient id="linear-gradient-18" x1="974.59" y1="587.93" x2="900.39" y2="516.62" xlink:href="#linear-gradient-13"/><linearGradient id="linear-gradient-19" x1="714.48" y1="358.67" x2="870.59" y2="690.16" xlink:href="#linear-gradient-13"/><linearGradient id="linear-gradient-20" x1="599.87" y1="412.64" x2="755.98" y2="744.13" xlink:href="#linear-gradient-13"/><linearGradient id="linear-gradient-21" x1="544.12" y1="438.89" x2="700.23" y2="770.38" xlink:href="#linear-gradient-13"/><linearGradient id="linear-gradient-22" x1="768.65" y1="333.16" x2="924.76" y2="664.65" xlink:href="#linear-gradient-13"/><linearGradient id="linear-gradient-23" x1="2339.74" y1="665.57" x2="1888.75" y2="-70.66" xlink:href="#linear-gradient"/><linearGradient id="linear-gradient-24" x1="2546.81" y1="589.76" x2="2445.63" y2="488.58" xlink:href="#linear-gradient-13"/><linearGradient id="linear-gradient-25" x1="2369.98" y1="766.59" x2="2268.8" y2="665.41" xlink:href="#linear-gradient-13"/><linearGradient id="linear-gradient-26" x1="2372.57" y1="764" x2="2271.39" y2="662.82" xlink:href="#linear-gradient-13"/><linearGradient id="linear-gradient-27" x1="2542.86" y1="593.71" x2="2441.68" y2="492.53" xlink:href="#linear-gradient-13"/><linearGradient id="linear-gradient-28" x1="2221.05" y1="316.05" x2="2403.18" y2="940.49" xlink:href="#linear-gradient-13"/><linearGradient id="linear-gradient-29" x1="2125.98" y1="343.78" x2="2308.11" y2="968.22" xlink:href="#linear-gradient-13"/><linearGradient id="linear-gradient-30" x1="2017.42" y1="375.44" x2="2199.55" y2="999.88" xlink:href="#linear-gradient-13"/><linearGradient id="linear-gradient-31" x1="2327.14" y1="285.11" x2="2509.27" y2="909.55" xlink:href="#linear-gradient-13"/><linearGradient id="linear-gradient-32" x1="74.75" y1="339.41" x2="1106.76" y2="2256" xlink:href="#linear-gradient"/><linearGradient id="linear-gradient-33" x1="1070.76" y1="315.66" x2="1813.6" y2="315.66" xlink:href="#linear-gradient-13"/></defs><g class="cls-1"><g id="Layer_2" data-name="Layer 2"><g id="Illustration"><path class="cls-2" d="M2619,1140,2435.89,248.75C2399.54,71.82,2230.33-37,2062.71,11.61l-75.74,22a302.85,302.85,0,0,1-83.69,12l-169.13.37-695.9,1.49L855,47.78A352.06,352.06,0,0,1,762.08,35.5L676.67,12.37C483.09-40.06,281,79.16,236.66,275.2L8.35,1285.11C-29.83,1454,66.17,1615.44,231,1661.79h0c183.37,51.55,381.48-63.12,432-247l78.39-285.61c16.26-59.26,69.73-102.19,130.38-105l1016.31-46.78c55-2.53,102.9,33.51,117.4,88l69.31,260.45c44.14,165.88,213.74,246.13,365.74,175.59h0C2573.24,1439.79,2648.9,1285.78,2619,1140Z"/><path class="cls-3" d="M1728.32,515.64l-566.11,15.8c-50.4,1.41-91.45-45.14-91.45-104V47.57l742.84-1.84V410.87C1813.6,467.42,1775.52,514.32,1728.32,515.64Z"/><path class="cls-4" d="M2192.43,1276.59c-1.78-66.49,29.89-100.74,23.13-202.36-3.16-47.51-12.15-182.56-101.18-251.51-85.3-66.06-203.15-39.78-355.58-5.78-196.42,43.8-188.81,90.84-326.68,109.85-201,27.72-272.66-64.61-419.18-17.34-73.05,23.56-128.81,70.28-170.7,119.41a137,137,0,0,1,29.5-4.71l1016.31-46.78c55-2.53,102.9,33.51,117.4,88l69.31,260.45c35.82,134.61,154.25,212.82,278.85,199.83C2226.08,1424.8,2194.13,1339.94,2192.43,1276.59Z"/><path class="cls-5" d="M969.86,425.09c0,165.11-135.12,303.36-304.07,308.85-171.53,5.58-312.5-127.39-312.5-297.07s141-308,312.5-309C834.74,126.9,969.86,260,969.86,425.09Z"/><path class="cls-6" d="M1314.7,818.05c0,133.45-107.36,246.84-241.26,253.31-135.53,6.56-246.63-98.66-246.63-235.09s111.1-250,246.63-253.52C1207.34,579.22,1314.7,684.59,1314.7,818.05Z"/><path class="cls-7" d="M1268.21,819.78c0,107.74-86.78,199.09-194.77,204.08-109.05,5-198.25-79.74-198.25-189.4s89.2-201.1,198.25-204.21C1181.43,627.18,1268.21,712.05,1268.21,819.78Z"/><path class="cls-8" d="M1229.65,822c0,75-60.37,138.8-135.66,142.44-76.22,3.69-138.69-55.48-138.69-132.2S1017.77,691.65,1094,689.64C1169.28,687.66,1229.65,746.91,1229.65,822Z"/><path class="cls-9" d="M1203.51,822.93c0,60.59-48.8,112-109.52,114.76-61.32,2.84-111.48-44.84-111.48-106.5S1032.67,718.1,1094,716.36C1154.71,714.63,1203.51,762.35,1203.51,822.93Z"/><path class="cls-10" d="M2033.24,788.23c0,128.6-99.66,237.66-223.9,243.67-125.71,6.08-228.71-95.41-228.71-226.77s103-240.54,228.71-243.85C1933.58,558,2033.24,659.64,2033.24,788.23Z"/><path class="cls-11" d="M1990.07,789.84c0,103.8-80.53,191.68-180.73,196.31-101.15,4.67-183.86-77.1-183.86-182.69S1708.19,609.92,1809.34,607C1909.54,604.19,1990.07,686,1990.07,789.84Z"/><path class="cls-12" d="M1974.48,791.56c0,75.05-60.38,138.8-135.67,142.45-76.21,3.68-138.69-55.49-138.69-132.2s62.48-140.56,138.69-142.56C1914.1,657.27,1974.48,716.51,1974.48,791.56Z"/><path class="cls-13" d="M1948.33,792.54c0,60.58-48.79,112-109.52,114.75-61.32,2.84-111.48-44.83-111.48-106.5S1777.49,687.71,1838.81,686C1899.54,684.23,1948.33,732,1948.33,792.54Z"/><path class="cls-14" d="M969.93,244.51h0a37.13,37.13,0,0,1-37.67-37.14v-66a37.83,37.83,0,0,1,37.67-37.73h0a37.26,37.26,0,0,1,37.53,37.25v65.78A38,38,0,0,1,969.93,244.51Z"/><path class="cls-15" d="M1883.4,233.46h0c-18.94.21-34.33-15.68-34.33-35.48V135c0-19.81,15.39-35.93,34.33-36h0c18.91-.09,34.22,15.84,34.22,35.58v62.81C1917.62,217.08,1902.31,233.25,1883.4,233.46Z"/><path class="cls-16" d="M698.12,211.36l-64.76.61c-19.08.18-34.58,15.52-34.58,34.27v73.69a33.06,33.06,0,0,0,5.78,18.69l29.28,42.82a34,34,0,0,0,28.73,14.64L669,396a35.22,35.22,0,0,0,28.64-15.61l29-43.57A33.78,33.78,0,0,0,732.39,318V244.79A33.62,33.62,0,0,0,698.12,211.36Z"/><path class="cls-17" d="M698.12,649.2l-64.76,1.87c-19.08.55-34.58-14.21-34.58-33V544.43a34.1,34.1,0,0,1,5.78-18.91l29.28-43.94a35.53,35.53,0,0,1,28.73-15.74l6.43-.13a33.73,33.73,0,0,1,28.64,14.51l29,42.46a32.74,32.74,0,0,1,5.71,18.53v73.26C732.39,633.1,717.06,648.66,698.12,649.2Z"/><path class="cls-18" d="M440.57,403.05v64.3c0,18.88,15.71,33.84,35.07,33.41l75.74-1.66a36,36,0,0,0,19.21-6.1l44.22-29.7a34.54,34.54,0,0,0,15.45-28.56v-6.33a33.05,33.05,0,0,0-15.45-28l-44.22-28a34.88,34.88,0,0,0-19.21-5.36l-75.74,1.23C456.28,368.61,440.57,384.17,440.57,403.05Z"/><path class="cls-19" d="M886.59,395.16v63a34.56,34.56,0,0,1-33.81,34.26l-73.73,1.62a33.87,33.87,0,0,1-18.87-5.2l-43.65-27.66a32.89,32.89,0,0,1-15.33-27.84v-6.31a34.38,34.38,0,0,1,15.33-28.43l43.65-29.32a34.9,34.9,0,0,1,18.87-5.93l73.73-1.2A33,33,0,0,1,886.59,395.16Z"/><path class="cls-20" d="M712.57,214.57l-64.75.6c-19.09.18-34.58,15.53-34.58,34.28v73.69A33,33,0,0,0,619,341.82l29.28,42.82A34,34,0,0,0,677,399.29l6.42-.11a35.25,35.25,0,0,0,28.64-15.61l29-43.57a33.79,33.79,0,0,0,5.72-18.75V248A33.62,33.62,0,0,0,712.57,214.57Z"/><path class="cls-21" d="M712.57,652.41l-64.75,1.86c-19.09.55-34.58-14.2-34.58-32.95V547.63A34.12,34.12,0,0,1,619,528.72l29.28-43.93A35.5,35.5,0,0,1,677,469l6.42-.13a33.72,33.72,0,0,1,28.64,14.52l29,42.46a32.73,32.73,0,0,1,5.72,18.53v73.25C746.85,636.31,731.51,651.86,712.57,652.41Z"/><path class="cls-22" d="M455,406.26v64.29c0,18.89,15.71,33.84,35.06,33.42l75.74-1.67a36,36,0,0,0,19.22-6.09l44.22-29.7A34.53,34.53,0,0,0,644.71,438v-6.33a33,33,0,0,0-15.44-28l-44.22-28a34.83,34.83,0,0,0-19.22-5.36l-75.74,1.22C470.74,371.82,455,387.38,455,406.26Z"/><path class="cls-23" d="M901.05,398.37v63a34.57,34.57,0,0,1-33.81,34.26l-73.74,1.62a33.75,33.75,0,0,1-18.86-5.21L731,464.42a32.86,32.86,0,0,1-15.32-27.84v-6.31A34.35,34.35,0,0,1,731,401.85l43.66-29.33a34.84,34.84,0,0,1,18.86-5.93l73.74-1.19A33,33,0,0,1,901.05,398.37Z"/><path class="cls-24" d="M1911.32,405.44c0,157.48,121.48,281.19,269.43,276.38,145.89-4.74,262.67-133,262.67-286.54S2326.64,118,2180.75,118.78C2032.8,119.61,1911.32,248,1911.32,405.44Z"/><path class="cls-25" d="M2248.3,222.75c0,39.48-30.19,71.91-67.55,72.43s-68-31.25-68-71,30.49-72.17,68-72.44S2248.3,183.26,2248.3,222.75Z"/><path class="cls-26" d="M2248.3,575.27c0,39.48-30.19,72.42-67.55,73.58s-68-30.11-68-69.85,30.49-72.68,68-73.59S2248.3,535.79,2248.3,575.27Z"/><path class="cls-27" d="M2012.32,331.22c38-.59,68.63,31.19,68.63,71s-30.67,72.76-68.63,73.61-69.09-30.92-69.09-71S1974.22,331.82,2012.32,331.22Z"/><path class="cls-28" d="M2346.51,326c36.78-.58,66.49,30.71,66.49,69.88s-29.71,71.6-66.49,72.42-66.91-30.45-66.91-69.87S2309.61,326.56,2346.51,326Z"/><path class="cls-29" d="M2262.75,226c0,39.48-30.19,71.91-67.55,72.44s-68-31.26-68-71,30.49-72.18,68-72.45S2262.75,186.47,2262.75,226Z"/><path class="cls-30" d="M2262.75,578.48c0,39.48-30.19,72.42-67.55,73.58s-68-30.11-68-69.85,30.49-72.69,68-73.59S2262.75,539,2262.75,578.48Z"/><path class="cls-31" d="M2026.77,334.43c38-.6,68.64,31.18,68.64,71s-30.68,72.75-68.64,73.61-69.08-30.92-69.08-71S1988.67,335,2026.77,334.43Z"/><path class="cls-32" d="M2361,329.19c36.77-.58,66.48,30.71,66.48,69.88s-29.71,71.59-66.48,72.42-66.91-30.45-66.91-69.87S2324.07,329.77,2361,329.19Z"/><path class="cls-33" d="M319.12,1548.34c5.78-73.16,104.3-84,124.31-176.35,27.42-126.51-139.32-190.7-124.31-326.67,14.67-133,187-188,161.89-268.86-12.49-40.13-57.35-34.09-118.53-89.61-86-78.05-105.56-188.19-109.85-219.71-26.7-196.2,130.56-343.42,159-370A508.61,508.61,0,0,1,559.38,1C407.7,11.5,272,118.87,236.66,275.2L8.35,1285.11C-29.83,1454,66.17,1615.44,231,1661.79h0a336.15,336.15,0,0,0,156.71,5.75C330.06,1617.7,316.75,1578.27,319.12,1548.34Z"/><path class="cls-34" d="M1608.47,386.19c-82-45.28-130.68,8.69-190.19-32.36-69.4-47.88-26.28-137.16-96-190.24-58.74-44.71-114.9-.84-199.78-34.17a210,210,0,0,1-51.73-29.57V427.46c0,58.84,41,105.39,91.45,104l566.11-15.8a74.48,74.48,0,0,0,33.5-9.14,234.13,234.13,0,0,1-40.11-18.8C1661.81,452.28,1663.7,416.68,1608.47,386.19Z"/></g></g></g></svg>